<?xml version="1.0" encoding="utf-8"?>
<!-- Generator: Adobe Illustrator 22.1.0, SVG Export Plug-In . SVG Version: 6.00 Build 0)  -->
<svg version="1.1" id="レイヤー_1" xmlns="http://www.w3.org/2000/svg" xmlns:xlink="http://www.w3.org/1999/xlink" x="0px"
	 y="0px" viewBox="0 0 800 400" enable-background="new 0 0 800 400" xml:space="preserve">
<rect y="0" fill="#FFFFFF" width="800" height="400"/>
<g>
	<g>
		<path d="M508.6191,121.3262v13.3936h-0.959v-14.9297c0-2.4482,0.0469-8.4492-5.5684-8.4492
			c-6.8164,0-9.6016,4.9922-10.6094,8.2578v15.1211h-0.9609v-23.666c0.2402,0,0.7207-0.0967,0.9609-0.1924v6.5283
			c1.248-2.832,4.1758-6.9121,10.7051-6.9121C509.0039,110.4775,508.6191,117.3897,508.6191,121.3262z"/>
	</g>
	<g>
		<path d="M577.8359,121.1826v13.5371h-1.4414V119.79c0-2.4004,0-8.1133-5.4238-8.1133c-6.2402,0-9.0723,4.5127-10.1758,7.6328
			v15.4102h-1.4414v-23.666c0.3848-0.0488,1.0078-0.1445,1.4414-0.2891v6.0977c1.2949-2.7363,4.1758-6.4336,10.2715-6.4336
			C578.1719,110.4287,577.8359,117.3418,577.8359,121.1826z"/>
	</g>
	<g>
		<path d="M647.2188,120.9424v13.7773h-2.4004V119.79c0-2.3047-0.0957-7.3926-5.1348-7.3926c-5.2324,0-8.1621,3.792-9.3145,6.6719
			v15.6504h-2.3984v-23.7148c0.7676-0.0479,1.6309-0.1914,2.3984-0.3838v5.376c1.3457-2.543,4.1289-5.6641,9.5059-5.6641
			C647.5547,110.333,647.2188,117.2451,647.2188,120.9424z"/>
	</g>
	<g>
		<path d="M716.7715,120.5576v14.1621h-3.8398V119.79c0-2.1602-0.2402-6.3359-4.6562-6.3359c-3.7441,0-6.7695,2.7354-8.0645,5.2324
			v16.0332h-3.8398v-23.7148c1.2949-0.1436,2.5918-0.2871,3.8398-0.5762v4.3203c1.4395-2.1602,4.0312-4.5117,8.3047-4.5117
			C717.1074,110.2373,716.7715,117.1016,716.7715,120.5576z"/>
	</g>
	<g>
		<path d="M510.3965,267.3662v14.3535h-5.0879v-14.4023c0-2.6396-0.4316-6-4.3203-6c-3.2656,0-5.9043,2.2559-7.1523,4.8965v15.5059
			h-5.0898l0.0488-22.2266v-1.584c1.584-0.0957,3.6484-0.3359,5.041-0.7207v4.1777c1.3906-2.209,3.9355-4.4648,8.3516-4.4648
			C509.5801,256.9014,510.3965,262.8057,510.3965,267.3662z"/>
	</g>
	<g>
		<path d="M580.0449,281.7197h-6.3359l-0.0488-13.8262c0-3.1191-0.625-5.6641-3.9355-5.6641c-2.8809,0-5.0898,1.8242-6.2891,4.6084
			v14.8818h-6.3379l0.0977-22.418v-1.4883c1.9199,0,4.7031-0.3359,6.2402-0.8164v4.0322c1.3926-2.2559,3.8398-4.416,8.4492-4.416
			c6.1445,0,8.1113,4.9443,8.1113,10.6084L580.0449,281.7197z"/>
	</g>
	<g>
		<path d="M649.5,267.7979v13.9219h-7.248l-0.0488-13.7295c0-3.1201-0.5742-5.3291-3.5996-5.3291
			c-2.5918,0-4.6074,1.6328-5.7129,4.0332v15.0254h-7.248l0.0488-22.5146v-1.4873c2.207-0.0488,5.4707-0.4326,7.1992-0.9121v3.5996
			c1.4414-2.0645,3.6973-4.0801,7.9219-4.0801C646.957,256.3252,649.5,260.6934,649.5,267.7979z"/>
	</g>
	<g>
		<path d="M710.7715,281.7197v-13.5859c0-3.1201-0.623-5.0879-3.3594-5.0879c-2.2578,0-4.0332,1.3926-5.041,3.3125v15.3613h-8.209
			l0.0488-22.5625v-1.584c2.4473,0,6.2402-0.4316,8.1602-0.96v3.168c1.4395-1.8721,3.5996-3.6963,7.3926-3.6963
			c6.0488,0,9.168,3.6963,9.168,12.2891l0.0488,13.3457L710.7715,281.7197L710.7715,281.7197z"/>
	</g>
</g>
<g>
	<g>
		<path d="M80.3145,77.2848c-0.7441,0.4961-1.7363,0.7441-2.9766,0.7441c-2.2812,0-3.7207-1.7363-4.1172-3.2744
			c-1.042,1.5879-3.125,3.5225-7.2422,3.5225c-3.0264,0-8.582-1.29-8.582-7.4902c0-6.8955,6.8457-7.8877,9.375-7.8877
			c2.6787,0,4.6143,0.6445,5.9531,1.1904v-1.5381c0-4.7617-1.5869-6.6963-5.7539-6.6963c-2.7783,0-5.2588,1.6865-6.7969,3.4229
			c-0.1982-1.5381-0.4463-2.5303-0.8428-3.6709c2.0342-1.8848,5.1094-3.125,8.4824-3.125c7.292,0,8.8799,4.9102,8.8799,10.0693
			v8.7803c0,1.5879,0.0986,3.8701,2.1328,3.8701c0.6445,0,1.2402-0.1494,1.5879-0.3477
			C80.3145,75.7965,80.2646,76.2926,80.3145,77.2848z M72.7246,71.6793V67.066c-1.042-0.4463-3.2744-0.9922-5.8535-0.9922
			c-2.7285,0-5.6553,0.8926-5.6553,4.4648c0,2.2812,1.4385,4.5635,4.8613,4.5635C69.1035,75.1022,71.4346,73.6637,72.7246,71.6793z"
			/>
		<path d="M69.376,116.8287v3.4727h6.25c-0.1982,1.041-0.3477,2.3809-0.3477,3.4717H69.376v21.3311h-3.9688v-21.3311h-4.167
			c0.1982-1.041,0.3467-2.3809,0.3467-3.4717h3.8203v-4.3164c-0.1494-4.1172,2.2812-8.582,7.5898-8.582
			c1.5869,0,2.3311,0.1992,3.3232,0.5459c-0.4463,1.042-0.5947,2.084-0.6445,3.2246c-0.8438-0.1982-1.3896-0.2979-2.332-0.2979
			C69.7725,110.8756,69.3262,114.8444,69.376,116.8287z"/>
		<path d="M66.5488,175.0231c1.3389-0.1484,2.6787-0.2979,3.9678-0.5947v37.9985h-3.9678V175.0231z"/>
		<path d="M78.627,254.6495v37.2041c-1.3389,0.1494-2.6787,0.2979-3.9688,0.5957v-13.7412
			c-1.7852,0.9424-4.0176,1.5381-5.8037,1.5381c-7.9863,0-12.6494-5.5059-12.6494-12.8975c0-7.4414,4.2656-12.8975,12.1035-12.8975
			c2.5801,0,4.7129,0.8428,6.3496,2.0332v-1.2402C75.998,255.0958,77.3369,254.9474,78.627,254.6495z M74.6582,275.087v-14.5342
			c-1.4883-1.4385-3.5215-2.6299-6.3496-2.6299c-5.3574,0-8.0361,4.415-8.0361,9.4258c0,5.5059,3.125,9.4248,8.4824,9.4248
			C71.335,276.7736,73.2695,275.9796,74.6582,275.087z"/>
		<path d="M81.2314,322.2697l-10.2686,24.8027h-4.3652L55.833,322.2697h4.7129l8.3828,20.834l8.0859-20.834H81.2314z"/>
	</g>
</g>
<g>
	<g>
		<path d="M160.5068,65.3795c0,7.9365-4.9609,12.8975-12.9971,12.8975c-2.2822,0-6.8955-0.4961-9.1768-1.5381V40.3776
			c1.3389-0.1484,2.6787-0.2979,3.9678-0.5947v14.7324c1.7861-1.3389,4.0684-2.0332,6.251-2.0332
			C156.29,52.482,160.5068,57.8395,160.5068,65.3795z M156.4395,65.3795c0-5.6553-2.6787-9.4258-7.7891-9.4258
			c-2.3311,0-4.7119,0.7441-6.3496,2.0342v16.0225c1.9355,0.5957,3.9189,0.7939,5.209,0.7939
			C153.0654,74.8043,156.4395,70.8854,156.4395,65.3795z"/>
		<path d="M154.6289,124.0211c0.7939,0.8936,1.6367,2.3818,1.6367,4.415c0,5.0605-3.9189,8.6816-9.3262,8.6816
			c-0.8428,0-1.6865-0.0996-2.4795-0.248c-1.042,0.4463-2.2324,1.3887-2.2324,2.7285c0,4.9102,17.8086-0.8438,17.8086,9.5244
			c0,6.9443-7.6396,8.3828-11.9053,8.3828c-4.167,0-11.3105-1.5869-11.3105-7.9863c0-2.8271,1.5381-4.415,3.3232-5.8037
			c-1.041-0.7441-1.6865-1.7363-1.6865-3.3242c0-2.2812,1.3887-4.0176,2.7783-4.9111c-2.332-1.5371-3.7705-4.0176-3.7705-7.0439
			c0-5.0098,4.0186-8.6309,9.4746-8.6309c2.3818,0,4.3662,0.5947,5.8535,1.6367c1.9844-0.248,5.1104-0.9922,7.9873-2.332
			c-0.3477,1.5381-0.1982,2.9268-0.0498,3.9688C158.8457,123.8229,156.4639,124.1207,154.6289,124.0211z M143.3184,144.8561
			c-1.5869,0.9922-2.6787,2.2324-2.6787,3.9189c0,3.4727,2.7783,5.457,7.7881,5.457c3.0264,0,7.7393-1.1416,7.7393-4.8125
			C156.167,144.7565,148.5771,145.8483,143.3184,144.8561z M152.4463,128.4362c0-3.0254-2.0342-5.5557-5.5068-5.5557
			c-3.5215,0-5.6543,2.5303-5.6543,5.5557c0,2.9766,2.1328,5.3574,5.6543,5.3574
			C150.4121,133.7936,152.4463,131.4127,152.4463,128.4362z"/>
		<path d="M166.7822,197.7926v14.6343h-3.9678v-15.7261c0-2.2812-0.0996-6.25-4.3652-6.25c-4.0684,0-6.9951,3.2744-8.0371,6.0518
			v1.29v14.6343h-3.9678v-15.7261c0-2.2812-0.0498-6.25-4.3164-6.25c-4.1172,0-7.0439,3.3232-8.0859,6.0518v15.9243h-3.9678
			v-24.5063c1.3389-0.1484,2.6787-0.2969,3.9678-0.5947v4.4639c1.29-2.2314,3.8203-4.6621,8.334-4.6621
			c5.0107,0,6.9453,2.3311,7.6396,5.0098c1.2402-2.2324,3.9189-5.0098,8.7305-5.0098
			C167.4775,187.1276,166.7822,194.2213,166.7822,197.7926z"/>
		<path d="M157.1836,254.9474c-0.6445,1.2393-0.9922,2.8271-1.042,4.2158c-4.3154-1.041-7.8369,1.8359-9.2764,5.0605v15.5264
			h-3.9678v-24.5059c1.3389-0.1484,2.6787-0.2969,3.9678-0.5947v5.1592C148.3535,256.7823,151.2803,253.9552,157.1836,254.9474z"/>
		<path d="M167.7988,322.2697l-8.6807,24.8027h-4.3652l-6.2012-20.9336l-6.2998,20.9336h-4.3652l-9.0781-24.8027h4.7129
			l6.6465,20.6357l6.251-20.6357h4.7617l5.9531,20.6357l6.4492-20.6357H167.7988z"/>
	</g>
</g>
<g>
	<g>
		<path d="M238.3232,54.2174c-0.6455,0.9922-1.042,2.2324-1.29,3.4229c-1.3887-0.8926-3.2246-1.6865-6.0029-1.6865
			c-5.4062,0-8.7305,4.0186-8.7305,9.4258c0,5.5059,3.8203,9.4248,9.1279,9.4248c2.5791,0,5.7041-0.8926,7.1436-2.2812
			c-0.3975,1.4873-0.5957,3.0254-0.6455,4.2656c-1.7852,0.8926-4.7119,1.4883-6.9941,1.4883
			c-7.6396,0-12.6992-5.1592-12.6992-12.8975c0-7.2432,4.8115-12.8975,12.6494-12.8975
			C233.3125,52.482,236.5869,53.1764,238.3232,54.2174z"/>
		<path d="M239.0664,130.4703v14.6338h-3.9678v-16.2217c0-2.0332-0.4961-5.7539-4.8125-5.7539c-3.8691,0-6.9941,2.9766-8.334,5.6055
			v16.3701h-3.9678v-37.4033c1.3389-0.1484,2.6787-0.2979,3.9678-0.5947v17.3613c1.4883-2.2314,4.167-4.6621,8.582-4.6621
			C239.2656,119.8053,239.0664,126.899,239.0664,130.4703z"/>
		<path d="M239.0664,197.7926v14.6343h-3.9678v-15.4282c0-2.2324-0.248-6.5479-4.8125-6.5479c-3.8691,0-6.9941,2.8271-8.334,5.4072
			v16.5688h-3.9678v-24.5063c1.3389-0.1484,2.6787-0.2969,3.9678-0.5947v4.4639c1.4883-2.2314,4.167-4.6621,8.582-4.6621
			C239.4141,187.1276,239.0664,194.2213,239.0664,197.7926z"/>
		<path d="M221.1582,273.1525c1.2402,1.8848,4.4648,3.5225,7.3418,3.5225c1.9346,0,4.3164-0.6953,4.3164-3.1748
			c0-6.0029-12.0547-3.7207-12.0547-12.501c0-4.3164,4.167-6.5479,7.9365-6.5479c3.2744,0,5.5566,0.8428,7.293,2.1826
			c-0.4961,1.3887-0.8438,2.6787-1.042,4.0674c-1.0918-1.5869-3.7207-3.0264-6.1514-3.0264c-1.7861,0-4.1172,0.6953-4.1172,3.0762
			c0,6.5479,12.0547,3.5215,12.0547,12.749c0,5.6543-5.3086,6.7461-8.6816,6.7461c-3.2246,0-6.3496-1.3398-7.9863-2.9268
			C220.5635,275.9796,220.96,274.4923,221.1582,273.1525z"/>
		<path d="M235.0234,347.0724l-6.8457-9.6729l-6.8945,9.6729h-4.7129l9.376-12.6992l-9.1279-12.1035h5.209l6.1504,9.0771
			l6.5977-9.0771h4.7129l-9.1279,12.1035l9.8721,12.6992H235.0234z"/>
	</g>
</g>
<g>
	<g>
		<path d="M310.6309,39.7828V77.483c-1.3389,0.1494-2.6787,0.2979-3.9688,0.5957v-1.6865c-1.5869,1.041-3.7197,1.8848-6.2002,1.8848
			c-7.7881,0-12.0049-4.9609-12.0049-12.8975c0-7.3916,4.415-12.8975,12.4014-12.8975c2.1826,0,4.2168,0.5449,5.8037,1.4385v-13.543
			C308.002,40.2291,309.3408,40.0797,310.6309,39.7828z M301.1064,74.8043c1.9844,0,4.0186-0.6445,5.5557-1.4883V57.6403
			c-1.2891-0.8428-3.2236-1.6865-5.9033-1.6865c-5.3574,0-8.2344,3.9189-8.2344,9.4258
			C292.5244,70.8854,295.5508,74.8043,301.1064,74.8043z"/>
		<path d="M291.2354,112.5123c0-1.5371,1.041-2.6787,2.6787-2.6787c1.6367,0,2.7285,1.1416,2.7285,2.6787
			c0,1.6377-1.0918,2.7783-2.7285,2.7783C292.2764,115.2906,291.2354,114.15,291.2354,112.5123z M291.9297,120.5983
			c1.3389-0.1484,2.6787-0.2969,3.9688-0.5947v25.1006h-3.9688V120.5983z"/>
		<path d="M305.125,147.5348v-26.9365c1.3389-0.1484,2.6787-0.2969,3.9678-0.5947v26.5889c0,5.8037-2.2324,9.6729-8.334,11.1611
			c-0.3467-1.1904-0.793-2.3311-1.3389-3.373C303.0908,153.4879,305.0752,151.3541,305.125,147.5348z M304.4297,112.5123
			c0-1.5371,1.042-2.6787,2.6787-2.6787c1.6377,0,2.7285,1.1416,2.7285,2.6787c0,1.6377-1.0908,2.7783-2.7285,2.7783
			C305.4717,115.2906,304.4297,114.15,304.4297,112.5123z"/>
		<path d="M288.0352,200.025c0-7.5898,4.6631-12.8975,12.501-12.8975s12.5,5.3076,12.5,12.8975
			c0,7.5903-4.6621,12.8979-12.5,12.8979S288.0352,207.6154,288.0352,200.025z M308.9688,200.025
			c0-5.5068-3.0752-9.4258-8.4326-9.4258s-8.4336,3.9189-8.4336,9.4258c0,5.5063,3.0762,9.4253,8.4336,9.4253
			S308.9688,205.5314,308.9688,200.025z"/>
		<path d="M301.2314,273.3009c0.0488,1.8857,0.3965,3.5225,3.3232,3.5225c0.6943,0,1.9844-0.2979,2.5303-0.5459
			c-0.248,0.9424-0.3477,2.1328-0.2979,3.125c-1.1904,0.4473-2.2822,0.5957-3.5225,0.5957c-5.5059,0-6.0518-4.1172-6.002-7.3418
			v-14.2373h-4.167c0.1982-1.041,0.3467-2.3809,0.3467-3.4717h3.8203v-6.6475c1.3389-0.1494,2.6787-0.2979,3.9688-0.5957v7.2432
			h6.25c-0.1982,1.041-0.3477,2.3809-0.3477,3.4717h-5.9023V273.3009z"/>
		<path d="M313.2354,322.2697L302.917,347.965c-1.6865,4.6133-5.0098,10.3184-10.8633,11.9551
			c-0.3975-1.041-0.8936-2.0332-1.5381-3.0752c4.4648-1.4883,7.0439-5.457,8.6807-9.4746l-11.3594-25.1006h4.7129l8.5322,20.2393
			l7.9365-20.2393H313.2354z"/>
	</g>
</g>
<g>
	<g>
		<path d="M383.459,65.8756h-18.0566c0.1982,5.2578,3.4727,8.9287,9.1279,8.9287c3.5713,0,6.6963-1.1904,8.1357-2.5791
			c-0.3477,1.4883-0.5957,3.1748-0.6455,4.415c-1.7861,0.8926-4.3652,1.6367-7.4902,1.6367c-8.334,0-13.1953-4.9609-13.1953-12.8975
			c0-7.5898,4.0674-12.8975,11.5586-12.8975C380.7803,52.482,383.9551,57.0953,383.459,65.8756z M365.6504,62.4029h13.6914
			c0.0498-3.5225-1.835-6.4492-6.4482-6.4492C368.7266,55.9537,366.3945,58.5338,365.6504,62.4029z"/>
		<path d="M385.4932,143.4176c-1.6865,0.6445-2.9766,1.5381-3.9189,2.2324c-3.373-2.2822-10.5166-8.8799-13.791-12.749v12.2031
			h-3.9678v-37.4033c1.3389-0.1484,2.6787-0.2979,3.9678-0.5947v24.6543l10.6162-11.459h4.8613L372,132.0084
			C374.7783,135.1832,381.7227,141.1852,385.4932,143.4176z"/>
		<path d="M384.9971,200.025c0,7.3921-4.6631,12.8979-12.6494,12.8979c-1.9844,0-4.1172-0.5957-5.8047-1.4883v13.0957
			c-1.3389,0.1494-2.6787,0.2979-3.9678,0.5957v-37.2056c1.3389-0.1484,2.6787-0.2969,3.9678-0.5947v1.9844
			c1.5879-1.2402,3.7705-2.1826,6.6973-2.1826C380.582,187.1276,384.9971,192.0875,384.9971,200.025z M380.9297,200.025
			c0-5.5068-3.0762-9.4258-8.0859-9.4258c-3.0264,0-4.7627,1.042-6.3008,2.4307v14.7339c1.3896,0.8926,3.3242,1.6865,5.9033,1.6865
			C377.8037,209.4503,380.9297,205.5314,380.9297,200.025z"/>
		<path d="M383.0869,254.6495v24.8027c-1.3389,0.1494-2.6787,0.2979-3.9678,0.5957v-4.2168c-1.5381,2.084-4.2666,4.415-8.582,4.415
			c-8.7305,0-8.5322-7.0938-8.5322-10.665v-14.3369c1.3389-0.1484,2.6787-0.2969,3.9678-0.5947v16.5186
			c0,2.0342,0.4961,5.7549,4.8125,5.7549c3.6709,0,6.9443-2.8779,8.334-5.4072v-16.2715
			C380.458,255.0958,381.7979,254.9474,383.0869,254.6495z"/>
		<path d="M383.8809,343.5997c-0.1982,1.042-0.3477,2.3809-0.3477,3.4727h-22.3223l16.0723-21.3311h-14.8818
			c0.1982-1.041,0.3477-2.3809,0.3477-3.4717h21.3799l-16.0723,21.3301H383.8809z"/>
	</g>
</g>
</svg>
