<?xml version="1.0" encoding="utf-8"?>
<!-- Generator: Adobe Illustrator 22.1.0, SVG Export Plug-In . SVG Version: 6.00 Build 0)  -->
<svg version="1.1" id="レイヤー_1" xmlns="http://www.w3.org/2000/svg" xmlns:xlink="http://www.w3.org/1999/xlink" x="0px"
	 y="0px" viewBox="0 0 800 400" enable-background="new 0 0 800 400" xml:space="preserve">
<rect fill="#FFFFFF" width="800" height="400"/>
<g>
	<path d="M72.7949,70.7598c-0.959,0.5273-1.584,0.7207-2.7832,0.7207c-2.1602,0-3.5527-1.585-3.8887-2.9766
		c-1.248,1.3916-3.3125,3.2158-7.2012,3.2158c-2.9277,0-8.209-1.248-8.209-7.249c0-6.6719,6.625-7.6328,9.0742-7.6328
		c2.4961,0,4.4648,0.4805,5.7598,1.0566v-2.4961c0-3.3604-1.8242-5.2812-5.8086-5.2812c-2.832,0-4.8477,1.585-5.9531,2.9766
		c-0.2383-1.3438-0.5742-2.207-1.1035-3.2158c1.1523-1.3916,3.9375-3.1201,7.2969-3.1201c7.9688,0,9.457,4.752,9.4082,9.457
		c-0.0469,1.9678,0,5.5684,0,8.7842c0,1.5361,0.0977,3.4092,2.0645,3.4092c0.6719,0,1.0566-0.2402,1.5371-0.5293
		C72.748,68.791,72.748,69.7998,72.7949,70.7598z M59.1152,68.6475c2.7832,0,4.7988-1.3447,6.4316-2.7842v-5.041
		c-1.1035-0.5273-3.2637-0.9121-5.6641-0.9121c-2.6406,0-5.4727,0.8652-5.4727,4.3203
		C54.4102,66.4395,55.8027,68.6475,59.1152,68.6475z"/>
	<path d="M62.4258,115.877v3.3613h6.0488c-0.1914,1.0078-0.3359,2.3027-0.3359,3.3594h-5.7129v20.6426h-3.8398v-20.6426h-4.0312
		c0.1914-1.0078,0.3359-2.3047,0.3359-3.3594h3.6953v-4.1777c-0.1445-3.9844,2.209-8.3047,7.3457-8.3047
		c1.5352,0,2.2559,0.1934,3.2148,0.5293c-0.4785,1.0078-0.5762,2.0156-0.623,3.1191c-0.8164-0.1914-1.3438-0.2871-2.2559-0.2871
		C62.8105,110.1172,62.3789,113.957,62.4258,115.877z"/>
	<path d="M59.9307,179.0449c1.2969-0.1445,2.5918-0.2891,3.8398-0.5762v36.7715h-3.8398V179.0449z"/>
	<path d="M72.7002,262.9492v36.0039c-1.2969,0.1445-2.5918,0.2871-3.8398,0.5762v-13.2969
		c-1.7285,0.9121-3.8887,1.4883-5.6172,1.4883c-7.7285,0-12.2422-5.3301-12.2422-12.4824c0-7.2012,3.9375-12.4805,11.4746-12.4805
		c2.4004,0,4.6562,0.7207,6.3848,1.7285v-0.9609C70.1553,263.3809,71.4521,263.2383,72.7002,262.9492z M68.8604,282.7266v-14.4004
		c-1.5859-1.2969-3.7461-2.209-6.3848-2.209c-5.1367,0-7.5371,4.2734-7.5371,9.1211c0,5.3281,3.0234,9.1211,8.209,9.1211
		C65.6436,284.3594,67.5146,283.5918,68.8604,282.7266z"/>
	<path d="M74.1396,335.2383l-9.9375,24.002h-4.2246l-10.416-24.002h4.5605l8.1133,20.1602l7.8242-20.1602H74.1396z"/>
</g>
<g>
	<path d="M152.084,59.2383c0,7.6816-5.041,12.4814-12.8164,12.4814c-2.209,0-6.6738-0.4795-8.8809-1.4883V35.0449
		c1.2949-0.1445,2.5918-0.2891,3.8398-0.5762v13.7773c1.7285-0.9121,3.8887-1.4883,5.6172-1.4883
		C147.5723,46.7578,152.084,52.0859,152.084,59.2383z M148.1484,59.2383c0-5.3281-3.0254-9.1211-8.209-9.1211
		c-2.4961,0-4.3691,0.7695-5.7129,1.6328v15.8418c1.873,0.5762,3.793,0.7676,5.041,0.7676
		C144.6445,68.3594,148.1484,64.5674,148.1484,59.2383z"/>
	<path d="M151.627,123.6055c-1.8223,0-3.8867-0.2402-4.9922-0.7188c0.7695,0.9121,1.5371,2.3027,1.5371,4.2227
		c0,4.8965-3.793,8.4023-9.0254,8.4023c-0.8164,0-1.6309-0.0957-2.4004-0.2402c-1.0078,0.4316-2.1602,1.3438-2.1602,2.6406
		c0,4.752,16.9941-0.7207,16.9941,9.2168c0,6.5762-7.1523,8.1113-11.2812,8.1113c-4.0332,0-10.8008-1.5352-10.8008-7.7285
		c0-2.7363,1.3438-4.2715,3.0723-5.6152c-1.0078-0.6738-1.6328-1.6816-1.6328-3.2168c0-2.209,1.3457-3.8887,2.6895-4.752
		c-2.2559-1.4883-3.6484-3.8887-3.6484-6.8184c0-4.8477,3.8887-8.3516,9.168-8.3516c1.4883,0,2.832,0.2402,3.9844,0.6719
		c2.6406,0.8633,7.1523,1.0078,9.8418,0.0957C152.2031,120.8691,151.6758,122.502,151.627,123.6055z M135.5938,143
		c-1.4883,1.0078-2.4004,2.1602-2.4004,3.793c0,3.3594,2.5449,5.2793,7.3945,5.2793c2.9277,0,7.248-1.248,7.248-4.6562
		C147.8359,143,140.5879,144.0078,135.5938,143z M144.4746,127.1094c0-2.9277-1.9668-5.375-5.3281-5.375
		c-3.4082,0-5.4727,2.4473-5.4727,5.375c0,2.8809,2.0645,5.1855,5.4727,5.1855
		C142.5078,132.2949,144.4746,129.9902,144.4746,127.1094z"/>
	<path d="M158.9897,201.0781v14.1621h-3.8398v-15.2188c0-2.207-0.0957-6.0469-4.2246-6.0469c-3.9355,0-6.7676,3.168-7.7754,5.8555
		v1.248v14.1621h-3.8418v-15.2188c0-2.207-0.0469-6.0469-4.1758-6.0469c-3.9844,0-6.8164,3.2148-7.8242,5.8555v15.4102h-3.8398
		v-23.7148c1.2949-0.1445,2.5918-0.2871,3.8398-0.5762v4.3203c1.248-2.1602,3.6953-4.5117,8.0645-4.5117
		c4.8477,0,6.7207,2.2559,7.3926,4.8477c1.1992-2.1602,3.793-4.8477,8.4492-4.8477
		C159.6635,190.7578,158.9897,197.623,158.9897,201.0781z"/>
	<path d="M148.1484,263.2383c-0.625,1.1992-0.9609,2.7363-1.0098,4.0801c-4.1758-1.0078-7.584,1.7754-8.9766,4.8965v15.0254h-3.8398
		v-23.7148c1.2969-0.1445,2.5918-0.2871,3.8398-0.5762v4.9922C139.6035,265.0137,142.4355,262.2773,148.1484,263.2383z"/>
	<path d="M160.1016,335.2383l-8.4004,24.002h-4.2246l-6-20.2578l-6.0977,20.2578h-4.2246l-8.7852-24.002h4.5605l6.4336,20.0176
		l6.0488-20.0176h4.5605l5.8086,20.0645l6.2402-20.0645H160.1016z"/>
</g>
<g>
	<path d="M234.2422,48.4375c-0.623,0.9609-1.0078,2.1602-1.248,3.3125c-1.3438-0.8633-3.1191-1.6328-5.8086-1.6328
		c-5.3281,0-8.4492,3.793-8.4492,9.1211c0,5.3291,3.5527,9.1211,8.834,9.1211c2.4961,0,5.5195-0.8633,6.9121-2.208
		c-0.3848,1.4404-0.5762,2.9287-0.625,4.1279c-1.7266,0.8643-4.5586,1.4404-6.7676,1.4404c-7.584,0-12.2891-4.7998-12.2891-12.4814
		c0-7.1523,4.5117-12.4805,12.2402-12.4805C229.3945,46.7578,232.5625,47.4297,234.2422,48.4375z"/>
	<path d="M234.8416,129.0781v14.1621h-3.8398V127.543c0-1.9688-0.4805-5.5684-4.6562-5.5684c-3.7441,0-6.7695,2.8789-8.0645,5.4238
		v15.8418h-3.8398v-36.1953c1.2949-0.1445,2.5918-0.2891,3.8398-0.5762v16.8008c1.4395-2.1602,4.0312-4.5117,8.3047-4.5117
		C235.035,118.7578,234.8416,125.623,234.8416,129.0781z"/>
	<path d="M234.8419,201.0781v14.1621h-3.8398v-14.9297c0-2.1602-0.2402-6.3359-4.6582-6.3359c-3.7441,0-6.7676,2.7363-8.0645,5.2324
		v16.0332h-3.8398v-23.7148c1.2969-0.1445,2.5918-0.2871,3.8398-0.5762v4.3203c1.4414-2.1602,4.0332-4.5117,8.3047-4.5117
		C235.1778,190.7578,234.8419,197.623,234.8419,201.0781z"/>
	<path d="M217.6582,280.8555c1.1992,1.8242,4.3203,3.4082,7.1035,3.4082c1.873,0,4.1777-0.6719,4.1777-3.0723
		c0-3.2168-4.4648-4.3203-5.5703-4.8477c-1.3906-0.6738-6.0957-2.209-6.0957-7.25c0-4.1758,4.0332-6.3359,7.6816-6.3359
		c3.168,0,5.375,0.8164,7.0566,2.1113c-0.4805,1.3457-0.8164,2.5938-1.0098,3.9375c-1.0547-1.5371-3.5996-2.9297-5.9512-2.9297
		c-1.7285,0-3.9844,0.6738-3.9844,2.9766c0,3.2168,3.4082,4.0801,4.6074,4.6094c1.2012,0.5273,7.0566,1.9688,7.0566,7.7285
		c0,5.4727-5.1367,6.5293-8.4004,6.5293c-3.1211,0-6.1934-1.0566-7.7773-2.5938
		C217.0332,283.832,217.4648,282.1504,217.6582,280.8555z"/>
	<path d="M231.0498,359.2402l-6.625-9.3613l-6.6719,9.3613h-4.5605l9.0723-12.2891l-8.832-11.7129h5.041l5.9512,8.7832
		l6.3848-8.7832h4.5605l-8.832,11.7129l9.5527,12.2891H231.0498z"/>
</g>
<g>
	<path d="M318.7686,70.7598c-0.959,0.5273-1.584,0.7207-2.7832,0.7207c-1.6797,0-2.8809-0.9609-3.5039-2.0645
		c-1.4414,1.1992-3.5527,2.3037-6.3379,2.3037c-7.7754,0-12.4805-4.7998-12.4805-12.4814c0-7.1523,4.5117-12.4805,12.2402-12.4805
		c1.9219,0,3.9844,0.5762,5.6172,1.4395V35.0449c1.2969-0.1445,2.5918-0.2891,3.8398-0.5762V64.999
		c0,1.5361,0.0957,3.4092,2.0645,3.4092c0.6719,0,1.0566-0.2402,1.5371-0.5293C318.7217,68.791,318.7217,69.7998,318.7686,70.7598z
		 M306.1436,68.3594c1.9199,0,3.8887-0.6719,5.377-1.584v-0.0957V51.75c-1.3438-0.8633-3.2168-1.6328-5.7129-1.6328
		c-5.1836,0-8.209,3.793-8.209,9.1211C297.5986,64.5674,300.7686,68.3594,306.1436,68.3594z"/>
	<g>
		<path d="M296.04,111.7012c0-1.4883,1.0078-2.5918,2.5938-2.5918c1.584,0,2.6387,1.1035,2.6387,2.5918
			c0,1.584-1.0547,2.6875-2.6387,2.6875C297.0479,114.3887,296.04,113.2852,296.04,111.7012z M296.7119,119.5254
			c1.2969-0.1445,2.5938-0.2871,3.8418-0.5762v24.291h-3.8418V119.5254z"/>
		<path d="M312.0244,119.5254c1.2969-0.1445,2.5918-0.2871,3.8398-0.5762v26.6914c0.0977,4.9434-2.3984,10.416-9.168,9.5996
			c0.2871-1.248,0.4805-2.4473,0.4805-3.5996c3.5996,0.3359,4.9922-2.4961,4.8477-5.0879V119.5254z M311.3525,111.7012
			c0-1.4883,1.0078-2.5918,2.5918-2.5918s2.6406,1.1035,2.6406,2.5918c0,1.584-1.0566,2.6875-2.6406,2.6875
			S311.3525,113.2852,311.3525,111.7012z"/>
	</g>
	<path d="M294.2148,203.2383c0-7.3438,4.5137-12.4805,12.0977-12.4805c7.5859,0,12.0977,5.1367,12.0977,12.4805
		c0,7.3457-4.5117,12.4824-12.0977,12.4824C298.7285,215.7207,294.2148,210.584,294.2148,203.2383z M314.4727,203.2383
		c0-5.3281-2.9746-9.1211-8.1602-9.1211c-5.1836,0-8.1602,3.793-8.1602,9.1211s2.9766,9.1211,8.1602,9.1211
		C311.498,212.3594,314.4727,208.5664,314.4727,203.2383z"/>
	<path d="M307.2246,281c0,1.5352,0.1914,3.4082,2.2559,3.4082c0.6719,0,1.3926-0.2402,1.873-0.5293
		c-0.2402,0.9121-0.3359,2.1133-0.2891,3.0723c-0.959,0.3848-1.6328,0.5293-2.832,0.5293c-4.6074,0-4.8965-4.6094-4.8477-7.1055
		v-13.7773h-4.0332c0.1914-1.0078,0.3359-2.3047,0.3359-3.3594h3.6973v-6.4336c1.2949-0.1445,2.5918-0.2871,3.8398-0.5762v7.0098
		h6.0488c-0.1934,1.0078-0.3359,2.3027-0.3359,3.3594h-5.7129V281z"/>
	<path d="M318.6016,335.2383l-13.2012,31.875c-2.4004,6-8.0176,4.127-8.7852,3.5039c0.3359-1.1055,0.4805-1.9688,0.5293-3.2656
		c0.6719,0.4805,3.5996,1.7285,5.1348-1.9668l2.5449-6.1934l-10.8008-23.9531h4.5605l8.2559,19.5859l7.6816-19.5859H318.6016z"/>
</g>
<g>
	<path d="M400.1182,59.7188h-17.6191c0.1934,5.0879,3.3125,8.6406,8.3535,8.6406c2.9277,0,6.7207-1.1523,8.1133-2.4961
		c-0.3848,1.4395-0.5762,3.0723-0.625,4.2725c-1.7285,0.8643-4.752,1.584-7.4883,1.584c-7.584,0-12.2891-4.7998-12.2891-12.4814
		c0-7.3438,4.0801-12.4805,11.3281-12.4805C398.3897,46.7578,400.6455,52.8066,400.1182,59.7188z M382.7881,56.3584h13.3926
		c0-3.2646-1.8711-6.2412-6.2891-6.2412C385.8604,50.1172,383.5088,52.6143,382.7881,56.3584z"/>
	<path d="M400.1064,141.7988c-1.3926,0.3848-3.0254,1.1523-4.082,2.0176c-4.3672-2.7852-9.793-7.4902-13.5371-12.0977v11.5215
		h-3.8398v-36.1953c1.2969-0.1445,2.5918-0.2891,3.8398-0.5762v24.2422c3.9844-3.6973,7.7285-8.0176,11.1367-12.2891
		c1.0098,0.5273,2.3047,0.9121,3.8887,1.0078c-3.2637,3.7441-7.1523,8.1602-10.8008,11.4258
		C390.4092,134.8867,395.1611,138.9668,400.1064,141.7988z"/>
	<path d="M400.2266,203.2383c0,7.1523-4.5137,12.4824-12.2422,12.4824c-1.9199,0-3.9844-0.5762-5.6152-1.4414v12.6738
		c-1.2969,0.1445-2.5938,0.2871-3.8418,0.5762v-36.0039c1.2969-0.1445,2.5938-0.2871,3.8418-0.5762v1.584
		c1.4395-1.0078,3.3125-1.7754,5.7598-1.7754C395.7617,190.7578,400.2266,195.5586,400.2266,203.2383z M396.2891,203.2383
		c0-5.3281-3.168-9.1211-8.5449-9.1211c-2.1113,0-3.9844,0.7695-5.375,1.7773v14.832c1.3438,0.8652,3.2148,1.6328,5.7109,1.6328
		C393.2656,212.3594,396.2891,208.5664,396.2891,203.2383z"/>
	<path d="M401.3537,286.9512c-0.959,0.3848-1.9199,0.5293-3.1191,0.5293c-2.9766,0-3.9375-2.5449-4.2734-4.4648
		c-1.3906,2.1113-4.127,4.7051-8.5918,4.7051c-8.4492,0-8.2578-6.8652-8.2578-10.3223v-13.873
		c1.2969-0.1445,2.5938-0.2871,3.8418-0.5762v15.9863c0,1.9668,0.3359,5.5684,4.6562,5.5684c3.5527,0,6.7207-2.7852,8.0645-5.2324
		v-15.7461c1.2949-0.1445,2.5918-0.2871,3.8398-0.5762v17.9531c0,1.5371,0.1914,3.5059,2.2559,3.5059
		c0.6719,0,1.3926-0.2402,1.873-0.5293C401.4025,284.791,401.3068,285.9922,401.3537,286.9512z"/>
	<path d="M400.2275,355.8789c-0.1934,1.0078-0.3359,2.3047-0.3359,3.3613h-21.6035l15.5547-20.6426h-14.4023
		c0.1934-1.0078,0.3359-2.3047,0.3359-3.3594h20.6895l-15.5527,20.6406H400.2275z"/>
</g>
<g>
	<g>
		<path d="M508.6191,105.8467v13.3936h-0.959v-14.9297c0-2.4482,0.0469-8.4492-5.5684-8.4492
			c-6.8164,0-9.6016,4.9922-10.6094,8.2578v15.1211h-0.9609v-23.666c0.2402,0,0.7207-0.0967,0.9609-0.1924v6.5283
			c1.248-2.832,4.1758-6.9121,10.7051-6.9121C509.0039,94.998,508.6191,101.9102,508.6191,105.8467z"/>
	</g>
	<g>
		<path d="M577.8359,105.7031v13.5371h-1.4414v-14.9297c0-2.4004,0-8.1133-5.4238-8.1133c-6.2402,0-9.0723,4.5127-10.1758,7.6328
			v15.4102h-1.4414v-23.666c0.3848-0.0488,1.0078-0.1445,1.4414-0.2891v6.0977c1.2949-2.7363,4.1758-6.4336,10.2715-6.4336
			C578.1719,94.9492,577.8359,101.8623,577.8359,105.7031z"/>
	</g>
	<g>
		<path d="M647.2188,105.4629v13.7773h-2.4004v-14.9297c0-2.3047-0.0957-7.3926-5.1348-7.3926c-5.2324,0-8.1621,3.792-9.3145,6.6719
			v15.6504h-2.3984V95.5254c0.7676-0.0479,1.6309-0.1914,2.3984-0.3838v5.376c1.3457-2.543,4.1289-5.6641,9.5059-5.6641
			C647.5547,94.8535,647.2188,101.7656,647.2188,105.4629z"/>
	</g>
	<g>
		<path d="M716.7715,105.0781v14.1621h-3.8398v-14.9297c0-2.1602-0.2402-6.3359-4.6562-6.3359
			c-3.7441,0-6.7695,2.7354-8.0645,5.2324v16.0332h-3.8398V95.5254c1.2949-0.1436,2.5918-0.2871,3.8398-0.5762v4.3203
			c1.4395-2.1602,4.0312-4.5117,8.3047-4.5117C717.1074,94.7578,716.7715,101.6221,716.7715,105.0781z"/>
	</g>
	<g>
		<path d="M510.3965,251.8867v14.3535h-5.0879v-14.4023c0-2.6396-0.4316-6-4.3203-6c-3.2656,0-5.9043,2.2559-7.1523,4.8965v15.5059
			h-5.0898l0.0488-22.2266v-1.584c1.584-0.0957,3.6484-0.3359,5.041-0.7207v4.1777c1.3906-2.209,3.9355-4.4648,8.3516-4.4648
			C509.5801,241.4219,510.3965,247.3262,510.3965,251.8867z"/>
	</g>
	<g>
		<path d="M580.0449,266.2402h-6.3359l-0.0488-13.8262c0-3.1191-0.625-5.6641-3.9355-5.6641c-2.8809,0-5.0898,1.8242-6.2891,4.6084
			v14.8818h-6.3379l0.0977-22.418v-1.4883c1.9199,0,4.7031-0.3359,6.2402-0.8164v4.0322c1.3926-2.2559,3.8398-4.416,8.4492-4.416
			c6.1445,0,8.1113,4.9443,8.1113,10.6084L580.0449,266.2402z"/>
	</g>
	<g>
		<path d="M649.5,252.3184v13.9219h-7.248l-0.0488-13.7295c0-3.1201-0.5742-5.3291-3.5996-5.3291
			c-2.5918,0-4.6074,1.6328-5.7129,4.0332v15.0254h-7.248l0.0488-22.5146v-1.4873c2.207-0.0488,5.4707-0.4326,7.1992-0.9121v3.5996
			c1.4414-2.0645,3.6973-4.0801,7.9219-4.0801C646.957,240.8457,649.5,245.2139,649.5,252.3184z"/>
	</g>
	<g>
		<path d="M710.7715,266.2402v-13.5859c0-3.1201-0.623-5.0879-3.3594-5.0879c-2.2578,0-4.0332,1.3926-5.041,3.3125v15.3613h-8.209
			l0.0488-22.5625v-1.584c2.4473,0,6.2402-0.4316,8.1602-0.96v3.168c1.4395-1.8721,3.5996-3.6963,7.3926-3.6963
			c6.0488,0,9.168,3.6963,9.168,12.2891l0.0488,13.3457H710.7715z"/>
	</g>
</g>
<g>
	<path d="M491.9678,152.084h-4.0869v11.2529h-1.5312V152.084h-4.1045v-1.3506h9.7227V152.084z"/>
	<path d="M501.3271,158.0254v5.3115h-1.4404v-5.8877c0-0.7383-0.1807-2.0889-1.7471-2.0889c-1.4043,0-2.5381,1.0801-3.0244,2.0352
		v5.9414h-1.4404v-13.5762c0.4863-0.0537,0.9717-0.1084,1.4404-0.2158v6.3018c0.54-0.8105,1.5127-1.6924,3.1152-1.6924
		C501.3984,154.1543,501.3271,156.7285,501.3271,158.0254z"/>
	<path d="M503.7539,151.5078c0-0.5586,0.3789-0.9727,0.9727-0.9727s0.9902,0.4141,0.9902,0.9727
		c0,0.5938-0.3965,1.0078-0.9902,1.0078S503.7539,152.1016,503.7539,151.5078z M504.0068,154.4424
		c0.4854-0.0537,0.9717-0.1084,1.4404-0.2158v9.1104h-1.4404V154.4424z"/>
	<path d="M515.8525,158.0254v5.3115h-1.4404v-5.5996c0-0.8105-0.0898-2.377-1.7471-2.377c-1.4043,0-2.5381,1.0264-3.0244,1.9629
		v6.0137h-1.4404v-8.8945c0.4863-0.0537,0.9717-0.1084,1.4404-0.2158v1.6201c0.54-0.8105,1.5127-1.6924,3.1152-1.6924
		C515.9785,154.1543,515.8525,156.7285,515.8525,158.0254z"/>
</g>
<g>
	<path d="M550.3174,150.7334h1.5303v8.3721c0,2.3594,1.6748,3.1152,3.3135,3.1152c1.6377,0,3.3125-0.7559,3.3125-3.1152v-8.3721
		h1.5303v8.1924c0,3.6006-2.5205,4.6816-4.8428,4.6816c-2.3232,0-4.8438-1.0811-4.8438-4.6816V150.7334z"/>
	<path d="M562.8818,149.7607c0.4863-0.0537,0.9727-0.1084,1.4404-0.2158v13.792h-1.4404V149.7607z"/>
	<path d="M569.2549,160.9961c0,0.5762,0.0723,1.2783,0.8457,1.2783c0.2529,0,0.5225-0.0898,0.7021-0.1982
		c-0.0898,0.3428-0.126,0.793-0.1074,1.1523c-0.3604,0.1445-0.6123,0.1982-1.0625,0.1982c-1.7285,0-1.8369-1.7285-1.8184-2.665
		v-5.167h-1.5127c0.0723-0.3779,0.126-0.8643,0.126-1.2607h1.3867v-2.4121c0.4863-0.0547,0.9727-0.1084,1.4404-0.2168v2.6289h2.2686
		c-0.0723,0.3779-0.126,0.8643-0.126,1.2607h-2.1426V160.9961z"/>
	<path d="M578.5977,154.334c-0.2344,0.4502-0.3604,1.0264-0.3779,1.5303c-1.5664-0.3779-2.8447,0.667-3.3672,1.8369v5.6357h-1.4404
		v-8.8945c0.4863-0.0537,0.9717-0.1084,1.4404-0.2158v1.8721C575.3926,155,576.4551,153.9746,578.5977,154.334z"/>
	<path d="M587.6885,163.1572c-0.3604,0.1973-0.5947,0.2695-1.0449,0.2695c-0.8096,0-1.332-0.5938-1.458-1.1162
		c-0.4688,0.5225-1.2422,1.2061-2.7012,1.2061c-1.0986,0-3.0791-0.4678-3.0791-2.7188c0-2.5029,2.4854-2.8623,3.4033-2.8623
		c0.9365,0,1.6748,0.1797,2.1602,0.3955v-0.9355c0-1.2607-0.6836-1.9814-2.1777-1.9814c-1.0625,0-1.8193,0.5947-2.2334,1.1172
		c-0.0898-0.5049-0.2158-0.8281-0.4141-1.207c0.4326-0.5215,1.4766-1.1699,2.7373-1.1699c2.9883,0,3.5469,1.7822,3.5293,3.5469
		c-0.0186,0.7383,0,2.0889,0,3.2949c0,0.5762,0.0352,1.2783,0.7734,1.2783c0.252,0,0.3965-0.0898,0.5762-0.1982
		C587.6699,162.4189,587.6699,162.7969,587.6885,163.1572z M582.5566,162.3643c1.0439,0,1.8008-0.5039,2.4121-1.0439v-1.8906
		c-0.4141-0.1982-1.2236-0.3418-2.124-0.3418c-0.9902,0-2.0527,0.3242-2.0527,1.6201
		C580.792,161.5361,581.3145,162.3643,582.5566,162.3643z"/>
	<path d="M557.583,186.9863v1.3506h-6.9326v-12.6035h1.5312v11.2529H557.583z"/>
	<path d="M558.75,176.5078c0-0.5586,0.3789-0.9727,0.9727-0.9727s0.9902,0.4141,0.9902,0.9727c0,0.5938-0.3965,1.0078-0.9902,1.0078
		S558.75,177.1016,558.75,176.5078z M559.0029,179.4424c0.4854-0.0537,0.9717-0.1084,1.4404-0.2158v9.1104h-1.4404V179.4424z"/>
	<path d="M570.8125,180.9727c-0.6846,0-1.458-0.0898-1.873-0.2695c0.2891,0.3418,0.5762,0.8633,0.5762,1.584
		c0,1.8369-1.4219,3.1514-3.3848,3.1514c-0.3057,0-0.6123-0.0361-0.9004-0.0908c-0.3779,0.1621-0.8096,0.5049-0.8096,0.9902
		c0,1.7832,6.374-0.2695,6.374,3.457c0,2.4668-2.6836,3.043-4.2314,3.043c-1.5127,0-4.0518-0.5762-4.0518-2.8984
		c0-1.0264,0.5049-1.6025,1.1523-2.1064c-0.3779-0.252-0.6123-0.6309-0.6123-1.207c0-0.8281,0.5049-1.458,1.0088-1.7822
		c-0.8467-0.5576-1.3682-1.458-1.3682-2.5566c0-1.8184,1.458-3.1328,3.4385-3.1328c0.5586,0,1.0625,0.0898,1.4951,0.252
		c0.9902,0.3242,2.6826,0.3779,3.6904,0.0361C571.0283,179.9463,570.8301,180.5586,570.8125,180.9727z M564.7988,188.2471
		c-0.5586,0.3779-0.9004,0.8096-0.9004,1.4219c0,1.2607,0.9541,1.9814,2.7725,1.9814c1.0986,0,2.7188-0.4688,2.7188-1.7471
		C569.3896,188.2471,566.6709,188.625,564.7988,188.2471z M568.1299,182.2871c0-1.0986-0.7383-2.0166-1.999-2.0166
		c-1.2783,0-2.0527,0.918-2.0527,2.0166c0,1.0801,0.7744,1.9443,2.0527,1.9443
		C567.3916,184.2314,568.1299,183.3672,568.1299,182.2871z"/>
	<path d="M580.4062,183.0254v5.3115h-1.4404v-5.8877c0-0.7383-0.1807-2.0889-1.7471-2.0889c-1.4043,0-2.5381,1.0801-3.0244,2.0352
		v5.9414h-1.4404v-13.5762c0.4863-0.0537,0.9717-0.1084,1.4404-0.2158v6.3018c0.54-0.8105,1.5127-1.6924,3.1143-1.6924
		C580.4785,179.1543,580.4062,181.7285,580.4062,183.0254z"/>
	<path d="M585.1562,185.9961c0,0.5762,0.0723,1.2783,0.8457,1.2783c0.2529,0,0.5225-0.0898,0.7031-0.1982
		c-0.0908,0.3428-0.127,0.793-0.1084,1.1523c-0.3604,0.1445-0.6123,0.1982-1.0625,0.1982c-1.7285,0-1.8369-1.7285-1.8184-2.665
		v-5.167h-1.5127c0.0723-0.3779,0.126-0.8643,0.126-1.2607h1.3867v-2.4121c0.4863-0.0547,0.9717-0.1084,1.4404-0.2168v2.6289h2.2686
		c-0.0723,0.3779-0.126,0.8643-0.126,1.2607h-2.1426V185.9961z"/>
</g>
<g>
	<path d="M626.583,161.9863v1.3506h-6.9326v-12.6035h1.5312v11.2529H626.583z"/>
	<path d="M627.75,151.5078c0-0.5586,0.3789-0.9727,0.9727-0.9727s0.9902,0.4141,0.9902,0.9727c0,0.5938-0.3965,1.0078-0.9902,1.0078
		S627.75,152.1016,627.75,151.5078z M628.0029,154.4424c0.4854-0.0537,0.9717-0.1084,1.4404-0.2158v9.1104h-1.4404V154.4424z"/>
	<path d="M639.8125,155.9727c-0.6846,0-1.458-0.0898-1.873-0.2695c0.2891,0.3418,0.5762,0.8633,0.5762,1.584
		c0,1.8369-1.4219,3.1514-3.3848,3.1514c-0.3057,0-0.6123-0.0361-0.9004-0.0908c-0.3779,0.1621-0.8096,0.5049-0.8096,0.9902
		c0,1.7832,6.374-0.2695,6.374,3.457c0,2.4668-2.6836,3.043-4.2314,3.043c-1.5127,0-4.0518-0.5762-4.0518-2.8984
		c0-1.0264,0.5049-1.6025,1.1523-2.1064c-0.3779-0.252-0.6123-0.6309-0.6123-1.207c0-0.8281,0.5049-1.458,1.0088-1.7822
		c-0.8467-0.5576-1.3682-1.458-1.3682-2.5566c0-1.8184,1.458-3.1328,3.4385-3.1328c0.5586,0,1.0625,0.0898,1.4951,0.252
		c0.9902,0.3242,2.6826,0.3779,3.6904,0.0361C640.0283,154.9463,639.8301,155.5586,639.8125,155.9727z M633.7988,163.2471
		c-0.5586,0.3779-0.9004,0.8096-0.9004,1.4219c0,1.2607,0.9541,1.9814,2.7725,1.9814c1.0986,0,2.7188-0.4688,2.7188-1.7471
		C638.3896,163.2471,635.6709,163.625,633.7988,163.2471z M637.1299,157.2871c0-1.0986-0.7383-2.0166-1.999-2.0166
		c-1.2783,0-2.0527,0.918-2.0527,2.0166c0,1.0801,0.7744,1.9443,2.0527,1.9443
		C636.3916,159.2314,637.1299,158.3672,637.1299,157.2871z"/>
	<path d="M649.4062,158.0254v5.3115h-1.4404v-5.8877c0-0.7383-0.1807-2.0889-1.7471-2.0889c-1.4043,0-2.5381,1.0801-3.0244,2.0352
		v5.9414h-1.4404v-13.5762c0.4863-0.0537,0.9717-0.1084,1.4404-0.2158v6.3018c0.54-0.8105,1.5127-1.6924,3.1143-1.6924
		C649.4785,154.1543,649.4062,156.7285,649.4062,158.0254z"/>
	<path d="M654.1562,160.9961c0,0.5762,0.0723,1.2783,0.8457,1.2783c0.2529,0,0.5225-0.0898,0.7031-0.1982
		c-0.0908,0.3428-0.127,0.793-0.1084,1.1523c-0.3604,0.1445-0.6123,0.1982-1.0625,0.1982c-1.7285,0-1.8369-1.7285-1.8184-2.665
		v-5.167h-1.5127c0.0723-0.3779,0.126-0.8643,0.126-1.2607h1.3867v-2.4121c0.4863-0.0547,0.9717-0.1084,1.4404-0.2168v2.6289h2.2686
		c-0.0723,0.3779-0.126,0.8643-0.126,1.2607h-2.1426V160.9961z"/>
</g>
<g>
	<path d="M695.916,159.916c0,2.5029-1.9268,3.4209-4.6816,3.4209h-3.043v-12.6035h2.3232c2.4121,0,4.2129,0.5576,4.2129,3.3486
		c0,1.2783-0.8457,2.2324-1.8721,2.6289C694.3672,156.8906,695.916,157.6836,695.916,159.916z M689.7227,151.9932v4.3037h0.9717
		c1.8369,0,2.5391-0.918,2.5391-2.2148c0-1.3867-0.7021-2.0889-2.5391-2.0889H689.7227z M694.4219,159.8076
		c0-2.0703-2.0527-2.2686-2.917-2.2686h-1.7822v4.5371h1.7822C692.3691,162.0762,694.4219,161.8789,694.4219,159.8076z"/>
	<path d="M697.083,158.8359c0-2.7549,1.6924-4.6816,4.5381-4.6816c2.8447,0,4.5371,1.9268,4.5371,4.6816
		s-1.6924,4.6807-4.5371,4.6807C698.7754,163.5166,697.083,161.5908,697.083,158.8359z M704.6816,158.8359
		c0-1.999-1.1162-3.4219-3.0605-3.4219c-1.9453,0-3.0615,1.4229-3.0615,3.4219c0,1.998,1.1162,3.4209,3.0615,3.4209
		C703.5654,162.2568,704.6816,160.834,704.6816,158.8359z"/>
	<path d="M707.415,158.8359c0-2.7549,1.6924-4.6816,4.5381-4.6816c2.8447,0,4.5371,1.9268,4.5371,4.6816
		s-1.6924,4.6807-4.5371,4.6807C709.1074,163.5166,707.415,161.5908,707.415,158.8359z M715.0137,158.8359
		c0-1.999-1.1162-3.4219-3.0605-3.4219c-1.9453,0-3.0615,1.4229-3.0615,3.4219c0,1.998,1.1162,3.4209,3.0615,3.4209
		C713.8975,162.2568,715.0137,160.834,715.0137,158.8359z"/>
	<path d="M726.5156,162.7969c-0.5215,0.1436-1.1338,0.4316-1.5303,0.7559c-1.6387-1.0439-3.6729-2.8086-5.0771-4.5371v4.3213
		h-1.4404v-13.5762c0.4863-0.0537,0.9717-0.1084,1.4404-0.2158v9.0928c1.4941-1.3867,2.8984-3.0068,4.1768-4.6094
		c0.3779,0.1982,0.8643,0.3418,1.459,0.3779c-1.2246,1.4043-2.6826,3.0605-4.0518,4.2852
		C722.8789,160.2041,724.6611,161.7344,726.5156,162.7969z"/>
</g>
<g>
	<path d="M479.918,304.3369l-0.8281-10.3174l-5.1133,9.7773l-5.042-9.7773l-0.7383,10.3174h-1.5127l0.9912-12.6035h1.7637
		l4.6279,8.9482l4.6992-8.9482h1.6201l1.0811,12.6035H479.918z"/>
	<path d="M490.8965,300.0156h-6.6084c0.0723,1.9082,1.2422,3.2412,3.1328,3.2412c1.0986,0,2.5215-0.4326,3.043-0.9365
		c-0.1436,0.54-0.2158,1.1523-0.2334,1.6025c-0.6484,0.3242-1.7832,0.5938-2.8096,0.5938c-2.8447,0-4.6094-1.7998-4.6094-4.6807
		c0-2.7549,1.5303-4.6816,4.25-4.6816C490.248,295.1543,491.0947,297.4229,490.8965,300.0156z M484.3965,298.7549h5.0234
		c0-1.2236-0.7021-2.3408-2.3584-2.3408C485.5488,296.4141,484.666,297.3506,484.3965,298.7549z"/>
	<path d="M501.6064,304.1572c-0.3604,0.1973-0.5938,0.2695-1.0439,0.2695c-0.6309,0-1.0801-0.3604-1.3145-0.7744
		c-0.54,0.4502-1.333,0.8643-2.377,0.8643c-2.917,0-4.6816-1.7998-4.6816-4.6807c0-2.6836,1.6924-4.6816,4.5918-4.6816
		c0.7197,0,1.4941,0.2158,2.1064,0.54v-4.9336c0.4863-0.0537,0.9727-0.1084,1.4404-0.2158v11.4512
		c0,0.5762,0.0361,1.2783,0.7744,1.2783c0.252,0,0.3955-0.0898,0.5762-0.1982
		C501.5889,303.4189,501.5889,303.7969,501.6064,304.1572z M496.8711,303.2568c0.7207,0,1.459-0.252,2.0166-0.5947v-0.0361v-5.5996
		c-0.5039-0.3232-1.2061-0.6123-2.1426-0.6123c-1.9443,0-3.0791,1.4229-3.0791,3.4219
		C493.666,301.834,494.8545,303.2568,496.8711,303.2568z"/>
	<path d="M503.4395,292.5078c0-0.5586,0.3789-0.9727,0.9727-0.9727s0.9902,0.4141,0.9902,0.9727
		c0,0.5938-0.3965,1.0078-0.9902,1.0078S503.4395,293.1016,503.4395,292.5078z M503.6924,295.4424
		c0.4854-0.0537,0.9717-0.1084,1.4404-0.2158v9.1104h-1.4404V295.4424z"/>
	<path d="M516.7441,304.2285c-0.3604,0.1445-0.7197,0.1982-1.1699,0.1982c-1.1162,0-1.4766-0.9541-1.6025-1.6748
		c-0.5225,0.793-1.5488,1.7646-3.2236,1.7646c-3.168,0-3.0967-2.5742-3.0967-3.8711v-5.2031
		c0.4863-0.0537,0.9727-0.1084,1.4404-0.2158v5.9951c0,0.7383,0.126,2.0889,1.7471,2.0889c1.332,0,2.5205-1.0439,3.0244-1.9629
		v-5.9053c0.4863-0.0537,0.9727-0.1084,1.4404-0.2158v6.7334c0,0.5762,0.0723,1.3145,0.8467,1.3145
		c0.252,0,0.5215-0.0898,0.7021-0.1982C516.7627,303.4189,516.7266,303.8691,516.7441,304.2285z"/>
	<path d="M531.7764,299.0254v5.3115h-1.4404v-5.708c0-0.8281-0.0361-2.2686-1.585-2.2686c-1.4766,0-2.5391,1.1885-2.917,2.1973
		v0.4678v5.3115h-1.4404v-5.708c0-0.8281-0.0176-2.2686-1.5664-2.2686c-1.4941,0-2.5566,1.2061-2.9346,2.1973v5.7793h-1.4404
		v-8.8945c0.4863-0.0537,0.9717-0.1084,1.4404-0.2158v1.6201c0.4678-0.8105,1.3867-1.6924,3.0244-1.6924
		c1.8193,0,2.5215,0.8457,2.7734,1.8184c0.4502-0.8105,1.4219-1.8184,3.1689-1.8184
		C532.0283,295.1543,531.7764,297.7285,531.7764,299.0254z"/>
</g>
<g>
	<path d="M560.2197,300.916c0,2.5029-1.9268,3.4209-4.6816,3.4209h-3.043v-12.6035h2.3232c2.4121,0,4.2129,0.5576,4.2129,3.3486
		c0,1.2783-0.8457,2.2324-1.8721,2.6289C558.6709,297.8906,560.2197,298.6836,560.2197,300.916z M554.0264,292.9932v4.3037h0.9717
		c1.8369,0,2.5391-0.918,2.5391-2.2148c0-1.3867-0.7021-2.0889-2.5391-2.0889H554.0264z M558.7256,300.8076
		c0-2.0703-2.0527-2.2686-2.917-2.2686h-1.7822v4.5371h1.7822C556.6729,303.0762,558.7256,302.8789,558.7256,300.8076z"/>
	<path d="M561.3867,299.8359c0-2.7549,1.6924-4.6816,4.5381-4.6816c2.8447,0,4.5371,1.9268,4.5371,4.6816
		s-1.6924,4.6807-4.5371,4.6807C563.0791,304.5166,561.3867,302.5908,561.3867,299.8359z M568.9854,299.8359
		c0-1.999-1.1162-3.4219-3.0605-3.4219c-1.9453,0-3.0615,1.4229-3.0615,3.4219c0,1.998,1.1162,3.4209,3.0615,3.4209
		C567.8691,303.2568,568.9854,301.834,568.9854,299.8359z"/>
	<path d="M572.5293,290.7607c0.4863-0.0537,0.9727-0.1084,1.4404-0.2158v13.792h-1.4404V290.7607z"/>
	<path d="M585.4551,304.1572c-0.3604,0.1973-0.5938,0.2695-1.0439,0.2695c-0.6309,0-1.0811-0.3604-1.3145-0.7744
		c-0.54,0.4502-1.333,0.8643-2.377,0.8643c-2.917,0-4.6816-1.7998-4.6816-4.6807c0-2.6836,1.6924-4.6816,4.5918-4.6816
		c0.7197,0,1.4941,0.2158,2.1064,0.54v-4.9336c0.4863-0.0537,0.9727-0.1084,1.4404-0.2158v11.4512
		c0,0.5762,0.0361,1.2783,0.7744,1.2783c0.252,0,0.3965-0.0898,0.5762-0.1982
		C585.4375,303.4189,585.4375,303.7969,585.4551,304.1572z M580.7197,303.2568c0.7207,0,1.458-0.252,2.0166-0.5947v-0.0361v-5.5996
		c-0.5039-0.3232-1.2061-0.6123-2.1426-0.6123c-1.9443,0-3.0791,1.4229-3.0791,3.4219
		C577.5146,301.834,578.7031,303.2568,580.7197,303.2568z"/>
</g>
<g>
	<path d="M626.1875,300.916c0,2.5029-1.9268,3.4209-4.6816,3.4209h-3.043v-12.6035h2.3232c2.4121,0,4.2129,0.5576,4.2129,3.3486
		c0,1.2783-0.8457,2.2324-1.8721,2.6289C624.6387,297.8906,626.1875,298.6836,626.1875,300.916z M619.9941,292.9932v4.3037h0.9717
		c1.8369,0,2.5391-0.918,2.5391-2.2148c0-1.3867-0.7021-2.0889-2.5391-2.0889H619.9941z M624.6934,300.8076
		c0-2.0703-2.0527-2.2686-2.917-2.2686h-1.7822v4.5371h1.7822C622.6406,303.0762,624.6934,302.8789,624.6934,300.8076z"/>
	<path d="M628.165,290.7607c0.4863-0.0537,0.9727-0.1084,1.4404-0.2158v13.792h-1.4404V290.7607z"/>
	<path d="M639.958,304.1572c-0.3604,0.1973-0.5947,0.2695-1.0449,0.2695c-0.8096,0-1.332-0.5938-1.458-1.1162
		c-0.4688,0.5225-1.2422,1.2061-2.7012,1.2061c-1.0986,0-3.0791-0.4678-3.0791-2.7188c0-2.5029,2.4854-2.8623,3.4033-2.8623
		c0.9365,0,1.6748,0.1797,2.1602,0.3955v-0.9355c0-1.2607-0.6836-1.9814-2.1777-1.9814c-1.0625,0-1.8193,0.5947-2.2334,1.1172
		c-0.0898-0.5049-0.2158-0.8281-0.4141-1.207c0.4326-0.5215,1.4766-1.1699,2.7373-1.1699c2.9883,0,3.5469,1.7822,3.5293,3.5469
		c-0.0186,0.7383,0,2.0889,0,3.2949c0,0.5762,0.0352,1.2783,0.7734,1.2783c0.252,0,0.3965-0.0898,0.5762-0.1982
		C639.9395,303.4189,639.9395,303.7969,639.958,304.1572z M634.8262,303.3643c1.0439,0,1.8008-0.5039,2.4121-1.0439v-1.8906
		c-0.4141-0.1982-1.2236-0.3418-2.124-0.3418c-0.9902,0-2.0527,0.3242-2.0527,1.6201
		C633.0615,302.5361,633.584,303.3643,634.8262,303.3643z"/>
	<path d="M648.3086,295.7842c-0.2334,0.3604-0.3779,0.8105-0.4678,1.2422c-0.5039-0.3232-1.1699-0.6123-2.1787-0.6123
		c-1.998,0-3.1689,1.4229-3.1689,3.4219c0,1.998,1.333,3.4209,3.3135,3.4209c0.9355,0,2.0703-0.3242,2.5928-0.8281
		c-0.1445,0.54-0.2168,1.0977-0.2344,1.5479c-0.6484,0.3242-1.7109,0.54-2.5391,0.54c-2.8447,0-4.6094-1.7998-4.6094-4.6807
		c0-2.6836,1.6924-4.6816,4.5918-4.6816C646.4902,295.1543,647.6787,295.4062,648.3086,295.7842z"/>
	<path d="M658.2451,303.7969c-0.5215,0.1436-1.1338,0.4316-1.5303,0.7559c-1.6387-1.0439-3.6729-2.8086-5.0771-4.5371v4.3213
		h-1.4404v-13.5762c0.4863-0.0537,0.9717-0.1084,1.4404-0.2158v9.0928c1.4941-1.3867,2.8984-3.0068,4.1768-4.6094
		c0.3789,0.1982,0.8643,0.3418,1.459,0.3779c-1.2246,1.4043-2.6826,3.0605-4.0518,4.2852
		C654.6084,301.2041,656.3906,302.7344,658.2451,303.7969z"/>
</g>
<g>
	<path d="M693.5059,291.7334v12.6035h-1.5312v-5.7617h-7.5615v5.7617h-1.5312v-12.6035h1.5312v5.4912h7.5615v-5.4912H693.5059z"/>
	<path d="M703.8359,300.0156h-6.6084c0.0723,1.9082,1.2422,3.2412,3.1328,3.2412c1.0986,0,2.5215-0.4326,3.043-0.9365
		c-0.1436,0.54-0.2158,1.1523-0.2334,1.6025c-0.6484,0.3242-1.7832,0.5938-2.8096,0.5938c-2.8447,0-4.6094-1.7998-4.6094-4.6807
		c0-2.7549,1.5303-4.6816,4.25-4.6816C703.1875,295.1543,704.0342,297.4229,703.8359,300.0156z M697.3359,298.7549h5.0234
		c0-1.2236-0.7021-2.3408-2.3584-2.3408C698.4883,296.4141,697.6055,297.3506,697.3359,298.7549z"/>
	<path d="M713.4121,304.1572c-0.3604,0.1973-0.5947,0.2695-1.0449,0.2695c-0.8105,0-1.332-0.5938-1.458-1.1162
		c-0.4688,0.5225-1.2422,1.2061-2.7012,1.2061c-1.0986,0-3.0791-0.4678-3.0791-2.7188c0-2.5029,2.4854-2.8623,3.4033-2.8623
		c0.9365,0,1.6748,0.1797,2.1611,0.3955v-0.9355c0-1.2607-0.6846-1.9814-2.1787-1.9814c-1.0625,0-1.8193,0.5947-2.2334,1.1172
		c-0.0898-0.5049-0.2158-0.8281-0.4141-1.207c0.4326-0.5215,1.4766-1.1699,2.7373-1.1699c2.9883,0,3.5469,1.7822,3.5283,3.5469
		c-0.0176,0.7383,0,2.0889,0,3.2949c0,0.5762,0.0361,1.2783,0.7744,1.2783c0.252,0,0.3965-0.0898,0.5762-0.1982
		C713.3936,303.4189,713.3936,303.7969,713.4121,304.1572z M708.2803,303.3643c1.0439,0,1.8008-0.5039,2.4131-1.0439v-1.8906
		c-0.415-0.1982-1.2246-0.3418-2.125-0.3418c-0.9902,0-2.0527,0.3242-2.0527,1.6201
		C706.5156,302.5361,707.0381,303.3643,708.2803,303.3643z"/>
	<path d="M722.8799,295.334l-3.7275,9.0029h-1.584l-3.9072-9.0029h1.71l3.043,7.5625l2.9346-7.5625H722.8799z"/>
	<path d="M731.8262,295.334L726.874,307.29c-0.9004,2.25-3.0068,1.5479-3.2949,1.3145c0.126-0.4141,0.1807-0.7383,0.1982-1.2246
		c0.252,0.1797,1.3506,0.6484,1.9268-0.7383l0.9541-2.3223l-4.0508-8.9854h1.71l3.0967,7.3467l2.8809-7.3467H731.8262z"/>
</g>
</svg>
