<?xml version="1.0" encoding="utf-8"?>
<!-- Generator: Adobe Illustrator 22.1.0, SVG Export Plug-In . SVG Version: 6.00 Build 0)  -->
<svg version="1.1" id="レイヤー_1" xmlns="http://www.w3.org/2000/svg" xmlns:xlink="http://www.w3.org/1999/xlink" x="0px"
	 y="0px" viewBox="0 0 800 400" enable-background="new 0 0 800 400" xml:space="preserve">
<rect y="0" fill="#FFFFFF" width="800" height="400"/>
<g>
	<path d="M238.565,201.0636c-4.144,0.4698-12.9957,3.5781-15.727,5.556c-9.794-8.6643-25.3328-25.144-33.6201-35.8796v33.9017
		H175.657v-70.63h13.5609v32.1133l27.4989-32.1133h15.9152l-29.9472,33.9964C211.8195,177.708,226.0397,190.7044,238.565,201.0636z"
		/>
	<path d="M239.2288,180.4386c0-14.69,9.1347-25.0492,25.3322-25.0492c16.1981,0,25.3328,10.3592,25.3328,25.0492
		c0,14.7861-9.1347,25.1453-25.3328,25.1453C248.3635,205.5839,239.2288,195.2247,239.2288,180.4386z M276.8981,180.4386
		c0-9.0406-4.8033-13.9373-12.3371-13.9373s-12.3364,4.8967-12.3364,13.9373c0,9.0406,4.8026,14.032,12.3364,14.032
		S276.8981,189.4793,276.8981,180.4386z"/>
	<path d="M333.8763,165.842c1.1304,1.4133,2.072,3.6728,2.072,7.1575c0,10.6421-8.0043,16.9508-19.1169,16.9508
		c-1.7897,0-3.3906-0.1882-4.9914-0.4711c-1.3186,0.4711-2.5424,1.4133-2.5424,3.0135c0,8.4761,33.1489,0,33.1489,20.9066
		c0,13.4675-13.5609,17.1403-24.1083,17.1403c-11.3949,0-23.449-4.2387-23.449-15.6335c0-6.7798,4.3315-9.6999,8.0043-11.2067
		c-2.8253-1.6002-4.6144-4.0492-4.6144-7.8155c0-5.2743,3.3905-7.722,6.8745-8.8524c-4.8026-2.8254-7.9102-7.6286-7.9102-14.032
		c0-10.6421,8.5695-17.6101,19.8703-17.6101c4.5203,0,8.4754,1.1304,11.489,3.0135c5.2737-1.1304,10.5474-2.9201,14.7854-5.3678
		c-0.2823,3.861-0.0941,9.0406-0.0941,12.0542C341.222,165.9368,337.1728,166.2184,333.8763,165.842z M309.4857,206.1485
		c-1.3186,1.0357-2.7313,2.8254-2.7313,5.6507c0,6.3087,6.9693,8.005,11.6778,8.005c3.1076,0,11.2067-0.754,11.2067-5.9336
		C329.6389,207.8434,318.5263,208.1263,309.4857,206.1485z M324.3652,172.9995c0-4.9914-3.7669-7.6286-7.5338-7.6286
		c-3.861,0-7.8168,2.6372-7.8168,7.6286c0,4.8967,3.9557,7.2509,7.8168,7.2509
		C320.5983,180.2505,324.3652,177.8962,324.3652,172.9995z"/>
	<path d="M395.4696,203.5113c-1.0363,0.4711-3.4846,1.4133-7.6286,1.4133c-4.5203,0-7.628-2.449-8.8518-4.9914
		c-2.3542,2.8253-6.4982,5.6507-13.7498,5.6507c-5.7442,0-16.9508-2.0726-16.9508-13.9386c0-12.524,12.4305-14.973,19.0228-14.973
		c3.6729,0,7.1575,0.7527,9.6058,1.6002v-2.2595c0-8.8524-6.0271-9.5117-9.5117-9.5117c-5.4619,0-10.7356,1.6015-14.3143,5.0862
		c-0.3764-3.7676-0.9416-7.4404-1.6949-10.4539c3.9551-3.3899,10.3592-5.7442,17.893-5.7442
		c16.6686,0,20.3414,11.3949,20.3414,22.2252v10.5474c0,2.7306,0.5652,7.3444,3.9551,7.3444c0.9416,0,1.8838-0.1882,2.5431-0.4698
		C395.6578,197.296,395.3748,201.157,395.4696,203.5113z M367.9707,196.2604c2.8253,0,6.4982-0.9422,9.0406-3.4846
		c-0.0941-0.5646-0.0941-1.1304-0.0941-1.695v-5.4625c-1.9779-0.3764-4.4262-0.6593-6.4034-0.6593
		c-4.5203,0-8.7584,1.4133-8.7584,6.1218C361.7554,194.6589,364.2979,196.2604,367.9707,196.2604z"/>
	<path d="M470.433,137.8727c-1.412,3.0135-2.5424,8.005-2.9188,11.9607c-4.3321-3.2965-9.1353-5.1796-14.4097-5.1796
		c-6.0271,0-10.5461,2.4477-10.5461,7.1562c0,12.5253,31.8304,10.4539,31.8304,33.7148c0,13.278-10.2658,20.8119-24.8624,20.8119
		c-8.6642,0-17.3272-2.6372-21.7541-7.6273c1.2238-3.4846,2.9201-10.2658,3.3899-13.9386
		c3.5794,4.7085,10.3592,8.9472,18.6471,8.9472c7.0627,0,11.3949-3.2017,11.3949-8.005c0-12.9964-31.6422-11.4896-31.6422-33.7135
		c0-14.2202,13.0898-19.588,23.1661-19.588C459.5093,132.4115,465.3482,134.388,470.433,137.8727z"/>
	<path d="M528.0706,203.5113c-1.0356,0.4711-3.4846,1.4133-7.6286,1.4133c-4.5203,0-7.6273-2.449-8.8524-4.9914
		c-2.3542,2.8253-6.4969,5.6507-13.7491,5.6507c-5.7442,0-16.9508-2.0726-16.9508-13.9386c0-12.524,12.4305-14.973,19.0234-14.973
		c3.6729,0,7.1562,0.7527,9.6052,1.6002v-2.2595c0-8.8524-6.0271-9.5117-9.5117-9.5117c-5.4612,0-10.7356,1.6015-14.3137,5.0862
		c-0.3777-3.7676-0.9422-7.4404-1.6949-10.4539c3.9544-3.3899,10.3579-5.7442,17.8918-5.7442
		c16.6692,0,20.3421,11.3949,20.3421,22.2252v10.5474c0,2.7306,0.5645,7.3444,3.9557,7.3444c0.9409,0,1.8831-0.1882,2.5424-0.4698
		C528.2587,197.296,527.9758,201.157,528.0706,203.5113z M500.5723,196.2604c2.8241,0,6.4969-0.9422,9.0406-3.4846
		c-0.0947-0.5646-0.0947-1.1304-0.0947-1.695v-5.4625c-1.9779-0.3764-4.4256-0.6593-6.4035-0.6593
		c-4.5203,0-8.759,1.4133-8.759,6.1218C494.3558,194.6589,496.8995,196.2604,500.5723,196.2604z"/>
	<path d="M582.8814,204.6417h-13.1832l-0.0947-27.1219c0-6.1218-0.6593-10.8303-7.251-10.8303
		c-4.9914,0-9.3235,2.3542-11.866,7.1575v30.7947h-13.1846v-46.8981c3.861,0,9.417-0.6593,13.1846-1.6949v8.3813
		c2.6372-4.5203,7.5339-9.0406,15.8218-9.0406c12.2423,0,16.4797,9.6052,16.4797,20.8119L582.8814,204.6417z"/>
	<path d="M595.504,187.5961c2.1661,3.2017,10.2645,6.8746,15.727,6.8746c2.7307,0,5.0849-0.9409,5.0849-3.3899
		c0-7.4391-22.0357-5.7442-22.0357-21.4711c0-9.6999,8.3813-14.2202,17.5154-14.2202c5.8389,0,12.2437,1.8831,14.7861,3.7663
		c-0.8475,2.5437-2.0726,6.5929-2.449,10.925c-2.5424-2.2608-7.2509-3.9557-11.3001-3.9557c-3.6729,0-6.0271,1.1304-6.0271,3.4846
		c0,7.1575,22.2239,4.6138,22.2239,21.5659c0,13.0898-13.3727,14.4084-19.0222,14.4084c-7.3457,0-13.0898-2.2608-16.7626-4.9914
		C594.092,197.9553,595.504,191.0808,595.504,187.5961z"/>
</g>
<g>
	<path d="M346.5786,259.0948l-8.8032,21.2627h-3.7422l-9.228-21.2627h3.7847l6.2515,15.2236l1.1484,2.7646l1.1055-2.7646
		l5.8687-15.2236H346.5786z"/>
	<path d="M367.8374,270.5763h-15.5645c0.3403,4.2529,3.147,7.1025,7.8672,7.1025c3.062,0,5.7412-0.9355,6.9746-2.127
		c-0.2979,1.2764-0.5103,2.7646-0.5527,3.8271c-1.5312,0.7656-3.7427,1.4033-6.4219,1.4033c-7.144,0-11.2266-4.252-11.2266-11.0566
		c0-6.5059,3.6147-11.0137,9.9087-11.0566C365.3711,258.6271,368.2627,263.049,367.8374,270.5763z M352.4004,267.6847h11.9927
		c0.085-3.1045-1.6162-6.0391-5.5708-6.0391C355.0796,261.6456,352.9536,264.0704,352.4004,267.6847z"/>
	<path d="M386.2051,259.0948c-0.5527,1.0625-0.8501,2.2959-0.8931,3.4863c-3.6572-0.8076-6.7188,1.7012-7.9521,4.5078v13.2686
		h-3.4023v-21.0078c1.1909-0.043,2.3394-0.2549,3.4023-0.5957v5.0186C378.5078,261.0079,380.8896,258.2013,386.2051,259.0948z"/>
	<path d="M421.54,269.7257c0,6.8047-4.3799,11.0566-10.4619,11.0566c-6.0811,0-10.418-4.252-10.418-11.0566
		c0-6.8037,4.3369-11.0566,10.418-11.0566C417.1602,258.6691,421.54,262.922,421.54,269.7257z M404.1465,269.7257
		c0,5.4434,2.9775,8.0801,6.9316,8.0801c3.9551,0,6.9746-2.6367,6.9746-8.0801s-3.0195-8.0801-6.9746-8.0801
		C407.124,261.6456,404.1465,264.2823,404.1465,269.7257z"/>
	<path d="M424.2578,278.0187c0-1.4883,1.1055-2.7217,2.7217-2.7217s2.7646,1.2334,2.7646,2.7217
		c0,1.6582-1.1484,2.8066-2.7646,2.8066S424.2578,279.6769,424.2578,278.0187z"/>
	<path d="M454.0244,280.0597c0,4.5508-3.1895,8.8027-10.2061,8.8027c-3.6572,0-7.4854-1.6582-8.165-2.6367
		c0.5098-0.9355,0.8506-2.168,1.0625-3.3164c1.2334,1.7012,4.21,2.9766,7.1025,2.9766c4.5928,0,6.7188-2.8066,6.7188-5.6982
		c0-4.6357-4.5078-6.9746-10.5039-6.2939l6.7617-9.9092l1.3184-1.9131h-10.5889c0.2549-0.8936,0.4248-1.999,0.4248-2.9766h15.9473
		l-8.5898,12.2471C449.8564,271.5548,454.0244,274.8292,454.0244,280.0597z"/>
	<path d="M474.0088,280.5704h-16.373c3.9121-4.6357,12.2051-10.4619,12.2051-14.8848c0-2.7217-2.084-4.04-4.5498-4.04
		c-2.8926,0-4.9756,1.6592-6.082,3.1475c-0.042-1.1904-0.3828-2.3818-0.6377-3.1045c1.2764-1.4033,3.7002-3.0195,7.2295-3.0195
		c4.3379,0,7.3145,2.3818,7.3145,6.5488c0,5.1885-5.4434,9.0156-8.7178,12.375h10.0361
		C474.1787,278.4865,474.0088,279.5919,474.0088,280.5704z"/>
</g>
</svg>
