<?xml version="1.0" encoding="utf-8"?>
<!-- Generator: Adobe Illustrator 22.1.0, SVG Export Plug-In . SVG Version: 6.00 Build 0)  -->
<svg version="1.1" id="レイヤー_1" xmlns="http://www.w3.org/2000/svg" xmlns:xlink="http://www.w3.org/1999/xlink" x="0px"
	 y="0px" viewBox="0 0 800 400" enable-background="new 0 0 800 400" xml:space="preserve">
<rect y="0" fill="#FFFFFF" width="800" height="400"/>
<g>
	<path d="M231.8882,202.3107c-2.9761,0.3965-7.7383,2.4795-9.3257,3.6709c-8.731-6.6475-32.4429-28.7725-38.1968-35.5186v34.4268
		h-8.4331v-69.4492h8.4331V168.38l30.2598-32.9395h10.1196l-31.1528,33.0381C204.1089,179.3917,221.5703,195.3654,231.8882,202.3107
		z"/>
	<path d="M233.5742,180.087c0-15.1797,9.3262-25.7959,25.002-25.7959c15.6753,0,25.0015,10.6162,25.0015,25.7959
		c0,15.1787-9.3262,25.7949-25.0015,25.7949C242.9004,205.882,233.5742,195.2657,233.5742,180.087z M275.4424,180.087
		c0-11.0127-6.1514-18.8506-16.8662-18.8506c-10.7153,0-16.8662,7.8379-16.8662,18.8506c0,11.0117,6.1509,18.8496,16.8662,18.8496
		C269.291,198.9366,275.4424,191.0988,275.4424,180.087z"/>
	<path d="M327.6274,162.7247c1.5874,1.7852,3.2739,4.7617,3.2739,8.8291c0,10.1201-7.8379,17.3623-18.6519,17.3623
		c-1.6865,0-3.3735-0.1982-4.9609-0.4961c-2.0835,0.8936-4.4644,2.7783-4.4644,5.457c0,9.8223,35.6172-1.6865,35.6172,19.0488
		c0,13.8896-15.2788,16.7666-23.811,16.7666c-8.334,0-22.6201-3.1748-22.6201-15.9727c0-5.6553,3.0752-8.8301,6.647-11.6084
		c-2.0835-1.4883-3.373-3.4717-3.373-6.6465c0-4.5645,2.7778-8.0361,5.5557-9.8223c-4.6631-3.0762-7.54-8.0361-7.54-14.0889
		c0-10.0195,8.0361-17.2627,18.9497-17.2627c4.7622,0,8.7305,1.1904,11.707,3.2744c3.9683-0.4961,10.2188-1.9844,15.9731-4.6631
		c-0.6943,3.0752-0.397,5.8535-0.0991,7.9365C336.0605,162.3273,331.2983,162.923,327.6274,162.7247z M305.0068,204.3937
		c-3.1748,1.9844-5.3574,4.4648-5.3574,7.8379c0,6.9453,5.5557,10.9131,15.5762,10.9131c6.0522,0,15.4775-2.2812,15.4775-9.623
		C330.7031,204.1954,315.5234,206.3781,305.0068,204.3937z M323.2622,171.5538c0-6.0518-4.0679-11.1113-11.0127-11.1113
		c-7.0444,0-11.3105,5.0596-11.3105,11.1113c0,5.9531,4.2661,10.7158,11.3105,10.7158
		C319.1943,182.2697,323.2622,177.507,323.2622,171.5538z"/>
	<path d="M392.2148,203.8976c-1.4883,0.9922-3.4722,1.4883-5.9526,1.4883c-4.564,0-7.4409-3.4727-8.2349-6.5479
		c-2.0835,3.1748-6.2505,7.0439-14.4849,7.0439c-6.0522,0-17.1641-2.5801-17.1641-14.9814c0-13.79,13.6914-15.7744,18.7515-15.7744
		c5.3574,0,9.2266,1.29,11.9053,2.3809v-3.0752c0-9.5244-3.1748-13.3936-11.5083-13.3936c-5.5562,0-10.5166,3.373-13.5923,6.8457
		c-0.397-3.0762-0.8931-5.0605-1.6865-7.3418c4.0674-3.7705,10.2188-6.251,16.9653-6.251c14.584,0,17.7588,9.8223,17.7588,20.1406
		v17.5605c0,3.1748,0.1987,7.7383,4.2661,7.7383c1.29,0,2.4805-0.2979,3.1748-0.6943
		C392.2148,200.921,392.1157,201.9132,392.2148,203.8976z M377.0352,192.6866V183.46c-2.0835-0.8936-6.5479-1.9844-11.707-1.9844
		c-5.4565,0-11.3101,1.7861-11.3101,8.9287c0,4.5645,2.877,9.1279,9.7227,9.1279
		C369.793,199.5323,374.4556,196.6554,377.0352,192.6866z"/>
	<path d="M466.5225,139.3107c-1.0908,2.6787-2.083,5.7539-2.3818,8.9287c-4.7617-5.1592-10.8135-6.8457-15.873-6.8457
		c-5.0605,0-10.5176,2.6787-10.5176,9.624c0,16.8662,32.543,13.1953,32.543,35.2197c0,13.791-7.9375,20.3389-22.7207,20.3389
		c-7.8379,0-16.4688-3.1748-20.4375-7.4404c0.8926-2.2822,2.3809-6.1514,2.7783-9.7236c2.9756,5.457,9.624,9.8223,18.0566,9.8223
		c9.0283,0,13.6914-4.3652,13.79-12.0049c0.2979-16.8662-32.4414-12.4014-32.4414-34.5254
		c0-14.7832,11.4082-18.6523,19.8418-18.6523C455.0137,134.0519,461.6611,135.4406,466.5225,139.3107z"/>
	<path d="M527.041,203.8976c-1.4883,0.9922-3.4727,1.4883-5.9531,1.4883c-4.5635,0-7.4404-3.4727-8.2344-6.5479
		c-2.084,3.1748-6.25,7.0439-14.4844,7.0439c-6.0527,0-17.1641-2.5801-17.1641-14.9814c0-13.79,13.6914-15.7744,18.751-15.7744
		c5.3574,0,9.2266,1.29,11.9053,2.3809v-3.0752c0-9.5244-3.1748-13.3936-11.5078-13.3936c-5.5566,0-10.5176,3.373-13.5928,6.8457
		c-0.3975-3.0762-0.8936-5.0605-1.6865-7.3418c4.0674-3.7705,10.2188-6.251,16.9648-6.251c14.584,0,17.7598,9.8223,17.7598,20.1406
		v17.5605c0,3.1748,0.1982,7.7383,4.2656,7.7383c1.29,0,2.4805-0.2979,3.1748-0.6943
		C527.041,200.921,526.9414,201.9132,527.041,203.8976z M511.8613,192.6866V183.46c-2.084-0.8936-6.5479-1.9844-11.707-1.9844
		c-5.457,0-11.3105,1.7861-11.3105,8.9287c0,4.5645,2.877,9.1279,9.7227,9.1279
		C504.6191,199.5323,509.2812,196.6554,511.8613,192.6866z"/>
	<path d="M581.3086,175.6222v29.2676h-7.9365v-30.8555c0-4.4639-0.4961-13.0957-9.624-13.0957
		c-7.7383,0-13.9883,5.6553-16.668,10.8145v33.1367h-7.9365V155.879c2.6787-0.2979,5.3574-0.5957,7.9365-1.1904v8.9287
		c2.9766-4.4648,8.334-9.3262,17.1641-9.3262C582.0039,154.2911,581.3086,168.4786,581.3086,175.6222z"/>
	<path d="M597.877,191.6945c2.4805,3.7705,8.9287,7.0439,14.6836,7.0439c3.8691,0,8.6309-1.3887,8.6309-6.3496
		c0-12.0049-24.1084-7.4404-24.1084-25.001c0-8.6318,8.334-13.0967,15.874-13.0967c6.5479,0,11.1113,1.6865,14.584,4.3652
		c-0.9922,2.7783-1.6865,5.3574-2.084,8.1357c-2.1816-3.1748-7.4404-6.0518-12.3018-6.0518c-3.5713,0-8.2344,1.3887-8.2344,6.1514
		c0,13.0957,24.1084,7.0439,24.1084,25.4971c0,11.3105-10.6152,13.4932-17.3623,13.4932c-6.4482,0-12.6992-2.6787-15.9736-5.8535
		C596.6855,197.3497,597.4805,194.3732,597.877,191.6945z"/>
</g>
<g>
	<path d="M358.5908,258.6271l-8.8027,21.2627h-3.7422l-9.2285-21.2627h4.04l7.187,17.8604l6.9316-17.8604H358.5908z"/>
	<path d="M380.5308,269.6837h-15.4795c0.1699,4.5078,2.9766,7.6543,7.8247,7.6543c3.062,0,5.7412-1.0205,6.9746-2.2109
		c-0.2979,1.2754-0.5107,2.7217-0.5532,3.7842c-1.5308,0.7656-3.7422,1.4033-6.4214,1.4033c-7.1445,0-11.312-4.252-11.312-11.0566
		c0-6.5059,3.4873-11.0566,9.9087-11.0566C378.2344,258.2013,380.9561,262.1564,380.5308,269.6837z M365.2637,266.7062h11.7373
		c0.0425-3.0186-1.5732-5.5283-5.5283-5.5283C367.9004,261.1779,365.9019,263.3898,365.2637,266.7062z"/>
	<path d="M398.9829,258.6271c-0.5527,1.0625-0.8501,2.4238-0.8931,3.6143c-3.6997-0.8926-6.7188,1.5732-7.9521,4.3379v13.3105
		h-3.4023V258.882c1.1484-0.1279,2.2964-0.2549,3.4023-0.5107v4.4229C391.4136,260.2003,393.9224,257.7765,398.9829,258.6271z"/>
	<path d="M433.8926,269.2579c0,6.8047-4.3809,11.0566-10.4609,11.0566c-6.082,0-10.4199-4.252-10.4199-11.0566
		c0-6.8037,4.3379-11.0566,10.4199-11.0566C429.5117,258.2013,433.8926,262.4542,433.8926,269.2579z M416.499,269.2579
		c0,5.4434,2.9775,8.0801,6.9326,8.0801c3.9541,0,6.9736-2.6367,6.9736-8.0801s-3.0195-8.0801-6.9736-8.0801
		C419.4766,261.1779,416.499,263.8146,416.499,269.2579z"/>
	<path d="M437.375,277.8907c0-1.3604,0.9355-2.3809,2.3818-2.3809s2.4248,1.0205,2.4248,2.3809
		c0,1.4883-0.9785,2.4668-2.4248,2.4668S437.375,279.379,437.375,277.8907z"/>
	<path d="M465.9086,279.5919c0,4.5508-3.1895,8.8027-10.207,8.8027c-3.6562,0-7.4844-1.6582-8.1641-2.6367
		c0.5098-0.9355,0.8496-2.168,1.0625-3.3164c1.2334,1.7012,4.2109,2.9766,7.1016,2.9766c4.5938,0,6.7197-2.8066,6.7197-5.6982
		c0-4.6357-4.5078-6.9746-10.5039-6.2939l8.0381-11.8223h-10.25c0.1699-0.8936,0.2988-2.041,0.2988-2.9766h15.6064l-8.5908,12.2471
		C461.6137,271.0021,465.9086,274.3185,465.9086,279.5919z"/>
</g>
</svg>
