<?xml version="1.0" encoding="utf-8"?>
<!-- Generator: Adobe Illustrator 22.1.0, SVG Export Plug-In . SVG Version: 6.00 Build 0)  -->
<svg version="1.1" id="レイヤー_1" xmlns="http://www.w3.org/2000/svg" xmlns:xlink="http://www.w3.org/1999/xlink" x="0px"
	 y="0px" viewBox="0 0 800 400" enable-background="new 0 0 800 400" xml:space="preserve">
<rect fill="#FFFFFF" width="800" height="400"/>
<g>
	<path d="M250.1504,199.9097c-3.5996,0.4502-12.7793,3.3306-15.209,5.1294c-9.6289-7.5591-21.0586-20.0684-29.8789-31.9482v30.1494
		h-12.1484v-62.998h12.1484v28.8892c9.7207-9.27,17.3691-18.8096,25.8301-29.9688c2.25,1.0796,10.1699,2.6099,13.1387,2.8799
		c-8.3691,10.6191-18.9883,21.5088-26.8184,28.7988C224.7715,180.2905,238.002,192.0801,250.1504,199.9097z"/>
	<path d="M247.9043,180.2905c0-13.9492,8.5488-23.7588,23.9395-23.7588c15.3887,0,23.9375,9.8096,23.9375,23.7588
		c0,14.0396-8.5488,23.8491-23.9375,23.8491C256.4531,204.1396,247.9043,194.3301,247.9043,180.2905z M284.082,180.2905
		c0-9.0894-4.7695-14.1294-12.2383-14.1294c-7.4707,0-12.2402,5.04-12.2402,14.1294c0,9.0898,4.7695,14.1294,12.2402,14.1294
		C279.3125,194.4199,284.082,189.3804,284.082,180.2905z"/>
	<path d="M345.2812,210.709c0,11.9707-12.5996,15.0293-23.1289,15.0293s-22.1387-3.6895-22.1387-13.7695
		c0-5.8496,3.1504-8.8184,5.9395-10.709c-1.9805-1.5298-3.2402-3.7798-3.2402-7.0195c0-4.4102,2.7012-6.6597,5.4004-8.8198
		c-3.8691-2.79-6.209-7.0195-6.209-12.4194c0-9.7197,7.9199-16.8291,18.4492-16.8291c3.4199,0,6.4785,0.7197,8.998,1.8896
		c5.1309,1.71,14.041,1.4399,18,0c-1.5293,3.6001-2.4297,8.0098-2.6094,10.5298c-1.9805-0.0903-5.3105-0.4502-8.1895-1.71
		c1.0801,1.2598,1.9785,3.0596,1.9785,6.1196c0,9.8096-7.7383,16.0195-18.1777,16.0195c-1.5312,0-2.9707-0.0903-4.4102-0.3604
		c-1.2598,0.6304-2.25,1.71-2.25,3.6001C313.6934,200.1797,345.2812,190.1904,345.2812,210.709z M334.123,211.0693
		c0-6.2998-11.7012-5.1299-20.7891-6.9297c-1.2617,0.8994-2.3398,2.4307-2.3398,5.2197c0,6.2998,8.459,7.4697,11.6094,7.4697
		C325.752,216.8291,334.123,216.8291,334.123,211.0693z M312.793,173.001c0,4.9497,3.7793,7.0195,7.5605,7.0195
		c3.6895,0,7.2891-2.0698,7.2891-7.0195s-3.5996-7.3799-7.2891-7.3799C316.5723,165.6211,312.793,168.0513,312.793,173.001z"/>
	<path d="M394.6016,201.8896c-1.7109,1.5303-3.8711,2.25-7.5605,2.25c-5.1289,0-8.2793-2.8799-9.0898-5.4897
		c-2.25,2.3398-5.9395,5.4897-13.2285,5.4897c-5.4902,0-15.1191-2.3398-15.1191-13.5894c0-12.5098,11.25-14.3096,15.8398-14.3096
		c4.6797,0,8.3691,1.6201,10.7988,2.7002v-2.7002c0-5.3994-2.1602-9.1797-9.6289-9.1797c-5.5801,0-9.4512,3.5103-11.5195,6.8398
		c0-3.0596-0.6309-8.8193-1.3516-10.9795c2.6113-2.8799,8.0098-6.3896,16.1094-6.3896c14.4004,0,18.0898,8.5498,18.0898,18.8091
		v13.2295c0,2.8799,0.4492,6.5698,3.5098,6.5698c1.3496,0,2.1602-0.1802,3.7793-0.8999
		C394.7812,196.4902,394.5117,200.0898,394.6016,201.8896z M366.3418,195.6802c3.6895,0,7.0195-1.2603,9.9004-3.6001v-6.0298
		c-2.0703-0.6299-4.9492-1.71-9.4492-1.71c-4.5898,0-6.6602,2.0703-6.6602,5.7598
		C360.1328,192.98,361.752,195.6802,366.3418,195.6802z"/>
	<path d="M467.3184,143.8423c-0.9883,2.4297-1.8887,8.8193-2.1582,11.6992c-4.5898-4.3198-9.9004-5.7598-14.4004-5.7598
		c-3.8691,0-7.2891,2.25-7.2891,5.8501c0,6.2998,6.3887,8.1895,9.5391,9.7192c2.9707,1.4399,18.0898,5.8501,18.0898,20.2495
		c0,12.7793-8.5508,19.1689-21.959,19.1689c-7.1113,0-15.75-2.9697-19.3496-6.8394c0.8105-2.0703,2.7891-10.8896,3.1504-14.1299
		c2.6992,4.9502,9.1797,10.1699,16.8281,10.1699c6.6602,0,9.1797-3.7798,9.1797-7.7397c0-6.3896-6.5703-8.9995-10.0801-10.4395
		c-4.1387-1.71-17.5488-6.3901-17.5488-18.9893c0-13.8594,11.6992-17.8193,19.3496-17.8193
		C455.9805,138.9824,462.9102,140.3325,467.3184,143.8423z"/>
	<path d="M521.9473,201.8896c-1.709,1.5303-3.8691,2.25-7.5586,2.25c-5.1309,0-8.2793-2.8799-9.0898-5.4897
		c-2.25,2.3398-5.9395,5.4897-13.2305,5.4897c-5.4883,0-15.1191-2.3398-15.1191-13.5894c0-12.5098,11.25-14.3096,15.8398-14.3096
		c4.6797,0,8.3691,1.6201,10.7988,2.7002v-2.7002c0-5.3994-2.1582-9.1797-9.6289-9.1797c-5.5801,0-9.4492,3.5103-11.5195,6.8398
		c0-3.0596-0.6309-8.8193-1.3496-10.9795c2.6094-2.8799,8.0098-6.3896,16.1094-6.3896c14.3984,0,18.0898,8.5498,18.0898,18.8091
		v13.2295c0,2.8799,0.4492,6.5698,3.5098,6.5698c1.3496,0,2.1582-0.1802,3.7793-0.8999
		C522.127,196.4902,521.8574,200.0898,521.9473,201.8896z M493.6895,195.6802c3.6895,0,7.0195-1.2603,9.8984-3.6001v-6.0298
		c-2.0684-0.6299-4.9492-1.71-9.4492-1.71c-4.5898,0-6.6602,2.0703-6.6602,5.7598
		C487.4785,192.98,489.0996,195.6802,493.6895,195.6802z"/>
	<path d="M571.8066,203.2402h-11.8789l-0.0918-25.9194c0-5.8496-1.1699-10.6196-7.3789-10.6196
		c-5.4004,0-9.5391,3.4199-11.7891,8.6396v27.8994h-11.8809l0.1816-42.0288v-2.79c3.5996,0,8.8184-0.6299,11.6992-1.5298v7.5596
		c2.6094-4.2295,7.1992-8.2793,15.8398-8.2793c11.5195,0,15.209,9.2695,15.209,19.8892L571.8066,203.2402z"/>
	<path d="M581.0781,186.2305c2.0703,3.5996,7.2891,7.9194,12.5098,7.9194c3.0586,0,4.5898-1.5298,4.5898-3.5996
		c0-3.7798-5.3105-5.3999-7.3809-6.5698c-2.5195-1.4399-10.8887-5.0396-10.8887-14.7593c0-7.2896,6.0293-13.0493,14.3984-13.0493
		c5.9395,0,10.5293,1.7998,13.6797,4.2295c-0.9004,2.52-1.709,8.2798-1.8906,11.8794c-1.9785-2.8799-6.209-6.0293-10.6191-6.0293
		c-2.9688,0-3.959,2.0698-3.959,3.5996c0,3.6001,3.1504,4.6797,5.3984,5.9399c2.25,1.2598,12.8711,4.7695,12.8711,15.5693
		c0,10.5293-10.0801,12.7793-16.1992,12.7793c-5.8496,0-11.6094-2.1592-14.5801-5.0396
		C579.8184,196.4902,580.8984,189.1104,581.0781,186.2305z"/>
</g>
<g>
	<g>
		<path d="M163.6191,258.8467v13.3936h-0.959v-14.9297c0-2.4482,0.0469-8.4492-5.5684-8.4492
			c-6.8164,0-9.6016,4.9922-10.6094,8.2578v15.1211h-0.9609v-23.666c0.2402,0,0.7207-0.0967,0.9609-0.1924v6.5283
			c1.248-2.832,4.1758-6.9121,10.7051-6.9121C164.0039,247.998,163.6191,254.9102,163.6191,258.8467z"/>
	</g>
	<g>
		<path d="M232.8359,258.7031v13.5371h-1.4414v-14.9297c0-2.4004,0-8.1133-5.4238-8.1133c-6.2402,0-9.0723,4.5127-10.1758,7.6328
			v15.4102h-1.4414v-23.666c0.3848-0.0488,1.0078-0.1445,1.4414-0.2891v6.0977c1.2949-2.7363,4.1758-6.4336,10.2715-6.4336
			C233.1719,247.9492,232.8359,254.8623,232.8359,258.7031z"/>
	</g>
	<g>
		<path d="M302.2188,258.4629v13.7773h-2.4004v-14.9297c0-2.3047-0.0957-7.3926-5.1348-7.3926c-5.2324,0-8.1621,3.792-9.3145,6.6719
			v15.6504h-2.3984v-23.7148c0.7676-0.0479,1.6309-0.1914,2.3984-0.3838v5.376c1.3457-2.543,4.1289-5.6641,9.5059-5.6641
			C302.5547,247.8535,302.2188,254.7656,302.2188,258.4629z"/>
	</g>
	<g>
		<path d="M371.7715,258.0781v14.1621h-3.8398v-14.9297c0-2.1602-0.2402-6.3359-4.6562-6.3359
			c-3.7441,0-6.7695,2.7354-8.0645,5.2324v16.0332h-3.8398v-23.7148c1.2949-0.1436,2.5918-0.2871,3.8398-0.5762v4.3203
			c1.4395-2.1602,4.0312-4.5117,8.3047-4.5117C372.1074,247.7578,371.7715,254.6221,371.7715,258.0781z"/>
	</g>
	<g>
		<path d="M441.3965,257.8867v14.3535h-5.0879v-14.4023c0-2.6396-0.4316-6-4.3203-6c-3.2656,0-5.9043,2.2559-7.1523,4.8965v15.5059
			h-5.0898l0.0488-22.2266v-1.584c1.584-0.0957,3.6484-0.3359,5.041-0.7207v4.1777c1.3906-2.209,3.9355-4.4648,8.3516-4.4648
			C440.5801,247.4219,441.3965,253.3262,441.3965,257.8867z"/>
	</g>
	<g>
		<path d="M511.0449,272.2402h-6.3359l-0.0488-13.8262c0-3.1191-0.625-5.6641-3.9355-5.6641c-2.8809,0-5.0898,1.8242-6.2891,4.6084
			v14.8818h-6.3379l0.0977-22.418v-1.4883c1.9199,0,4.7031-0.3359,6.2402-0.8164v4.0322c1.3926-2.2559,3.8398-4.416,8.4492-4.416
			c6.1445,0,8.1113,4.9443,8.1113,10.6084L511.0449,272.2402z"/>
	</g>
	<g>
		<path d="M580.5,258.3184v13.9219h-7.248l-0.0488-13.7295c0-3.1201-0.5742-5.3291-3.5996-5.3291
			c-2.5918,0-4.6074,1.6328-5.7129,4.0332v15.0254h-7.248l0.0488-22.5146v-1.4873c2.207-0.0488,5.4707-0.4326,7.1992-0.9121v3.5996
			c1.4414-2.0645,3.6973-4.0801,7.9219-4.0801C577.957,246.8457,580.5,251.2139,580.5,258.3184z"/>
	</g>
	<g>
		<path d="M641.7715,272.2402v-13.5859c0-3.1201-0.623-5.0879-3.3594-5.0879c-2.2578,0-4.0332,1.3926-5.041,3.3125v15.3613h-8.209
			l0.0488-22.5625v-1.584c2.4473,0,6.2402-0.4316,8.1602-0.96v3.168c1.4395-1.8721,3.5996-3.6963,7.3926-3.6963
			c6.0488,0,9.168,3.6963,9.168,12.2891l0.0488,13.3457H641.7715z"/>
	</g>
</g>
</svg>
