<?xml version="1.0" encoding="utf-8"?>
<!-- Generator: Adobe Illustrator 22.1.0, SVG Export Plug-In . SVG Version: 6.00 Build 0)  -->
<svg version="1.1" id="レイヤー_1" xmlns="http://www.w3.org/2000/svg" xmlns:xlink="http://www.w3.org/1999/xlink" x="0px"
	 y="0px" viewBox="0 0 93 143" enable-background="new 0 0 93 143" xml:space="preserve">
<g>
	<path fill="#B4B4B5" d="M6.7554,6.2036c0,1.0029-0.8071,1.8018-2.1841,1.8018c-0.7056,0-1.4873-0.4077-1.4873-1.3086
		c0-0.2124,0.0166-0.4507,0.0425-0.7056C2.438,5.7959,1.6221,5.4131,1.6221,4.8691c0-0.3994,0.561-0.8667,0.748-1.1304
		c0.144-0.2036,0.1357-0.3145,0-0.5439c-0.1108-0.1865-0.2891-0.3481-0.561-0.6201C1.6982,2.4644,1.7749,2.311,1.9619,2.3623
		c0.5522,0.1528,1.0708,0.5605,1.2153,1.0195c0.085,0.272,0.0171,0.4507-0.2974,0.6377C2.5483,4.2148,2.0127,4.5547,2.0127,4.793
		c0,0.2632,0.5952,0.4761,1.1987,0.5947c0.1021-0.646,0.2378-1.2832,0.3228-1.6914C3.6279,3.229,3.7637,2.5405,3.7637,2.1919
		c0-0.2461-0.1357-0.3652-0.4165-0.5522C3.186,1.5293,3.0073,1.4355,3.0073,1.3335c0-0.085,0.1616-0.1782,0.3569-0.1782
		c0.4507,0,1.1133,0.3994,1.1133,0.9092c0,0.272-0.2461,1.0542-0.3994,1.7085C3.9849,4.1641,3.8315,4.8267,3.7129,5.4556
		C4.5796,5.5493,4.7324,5.626,4.7324,5.8042c0,0.1528-0.085,0.3315-0.5776,0.3315c-0.1528,0-0.3398-0.0083-0.5439-0.0342
		c-0.0254,0.1958-0.0425,0.374-0.0425,0.5273c0,0.6626,0.459,0.8413,0.9775,0.8413c1.1387,0,1.5464-0.6714,1.5464-1.377
		c0-0.9351-0.9771-1.5298-1.4614-1.8442C4.4097,4.1045,4.4946,3.8921,4.7495,3.9683C5.71,4.2573,6.7554,5.082,6.7554,6.2036z"/>
	<path fill="#B4B4B5" d="M15.2593,6.2036c0,1.0029-0.8071,1.8018-2.1841,1.8018c-0.7056,0-1.4873-0.4077-1.4873-1.3086
		c0-0.2124,0.0166-0.4507,0.0425-0.7056c-0.6885-0.1953-1.5044-0.5781-1.5044-1.1221c0-0.3994,0.561-0.8667,0.748-1.1304
		c0.144-0.2036,0.1357-0.3145,0-0.5439c-0.1108-0.1865-0.2891-0.3481-0.561-0.6201c-0.1108-0.1104-0.0342-0.2637,0.1528-0.2124
		c0.5522,0.1528,1.0708,0.5605,1.2153,1.0195c0.085,0.272,0.0171,0.4507-0.2974,0.6377c-0.3315,0.1953-0.8672,0.5352-0.8672,0.7734
		c0,0.2632,0.5952,0.4761,1.1987,0.5947c0.1021-0.646,0.2378-1.2832,0.3228-1.6914c0.0938-0.4673,0.2295-1.1558,0.2295-1.5044
		c0-0.2461-0.1357-0.3652-0.4165-0.5522c-0.1611-0.1104-0.3398-0.2041-0.3398-0.3062c0-0.085,0.1616-0.1782,0.3569-0.1782
		c0.4507,0,1.1133,0.3994,1.1133,0.9092c0,0.272-0.2461,1.0542-0.3994,1.7085c-0.0933,0.3911-0.2466,1.0537-0.3652,1.6826
		c0.8667,0.0938,1.0195,0.1704,1.0195,0.3486c0,0.1528-0.085,0.3315-0.5776,0.3315c-0.1528,0-0.3398-0.0083-0.5439-0.0342
		c-0.0254,0.1958-0.0425,0.374-0.0425,0.5273c0,0.6626,0.459,0.8413,0.9775,0.8413c1.1387,0,1.5464-0.6714,1.5464-1.377
		c0-0.9351-0.9771-1.5298-1.4614-1.8442c-0.2212-0.1445-0.1362-0.3569,0.1187-0.2808C14.2139,4.2573,15.2593,5.082,15.2593,6.2036z"
		/>
	<path fill="#B4B4B5" d="M22.1567,1.6313c0.1362,0.2378,0.1445,0.3652-0.1953,0.6885c-0.5522,0.5269-1.4106,1.3257-1.8018,1.7422
		c-0.1953,0.2124-0.3062,0.3486-0.3062,0.5352c0,0.1279,0.1108,0.2979,0.4761,0.5698c0.4932,0.3652,1.0962,0.8325,1.4873,1.1982
		c0.4932,0.459,0.6968,0.8584,0.6968,1.2324c0,0.2803-0.1782,0.3994-0.3569,0.3994c-0.1187,0-0.2295-0.0767-0.3823-0.3657
		c-0.1782-0.3398-0.3315-0.5605-0.6035-0.8921c-0.2974-0.3569-0.9941-0.9946-1.3511-1.3091
		c-0.2637-0.2295-0.4419-0.4673-0.4419-0.7393c0-0.2974,0.1699-0.5693,0.4673-0.9263c0.3486-0.4253,1.0112-1.1899,1.3511-1.6318
		c0.1704-0.2212,0.2212-0.4082,0.1704-0.6035c-0.0425-0.1616-0.0938-0.2549-0.1108-0.3398
		c-0.0254-0.1279,0.0425-0.2041,0.2124-0.1445C21.749,1.1382,22.021,1.3848,22.1567,1.6313z M22.9561,4.3423
		c0,0.1958-0.1445,0.2979-0.2891,0.2979c-0.1958,0-0.2549-0.1445-0.4507-0.374c-0.1445-0.1699-0.3398-0.3486-0.5098-0.5103
		c-0.1021-0.1021-0.0425-0.2378,0.1021-0.2295C22.3608,3.5688,22.9561,3.9429,22.9561,4.3423z M23.6782,3.5435
		c0,0.1787-0.1104,0.2974-0.2803,0.2974c-0.1274,0-0.2124-0.0679-0.374-0.2461c-0.187-0.2041-0.4419-0.3911-0.6289-0.5273
		c-0.1362-0.1021-0.0767-0.2461,0.085-0.2461C23.0239,2.8296,23.6782,3.1099,23.6782,3.5435z"/>
	<path fill="#B4B4B5" d="M31.6724,4.6826c0.2036,0.3481,0.3145,0.6543,0.3145,0.9263c0,0.3652-0.2124,0.5186-0.4336,0.5186
		c-0.1616,0-0.374-0.1191-0.5356-0.2041c-0.3481-0.187-0.8667-0.4419-1.6484-0.4419c-0.7227,0-1.3433,0.4844-1.3433,0.9517
		c0,0.374,0.2979,0.5439,0.7905,0.6035c0.6035,0.0767,1.1392-0.0171,1.5469-0.0171c0.3232,0,0.5269,0.0342,0.5269,0.1958
		c0,0.1953-0.2632,0.5269-1.3765,0.5269c-0.9268,0-2.0742-0.2808-2.0742-1.1816c0-0.7563,0.9009-1.436,1.9976-1.436
		c0.7905,0,1.3003,0.1357,1.6147,0.1782c0.1787,0.0254,0.2124-0.0337,0.2124-0.1187c0-0.3149-0.4673-1.0029-0.9517-1.6577
		c-0.4507,0.1191-0.9692,0.1958-1.5386,0.1958c-0.9351,0-1.564-0.6035-1.7339-1.2749c-0.0425-0.1699,0.0938-0.2383,0.2124-0.1533
		c0.3911,0.2808,0.918,0.8755,1.8188,0.8755c0.3486,0,0.6548-0.0337,0.918-0.085c-0.3315-0.4927-0.4756-0.8584-0.4756-1.2324
		c0-0.2378,0.1274-0.5439,0.4927-0.5439c0.2549,0,0.4761,0.1616,0.748,0.3145c0.2891,0.1616,0.6372,0.3232,0.9688,0.4419
		c0.2549,0.0938,0.3823,0.1787,0.3823,0.3657c0,0.1528-0.1357,0.3057-0.3228,0.4419c-0.2295,0.1699-0.5693,0.3569-0.9858,0.5015
		C31.1538,3.8833,31.4429,4.2998,31.6724,4.6826z M30.0742,1.9712c0,0.2803,0.2212,0.6885,0.4082,0.9775
		c0.3486-0.1274,0.5522-0.2466,0.6372-0.3232c0.1362-0.1187,0.1362-0.2295,0.0088-0.3481
		c-0.1191-0.1108-0.5527-0.3569-0.7651-0.4678C30.1592,1.7075,30.0742,1.7759,30.0742,1.9712z"/>
	<path fill="#B4B4B5" d="M35.3569,6.4756c0.2637-0.2295,0.6973-0.6372,1.1221-1.0112c0.2212-0.1953,0.4419-0.0596,0.2466,0.2041
		c-0.3486,0.4756-0.8501,1.1133-1.105,1.4619C35.4507,7.3599,35.2637,7.4448,35,7.4448c-0.2891,0-0.5693-0.1445-0.5693-0.4082
		c0-0.2466,0.1699-0.2803,0.3398-0.3062C34.9746,6.6968,35.1787,6.6289,35.3569,6.4756z M39.4365,3.0762
		c0,0.2295-0.1104,0.3481-0.4673,0.4673c-0.5439,0.187-1.1558,0.5952-1.1558,1.0537c0,0.4849,1.0029,0.9268,1.5894,1.5132
		c0.272,0.272,0.3398,0.459,0.3398,0.731c0,0.4844-0.5781,0.6885-1.1221,0.6885c-0.5776,0-1.334-0.1021-1.8101-0.459
		c-0.1699-0.1274-0.1191-0.2891,0.085-0.2466c0.3145,0.0679,0.731,0.187,1.207,0.187c0.5352,0,0.8413-0.1953,0.8413-0.4082
		c0-0.4756-1.5469-1.1387-1.5469-1.9546c0-0.6885,0.7222-1.105,1.0791-1.5215c0.1533-0.1782,0.1533-0.3398,0.0513-0.4844
		c-0.1699-0.2549-0.4419-0.4761-0.7905-0.7056c-0.272-0.1782-0.1616-0.3652,0.1528-0.2891
		C38.6631,1.835,39.4365,2.4302,39.4365,3.0762z M42.1562,6.3145c0,0.2207-0.1104,0.4077-0.3569,0.4077
		c-0.2461,0-0.3315-0.1616-0.4502-0.4761c-0.1616-0.4331-0.4336-0.8242-0.8755-1.2324c-0.1953-0.1782-0.1104-0.3481,0.2124-0.2461
		C41.3491,4.98,42.1562,5.6343,42.1562,6.3145z"/>
	<path fill="#B4B4B5" d="M48.3062,2.8804c1.2324,0,1.98,0.8247,1.98,1.8022c0,0.9517-0.7305,1.9463-2.4219,1.98
		c-0.4082,0.6802-1.0625,1.207-2.0654,1.5215c-0.2974,0.0933-0.3652-0.1953-0.1021-0.3145
		c0.6543-0.2974,1.1816-0.6968,1.5469-1.2578c-0.8584-0.1699-1.2832-0.7905-1.3345-1.9888
		c-0.2891,0.3652-0.5098,0.7393-0.6714,1.0454c-0.3315,0.6372-0.3823,0.9688-0.7222,0.9688c-0.3994,0-0.8843-0.5947-0.8843-1.4619
		c0-0.6885,0.3403-1.3257,0.3403-1.9546c0-0.374-0.2129-0.6631-0.3828-0.9604c-0.1016-0.187,0.0259-0.3062,0.2212-0.1958
		c0.4927,0.2808,0.8413,0.7144,0.8413,1.2412c0,0.5439-0.5522,1.0791-0.5522,1.7676c0,0.3911,0.187,0.6377,0.3398,0.6377
		c0.1616,0,0.4761-0.5015,0.8413-0.9858c0.1958-0.2554,0.3994-0.5103,0.6377-0.7397c0.0933-1.1641,0.5864-2.4731,1.2915-2.4731
		c0.5186,0,0.8755,0.5439,1.0542,1.3682H48.3062z M47.541,6.0425c0.1787-0.4678,0.2808-1.0288,0.2808-1.6831
		c0-0.3652-0.0171-0.7222-0.0425-1.0454c-0.5273,0.1104-0.9858,0.3994-1.3687,0.7563C46.4277,5.2856,46.5806,5.9316,47.541,6.0425z
		 M46.436,3.5435c0.3828-0.2891,0.8159-0.5015,1.292-0.6035c-0.0933-0.6201-0.2632-1.0454-0.5352-1.0454
		C46.8525,1.8945,46.5215,2.8042,46.436,3.5435z M49.6743,4.623c0-0.7651-0.5015-1.3174-1.3428-1.3599
		c0.0513,0.3228,0.0767,0.6714,0.0767,1.0366c0,0.6377-0.0767,1.2241-0.2549,1.751C49.1558,5.957,49.6743,5.4131,49.6743,4.623z"/>
	<path fill="#B4B4B5" d="M58.3823,4.9629c0,1.6318-1.3091,2.4731-3.0596,2.4731c-0.2974,0-0.3145-0.2632-0.0513-0.3145
		c1.4707-0.2891,2.4224-0.9092,2.4224-2.3032c0-0.9092-0.459-1.666-1.3174-2.0229c-0.0254,0.3232-0.1104,0.6973-0.2378,1.0454
		c-0.4932,1.3599-1.9126,3.0513-2.9321,3.0513c-0.4507,0-0.8926-0.6201-0.9692-1.623c-0.085-1.0713,0.3315-1.8613,0.8926-2.3628
		c0.5015-0.4419,1.2749-0.7568,2.082-0.7568C57.2437,2.1494,58.3823,3.4331,58.3823,4.9629z M55.9004,2.6426
		c-0.2207-0.0425-0.459-0.0679-0.7139-0.0679c-0.731,0-1.3086,0.2378-1.7251,0.6289c-0.4507,0.4248-0.7227,1.0283-0.6714,1.8696
		c0.0425,0.6548,0.272,1.0542,0.5181,1.0542c0.8159,0,2.04-1.6577,2.4395-2.7964C55.8325,3.1016,55.8838,2.855,55.9004,2.6426z"/>
	<path fill="#B4B4B5" d="M6.7554,57.2271c0,1.0029-0.8071,1.8018-2.1841,1.8018c-0.7056,0-1.4873-0.4077-1.4873-1.3086
		c0-0.2124,0.0166-0.4507,0.0425-0.7056c-0.6885-0.1953-1.5044-0.5781-1.5044-1.1221c0-0.3994,0.561-0.8667,0.748-1.1304
		c0.144-0.2036,0.1357-0.3145,0-0.5439c-0.1108-0.1865-0.2891-0.3481-0.561-0.6201c-0.1108-0.1104-0.0342-0.2637,0.1528-0.2124
		c0.5522,0.1528,1.0708,0.5605,1.2153,1.0195c0.085,0.272,0.0171,0.4507-0.2974,0.6377c-0.3315,0.1953-0.8672,0.5352-0.8672,0.7734
		c0,0.2632,0.5952,0.4761,1.1987,0.5947c0.1021-0.646,0.2378-1.2832,0.3228-1.6914c0.0938-0.4673,0.2295-1.1558,0.2295-1.5044
		c0-0.2461-0.1357-0.3652-0.4165-0.5522c-0.1611-0.1104-0.3398-0.2041-0.3398-0.3062c0-0.085,0.1616-0.1782,0.3569-0.1782
		c0.4507,0,1.1133,0.3994,1.1133,0.9092c0,0.272-0.2461,1.0542-0.3994,1.7085c-0.0933,0.3911-0.2466,1.0537-0.3652,1.6826
		c0.8667,0.0938,1.0195,0.1704,1.0195,0.3486c0,0.1528-0.085,0.3315-0.5776,0.3315c-0.1528,0-0.3398-0.0083-0.5439-0.0342
		c-0.0254,0.1958-0.0425,0.374-0.0425,0.5273c0,0.6626,0.459,0.8413,0.9775,0.8413c1.1387,0,1.5464-0.6714,1.5464-1.377
		c0-0.9351-0.9771-1.5298-1.4614-1.8442c-0.2212-0.1445-0.1362-0.3569,0.1187-0.2808C5.71,55.2808,6.7554,56.1055,6.7554,57.2271z"
		/>
	<path fill="#B4B4B5" d="M15.2593,57.2271c0,1.0029-0.8071,1.8018-2.1841,1.8018c-0.7056,0-1.4873-0.4077-1.4873-1.3086
		c0-0.2124,0.0166-0.4507,0.0425-0.7056c-0.6885-0.1953-1.5044-0.5781-1.5044-1.1221c0-0.3994,0.561-0.8667,0.748-1.1304
		c0.144-0.2036,0.1357-0.3145,0-0.5439c-0.1108-0.1865-0.2891-0.3481-0.561-0.6201c-0.1108-0.1104-0.0342-0.2637,0.1528-0.2124
		c0.5522,0.1528,1.0708,0.5605,1.2153,1.0195c0.085,0.272,0.0171,0.4507-0.2974,0.6377c-0.3315,0.1953-0.8672,0.5352-0.8672,0.7734
		c0,0.2632,0.5952,0.4761,1.1987,0.5947c0.1021-0.646,0.2378-1.2832,0.3228-1.6914c0.0938-0.4673,0.2295-1.1558,0.2295-1.5044
		c0-0.2461-0.1357-0.3652-0.4165-0.5522c-0.1611-0.1104-0.3398-0.2041-0.3398-0.3062c0-0.085,0.1616-0.1782,0.3569-0.1782
		c0.4507,0,1.1133,0.3994,1.1133,0.9092c0,0.272-0.2461,1.0542-0.3994,1.7085c-0.0933,0.3911-0.2466,1.0537-0.3652,1.6826
		c0.8667,0.0938,1.0195,0.1704,1.0195,0.3486c0,0.1528-0.085,0.3315-0.5776,0.3315c-0.1528,0-0.3398-0.0083-0.5439-0.0342
		c-0.0254,0.1958-0.0425,0.374-0.0425,0.5273c0,0.6626,0.459,0.8413,0.9775,0.8413c1.1387,0,1.5464-0.6714,1.5464-1.377
		c0-0.9351-0.9771-1.5298-1.4614-1.8442c-0.2212-0.1445-0.1362-0.3569,0.1187-0.2808
		C14.2139,55.2808,15.2593,56.1055,15.2593,57.2271z"/>
	<path fill="#B4B4B5" d="M22.2417,52.6548c0.1362,0.2378,0.1445,0.3652-0.1953,0.6885c-0.5522,0.5269-1.4106,1.3257-1.8018,1.7422
		c-0.1953,0.2124-0.3062,0.3486-0.3062,0.5352c0,0.1279,0.1108,0.2979,0.4761,0.5698c0.4932,0.3652,1.0962,0.8325,1.4873,1.1982
		c0.4932,0.459,0.6968,0.8584,0.6968,1.2324c0,0.2803-0.1782,0.3994-0.3569,0.3994c-0.1187,0-0.2295-0.0767-0.3823-0.3657
		c-0.1782-0.3398-0.3315-0.5605-0.6035-0.8921c-0.2974-0.3569-0.9941-0.9946-1.3511-1.3091
		c-0.2637-0.2295-0.4419-0.4673-0.4419-0.7393c0-0.2974,0.1699-0.5693,0.4673-0.9263c0.3486-0.4253,1.0112-1.1899,1.3516-1.6318
		c0.1699-0.2212,0.2207-0.4082,0.1699-0.6035c-0.0425-0.1616-0.0938-0.2549-0.1108-0.3398
		c-0.0254-0.1279,0.0425-0.2041,0.2129-0.1445C21.834,52.1616,22.106,52.4082,22.2417,52.6548z"/>
	<path fill="#B4B4B5" d="M31.6724,55.7061c0.2036,0.3481,0.3145,0.6543,0.3145,0.9263c0,0.3652-0.2124,0.5186-0.4336,0.5186
		c-0.1616,0-0.374-0.1191-0.5356-0.2041c-0.3481-0.187-0.8667-0.4419-1.6484-0.4419c-0.7227,0-1.3433,0.4844-1.3433,0.9517
		c0,0.374,0.2979,0.5439,0.7905,0.6035c0.6035,0.0767,1.1392-0.0171,1.5469-0.0171c0.3232,0,0.5269,0.0342,0.5269,0.1958
		c0,0.1953-0.2632,0.5269-1.3765,0.5269c-0.9268,0-2.0742-0.2808-2.0742-1.1816c0-0.7563,0.9009-1.436,1.9976-1.436
		c0.7905,0,1.3003,0.1357,1.6147,0.1782c0.1787,0.0254,0.2124-0.0337,0.2124-0.1187c0-0.3149-0.4673-1.0029-0.9517-1.6577
		c-0.4507,0.1191-0.9692,0.1958-1.5386,0.1958c-0.9351,0-1.564-0.6035-1.7339-1.2749c-0.0425-0.1699,0.0938-0.2383,0.2124-0.1533
		c0.3911,0.2808,0.918,0.8755,1.8188,0.8755c0.3486,0,0.6548-0.0337,0.918-0.085c-0.3315-0.4927-0.4756-0.8584-0.4756-1.2324
		c0-0.2378,0.1274-0.5439,0.4927-0.5439c0.2549,0,0.4761,0.1616,0.748,0.3145c0.2891,0.1616,0.6372,0.3232,0.9688,0.4419
		c0.2549,0.0938,0.3823,0.1787,0.3823,0.3657c0,0.1528-0.1357,0.3057-0.3228,0.4419c-0.2295,0.1699-0.5693,0.3569-0.9858,0.5015
		C31.1538,54.9067,31.4429,55.3232,31.6724,55.7061z M30.0742,52.9946c0,0.2803,0.2212,0.6885,0.4082,0.9775
		c0.3486-0.1274,0.5522-0.2466,0.6372-0.3232c0.1362-0.1187,0.1362-0.2295,0.0088-0.3481
		c-0.1191-0.1108-0.5527-0.3569-0.7651-0.4678C30.1592,52.731,30.0742,52.7993,30.0742,52.9946z"/>
	<path fill="#B4B4B5" d="M35.4844,54.4565c0.2295,0.0254,0.4849-0.0342,0.8159-0.1616c0.5273-0.2041,1.4961-0.5864,2.397-0.918
		c0.646-0.2378,1.3345-0.4077,1.938-0.4077c0.3315,0,0.731,0.1445,0.731,0.3906c0,0.187-0.1108,0.3062-0.4082,0.3062
		c-0.3486,0-0.7056-0.0767-1.0879,0.0679c-0.8667,0.3232-1.5469,1.564-1.5469,2.6519c0,1.292,0.918,1.5723,2.04,1.4365
		c0.3569-0.0425,0.5352,0.0679,0.5269,0.272c-0.0088,0.2974-0.2974,0.4077-0.7139,0.4419
		c-1.4365,0.1187-2.4053-0.6035-2.4053-1.9634c0-1.0029,0.4248-1.7935,1.0708-2.584c0.1528-0.1865,0.0767-0.2295-0.1104-0.1782
		c-0.6377,0.1699-1.5132,0.6714-2.1504,1.0112c-0.2549,0.1362-0.6377,0.3828-0.9263,0.374
		c-0.5273-0.0171-0.9946-0.4248-0.9946-0.9092c0-0.1191,0.0767-0.1699,0.1953-0.1021
		C34.9746,54.2524,35.2637,54.4312,35.4844,54.4565z"/>
	<path fill="#B4B4B5" d="M50.4307,57.8901c-0.3735,0.4336-1.147,0.8413-2.167,0.8413c-0.7139,0-1.4023-0.1699-1.4023-0.8838
		c0-0.8501,0.6797-1.6064,0.6797-2.2949c0-0.2549-0.1782-0.3228-0.4673-0.3228c-0.5439,0-1.1816,0.4927-1.5552,0.9688
		c-0.2041,0.2637-0.3994,0.5356-0.561,0.9946c-0.2124,0.6118-0.2808,0.9858-0.3398,1.2236
		c-0.0425,0.1616-0.1787,0.2891-0.3828,0.2891c-0.2124,0-0.3481-0.1528-0.3481-0.3994c0-0.5439,0.7817-2.0059,1.1558-2.7026
		c0.6289-1.1646,1.2324-2.2524,1.2324-2.5498c0-0.1191-0.2212-0.2383-0.3657-0.3486c-0.1953-0.1528-0.1187-0.2974,0.1533-0.2974
		c0.3823,0,0.8496,0.085,1.0708,0.2974c0.1616,0.1528,0.1782,0.2466-0.0679,0.5269c-0.4761,0.5527-1.1733,1.666-1.479,2.3032
		c0.4927-0.3735,1.0537-0.7476,1.6997-0.7476c0.6289,0,0.8755,0.374,0.8755,0.8071c0,0.5781-0.6377,1.3003-0.6377,2.0825
		c0,0.2124,0.1445,0.4927,0.8926,0.4927c0.6206,0,1.2666-0.2207,1.8188-0.5181C50.4731,57.5244,50.584,57.7114,50.4307,57.8901z"/>
	<path fill="#B4B4B5" d="M5.8799,108.5049c-0.1445,0.8164-0.6968,1.0801-1.3428,1.0801c-0.561,0-1.0625-0.3652-1.0625-0.876
		c0-0.6543,0.6123-1.0537,1.4365-1.0537c0.2124,0,0.4248,0.0176,0.6118,0.0508c0.0254-0.2295,0.0254-0.4248,0.0254-0.6035
		c0-0.4668-0.0425-1.0195-0.1016-1.5127c-1.4194,0.2129-2.5923,0.8584-3.1621,1.8613c-0.1528,0.2725-0.272,0.5615-0.272,0.918
		c0,0.5869,0.2466,1.0029,0.2466,1.2754c0,0.2549-0.1274,0.3398-0.2891,0.3398c-0.2295-0.0088-0.3735-0.1699-0.4927-0.459
		c-0.1191-0.2979-0.187-0.6123-0.187-1.3262c0-1.1729,0.5015-2.7197,0.5781-3.1104c0.0762-0.3916,0.085-0.6211-0.0596-0.9355
		c-0.1021-0.2295-0.2212-0.4072-0.272-0.5176c-0.0767-0.1533,0.0337-0.2295,0.1782-0.1787
		c0.3486,0.1191,0.6973,0.4336,0.8076,0.7227c0.0933,0.2461,0.1191,0.3994,0.0171,0.7646c-0.1445,0.5264-0.5864,1.334-0.6714,2.0479
		c-0.0259,0.2217,0.0166,0.2725,0.2378,0c0.748-0.9258,1.6147-1.5723,3.2637-1.9375c-0.0171-0.1611-0.0425-0.2979-0.0679-0.4082
		c-0.0513-0.2549-0.1616-0.3398-0.2891-0.4248c-0.2212-0.127-0.3315-0.1953-0.3315-0.2979
		c-0.0083-0.127,0.2891-0.2295,0.4761-0.2373c0.1699,0,0.2974,0.0166,0.4331,0.0674c0.1533,0.0596,0.1958,0.1445,0.2041,0.2471
		c0.0088,0.1357,0.0171,0.3311,0.0342,0.5264c0.085,0.332,0.5186,0.3145,0.7563,0.3145c0.3398,0,0.646,0.0938,0.646,0.3232
		c0,0.1875-0.1191,0.2891-0.4844,0.3057c-0.2808,0.0088-0.561,0.0264-0.8413,0.0596c0.0337,0.4766,0.0679,1.0371,0.0679,1.377
		c0,0.3145,0,0.6035-0.0171,0.9014c0.5947,0.1787,1.0625,0.4932,1.377,0.7812c0.2295,0.2217,0.3823,0.4766,0.3823,0.7402
		c0,0.1611-0.085,0.2803-0.2549,0.2803c-0.1953,0-0.4165-0.2725-0.6885-0.5615c-0.2378-0.2461-0.5356-0.4922-0.8755-0.6709
		L5.8799,108.5049z M5.4551,108.1826c-0.2295-0.0771-0.4761-0.1191-0.7393-0.1191c-0.4336,0-0.7993,0.2119-0.7993,0.5098
		s0.2383,0.4248,0.6123,0.4248c0.5181,0,0.7988-0.2461,0.9263-0.8076V108.1826z"/>
	<path fill="#B4B4B5" d="M13.7378,103.6777c0.1362,0.2383,0.1445,0.3652-0.1953,0.6885c-0.5522,0.5273-1.4106,1.3262-1.8018,1.7422
		c-0.1953,0.2129-0.3062,0.3486-0.3062,0.5352c0,0.1279,0.1108,0.2979,0.4761,0.5703c0.4932,0.3652,1.0962,0.832,1.4873,1.1982
		c0.4932,0.459,0.6968,0.8584,0.6968,1.2324c0,0.2803-0.1782,0.3994-0.3569,0.3994c-0.1187,0-0.2295-0.0771-0.3823-0.3662
		c-0.1782-0.3398-0.3315-0.5605-0.6035-0.8916c-0.2974-0.3574-0.9941-0.9951-1.3511-1.3096
		c-0.2637-0.2295-0.4419-0.4668-0.4419-0.7393c0-0.2969,0.1699-0.5693,0.4673-0.9258c0.3486-0.4258,1.0112-1.1904,1.3516-1.6318
		c0.1699-0.2217,0.2207-0.4082,0.1699-0.6035c-0.0425-0.1621-0.0938-0.2549-0.1108-0.3398
		c-0.0254-0.1279,0.0425-0.2041,0.2129-0.1445C13.3301,103.1846,13.6021,103.4316,13.7378,103.6777z"/>
</g>
<g>
	<path fill="#231815" d="M32.3345,19.77c0.5923-0.8887,1.4004-1.939,1.8311-1.939c0.5659,0,2.6128,1.6694,2.6128,2.3696
		c0,0.3774-0.4849,0.6465-1.5625,0.6465h-8.8872c0.3232,0.1885,0.5117,0.4038,0.5117,0.6465c0,0.4849-0.8081,0.6465-1.4272,0.6733
		c-0.3501,1.1577-0.9697,2.5586-1.5894,3.7432h6.356c0.4312-0.5923,1.0234-1.2925,1.3735-1.2925
		c0.5654,0,2.2622,1.2656,2.2622,1.8853c0,0.4307-0.5654,0.6733-1.1309,0.8887c-0.1079,3.0972,0.0806,11.7422,0.0806,13.3042
		c0,0.835-0.4849,1.0234-1.2119,1.0234c-0.6465,0-0.835-0.4849-0.835-0.9155v-1.4272h-11.311v1.6157
		c0,0.5923-0.458,0.8887-1.3198,0.8887c-0.5117,0-0.7808-0.269-0.7808-0.7539c0-2.5854,0.269-12.6313-0.1079-15.8896
		c-0.0269-0.189,0.1616-0.3774,0.377-0.3774c0.4038,0.0269,1.9121,0.5386,2.6123,1.0503h2.1279
		c0.5117-1.6694,0.9424-3.6357,1.0771-5.063h-9.9111c-0.3501,0-0.5923-0.1079-0.5923-0.5386c0-0.4038,0.2422-0.5386,0.5923-0.5386
		H32.3345z M19.811,26.9878c-0.1079,0.0269-0.2153,0.0537-0.3501,0.0806c-0.0537,0.9155-0.0806,3.2319-0.0806,4.8208h11.4189
		c0-2.0469,0-3.9053,0-4.9014H19.811z M30.7451,38.2988l0.0273-5.3325H19.3804v0.3501l0.0269,4.9824H30.7451z"/>
	<path fill="#231815" d="M60.0444,20.3086c0.5386-0.8081,1.2388-1.7236,1.6431-1.7236c0.5386,0,2.4238,1.562,2.4238,2.2085
		c0,0.377-0.4043,0.5923-1.4546,0.5923h-6.7329v1.9663c0,0.5654-0.4307,0.8076-1.1851,0.8076c-0.4575,0-0.7539-0.269-0.7539-0.7271
		c0-0.4307,0.0269-1.1582,0.0269-2.0469h-4.4438v2.0469c0,0.5654-0.4307,0.7812-1.1846,0.7812c-0.458,0-0.7275-0.2427-0.7275-0.7002
		c0-0.4312,0.0273-1.2119,0.0273-2.1279h-7.5679c-0.3501,0-0.5928-0.1074-0.5928-0.5386c0-0.4038,0.2427-0.5386,0.5928-0.5386
		h7.5405c0-0.8081-0.0806-1.6968-0.1343-2.3164c-0.0542-0.269,0.1343-0.377,0.377-0.377c1.0771,0,3.0161,0.0811,3.0161,0.7812
		c0,0.458-0.4307,0.8081-1.3467,0.9155v0.9966h4.4438c-0.0269-0.7812-0.1074-1.6699-0.1616-2.3164
		c-0.0537-0.269,0.1348-0.377,0.3774-0.377c1.0771,0,3.043,0.0811,3.043,0.7812c0,0.458-0.4307,0.8081-1.3467,0.9155v0.9966H60.0444
		z M59.6675,36.9253c0.5654-0.8076,1.293-1.7773,1.6968-1.7773c0.5386,0,2.4775,1.5889,2.4775,2.2354
		c0,0.377-0.4307,0.6196-1.481,0.6196h-9.6685c0.0269,1.3462,0.0537,2.3696,0.0537,2.9082c0,0.5659-0.377,0.9697-1.2656,0.9697
		c-0.5391,0-0.7275-0.2964-0.7275-0.8081c0-0.6191,0.0542-1.6694,0.0811-3.0698H40.1152c-0.3501,0-0.5928-0.1079-0.5928-0.5391
		c0-0.4038,0.2427-0.5386,0.5928-0.5386H50.834v-0.3501v-2.8545h-4.6592v0.835c0,0.5923-0.4043,0.8618-1.2388,0.8618
		c-0.4849,0-0.7544-0.2695-0.7544-0.7544c0.0269-1.9658,0.1885-7.918-0.0806-10.5303c-0.0269-0.2153,0.1616-0.377,0.377-0.3501
		c0.5117,0.0537,2.0469,0.6196,2.5854,1.1582h9.5879c0.4307-0.5386,0.9692-1.1582,1.2656-1.1582
		c0.5654,0,2.2085,1.1851,2.2085,1.7773c0,0.3501-0.458,0.5928-0.9429,0.7812c-0.0806,2.1274,0.0269,6.5981,0.0269,7.6484
		c0,0.835-0.4575,1.0503-1.2119,1.0503c-0.646,0-0.8618-0.4844-0.8618-0.9155v-0.4038h-3.8779v0.0269
		c0,0.2153-0.2153,0.3501-0.5654,0.458v2.3696v0.3501H59.6675z M46.2285,26.0181c-0.0269,0.6196-0.0537,1.8315-0.0537,2.7471
		h11.0151c0-1.0771,0-2.1006,0-2.7471H46.2285z M46.1748,32.6436h10.9609l0.0273-2.8013H46.1748V32.6436z"/>
	<path fill="#231815" d="M82.6108,21.1436c0.4849-0.6196,1.1851-1.4277,1.5083-1.4277c0.4844,0,2.2622,1.7236,2.2622,2.3433
		c0,0.3232-0.7271,0.6196-1.3198,0.7539c-1.2119,2.1548-2.7202,4.1206-4.6592,5.8984c2.7471,1.939,6.1943,3.124,10.207,3.4741
		c0.8618,0.0806,0.8081,0.7002,0.1348,0.9155c-0.6465,0.2695-0.9424,0.458-1.1582,0.7812c-0.377,0.4849-0.5654,0.7002-1.3735,0.5654
		c-3.501-0.6196-6.6787-2.1816-9.2373-4.5513c-2.9624,2.3159-6.814,4.228-11.9307,5.6553
		c-0.7544,0.2427-1.1313-0.6733-0.3501-0.9424c4.9551-1.8315,8.4565-3.8511,10.9878-6.0327
		c-1.2656-1.4546-2.3428-3.124-3.1509-5.0361c-1.6968,2.5312-3.959,5.1167-6.8408,7.0562
		c-0.6733,0.4307-1.1846-0.1616-0.6191-0.7544c3.8511-3.6626,6.7061-7.8101,8.0254-12.1191
		c0.0542-0.3232,0.2158-0.377,0.5117-0.3501c0.9697,0.1348,2.7471,0.8081,2.7739,1.3467c0.0273,0.4575-0.5654,0.6191-1.3462,0.5654
		c-0.2964,0.5923-0.6196,1.2119-0.9966,1.8584H82.6108z M83.311,41.6924c-0.4849,0.4038-1.1582,0.1885-1.7505-0.1616
		c-2.5317-1.4814-4.2554-2.3433-7.1099-3.2319c-0.8081-0.2422-0.6733-1.1577,0.1616-1.104c3.501,0.269,6.625,0.9424,8.3755,2.2891
		C83.8228,40.1304,83.9033,41.2075,83.311,41.6924z M75.2314,22.4902c0.9155,1.939,2.1548,3.6089,3.6626,5.0093
		c1.6699-1.6699,2.8818-3.4473,3.8247-5.2788h-7.3257L75.2314,22.4902z M76.8203,33.4243c-0.4844-0.377-0.377-0.9424,0.3774-0.9424
		c1.6963,0,4.0127,0.8076,4.4976,2.2891c0.269,0.7539-0.0273,1.4272-0.7812,1.6699c-0.7808,0.269-1.3467-0.4043-2.1543-1.2661
		C78.1133,34.5015,77.4399,33.9092,76.8203,33.4243z"/>
	<path fill="#231815" d="M32.3345,69.376c0.5923-0.8887,1.4004-1.9385,1.8311-1.9385c0.5659,0,2.6128,1.6689,2.6128,2.3691
		c0,0.3779-0.4849,0.6465-1.5625,0.6465h-8.8872c0.3232,0.1885,0.5117,0.4043,0.5117,0.6465c0,0.4854-0.8081,0.6465-1.4272,0.6738
		c-0.3501,1.1572-0.9697,2.5586-1.5894,3.7432h6.356c0.4312-0.5928,1.0234-1.293,1.3735-1.293c0.5654,0,2.2622,1.2656,2.2622,1.8857
		c0,0.4307-0.5654,0.6729-1.1309,0.8887c-0.1079,3.0967,0.0806,11.7422,0.0806,13.3037c0,0.835-0.4849,1.0234-1.2119,1.0234
		c-0.6465,0-0.835-0.4844-0.835-0.915v-1.4277h-11.311v1.6162c0,0.5918-0.458,0.8887-1.3198,0.8887
		c-0.5117,0-0.7808-0.2695-0.7808-0.7539c0-2.5859,0.269-12.6318-0.1079-15.8896c-0.0269-0.1895,0.1616-0.3779,0.377-0.3779
		c0.4038,0.0273,1.9121,0.5391,2.6123,1.0508h2.1279c0.5117-1.6699,0.9424-3.6357,1.0771-5.0635h-9.9111
		c-0.3501,0-0.5923-0.1074-0.5923-0.5381c0-0.4043,0.2422-0.5391,0.5923-0.5391H32.3345z M19.811,76.5938
		c-0.1079,0.0273-0.2153,0.0537-0.3501,0.0811c-0.0537,0.915-0.0806,3.2314-0.0806,4.8203h11.4189c0-2.0469,0-3.9053,0-4.9014
		H19.811z M30.7451,87.9053l0.0273-5.333H19.3804v0.3506l0.0269,4.9824H30.7451z"/>
	<path fill="#231815" d="M45.4746,79.9062c0,6.1406,0.1074,9.5342,0.1074,10.6113c0,0.5654-0.4307,0.9697-1.2388,0.9697
		c-0.5117,0-0.7271-0.2969-0.7271-0.8086c0-1.1035,0.1079-4.1475,0.1348-9.6953c-0.9697,1.7236-2.1006,3.3125-3.9053,4.7139
		c-0.7539,0.5918-1.2119-0.0273-0.7002-0.6738c2.3159-2.9629,3.7168-5.7637,4.3359-8.6182h-3.4741
		c-0.3501,0-0.5923-0.1074-0.5923-0.5391c0-0.4033,0.2422-0.5381,0.5923-0.5381h3.7437v-4.875
		c-1.3198,0.2969-2.6665,0.5391-3.7974,0.6465c-0.7544,0.0537-0.9697-0.7539-0.1348-0.9424
		c3.0972-0.7275,5.2788-1.5889,7.0562-2.6123c0.6191-0.3506,0.7539-0.377,1.3193,0.0537c0.4043,0.3232,0.916,0.8623,1.1582,1.2393
		c0.3501,0.5654-0.2153,0.8887-1.1851,0.4307c-0.5386,0.1885-1.2925,0.4307-2.1812,0.6465
		c0.1074,0.0801,0.1616,0.1611,0.1616,0.2695c0,0.2422-0.2427,0.4033-0.6733,0.5381v4.6055H46.04
		c0.5117-0.7539,1.104-1.5625,1.4272-1.5625c0.4849,0,1.9395,1.5088,1.9663,2.0742c0,0.4043-0.5386,0.5654-1.1045,0.5654h-2.8545
		V79.9062z M46.8481,80.957c-0.2158-0.5391-0.4849-1.1045-0.7544-1.6162c-0.269-0.4844,0.0269-0.916,0.6196-0.6465
		c1.2656,0.6191,2.4507,1.6426,2.3433,2.7471c-0.0542,0.6191-0.4849,1.0234-1.1045,0.9697
		C47.333,82.3301,47.144,81.7646,46.8481,80.957z M60.583,89.252c0.5117-0.7539,1.1045-1.5625,1.4814-1.5625
		c0.4849,0,2.1543,1.4814,2.1543,2.0742c0,0.377-0.4307,0.5654-1.2656,0.5654H47.9253c-0.3501,0-0.5923-0.1074-0.5923-0.5391
		c0-0.4033,0.2422-0.5381,0.5923-0.5381h7.2178v-2.4238h-5.7905c-0.3501,0-0.5923-0.1084-0.5923-0.5391
		c0-0.4033,0.2422-0.5381,0.5923-0.5381h5.7905v-2.6396h-3.4204v0.3506c0,0.5654-0.377,0.834-1.104,0.834
		c-0.458,0-0.6733-0.2686-0.6733-0.7539c0-1.7773,0.1616-6.3828-0.1079-8.7793c-0.0269-0.2158,0.1616-0.377,0.377-0.3232
		c0.5117,0.0537,1.6431,0.5117,2.1548,0.9697h2.8008v-2.1006h-6.8408c-0.3501,0-0.5923-0.1084-0.5923-0.5391
		c0-0.4043,0.2422-0.5391,0.5923-0.5391h6.8408v-1.9658c-1.8047,0.1621-3.6626,0.2695-5.4673,0.2695
		c-0.7808,0.0273-0.8887-0.835-0.0537-0.9424c4.0127-0.458,7.8911-1.0234,10.584-2.1006c0.6465-0.2695,0.7275-0.3232,1.293,0.1074
		c0.4575,0.4043,0.9155,0.916,1.1582,1.3467c0.2959,0.5654-0.2158,0.916-1.1582,0.4307c-1.1851,0.2422-2.6392,0.4854-4.2017,0.6738
		c0.0811,0.0537,0.1348,0.1348,0.1348,0.2148c0,0.2695-0.1885,0.458-0.5386,0.5654v1.4004h3.3667
		c0.5386-0.7803,1.1851-1.6689,1.5889-1.6689c0.5117,0,2.2622,1.5615,2.2622,2.1543c0,0.377-0.458,0.5928-1.3198,0.5928h-5.8979
		v2.1006h3.0703c0.377-0.5117,0.835-1.0508,1.104-1.0508c0.5117,0,1.9663,1.1309,1.9663,1.6699c0,0.3232-0.4043,0.5654-0.835,0.7275
		c-0.0269,1.5889,0.0269,5.4668,0.0269,6.3018s-0.4038,1.0234-1.0771,1.0234c-0.6196,0-0.7812-0.4854-0.7812-0.916v-0.0537h-3.4741
		v2.6396h2.8281c0.4575-0.7002,1.0503-1.4551,1.4004-1.4551c0.4575,0,2.0737,1.4277,2.0737,1.9932
		c0.0269,0.377-0.4043,0.5391-1.2119,0.5391h-5.0903v2.4238H60.583z M55.1699,76.4863h-3.4204
		c-0.0269,0.4844-0.0269,1.4004-0.0537,2.1543h3.4741V76.4863z M55.1431,82.0342l0.0269-2.3164h-3.4741l0.0269,2.3164H55.1431z
		 M56.9204,76.4863v2.1543h3.5283c0-0.835,0-1.6162,0-2.1543H56.9204z M60.3945,82.0342l0.0269-2.3164h-3.501v2.3164H60.3945z"/>
	<path fill="#231815" d="M71.7036,74.1426c-0.0269,1.0781-0.0542,2.1553-0.1079,3.3135c-0.1348,4.1475-0.5654,9.4795-4.6055,12.9805
		c-0.646,0.5928-1.3467,0.0811-0.835-0.6465c2.4512-3.4199,3.4204-6.8135,3.4746-13.0889c0.0269-2.4775-0.0273-5.4941-0.2427-8.2402
		c-0.0269-0.4316,0.1616-0.5664,0.5117-0.5117c0.4043,0.0801,1.3735,0.4844,2.02,0.915h13.9238
		c0.377-0.5117,0.8618-1.0498,1.1577-1.0498c0.5391,0,2.1548,1.1846,2.1548,1.7773c0,0.3496-0.458,0.5928-0.9429,0.7812
		c-0.0537,1.3193,0,3.2588,0,3.959c0,0.834-0.4038,1.0234-1.1577,1.0234c-0.6465,0-0.835-0.4854-0.835-0.916v-0.2969H71.7036z
		 M81.5068,83.0039c0.4575,1.2119,1.104,2.2354,1.9658,3.0703c1.2388-0.7549,2.3159-1.6436,3.2856-2.7207
		c0.1348-0.1611,0.3501-0.2959,0.6733-0.0537c0.8618,0.5391,1.7236,1.4004,1.562,1.7773c-0.1348,0.3232-0.4038,0.4043-1.2388,0.1621
		c-0.9429,0.5918-2.0737,1.2383-3.3125,1.6963c1.5347,1.1309,3.5815,1.8584,6.167,2.1543c0.8618,0.0811,0.6733,0.5654,0.1079,0.7812
		c-0.6196,0.2422-0.835,0.458-1.0771,0.7812c-0.3232,0.4307-0.458,0.6191-1.293,0.4043c-4.1475-0.9697-6.8677-3.7168-8.0254-8.0527
		h-2.9087c0.2422,0.0801,0.4038,0.2148,0.4038,0.377c0,0.2959-0.2153,0.4844-0.6733,0.6191v3.8242
		c1.3467-0.2422,2.5049-0.5381,3.5015-0.8076c1.0771-0.2969,1.2925,0.4844,0.2959,0.9697
		c-1.8853,0.8887-4.5244,1.6963-8.1602,2.3701c-0.1348,0.6455-0.3501,1.2119-0.8081,1.2119
		c-0.5654-0.0273-0.9966-1.1582-1.2119-2.6133c0-0.2422,0.1079-0.3223,0.3232-0.3496c1.5352-0.1074,2.9355-0.2695,4.2285-0.458
		V83.084v-0.0801h-3.3936c-0.3501,0-0.5928-0.1084-0.5928-0.5391c0-0.4043,0.2427-0.5381,0.5928-0.5381h4.2822
		c0.0269-0.9697,0.0269-2.0742,0.0269-3.1514h-3.7168c-0.3501,0-0.5923-0.1074-0.5923-0.5391c0-0.4033,0.2422-0.5381,0.5923-0.5381
		h3.6899c0-1.0234-0.0542-1.9395-0.1079-2.5049c-0.0269-0.2422,0.1348-0.377,0.377-0.377c0.458,0,2.6665,0.1074,2.6665,0.7275
		c0,0.4307-0.4312,0.6191-1.1045,0.7803v1.374h4.0132c0-1.0234-0.0542-1.9395-0.1079-2.5049
		c-0.0269-0.2422,0.1348-0.377,0.377-0.377c0.458,0,2.6934,0.1074,2.6934,0.7275c0,0.457-0.4312,0.6455-1.1045,0.8076v1.3467h1.8584
		c0.5117-0.7539,1.1851-1.6162,1.562-1.6162c0.4849,0,2.3164,1.5078,2.3164,2.1279c0,0.3496-0.4043,0.5654-1.4004,0.5654h-4.3364
		v3.1514h2.7471c0.5659-0.8086,1.2393-1.7236,1.6431-1.7236c0.5117,0,2.4238,1.5615,2.4238,2.208
		c0,0.377-0.458,0.5928-1.4541,0.5928H81.5068z M86.2466,73.0654c0-1.0234,0.0269-2.3154,0.0269-3.124H71.9458l-0.269,0.0811
		c0.0269,1.0508,0.0269,2.0469,0.0269,3.043H86.2466z M78.0322,81.9268h4.0132c0.0269-0.9697,0.0269-2.0742,0.0269-3.1514h-4.04
		V81.9268z"/>
	<path fill="#231815" d="M13.7803,134.6562h-0.2158c-0.3501,0-0.5654-0.2148-0.5654-0.5654V117.124
		c0-0.3506,0.2153-0.5654,0.5654-0.5654h7.9448c0.3501,0,0.5659,0.2148,0.5659,0.5654v0.2148c0,0.3506-0.2158,0.5664-0.5659,0.5664
		h-6.7056c-0.3774,0-0.458,0.1074-0.458,0.4844v15.7012C14.3457,134.4414,14.1304,134.6562,13.7803,134.6562z"/>
	<path fill="#231815" d="M43.3486,122.0527c0.4307-0.5928,1.0503-1.3203,1.4004-1.3203c0.6196,0,2.3701,1.293,2.3701,1.9121
		c0,0.4316-0.5659,0.7275-1.1582,0.9434c-0.1885,3.7432,0.0811,14.4893,0.0811,16.3467c0,0.835-0.5117,1.0234-1.293,1.0234
		c-0.6465,0-0.8618-0.4844-0.8618-0.915v-1.6699H29.5059v1.75c0,0.5928-0.4312,0.9434-1.2661,0.9434
		c-0.5386,0-0.7808-0.3232-0.7808-0.8086c0-3.0156,0.2959-15.3242-0.1079-19.0137c-0.0269-0.1885,0.1616-0.377,0.377-0.377
		c0.4312,0.0273,2.1006,0.6191,2.7202,1.1855h3.4741c0.7812-1.6699,1.2388-3.4473,1.5083-5.0635
		c0-0.1885,0.2422-0.3232,0.4849-0.2695c1.4272,0.2695,2.8813,0.7812,2.8813,1.4277c0,0.377-0.646,0.5381-1.2119,0.5918
		c-0.4844,0.9434-1.2925,2.2627-2.0464,3.3135H43.3486z M29.5596,123.1299c-0.0811,1.1846-0.1079,4.2549-0.1079,6.167h14.5161
		c0-2.6396,0-5.0088,0-6.167H29.5596z M43.9141,137.2959l0.0269-6.9219H29.4517v0.377l0.0269,6.5449H43.9141z"/>
	<path fill="#231815" d="M59.5322,123.2373h0.2153c0.3501,0,0.5654,0.2158,0.5654,0.5654v16.9668
		c0,0.3506-0.2153,0.5664-0.5654,0.5664h-7.9448c-0.3501,0-0.5659-0.2158-0.5659-0.5664v-0.2148
		c0-0.3506,0.2158-0.5654,0.5659-0.5654h6.7061c0.377,0,0.4575-0.1084,0.4575-0.4854v-15.7012
		C58.9663,123.4531,59.1816,123.2373,59.5322,123.2373z"/>
</g>
</svg>
