<?xml version="1.0" standalone="no"?>
<!DOCTYPE svg PUBLIC "-//W3C//DTD SVG 20010904//EN"
 "http://www.w3.org/TR/2001/REC-SVG-20010904/DTD/svg10.dtd">
<svg version="1.0" xmlns="http://www.w3.org/2000/svg"
 width="700.000000pt" height="700.000000pt" viewBox="0 0 700.000000 700.000000"
 preserveAspectRatio="xMidYMid meet">
<metadata>
Created by potrace 1.11, written by Peter Selinger 2001-2013
</metadata>
<g transform="translate(0.000000,700.000000) scale(0.100000,-0.100000)"
fill="#000000" stroke="none">
<path d="M4790 6414 c0 -3 -42 -153 -94 -332 -52 -180 -128 -444 -170 -587
-85 -297 -140 -486 -233 -805 -36 -124 -67 -232 -69 -240 -8 -35 -73 -252 -76
-255 -4 -5 -35 66 -244 562 -32 76 -42 92 -56 87 -10 -3 -123 -53 -251 -110
-127 -58 -245 -111 -262 -119 -61 -27 -162 -73 -220 -100 -104 -48 -150 -68
-155 -70 -3 -1 -36 -16 -74 -33 -38 -18 -70 -32 -71 -32 -2 0 -45 -19 -97 -43
-51 -24 -148 -67 -215 -97 -67 -30 -125 -62 -128 -70 -7 -15 -54 -173 -60
-200 -2 -8 -22 -78 -45 -155 -23 -77 -52 -176 -66 -220 -13 -44 -26 -92 -30
-107 -3 -16 -10 -28 -15 -28 -5 0 -55 23 -111 51 l-100 51 -497 -213 c-273
-117 -518 -223 -546 -235 -27 -13 -78 -34 -112 -48 -35 -15 -86 -37 -115 -50
-29 -13 -127 -55 -218 -94 -91 -39 -187 -80 -213 -92 l-48 -21 93 -103 c146
-160 251 -277 271 -300 37 -42 153 -170 172 -190 20 -21 24 -21 865 -20 l844
0 46 -24 c47 -25 140 -75 379 -204 l145 -77 78 282 c43 155 78 288 78 295 0
34 22 2 60 -91 23 -56 51 -120 61 -142 9 -22 36 -85 60 -140 23 -55 50 -118
60 -140 10 -22 45 -105 79 -185 34 -79 65 -149 70 -155 6 -7 56 -40 112 -74
57 -34 110 -66 118 -71 8 -5 78 -48 155 -95 77 -47 147 -89 155 -95 64 -39
211 -129 244 -149 23 -13 86 -52 141 -86 156 -97 546 -336 583 -357 35 -19 52
-17 52 7 0 13 181 698 215 810 8 28 50 185 94 350 72 271 188 702 227 845 8
30 23 87 34 125 10 39 28 105 39 148 12 42 30 112 42 155 11 42 22 84 24 92 5
21 77 284 125 460 45 167 189 703 195 728 8 32 23 87 45 167 12 44 39 145 60
225 l39 145 -44 45 c-49 50 -395 401 -1005 1019 -223 226 -408 411 -412 411
-5 0 -8 -3 -8 -6z"/>
</g>
</svg>
