<?xml version="1.0" encoding="utf-8"?>
<!-- Generator: Adobe Illustrator 22.1.0, SVG Export Plug-In . SVG Version: 6.00 Build 0)  -->
<svg version="1.1" id="レイヤー_1" xmlns="http://www.w3.org/2000/svg" xmlns:xlink="http://www.w3.org/1999/xlink" x="0px"
	 y="0px" viewBox="0 0 200 100" style="enable-background:new 0 0 200 100;" xml:space="preserve">
<style type="text/css">
	.st0{fill:#0B4D58;}
</style>
<path class="st0" d="M117.8,9.1H82.2c-2.8,0-5,2.2-5,5v71.7c0,2.8,2.2,5,5,5h35.6c2.8,0,5-2.2,5-5V14.1
	C122.8,11.4,120.6,9.1,117.8,9.1z M119.3,85.9c0,0.8-0.7,1.5-1.5,1.5H82.2c-0.8,0-1.5-0.7-1.5-1.5V14.1c0-0.8,0.7-1.5,1.5-1.5h35.6
	c0.8,0,1.5,0.7,1.5,1.5V85.9z"/>
<g>
	<path class="st0" d="M110.6,14.8c0,0.6-0.5,1.2-1.2,1.2H90.6c-0.6,0-1.2-0.5-1.2-1.2v-2.4c0-0.6,0.5-1.2,1.2-1.2h18.9
		c0.6,0,1.2,0.5,1.2,1.2L110.6,14.8L110.6,14.8z"/>
</g>
<rect x="79.5" y="25.8" class="st0" width="41.2" height="34.6"/>
<circle class="st0" cx="114" cy="19.6" r="3"/>
<rect x="90.9" y="66.5" class="st0" width="18.2" height="5.5"/>
</svg>
