<?xml version="1.0" encoding="utf-8"?>
<!-- Generator: Adobe Illustrator 22.1.0, SVG Export Plug-In . SVG Version: 6.00 Build 0)  -->
<svg version="1.1" id="レイヤー_1" xmlns="http://www.w3.org/2000/svg" xmlns:xlink="http://www.w3.org/1999/xlink" x="0px"
	 y="0px" viewBox="0 0 200 100" style="enable-background:new 0 0 200 100;" xml:space="preserve">
<style type="text/css">
	.st0{fill:#0B4D58;}
</style>
<path class="st0" d="M134.9,19.3H65.1c-2.8,0-5.2,2.3-5.2,5.2v51c0,2.8,2.3,5.2,5.2,5.2h69.8c2.8,0,5.2-2.3,5.2-5.2v-51
	C140.1,21.7,137.8,19.3,134.9,19.3z M90.7,22.5c2.2,0,4,1.8,4,4s-1.8,4-4,4s-4-1.8-4-4S88.5,22.5,90.7,22.5z M79.2,22.5
	c2.2,0,4,1.8,4,4s-1.8,4-4,4s-4-1.8-4-4S77,22.5,79.2,22.5z M67.6,22.5c2.2,0,4,1.8,4,4s-1.8,4-4,4c-2.2,0-4-1.8-4-4
	S65.4,22.5,67.6,22.5z M136.2,75.3c0,0.8-0.7,1.5-1.5,1.5H65.3c-0.8,0-1.5-0.7-1.5-1.5V35c0-0.8,0.7-1.5,1.5-1.5h69.4
	c0.8,0,1.5,0.7,1.5,1.5V75.3z"/>
<rect x="62.7" y="39" class="st0" width="75.3" height="20.6"/>
<rect x="67.6" y="63.4" class="st0" width="20.8" height="4.4"/>
</svg>
