<?xml version="1.0" encoding="utf-8"?>
<!-- Generator: Adobe Illustrator 22.1.0, SVG Export Plug-In . SVG Version: 6.00 Build 0)  -->
<svg version="1.1" id="レイヤー_1" xmlns="http://www.w3.org/2000/svg" xmlns:xlink="http://www.w3.org/1999/xlink" x="0px"
	 y="0px" viewBox="0 0 200 100" enable-background="new 0 0 200 100" xml:space="preserve">
<path fill="#0B4D58" d="M117.8123,9.1479H82.1877c-2.75,0-5,2.25-5,5v71.7041c0,2.75,2.25,5,5,5h35.6245c2.75,0,5-2.25,5-5V14.1479
	C122.8123,11.3979,120.5623,9.1479,117.8123,9.1479z M119.3125,85.8525c0,0.8135-0.6865,1.5-1.5,1.5H82.188
	c-0.813,0-1.5-0.6865-1.5-1.5V14.1479c0-0.813,0.687-1.5,1.5-1.5h35.6245c0.8135,0,1.5,0.687,1.5,1.5V85.8525z"/>
<g>
	<path fill="#0B4D58" d="M110.5956,14.7716c0,0.6352-0.5197,1.1549-1.1549,1.1549H90.5593c-0.6352,0-1.1549-0.5197-1.1549-1.1549
		V12.372c0-0.6352,0.5197-1.1549,1.1549-1.1549h18.8815c0.6352,0,1.1549,0.5197,1.1549,1.1549V14.7716z"/>
</g>
<rect x="78.612" y="25.8297" fill="#0B4D58" width="42.776" height="21.9674"/>
<circle fill="#0B4D58" cx="114.2591" cy="19.3684" r="2.7864"/>
<rect x="83.7858" y="51.4565" fill="#0B4D58" width="18.2453" height="5.4512"/>
</svg>
