<?xml version="1.0" encoding="utf-8"?>
<!-- Generator: Adobe Illustrator 22.1.0, SVG Export Plug-In . SVG Version: 6.00 Build 0)  -->
<svg version="1.1" id="レイヤー_1" xmlns="http://www.w3.org/2000/svg" xmlns:xlink="http://www.w3.org/1999/xlink" x="0px"
	 y="0px" viewBox="0 0 200 100" enable-background="new 0 0 200 100" xml:space="preserve">
<path fill="#0B4D58" d="M134.9053,19.3435H65.094c-2.8485,0-5.1791,2.3306-5.1791,5.1791v50.9548
	c0,2.8485,2.3306,5.1791,5.1791,5.1791h69.8113c2.8492,0,5.1798-2.3306,5.1798-5.1791V24.5226
	C140.0851,21.6741,137.7545,19.3435,134.9053,19.3435z M106.1276,25.3392c2.9903,0,5.4141,2.4238,5.4141,5.4141
	s-2.4238,5.4141-5.4141,5.4141s-5.4141-2.4238-5.4141-5.4141S103.1373,25.3392,106.1276,25.3392z M90.667,25.3392
	c2.9903,0,5.4141,2.4238,5.4141,5.4141s-2.4238,5.4141-5.4141,5.4141c-2.9903,0-5.4141-2.4238-5.4141-5.4141
	S87.6766,25.3392,90.667,25.3392z M75.207,25.3392c2.9896,0,5.4141,2.4238,5.4141,5.4141s-2.4245,5.4141-5.4141,5.4141
	c-2.9903,0-5.4148-2.4238-5.4148-5.4141S72.2167,25.3392,75.207,25.3392z M131.1737,71.7444H68.7776V41.5192h62.3961V71.7444z"/>
</svg>
