<?xml version="1.0" encoding="utf-8"?>
<!-- Generator: Adobe Illustrator 22.1.0, SVG Export Plug-In . SVG Version: 6.00 Build 0)  -->
<svg version="1.1" id="レイヤー_1" xmlns="http://www.w3.org/2000/svg" xmlns:xlink="http://www.w3.org/1999/xlink" x="0px"
	 y="0px" viewBox="0 0 200 100" enable-background="new 0 0 200 100" xml:space="preserve">
<g>
	<path fill="#0B4D58" d="M69.7614,32.5275H58.4037v32.1731h-7.5541V32.5275H39.4919v-6.9937h30.2695V32.5275z"/>
	<path fill="#0B4D58" d="M97.5113,36.4449L84.9784,67.0509C81.677,75.0527,76.4732,81.71,67.1849,78.2972
		c0.616-2.0138,0.7273-4.7561,0.6717-6.4346c6.9381,1.7911,8.5053-2.8536,10.2395-6.3221l0.4478-0.8399l-12.701-28.2557h8.1132
		l8.2245,20.1982l7.778-20.1982H97.5113z"/>
	<path fill="#0B4D58" d="M128.6739,50.7132c0,8.6166-5.2595,14.5478-14.5478,14.5478c-2.1832,0-4.5322-0.5603-6.2676-1.399v14.4353
		c-2.2377,0-5.4834,0.3921-7.2733,0.9512V36.837c2.2377,0,5.4834-0.3921,7.2733-0.9512v1.7899
		c1.8468-1.3433,4.197-2.2377,6.9949-2.2377C124.3656,35.438,128.6739,41.7601,128.6739,50.7132z M121.3994,50.4324
		c0-5.0356-2.3502-8.9518-7.945-8.9518c-2.182,0-4.0844,0.6717-5.596,1.5672v14.7705c1.4547,1.0081,3.1344,1.399,5.4277,1.399
		C118.714,59.2172,121.3994,55.0215,121.3994,50.4324z"/>
	<path fill="none" stroke="#0B4D58" stroke-miterlimit="10" d="M147.0774,65.261c-10.0156,0-15.4433-5.9869-15.4433-14.9399
		c0-9.0644,5.3164-14.883,13.7648-14.883c10.2952,0,13.6523,7.3858,13.0375,16.1138h-19.4721
		c0.3921,4.4209,2.6298,7.6654,9.0087,7.6654c2.9093,0,6.6585-0.8387,8.8405-2.6854c-0.616,1.6785-1.2308,5.4834-1.2876,7.0506
		 M139.1881,46.7958h11.9737c-0.0557-2.6854-1.1751-5.3152-5.5948-5.3152C141.4258,41.4806,139.8041,43.999,139.1881,46.7958z"/>
	<rect x="145.3506" y="63.5394" fill="#0B4D58" width="3.4431" height="3.4431"/>
	<rect x="157.8143" y="63.5394" fill="none" stroke="#0B4D58" stroke-miterlimit="10" width="3.4431" height="3.4431"/>
	<line fill="none" stroke="#0B4D58" stroke-miterlimit="10" x1="147.4441" y1="65.261" x2="157.8247" y2="65.261"/>
	<polygon fill="#0B4D58" points="159.5359,65.261 166.386,72.3573 162.6313,72.7733 159.6734,75.1232 	"/>
</g>
</svg>
