<?xml version="1.0" encoding="utf-8"?>
<!-- Generator: Adobe Illustrator 22.1.0, SVG Export Plug-In . SVG Version: 6.00 Build 0)  -->
<svg version="1.1" id="レイヤー_1" xmlns="http://www.w3.org/2000/svg" xmlns:xlink="http://www.w3.org/1999/xlink" x="0px"
	 y="0px" viewBox="0 0 200 100" enable-background="new 0 0 200 100" xml:space="preserve">
<path fill="#0B4D58" d="M134.9053,19.3435H65.094c-2.8485,0-5.1791,2.3306-5.1791,5.1791v50.9548
	c0,2.8485,2.3306,5.1791,5.1791,5.1791h69.8113c2.8492,0,5.1798-2.3306,5.1798-5.1791V24.5226
	C140.0851,21.6741,137.7545,19.3435,134.9053,19.3435z M90.749,22.474c2.236,0,4.0484,1.8124,4.0484,4.0484
	s-1.8124,4.0484-4.0484,4.0484c-2.236,0-4.0484-1.8124-4.0484-4.0484S88.513,22.474,90.749,22.474z M79.1884,22.474
	c2.236,0,4.0484,1.8124,4.0484,4.0484s-1.8124,4.0484-4.0484,4.0484c-2.236,0-4.0484-1.8124-4.0484-4.0484
	S76.9523,22.474,79.1884,22.474z M67.6282,22.474c2.2355,0,4.0484,1.8124,4.0484,4.0484s-1.8129,4.0484-4.0484,4.0484
	c-2.236,0-4.0489-1.8124-4.0489-4.0484S65.3922,22.474,67.6282,22.474z M136.194,75.252c0,0.825-0.675,1.5-1.5,1.5H65.306
	c-0.825,0-1.5-0.675-1.5-1.5V34.9581c0-0.825,0.675-1.5,1.5-1.5h69.388c0.825,0,1.5,0.675,1.5,1.5V75.252z"/>
<rect x="62.7329" y="39.011" fill="#0B4D58" width="75.3001" height="20.573"/>
<rect x="67.6279" y="63.4422" fill="#0B4D58" width="17.7516" height="3.7744"/>
</svg>
