<?xml version="1.0" encoding="utf-8"?>
<!-- Generator: Adobe Illustrator 22.1.0, SVG Export Plug-In . SVG Version: 6.00 Build 0)  -->
<svg version="1.1" id="レイヤー_1" xmlns="http://www.w3.org/2000/svg" xmlns:xlink="http://www.w3.org/1999/xlink" x="0px"
	 y="0px" viewBox="0 0 200 100" enable-background="new 0 0 200 100" xml:space="preserve">
<g>
	<path fill="#0B4D58" d="M81.5026,46.82c-3.18,3.1096-6.3432,6.1482-9.4877,9.1171c-3.1451,2.9675-6.307,6.0423-9.4877,9.2216
		c-0.1059,0.9195-0.3626,1.7492-0.768,2.4917c-0.4068,0.7412-0.9275,1.3779-1.5635,1.9073
		c-0.636,0.5308-1.3343,0.9369-2.0936,1.2197c-0.7607,0.2828-1.5287,0.4235-2.3061,0.4235c-0.5294,0-0.7948-0.2118-0.7948-0.6353
		c0-0.248,0.0617-0.4249,0.1856-0.5308c0.1233-0.1059,0.256-0.2386,0.3974-0.3967c0.1407-0.1595,0.2734-0.3807,0.3974-0.6635
		c0.1233-0.2828,0.1856-0.7238,0.1856-1.3243c0-1.4141-0.2386-2.6244-0.7157-3.631c-0.4765-1.0066-1.1219-1.8202-1.9341-2.4381
		c-0.8136-0.6179-1.7847-1.0683-2.9153-1.3511c-1.1313-0.2828-2.3322-0.4249-3.6042-0.4249c-0.7419,0-1.5635,0.063-2.4649,0.1863
		c-0.9007,0.1233-1.8376,0.256-2.8087,0.3967c-0.9718,0.1421-1.9616,0.2734-2.9682,0.3981c-1.0073,0.1233-1.9877,0.185-2.9421,0.185
		c-1.8021,0-2.7028-0.441-2.7028-1.3243c0-0.3887,0.1856-0.7238,0.5562-1.0079c0.3713-0.2815,0.9637-0.4235,1.776-0.4235
		c0.8478,0,1.7934,0.0362,2.8355,0.1059c1.0428,0.071,2.0668,0.1595,3.0741,0.2654c1.0073,0.1059,1.9697,0.1944,2.8885,0.2654
		c0.9188,0.071,1.6607,0.1059,2.2263,0.1059c1.0602,0,2.1466-0.4423,3.2597-1.3256s2.2076-2.0052,3.2859-3.3656
		c1.0776-1.3591,2.1285-2.8791,3.1539-4.5585c1.0247-1.6768,1.9522-3.312,2.7826-4.9017c0.8297-1.591,1.5548-3.0386,2.1734-4.3468
		c0.6179-1.3068,1.0864-2.2786,1.404-2.9153c-0.9537-0.1769-1.8993-0.4678-2.8355-0.8739c-0.9362-0.4061-1.7673-0.9369-2.491-1.591
		c-0.7245-0.6528-1.3075-1.4127-1.7492-2.2786c-0.4423-0.8659-0.6621-1.8282-0.6621-2.8885c0-2.0146,0.5911-3.56,1.7753-4.6376
		c1.1835-1.0776,2.5708-1.6165,4.1611-1.6165c0.6702,0,1.28,0.071,1.8282,0.2118c0.5475,0.1407,0.9624,0.2828,1.2459,0.4236
		l-0.1595,0.5308c-0.4953-0.1769-0.9718-0.3096-1.4308-0.3981c-0.4597-0.0885-0.9543-0.1327-1.4838-0.1327
		c-1.6614,0-2.9602,0.5482-3.8957,1.6433c-0.9369,1.0951-1.4047,2.4207-1.4047,3.9755c0,0.9543,0.2118,1.8376,0.636,2.6499
		c0.4242,0.8136,0.9805,1.52,1.6694,2.1204s1.4751,1.1045,2.3584,1.5106c0.8833,0.4061,1.7666,0.6809,2.6506,0.8216
		c0.9537-2.0146,2.2169-3.9232,3.7899-5.7247c1.5716-1.8028,3.3388-3.3656,5.2998-4.6912c1.9616-1.3243,4.0552-2.3751,6.2809-3.1539
		c2.2263-0.7761,4.4694-1.1661,6.7313-1.1661c1.0247,0,2.0145,0.1072,2.9682,0.319c0.9543,0.2118,1.8195,0.5562,2.5969,1.0334
		c0.7774,0.4772,1.396,1.0857,1.8557,1.8282c0.4584,0.7426,0.6889,1.662,0.6889,2.7558c0,1.2371-0.3364,2.359-1.0073,3.3656
		c-0.6715,1.0079-1.5635,1.9006-2.6767,2.6767c-1.1132,0.7787-2.3852,1.4503-3.816,2.0146
		c-1.4315,0.5656-2.8979,1.0254-4.399,1.3779c-1.5025,0.3539-2.995,0.6192-4.4788,0.7948
		c-1.4844,0.1783-2.8275,0.2654-4.0284,0.2654c-0.4953,0-1.0073-0.0174-1.5374-0.0536c-0.5294-0.0335-1.0596-0.0871-1.5897-0.1582
		c-1.272,2.5091-2.483,4.6644-3.631,6.4659c-1.1487,1.8028-2.2612,3.3482-3.3388,4.6376c-1.0783,1.2908-2.1466,2.3778-3.2068,3.2597
		c-1.0602,0.8833-2.1734,1.6701-3.3388,2.359c-1.1661,0.6889-2.3852,1.3243-3.6572,1.9073
		c-1.2727,0.5831-2.6686,1.2291-4.1873,1.9355V59.17c1.3068,0,2.7296,0.0268,4.2663,0.0791
		c1.5374,0.0536,3.0031,0.2386,4.399,0.5562c1.396,0.319,2.615,0.8391,3.6572,1.5642c1.0421,0.7238,1.723,1.7572,2.0407,3.1002
		c0.8484-0.9195,2.0052-2.0936,3.4722-3.5238c1.4657-1.4315,3.0553-2.9595,4.7696-4.5854c1.7136-1.6245,3.4722-3.2772,5.2743-4.9553
		c1.8021-1.6781,3.4796-3.2597,5.035-4.7435L81.5026,46.82z M87.2266,26.4667c0-1.0589-0.2828-1.9154-0.8478-2.5695
		c-0.5656-0.6541-1.3437-0.9811-2.3322-0.9811c-0.9899,0-1.979,0.2573-2.9682,0.768c-0.9899,0.5134-1.9529,1.1929-2.8885,2.0414
		c-0.9369,0.8471-1.8376,1.8108-2.7035,2.8885c-0.8659,1.0776-1.6694,2.1727-2.4113,3.2865
		c-0.7419,1.1125-1.4047,2.1995-1.9877,3.2597c-0.5831,1.0589-1.0515,1.9958-1.4047,2.808
		c0.3887,0.0724,0.7955,0.1059,1.2191,0.1059c0.4242,0,0.9188,0,1.4844,0c3.0031,0,5.4673-0.4584,7.3934-1.3779
		c1.9261-0.9181,3.4367-1.9958,4.5317-3.2329c1.0951-1.2358,1.8551-2.5172,2.2793-3.8428
		C87.0148,28.2963,87.2266,27.2455,87.2266,26.4667z"/>
	<path fill="#0B4D58" d="M109.9644,46.9259c-0.1414,0.1421-0.3713,0.3807-0.6889,0.7158c-0.3183,0.3364-0.7158,0.6715-1.1929,1.0066
		c-0.4765,0.3364-1.016,0.6367-1.6165,0.9021c-0.6012,0.264-1.2546,0.3967-1.9609,0.3967c-0.9195,0-1.7404-0.2198-2.4642-0.6621
		c-0.7251-0.441-1.3873-1.0334-1.9877-1.776h-0.1059c0,1.8376-0.4336,3.5868-1.2988,5.2475
		c-0.8665,1.662-2.0139,3.119-3.4454,4.3722c-1.4308,1.2559-3.0654,2.2451-4.9024,2.9689c-1.8376,0.7238-3.7463,1.087-5.7246,1.087
		c-1.1661,0-2.2974-0.1247-3.3918-0.3713c-1.0957-0.248-2.0675-0.6541-2.9153-1.2197c-0.8484-0.5643-1.5287-1.3068-2.0407-2.2263
		c-0.5127-0.9181-0.7687-2.0481-0.7687-3.3911c0-2.0146,0.4772-3.8348,1.4315-5.4593c0.9537-1.6259,2.1808-3.0131,3.6833-4.1618
		c1.5019-1.1473,3.1974-2.0213,5.088-2.6231c1.8899-0.6005,3.7543-0.9007,5.592-0.9007c1.5193,0,2.7739,0.2118,3.763,0.6353
		c0.9892,0.4249,1.8289,0.9463,2.5179,1.5642c0.6889,0.6179,1.272,1.2988,1.7492,2.04c0.4772,0.7426,0.9543,1.4235,1.4308,2.0414
		c0.4772,0.6179,1.0073,1.1393,1.5903,1.5629c0.5831,0.4249,1.3162,0.6367,2.1995,0.6367c0.8123,0,1.6513-0.2386,2.5179-0.7158
		c0.8652-0.4772,1.7043-1.1741,2.5172-2.0936L109.9644,46.9259z M92.1028,41.4666c-0.8484,0-1.7056,0.2922-2.5708,0.8752
		c-0.8665,0.5831-1.7056,1.343-2.5179,2.2786c-0.8129,0.9369-1.5722,1.9971-2.2793,3.1807s-1.3249,2.3764-1.855,3.5774
		c-0.5294,1.201-0.9456,2.3671-1.2452,3.4983c-0.3009,1.1313-0.4504,2.1204-0.4504,2.9675c0,0.8136,0.185,1.4677,0.5563,1.9609
		c0.3713,0.4959,0.892,0.7426,1.5635,0.7426c0.8484,0,1.7043-0.2909,2.5708-0.8739c0.8652-0.5831,1.7043-1.343,2.5179-2.2799
		c0.8123-0.9356,1.5716-1.9958,2.2786-3.1793c0.7064-1.1835,1.3249-2.3764,1.855-3.5787c0.5301-1.201,0.9449-2.3751,1.2459-3.5238
		c0.2996-1.1487,0.4504-2.1285,0.4504-2.9421c0-0.8123-0.1856-1.4663-0.5563-1.9609
		C93.2951,41.7146,92.7737,41.4666,92.1028,41.4666z"/>
	<path fill="#0B4D58" d="M103.0736,55.6181c0-1.8363,0.4685-3.6377,1.4047-5.4057c0.9356-1.7666,2.1546-3.3469,3.6572-4.7435
		c1.5012-1.3953,3.188-2.5185,5.0612-3.3656c1.8725-0.8484,3.7637-1.272,5.6717-1.272c1.1306,0,2.1285,0.2037,2.9944,0.6085
		c0.8659,0.4075,1.5984,1.2465,2.1995,2.5185l1.272-2.4917l7.3679-0.3177c-1.8376,3.1458-3.6665,6.2273-5.4861,9.2484
		c-1.8202,3.0212-3.6303,6.0691-5.4324,9.1439c1.6245-0.5656,3.188-1.3162,4.6906-2.2531c1.5012-0.9356,2.9233-1.9784,4.2663-3.127
		c1.343-1.1473,2.6237-2.3764,3.8428-3.6833s2.359-2.615,3.4186-3.9232l0.3713,0.3713c-1.0602,1.343-2.2444,2.7035-3.5513,4.0814
		c-1.3075,1.3779-2.6854,2.6686-4.1343,3.8696c-1.4489,1.201-2.9595,2.2786-4.5317,3.2329
		c-1.5722,0.9543-3.1894,1.6781-4.8494,2.1727c-1.3437,2.7209-2.9334,5.159-4.7703,7.3143
		c-1.8376,2.1553-3.8254,3.9835-5.9626,5.4861c-2.1385,1.5012-4.3729,2.6499-6.7051,3.4447
		c-2.3322,0.7962-4.6819,1.1929-7.0496,1.1929c-1.4482,0-2.8791-0.1407-4.2932-0.4236c-1.4127-0.2841-2.6767-0.7345-3.7892-1.3524
		c-1.1132-0.6179-2.0146-1.4127-2.7035-2.3845s-1.0334-2.1647-1.0334-3.5774c0-0.9195,0.1856-1.776,0.5562-2.5708
		c0.3713-0.7948,0.9463-1.4932,1.723-2.0936c0.7774-0.6018,1.7847-1.0696,3.0212-1.4047c1.2371-0.3364,2.7209-0.504,4.452-0.504
		h3.3924v0.6367h-1.1661c-1.6962,0-3.056,0.4946-4.0814,1.4838c-1.0247,0.9892-1.5374,2.5266-1.5374,4.6108
		c0,0.9543,0.1421,1.855,0.4242,2.7035c0.2835,0.8484,0.6983,1.5816,1.2459,2.1995c0.5482,0.6179,1.2016,1.1138,1.9609,1.4838
		c0.76,0.3713,1.6165,0.5576,2.5708,0.5576c2.1553,0,4.2134-0.7962,6.1743-2.3858c1.9616-1.5897,3.8073-3.6565,5.539-6.2005
		l8.1091-11.8206l-0.1059-0.1059c-1.2371,1.4489-2.6593,2.5802-4.2663,3.3924c-1.6084,0.8123-3.2597,1.2197-4.956,1.2197
		c-1.5903,0-2.8181-0.5227-3.684-1.5642C103.5065,58.5789,103.0736,57.2439,103.0736,55.6181z M109.9637,56.4143
		c0,0.6715,0.1146,1.28,0.3445,1.8282c0.2299,0.5482,0.7506,0.8216,1.5635,0.8216c0.7426,0,1.5193-0.256,2.3322-0.7694
		c0.8122-0.5107,1.6077-1.1835,2.3852-2.0132c0.7767-0.8297,1.5186-1.776,2.2263-2.8362c0.7064-1.0602,1.3156-2.1459,1.8282-3.2597
		c0.512-1.1125,0.9275-2.1901,1.2459-3.2329c0.3177-1.0415,0.4772-1.969,0.4772-2.7826c0-0.8484-0.2212-1.5106-0.6628-1.9877
		c-0.4423-0.4772-1.016-0.7157-1.7224-0.7157c-0.7426,0-1.5025,0.248-2.2793,0.7426c-0.7774,0.4946-1.5374,1.1393-2.2793,1.9341
		c-0.7419,0.7948-1.4489,1.7143-2.1198,2.7558c-0.6722,1.0428-1.2552,2.1204-1.7492,3.2343
		c-0.4953,1.1125-0.884,2.2089-1.1661,3.2852C110.1044,54.4976,109.9637,55.4948,109.9637,56.4143z"/>
	<path fill="#0B4D58" d="M166.8879,46.9259c-0.1414,0.1421-0.3713,0.3807-0.6889,0.7158c-0.3183,0.3364-0.7158,0.6715-1.1929,1.0066
		c-0.4765,0.3364-1.016,0.6367-1.6165,0.9021c-0.6012,0.264-1.2546,0.3967-1.9609,0.3967c-0.9195,0-1.7404-0.2198-2.4642-0.6621
		c-0.7251-0.441-1.3873-1.0334-1.9877-1.776h-0.1059c0,1.8376-0.4336,3.5868-1.2988,5.2475
		c-0.8665,1.662-2.0139,3.119-3.4454,4.3722c-1.4308,1.2559-3.0654,2.2451-4.9023,2.9689c-1.8376,0.7238-3.7463,1.087-5.7247,1.087
		c-1.1661,0-2.2974-0.1247-3.3918-0.3713c-1.0957-0.248-2.0675-0.6541-2.9153-1.2197c-0.8484-0.5643-1.5287-1.3068-2.0407-2.2263
		c-0.5127-0.9181-0.7687-2.0481-0.7687-3.3911c0-2.0146,0.4772-3.8348,1.4315-5.4593c0.9537-1.6259,2.1808-3.0131,3.6833-4.1618
		c1.5019-1.1473,3.1974-2.0213,5.088-2.6231c1.8899-0.6005,3.7543-0.9007,5.5919-0.9007c1.5193,0,2.7739,0.2118,3.763,0.6353
		c0.9892,0.4249,1.8289,0.9463,2.5179,1.5642c0.6889,0.6179,1.272,1.2988,1.7492,2.04c0.4772,0.7426,0.9543,1.4235,1.4308,2.0414
		c0.4772,0.6179,1.0073,1.1393,1.5903,1.5629c0.5831,0.4249,1.3162,0.6367,2.1995,0.6367c0.8123,0,1.6513-0.2386,2.5179-0.7158
		c0.8652-0.4772,1.7043-1.1741,2.5172-2.0936L166.8879,46.9259z M149.0263,41.4666c-0.8484,0-1.7056,0.2922-2.5708,0.8752
		c-0.8665,0.5831-1.7056,1.343-2.5179,2.2786c-0.8129,0.9369-1.5722,1.9971-2.2793,3.1807c-0.707,1.1835-1.3249,2.3764-1.855,3.5774
		c-0.5294,1.201-0.9456,2.3671-1.2452,3.4983c-0.3009,1.1313-0.4504,2.1204-0.4504,2.9675c0,0.8136,0.185,1.4677,0.5563,1.9609
		c0.3713,0.4959,0.892,0.7426,1.5635,0.7426c0.8484,0,1.7043-0.2909,2.5708-0.8739c0.8652-0.5831,1.7043-1.343,2.5179-2.2799
		c0.8123-0.9356,1.5716-1.9958,2.2786-3.1793c0.7064-1.1835,1.3249-2.3764,1.8551-3.5787c0.5301-1.201,0.9449-2.3751,1.2458-3.5238
		c0.2996-1.1487,0.4504-2.1285,0.4504-2.9421c0-0.8123-0.1856-1.4663-0.5562-1.9609
		C150.2186,41.7146,149.6972,41.4666,149.0263,41.4666z"/>
</g>
</svg>
