<?xml version="1.0" encoding="utf-8"?>
<!-- Generator: Adobe Illustrator 22.1.0, SVG Export Plug-In . SVG Version: 6.00 Build 0)  -->
<svg version="1.1" id="レイヤー_1" xmlns="http://www.w3.org/2000/svg" xmlns:xlink="http://www.w3.org/1999/xlink" x="0px"
	 y="0px" viewBox="0 0 200 100" enable-background="new 0 0 200 100" xml:space="preserve">
<path fill="#0B4D58" d="M121.3435,16.4186h-42.687c-2.3866,0-4.3391,1.9525-4.3391,4.3391v58.4846
	c0,2.3866,1.9525,4.3391,4.3391,4.3391h42.6871c2.3866,0,4.3391-1.9525,4.3391-4.3391V20.7577
	C125.6826,18.3711,123.7301,16.4186,121.3435,16.4186z M99.538,79.5436c-3.6377,0-6.5866-2.9489-6.5866-6.5866
	s2.9489-6.5866,6.5866-6.5866c3.6371,0,6.586,2.9489,6.586,6.5866S103.175,79.5436,99.538,79.5436z M117.2635,62.0753H82.7364
	V24.8376h34.5272L117.2635,62.0753L117.2635,62.0753z"/>
</svg>
