<?xml version="1.0" encoding="utf-8"?>
<!-- Generator: Adobe Illustrator 22.1.0, SVG Export Plug-In . SVG Version: 6.00 Build 0)  -->
<svg version="1.1" id="レイヤー_1" xmlns="http://www.w3.org/2000/svg" xmlns:xlink="http://www.w3.org/1999/xlink" x="0px"
	 y="0px" viewBox="0 0 200 100" style="enable-background:new 0 0 200 100;" xml:space="preserve">
<style type="text/css">
	.st0{fill:none;stroke:#0B4D58;stroke-width:2.6434;stroke-miterlimit:10;}
	.st1{fill:#0B4D58;}
	.st2{fill:#0B4D58;stroke:#0B4D58;stroke-width:2;stroke-miterlimit:10;}
</style>
<g>
	<path class="st0" d="M129.9,75.9c-18.5,0-28.6-11.1-28.6-27.6c0-16.8,9.8-27.5,25.5-27.5c19,0,25.2,13.7,24.1,29.8h-36
		c0.7,8.2,4.9,14.2,16.7,14.2c5.4,0,12.3-1.6,16.3-5c-1.1,3.1-2.3,10.1-2.4,13 M115.3,41.8h22.1c-0.1-5-2.2-9.8-10.3-9.8
		C119.5,31.9,116.5,36.6,115.3,41.8z"/>
	<rect x="125.7" y="71.8" class="st1" width="8.3" height="8.3"/>
	<rect x="149.8" y="72.7" class="st0" width="6.4" height="6.4"/>
	<line class="st0" x1="130.6" y1="75.9" x2="149.8" y2="75.9"/>
	<polygon class="st1" points="153,75.9 166.4,89.8 159,90.6 153.2,95.3 	"/>
</g>
<g>
	<path class="st2" d="M96.7,75.6c-1.6,1.1-3.8,1.6-6.6,1.6c-5,0-8.2-3.8-9.1-7.2c-2.3,3.5-6.9,7.8-16,7.8c-6.7,0-19-2.9-19-16.6
		C46,46,61.1,43.8,66.7,43.8c5.9,0,10.2,1.4,13.2,2.6V43c0-10.5-3.5-14.8-12.7-14.8c-6.1,0-11.6,3.7-15,7.6c-0.4-3.4-1-5.6-1.9-8.1
		c4.5-4.2,11.3-6.9,18.8-6.9c16.1,0,19.6,10.9,19.6,22.3v19.4c0,3.5,0.2,8.6,4.7,8.6c1.4,0,2.7-0.3,3.5-0.8
		C96.7,72.3,96.6,73.4,96.7,75.6z M79.9,63.2V53c-2.3-1-7.2-2.2-12.9-2.2c-6,0-12.5,2-12.5,9.9c0,5,3.2,10.1,10.8,10.1
		C71.9,70.8,77,67.6,79.9,63.2z"/>
</g>
</svg>
