<?xml version="1.0" encoding="utf-8"?>
<!-- Generator: Adobe Illustrator 22.1.0, SVG Export Plug-In . SVG Version: 6.00 Build 0)  -->
<svg version="1.1" id="レイヤー_1" xmlns="http://www.w3.org/2000/svg" xmlns:xlink="http://www.w3.org/1999/xlink" x="0px"
	 y="0px" viewBox="0 0 800 400" enable-background="new 0 0 800 400" xml:space="preserve">
<rect y="0" fill="#FFFFFF" width="800" height="400"/>
<g>
	<path d="M267.7261,209.5665c0.0933,1.9639-1.5903,3.0859-3.6479,3.1797c-17.1172,0.748-27.687-12.0664-28.1548-16.9302
		c-0.0933-0.374,0.3745-0.374,0.5615-0.2808c2.1514,1.1226,10.1953,10.6631,27.4995,11.3184
		C266.5098,206.9474,267.6323,208.1632,267.7261,209.5665z M279.0439,166.6324c-1.9644,2.8062-5.1445,5.1445-8.7925,6.9219
		c3.2739,5.6123,5.7056,10.0083,5.8926,11.6919c0.2808,3.0869-3.0864,4.1157-4.6768,4.2095
		c-1.1226,0.0933-2.3384-0.0938-3.3672-0.6548c0.561-0.6548,1.0288-1.2163,0.8418-3.1802c-0.187-1.8711-1.4028-5.519-3.2739-10.1021
		c-7.0151,2.3384-14.7788,2.9932-20.2974,1.4028c-2.5254-0.748-6.1733-4.4897-6.1733-5.5186c0-0.4678,0.187-0.6548,0.6548-0.2808
		c1.1226,0.9355,4.5835,3.0869,11.5986,2.4321c4.209-0.374,8.3247-1.4028,12.0659-3.0869c-2.0576-4.583-4.396-9.5405-6.8281-14.2173
		c-4.6768,1.4028-9.7275,1.7773-14.2173,0.6548c-4.5835-1.1226-5.6123-4.022-5.8931-4.4897
		c-0.374-0.6548,0.187-1.0288,0.5615-0.6548c0.4678,0.4678,2.2446,2.0576,7.8569,1.8706c3.4609-0.0933,6.6411-0.748,9.2603-1.7769
		c-1.4033-2.7129-2.8999-5.1445-4.2095-7.2026c-2.0576-3.1802-5.4248-5.1445-5.5186-5.8926
		c-0.0933-1.0288,2.3384-0.9355,3.3672-1.0288c6.0801-0.5615,5.7993,2.0576,8.1377,8.418c0.4678,1.3096,1.0288,2.7129,1.6836,4.1157
		c2.9932-1.5903,5.1445-3.6479,6.6411-5.5186c2.0581-2.7129,5.519-1.5903,5.7061,0.748c0.0933,0.9355,0.0933,1.4966-0.5615,2.5254
		c-1.8706,2.8999-5.3315,5.4253-9.5405,7.1089c2.2446,4.4897,4.8638,9.0732,7.2959,13.376
		c2.2446-1.4033,4.3027-2.9932,6.1733-4.8643c0.561-0.561,1.4028-1.7769,3.1802-1.9639
		C279.1372,161.3947,280.5405,164.5748,279.0439,166.6324z M289.52,151.6666c0,1.6836-1.1226,2.7129-2.6191,2.7129
		c-3.5542,0-3.4609-4.8643-10.0083-10.5698c-0.7485-0.6548-0.187-1.5898,0.6548-1.4028
		C284.1885,143.9034,289.52,148.2994,289.52,151.6666z M295.8804,147.5514c-3.4609,0.4673-3.4609-4.6768-10.2891-9.8213
		c-0.748-0.5615-0.187-1.4966,0.561-1.4033c6.1738,0.7485,11.8794,5.3315,12.0664,8.4185
		C298.3125,146.3351,297.2832,147.3639,295.8804,147.5514z"/>
	<path d="M344.6201,137.6364c5.7988,2.8994,8.1377,5.6123,8.0439,8.6055c-0.0938,3.2734-2.4316,5.7056-5.2383,10.7563
		c-4.6768,8.4185-10.5693,18.5205-13.5625,26.2837c2.7129-2.7124,6.0801-6.2666,11.6924-6.1733
		c17.21,0.2808,11.6914,26.4717,26.9385,26.752c9.2598,0.1865,16.2754-4.1157,19.6426-7.9512
		c0.748-0.8418,1.4961-0.2803,1.1221,0.4678c-2.3389,4.6768-7.7637,14.4053-21.7002,14.124
		c-18.5205-0.374-14.4053-29.1831-26.0967-29.3701c-6.9219-0.0938-13.002,5.8926-15.3398,12.1597
		c-1.0293,2.8062-3.0869,7.9507-4.0225,11.1313c-0.9355,3.2734-2.7129,4.957-4.583,4.8633
		c-2.1514-0.0938-4.209-2.6191-2.3389-6.3604c3.5547-7.1089,25.4424-49.0132,25.9102-59.1152
		c0.0928-1.9644-0.5615-4.6768-1.123-5.4253C343.5908,137.9171,344.0586,137.3556,344.6201,137.6364z"/>
	<path d="M452.9414,159.3365c6.0801,8.3252,13.1885,14.5918,13.376,18.1465c0.1865,3.4604-2.8066,4.583-4.6768,4.77
		c-1.8711,0.187-3.9287-1.0288-4.4902-1.5898c0.5615-0.4678,1.4033-1.1226,1.3096-2.2451
		c-0.2803-3.3672-5.4248-10.5693-10.3818-18.0522c-7.6699,1.4966-15.6211,2.0576-20.6719,1.2158
		c-7.1084-1.1226-8.793-6.1733-9.0732-8.3247c-0.0938-0.7485,0.6553-0.8418,1.0293-0.187
		c1.4961,2.6191,5.4248,4.6768,13.5625,4.1157c3.7412-0.2808,7.9502-0.9355,12.0664-1.8711
		c-2.9932-4.8638-5.332-9.6343-5.6123-13.1885c-0.1875-2.6191,1.6836-4.7705,3.835-4.9575c2.5254-0.187,5.8926,2.9932,5.9863,3.6479
		c0.0938,0.561-1.2158-0.4678-2.2451-0.374c-1.7773,0.187-2.3379,1.5898-2.0576,2.8062c0.9355,3.9282,2.5254,7.5762,4.583,10.9438
		c8.4189-2.3384,15.2471-5.7993,15.0596-9.0732c2.8057,0.187,4.6768,2.3384,4.8643,4.3027
		C469.7783,153.444,462.1084,157.0919,452.9414,159.3365z M459.3955,207.5079c0,1.5908-1.2158,3.0869-4.209,3.0869
		c-26.0029,0-32.2705-14.9658-32.2705-17.0239c0-0.187,0.0938-0.2803,0.375-0.2803c1.4023,0,7.7627,10.4761,31.4277,10.4761
		C457.5244,203.7667,459.3955,204.9825,459.3955,207.5079z"/>
	<path d="M515.4307,166.4454c0,1.4033-0.6553,7.4829-0.6553,10.0083c0,11.0376,2.8066,15.9951,5.5186,15.9951
		c0.9355,0,2.2451-0.8418,3.835-2.0581c1.4971-1.1226,3.2744-2.5254,5.1445-3.6479c0.9355-0.561,0.8418,0.6548,0.4678,1.0293
		c-2.0576,2.0576-4.4893,7.0151-5.7051,10.2886c-0.5615,1.4966-1.2158,4.0225-3.2744,4.0225
		c-5.7988,0-10.1953-12.7212-10.9434-23.665c-1.0293-15.2461-1.5898-17.4912-4.583-20.2036
		c-1.0293-0.9355-0.749-1.2163,0.0928-1.2163C511.0342,156.9982,515.4307,160.0851,515.4307,166.4454z M569.4941,180.2887
		c-0.374-13.0015-3.3672-16.5557-6.0791-18.52c-0.6553-0.4678-0.5615-0.748,0.374-0.748c6.9219,0,13.75,9.3535,13.75,18.0522
		c0,3.5547-1.6836,5.1445-4.21,5.1445C572.0195,184.2174,569.5879,183.3756,569.4941,180.2887z"/>
</g>
<g>
	<path d="M333.8506,250.3282c-0.1982-0.4961-0.3721-0.8926-0.5205-1.1904s-0.3398-0.5205-0.5703-0.6699
		c-0.2314-0.1484-0.5137-0.2549-0.8438-0.3223c-0.3311-0.0654-0.7773-0.1318-1.3389-0.1982l-0.1982-0.1982v-0.7441l0.1982-0.1982
		c0.3301,0.0332,0.7266,0.0576,1.1904,0.0742c0.4629,0.0166,0.9424,0.0332,1.4385,0.0498s0.959,0.0332,1.3887,0.0498
		s0.7607,0.0244,0.9922,0.0244c0.5625,0,1.2979-0.0166,2.208-0.0498c0.9092-0.0322,1.7441-0.082,2.5049-0.1484l0.1982,0.1982v0.7441
		l-0.1982,0.1982c-0.8926,0.0664-1.5381,0.1904-1.9346,0.3721c-0.3965,0.1826-0.5957,0.4883-0.5957,0.918
		c0,0.2979,0.0908,0.7109,0.2734,1.2402c0.1807,0.5293,0.4209,1.1572,0.7188,1.8848l4.6631,11.6572h0.248l3.7207-8.582
		c0.6611-1.4883,1.1484-2.6699,1.4629-3.5469c0.3145-0.875,0.4717-1.6445,0.4717-2.3066c0-0.6279-0.2158-1.0332-0.6445-1.2148
		c-0.4307-0.1816-1.1582-0.3223-2.1826-0.4219l-0.1992-0.1982v-0.7441l0.1992-0.1982c0.2637,0.0332,0.5859,0.0576,0.9668,0.0742
		c0.3799,0.0166,0.7686,0.0332,1.166,0.0498c0.3965,0.0166,0.7852,0.0332,1.166,0.0498c0.3789,0.0166,0.6855,0.0244,0.917,0.0244
		c0.6611,0,1.3721-0.0166,2.1338-0.0498c0.7598-0.0322,1.3389-0.082,1.7354-0.1484l0.1992,0.1982v0.7441l-0.1992,0.1982
		l-1.0908,0.248c-0.3965,0.0996-0.7275,0.3643-0.9922,0.7939s-0.4961,0.876-0.6943,1.3389l-5.3076,11.2607
		c-0.4961,1.0586-0.9766,2.1328-1.4395,3.2246s-0.8428,2.166-1.1406,3.2246h-2.9766c-0.0664-0.2656-0.1484-0.5537-0.248-0.8682
		c-0.0986-0.3145-0.2148-0.6367-0.3467-0.9678L333.8506,250.3282z"/>
	<path d="M373.5859,265.0616l-3.9688,2.7285c-0.1982,0.1318-0.6279,0.2559-1.2891,0.3721
		c-0.6621,0.1152-1.4229,0.1738-2.2822,0.1738c-1.7197,0-3.208-0.3232-4.4648-0.9678s-2.2988-1.5127-3.125-2.6045
		c-0.8271-1.0908-1.4473-2.3477-1.8604-3.7695c-0.4141-1.4219-0.6201-2.8936-0.6201-4.415c0-2.1494,0.3633-3.96,1.0918-5.4326
		c0.7266-1.4707,1.6035-2.4385,2.6289-2.9014l4.8115-2.2822c0.2314-0.0986,0.5371-0.1738,0.918-0.2227
		c0.3799-0.0498,0.7354-0.0752,1.0664-0.0752c1.124,0,2.166,0.124,3.125,0.3721s1.7861,0.6699,2.4805,1.2656
		c0.6943,0.5947,1.2402,1.3809,1.6377,2.3564c0.3965,0.9756,0.5947,2.1748,0.5947,3.5957c0,0.2656,0,0.5381,0,0.8184
		c0,0.2822-0.0332,0.5713-0.0996,0.8682c-0.2969,0.166-0.8262,0.3066-1.5869,0.4219c-0.7607,0.1162-1.7197,0.1982-2.877,0.248
		c-1.1582,0.0498-2.4727,0.083-3.9443,0.0996s-3.0674,0.0244-4.7861,0.0244h-1.1416l-0.1484,0.1484
		c0,0.9551,0.1318,1.9912,0.3965,3.1094c0.2646,1.1191,0.6943,2.1719,1.29,3.1592c0.5947,0.9873,1.3799,1.8105,2.3564,2.4678
		c0.9746,0.6582,2.1904,0.9873,3.6455,0.9873c1.2568,0,2.332-0.1777,3.2246-0.5332c0.8926-0.3545,1.8018-0.8545,2.7285-1.501
		l0.1982,0.0996v1.3887H373.5859z M359.7461,253.6915c0,0.3027,0.0322,0.4951,0.0986,0.5791s0.2148,0.126,0.4473,0.126h2.7275
		c1.4551,0,2.6377-0.0166,3.5469-0.0508c0.9092-0.0332,1.6377-0.084,2.1826-0.1514c0.5459-0.0664,0.9346-0.1426,1.166-0.2256
		c0.2314-0.084,0.3975-0.1768,0.4961-0.2773c0-0.8047-0.083-1.584-0.248-2.3389c-0.166-0.7549-0.4385-1.4258-0.8184-2.0127
		c-0.3809-0.5879-0.8848-1.0576-1.5127-1.4092c-0.6289-0.3525-1.4229-0.5293-2.3818-0.5293c-1.6865,0-3.0586,0.5791-4.1172,1.7363
		C360.2744,250.296,359.7461,251.8136,359.7461,253.6915z"/>
	<path d="M385.293,255.9835c0,1.125,0,2.0918,0,2.9023s0.0078,1.5215,0.0244,2.1328c0.0166,0.6123,0.0322,1.1826,0.0498,1.7119
		c0.0166,0.5293,0.0576,1.0742,0.124,1.6367c0.0986,1.0586,0.4785,1.7031,1.1406,1.9346c0.6611,0.2314,1.5703,0.3809,2.7285,0.4463
		l0.1982,0.1982v0.7939l-0.1982,0.1982c-0.8926-0.0664-1.8691-0.1162-2.9268-0.1484c-1.0586-0.0332-2.0176-0.0498-2.877-0.0498
		c-0.8604,0-1.7783,0.0166-2.7529,0.0498c-0.9766,0.0322-1.8779,0.082-2.7041,0.1484l-0.248-0.1982v-0.7939l0.248-0.1982
		c0.6611-0.0322,1.207-0.0908,1.6367-0.1738c0.4297-0.082,0.7773-0.2061,1.042-0.3721c0.2646-0.165,0.4541-0.3965,0.5703-0.6943
		s0.1904-0.6777,0.2236-1.1406c0.0654-0.7939,0.0986-1.7441,0.0986-2.8525c0-1.1074,0-2.1738,0-3.1992v-0.8438
		c0-1.9512-0.0332-3.7119-0.0986-5.2832c-0.0664-1.5703-0.1826-2.6699-0.3477-3.2988c-0.2314-0.2637-0.6943-0.4541-1.3887-0.5703
		c-0.6943-0.1152-1.3232-0.1738-1.8848-0.1738l-0.1982-0.1484v-0.8438l0.1982-0.1484h0.3965c0.3965,0,0.8926-0.0322,1.4883-0.0996
		c0.5957-0.0654,1.2158-0.165,1.8604-0.2969s1.2725-0.2734,1.8848-0.4219c0.6113-0.1494,1.0996-0.3223,1.4639-0.5215l0.3965,0.3477
		l-0.1484,3.9688h0.2969c0.9258-1.3555,1.8604-2.4141,2.8027-3.1748c0.9434-0.7607,1.9102-1.1416,2.9023-1.1416
		c0.3633,0,0.7764,0.0342,1.2402,0.0996c0.4629,0.0664,0.876,0.1826,1.2402,0.3477l0.3467,0.4961l-0.2969,4.4141l-0.1494,0.1992
		h-0.6445c-0.166-0.7939-0.4883-1.3643-0.9678-1.7119c-0.4795-0.3467-1.2148-0.5205-2.207-0.5205
		c-0.7607,0-1.4219,0.166-1.9844,0.4961c-0.5625,0.3311-1.0342,0.6943-1.4141,1.0908c-0.3799,0.3975-0.6689,0.7861-0.8682,1.166
		c-0.1982,0.3809-0.2969,0.6201-0.2969,0.7197v3.5213H385.293z"/>
	<path d="M410.4424,257.0255c0-1.7861,0.2559-3.4229,0.7695-4.9111c0.5117-1.4883,1.2891-2.7695,2.3311-3.8447
		c1.042-1.0742,2.3232-1.9092,3.8447-2.5049c1.5205-0.5957,3.3066-0.8926,5.3574-0.8926c1.6533,0,3.166,0.2559,4.5391,0.7686
		c1.3721,0.5127,2.5459,1.249,3.5215,2.207c0.9756,0.96,1.7363,2.1504,2.2822,3.5723s0.8184,3.0254,0.8184,4.8115
		c0,1.8193-0.2979,3.4727-0.8926,4.9609c-0.5957,1.4883-1.4229,2.7705-2.4805,3.8447c-1.0586,1.0742-2.3486,1.9014-3.8691,2.4795
		c-1.5215,0.5791-3.1924,0.8682-5.0107,0.8682c-1.9844,0-3.6787-0.2725-5.084-0.8184c-1.4062-0.5459-2.5635-1.3145-3.4727-2.3066
		c-0.9102-0.9922-1.5801-2.1826-2.0088-3.5713C410.6572,260.299,410.4424,258.7452,410.4424,257.0255z M414.5107,257.174
		c0,1.4229,0.1641,2.7285,0.4941,3.9189c0.3291,1.1904,0.8154,2.208,1.459,3.0508c0.6426,0.8438,1.4414,1.4971,2.3975,1.96
		s2.0605,0.6943,3.3135,0.6943c1.3184,0,2.4639-0.2734,3.4365-0.8184c0.9717-0.5459,1.7715-1.29,2.3984-2.2324
		c0.626-0.9424,1.0869-2.0498,1.3838-3.3242c0.2959-1.2725,0.4453-2.6367,0.4453-4.0918c0-3.0762-0.6025-5.4893-1.8057-7.2432
		c-1.2031-1.752-3.0742-2.6289-5.6113-2.6289c-1.418,0-2.6211,0.2568-3.6094,0.7695c-0.9893,0.5127-1.8057,1.2393-2.4482,2.1826
		c-0.6436,0.9424-1.1133,2.0664-1.4092,3.373C414.6582,254.0909,414.5107,255.5538,414.5107,257.174z"/>
	<path d="M440.0644,265.5577c0-0.7607,0.248-1.3887,0.7441-1.8848s1.1074-0.7441,1.835-0.7441s1.3477,0.248,1.8604,0.7441
		s0.7695,1.124,0.7695,1.8848c0,0.7275-0.2568,1.3389-0.7695,1.835s-1.1328,0.7441-1.8604,0.7441s-1.3389-0.248-1.835-0.7441
		S440.0644,266.2853,440.0644,265.5577z"/>
	<path d="M464.2866,256.8517c0,2.3877,0.0166,4.2285,0.0498,5.5215c0.0322,1.293,0.1816,2.2705,0.4463,2.9336
		c0.1318,0.1992,0.2891,0.3652,0.4717,0.4971c0.1807,0.1328,0.4463,0.249,0.793,0.3486c0.3477,0.0986,0.835,0.1904,1.4639,0.2734
		c0.6279,0.083,1.4707,0.1406,2.5293,0.1738l0.1992,0.1982v0.9424l-0.1992,0.1982c-0.6611-0.0332-1.2646-0.0576-1.8105-0.0742
		c-0.5449-0.0166-1.0908-0.0332-1.6367-0.0498s-1.1162-0.0332-1.71-0.0498s-1.2656-0.0244-2.0156-0.0244
		c-1.1426,0-2.3574,0.0166-3.6445,0.0498c-1.2881,0.0322-2.7744,0.082-4.4609,0.1484l-0.1982-0.1982v-0.9424l0.1982-0.1982
		c0.9922-0.0332,1.7939-0.0752,2.4062-0.124c0.6113-0.0498,1.1074-0.125,1.4883-0.2246c0.3799-0.0986,0.6611-0.2236,0.8428-0.3721
		c0.1816-0.1494,0.3555-0.3398,0.5215-0.5723c0.2637-0.4639,0.4375-1.3926,0.5205-2.7852c0.082-1.3916,0.124-3.2988,0.124-5.7197
		c0-2.4531-0.042-4.376-0.124-5.7686c-0.083-1.3926-0.2568-2.3213-0.5205-2.7852c-0.166-0.2314-0.3398-0.4229-0.5215-0.5723
		c-0.1816-0.1484-0.4629-0.2734-0.8428-0.373c-0.3809-0.0986-0.877-0.1738-1.4883-0.2236
		c-0.6123-0.0498-1.4141-0.0742-2.4062-0.0742l-0.1982-0.2383v-0.9023l0.1982-0.1992c1.6865,0.0674,3.1729,0.1162,4.4609,0.1494
		c1.2871,0.0332,2.502,0.0498,3.6445,0.0498c0.75,0,1.4219-0.0078,2.0156-0.0254c0.5938-0.0156,1.1641-0.0322,1.71-0.0498
		c0.5459-0.0156,1.0918-0.0322,1.6367-0.0488c0.5459-0.0166,1.1494-0.041,1.8105-0.0752l0.1992,0.1992v0.9023l-0.1992,0.2383
		c-0.9912,0.0332-1.7939,0.083-2.4053,0.1494c-0.6123,0.0664-1.1084,0.1494-1.4883,0.249
		c-0.3809,0.0986-0.6699,0.2158-0.8682,0.3477c-0.1982,0.1328-0.3643,0.2988-0.4961,0.4971
		c-0.2646,0.6299-0.4141,1.6494-0.4463,3.0586C464.3032,252.7159,464.2866,254.5646,464.2866,256.8517z"/>
</g>
</svg>
