<?xml version="1.0" encoding="utf-8"?>
<!-- Generator: Adobe Illustrator 22.1.0, SVG Export Plug-In . SVG Version: 6.00 Build 0)  -->
<svg version="1.1" id="レイヤー_1" xmlns="http://www.w3.org/2000/svg" xmlns:xlink="http://www.w3.org/1999/xlink" x="0px"
	 y="0px" viewBox="0 0 1100 860" enable-background="new 0 0 1100 860" xml:space="preserve">
<path fill="#F4BB2C" d="M748.464,310.526c23.972,35.821,39.696,75.287,47.141,117.74c2.198,12.534,17.541,19.585,28.965,16.446
	c13.232-3.636,18.65-16.395,16.446-28.965c-8.059-45.956-25.942-90.218-51.888-128.989c-7.064-10.556-20.766-15.144-32.216-8.447
	C746.433,284.439,741.359,299.91,748.464,310.526L748.464,310.526z"/>
<path fill="#F4BB2C" d="M781.451,303.046c4.967-5.153,7.876-5.774,15.962-4.871c-2.087-15.417-4.173-30.835-6.26-46.252
	c-7.821,1.825-15.641,3.651-23.462,5.476c6.048,14.346,12.096,28.692,18.144,43.037c8.833-4.349,17.666-8.699,26.5-13.048
	c10.395-5.118,14.034-19.396,9.634-29.404c-4.862-11.06-16.01-16.17-27.778-13.633c-17.747,3.825-35.495,7.65-53.243,11.475
	c4.173,15.137,8.346,30.274,12.519,45.411c25.143-9.777,50.285-19.555,75.428-29.332c15.034-5.847,31.526-16.321,26.255-35.5
	c-4.211-15.322-24.568-24.756-38.263-14.836c-9.393,6.803-12.646,15.3-10.821,26.591c0.051,0.317,0.102,0.634,0.154,0.95
	c2.03,12.564,17.659,19.553,28.965,16.446c13.362-3.672,18.482-16.364,16.446-28.965c-0.051-0.317-0.102-0.634-0.154-0.95
	c-3.607,8.864-7.214,17.728-10.821,26.591c0.264-0.191,0.527-0.382,0.791-0.573c-3.961,1.072-7.923,2.143-11.884,3.215
	c-1.302-0.179-2.605-0.359-3.907-0.538c-4.691-3.607-9.381-7.214-14.072-10.821c0.177,0.345,0.353,0.689,0.53,1.034
	c-0.791-6.048-1.582-12.096-2.374-18.144c-0.221,0.664-0.443,1.329-0.665,1.993c2.019-3.463,4.037-6.927,6.056-10.39
	c6.227-5.27-1.619-0.4-4.017,0.532c-3.508,1.364-7.017,2.729-10.525,4.093c-6.432,2.501-12.864,5.002-19.296,7.504
	c-13.448,5.23-26.897,10.46-40.345,15.689c-11.845,4.606-20.062,15.807-16.446,28.965c3.533,12.855,16.492,19.134,28.965,16.446
	c17.747-3.825,35.495-7.65,53.243-11.475c-6.048-14.346-12.096-28.692-18.144-43.037c-8.833,4.349-17.666,8.699-26.5,13.048
	c-10.395,5.118-14.034,19.396-9.634,29.404c4.803,10.926,16.071,16.366,27.778,13.633c7.821-1.825,15.641-3.651,23.462-5.476
	c11.289-2.635,18.53-14.771,16.866-25.835c-1.863-12.385-11.134-19.078-23.126-20.417c-18.235-2.036-36.663,5.594-49.262,18.665
	C727.112,291.574,760.37,324.917,781.451,303.046L781.451,303.046z"/>
<path fill="#F4BB2C" d="M804.275,254.382c17.471,66.269,38.307,131.589,62.437,195.733c4.475,11.896,15.904,20.035,28.965,16.446
	c11.416-3.137,20.947-17.001,16.446-28.965c-24.129-64.145-44.966-129.465-62.437-195.733
	C841.967,212.584,796.529,225.001,804.275,254.382L804.275,254.382z"/>
<path fill="#F4BB2C" d="M786.152,289.609c30.748,55.81,54.118,114.944,70.079,176.63c7.586,29.318,53.02,16.89,45.411-12.519
	c-16.931-65.436-42.211-128.683-74.826-187.88C812.188,239.289,771.503,263.021,786.152,289.609L786.152,289.609z"/>
<path fill="#F4BB2C" d="M788.11,318.396c30.038,66.95,60.076,133.9,90.115,200.85c5.206,11.604,22.079,14.377,32.216,8.447
	c11.943-6.985,13.673-20.569,8.447-32.216c-30.038-66.95-60.076-133.9-90.115-200.85c-5.206-11.604-22.079-14.377-32.216-8.447
	C784.614,293.166,782.884,306.749,788.11,318.396L788.11,318.396z"/>
<path fill="#F4BB2C" d="M841.455,370.148c22.645,36.759,45.29,73.517,67.935,110.276c15.868,25.758,56.62,2.132,40.664-23.769
	c-22.645-36.759-45.29-73.517-67.935-110.276C866.25,320.621,825.499,344.247,841.455,370.148L841.455,370.148z"/>
<path fill="#F4BB2C" d="M854.347,387.018c18.95,25.165,41.377,46.3,68.37,62.725c25.959,15.796,49.651-24.915,23.769-40.664
	c-19.688-11.98-37.564-27.356-51.476-45.831c-7.638-10.143-20.333-15.398-32.216-8.447
	C852.801,360.646,846.652,376.798,854.347,387.018L854.347,387.018z"/>
<path fill="#F4BB2C" d="M826.4,326.278c16.057,46.273,36.437,91.005,61.157,133.294c15.287,26.151,56.005,2.475,40.664-23.769
	c-22.707-38.845-41.658-79.534-56.41-122.044c-4.167-12.009-16.13-19.973-28.965-16.446
	C831.178,300.519,822.212,314.209,826.4,326.278L826.4,326.278z"/>
<path fill="#F4BB2C" d="M869.445,389.688c10.14,26.075,24.836,49.378,45.214,68.713c21.982,20.856,55.34-12.388,33.3-33.3
	c-14.231-13.503-25.953-29.546-33.103-47.932c-4.606-11.845-15.807-20.062-28.965-16.446
	C874.583,363.83,864.811,377.77,869.445,389.688L869.445,389.688z"/>
<path fill="#F4BB2C" d="M893.824,398.339c18.394-5.628,36.787-11.256,55.181-16.884c28.897-8.842,16.575-54.313-12.519-45.411
	c-18.394,5.628-36.787,11.256-55.181,16.884C852.408,361.77,864.73,407.241,893.824,398.339L893.824,398.339z"/>
<path fill="#F4BB2C" d="M933.534,421.18c25.326-38.604,38.284-84.776,37.056-130.911c-0.805-30.246-47.901-30.366-47.093,0
	c1.022,38.434-9.544,75.005-30.627,107.142c-6.978,10.636-2.126,26.032,8.447,32.216
	C912.797,436.342,926.539,431.842,933.534,421.18L933.534,421.18z"/>
<path fill="#F4BB2C" d="M874.834,223.734c20.098,48.873,37.436,98.803,51.951,149.614c8.31,29.09,53.764,16.723,45.411-12.519
	c-14.515-50.811-31.852-100.742-51.951-149.614c-4.833-11.753-15.638-20.108-28.965-16.446
	C880.16,197.825,869.967,211.901,874.834,223.734L874.834,223.734z"/>
<path fill="#F4BB2C" d="M900.708,268.371c29.36,61.267,54.151,124.508,74.523,189.319c9.057,28.813,54.535,16.509,45.411-12.519
	c-21.579-68.651-48.172-135.674-79.27-200.568c-5.495-11.467-21.883-14.491-32.216-8.447
	C897.432,243.012,895.193,256.861,900.708,268.371L900.708,268.371z"/>
<path fill="#F4BB2C" d="M905.233,255.513c0.518,0.764,0.994,1.553,1.429,2.367c1.096,2.242,0.862,1.631-0.704-1.832
	c-0.291,0.865,1.136,4.313,1.313,5.366c-0.28-2.087-0.561-4.173-0.841-6.26c0.272,2.325,0.31,4.566,0.113,6.896
	c0.28-2.087,0.561-4.173,0.841-6.26c-0.101,0.917-0.25,1.827-0.447,2.728c-1.204,6.304-0.958,12.45,2.374,18.144
	c2.858,4.884,8.459,9.543,14.072,10.821c11.614,2.645,26.495-3.508,28.965-16.446c2.597-13.601,1.155-27.416-6.451-39.294
	c-6.636-10.363-21.228-15.532-32.216-8.447C903.317,229.978,898.128,244.418,905.233,255.513L905.233,255.513z"/>
<path fill="#F4BB2C" d="M896.931,238.451c27.475,59.617,49.042,121.792,65.093,185.431c7.407,29.368,52.837,16.925,45.411-12.519
	c-17.06-67.64-40.648-133.337-69.84-196.68c-5.323-11.55-22.001-14.423-32.216-8.447
	C893.524,213.169,891.589,226.858,896.931,238.451L896.931,238.451z"/>
<path fill="#F4BB2C" d="M949.305,419.679c10.755,26.115,19.993,52.775,27.703,79.945c8.26,29.108,53.713,16.736,45.411-12.519
	c-7.71-27.17-16.948-53.83-27.703-79.945c-4.839-11.75-15.634-20.11-28.965-16.446C954.636,393.768,944.433,407.847,949.305,419.679
	L949.305,419.679z"/>
<path fill="#F4BB2C" d="M927.607,402.771c5.574,25.347,11.148,50.694,16.723,76.041c13.119-7.637,26.237-15.273,39.356-22.91
	c-2.639-2.657-5.277-5.314-7.916-7.97c-21.387-21.534-54.69,11.763-33.3,33.3c2.639,2.657,5.277,5.314,7.916,7.97
	c17.191,17.309,44.269-0.565,39.356-22.91c-5.574-25.347-11.148-50.694-16.723-76.041c-2.732-12.424-17.164-19.689-28.965-16.446
	C931.238,377.327,924.866,390.309,927.607,402.771L927.607,402.771z"/>
<path fill="#F4BB2C" d="M941.3,453.445c7.413,19.91,19.614,35.739,37.656,47.165c18.477,11.7,38.476-7.546,34.59-26.591
	c-5.073-24.865-10.146-49.731-15.219-74.596c-14.346,6.048-28.692,12.096-43.037,18.144c16.517,23.452,27.72,48.859,33.734,76.906
	c2.428,11.323,14.933,18.506,25.835,16.866c11.841-1.781,19.848-11.141,20.417-23.126c0.804-16.935-5.695-32.216-16.877-44.661
	c-8.502-9.464-24.646-8.654-33.3,0c-9.408,9.408-8.524,23.812,0,33.3c3.091,3.44,3.348,5.794,3.083,11.361
	c15.417-2.087,30.835-4.173,46.252-6.26c-6.762-31.534-19.909-61.785-38.482-88.156c-15.34-21.781-48.517-8.713-43.037,18.144
	c5.073,24.865,10.146,49.731,15.219,74.596c11.53-8.864,23.06-17.728,34.59-26.591c-6.951-4.402-13.268-11.644-16.014-19.02
	c-4.435-11.911-15.933-20.027-28.965-16.446C946.298,427.626,936.841,441.467,941.3,453.445L941.3,453.445z"/>
<path fill="#F4BB2C" d="M971.257,436.604c6.47,12.429,10.887,25.713,13.215,39.552c1.311,7.795,0.354,16.674,4.463,23.696
	c4.219,4.68,5.197,6.07,2.936,4.171c-0.226-0.271-0.451-0.542-0.677-0.813c0.147-0.211,1.836-5.922-1.577-1.269
	c14.346,6.048,28.692,12.096,43.037,18.144c-0.314,0.786-1.971,4.505-3.806,5.029c-9.655-5.482-19.31-10.964-28.965-16.446
	c-0.351-1.458,0.608-2.28,1.408-3.229c-7.542,8.956-9.54,21.251-1.841,30.917c7.294,9.157,19.948,11.995,30.375,6.065
	c30.958-17.606,25.656-56.133,18.521-85.234c-7.999-32.622-21.694-64.079-39.746-92.377c-14.85-23.278-47.693-7.772-43.037,18.144
	c6.565,36.548,13.173,73.09,19.696,109.646c1.01,5.66,2.312,7.741,0.098,11.2c-2.475,3.866-9.959,8.314-14.359,11.038
	c-12.657,7.838-26.264,12.364-40.939,14.767c4.173,15.137,8.346,30.274,12.519,45.411c17.326-6.672,32.595-15.898,45.703-29.186
	c18.407-18.659-5.452-51.584-28.534-36.982c-13.212,8.358-26.357,10.809-41.817,8.99c5.55,13.399,11.1,26.798,16.65,40.197
	c12.259-15.449,26.514-27.118,44.201-35.838c23.655-11.662,7.057-52.196-18.144-43.037c-13.581,4.936-28.12,12.394-42.377,14.781
	c4.173,0,8.346,0,12.519,0c3.503,4.85,7.005,9.699,10.508,14.549c-0.032,0.68-0.064,1.36-0.095,2.039
	c-0.97,2.096-0.972,2.287-0.007,0.574c0.866-1.154,1.019-1.467,0.458-0.939c0.408-0.449,5.166-5.49,4.849-5.243
	c5.432-4.243,11.101-5.925,15.808-6.184c-7.569-5.762-15.137-11.525-22.706-17.287c1.541,5.169,2.9,9.673,2.047,14.942
	c-0.451,2.786-1.314,3.849-3.322,5.732c0.216-0.176,0.432-0.351,0.648-0.527c-2.517,1.47-2.972,1.712-1.365,0.726
	c0.551,0.296,3.074,0.857,3.704,0.996c-3.264-0.718-0.64-2.084-0.521-0.247c0.106,1.622,1.754,3.01,1.202,5.109
	c-11.53,4.691-23.06,9.381-34.59,14.072c2.743,1.732,4.861,2.902,6.926,5.052c-1.259-1.311-0.097-3.797-0.019,0.419
	c-0.127-2.334-0.139-2.04-0.035,0.882c0.45-1.821,0.484-1.897,0.103-0.226c-0.233,1.206-0.557,2.389-0.973,3.547
	c0.768-1.85,0.497-1.51-0.813,1.02c1.912-2.973-2.598,1.839-0.292,0.436c-2.446,1.489-3.005,2.085-6.939,2.666
	c3.177-0.469-5.013-0.218-4.713-0.185c3.561,0.397-6.835-2.1-4.141-0.936c2.816,2.816,5.632,5.632,8.447,8.447
	c1.883,2.739,0.712,7.202-0.846,9.843c1.447-2.452-1.937,3.318-2.147,2.825c-0.019-0.045,5.765-0.181,7.828,0.035
	c-3.947-0.413,2.493,0.64,2.355,0.742c1.326-0.984,0.584,1.591-1.158-0.751c-3.562-4.79-3.325-9.151-0.422-13.662
	c0.995-1.547-2.529,1.371-0.919,0.668c0.531-0.232-3.167-0.792-0.306-0.049c4.106,1.065-0.134-0.698-0.501-0.99
	c-5.778-4.594-8.941-10.917-13.108-18.202c-8.864,11.53-17.728,23.06-26.591,34.59c0.907,0.316,4.62,2.046,5.593,2.731
	c0.998-0.411,1.797,0.255,2.397,1.999c3.106,3.34,2.926,2.87-0.54-1.41c0-4.173,0-8.346,0-12.519
	c3.022-4.365,3.277-4.909,0.766-1.631c-1.227,1.589-2.455,3.177-3.682,4.766c-1.799,2.876-3.187,6.118-4.056,9.402
	c-2.089,7.893-1.121,16.097,1.932,23.539c5.383,13.119,18.975,24.361,33.922,22.387c17.289-2.284,29.867-18.329,20.332-35.431
	c-27.305-48.974-46.003-103.193-53.342-158.882c-14.626,3.961-29.252,7.923-43.878,11.884
	c22.457,33.982,28.75,74.699,34.991,114.188c13.118-7.637,26.237-15.273,39.356-22.91c-23.478-26.176-38.101-58.159-44.316-92.644
	c-14.346,6.048-28.692,12.096-43.037,18.144c8.731,18.144,13.934,37.707,16.665,57.621c13.118-7.637,26.237-15.273,39.355-22.91
	c-6.527-6.244-9.731-12.363-11.647-21.321c-15.137,4.173-30.274,8.346-45.411,12.519c6.353,26.885,14.62,53.194,24.787,78.881
	c4.677,11.817,15.754,20.076,28.965,16.446c11.249-3.091,21.153-17.073,16.446-28.965c-10.167-25.687-18.434-51.996-24.787-78.881
	c-2.925-12.379-17.027-19.727-28.965-16.446c-12.87,3.537-19.115,16.488-16.446,28.965c3.444,16.1,11.883,30.742,23.758,42.102
	c7.566,7.238,19.377,9.038,28.534,3.682c9.8-5.732,12.262-16.087,10.821-26.591c-3.311-24.141-10.861-46.942-21.413-68.87
	c-5.022-10.436-19.471-14.001-29.404-9.634c-11.327,4.979-15.775,15.896-13.633,27.778c7.643,42.41,27.735,81.435,56.427,113.425
	c6.911,7.705,19.881,8.743,28.534,3.682c9.675-5.659,12.472-16.146,10.821-26.591c-6.878-43.525-14.998-88-39.738-125.437
	c-5.795-8.769-16.134-13.695-26.591-10.821c-9.062,2.49-18.614,12.638-17.287,22.706c8.479,64.339,28.117,125.876,59.771,182.651
	c6.777-11.81,13.555-23.621,20.332-35.431c-6.658,0.879,7.894,2.465,9.664,7.365c0.996,3.287,0.507,6.15-1.465,8.59
	c-1.922,2.958-1.809,3.026,0.337,0.205c7.408-8.017,10.739-19.372,7.555-30.02c-5.168-17.282-24.057-28.202-39.904-33.721
	c-20.016-6.97-36.282,17.649-26.591,34.59c14.192,24.809,38.199,51.205,69.96,39.804c15.206-5.459,27.571-18.108,29.582-34.51
	c2.263-18.451-9.83-33.8-26.493-40.204c-29.27-11.249-76.924,3.992-68.586,42.797c7.769,36.157,61.307,32.438,83.534,13.272
	c12.214-10.532,19.4-27.644,18.113-43.76c-1.607-20.113-13.568-33.037-30.001-43.411c-12.817-8.091-30.825-0.259-34.59,14.072
	c-8.631,32.851,24.156,61.938,55.963,51.282c32.867-11.01,41.468-47.811,32.466-78.014c-2.827-9.486-12.318-17.858-22.706-17.287
	c-28.841,1.587-62.745,20.499-67.447,51.606c-2.842,18.802,9.616,36.943,29.666,36.943c8.663,0,17.116-4.166,25.058-7.053
	c7.86-2.856,15.719-5.713,23.579-8.569c-6.048-14.346-12.096-28.692-18.144-43.037c-20.745,10.227-39.352,25.079-53.732,43.202
	c-13.313,16.778-4.418,37.718,16.65,40.197c22.768,2.678,46.272-3.201,65.586-15.42c-9.511-12.327-19.023-24.655-28.534-36.982
	c-7.161,7.259-15.481,13.439-24.922,17.075c-28.421,10.945-17.488,50.323,12.519,45.411c19.316-3.162,38.433-10.434,54.822-21.191
	c18.448-12.109,35.877-28.127,36.141-51.834c0.115-10.328-2.693-20.923-4.512-31.047c-1.97-10.965-3.939-21.929-5.909-32.894
	c-4.049-22.538-8.097-45.077-12.146-67.615c-14.346,6.048-28.692,12.096-43.037,18.144c13.616,21.344,24.346,43.973,31.525,68.271
	c1.73,5.854,3.279,11.762,4.625,17.716c0.734,3.247,1.418,6.508,2.035,9.779c-0.097-0.513,1.052,8.483,0.739,4.339
	c0.191,2.534,0.168,5.017,0.27,7.55c0.197,4.886,0.04-1.631-0.307,3.488c-0.205,0.761-0.409,1.523-0.614,2.284
	c0.876-1.668,0.926-1.787,0.15-0.356c-0.848,1.412-0.702,1.328,0.439-0.252c1.975-1.197,1.728-1.077-0.743,0.36
	c9.511,12.327,19.023,24.655,28.534,36.982c10.493-12.461,14.569-26.516,10.703-42.59c-2.954-12.283-17.027-19.86-28.965-16.446
	c-14.743,4.217-23.524,13.946-29.086,27.862c-4.292,10.738,3.811,23.827,13.633,27.778c11.603,4.667,22.265,0.099,29.404-9.634
	c12.549-17.111,8.226-38.998-4.364-54.392c2.299,5.55,4.598,11.1,6.897,16.65c-1.732-26.569-8.592-51.505-20.893-75.133
	c-5.87-11.276-21.625-14.643-32.216-8.447C968.268,411.076,965.364,425.284,971.257,436.604L971.257,436.604z"/>
<path fill="#F4BB2C" d="M896.175,544.986c-29.4-49.51-50.558-102.795-63.362-158.934c-2.829-12.402-17.096-19.708-28.965-16.446
	c-12.739,3.501-19.283,16.526-16.446,28.965c13.641,59.808,36.791,117.441,68.11,170.183
	C870.972,594.792,911.7,571.131,896.175,544.986L896.175,544.986z"/>
<g>
	<g>
		<path fill="#F4BB2C" d="M823.771,402.92c12.317,0,24.116-10.83,23.547-23.547c-0.571-12.758-10.346-23.547-23.547-23.547
			c-12.317,0-24.116,10.83-23.547,23.547C800.796,392.131,810.57,402.92,823.771,402.92L823.771,402.92z"/>
	</g>
</g>
<path fill="#EF821B" d="M882.568,589.616c40.08-14.597,78.939-32.503,115.833-53.93c3.218-1.869,17.402-8.747,11.975-13.564
	c-4.843-4.298-24.425,5.627-28.214,7.828c-29.735,17.27-60.626,32.008-92.945,43.779c-5.903,2.15-23.649,8.146-24.741,15.659
	C863.438,596.523,880.418,590.399,882.568,589.616L882.568,589.616z"/>
<polygon fill="#FFFFFF" points="723.641,262.757 837.826,213.972 900.004,357.879 919.022,341.002 866.607,201.536 898.584,192.537 
	907.775,208.417 933.151,197.452 950.579,223.848 989.803,212.679 991.418,167.535 962.027,130.585 911.735,147.884 
	868.267,115.858 830.965,136.752 803.39,161.65 769.764,180.107 767.828,210.062 749.527,220.029 749.527,242.636 "/>
<path fill="#EF821B" d="M894.024,603.636c39.746-18.461,79.492-36.922,119.239-55.383c24.761-11.501,4.159-53.847-20.654-42.322
	c-39.746,18.461-79.492,36.922-119.239,55.383C848.609,572.815,869.211,615.161,894.024,603.636L894.024,603.636z"/>
<path fill="#EF821B" d="M905.662,597.686c57.696-17.356,113.084-41.509,164.78-72.474c8.963-5.369,1.3-13.399-5.154-16.789
	c-8.383-4.404-23.467-7.901-32.366-2.571c-49.217,29.48-101.699,52.975-156.647,69.504c-8.808,2.65-10.793,9.668-3.223,15.586
	C881.101,597.234,895.678,600.69,905.662,597.686L905.662,597.686z"/>
<path fill="#EF821B" d="M996.387,552.621c22.669-9.579,43.512-22.732,62.101-38.849c6.121-5.307-10.839-10.284-12.779-10.738
	c-8.262-1.934-21.848-3.918-29.58,0.865c-46.081,28.504-104.639,23.722-149.084,56.477c14.963,2.71,29.925,5.419,44.888,8.129
	c1.119-2.277,2.283-4.427,4.09-6.254c0.888-0.898,5.414-3.24,1.97-2.657c-10.389-4.609-20.778-9.218-31.167-13.828
	c-8.548,4.495-17.096,8.989-25.645,13.484c-9.058,4.763,2.708,10.41,7.482,11.837c9.983,2.982,22.513,3.824,32.348-0.219
	c51.798-21.293,102.807-44.425,152.952-69.362c9.245-4.597-2.892-10.465-7.482-11.837c-9.379-2.802-23.149-4.355-32.348,0.219
	c-50.145,24.937-101.155,48.069-152.952,69.362c13.277,3.872,26.554,7.745,39.831,11.617c8.548-4.495,17.096-8.989,25.645-13.484
	c6.549-3.444,1.88-7.994-2.84-10.165c-8.221-3.783-19.438-5.166-28.327-3.662c-11.57,1.957-22.924,5.59-28.444,16.821
	c-3.736,7.603,10.514,10.46,15.547,11.384c9.154,1.68,21.407,2.592,29.341-3.255c20.541-15.138,45.898-20.809,70.251-26.628
	c25.424-6.075,51.319-12.469,73.776-26.36c-14.12-3.291-28.24-6.582-42.359-9.873c-17.126,14.849-36.169,26.54-57.044,35.361
	c-9.724,4.109,3.378,10.61,7.482,11.837C973.94,555.798,986.636,556.741,996.387,552.621L996.387,552.621z"/>
<path fill="#EF821B" d="M951.372,572.907c22.143-9.79,43.015-21.874,62.53-36.204c1.513-1.111-18.571-11.946-20.107-12.649
	c-4.014-1.836-18.262-10.213-22.718-6.941c-19.515,14.329-40.386,26.414-62.53,36.204c-0.786,0.348,18.329,11.835,20.107,12.649
	C933.814,568.326,945.48,575.512,951.372,572.907L951.372,572.907z"/>
<path fill="#EF821B" d="M894.986,213.419c8.133,6.941,12.339,15.956,13.313,26.53c15.354-3.265,30.709-6.53,46.063-9.795
	c-3.745-7.559-7.49-15.117-11.235-22.676c-4.929-9.949-48.579,4.317-46.063,9.795c25.077,54.607,48.359,110.011,69.815,166.14
	c3.73,9.758,48.526-3.353,46.063-9.795c-21.456-56.129-44.738-111.533-69.815-166.14c-15.354,3.265-30.709,6.53-46.063,9.795
	c3.745,7.559,7.49,15.117,11.235,22.676c4.143,8.361,46.9-0.714,46.063-9.795c-1.093-11.864-6.613-21.619-15.624-29.31
	c-6.039-5.154-22.647,0.015-29.206,1.914C906.882,203.527,889.65,208.866,894.986,213.419L894.986,213.419z"/>
<path fill="#EF821B" d="M910.832,243.467c28.664,65.648,55.642,132.015,80.912,199.044c4.17,11.061,16.673,19.375,28.602,16.535
	c11.703-2.786,16.863-15.425,12.793-26.221c-25.269-67.028-52.248-133.395-80.912-199.044
	c-4.745-10.867-16.264-19.472-28.602-16.535C912.384,219.921,906.191,232.838,910.832,243.467L910.832,243.467z"/>
<path fill="#EF821B" d="M959.302,371.515c19.376,50.37,40.388,100.083,63.011,149.08c6.288,13.619,48.035-8.027,41.252-22.717
	c-22.623-48.997-43.635-98.71-63.011-149.08C995.378,335.343,953.359,356.066,959.302,371.515L959.302,371.515z"/>
<path fill="#EF821B" d="M1002.063,448.559c4.691,20.981,12.439,41.306,22.835,60.122c5.006,9.061,16.043,19.024,27.309,15.368
	c10.833-3.515,11.033-17.526,6.38-25.948c-8.627-15.616-14.698-31.739-18.591-49.147c-2.384-10.663-13.455-21.516-24.749-21.52
	C1003.402,427.431,999.873,438.768,1002.063,448.559L1002.063,448.559z"/>
<path fill="#EF821B" d="M1055.368,481.428c-21.376-32.675-38.153-68.379-50.805-105.276c-8.045-23.46-52.909-10.689-44.14,14.882
	c13.88,40.476,33.061,78.302,56.464,114.076c6.505,9.943,23.867,9.255,32.756,3.733
	C1060.195,502.288,1061.825,491.299,1055.368,481.428L1055.368,481.428z"/>
<g>
	<g>
		<path fill="#EF821B" d="M911.559,237.86c9.913,0,4.179-16.66,1.918-21.012c-4.012-7.723-12.179-19.983-22.27-19.983
			c-9.913,0-4.179,16.66-1.918,21.012C893.3,225.6,901.467,237.86,911.559,237.86L911.559,237.86z"/>
	</g>
</g>
<g>
	<g>
		<path fill="#EF821B" d="M913.592,236.731c3.628,0,5.016-4.569,5.058-7.268c0.073-4.64-2.608-10.364-5.053-14.085
			c-5.404-8.224-13.848-17.384-24.424-17.384c-3.628,0-5.016,4.569-5.058,7.268c-0.073,4.64,2.608,10.364,5.053,14.085
			C894.572,227.571,903.016,236.731,913.592,236.731L913.592,236.731z"/>
	</g>
</g>
<path fill="#EF821B" d="M876.764,217.488c14.854,37.885,29.709,75.769,44.563,113.654c7.202,18.368,14.386,36.744,21.607,55.105
	c6.574,16.719,13.72,33.373,25.56,47.125c13.435,15.604,55.152-5.647,39.819-23.455c-10.811-12.556-16.443-27.831-22.422-43.07
	c-7.205-18.367-14.404-36.736-21.607-55.105c-14.404-36.736-28.809-73.473-43.213-110.209
	C913.124,181.262,868.858,197.325,876.764,217.488L876.764,217.488z"/>
<path fill="#EF821B" d="M956.743,378.988c12.308,47.706,30.569,93.5,55.354,136.104c5.66,9.73,15.989,19.185,28.258,15.041
	c10.569-3.569,14.913-18.039,9.383-27.545c-22.744-39.097-40.466-80.919-51.771-124.738c-2.907-11.269-12.348-22.027-24.894-21.614
	C961.721,356.611,953.933,368.094,956.743,378.988L956.743,378.988z"/>
<path fill="#EF821B" d="M978.773,433.112c7.844,24.25,19.273,46.038,34.686,66.342c6.314,8.317,19.507,14.33,29.78,14.902
	c9.514,0.53,11.659-5.153,6.186-12.363c-12.102-15.943-21.555-34.161-27.716-53.207c-3.14-9.708-13.714-15.762-22.848-19.068
	C996.025,428.691,975.812,423.96,978.773,433.112L978.773,433.112z"/>
<path fill="#EF821B" d="M958.891,404.049c14.28,33.789,20.678,77.555-6.252,107.18c-6.542,7.196,4.067,15.264,9.951,18.704
	c5.714,3.34,23.413,11.131,29.633,4.289c32.19-35.412,25.672-83.554,8.391-124.44c-3.986-9.43-18.873-14.923-28.16-16.127
	C964.966,392.683,954.834,394.449,958.891,404.049L958.891,404.049z"/>
<path fill="#FBE2C7" d="M982.88,219.028c16.638-19.955,15.391-53.151-10.262-65.498c-5.777-2.78-12.965,0.087-17.758,3.731
	c-2.465,1.874-10.071,9.999-4.267,12.793c14.479,6.969,25.422,30.275,13.59,44.465c-3.135,3.76-5.741,9.28,0.44,11.403
	C970.201,227.837,979.386,223.219,982.88,219.028L982.88,219.028z"/>
<path fill="#FBE2C7" d="M939.996,162.12c-1.476-0.085-0.42-0.08,0.428,0.135c0.868,0.219,1.765,0.363,2.611,0.666
	c-1.978-0.707,3.173,1.971,2.545,1.517c-0.726-0.525,1.085,0.982,1.26,1.139c0.188,0.169,1.791,1.782,1.258,1.164
	c-0.332-0.385,2.476,4.027,1.798,2.492c2.905,6.581,9.61,10.696,16.962,8.347c5.765-1.842,13.36-8.88,10.275-15.869
	c-6.741-15.267-19.68-23.987-36.344-24.941c-7.013-0.401-14.221,6.103-14.417,13.083
	C926.151,157.731,933.077,161.724,939.996,162.12L939.996,162.12z"/>
<path fill="#FBE2C7" d="M869.94,138.749c16.204-0.555,32.173,5.545,42.704,18.104c3.25,3.875,4.473,2.383,2.941-1.853
	c-2.219-6.135-6.494-11.948-10.65-16.905c-12.686-15.13-30.15-23.935-50.057-23.253c-1.733,0.059,4.922,12.425,5.451,13.264
	C861.991,130.745,866.115,138.88,869.94,138.749L869.94,138.749z"/>
<path fill="#FBE2C7" d="M954.915,233.419c13.081,26.475,24.778,53.567,35.078,81.243c3.529,9.482,29.148-2.266,25.338-12.506
	c-10.299-27.676-21.997-54.768-35.078-81.243C975.582,211.46,950.215,223.906,954.915,233.419L954.915,233.419z"/>
<path fill="#FBE2C7" d="M898.584,192.537c0.88,1.727,1.76,3.453,2.639,5.18c1.31,2.57,3.174,4.818,5.165,6.887
	c2.447,2.543,5.35,5.11,8.351,6.994c0.837,0.495,1.674,0.989,2.51,1.484c1.173,0.697,2.433,1.106,3.781,1.225
	c0.341-0.129,0.683-0.258,1.024-0.386c0.425-0.896,0.357-1.783-0.205-2.661c-0.88-1.727-1.76-3.453-2.639-5.18
	c-1.31-2.57-3.174-4.818-5.165-6.887c-2.447-2.543-5.35-5.11-8.351-6.994c-0.837-0.495-1.674-0.989-2.51-1.484
	c-1.173-0.697-2.433-1.106-3.781-1.225c-0.341,0.129-0.683,0.257-1.024,0.386C897.955,190.772,898.023,191.659,898.584,192.537
	L898.584,192.537z"/>
<path fill="#FBE2C7" d="M849.295,198.604c19.852,35.755,36.504,73.131,50.136,111.683c2.181,6.169,9.499,11.623,16.045,11.906
	c6.272,0.272,9.637-4.227,7.539-10.16c-14.347-40.575-32.173-79.716-53.061-117.338
	C863.729,183.484,840.316,182.431,849.295,198.604L849.295,198.604z"/>
<path fill="#FBE2C7" d="M869.601,244.737c13.101,34.971,26.931,69.656,41.486,104.047c3.217,7.6,30.957,5.856,27.295-2.797
	c-14.556-34.391-28.386-69.076-41.486-104.047C894.051,234.344,866.233,235.746,869.601,244.737L869.601,244.737z"/>
<path fill="#EF821B" d="M892.127,228.604c10.706,31.965,21.411,63.93,32.117,95.895c2.738,8.175,11.976,21.676,22.026,20.81
	c10.765-0.927,7.668-15.648,5.528-22.037c-10.706-31.965-21.411-63.93-32.117-95.895c-2.738-8.175-11.976-21.676-22.026-20.81
	C886.89,207.493,889.987,222.214,892.127,228.604L892.127,228.604z"/>
<path fill="#EF821B" d="M895.598,281.773c5.952,29.49,25.729,49.368,17.855,88.471c-1.92,9.536,21.566,3.54,26.491,1.282
	c8.08-3.704,18.337-10.902,16.317-20.909c-5.952-29.49-11.904-58.981-17.855-88.471c-1.924-9.536-21.566-3.54-26.491-1.282
	C903.836,264.569,893.578,271.766,895.598,281.773L895.598,281.773z"/>
<path fill="#EF821B" d="M938.719,297.514c-5.172-14.743-10.344-29.487-15.516-44.23c-0.855-2.436-6.274-6.247-7.886-7.575
	c-4.653-3.834-9.592-7.424-14.602-10.773c-2.078-1.389-16.153-9.484-15.259-6.936c5.172,14.743,10.344,29.487,15.516,44.23
	c0.855,2.436,6.274,6.247,7.886,7.575c4.653,3.834,9.592,7.424,14.602,10.773C925.539,291.967,939.613,300.062,938.719,297.514
	L938.719,297.514z"/>
<path fill="#EF821B" d="M883.614,242.252c6.21,16.413,12.42,32.826,18.63,49.238c5.047,13.339,50.254,1.985,46.35-8.333
	c-6.21-16.413-12.42-32.826-18.63-49.238C924.917,220.58,879.71,231.934,883.614,242.252L883.614,242.252z"/>
<path fill="#F7C7AD" d="M559.996,439.518c-5.91-6.133-12.373-13.804-12.916-22.732c-0.31-5.092,2.467-12.965,8.542-13.335
	c18.067-1.099,18.192-29.363,0-28.256c-18.377,1.118-32.941,14.712-36.072,32.889c-3.41,19.795,7.209,37.656,20.465,51.414
	C552.657,472.618,572.623,452.623,559.996,439.518L559.996,439.518z"/>
<path fill="#F7C7AD" d="M550.578,425.485c-1.208-13.459,9.846-23.589,23.132-21.971c7.587,0.924,14.128-7.155,14.128-14.128
	c0-8.404-6.519-13.201-14.128-14.128c-27.53-3.353-53.851,22.794-51.388,50.227c0.682,7.6,6.005,14.128,14.128,14.128
	C543.563,439.613,551.264,433.129,550.578,425.485L550.578,425.485z"/>
<path fill="#F7C7AD" d="M536.891,455.092c3.298,10.242,8.935,17.444,17.481,23.851c10.247,7.683,23.816-4.98,20.754-15.955
	c-5.948-21.316-11.896-42.633-17.844-63.949c-9.082,2.504-18.164,5.008-27.247,7.512c9.355,27.192,18.71,54.384,28.066,81.576
	c5.865,17.049,32.887,9.919,27.247-7.512c-8.591-26.552-13.405-53.724-14.175-81.625c-5.961,4.541-11.923,9.082-17.884,13.623
	c4.066,0.699,5.529,9.785,7.037,14.574c2.969,9.432,5.939,18.865,8.908,28.297c5.939,18.865,11.877,37.73,17.816,56.595
	c9.082-2.504,18.164-5.008,27.247-7.512c-12.484-33.806-24.815-67.718-32.023-103.114c-8.607,3.629-17.215,7.258-25.822,10.886
	c15.192,31.479,26.777,64.399,35.041,98.356c8.607-3.629,17.215-7.258,25.822-10.886c-15.425-30.415-25.047-63.57-28.081-97.553
	c-8.776,2.377-17.551,4.754-26.327,7.131c15.39,31.278,27.668,63.8,37.033,97.375c9.082-2.504,18.164-5.008,27.247-7.512
	c-10.066-33.91-20.131-67.82-30.197-101.73c-8.607,3.629-17.215,7.258-25.822,10.886c12.208,26.25,24.416,52.5,36.624,78.75
	c8.133-4.754,16.265-9.508,24.398-14.261c-11.839-21.173-20.22-43.566-25.452-67.249c-8.607,3.629-17.215,7.258-25.822,10.886
	c12.536,22.413,22.006,45.957,28.586,70.779c3.943,14.874,29.921,12.407,27.751-3.756c-2.869-21.367-5.738-42.734-8.606-64.101
	c-8.776,2.377-17.551,4.754-26.327,7.131c5.192,11.808,10.383,23.616,15.575,35.424c6.38,14.511,31.44,4.12,25.822-10.886
	c-7.465-19.943-14.93-39.887-22.395-59.83c-3.167-8.461-5.664-18.017-11.12-25.314c-4.92-6.582-13.68-9.718-16.795-17.637
	c-3.494-8.884-16.085-15.219-23.613-6.234c-4.78,5.704-9.615,9.762-16.171,13.289c4.754,8.133,9.508,16.265,14.261,24.398
	c3.9-2.768-0.67-0.983,1.015-0.613c1.641,0.361,0.775-2.604,0.55,1.096c9.25-1.252,18.501-2.504,27.751-3.756
	c-4.071-11.061-7.405-22.345-9.725-33.908c-1.025-5.11-1.875-10.253-2.453-15.434c-0.285-2.552,0.198-6.4-0.784-8.793
	c-0.018-0.785-0.035-1.57-0.053-2.355c0.644-3.267-1.082-2.033-5.179,3.702c-2.377-0.643-4.754-1.286-7.131-1.929
	c7.067,3.627,12.284,12.071,15.518,19.105c1.641,3.57,1.864,7.551,3.198,11.04c0.897,2.346-0.626,0.947,0.182,1.72
	c0.72-0.751,1.586-0.716,2.598,0.106c2.16,1.109,2.592,0.813,1.295-0.888c0.407-2.249-2.191-6.788-2.54-9.229
	c-0.21-1.467,0.484-5.117-0.158-6.2c-0.571-0.964-0.165,0.623-1.032,0.285c-3.969-1.547-0.165,1.037-0.156,1.074
	c0.781,3.527,2.768,7.051,3.488,10.844c4.541-5.961,9.082-11.923,13.623-17.884c0.575,0.658,1.15,1.315,1.725,1.972
	c-10.142-14.972-34.634-0.849-24.398,14.261c5.277,7.791,12.982,12.807,22.673,12.022c9.648-0.781,15.431-8.36,13.623-17.884
	c-3.044-16.04-13.019-31.633-30.93-32.411c-15.165-0.659-25.397,12.034-26.761,26.087c-1.164,11.995,2.372,28.612,10.796,37.702
	c11.28,12.171,30.37,9.202,39.24-4.235c9.509-14.405,3.627-32.98-4.21-46.765c-7.044-12.389-20.87-30.701-37.224-26.837
	c-17.315,4.091-17.071,23.343-15.471,37.242c2.174,18.893,6.426,37.249,12.996,55.098c5.478,14.884,26.755,12.615,27.751-3.756
	c1.327-21.809-25.991-37.72-44.082-24.882c-14.644,10.393-2.016,33.155,14.261,24.398c8.375-4.505,15.782-10.418,21.89-17.707
	c-7.871-2.078-15.742-4.156-23.613-6.234c3.45,8.772,8.013,16.202,15.461,22.103c2.952,2.339,5.464,3.655,7.237,7
	c2.244,4.233,3.543,9.381,5.215,13.848c7.465,19.943,14.93,39.887,22.395,59.83c8.607-3.629,17.215-7.258,25.822-10.886
	c-5.192-11.808-10.383-23.616-15.575-35.424c-5.476-12.454-28.165-6.559-26.327,7.131c2.869,21.367,5.738,42.734,8.606,64.101
	c9.25-1.252,18.501-2.504,27.751-3.756c-7.174-27.063-17.768-53.095-31.434-77.528c-8.046-14.385-29.2-4.404-25.822,10.886
	c5.731,25.942,15.337,50.814,28.3,73.999c9.014,16.121,31.945,1.966,24.398-14.261c-12.208-26.25-24.416-52.5-36.624-78.75
	c-6.8-14.622-30.318-4.26-25.822,10.886c10.066,33.91,20.131,67.82,30.197,101.73c5.161,17.388,32.153,10.077,27.247-7.512
	c-10.012-35.892-23.432-70.693-39.882-104.125c-6.039-12.273-27.564-6.732-26.327,7.131c3.5,39.206,14.129,76.696,31.939,111.815
	c7.432,14.655,29.509,4.263,25.822-10.886c-8.841-36.327-21.643-71.44-37.889-105.105c-7.308-15.144-28.852-3.992-25.822,10.886
	c7.208,35.395,19.539,69.308,32.023,103.114c6.198,16.783,32.786,10.085,27.247-7.512c-7.423-23.581-14.846-47.162-22.27-70.743
	c-5.374-17.072-9.706-44.759-31.226-48.457c-8.681-1.492-18.158,3.697-17.884,13.623c0.836,30.294,5.853,60.299,15.184,89.136
	c9.082-2.504,18.164-5.008,27.247-7.512c-9.355-27.192-18.71-54.384-28.066-81.576c-5.857-17.023-32.188-10.197-27.247,7.512
	c5.948,21.316,11.896,42.633,17.844,63.949c6.918-5.318,13.836-10.637,20.754-15.955c-2.313-1.734-3.635-4.294-4.495-6.964
	C558.586,430.341,531.295,437.713,536.891,455.092L536.891,455.092z"/>
<path fill="#F7C7AD" d="M666.806,398.669c-2.331-7.974,5.503-13.916,12.483-15.8c10.745-2.901,21.271,0.075,31.943,1.127
	c3.862,0.381,3.24,5.228,3.017-3.272c-0.201-7.635-1.209-3.907-5.328-1.524c-4.297,2.486-8.731,4.5-13.466,5.994
	c-10.264,3.241-21.262,4.519-31.97,2.975c3.289,5.793,6.578,11.586,9.868,17.379c2.411-7.184,12.288-12.156,19.44-8.831
	c-0.953-7.396-1.906-14.793-2.859-22.189c-5.681,5.784-12.2,10.446-19.914,13.117c-1.159,0.401-11.368,1.826-11.898,2.622
	c-0.169,0.253,4.68,5.367,4.517,5.383c0.78-0.074,3.59-2.776,4.42-3.304c15.6-9.909,34.639-15.526,52.926-17.329
	c-4.541-3.457-9.082-6.915-13.623-10.372c2.115-2.883,4.23-5.765,6.346-8.648c2.377,0.643,4.754,1.286,7.131,1.929
	c-0.549-0.248-1.098-0.495-1.646-0.743c-11.224-5.064-23.549,3.233-20.754,15.955c1.053,4.792,2.106,9.585,3.159,14.377
	c3.901,17.752,31.147,10.24,27.247-7.512c-1.053-4.792-2.106-9.585-3.159-14.377c-6.918,5.318-13.836,10.637-20.754,15.955
	c8.281,3.736,16.784,3.561,23.792-2.785c5.888-5.331,8.868-14.073,5.886-21.664c-2.111-5.372-7.098-11.016-13.623-10.372
	c-17.922,1.767-34.919,5.902-51.429,13.148c-14.174,6.221-32.175,15.019-33.853,32.424c-1.848,19.167,14.29,27.9,31.22,25.297
	c16.826-2.588,32.115-11.03,43.992-23.121c5.876-5.982,5.588-18.262-2.859-22.189c-24.157-11.23-52.374,0.169-60.948,25.718
	c-2.212,6.591,2.582,16.329,9.868,17.379c21.902,3.158,43.275,0.441,63.151-9.635c8.452-4.285,18.034-9.968,20.72-19.692
	c2.805-10.157-2.719-19.591-11.208-24.966c-8.403-5.321-18.595-6.202-28.243-7.132c-11.115-1.071-22.781-0.824-33.349,3.159
	c-19.593,7.384-33.639,27.984-27.485,49.031C644.652,423.597,671.928,416.186,666.806,398.669L666.806,398.669z"/>
<path fill="#F7C7AD" d="M706.475,347.621c-12.641,13.277-23.781,31.822-12.348,49.605c2.179,3.39,5.007,5.917,8.263,8.234
	c1.029,0.732,7.279,5.713,8.264,5.257c-0.963,0.446-1.674-5.042-1.863-5.072c-0.198-0.032-2.529,3.937-2.908,4.413
	c-3.026,3.807-6.777,6.491-10.949,8.877c6.918,5.318,13.836,10.637,20.754,15.955c2.077-5.41,6.858-8.041,12.182-9.258
	c-5.793-3.289-11.586-6.578-17.379-9.868c0.957,4.929-6.31,9.543-9.686,11.555c-1.342,0.8-3.068,1.381-4.298,2.319
	c-0.638,0.342-1.306,0.609-2.006,0.802c-1.971,0.316-1.732,0.896,0.719,1.741c-1.161-4.126,3.908,4.609,1.712,3.133
	c-0.599,0.956-0.569,1.132,0.091,0.527c0.297-0.306,0.657-0.477,1.083-0.514c3.418,1.437,7.873,1.47,8.69,6.717
	c0.845,5.432-4.046,6.679-7.906,8.288c-0.253,0.105-1.819-0.205-1.865-0.149c-0.892,1.087,0.635,2.359,1.648,2.302
	c2.053-0.115,3.657-4.102,6.558-2.677c2.26,1.11-5.827,3.771-7.388,4.262c-1.286,0.405-4.467,0.605-5.393,1.457
	c-0.49,0.45,1.464,1.832,1.529,2.053c0.058,0.196,0.609-0.41,0.217-0.504c0.329-0.569,0.659-1.138,0.988-1.706
	c-1.242,1.075-1.265,1.259-0.07,0.552c1.445-0.557,2.416-0.723,3.983-0.803c3.62-0.185,7.706,1.135,10.988,2.545
	c-1.689-6.443-3.379-12.886-5.068-19.33c-1.109,2.14-0.489,1.77-3.799,1.328c-7.576-1.013-14.128,7.218-14.128,14.128
	c0,8.475,6.529,13.112,14.128,14.128c11.564,1.546,22.914-5.13,28.198-15.323c3.179-6.132,2.229-16.196-5.068-19.33
	c-17.275-7.419-41.895-11.246-53.561,7.842c-8.863,14.503-5.019,36.316,12.709,41.725c17.052,5.202,43.63-6.744,49.328-23.958
	c7.037-21.26-13.635-40.614-34.391-36.917c-20.053,3.573-39.438,28.884-22.931,47.175c12.983,14.386,37.119,11.058,49.692-1.988
	c13.781-14.3,12.42-36.914-1.908-50.372c-14.044-13.191-39.664-13.718-50.414,4.166c-12.708,21.141,8.064,44.192,30.414,36.299
	c20.981-7.41,39.03-25.417,34.453-48.987c-1.5-7.724-10.405-11.462-17.379-9.868c-15.503,3.544-26.334,14.448-31.917,28.993
	c-4.606,12,10.817,21.637,20.754,15.955c14.249-8.148,33.283-26.289,26.447-44.511c-2.829-7.541-9.16-10.951-15.346-15.352
	c-2.465-1.753-2.995-1.011-2.534-4.06c0.686-4.546,5.728-8.696,8.693-11.809C738.993,354.432,719.044,334.419,706.475,347.621
	L706.475,347.621z"/>
<path fill="#F7C7AD" d="M684.778,458.497c0.867-1.733,1.733-3.467,2.6-5.2c1.032-1.622,1.591-3.373,1.677-5.253
	c0.421-1.878,0.336-3.756-0.252-5.634c-0.902-3.277-3.436-6.829-6.493-8.443c-3.279-1.732-7.251-2.601-10.886-1.424
	c-3.372,1.091-6.805,3.215-8.443,6.493c-0.867,1.733-1.733,3.467-2.6,5.2c-1.032,1.622-1.591,3.373-1.677,5.253
	c-0.421,1.878-0.336,3.756,0.252,5.634c0.902,3.277,3.436,6.829,6.493,8.443c3.279,1.732,7.251,2.601,10.886,1.424
	C679.707,463.899,683.14,461.774,684.778,458.497L684.778,458.497z"/>
<path fill="#F7C7AD" d="M690.041,455.942c4.892-8.28,12.932-11.026,22.178-9.862c-3.33-8.039-6.66-16.079-9.99-24.118
	c-1.408,1.19-2.816,2.38-4.224,3.57c6.66,6.66,13.32,13.32,19.98,19.98c3.865-4.188,7.73-8.375,11.596-12.563
	c12.318-13.346-7.614-33.377-19.98-19.98c-3.865,4.188-7.73,8.375-11.596,12.563c-12.488,13.53,6.202,31.623,19.98,19.98
	c1.408-1.19,2.816-2.38,4.224-3.57c10.506-8.878,0.764-22.764-9.99-24.118c-18.772-2.363-37.104,7.825-46.576,23.857
	C656.372,457.371,680.788,471.603,690.041,455.942L690.041,455.942z"/>
<path fill="#F7C7AD" d="M717.608,428.652c0.823,3.712-1.628,5.326-4.543,6.722c4.754,8.133,9.508,16.265,14.261,24.398
	c11.987-6.364,27.793-17.742,31.097-31.798c3.721-15.829-8.164-27.604-20.73-34.814c0,8.133,0,16.265,0,24.398
	c0.465-0.27-0.578-0.833,0.091,0.144c0.792,1.156,1.376,1.121,2.2,2.626c2.263,4.138,1.492,10.63,1.475,15.131
	c3.457-4.541,6.915-9.082,10.372-13.623c1.84,3.877,2.014,8.138,0.521,12.786c-4.066-2.332-8.133-4.665-12.199-6.997
	c-0.758-1.68-0.201-0.035-2.014,0.892c-16.192,8.288-1.911,32.676,14.261,24.398c14.924-7.639,18.673-25.101,12.151-39.552
	c-1.904-4.219-7.701-7.248-12.199-6.997c-14.054,0.785-25.897,12.886-22.299,27.591c2.981,12.184,17.645,19.897,29.289,15.126
	c5.885-2.411,10.346-6.859,10.372-13.623c0.05-13.172-1.245-27.469-11.178-37.238c-9.394-9.239-23.624-11.725-35.105-5.061
	c-9.129,5.299-9.203,19.117,0,24.398c2.351,1.349,5.124,2.675,6.913,4.796c0.693,1.04,0.883,0.923,0.568-0.35
	c-0.509-1.212-1.183-0.721-2.021,1.473c-2.501,1.513-4.522,4.625-6.906,6.455c-2.764,2.122-5.853,3.813-8.921,5.442
	c-16.213,8.608-1.963,32.169,14.261,24.398c14.593-6.989,20.922-23.336,17.529-38.632
	C740.918,403.396,713.671,410.906,717.608,428.652L717.608,428.652z"/>
<path fill="#F7C7AD" d="M721.972,377.048c-2.203-0.376-2.765-0.422-1.684-0.139c0.717,0.221,0.544,0.128-0.518-0.279
	c-2.559-1.123,0.38,0.494,0.506,0.472c-0.523,0.094-2.674-2.164-0.683-0.236c1.2,1.162-2.641-2.276-0.498-0.442
	c1.561,1.337-1.006-0.353-0.407-1.05c0.029-0.033,0.803,3.521,0.267,0.581c-0.147-1.326-0.195-1.398-0.145-0.215
	c0.111-0.7,0.222-1.401,0.333-2.101c-0.348,0.311-0.576,1.954-0.761,2.402c7.871-2.078,15.742-4.156,23.613-6.234
	c-0.79-0.768-0.751-0.653,0.118,0.346c0.765,0.809,1.278,1.769,1.54,2.878c0.199,2.435,0.278,3.081,0.239,1.936
	c-0.008-1.136-0.122-0.502-0.342,1.904c0.063-0.241,0.126-0.481,0.189-0.721c-0.38,1.444-1.121,2.667-2.225,3.671
	c1.651-1.753-2.86,1.597-0.473,0.563c-5.707-0.736-11.414-1.473-17.121-2.209c0.597,0.465,1.708,2.187,0.667,0.413
	c-0.961-1.638-1.616-2.449-1.591-4.562c-0.023,1.974,0.217-0.614,0.339-1.175c-0.342,1.134-0.3,1.105,0.124-0.085
	c0.267-0.937,0.761-1.748,1.483-2.435c7.396,0.953,14.793,1.906,22.189,2.859c-1.766-4.03-3.532-8.059-5.298-12.089
	c-2.978-6.794-13.429-8.873-19.33-5.068c-7.041,4.539-8.254,12.062-5.068,19.33c1.766,4.03,3.532,8.059,5.298,12.089
	c3.613,8.244,16.559,9.004,22.189,2.859c7.973-8.702,9.083-24.254-1.021-32.116c-5.585-4.346-10.683-4.998-17.121-2.209
	c-12.728,5.513-14.643,24.891-4.764,33.802c3.795,3.424,8.689,5.026,13.746,3.633c5.198-1.432,7.923-5.147,9.868-9.868
	c2.863-6.949,1.346-15.857-2.569-22.12c-4.82-7.709-12.208-11.684-21.086-12.64c-7.373-0.794-14.444,7.065-14.128,14.128
	C708.217,371.253,714.073,376.198,721.972,377.048L721.972,377.048z"/>
<path fill="#F7C7AD" d="M718.265,509.545c-3.04-2.684-2.823-6.364-0.077-9.442c4.217-4.726,13.885-5.156,19.452-3.253
	c0.679,0.232,2.623,1.58,3.276,1.597c3.021,0.08-1.046,2.594,1.566-0.425c2.995-3.461-3.759,0.221-4.83,0.656
	c-6.511,2.645-14.665,5.92-20.794,1.363c0.953,7.396,1.906,14.793,2.859,22.189c3.476-4.375,9.86-14.671,15.585-10.45
	c-2.164-5.318-4.328-10.637-6.493-15.955c0.983-2.716,3.446-0.46,0.805-2.413c0.953,7.396,1.906,14.793,2.859,22.189
	c2.426-2.415,4.851-4.829,7.277-7.244c-4.582,1.211-9.164,2.422-13.746,3.633c-2.135-2.149-4.271-4.298-6.406-6.448
	c0-2.504,0-5.008,0-7.512c-0.224,0.547-0.449,1.095-0.673,1.642c-2.916,7.112,3.165,15.461,9.868,17.379
	c8.072,2.31,14.498-2.839,17.379-9.868c3.317-8.092-1.321-18.042-9.221-21.42c-10.702-4.576-17.45,2.881-24.457,9.857
	c-7.008,6.976-4.317,16.884,2.859,22.189c14.943,11.047,34.907,1.55,40.703-14.474c2.284-6.313-1.683-12.409-6.493-15.955
	c-18.029-13.29-38.241,0.286-49.827,14.868c-6.103,7.682-5.03,16.324,2.859,22.189c15.158,11.268,39.735,5.661,54.554-3.98
	c19.161-12.466,15.357-37.17-3.775-47.434c-16.974-9.107-40.752-6.616-54.796,6.805c-13.593,12.991-14.748,36.937-0.297,49.695
	C711.872,541.521,731.93,521.609,718.265,509.545L718.265,509.545z"/>
<path fill="#F7C7AD" d="M608.273,513.157c11.179,20.193,21.84,40.654,31.985,61.386c7.396-5.707,14.793-11.414,22.189-17.121
	c-2.245-2.017-1.942-1.114-1.641-4.62c1.553-18.115-26.712-18.012-28.256,0c-0.805,9.39,2.946,18.338,9.917,24.6
	c12.144,10.909,29.269-2.654,22.189-17.121c-10.145-20.731-20.807-41.193-31.985-61.386
	C623.863,482.984,599.45,497.22,608.273,513.157L608.273,513.157z"/>
<path fill="#F7C7AD" d="M624.722,512.428c6.1,7.806,9.661,16.903,11.769,26.489c9.082-2.504,18.164-5.008,27.247-7.512
	c-4.379-10.399-8.759-20.798-13.138-31.196c-7.871,4.582-15.742,9.164-23.613,13.746c9.721,8.438,17.002,17.95,22.636,29.527
	c8.133-4.754,16.266-9.508,24.398-14.261c-2.834-5.666-5.669-11.332-8.503-16.999c-7.396,5.707-14.793,11.414-22.189,17.121
	c6.516,6.901,11.124,15.507,12.264,25.047c8.776-2.377,17.551-4.754,26.327-7.131c-13.277-17.396-27.816-33.409-44.335-47.791
	c-12.479-10.865-28.777,2.538-22.189,17.121c5.978,13.233,13.237,25.631,21.849,37.321c1.689-6.443,3.379-12.886,5.068-19.33
	c-11.3,6.244-23.764,8.141-36.379,5.282c2.078,7.871,4.156,15.742,6.234,23.613c3.494-2.798,9.589-0.389,11.636,2.881
	c4.066-7.086,8.133-14.172,12.199-21.259c-7.225,0.547-41.086,3.097-35.494-12.003c-6.918,2.814-13.836,5.629-20.754,8.443
	c7.396,3.936,13.019,8.818,18.201,15.398c4.582-7.871,9.164-15.742,13.746-23.613c-3.383-0.597-16.094-6.92-15.043,0.523
	c0.153,1.083-2.205-1.078,2.272,0.817c2.006,0.849,3.668,1.536,5.549,2.648c4.049,2.396,7.865,5.258,8.273,10.061
	c0.17,2.001-1.814-0.204,1.072-0.197c-2.873-0.007-6.307-2.661-8.61-4.11c-2.687-1.691-16.265-11.328-8.134-12.296
	c9.701-1.155,11.992,14.992,12.525,21.47c3.457-4.541,6.915-9.082,10.372-13.623c-11.193,2.888-22.881,0.588-31.703-7.079
	c-4.582,7.871-9.164,15.742-13.746,23.613c16.038,3.18,29.193,10.874,39.838,23.274c4.582-7.871,9.164-15.742,13.746-23.613
	c-10.924-3.645-21.66-7.716-32.173-12.419c0.953,7.396,1.906,14.793,2.859,22.189c5.081-4.584,14.791-1.073,16.616,5.135
	c4.541-5.961,9.082-11.922,13.623-17.884c-27.544-0.3-51.166-20.383-57.042-47.056c-3.91-17.75-31.157-10.239-27.247,7.512
	c8.555,38.836,44.763,67.37,84.289,67.8c9.066,0.099,16.199-9.123,13.623-17.884c-8.009-27.241-43.049-36.362-63.843-17.604
	c-6.242,5.631-5.295,18.541,2.859,22.189c12.743,5.701,25.679,10.849,38.923,15.268c14.397,4.803,22.243-13.714,13.746-23.613
	c-13.481-15.704-32.005-26.515-52.306-30.541c-12.683-2.515-25.253,13.612-13.746,23.613c16.564,14.396,37.815,19.863,59.195,14.346
	c5.588-1.442,10.869-7.587,10.372-13.623c-1.987-24.158-14.49-51.552-42.974-49.587c-11.607,0.801-22.493,7.343-26.771,18.464
	c-4.93,12.815,0.146,25.668,9.071,35.316c8.35,9.027,21.339,17.558,33.831,18.661c13.983,1.235,26.147-7.829,29.198-21.568
	c5.48-24.68-20.938-47.991-44.516-47.622c-15.317,0.24-27.414,13.467-24.31,28.91c3.253,16.184,17.91,23.13,32.802,25.756
	c14.484,2.555,22.592-12.383,13.746-23.613c-6.508-8.262-14.64-14.877-23.92-19.816c-8.58-4.566-17.525-0.275-20.754,8.443
	c-5.521,14.908,2.036,31.223,14.826,39.651c13.789,9.087,32.028,9.323,47.915,8.12c10.173-0.771,18.265-11.568,12.199-21.259
	c-12.461-19.905-38.169-22.89-56.014-8.6c-8.295,6.642-3.443,21.42,6.234,23.613c20.094,4.554,40.097,1.845,58.151-8.131
	c6.172-3.41,9.532-13.272,5.068-19.33c-8.613-11.69-15.872-24.089-21.849-37.321c-7.396,5.707-14.793,11.414-22.189,17.121
	c14.597,12.709,28.163,26.672,39.917,42.072c3.836,5.026,9.407,8.364,15.955,6.493c5.477-1.565,11.102-7.52,10.372-13.623
	c-2.072-17.345-8.469-32.244-20.54-45.027c-11.464-12.141-29.124,3.258-22.189,17.121c2.834,5.666,5.669,11.332,8.503,16.999
	c8.158,16.308,32.313,2.003,24.398-14.261c-6.559-13.479-15.734-25.419-27.054-35.246c-9.397-8.158-29.616-0.508-23.613,13.746
	c4.379,10.399,8.759,20.798,13.138,31.196c6.881,16.339,31.271,10.788,27.247-7.512c-3.222-14.65-9.853-27.207-19.036-38.958
	c-4.736-6.06-14.998-4.874-19.98,0C618.721,498.319,620.049,506.449,624.722,512.428L624.722,512.428z"/>
<path fill="#F7C7AD" d="M509.731,500.005c8.388,13.452,18.639,25.349,31.037,35.246c10.658,8.508,27.132,0.905,23.613-13.746
	c-1.288-5.363-0.129-9.455,2.846-14.046c-8.133,0-16.266,0-24.398,0c4.525,6.28,7.73,12.443,9.865,19.886
	c5.136,17.906,29.932,10.043,27.247-7.512c-1.026-6.707-1.386-13.449-1.473-20.229c-7.086,4.066-14.172,8.133-21.259,12.199
	c1.265,0.569,4.461,1.66,4.709,3.538c8.776-2.377,17.551-4.754,26.327-7.131c-3.162-5.486-4.883-10.878-5.156-17.235
	c-7.086,4.066-14.172,8.133-21.259,12.199c1.714,0.987,2.343,1.354,2.962,3.312c4.541-5.961,9.082-11.922,13.623-17.884
	c-0.483,0.045-0.965,0.09-1.448,0.136c2.377,0.643,4.754,1.286,7.131,1.929c1.141,4.05,2.282,8.1,3.422,12.15
	c-2.814,2.164-5.629,4.328-8.443,6.493c0.454-0.17,0.908-0.339,1.362-0.509c-3.629-8.607-7.258-17.215-10.886-25.822
	c-41.027,31.251-86.188,56.88-134.37,75.342c5.318,6.918,10.637,13.836,15.955,20.754c6.555-13.693,27.357-16.705,40.401-20.887
	c19.638-6.297,39.346-12.371,59.11-18.261c-3.629-8.607-7.258-17.215-10.886-25.822c-40.744,19.316-82.009,37.485-123.809,54.397
	c4.582,7.871,9.164,15.742,13.746,23.613c14.995-15.566,38.668-20.482,58.449-27.242c24.386-8.333,48.773-16.667,73.159-25
	c17.052-5.827,10.233-32.02-7.512-27.247C488.784,530.114,58.224,707.249-4.258,732.318c-7.05,2.829-12.091,9.44-9.868,17.379
	c1.879,6.711,10.232,12.735,17.379,9.868c62.481-25.069,493.041-202.204,558.053-219.691c-2.504-9.082-5.008-18.164-7.512-27.247
	c-26.709,9.127-53.418,18.254-80.127,27.381c-22.626,7.732-46.86,14.388-63.949,32.128c-9.006,9.349-0.071,29.204,13.746,23.613
	c44.061-17.827,87.609-36.884,130.559-57.246c14.559-6.902,4.279-30.342-10.886-25.822c-23.252,6.929-46.424,14.12-69.5,21.614
	c-17.928,5.823-38.121,12.187-46.897,30.519c-4.732,9.884,3.366,25.578,15.955,20.754c50.556-19.372,98.031-45.369,141.119-78.19
	c5.669-4.318,8.741-10.614,5.781-17.642c-2.524-5.993-10.049-10.651-16.667-8.18c-8.759,3.27-14.014,10.444-12.466,20.014
	c1.391,8.603,8.756,16.152,17.953,15.29c8.693-0.814,16.617-8.422,13.623-17.884c-2.782-8.794-7.927-15.58-15.948-20.199
	c-8.961-5.161-21.728,1.309-21.259,12.199c0.488,11.334,3.339,21.651,9.014,31.496c6.479,11.24,28.244,7.368,26.327-7.131
	c-1.602-12.12-7.06-22.694-18.704-27.936c-9.359-4.214-21.406,0.599-21.259,12.199c0.119,9.34,1.07,18.512,2.482,27.741
	c9.082-2.504,18.164-5.008,27.247-7.512c-2.752-9.595-6.876-18.534-12.713-26.636c-6.26-8.688-18.278-9.446-24.398,0
	c-7.047,10.875-8.698,23.311-5.694,35.819c7.871-4.582,15.742-9.164,23.613-13.746c-10.565-8.434-19.462-18.05-26.618-29.527
	C524.528,470.346,500.072,484.515,509.731,500.005L509.731,500.005z"/>
<path fill="#F7C7AD" d="M455.735,505.937C393.15,537.378-37.044,722.696-101.44,750.239c4.754,8.133,9.508,16.265,14.261,24.398
	c73.995-37.769,519.174-221.547,600.289-239.459c-5.318-6.918-10.637-13.836-15.955-20.754c-2.364,5.257-12.385,7.577-17.682,9.919
	c-9.079,4.013-18.158,8.027-27.237,12.04c-17.591,7.776-401.846,171.359-419.436,179.135
	c-35.749,15.803-71.497,31.606-107.246,47.408c-14.489,6.405-4.097,31.529,10.886,25.822
	C8.868,761.164,447.96,577.771,520.387,550.186c16.876-6.428,10.538-30.884-7.512-27.247
	c-42.266,8.516-448.649,181.662-486.952,201.05c-18.796,9.514-37.321,19.548-55.972,29.34c-9.793,5.141-19.617,10.229-29.536,15.123
	c-9.429,4.652-20.436,10.708-31.316,8.619c1.125,8.607,2.25,17.215,3.375,25.822c58.971-28.774,484.606-213.355,543.577-242.128
	c-4.754-8.133-9.508-16.265-14.261-24.398c-48.589,27.09-463.961,209.917-515.101,231.962c-14.624,6.304-4.2,30.997,10.886,25.822
	c78.568-26.948,524.116-210.077,597.469-249.529c13.762-7.402,4.184-31.924-10.886-25.822
	C483.201,535.382,75.579,707.771,34.621,724.353c-39.06,15.813-77.995,32.283-118.696,43.479
	c3.629,8.607,7.258,17.215,10.886,25.822c13.476-6.093,26.952-12.186,40.428-18.279c7.007-3.168,8.559-13.197,5.068-19.33
	c-4.095-7.195-12.418-8.193-19.33-5.068c-13.476,6.093-26.952,12.186-40.428,18.279c-14.815,6.698-4.207,29.974,10.886,25.822
	c40.702-11.196,446.301-183.473,485.361-199.287c40.957-16.582,81.915-33.164,122.872-49.745
	c-3.629-8.607-7.258-17.215-10.886-25.822C449.547,558.538,6.362,740.735-69.936,766.905c3.629,8.607,7.258,17.215,10.886,25.822
	c51.14-22.046,466.512-204.872,515.101-231.962c16.04-8.943,1.927-32.297-14.261-24.398
	c-58.971,28.774-484.606,213.355-543.577,242.128c-10.606,5.175-8.333,23.575,3.375,25.822c24.32,4.669,45.432-7.445,66.41-18.174
	c20.233-10.349,40.189-21.228,60.362-31.691c39.981-20.737,447.631-195.321,492.027-204.266c-2.504-9.082-5.008-18.164-7.512-27.247
	C440.448,550.525,1.357,733.917-71.07,761.503c3.629,8.607,7.258,17.215,10.886,25.822
	c38.018-16.806,442.701-189.42,480.719-206.226c18.725-8.278,37.451-16.555,56.176-24.833c14.453-6.389,37.753-11.815,44.842-27.581
	c5.043-11.215-3.22-23.566-15.955-20.754c-83.461,18.43-530.917,203.453-607.039,242.308c-6.849,3.496-8.687,12.972-5.068,19.33
	c4.155,7.301,12.355,8.052,19.33,5.068c64.395-27.543,494.589-212.861,557.174-244.302
	C486.247,522.171,471.957,497.788,455.735,505.937L455.735,505.937z"/>
<path fill="#F7C7AD" d="M507.865,500.481C431.498,533.232-11.533,721.79-87.9,754.541c4.754,8.133,9.508,16.266,14.261,24.398
	c67.43-47.383,507.483-240.882,580.72-278.309c16.293-8.326,1.992-32.201-14.261-24.398
	c-80.11,38.461-526.884,232.729-606.994,271.189c5.707,7.396,11.414,14.793,17.121,22.189
	c25.063-22.092,55.445-36.857,84.911-52.076c33.4-17.25,433.465-190.308,466.866-207.558c14.343-7.408,4.385-30.113-10.886-25.822
	c-72.035,20.238-505.511,210.357-571.653,244.649c4.754,8.133,9.508,16.265,14.261,24.398
	c26.546-20.165,56.573-34.509,86.798-48.223C7.01,689.658,407.482,518.617,441.268,503.341c12.566-5.681,6.527-27.637-7.131-26.327
	C396.669,480.609-3.847,652.53-38.109,666.983c-36.418,15.362-72.837,30.724-109.255,46.087c3.629,8.607,7.258,17.215,10.886,25.822
	c58.743-32.104,485.752-217.092,547.535-242.877c7.01-2.926,12.111-9.368,9.868-17.379c-1.857-6.63-376.934,142.973-384.044,145.94
	C-27.182,651.312-89.82,681.2-150.739,714.494c-13.675,7.473-4.114,32.15,10.886,25.822c35.28-14.882,70.56-29.764,105.841-44.646
	c32.421-13.676,432.658-186.995,468.15-190.4c-2.377-8.776-4.754-17.551-7.131-26.327C393.22,494.219-7.251,665.26-41.017,680.581
	c-30.225,13.714-60.251,28.058-86.798,48.223c-14.174,10.767-2.316,32.993,14.261,24.398
	c64.043-33.204,495.149-222.203,564.903-241.8c-3.629-8.607-7.258-17.215-10.886-25.822
	C405.967,503.395,4.807,677.018-29.688,694.834c-30.694,15.852-61.261,31.806-87.345,54.797
	c-12.728,11.219,3.462,28.746,17.121,22.189c80.11-38.461,526.884-232.729,606.994-271.189c-4.754-8.133-9.508-16.265-14.261-24.398
	C419.583,513.659-20.47,707.158-87.9,754.541c-15.14,10.639-2.302,31.502,14.261,24.398
	c76.367-32.751,519.398-221.309,595.765-254.06c7.067-3.031,8.506-13.289,5.068-19.33
	C523.042,498.253,514.837,497.491,507.865,500.481L507.865,500.481z"/>
<path fill="#F7C7AD" d="M-56.692,712.486c72.585-25.742,511.835-207.291,584.421-233.033c17.02-6.036,9.688-33.346-7.512-27.247
	C447.632,477.948,8.382,659.497-64.203,685.239C-81.223,691.275-73.892,718.586-56.692,712.486L-56.692,712.486z"/>
<path fill="#F7C7AD" d="M19.281,681.861c37.727-17.125,442.942-188.081,482.18-201.38c-2.504-9.082-5.008-18.164-7.512-27.247
	C457.043,467.929,53.473,638.43,16.566,653.124c3.629,8.607,7.258,17.215,10.886,25.822
	c34.336-16.472,435.337-188.751,469.673-205.223c14.229-6.826,3.996-31.94-10.886-25.822
	C454.491,460.951,56.078,629.809,24.33,642.859c3.629,8.607,7.258,17.215,10.886,25.822c34.434-19.441,436.91-191.9,474.054-205.473
	c16.886-6.171,9.798-33.261-7.512-27.247c-35.157,12.216-436.225,182.303-469.72,198.53
	c4.754,8.133,376.172-139.542,380.926-131.409c45.604-24.395,92.132-46.987,139.504-67.739c7.044-3.085,8.527-13.253,5.068-19.33
	c-4.129-7.256-12.382-8.112-19.33-5.068C490.835,431.697,77.643,610.096,32.039,634.491
	c-16.173,8.652,364.716-123.556,380.926-131.409c31.323-15.175,63.429-28.45,96.305-39.874c-2.504-9.082-5.008-18.164-7.512-27.247
	c-39.41,14.401-444.264,187.691-480.803,208.321c-13.508,7.627-4.251,32.045,10.886,25.822
	c31.748-13.05,430.161-181.908,461.909-194.958c-3.629-8.607-7.258-17.215-10.886-25.822
	C448.528,465.797,47.527,638.076,13.191,654.548c-14.236,6.829-4.064,31.775,10.886,25.822
	c36.906-14.694,440.477-185.195,477.384-199.889c16.491-6.566,10.036-33.194-7.512-27.247
	C452.403,467.316,44.964,639.331,5.02,657.463c-7.002,3.178-8.563,13.19-5.068,19.33C4.042,683.98,12.374,684.996,19.281,681.861
	L19.281,681.861z"/>
<path fill="#F7C7AD" d="M491.533,464.403c4.155-1.565,8.31-3.129,12.465-4.694c1.953-0.736,4.452-1.268,6.232-2.347
	c1.039-0.391,2.077-0.782,3.116-1.174c-5.127-7.264-7.554-9.118-7.28-5.562c-1.801,2.769-1.996,9.155-2.961,12.495
	c-1.477,5.116-3.249,10.113-5.177,15.075c9.082,2.504,18.164,5.008,27.247,7.512c1.629-6.351,4.713-11.31,10.265-14.931
	c-6.443-1.689-12.887-3.379-19.33-5.068c4.019,7.159,2.793,14.113-1.818,20.633c8.776,2.377,17.551,4.754,26.327,7.131
	c-0.258-4.928-0.011-9.769,1.944-14.386c1.037-2.448,2.683-4.281,3.999-6.519c0.432-0.424,0.863-0.848,1.295-1.273
	c1.784-0.613,1.815-1.126,0.094-1.538c-1.39-0.396-2.207-1.37-2.453-2.922c0.04,0.279,0.08,0.557,0.12,0.836
	c-0.428,0.303-1.15,4.363-1.521,5.238c-0.491,1.157-2.882,3.901-2.894,5.177c-1.437,1.287-1.327,1.686,0.33,1.198
	c1.487,0.057,1.707-0.072,0.658-0.387c-1.783-1.474-0.632-2.558-1.59-0.92c1.157-1.977,4.316-2.678,6.437-2.498
	c7.475,0.635,10.802,10.354,11.348,16.635c1.438,16.533,21.597,18.375,27.751,3.756c1.426-3.388,2.853-6.777,4.279-10.165
	c4.888-11.612-11.079-22.067-20.754-15.955c-50.202,31.715-101.189,62.161-152.921,91.313c-13.636,7.684-4.517,31.205,10.886,25.822
	c4.875-1.704,9.751-3.407,14.626-5.111c17.056-5.96,9.719-33.267-7.512-27.247c-4.875,1.704-9.751,3.407-14.626,5.111
	c3.629,8.607,7.258,17.215,10.886,25.822c51.732-29.153,102.719-59.598,152.921-91.313c-6.918-5.318-13.836-10.637-20.754-15.955
	c-1.426,3.388-2.853,6.777-4.279,10.165c9.25,1.252,18.501,2.504,27.751,3.756c-1.236-14.21-6.13-27.817-17.667-36.89
	c-10.908-8.577-25.521-10.346-38.136-4.461c-25.882,12.074-22.144,50.696,6.568,55.968c27.082,4.973,47.702-38.344,29.259-57.596
	c-10.619-11.085-27.695-7.791-38.105,1.598c-11.712,10.563-17.006,27.314-16.198,42.738c0.761,14.522,18.261,18.534,26.327,7.131
	c10.339-14.616,10.463-33.757,1.818-49.155c-3.603-6.418-13.006-9.193-19.33-5.068c-11.663,7.607-19.768,18.244-23.25,31.817
	c-4.612,17.976,20.786,24.142,27.247,7.512c5.34-13.746,14.471-34.972,5.558-49.056c-11.019-17.412-32.447-4.866-46.711,0.506
	C467.162,443.505,474.467,470.83,491.533,464.403L491.533,464.403z"/>
<path fill="#F7C7AD" d="M436.57,561.23c-61.143,31.341-490.077,216.305-553.41,242.953c4.582,7.871,9.164,15.742,13.746,23.613
	c11.268-10.942,23.439-20.277,36.92-28.341c15.59-9.326,1.397-33.765-14.261-24.398c-15.445,9.239-29.728,20.221-42.639,32.759
	c-9.427,9.155,0.244,29.294,13.746,23.613c65.599-27.601,496.823-213.336,560.16-245.801
	C467.019,577.331,452.739,552.942,436.57,561.23L436.57,561.23z"/>
<path fill="#F7C7AD" d="M12.974,733.203c-25.764,11.764-51.529,23.528-77.293,35.291c-14.479,6.611-4.213,31.051,10.886,25.822
	c47.442-16.428,459.924-193.054,503.398-218.172c14.715-8.502,4.181-28.276-10.886-25.822
	C401.745,556.401,0.513,733.564-32.914,750.221c-36.385,18.132-72.671,36.46-108.866,54.967
	c5.707,7.396,11.414,14.793,17.121,22.189c6.835-8.154,14.148-15.783,22.006-22.956c13.46-12.286-6.567-32.223-19.98-19.98
	c-7.859,7.173-15.172,14.802-22.006,22.956c-10.199,12.169,2.348,29.743,17.121,22.189c35.098-17.946,70.282-35.725,105.559-53.319
	c32.403-16.16,432.34-192.804,468.55-198.699c-3.629-8.607-7.258-17.215-10.886-25.822
	C394.301,575.667-15.759,751.424-60.945,767.07c3.629,8.607,7.258,17.215,10.886,25.822c25.764-11.764,51.529-23.528,77.293-35.291
	c6.995-3.194,8.569-13.179,5.068-19.33C28.22,731.095,19.873,730.053,12.974,733.203L12.974,733.203z"/>
<path fill="#F7C7AD" d="M17.979,667.776c-2.6,1.733-5.2,3.467-7.8,5.2c-3.07,2.046-5.492,4.811-6.493,8.443
	c-0.931,3.382-0.511,7.885,1.424,10.886c1.945,3.017,4.841,5.672,8.443,6.493c3.583,0.816,7.726,0.683,10.886-1.424
	c2.6-1.733,5.2-3.467,7.8-5.2c3.07-2.046,5.492-4.811,6.493-8.443c0.931-3.382,0.511-7.885-1.424-10.886
	c-1.945-3.017-4.841-5.672-8.443-6.493C25.283,665.536,21.14,665.669,17.979,667.776L17.979,667.776z"/>
<path fill="#E7A38D" d="M643.84,425.245c28.155-3.273,55.658-9.166,82.483-18.372c17.099-5.868,9.754-33.172-7.512-27.247
	c-24.324,8.348-49.41,14.391-74.972,17.363c-7.578,0.881-14.128,5.863-14.128,14.128C629.712,418.07,636.21,426.132,643.84,425.245
	L643.84,425.245z"/>
<path fill="#E7A38D" d="M702.281,412.823c14.076-4.753,26.429-11.78,37.904-21.171c5.909-4.836,5.017-14.963,0-19.98
	c-5.844-5.844-14.056-4.848-19.98,0c-7.505,6.142-16.269,10.809-25.436,13.904c-7.227,2.44-11.972,9.722-9.867,17.379
	C686.84,410.005,695.021,415.274,702.281,412.823L702.281,412.823z"/>
<path fill="#E7A38D" d="M674.03,484.792c30.534-5.869,59.621-18.088,85.193-35.774c14.857-10.275,0.745-34.776-14.261-24.398
	c-23.82,16.474-50.002,27.458-78.443,32.925C648.68,460.974,656.233,488.212,674.03,484.792L674.03,484.792z"/>
<path fill="#E7A38D" d="M700.185,541.808c27.667-9.053,52.548-23.713,73.815-43.601c13.31-12.447-6.702-32.397-19.98-19.98
	c-17.639,16.496-38.388,28.822-61.347,36.334C675.467,520.192,682.833,547.486,700.185,541.808L700.185,541.808z"/>
<path fill="#E7A38D" d="M655.048,548.369c-12.969,6.088-27.173,6.742-40.865,2.949c-17.55-4.862-25.04,22.391-7.512,27.247
	c21.332,5.91,42.708,3.557,62.637-5.797C685.758,565.046,671.43,540.68,655.048,548.369L655.048,548.369z"/>
<path fill="#E7A38D" d="M653.088,544.045c-23.003,9.508-48.772,4.864-66.069-13.366c-8.102-8.539-24.924-2.321-24.118,9.99
	c1.733,26.468,27.046,35.708,50.239,32.846c16.747-2.067,64.766-3.38,50.284-32.44c-8.111-16.276-32.493-1.981-24.398,14.261
	c0.251,0.504,0.503,1.009,0.754,1.513c-0.475-3.629-0.95-7.258-1.424-10.886c4.896-4.174,5.552-5.779,1.969-4.818
	c-1.162,0.175-2.325,0.35-3.487,0.525c-2.906,0.437-5.812,0.875-8.719,1.312c-5.518,0.831-11.04,1.817-16.58,2.489
	c-4.2,0.509-19.894,2.636-20.381-4.802c-8.039,3.33-16.079,6.66-24.118,9.99c23.499,24.767,61.792,33.764,93.561,20.633
	c7.02-2.902,12.106-9.386,9.868-17.379C668.604,547.263,660.206,541.102,653.088,544.045L653.088,544.045z"/>
<path fill="#E7A38D" d="M658.487,575.285c9.969-3.389,17.708-9.37,23.767-17.935c4.282-6.052,1.278-15.977-5.068-19.33
	c-7.262-3.837-14.76-1.391-19.33,5.068c-1.154,1.631,0.037-0.411,0.531-0.642c-0.454,0.212-1.161,1.311-1.557,1.716
	c-0.433,0.442-0.878,0.87-1.337,1.284c-0.226,0.211-0.459,0.414-0.698,0.61c-0.805,0.674-0.46,0.415,1.037-0.777
	c-1.031,0.322-2.16,1.447-3.132,1.982c-0.452,0.249-2.934,1.297-0.816,0.496c2.214-0.836-0.687,0.205-0.909,0.28
	c-6.982,2.373-12.313,9.821-9.867,17.379C643.351,572.351,650.995,577.832,658.487,575.285L658.487,575.285z"/>
<path fill="#E7A38D" d="M616.464,517.32c16.633-15.333,24.267-38.564,22.659-60.905c-1.821-25.306-13.676-48.059-27.809-68.618
	c-8.698-12.653-30.48-5.289-25.822,10.886c2.471,8.581,4.942,17.163,7.413,25.744c5.024,17.449,31.928,10.12,27.247-7.512
	c-3.256-12.264-6.512-24.529-9.768-36.793c-4.662-17.559-31.925-10.111-27.247,7.512c3.256,12.264,6.512,24.529,9.768,36.793
	c9.082-2.504,18.164-5.008,27.247-7.512c-2.471-8.581-4.942-17.163-7.413-25.744c-8.607,3.629-17.215,7.258-25.822,10.886
	c18.303,26.626,38.816,68.321,9.568,95.282C583.085,509.691,603.105,529.634,616.464,517.32L616.464,517.32z"/>
<path fill="#E7A38D" d="M599.912,387.518c21.368-13.055,32.652-40.327,24.231-64.461c-3.85-11.033-14.024-29.718-27.741-29.718
	c-15.738,0-22.566,21.558-7.656,29.025c7.349,3.68,14.592,1.457,19.33-5.068c0.157-0.216,0.314-0.433,0.471-0.649
	c4.516-6.222,1.015-15.685-5.068-19.33c-7.092-4.248-14.871-1.073-19.33,5.068c-0.157,0.216-0.314,0.433-0.471,0.649
	c6.443-1.689,12.887-3.379,19.33-5.068c1.178,1.205,2.357,2.411,3.535,3.616c0,4.754,0,9.508,0,14.261
	c0.136-0.321,0.273-0.642,0.409-0.963c-2.814,2.164-5.629,4.328-8.443,6.493c0.55-0.094,1.099-0.188,1.649-0.283
	c-3.629-0.475-7.258-0.949-10.886-1.424c6.968,3.333,10.188,16.392,9.208,23.588c-1.13,8.301-5.698,15.509-12.828,19.866
	C570.157,372.586,584.338,397.033,599.912,387.518L599.912,387.518z"/>
<path fill="#E7A38D" d="M615.245,343.097c5.865-23.02-8.742-48.643-32.528-53.456c-7.471-1.512-15.259,2.153-17.379,9.868
	c-1.916,6.972,2.353,15.859,9.867,17.379c8.911,1.803,14.939,10.274,12.793,18.697C583.507,353.214,610.752,360.734,615.245,343.097
	L615.245,343.097z"/>
<path fill="#E7A38D" d="M-85.537,820.536c64.344-30.35,497.039-212.668,564.467-235.353c17.145-5.768,9.791-33.068-7.512-27.247
	C401.695,581.394-33.265,764.755-99.798,796.138C-116.233,803.89-101.908,828.258-85.537,820.536L-85.537,820.536z"/>
<path fill="#E7A38D" d="M551.888,528.97C490.905,547.138,64.68,725.447,6.797,751.87c-6.995,3.193-8.568,13.18-5.068,19.33
	c4.084,7.176,12.43,8.218,19.33,5.068C76.718,750.86,500.765,573.685,559.4,556.216C576.785,551.037,569.381,523.758,551.888,528.97
	L551.888,528.97z"/>
<path fill="#E7A38D" d="M579.985,539.941c-9.618-1.975-17.404-6.209-24.108-13.401c-12.424-13.331-32.372,6.683-19.98,19.98
	c9.726,10.436,22.586,17.795,36.576,20.668c7.467,1.533,15.263-2.168,17.379-9.868C591.773,550.331,587.495,541.483,579.985,539.941
	L579.985,539.941z"/>
<path fill="#E7A38D" d="M590.936,551.233c-10.151-9.792-20.302-19.583-30.454-29.375c-13.092-12.629-33.098,7.327-19.98,19.98
	c10.151,9.792,20.302,19.583,30.454,29.375C584.049,583.842,604.054,563.886,590.936,551.233L590.936,551.233z"/>
<path fill="#E7A38D" d="M582.219,546.119c-11.693-26.393-45.769-17.778-66.475-10.116c-30.715,11.366-60.967,24.055-90.611,37.976
	c-59.157,27.78-482.429,216.581-535.896,254.153c-14.766,10.376-20.753,18.774-5.829,8.287
	c47.933-33.683,485.135-203.407,537.714-229.259c26.197-12.88,52.881-24.757,80.039-35.467
	c12.469-4.917,25.184-10.616,38.194-13.937c5.869-1.498,15.529-4.006,18.466,2.624c3.115,7.031,13.233,8.538,19.33,5.068
	C584.385,561.332,585.291,553.054,582.219,546.119L582.219,546.119z"/>
<path fill="#E7A38D" d="M-105.411,827.876c16.512-12.851,36.309-20.945,55.89-27.805c21.822-7.645,43.9-14.608,65.905-21.705
	c45.435-14.655,457.679-192.882,503.387-206.66c17.365-5.234,9.966-24.294-7.512-19.026
	C464.207,567.164,49.633,737.924,1.883,753.377c-43.712,14.146-90.439,25.849-127.275,54.519c-6.069,4.724-4.867,15.006,0,19.98
	C-119.512,833.886-111.4,832.537-105.411,827.876L-105.411,827.876z"/>
<path fill="#E7A38D" d="M541.213,517.608C480.19,534.261,52.437,706.954-5.911,731.682
	c-58.694,24.876-113.076,58.214-167.195,91.616c-15.446,9.533-1.271,33.985,14.261,24.398
	c53.029-32.729,106.347-65.71,163.823-90.183c57.113-24.318,483.985-196.35,543.746-212.659
	C566.246,540.073,558.809,512.806,541.213,517.608L541.213,517.608z"/>
<path fill="#E7A38D" d="M587.762,539.135c-13.415-10.922-26.37-22.345-38.885-34.288c-4.08-3.894-12.148-5.999-17.121-2.209
	c-10.903,8.309-21.806,16.617-32.708,24.926c-6.114,4.659-9.171,12.12-5.068,19.33c3.422,6.013,13.273,9.684,19.33,5.068
	c10.903-8.309,21.806-16.617,32.708-24.926c-5.707-0.736-11.414-1.473-17.121-2.209c12.515,11.943,25.469,23.366,38.885,34.288
	c5.961,4.853,14.132,5.721,19.98,0C592.792,554.194,593.665,543.94,587.762,539.135L587.762,539.135z"/>
<path fill="#E7A38D" d="M517.152,516.93C484.261,542.948,74.305,706.395,35.099,718.042c-44.759,13.297-87.26,33.317-125.77,59.739
	c-14.902,10.224-0.785,34.722,14.261,24.398c39.302-26.965,448.712-202.213,494.497-215.256
	c41.925-11.943,84.203-22.452,119.045-50.013c6.032-4.771,4.896-14.975,0-19.98C531.285,510.954,523.103,512.223,517.152,516.93
	L517.152,516.93z"/>
<g>
	<path fill="none" d="M751.482,251.279c0,0-12.436-28.781,16.346-41.217c0,0-12.436-28.781,16.346-41.217
		c28.781-12.436,28.781-12.436,28.781-12.436l28.781-12.436"/>
	<path fill="#231815" d="M743.487,254.733c-0.401-0.93-3.907-9.386-3.32-19.885c0.686-12.281,6.76-22.407,17.308-29.142
		c-0.699-3.339-1.216-7.515-0.963-12.075c0.825-14.751,9.422-26.393,24.207-32.782l57.562-24.87l-15.498,25.671l-35.155,15.189
		c-8.779,3.793-13.27,9.604-13.724,17.764c-0.359,6.408,1.897,11.951,1.919,12.004l-4.54,11.449
		c-8.781,3.793-13.27,9.604-13.725,17.764c-0.359,6.409,1.897,11.951,1.919,12.004L743.487,254.733z"/>
</g>
<path fill="#231815" d="M845.133,525.119l-11.45-4.54l-51.058,22.06c-1.562,0.672-30.26,12.646-53.044-4.261
	c-6.934,3.466-15.051,2.571-22.772,2.055c14.301,18.129,32.588,23.338,46.894,24.137c19.322,1.085,35.167-5.654,35.832-5.942
	l43.063-18.606l5.527,12.792L795.06,571.42c-77.153,33.34-110.812-41.319-112.2-44.497l-43.09-99.728l12.322-6.655l3.664,8.485
	c5.095-2.542,10.062-4.789,15.492-6.147l-2.959-6.71l-6.312,3.41l-22.208-3.41l-17.274,6.114l-0.451,7.806l44.825,103.745
	c0.335,0.776,28.383,63.706,90.16,63.701c13.375-0.002,28.341-2.953,44.939-10.124l51.059-22.06l4.54-11.449L845.133,525.119z"/>
<g>
	<path fill="none" d="M671.555,421.885c0,0-28.781,12.436-41.217-16.346c-12.436-28.781,16.346-41.217,16.346-41.217l57.563-24.871
		c0,0,28.781-12.436,41.217,16.346c12.436,28.781-16.346,41.217-16.346,41.217L671.555,421.885z"/>
	<path fill="#231815" d="M657.506,433.266c-0.781,0-1.575-0.02-2.381-0.065c-14.751-0.825-26.393-9.422-32.782-24.207
		c-11.657-26.983,6.105-46.279,20.887-52.667l57.562-24.87c0.93-0.403,9.4-3.914,19.885-3.322
		c14.751,0.825,26.393,9.422,32.782,24.207c6.389,14.787,4.671,29.157-4.839,40.462c-6.77,8.047-15.119,11.803-16.047,12.205
		l-57.562,24.87C674.151,430.25,666.877,433.266,657.506,433.266z M718.066,345.171c-3.053,0-6.511,0.67-10.414,2.296l-57.513,24.85
		c-19.672,8.801-13.287,26.342-11.807,29.768c1.478,3.424,9.864,20.096,29.802,11.791l57.528-24.857
		c19.674-8.801,13.287-26.342,11.807-29.768C736.278,356.496,730.612,345.171,718.066,345.171z"/>
</g>
<g>
	<path fill="none" d="M696.426,479.448c0,0-28.781,12.436-41.217-16.346c-12.436-28.781,16.346-41.217,16.346-41.217l57.563-24.871
		c0,0,28.781-12.436,41.217,16.346s-16.346,41.217-16.346,41.217L696.426,479.448z"/>
	<path fill="#231815" d="M682.885,490.867c-13.185,0-27.771-6.028-35.67-24.311c-6.389-14.787-4.671-29.155,4.839-40.462
		c6.768-8.047,15.117-11.803,16.046-12.205l57.562-24.87c0.932-0.401,9.369-3.894,19.886-3.322
		c14.751,0.825,26.393,9.422,32.78,24.207c6.389,14.787,4.671,29.157-4.839,40.464c-6.768,8.047-15.117,11.802-16.046,12.203
		l-57.564,24.872C695.114,489.503,689.157,490.867,682.885,490.867z M742.938,402.733c-3.053,0-6.513,0.67-10.415,2.296
		l-57.513,24.85c-19.672,8.801-13.285,26.342-11.805,29.768c3.793,8.781,9.604,13.27,17.762,13.725
		c6.413,0.345,11.934-1.888,12.004-1.919l57.564-24.872c19.672-8.799,13.285-26.342,11.805-29.768
		C761.149,414.058,755.483,402.733,742.938,402.733z"/>
</g>
<g>
	<path fill="none" d="M721.297,537.011c0,0-28.781,12.436-41.217-16.346s16.346-41.217,16.346-41.217l28.781-12.436
		c0,0,28.781-12.436,41.217,16.346c12.436,28.781-16.346,41.217-16.346,41.217L721.297,537.011z"/>
	<path fill="#231815" d="M707.756,548.43c-13.185,0-27.771-6.027-35.67-24.309c-6.389-14.787-4.671-29.157,4.839-40.464
		c6.768-8.047,15.117-11.802,16.046-12.203l28.783-12.436c14.783-6.391,41.01-6.095,52.667,20.885
		c6.389,14.787,4.669,29.157-4.841,40.464c-6.768,8.047-15.117,11.802-16.046,12.203l-28.781,12.436
		C719.986,547.065,714.027,548.43,707.756,548.43z M739.051,472.9c-5.197,0-9.444,1.699-10.388,2.108l-28.783,12.436
		c-3.411,1.526-20.244,10.237-11.805,29.768c8.73,20.203,27.638,12.725,29.768,11.805l28.781-12.436
		c3.412-1.526,20.244-10.237,11.807-29.768C753.574,475.572,745.566,472.9,739.051,472.9z"/>
</g>
<path fill="#231815" d="M607.172,531.802l-6.909-15.99l3.455,7.995l-3.479-7.984c0.129-0.056,13.067-5.828,22.836-17.673
	c12.356-14.982,14.152-32.923,5.339-53.322l-12.436-28.781l15.99-6.909l12.436,28.781
	C672.404,502.728,607.827,531.52,607.172,531.802z"/>
<path fill="#231815" d="M615.692,387.201l-6.116-7.93l16.36-26.724l-4.401-23.971l108.866-47.038l11.449,4.54l13.518,31.285
	l-4.54,11.449L615.692,387.201z M632.17,342.956l-6.234,20.844l109.989-47.523l-6.608-15.295L632.17,342.956z"/>
<path fill="#231815" d="M1068.956,489.806L948.78,211.665l-16.615-38.454l-24.389,35.206l-15.597-27.416l-28.145,12.161l-5.08,2.195
	c1.305,5.825,3.555,10.68,5.08,16.308l3.655-1.107l27.04-11.683l9.641,11.014l24.241-0.988l124.356,287.816
	c8.437,19.529-8.396,28.242-11.807,29.768L897.253,588.66c-19.536,8.446-28.239-8.393-29.766-11.805l-133.337-308.6l112.299-48.521
	l2.836-1.225c-2.732-4.992-3.863-10.298-6.688-16.085l-3.008,1.3L719.246,255.72l-4.54,11.449l136.792,316.595
	c0.401,0.929,4.156,9.277,12.203,16.046c6.816,5.734,14.746,8.634,23.21,8.634c5.574,0,11.38-1.257,17.252-3.795l143.907-62.177
	C1062.851,536.085,1080.613,516.789,1068.956,489.806z"/>
<g>
	
		<rect x="900.497" y="564.28" transform="matrix(0.918 -0.3966 0.3966 0.918 -149.7392 435.8228)" fill="#231815" width="156.765" height="31.353"/>
	<path fill="#231815" d="M916.599,633.431l-11.449-4.54l-12.436-28.781l4.54-11.449l143.907-62.177l11.449,4.54l12.436,28.781
		l-4.54,11.449L916.599,633.431z M912.157,601.195l5.527,12.792l127.917-55.267l-5.526-12.792L912.157,601.195z"/>
</g>
<rect x="856.313" y="556.227" transform="matrix(0.918 -0.3967 0.3967 0.918 -150.6635 401.4013)" fill="#231815" width="77.519" height="17.419"/>
<rect x="845.123" y="533.467" transform="matrix(0.918 -0.3967 0.3967 0.918 -143.7991 389.0724)" fill="#231815" width="47.153" height="17.419"/>
<rect x="986.623" y="499.924" transform="matrix(0.918 -0.3967 0.3967 0.918 -117.639 448.4726)" fill="#231815" width="77.518" height="17.419"/>
<rect x="1003.307" y="465.121" transform="matrix(0.918 -0.3967 0.3967 0.918 -103.7102 446.2127)" fill="#231815" width="47.153" height="17.419"/>
<rect x="833.335" y="507.82" transform="matrix(0.918 -0.3967 0.3967 0.918 -135.2405 379.1584)" fill="#231815" width="31.352" height="17.419"/>
<rect x="820.898" y="479.038" transform="matrix(0.918 -0.3967 0.3967 0.918 -124.8436 371.8643)" fill="#231815" width="31.354" height="17.419"/>
<rect x="808.464" y="450.257" transform="matrix(0.918 -0.3967 0.3967 0.918 -114.4471 364.5703)" fill="#231815" width="31.353" height="17.419"/>
<rect x="796.028" y="421.475" transform="matrix(0.918 -0.3967 0.3967 0.918 -104.0506 357.276)" fill="#231815" width="31.353" height="17.419"/>
<rect x="783.592" y="392.694" transform="matrix(0.918 -0.3967 0.3967 0.918 -93.6541 349.9821)" fill="#231815" width="31.354" height="17.419"/>
<rect x="771.158" y="363.913" transform="matrix(0.918 -0.3967 0.3967 0.918 -83.2572 342.688)" fill="#231815" width="31.352" height="17.419"/>
<rect x="758.722" y="335.131" transform="matrix(0.918 -0.3967 0.3967 0.918 -72.8607 335.3937)" fill="#231815" width="31.352" height="17.419"/>
<rect x="746.285" y="306.35" transform="matrix(0.918 -0.3967 0.3967 0.918 -62.4639 328.0993)" fill="#231815" width="31.353" height="17.419"/>
<rect x="733.851" y="277.568" transform="matrix(0.918 -0.3967 0.3967 0.918 -52.0673 320.8057)" fill="#231815" width="31.353" height="17.419"/>
<rect x="1006.023" y="433.206" transform="matrix(0.918 -0.3967 0.3967 0.918 -91.4755 441.5381)" fill="#231815" width="31.353" height="17.419"/>
<rect x="993.587" y="404.425" transform="matrix(0.918 -0.3967 0.3967 0.918 -81.079 434.2441)" fill="#231815" width="31.354" height="17.419"/>
<rect x="981.152" y="375.643" transform="matrix(0.918 -0.3967 0.3967 0.918 -70.6824 426.9501)" fill="#231815" width="31.353" height="17.419"/>
<rect x="968.716" y="346.862" transform="matrix(0.918 -0.3967 0.3967 0.918 -60.2859 419.6558)" fill="#231815" width="31.353" height="17.419"/>
<rect x="956.281" y="318.081" transform="matrix(0.918 -0.3966 0.3966 0.918 -49.8967 412.2703)" fill="#231815" width="31.353" height="17.418"/>
<rect x="931.41" y="260.518" transform="matrix(0.918 -0.3967 0.3967 0.918 -29.0957 397.7734)" fill="#231815" width="31.353" height="17.419"/>
<rect x="918.973" y="231.736" transform="matrix(0.918 -0.3967 0.3967 0.918 -18.6992 390.4791)" fill="#231815" width="31.353" height="17.419"/>
<rect x="906.539" y="202.955" transform="matrix(0.918 -0.3967 0.3967 0.918 -8.3026 383.1855)" fill="#231815" width="31.353" height="17.419"/>
<g>
	<path fill="none" d="M825.391,185.191c0,0-18.653-43.172,24.519-61.825c43.172-18.653,61.825,24.519,61.825,24.519l28.781-12.436
		c0,0,28.781-12.436,41.217,16.346s12.436,28.781,12.436,28.781"/>
	<path fill="#231815" d="M817.396,188.646c-7.646-17.699-11.414-55.79,29.058-73.276c26.383-11.4,45.107-2.708,56.162,6.595
		c5.814,4.889,10.065,10.444,12.877,14.809l21.569-9.32c0.93-0.403,9.398-3.906,19.885-3.322
		c14.751,0.825,26.393,9.422,32.78,24.207l12.436,28.783l-15.99,6.91l-12.436-28.783c-3.793-8.781-9.602-13.27-17.762-13.724
		c-6.418-0.371-11.951,1.895-12.004,1.919l-28.783,12.436l-11.45-4.54c-1.572-3.559-16.473-34.633-50.375-19.98
		c-34.777,15.027-20.599,48.941-19.978,50.377L817.396,188.646z"/>
</g>
<g>
	<path fill="none" d="M809.045,226.407l28.781-12.436l62.178,143.907c28.781-12.436,16.346-41.217,16.346-41.217l-49.742-115.125
		c0,0-12.436-28.781,16.346-41.217"/>
	<path fill="#231815" d="M903.459,365.874l-11.45-4.54l-58.722-135.912l-20.788,8.981l-6.91-15.989l28.783-12.436l11.45,4.54
		l58.207,134.718c10.582-9.498,5.105-23.319,4.327-25.119l-49.743-115.126c-0.401-0.93-3.907-9.386-3.322-19.885
		c0.825-14.751,9.422-26.393,24.207-32.782l6.91,15.989c-20.203,8.73-12.724,27.64-11.805,29.768l49.743,115.126
		c0.401,0.93,3.907,9.386,3.32,19.887C926.841,347.843,918.244,359.485,903.459,365.874z"/>
</g>
<g>
	<path fill="#231815" d="M932.343,182.262c-2.584-5.979-7.342-10.594-13.396-12.996c-6.059-2.4-12.688-2.303-18.66,0.284
		c-5.981,2.582-10.597,7.34-12.998,13.395c-2.402,6.056-2.301,12.683,0.282,18.662c2.584,5.979,7.342,10.596,13.395,12.996
		c2.911,1.155,5.955,1.732,8.995,1.732c3.283,0,6.562-0.672,9.667-2.014c5.979-2.584,10.596-7.342,12.996-13.395
		C935.028,194.87,934.927,188.243,932.343,182.262z M914.971,196.778c-0.098,0.101-0.217,0.18-0.321,0.275
		c-0.232,0.212-0.459,0.429-0.722,0.61c-0.042,0.029-0.091,0.047-0.134,0.075c-0.337,0.222-0.687,0.431-1.071,0.597
		c-0.77,0.333-1.566,0.489-2.357,0.536c-0.105,0.006-0.209,0.032-0.314,0.034c-0.409,0.005-0.814-0.036-1.213-0.101
		c-0.044-0.007-0.088-0.004-0.131-0.012c-0.902-0.165-1.763-0.506-2.534-1.003c-0.085-0.055-0.155-0.128-0.237-0.186
		c-0.285-0.202-0.567-0.408-0.821-0.653c-0.102-0.098-0.181-0.218-0.277-0.322c-0.212-0.231-0.428-0.459-0.61-0.722
		c-0.019-0.027-0.03-0.059-0.048-0.086c-0.235-0.35-0.45-0.718-0.623-1.118c-0.17-0.393-0.286-0.794-0.38-1.196
		c-0.009-0.04-0.029-0.078-0.037-0.118c-0.066-0.306-0.082-0.613-0.105-0.92c-0.011-0.148-0.046-0.293-0.047-0.441
		c-0.004-0.35,0.039-0.695,0.087-1.039c0.014-0.102,0.008-0.204,0.027-0.306c0.166-0.901,0.507-1.762,1.004-2.531
		c0.039-0.06,0.091-0.108,0.131-0.167c0.215-0.312,0.442-0.616,0.708-0.891c0.082-0.085,0.183-0.15,0.27-0.231
		c0.57-0.533,1.219-0.997,1.977-1.325c0.898-0.388,1.832-0.568,2.752-0.569c0.005,0,0.009-0.001,0.013-0.001
		c0.171,0,0.341,0.036,0.511,0.048c1.168,0.088,2.298,0.44,3.276,1.072c0.05,0.032,0.09,0.076,0.139,0.109
		c0.322,0.22,0.634,0.456,0.917,0.73c0.086,0.083,0.152,0.185,0.233,0.272c0.229,0.245,0.457,0.49,0.651,0.77
		c0.011,0.016,0.018,0.035,0.029,0.051c0.244,0.359,0.464,0.739,0.642,1.152c0.166,0.384,0.279,0.777,0.372,1.171
		c0.011,0.049,0.035,0.095,0.046,0.143c0.067,0.314,0.085,0.629,0.108,0.945c0.01,0.139,0.043,0.276,0.045,0.415
		c0.005,0.366-0.038,0.727-0.091,1.086c-0.013,0.086-0.008,0.173-0.023,0.259c-0.166,0.901-0.507,1.762-1.004,2.532
		c-0.046,0.071-0.108,0.129-0.156,0.198C915.444,196.219,915.227,196.512,914.971,196.778z"/>
</g>
<circle fill="none" cx="965.387" cy="193.011" r="31.353"/>
<path fill="#231815" d="M965.394,233.095c-4.994,0-9.993-0.947-14.775-2.842c-9.949-3.946-17.764-11.528-22.008-21.353
	c-8.762-20.276,0.607-43.901,20.885-52.665c20.281-8.76,43.91,0.611,52.667,20.888c4.244,9.822,4.409,20.71,0.464,30.657
	c-3.945,9.947-11.528,17.762-21.349,22.006C976.177,231.991,970.79,233.095,965.394,233.095z M965.355,170.368
	c-2.992,0-6.032,0.595-8.951,1.856c-11.46,4.953-16.755,18.306-11.803,29.768c2.398,5.554,6.816,9.839,12.438,12.069
	c5.622,2.228,11.778,2.131,17.33-0.264c5.552-2.398,9.839-6.816,12.067-12.438c2.23-5.624,2.136-11.776-0.262-17.328v-0.002
	C982.482,175.485,974.12,170.368,965.355,170.368z"/>
<path fill="#231815" d="M1001.588,319.555c-11.126,0.002-23.249-4.29-31.513-16.619l-21.489,9.284l-6.909-15.989l28.781-12.434
	l11.449,4.54c5.309,12.288,14.389,14.346,21.162,13.846l-33.241-76.937l15.99-6.909l37.307,86.345l-4.54,11.449
	C1013.818,318.191,1007.86,319.555,1001.588,319.555z"/>
<path fill="#231815" d="M-98.423,836.419l-6.909-15.989l662.121-281.053l11.45,4.54c8.898,20.594,23.377,31.593,43.035,32.692
	c15.034,0.854,27.825-4.486,27.949-4.54l57.564-24.87l6.909,15.99l-57.564,24.87c-0.665,0.287-16.512,7.02-35.83,5.942
	c-16.903-0.944-39.368-8.032-54.243-35.332L-98.423,836.419z"/>
<path fill="none" d="M624.166,413.039l-14.59-33.767c0,0,28.83-11.649,16.395-40.43s-12.436-28.781-12.436-28.781
	s-12.436-28.781-41.217-16.346c-28.781,12.436-16.346,41.217-16.346,41.217s12.436,28.781-16.346,41.217
	c-28.781,12.436-16.346,41.217-16.346,41.217l-28.781,12.436l-86.344,37.307L-79.625,675.245"/>
<path fill="#231815" d="M-76.171,683.24l-6.909-15.99l595.792-254.806c-2.946-14.877,1.051-34.609,23.46-44.291
	c19.531-8.439,13.244-26.32,11.785-29.819c-6.365-14.732-6.074-40.957,20.907-52.616c26.973-11.657,46.279,6.103,52.667,20.887
	l12.436,28.781c4.651,10.764,5.086,20.902,1.298,30.133c-3.434,8.367-9.578,14.016-14.591,17.476l11.489,26.588l-15.99,6.91
	l-14.591-33.768l4.732-11.529c0.044-0.019,9.529-4.077,12.878-12.39c1.92-4.771,1.524-10.172-1.215-16.51l-12.436-28.781
	c-1.526-3.411-10.245-20.245-29.768-11.807c-20.203,8.73-12.724,27.64-11.805,29.768c0.401,0.93,3.907,9.386,3.32,19.887
	c-0.825,14.749-9.422,26.391-24.207,32.78c-8.779,3.793-13.27,9.604-13.724,17.764c-0.359,6.408,1.897,11.951,1.919,12.004
	l-4.54,11.449L-76.171,683.24z"/>
<path fill="#231815" d="M882.252,204.265"/>
</svg>
