<?xml version="1.0" encoding="utf-8"?>
<!-- Generator: Adobe Illustrator 22.1.0, SVG Export Plug-In . SVG Version: 6.00 Build 0)  -->
<svg version="1.1" id="レイヤー_1" xmlns="http://www.w3.org/2000/svg" xmlns:xlink="http://www.w3.org/1999/xlink" x="0px"
	 y="0px" viewBox="0 0 1100 859.177" enable-background="new 0 0 1100 859.177" xml:space="preserve">
<path fill="#FFFFFF" d="M173.095,40.144c-8.031,0-15.722,4.594-19.267,12.362c-2.346,5.136-2.551,10.879-0.577,16.17
	c1.974,5.291,5.89,9.497,11.028,11.842c10.614,4.844,23.176,0.151,28.014-10.453c2.346-5.138,2.551-10.881,0.577-16.172
	c-1.974-5.291-5.89-9.497-11.028-11.841C179.005,40.758,176.027,40.144,173.095,40.144z"/>
<path fill="#FFFFFF" d="M164.882,168.182c-1.056,0-2.114,0.189-3.131,0.568c-2.238,0.834-4.017,2.491-5.007,4.662
	c-2.049,4.489-0.065,9.804,4.418,11.854c2.179,0.992,4.607,1.08,6.841,0.243c2.238-0.836,4.017-2.492,5.007-4.664v-0.003
	c0.994-2.173,1.078-4.602,0.244-6.84c-0.834-2.238-2.489-4.017-4.662-5.007C167.407,168.454,166.146,168.182,164.882,168.182z"/>
<polygon fill="#FFFFFF" points="214.598,103.814 230.413,103.814 324.958,152.045 339.762,168.182 333.236,212.927 385.067,245.956 
	392.668,282.912 433.045,301.501 432.826,326.468 360.809,297.795 337.004,312.911 310.883,297.573 302.388,266.873 
	245.819,250.214 289.064,227.784 273.454,189.095 200.826,151.492 195.763,121.186 "/>
<path fill="#F4BB2C" d="M243.416,368.776c-7.292,23.593-15.641,46.883-25.481,69.539c14.006,3.794,28.012,7.587,42.019,11.381
	c1.312-38.455,15.476-75.841,10.298-114.582c-1.488-11.134-7.435-20.704-19.551-22.146c-11.861-1.411-20.527,5.403-24.74,16.152
	c-13.105,33.431-26.211,66.863-39.316,100.294c14.495,3.996,28.991,7.992,43.486,11.989c0.576-2.991,1.152-5.982,1.728-8.973
	c2.3-11.946-3.358-24.333-15.749-27.737c-11.038-3.033-25.423,3.731-27.737,15.749c-0.576,2.991-1.152,5.982-1.728,8.973
	c-2.3,11.946,3.358,24.333,15.749,27.737c12.784,3.513,23.275-4.366,27.737-15.749c13.105-33.431,26.211-66.863,39.316-100.294
	c-14.764-1.998-29.528-3.996-44.292-5.994c5.159,38.603-8.988,76.168-10.298,114.582c-0.336,9.837,7.242,19.184,16.554,21.743
	c8.812,2.421,21.553-1.356,25.464-10.362c11.407-26.263,21.57-52.95,30.027-80.312C295.492,352.974,251.973,341.089,243.416,368.776
	L243.416,368.776z"/>
<path fill="#F4BB2C" d="M212.329,323.076c-16.052,29.836-27.113,62.022-31.84,95.591c-1.696,12.043,2.942,24.219,15.749,27.737
	c10.559,2.901,26.028-3.613,27.737-15.749c4.193-29.771,13.042-58.327,27.294-84.819c5.768-10.722,2.678-24.553-8.089-30.851
	C232.93,308.991,218.119,312.315,212.329,323.076L212.329,323.076z"/>
<path fill="#F4BB2C" d="M216.894,302.353c-5.284,11.285-10.568,22.57-15.852,33.854c13.738,5.792,27.475,11.583,41.213,17.375
	c9.093-21.601,21.41-41.806,30.046-63.492c4.507-11.318-4.927-24.764-15.749-27.737c-12.835-3.527-23.214,4.389-27.737,15.749
	c-3.892,9.773-10.366,18.915-14.849,28.491c-5.394,11.52-10.263,23.279-15.197,35.001c-4.293,10.198,3.792,22.875,13.056,26.601
	c9.598,3.861,23.327,1.09,28.158-9.226c5.284-11.285,10.568-22.57,15.852-33.854c5.161-11.022,3.088-24.313-8.089-30.851
	C237.969,288.545,222.081,291.274,216.894,302.353L216.894,302.353z"/>
<path fill="#F4BB2C" d="M273.557,278.596c-0.867,2.862-1.734,5.724-2.602,8.587c-12.562-3.317-25.125-6.633-37.687-9.95
	c0.127,0.844,0.254,1.687,0.382,2.531c2.47,16.382,27.406,22.114,37.687,9.95c2.112-2.499,4.306-4.986,5.702-7.954
	c-11.805,1.521-23.61,3.042-35.414,4.564c14.578,11.56,28.057,19.026,47.249,15.492c-3.996-14.495-7.992-28.991-11.989-43.486
	c-22.552,7.287-25.95,34.786-28.273,55.173c-2.112,18.539-4.867,41.473,5.002,58.205c10.586,17.948,34.488,12.045,41.213-5.386
	c0.319-0.827,0.638-1.653,0.957-2.48c4.385-11.364-4.838-24.739-15.749-27.737c-12.733-3.499-23.337,4.343-27.737,15.749
	c-0.319,0.827-0.638,1.653-0.957,2.48c13.738-1.795,27.475-3.591,41.213-5.386c1.073,1.819-0.557-3.185-0.381-0.956
	c-0.22-2.79-0.023-5.745,0.034-8.533c0.121-5.962,0.316-11.925,0.753-17.873c0.37-5.032,0.954-9.902,2.015-14.835
	c0.678-3.155,1.588-6.232,2.454-9.339c0.913-3.273,2.115-3.023-0.339-0.833c-3.317,1.933-6.633,3.866-9.95,5.799
	c0.578-0.187,1.156-0.374,1.734-0.56c11.585-3.743,19.077-15.627,15.749-27.737c-3.46-12.592-15.719-17.962-27.737-15.749
	c6.74-1.241,3.133,0.802,1.522-0.727c-1.296-1.23-3.52-2.077-4.895-3.167c-10.276-8.149-28.608-9.91-35.414,4.564
	c0.45-0.391,0.9-0.782,1.35-1.173c12.562,3.317,25.125,6.633,37.687,9.95c-0.127-0.844-0.254-1.687-0.382-2.531
	c-1.131-7.5-8.868-13.854-15.749-15.749c-8.488-2.337-15.395,0.669-21.939,5.799c-7.363,5.773-9.801,14.423-10.607,23.302
	c-1.103,12.145,11.153,22.549,22.549,22.549C264.123,301.144,272.451,290.775,273.557,278.596L273.557,278.596z"/>
<path fill="#F4BB2C" d="M261.1,318.506c8.415,10.102,16.829,20.204,25.244,30.305c7.102,8.526,21.531,8.196,29.607,1.763
	c9.328-7.43,10.631-18.573,5.808-29.088c-2.281-4.972-4.562-9.944-6.843-14.916c-0.898-1.957-2.027-3.935-2.737-5.967
	c-1.846-1.426-2.278-2.436-1.295-3.03c0.21-0.165,0.425-0.07,0.647,0.283c-12.831,5.315-25.662,10.629-38.493,15.944
	c6.18,7.334,9.892,15.663,12.893,24.647c2.084,6.238,4.364,11.373,9.293,15.892c3.604,3.304,7.368,5.209,11.974,6.793
	c0.742,0.23,1.484,0.46,2.226,0.69c3.706,1.158,3.083,0.585-1.868-1.717c-1.933-3.317-3.866-6.633-5.799-9.95
	c0.259,0.677,0.517,1.355,0.776,2.032c4.343,11.37,15.187,19.198,27.737,15.749c10.885-2.991,20.117-16.3,15.749-27.737
	c-3.066-8.027-6.945-14.081-14.742-18.237c-1.504-0.802-7.263-3.761-9.865-3.625c7.139,9.782,9.516,11.515,7.131,5.201
	c-0.454-1.457-0.957-2.896-1.51-4.317c-5.259-14.004-12.479-25.881-22.108-37.308c-5.696-6.76-17.058-7.991-24.632-4.662
	c-8.694,3.822-13.064,11.291-13.861,20.607c-1.339,15.64,10.051,32.583,16.385,46.391c11.805-9.108,23.609-18.217,35.414-27.325
	c-8.415-10.102-16.829-20.204-25.244-30.305c-7.799-9.363-23.828-8.06-31.888,0C251.833,295.884,253.281,309.119,261.1,318.506
	L261.1,318.506z"/>
<path fill="#F4BB2C" d="M311.441,359.906c16.582,5.266,33.461-4.119,48.688-9.822c24.512-9.18,19.419-41.372-5.994-44.292
	c-12.052-1.385-25.547,4.198-33.075,13.723c-5.744,7.268-8.65,15.561-4.662,24.632c3.261,7.418,11.765,14.924,20.607,13.861
	c11.316-1.361,22.34-3.501,32.462-9.068c9.904-5.447,13.532-12.874,17.634-22.869c-5.25,5.25-10.499,10.499-15.749,15.749
	c0.482-0.18,0.963-0.359,1.445-0.539c-7.313-1.933-14.626-3.866-21.939-5.799c0.321,0.293,0.642,0.586,0.963,0.879
	c-1.933-7.313-3.866-14.626-5.799-21.939c-4.535,13.008,3.029,26.278,15.043,31.599c8.665,3.838,18.533,5.624,27.651,8.146
	c28.013,7.75,39.967-35.746,11.989-43.486c-4.362-1.207-8.725-2.414-13.087-3.621c-2.181-0.603-4.362-1.207-6.544-1.81
	c-3.793-1.053-4.362-1.209-1.706-0.466c2.696,2.696,5.393,5.393,8.089,8.089c-0.294-0.649-0.588-1.297-0.882-1.946
	c0.758,5.792,1.515,11.583,2.273,17.375c0.22-0.63,0.44-1.261,0.659-1.891c2.51-7.198-0.23-16.855-5.799-21.939
	c-0.321-0.293-0.642-0.586-0.963-0.879c-5.604-5.116-14.333-8.634-21.939-5.799c-4.16,1.55-8.2,3.143-11.395,6.337
	c-1.603,1.603-11.123,16.863-3.505,8.051c5.414-6.263,1.685-2.532-1.084-1.453c-2.389,0.931-5.293,1.876-7.82,2.18
	c5.315,12.831,10.629,25.662,15.944,38.493c0.788-0.997,2.488-2.537,0.328-1.255c-1.17,0.694-3.777,0.209,0.858,0.741
	c-1.998-14.764-3.996-29.528-5.994-44.292c-5.476,2.051-10.953,4.102-16.429,6.153c-2.189,0.82-4.366,1.69-6.572,2.461
	c-1.342,0.545-2.713,0.995-4.114,1.352c-2.644,0.671-1.843,0.623,2.404-0.144C295.704,307.614,283.837,351.139,311.441,359.906
	L311.441,359.906z"/>
<path fill="#F4BB2C" d="M384.26,354.295c0.517,0.376,1.035,0.751,1.552,1.127c-2.696-2.696-5.393-5.393-8.089-8.089
	c-1.454-2.074-1.677-9.162,0.226-11.527c-7.627,9.48-9.264,22.625,0,31.888c8.005,8.005,24.069,9.411,31.888,0
	c2.155-2.594,4.311-5.188,6.466-7.782c-11.805-9.108-23.609-18.217-35.414-27.325c-19.789,34.266-39.313,69.104-50.18,107.401
	c-7.936,27.968,35.564,39.907,43.486,11.989c9.82-34.608,27.754-65.667,45.634-96.628c5.581-9.663,3.119-22.418-5.808-29.088
	c-8.295-6.198-22.325-7.001-29.607,1.763c-2.155,2.594-4.311,5.188-6.466,7.782c10.63,10.629,21.259,21.259,31.888,31.888
	c6.303-7.835,11.828-15.769,11.855-26.324c0.028-11.365-5.815-19.585-14.671-26.014c-9.861-7.159-25.133-1.686-30.851,8.089
	C369.506,334.839,374.376,347.119,384.26,354.295L384.26,354.295z"/>
<g>
	<g>
		<path fill="#F4BB2C" d="M398.621,363.298c11.795,0,23.094-10.371,22.549-22.549c-0.547-12.217-9.907-22.549-22.549-22.549
			c-11.795,0-23.094,10.371-22.549,22.549C376.62,352.966,385.98,363.298,398.621,363.298L398.621,363.298z"/>
	</g>
</g>
<g>
	<g>
		<path fill="#F4BB2C" d="M398.621,363.298c11.795,0,23.094-10.371,22.549-22.549c-0.547-12.217-9.907-22.549-22.549-22.549
			c-11.795,0-23.094,10.371-22.549,22.549C376.62,352.966,385.98,363.298,398.621,363.298L398.621,363.298z"/>
	</g>
</g>
<path fill="#F4BB2C" d="M383.288,338.043c0,0.301,0,0.601,0,0.902c-0.117,3.104,0.53,6,1.942,8.687
	c0.909,2.795,2.463,5.214,4.662,7.257c2.042,2.199,4.461,3.753,7.257,4.662c2.687,1.412,5.583,2.059,8.688,1.942
	c1.998-0.268,3.996-0.537,5.994-0.805c3.82-1.071,7.136-3.004,9.95-5.799c1.175-1.521,2.351-3.042,3.526-4.564
	c2.04-3.517,3.066-7.31,3.079-11.381c0-0.301,0-0.601,0-0.902c0.117-3.104-0.53-6-1.942-8.688c-0.909-2.795-2.463-5.214-4.662-7.257
	c-2.042-2.199-4.461-3.753-7.257-4.662c-2.687-1.412-5.583-2.059-8.687-1.942c-1.998,0.268-3.996,0.537-5.994,0.805
	c-3.82,1.071-7.136,3.004-9.95,5.799c-1.175,1.521-2.351,3.042-3.526,4.564C384.327,330.18,383.301,333.973,383.288,338.043
	L383.288,338.043z"/>
<path fill="#F4BB2C" d="M390.808,323.149c-19.127,16.602-39.538,31.35-61.149,44.555c10.284,10.284,20.567,20.567,30.851,30.851
	c5.445-11.666,10.891-23.332,16.336-34.998c3.897-8.349,4.277-17.461-1.763-25.043c-5.319-6.677-15.108-11.072-23.701-8.081
	c-17.799,6.196-35,13.983-51.183,23.651c11.041,4.492,22.083,8.984,33.124,13.476c-0.891-3.169-1.781-6.337-2.672-9.506
	c-4.834-17.198-25.075-20.869-37.687-9.95c-5.966,5.164-12.132,9.81-18.698,14.189c11.31,6.49,22.619,12.98,33.929,19.47
	c-0.015-0.178,0.125-6.702-0.143-4.276c-0.227,2.055,1.639-2.919,0.313-1.322c-11.805-9.108-23.609-18.217-35.414-27.325
	c-30.315,45.765-60.2,92.359-76.125,145.392c-8.365,27.856,35.147,39.759,43.486,11.989c14.759-49.15,43.492-92.217,71.579-134.619
	c13.944-21.051-18.945-47.167-35.414-27.325c-8.906,10.73-14.572,23.217-13.379,37.487c1.32,15.789,18.557,29.723,33.929,19.47
	c9.714-6.479,18.997-13.599,27.825-21.241c-12.562-3.317-25.125-6.633-37.687-9.95c0.891,3.169,1.781,6.338,2.672,9.506
	c3.904,13.89,20.547,20.989,33.124,13.476c12.908-7.711,26.212-14.163,40.41-19.105c-8.488-11.041-16.976-22.083-25.464-33.124
	c-5.445,11.666-10.891,23.332-16.336,34.998c-4.295,9.2-4.014,19.785,3.526,27.325c6.971,6.971,18.81,8.729,27.325,3.526
	c24.84-15.178,48.294-32.526,70.276-51.607c9.201-7.987,8.183-23.705,0-31.888C413.569,314.022,400.032,315.142,390.808,323.149
	L390.808,323.149z"/>
<path fill="#F4BB2C" d="M196.526,353.007c-16.75,30.249-23.346,64.366-37.864,95.492c-5.144,11.03-3.1,24.306,8.089,30.851
	c9.763,5.71,25.68,2.998,30.851-8.089c14.491-31.071,21.23-65.455,37.864-95.492C249.537,350.359,210.603,327.585,196.526,353.007
	L196.526,353.007z"/>
<path fill="#F4BB2C" d="M193.899,365.23c-22.213,36.714-38.147,77.253-46.554,119.337c-2.383,11.93,3.416,24.349,15.749,27.737
	c11.104,3.051,25.34-3.749,27.737-15.749c7.71-38.594,21.634-74.89,42.008-108.565C247.902,363.096,208.92,340.403,193.899,365.23
	L193.899,365.23z"/>
<path fill="#F4BB2C" d="M176.518,384.949c-19.487,34.514-34.862,71.372-45.625,109.518c-7.894,27.979,35.605,39.921,43.486,11.989
	c9.756-34.577,23.415-67.461,41.078-98.746C229.746,382.404,190.803,359.649,176.518,384.949L176.518,384.949z"/>
<path fill="#F4BB2C" d="M158.313,425.468c-15.607,29.53-27.716,60.863-35.608,93.325c-6.853,28.192,36.623,40.221,43.486,11.989
	c7.003-28.805,17.209-56.341,31.062-82.552c5.689-10.763,2.733-24.521-8.089-30.851C178.976,411.42,164.023,414.664,158.313,425.468
	L158.313,425.468z"/>
<path fill="#F4BB2C" d="M123.348,503.383c-6.881,17.537-7.487,36.007-4.283,54.387c2.093,12.005,16.806,18.753,27.737,15.749
	c12.68-3.485,17.848-15.697,15.749-27.737c-1.719-9.859,0.278-20.204,4.283-30.41c4.45-11.34-4.885-24.752-15.749-27.737
	C138.299,484.121,127.814,492.002,123.348,503.383L123.348,503.383z"/>
<path fill="#F4BB2C" d="M114.414,536.793c-3.569,8.543-3.065,18.667-0.494,27.383c-0.268-1.998-0.537-3.996-0.805-5.994
	c0.021,0.248,0.041,0.496,0.062,0.744c0.268-1.998,0.537-3.996,0.805-5.994c-0.088,0.217-0.175,0.434-0.263,0.65
	c3.454-4.492,6.908-8.984,10.362-13.476c-0.154,0.066-0.309,0.133-0.463,0.199c5.792-0.758,11.583-1.515,17.375-2.273
	c-0.169-0.052-0.338-0.103-0.507-0.154c3.317,1.933,6.633,3.866,9.95,5.799c-0.103-0.117-0.206-0.235-0.309-0.352
	c1.933,7.313,3.866,14.626,5.799,21.939c0.043-0.131,0.086-0.262,0.128-0.393c3.662-11.22-4.257-25.12-15.749-27.737
	c-12.383-2.82-23.817,3.736-27.737,15.749c-2.617,8.017,0.382,16.767,5.98,22.684c7.013,7.412,19.167,8.571,27.831,3.68
	c7.204-4.067,11.811-12.039,11.893-20.32c0.039-3.917-1.234-7.156-1.906-10.841c0.268,1.998,0.537,3.996,0.805,5.994
	c-0.24-1.948-0.254-3.808-0.048-5.757c-0.268,1.998-0.537,3.996-0.805,5.994c0.317-1.939,0.825-3.724,1.581-5.534
	c2.091-5.005,0.327-12.932-2.273-17.375c-2.737-4.677-8.1-9.138-13.476-10.362c-5.772-1.315-12.251-1.03-17.375,2.273
	c-1.521,1.175-3.042,2.351-4.564,3.526C117.419,529.657,115.486,532.973,114.414,536.793L114.414,536.793z"/>
<path fill="#F4BB2C" d="M109.935,565.006c0.377,1.711,0.753,3.423,1.13,5.134c13.738-5.792,27.475-11.583,41.213-17.375
	c-3.198-5.394-7.052-10.403-11.258-15.05c1.175,9.108,2.351,18.217,3.526,27.325c6.348-11.054,13.761-20.561,22.907-29.438
	c-12.562-7.313-25.125-14.626-37.687-21.939c-5.444,26.428-1.912,52.524,10.93,76.327c8.693,16.112,37.825,13.964,41.213-5.386
	c7.313-41.766,14.567-84.736,35.375-122.248c-14.006-3.794-28.012-7.587-42.019-11.381c-4.197,41.073-8.393,82.146-12.59,123.219
	c15.032,0,30.065,0,45.097,0c-0.295-17.105,2.295-33.413,8.04-49.551c4.513-12.676,11.211-27.253,22.613-33.823
	c-11.041-8.488-22.083-16.976-33.124-25.464c-2.746,16.306-6.254,32.453-10.691,48.385c-2.14,7.686-4.481,15.314-7.021,22.878
	c-1.27,3.782-2.586,7.547-3.954,11.294c-0.782,2.141-1.58,4.276-2.394,6.406c-1.839,4.157-1.643,4.252,0.588,0.286
	c3.317-1.933,6.633-3.866,9.95-5.799c-9.154,2.075-19.296,6.97-24.177,18.715c-4.478,10.774-3.96,22.267-1.89,33.52
	c9.246-9.246,18.492-18.492,27.737-27.737c1.757,0.194,3.039,1.249,3.847,3.163c-10.284,10.284-20.567,20.567-30.851,30.851
	c14.116,7.795,28.233,15.59,42.349,23.385c16.339,9.022,36.13,16.209,48.347-3.843c-12.98,0-25.96,0-38.94,0
	c10.962,15.377,30.086,21.137,47.308,12.092c6.496-3.412,11.732-8.484,16.244-14.18c3.896-4.919,6.373-9.479,10.13-11.65
	c-9.108-11.805-18.217-23.609-27.325-35.414c-8.947,9.941-16.463,20.75-21.726,33.063c-3.649,8.539-4.441,17.255,1.763,25.043
	c5.628,7.066,14.763,10.478,23.701,8.081c8.736-2.343,15.304-6.406,22.178-12.152c-11.805-9.108-23.609-18.217-35.414-27.325
	c-0.987,2.303-1.973,4.606-2.96,6.909c13.738,5.792,27.475,11.583,41.213,17.375c20.282-60.154,40.565-120.308,60.847-180.462
	c3.891-11.539-4.481-24.641-15.749-27.737c-12.324-3.386-23.833,4.168-27.737,15.749c-20.282,60.154-40.565,120.308-60.847,180.462
	c-3.548,10.522,3.217,22.643,13.056,26.601c9.342,3.758,23.68,1.224,28.158-9.226c0.987-2.303,1.973-4.606,2.96-6.909
	c4.43-10.34,3.926-21.815-5.808-29.088c-9.497-7.096-20.75-5.642-29.607,1.763c0.591-0.494,3.21-0.917-2.278,0.555
	c8.488,11.041,16.976,22.083,25.464,33.124c3.736-8.741,8.306-16.86,14.674-23.936c16.75-18.613-4.418-48.649-27.325-35.414
	c-8.39,4.847-13.766,11.428-19.603,18.95c-0.895,1.153-4.544,4.267-4.89,5.862c0.39-0.258,0.821-0.411,1.293-0.459
	c4.23-1.247,7.97,0.608,11.218,5.565c-9.716-13.628-29.568-15.383-38.94,0c-0.297,0.487-0.594,0.974-0.89,1.461
	c4.492-3.454,8.984-6.908,13.476-10.362c3.281,0.526,6.562,1.051,9.843,1.577c-1.008-0.557-2.017-1.114-3.025-1.67
	c-2.307-1.589-5.097-2.814-7.562-4.176c-4.537-2.505-9.075-5.011-13.612-7.517c-9.075-5.011-18.15-10.022-27.224-15.033
	c-8.791-4.854-20.132-3.667-27.325,3.526c-6.461,6.461-9.515,19.512-3.526,27.325c6.631,8.651,12.934,13.65,23.105,17.562
	c17.539,6.746,30.516-12.639,27.737-27.737c-1.507-8.191,4.084-3.133-5.215,1.852c-3.794,1.026-7.587,2.052-11.381,3.079
	c7.959-0.939,15.012-1.679,21.114-7.489c4.684-4.461,6.772-9.463,9.149-15.407c4.018-10.049,7.604-20.285,10.856-30.606
	c6.513-20.671,11.465-41.769,15.064-63.136c3.143-18.666-14.852-35.993-33.124-25.464c-20.81,11.991-32.484,33.283-41.11,54.899
	c-8.496,21.291-12.275,44.532-11.88,67.416c0.21,12.182,10.213,22.549,22.549,22.549c13.224,0,21.305-10.381,22.549-22.549
	c4.197-41.073,8.393-82.146,12.59-123.219c2.329-22.797-31.725-29.936-42.019-11.381c-22.849,41.191-31.886,87.131-39.921,133.02
	c13.738-1.795,27.475-3.591,41.213-5.386c-6.878-12.748-9.304-27.403-6.384-41.577c4.444-21.573-20.867-38.263-37.687-21.939
	c-11.705,11.36-21.837,24.421-29.959,38.565c-5.199,9.054-3.273,19.813,3.526,27.325c1.847,2.041,2.365,2.816,4.207,5.923
	c13.321,22.469,46.646,7.312,41.213-17.375c-0.377-1.711-0.753-3.423-1.13-5.135c-2.618-11.897-16.435-18.855-27.737-15.749
	C113.414,540.64,107.309,553.073,109.935,565.006L109.935,565.006z"/>
<path fill="#F4BB2C" d="M336.651,408.803c-14.451,56.324-55.694,101.227-73.672,156.471c-3.768,11.578,4.393,24.617,15.749,27.737
	c12.888,3.541,23.149-4.414,27.737-15.749c10.411-25.717,22.452-50.741,35.634-75.148c-13.738-5.792-27.475-11.583-41.213-17.375
	c-10.377,30.333-23.162,59.543-38.292,87.807c-13.761,25.709,23.062,47.01,38.94,22.761c12.66-19.334,24.824-38.974,36.493-58.922
	c-12.98-7.587-25.96-15.174-38.94-22.761c-8.915,17.743-19.447,36.074-33.21,50.568c-0.781,0.822-2.464,3.282-2.399,2.132
	c0.254-4.442,21.882,12.498,15.068,0.229c-2.618-4.714-6.122-9.293-9.944-13.082c-8.111-8.04-18.647-13.816-29.818-16.174
	c4.492,11.041,8.984,22.083,13.476,33.124c1.6-2.656,3.201-5.312,4.801-7.968c-13.738-5.792-27.475-11.583-41.213-17.375
	c-0.912,5.056-3.765,8.72-6.032,13.299c-3.403,6.875-5.827,14.192-5.612,21.963c0.387,13.95,9.954,27.293,23.555,31.107
	c13.569,3.805,28.182-2.625,34.89-14.993c5.941-10.955,5.573-23.664,6.465-35.741c1.625-22.011,5.14-43.553,11.545-64.711
	c3.177-10.496,6.853-20.887,11.399-30.871c2.231-4.901,4.604-9.741,7.111-14.506c1.505-2.86,3.057-5.695,4.655-8.503
	c0.538-0.933,1.077-1.866,1.615-2.799c3.854-5.425,1.286-4.65-7.705,2.324c-3.794-1.026-7.587-2.052-11.381-3.079
	c1.614,0.692,1.911,1.652,1.338,0.217c-0.139-0.347,2.918,4.38,3.174,4.632c0.325,0.321,0.509-2.805,0.509-2.822
	c-0.045,1.735-1.106,3.831-1.712,5.433c-3.86,10.198-9.038,20.118-13.748,29.945c-9.496,19.814-19.672,39.287-30.416,58.452
	c13.738,5.792,27.475,11.583,41.213,17.375c9.162-26.99,10.405-55.803,18.127-83.178c7.596-26.927,19.116-52.371,30.74-77.74
	c-13.738-5.792-27.475-11.583-41.213-17.375c-4.553,22.322-3.999,44.901,2.98,66.685c7.997,24.962,42.15,19.108,44.292-5.994
	c1.395-16.358-4.898-30.825-15.054-43.248c-10.629,10.629-21.259,21.259-31.888,31.888c5.795,5.092,10.963,10.542,15.739,16.6
	c12.085,15.328,39.617,2.543,38.493-15.944c-0.288-4.738-0.165-6.065,1.339-10.65c-14.495-3.996-28.991-7.992-43.486-11.989
	c-2.25,7.287-4.747,14.467-7.902,21.414c-5.032,11.08-3.174,24.263,8.089,30.851c9.677,5.66,25.791,3.052,30.851-8.089
	c4.77-10.502,9.046-21.163,12.449-32.186c8.602-27.863-34.48-39.436-43.486-11.989c-2.369,7.221-3.412,15.052-2.95,22.639
	c12.831-5.315,25.662-10.629,38.493-15.944c-4.777-6.058-9.944-11.508-15.739-16.6c-9.144-8.034-22.887-9.002-31.888,0
	c-9.33,9.33-7.732,22.43,0,31.888c2.02,2.471,2.25,6.612,1.845,11.36c14.764-1.998,29.528-3.996,44.292-5.994
	c-4.493-14.024-5.94-28.195-2.98-42.708c2.236-10.965-2.238-22.25-13.056-26.601c-9.534-3.835-23.415-1.124-28.158,9.226
	c-12.756,27.839-25.739,55.883-34.371,85.334c-8.316,28.368-9.53,58.336-19.042,86.356c-8.267,24.354,28.83,39.461,41.213,17.375
	c17.704-31.577,35.671-64.414,48.414-98.386c7.263-19.36,0.078-39.798-15.019-53.336c-7.684-6.891-17.987-10.712-28.305-8.404
	c-10.959,2.452-17.535,10.25-23.029,19.501c-17.373,29.253-29.824,62.3-36.321,95.669c-3.324,17.07-5.2,34.452-6.396,51.791
	c-0.151,2.206-0.292,4.412-0.425,6.62c-0.389,3.77-0.352,4.401,0.11,1.894c-0.83,2.636-0.75,3.022,0.242,1.158
	c17.24-6.362,25.75-4.205,25.529,6.471c1.689-1.108,3.955-6.919,4.912-8.794c2.331-4.571,4.273-9.258,5.183-14.302
	c1.99-11.031-2.058-22.177-13.056-26.601c-10.408-4.186-22.237-0.601-28.158,9.226c-1.6,2.656-3.201,5.312-4.801,7.968
	c-7.161,11.885-0.778,30.115,13.476,33.124c4.475,0.945,7.139,1.846,9.918,4.577c3.108,3.054,5.752,10.37,9.621,14.554
	c12.175,13.167,30.57,12.419,44.345,2.225c10.89-8.059,18.989-20.144,26.722-31.118c7.76-11.013,14.579-22.6,20.626-34.634
	c5.465-10.877,2.885-24.432-8.089-30.851c-10.555-6.174-24.684-2.453-30.851,8.089c-11.669,19.947-23.833,39.588-36.493,58.922
	c12.98,7.587,25.96,15.174,38.94,22.761c16.927-31.623,31.228-64.643,42.838-98.58c8.281-24.207-29.13-39.747-41.213-17.375
	c-15.05,27.866-28.298,56.569-40.18,85.921c14.495,3.996,28.991,7.992,43.486,11.989c17.968-55.211,59.086-99.623,73.672-156.471
	C387.354,392.665,343.871,380.667,336.651,408.803L336.651,408.803z"/>
<path fill="#F5B217" d="M181.954,553.788c12.26,5.685,24.117,12.052,35.684,19.039c8.151,4.923,5.335-7.468,4.016-11.394
	c-2.849-8.481-8.682-21.065-16.811-25.975c-13.133-7.932-26.691-15.081-40.609-21.535c-6.906-3.203-0.072,16.532,0.44,17.689
	C168.214,539.622,173.587,549.908,181.954,553.788L181.954,553.788z"/>
<path fill="#F5B217" d="M144.108,509.757c-12.347,0.97-28.059,9.629-30.995,22.76c-2.279,10.195,8.662,15.813,15.554,21.018
	c15.968,12.062,32.825,22.326,52.372,27.366c9.125,2.353,20.615-4.344,26.596-10.574c3.995-4.162,11.515-15.137,3.233-19.46
	c-20.21-10.55-40.125-21.63-59.744-33.242c-8.498,10.106-16.996,20.212-25.494,30.317c13.119-1.205,28.001-9.15,32.846-22.2
	c3.73-10.046-1.918-17.944-11.977-20.079c-9.361-1.987-20.377,4.096-26.596,10.574c-4.561,4.752-10.891,14.267-3.233,19.46
	c8.347,5.66,17.016,10.637,26.111,14.991c9.312,4.457,20.965-1.045,28.162-7.276c5.156-4.465,13.771-15.813,5.182-21.423
	c-10.615-6.933-22.169-11.872-34.399-15.186c-9.056-2.454-20.682,4.413-26.596,10.574c-3.689,3.843-11.817,15.643-3.233,19.46
	c19.217,8.546,38.271,17.44,57.162,26.682c9.256,4.529,21.014-1.088,28.162-7.276c4.352-3.768,14.528-16.851,5.182-21.424
	c-18.892-9.243-37.945-18.137-57.162-26.682c-9.943,10.012-19.886,20.023-29.829,30.035c9.914,2.686,18.773,6.902,27.37,12.516
	c11.114-9.567,22.229-19.133,33.343-28.7c-9.096-4.354-17.766-9.331-26.111-14.991c-9.943,10.012-19.886,20.023-29.829,30.035
	c-0.775-1.19-0.659-0.71,0.348,1.44c-0.248-2.332-0.495-4.665-0.743-6.997c0.098,0.007,0.195,0.014,0.293,0.021
	c3.858-3.855,7.716-7.709,11.575-11.564c-0.586,0.406-1.171,0.813-1.757,1.219c5.156-1.779,10.311-3.558,15.467-5.337
	c-0.698,0.064-1.395,0.128-2.093,0.192c-9.097,0.836-18.366,5.745-24.21,12.82c-3.681,4.456-8.03,13.505-1.284,17.497
	c19.619,11.612,39.534,22.693,59.744,33.242c9.943-10.012,19.886-20.023,29.829-30.035c-10.88-2.806-20.631-7.807-30.051-13.874
	c-4.374-2.817-8.615-5.843-12.79-8.946c-3.804-2.827-10.383-6.37-12.52-10.396c0.248,2.332,0.495,4.665,0.743,6.997
	c0.071-0.469,0.142-0.939,0.214-1.408c-1.492,2.7-2.984,5.401-4.476,8.101c0.31-0.345,0.619-0.69,0.929-1.035
	c-8.07,4.273-16.14,8.547-24.21,12.82c0.424-0.033,0.849-0.067,1.273-0.1c10.504-0.826,21.986-7.462,27.041-16.901
	C157.834,516.705,153.767,508.998,144.108,509.757L144.108,509.757z"/>
<path fill="#EF821B" d="M121.834,504.68c-6.833,19.154-13.323,38.414-12.879,59.002c10.929,3.956,21.857,7.912,32.786,11.868
	c0.989,0.615,1.356,1.379,1.102,2.29c-4.446-1.609-8.893-3.218-13.339-4.827c-9.654-6.145-4.828-3.604-2.062-0.966
	c2.49,2.375,5.074,4.701,7.74,6.883c4.512,3.693,9.336,7.158,14.38,10.094c9.976,5.805,20.648,9.671,32.2,10.469
	c8.941,0.618,6.06-8.854,3.104-13.372c-5.26-8.041-14.429-15.161-23.764-17.674c0.225,0.061,5.428,5.272,1.139,0.627
	c-1.904-2.062-3.745-3.889-5.236-6.31c-4.351-7.066-4.558-14.816-2.431-22.634c-3.451,1.268-6.901,2.537-10.352,3.805
	c0.689,0.242,1.379,0.485,2.068,0.727c-4.763-2.538-9.527-5.077-14.29-7.615c-2.203-2.214-4.406-4.428-6.609-6.642
	c0.479,0.983,0.959,1.966,1.438,2.949c0.901,2.515,2.34,4.99,3.426,7.448c1.887,4.273,3.619,8.61,5.3,12.968
	c3.545,9.19,6.796,18.49,10.053,27.784c10.806,2.884,21.612,5.769,32.418,8.653c-11.111-14.399-18.3-30.641-22.494-48.294
	c-2.299-9.678-13.548-17.996-22.144-21.757c-5.665-2.479-16.844-4.454-14.506,5.391c5.541,23.325,16.338,44.776,30.957,63.721
	c5.31,6.881,13.831,13.513,22.434,15.673c4.984,1.252,12.446,0.008,9.984-7.02c-10.961-31.289-20.012-72.196-54.716-84.392
	c-4.247-1.493-9.063-0.933-10.352,3.805c-4.73,17.386,3.592,34.63,14.253,48.056c11.827,14.895,27.699,28.446,46.341,33.465
	c-6.887-10.349-13.773-20.697-20.66-31.046c-4.655-0.322-7.198-1.617-9.826-3.992c-7.482-6.759-14.927-14.48-25.114-17.021
	c-6.568-1.638-13.432-1.302-15.932,5.767c-2.823,7.985,2.992,15.785,7.304,22.05c4.462,6.483,12.837,12.414,20.173,14.859
	c3.137,1.046,12.75,3.393,12.613-2.99c-0.444-20.587,6.046-39.848,12.879-59.002c2.847-7.979-12.293-19.154-17.673-22.414
	C136.139,501.786,124.866,496.179,121.834,504.68L121.834,504.68z"/>
<path fill="#EF821B" d="M126.963,536.778c20.544,0.846,39.154,13.495,58.087,20.355c19.56,7.087,41.649,7.277,60.029,17.411
	c7.86-9.821,15.721-19.642,23.581-29.462c-32.017-8.326-64.132-16.276-97.085-19.884c-8.57-0.938-19.697,3.219-24.211,10.967
	c-4.165,7.151-0.987,15.67,6.191,19.427c24.55,12.849,48.404,26.914,71.531,42.176c9.484-9.169,18.968-18.338,28.451-27.508
	c-27.945-13.169-57.879-20.764-88.801-21.766c-17.104-0.555-37.235,16.768-18.019,30.394c24.106,17.095,49.254,32.564,75.382,46.372
	c9.033,4.773,21.541,3.683,29.512-2.693c6.575-5.259,10.621-15.335,2.883-21.965c-13.969-11.969-28.607-23.051-43.749-33.493
	c-9.484,9.169-18.968,18.338-28.451,27.508c10.725,7.094,21.718,13.745,33.054,19.817c13.643,7.308,27.646,14.334,43.497,9.326
	c11.063-3.495,20.598-12.385,22.346-24.237c1.911-12.956-5.906-23.275-14.044-32.387c-7.321,9.181-14.642,18.363-21.964,27.544
	c7.025,0.2,12.405,1.843,18.469,5.394c8.727,5.109,21.808,3.469,29.512-2.693c6.447-5.156,10.783-15.491,2.883-21.965
	c-8.663-7.099-17.81-13.575-27.471-19.245c-6.006,10.131-12.013,20.263-18.019,30.394c6.268,0.598,11.578,2.725,16.996,5.828
	c9.484-9.169,18.968-18.338,28.451-27.508c-10.157-4.753-19.812-10.244-29.09-16.545c-6.006,10.131-12.013,20.263-18.019,30.394
	c5.1,0.39,8.237,2.62,12.902,4.774c0.689,0.737,1.417,1.435,2.184,2.094c-1.392-2.024-1.458-3.863-0.198-5.518
	c0.101-0.873,0.52-1.393,1.256-1.559c-1.27,0.904-2.534,1.815-3.793,2.733c-6.352,4.701-11.897,9.914-15.851,16.891
	c-1.609,2.839-2.827,5.979-3.892,9.052c-0.632,1.951-1.215,3.917-1.752,5.897c-1.04,2.196-0.659,1.95,1.142-0.739
	c3.658-1.257,7.316-2.514,10.974-3.771c0.456-0.012,0.912-0.024,1.368-0.036c-12.134-1.65-32.058,9.49-24.748,23.927
	c9.585,18.929,36.81,18.098,52.377,7.918c15.421-10.085,26.21-30.06,35.046-45.711c12.665-22.433-30.581-29.507-40.834-11.346
	c-4.424,7.835-9.162,15.464-14.381,22.798c-2.04,2.866-4.521,5.595-6.457,8.491c-2.752,2.375-2.521,2.584,0.695,0.629
	c6.166-2.052,11.321-1.169,15.463,2.649c-8.249,7.976-16.499,15.951-24.748,23.927c18.223,2.478,32.991-9.24,38.379-25.846
	c1.428-4.402,2.275-7.721,5.743-10.931c3.197-2.958,9.05-6.527,12.497-10.904c21.991-27.93-24.59-47.078-45.786-48.699
	c-17.145-1.311-37.232,17.347-18.019,30.394c9.277,6.3,18.933,11.792,29.09,16.545c10.056,4.706,23.387,3.788,31.599-4.283
	c7.587-7.457,5.954-18.011-3.148-23.224c-11.742-6.725-24.435-10.321-37.861-11.602c-8.616-0.822-19.655,3.146-24.211,10.967
	c-4.303,7.387-0.781,15.334,6.191,19.427c6.919,4.062,13.377,8.46,19.582,13.545c10.799-8.219,21.597-16.438,32.396-24.658
	c-11.98-7.013-25.466-10.773-39.334-11.167c-13.998-0.398-35.42,12.478-21.964,27.544c2.225,2.491,3.85,4.668,5.501,7.558
	c0.256,0.447,0.462,2.435,0.351,2.356c-0.129-0.073-0.144-0.168-0.043-0.286c1.242-3.483,4.291-5.533,9.148-6.149
	c3.86,0.238,7.721,0.476,11.581,0.713c-7.742-1.565-15.535-7.194-22.351-11.069c-8.261-4.698-16.324-9.714-24.249-14.957
	c-17.898-11.839-51.55,11.579-28.451,27.508c12.47,8.599,24.359,17.938,35.861,27.793c10.799-8.219,21.597-16.438,32.396-24.658
	c-26.128-13.807-51.276-29.277-75.382-46.372c-6.006,10.131-12.013,20.263-18.019,30.394c23.631,0.766,46.508,5.895,67.937,15.993
	c10.039,4.731,23.402,3.774,31.599-4.283c7.97-7.833,5.497-17.52-3.148-23.224c-23.128-15.262-46.981-29.326-71.531-42.176
	c-6.006,10.131-12.013,20.263-18.019,30.394c29.189,3.196,57.602,10.645,85.961,18.02c9.603,2.497,22.028,0.133,28.251-8.137
	c5.648-7.506,3.831-16.639-4.67-21.326c-21.908-12.078-46.707-12.815-69.77-21.32c-23.17-8.544-43.844-21.175-69.211-22.219
	c-9.958-0.41-23.519,4.152-25.931,15.196C106.267,529.461,117.668,536.395,126.963,536.778L126.963,536.778z"/>
<path fill="#EF821B" d="M378.505,328.257c-40.404,72.114-77.032,146.316-109.544,222.319c-3.806,8.898-7.763,17.776-11.266,26.799
	c-2.842,7.321-5.706,18.355,3.557,22.598c9.216,4.221,23.197-3.077,31.112-7.133c10.826-5.547,18.095-12.54,23.907-23.076
	c10.003-18.132,18.147-37.521,27.085-56.2c9.123-19.066,18.236-38.136,27.137-57.307c19.739-42.512,39.838-85.591,50.157-131.536
	c1.566-6.971-15.157-0.875-17.378-0.041c-5.862,2.202-21.726,7.952-23.41,15.451c-10.064,44.811-29.473,86.847-48.675,128.34
	c-9.617,20.78-19.496,41.437-29.379,62.091c-5.005,10.458-10.01,20.916-15.015,31.374c-2.495,5.214-4.968,10.44-7.489,15.642
	c-2.094,4.32-4.466,11.047-8.369,14.074c4.576-2.765,9.153-5.529,13.729-8.294c-0.729,0.327-1.458,0.654-2.188,0.982
	c6.303-1.835,12.605-3.671,18.908-5.506c-12.613,1.283,0.624-25.377,2.356-29.501c4.856-11.562,9.805-23.086,14.847-34.567
	c10.086-22.964,20.546-45.763,31.372-68.387c21.653-45.252,44.811-89.77,69.331-133.534c3.493-6.234-16.347-0.428-17.378-0.041
	C393.96,315.794,382.914,320.388,378.505,328.257L378.505,328.257z"/>
<path fill="#EF821B" d="M376.71,329.682c-1.611,6.942-4.125,13.293-7.524,19.551c-6.097,11.227,14.578,3.919,17.422,2.392
	c7.062-3.794,14.091-8.14,19.138-14.512c2.287-2.888,3.291-6.062,5.13-9.144c-1.793,2.214-3.586,4.428-5.38,6.641
	c0.451-0.408,0.902-0.816,1.354-1.224c-6.423,4.038-12.846,8.077-19.269,12.115c0.562-0.243,1.124-0.487,1.686-0.73
	c-2.772,0.657-5.545,1.313-8.317,1.97c2.903-0.417,5.089,1.241,7.511,2.777c-0.725-1.154-1.451-2.308-2.176-3.462
	c-1.145,4.374-1.727,8.658-1.789,13.182c-0.113,8.223,15.225,1.266,18.368-0.374c7.222-3.769,18.836-10.382,20.623-19.311
	c0.992-4.959,1.22-9.695,0.707-14.733c-1.342-13.174-32.82,9.302-35.888,13.725c-1.319,1.902-2.567,3.862-4.068,5.626
	c7.498-5.187,14.995-10.375,22.493-15.562c-0.394,0.156-0.788,0.313-1.181,0.469c3.74-0.542,7.479-1.083,11.219-1.625
	c-1.871-0.916-4.481-7.585-5.591-9.465c-0.815-1.38-1.829-2.817-2.41-4.311c-2.368-6.1,3.326-2.828-8.205,5.182
	c-9.37,2.971-18.741,5.943-28.111,8.914c0.077,0.273,0.153,0.546,0.23,0.819c0.18-1.642,0.36-3.283,0.54-4.925
	c2.538-5.012-1.952,4.205-2.232,5.281c-0.184,1.725,0.542,2.879,2.176,3.462c0.23,0.154,0.461,0.308,0.691,0.462
	c3.371,2.252,10.654-1.374,13.705-2.73c6.029-2.68,12.104-6.285,16.783-11.01c0.151-0.153,0.303-0.306,0.454-0.459
	c3.242-3.274,11.125-13.226,1.248-13.214c-9.389,0.011-21.247,7.685-27.586,14.085c-0.151,0.153-0.303,0.306-0.454,0.459
	c10.163-4.58,20.326-9.16,30.488-13.74c-0.23-0.154-0.461-0.308-0.691-0.462c0.725,1.154,1.451,2.308,2.176,3.462
	c0.076-0.291,0.151-0.581,0.227-0.872c-1.034,1.987-2.069,3.973-3.103,5.96c2.623-3.272,4.716-6.345,3.525-10.581
	c-2.266-8.056-26.548,7.829-28.111,8.914c-5.645,3.921-13.368,10.861-13.424,18.534c-0.045,6.161,4.533,11.832,7.522,16.853
	c4.458,7.49,9.635,7.213,17.914,3.896c10.999-4.407,19.865-11.537,26.56-21.188c-11.963,4.575-23.925,9.15-35.888,13.725
	c0.513,5.032,0.286,9.767-0.707,14.733c12.997-6.562,25.994-13.123,38.991-19.685c0.062-4.521,0.643-8.805,1.789-13.182
	c0.184-1.725-0.542-2.879-2.176-3.462c-8.555-5.424-16.811-3.661-25.805,0.338c-7.36,3.272-14.305,7.981-19.748,13.957
	c-1.724,1.893-3.383,3.879-4.529,6.193c-0.31,0.626-2.291,4.207-0.482,2c5.84-4.451,11.68-8.901,17.52-13.352
	c-0.397,0.213-0.794,0.427-1.192,0.64c5.807,0.797,11.614,1.594,17.422,2.392c4.292-7.904,7.384-16.323,9.417-25.082
	c1.896-8.169-16.341-0.684-18.368,0.374C389.893,314.253,378.797,320.692,376.71,329.682L376.71,329.682z"/>
<path fill="#FFFFFF" d="M235.75,252.779c-4.535,10.402-13.57,23.655-9.66,35.347c3.698,11.057,13.908,17.301,23.646,22.634
	c21.015,11.508,43.435,20.352,65.768,28.928c20.201,7.758,40.353,15.36,59.889,24.7c12.059,5.765,30.658,11.714,40.208-1.603
	c6.185-8.624,4.98-24.359,5.782-34.533c1.014-12.868-19.84-18.945-28.816-18.662c-3.736,0.118-5.833-1.061-8.896-2.893
	c-9.819-5.873-25.91-6.112-31.618,5.206c-3.881,7.695-5.134,16.107-4.272,24.665c1.683,16.712,36.848,28.129,43.418,9.629
	c1.973-5.555,1.805-10.972,0.568-16.658c-0.456-2.098-0.729-4.457-1.324-6.495c-1.123-3.843,3.464-2.943-3.928-0.035
	c-11.143-7.29-22.286-14.579-33.429-21.869c1.798-8.442-0.256,4.956-1.262,3.497c-0.182-0.264,4.103,0.107,4.075,0.147
	c-0.656,0.913-14.263-7.34-15.238-7.876c-5.988-3.292-11.976-6.585-17.964-9.877c-2.994-1.646-5.995-3.279-8.982-4.939
	c-9.449-5.25,3.617,3.578,1.297,5.618c7.369-6.479-1.575-17.374-7.026-20.943c-7.514-4.919-20.568-8.426-28.704-2.665
	c-4.663,3.301-11.717,2.522-17.223,4.738c-7.068,2.845-12.446,7.293-14.921,14.685c-6.446,19.252,36.463,33.121,42.966,13.699
	c0,0,3.829-0.522,5.241-0.76c5.866-0.987,11.483-2.523,16.405-6.007c-11.91-7.869-23.82-15.739-35.73-23.608
	c-13.234,11.635,0.594,28.85,11.343,35.725c11.537,7.379,24.021,13.494,36.021,20.092c13.139,7.224,27.279,14.574,42.791,13.509
	c13.229-0.909,26.902-7.366,29.877-21.336c3.334-15.659-20.629-26.904-33.429-21.869c-8.577,3.374-14.38,8.429-15.688,17.944
	c-0.97,7.059,3.535,15.283,1.298,21.582c14.473,3.21,28.946,6.419,43.418,9.629c-0.631-6.263,0.516-10.871,3.367-16.524
	c-10.539,1.735-21.079,3.471-31.618,5.206c13.062,7.812,27.812,11.024,42.929,10.547c-9.605-6.221-19.211-12.442-28.816-18.662
	c-0.346,4.392-0.704,8.786-1.194,13.166c-0.227,1.927-0.465,3.852-0.716,5.776c-0.885,2.685-0.322,2.709,1.691,0.072
	c3.118-0.902,6.235-1.804,9.353-2.705c-0.867-0.017-1.734-0.035-2.602-0.052c5.672,1.276,11.344,2.552,17.016,3.827
	c-28.423-11.999-56.628-24.098-85.391-35.356c-13.1-5.127-26.042-10.59-38.569-17.014c-2.86-1.466-5.654-3.046-8.503-4.53
	c-7.982-4.16,1.453,2.542,0.642,2.491c1.204,0.076,8.57-19.812,9.475-21.89c4.271-9.796-9.412-18.855-16.895-21.24
	C252.764,242.35,240.074,242.859,235.75,252.779L235.75,252.779z"/>
<path fill="#FFFFFF" d="M229.661,319.042c19.165,17.963,48.186,17.59,72.37,23.756c26.166,6.672,51.574,15.942,75.791,27.887
	c8.32,4.104,15.751,0.797,15.885-9.088c0.134-9.814-6.72-23.183-15.835-27.679c-23.88-11.779-48.686-21.65-74.331-28.862
	c-12.634-3.553-25.445-6.467-38.366-8.766c-8.697-1.547-20.675-1.783-27.418-8.103c-5.854-5.487-16.614-8.032-19.385,1.771
	C215.485,300.168,222.528,312.356,229.661,319.042L229.661,319.042z"/>
<path fill="#FFFFFF" d="M426.119,322.442c-3.079-6.335-5.163-12.934-6.283-19.888c-0.494-3.071-5.274-4.31-7.554-4.777
	c-5.024-1.029-11.166-0.641-16.135,0.326c-5.179,1.008-10.802,2.313-15.264,5.238c-2.305,1.511-5.982,3.792-5.452,7.082
	c1.119,6.954,3.204,13.553,6.283,19.888C387.862,342.964,430.183,330.806,426.119,322.442L426.119,322.442z"/>
<path fill="#FBE2C7" d="M328.396,187.298c4.168-12.057,2.978-24.233-3.438-35.252c-8.613,2.676-17.227,5.352-25.84,8.028
	c4.881,7.16,5.789,15.247,6.366,23.695c8.613-2.676,17.227-5.352,25.84-8.028c-1.944-9.237-4.859-20.123-10.943-27.598
	c-5.85-7.186-16.683-9.821-24.853-13.247c-4.259-1.786-12.397,1.838-16.396,3.319c-1.108,0.411-10.745,4.561-8.138,5.654
	c8.853,3.712,19.861,6.338,25.287,14.865c4.746,7.458,7.402,16.473,9.204,25.035c0.538,2.559,26.156-3.408,25.84-8.028
	c-0.579-8.474-1.481-16.53-6.366-23.695c-2.97-4.357-26.716,6.523-25.84,8.028c6.419,11.025,7.604,23.201,3.438,35.252
	c-0.486,1.407,12.738-1.418,13.64-1.697C319.451,192.623,327.11,191.018,328.396,187.298L328.396,187.298z"/>
<path fill="#FBE2C7" d="M309.218,149.357c-14.14-8.956-27.685-18.764-40.751-29.221c-4.658-3.728-12.442-6.18-18.399-5.25
	c-5.043,0.787-6.386,3.981-2.112,7.401c14.57,11.661,29.786,22.376,45.55,32.36c4.293,2.719,13.426,5.682,18.336,3.202
	C317.11,155.188,312.502,151.437,309.218,149.357L309.218,149.357z"/>
<path fill="#FBE2C7" d="M338.415,235.883c-0.885-0.501,0.6,0.724,0.847,1.258c0.556,1.201,0.882,2.583,1.085,3.879
	c0.586,3.741-0.193,7.579-0.786,11.271c-0.925,5.762,7.328,9.012,11.678,9.959c3.755,0.817,13.843,1.515,14.761-4.204
	c2.055-12.798,0.696-24.544-11.579-31.488c-5.088-2.878-13.317-4.659-18.64-1.396C330.48,228.411,334.502,233.669,338.415,235.883
	L338.415,235.883z"/>
<g>
	<g>
		<path fill="#FBE2C7" d="M359.983,266.292c6.582,0,8.782-7.038,7.152-12.415c-1.876-6.19-7.957-11.843-14.659-11.843
			c-6.582,0-8.782,7.038-7.152,12.415C347.2,260.639,353.281,266.292,359.983,266.292L359.983,266.292z"/>
	</g>
</g>
<path fill="#FBE2C7" d="M344.182,286.762c-1.973,4.259-2.654,5.19-5.938,7.928c0.998-0.832,0.419-0.255-0.309,0.168
	c-0.861,0.5-1.702,0.998-2.594,1.441c-1.206,0.599,1.552-0.287-0.722,0.192c-1.16,0.244-2.29,0.612-3.459,0.84
	c-5.968,1.167-10.826,8.19-8.273,14.007c2.973,6.773,11.059,7.262,17.229,6.056c11.876-2.322,23.172-10.792,28.281-21.821
	c2.712-5.855,0.288-12.163-6.105-14.255C356.661,279.477,347.086,280.494,344.182,286.762L344.182,286.762z"/>
<path fill="#FBE2C7" d="M397.522,300.333c3.532,2.868,6.871,6.005,10.092,9.216c1.614,1.609,3.398,3.227,4.772,5.056
	c-0.519-0.691,0.264,1.99,0.233,0.553c0.325,15.26,26.556,19.271,26.199,2.499c-0.347-16.337-16.745-28.123-28.275-37.486
	c-5.165-4.194-14.306-2.787-17.876,2.742C388.497,289.371,392.363,296.144,397.522,300.333L397.522,300.333z"/>
<path fill="#FBE2C7" d="M186.377,85.477c8.337-7.275,14.63-17.966,12.73-29.404c-1.779-10.708-10.278-18.044-20.402-20.658
	c-5.899-1.523-14.556,0.428-17.816,6.025c-3.308,5.68,1.23,10.428,6.675,11.833c3.368,0.87,4.926,5.588,5.021,8.677
	c0.17,5.56-3.082,9.901-7.069,13.38c-4.671,4.076-3.252,10.267,1.938,12.973C173.318,91.361,181.543,89.695,186.377,85.477
	L186.377,85.477z"/>
<path fill="#FBE2C7" d="M155.782,169.96c0.541,1.525,1.083,3.049,1.624,4.574c0.536,0.909,1.261,1.608,2.177,2.098
	c1.083,0.818,2.281,1.429,3.595,1.833c3.124,1.173,6.945,1.848,10.277,1.833c1.091-0.043,2.182-0.086,3.273-0.129
	c1.763-0.133,3.447-0.563,5.054-1.288c0.504-0.364,1.008-0.727,1.512-1.091c0.757-0.855,0.875-1.791,0.353-2.807
	c-0.541-1.525-1.083-3.049-1.624-4.574c-0.536-0.909-1.261-1.608-2.177-2.098c-1.083-0.818-2.281-1.429-3.595-1.833
	c-3.124-1.173-6.945-1.848-10.277-1.833c-1.091,0.043-2.182,0.086-3.273,0.129c-1.763,0.133-3.447,0.563-5.054,1.288
	c-0.504,0.364-1.008,0.727-1.512,1.091C155.378,168.008,155.261,168.943,155.782,169.96L155.782,169.96z"/>
<path fill="#FBE2C7" d="M366.8,261.707c0.606,2.705,1.213,5.409,1.819,8.114c0.369,1.644,11.545-5.267,12.382-5.841
	c2.621-1.798,5.296-3.648,7.583-5.864c0.781-0.757,2.735-2.194,2.455-3.445c-0.606-2.705-1.213-5.409-1.819-8.114
	c-0.369-1.644-11.545,5.267-12.382,5.841c-2.621,1.798-5.296,3.648-7.583,5.864C368.474,259.02,366.52,260.456,366.8,261.707
	L366.8,261.707z"/>
<path fill="#FBE2C7" d="M364.613,243.12c0.842,0.962,1.602,1.971,2.397,2.968c0.616,0.928,0.72,1.048,0.312,0.361
	c0.332,0.543,0.65,1.094,0.954,1.653c1.22,2.246,2.164,4.601,2.925,7.037c0.72,2.308,3.973,4.917,5.741,6.228
	c2.654,1.969,6.086,3.874,9.306,4.732c3.869,1.031,9.712,1.532,7.961-4.083c-1.844-5.911-5.068-11.405-9.141-16.06
	c-4.049-4.627-10.266-8.98-16.571-9.564c-1.73-0.16-4.334-0.417-5.374,1.383C362.154,239.454,363.563,241.92,364.613,243.12
	L364.613,243.12z"/>
<path fill="#F7C7AD" d="M437.243,431.903c4.7,2.157-0.321,0.909,1.502-1.819c1.399-2.093,1.001-2.757,3.43-2.044
	c-0.191-0.334-0.382-0.669-0.574-1.003c0.068,1.155-0.337,2.007-1.214,2.555c-1.636,1.084-0.672,1.67,2.895,1.757
	c-0.35-0.554-0.7-1.108-1.049-1.662c0.569-4.189-1.152-7.577,4.7-5.523c4.654,1.633,7.564,8.63,11.896,9.907
	c1.636,2.196,2.255,1.13,1.858-3.198c-0.635,0.125-1.27,0.25-1.904,0.375c-1.251-0.64-4.61-1.927-5.839-2.373
	c-0.77-0.449-1.539-0.898-2.309-1.348c1.041,2.804,2.282,3.258,3.723,1.362c1.775,0.225,1.777-0.542,3.546-0.021
	c4.616,1.359,9.782,7.531,13.529,10.506c5.004,3.974,10.628,7.703,15.082,12.281c-1.511-2.688-3.022-5.376-4.534-8.064
	c0.101,0.544,0.202,1.089,0.303,1.633c0.929-2.379,1.857-4.758,2.786-7.137c-2.562,2.762-15.139,3.387-18.97,3.976
	c-1.445,0.242-2.894,0.45-4.348,0.624c2.512,4.221,3.384,5.005,2.616,2.35c0.486-0.298,1.469-3.775,2.263-4.542
	c3.981-3.845,9.747-2.719,14.359-0.768c3.727,1.577,14.361,7.11,14.483,11.692c0.337-1.725,0.675-3.449,1.012-5.174
	c-1.882,3.95-12.988,0.727-16.379-0.986c-2.514-1.271-3.245-1.188-2.817-3.121c0.745-3.366,4.549-3.023,6.702-2.153
	c2.64,1.068,5.755,5.132,6.758,7.666c1.356,3.423,2.115,3.685-2.367,3.952c-6.254,0.373-13.201-4.597-17.51-8.531
	c0.583,5.067,1.165,10.134,1.748,15.201c-0.301,0.211-2.548-3.72,0.389,0.528c1.352,1.955,2.778,2.812,2.841,5.342
	c0.337-1.725,0.675-3.449,1.012-5.174c2.1,0.669,2.398,0.854,0.895,0.555c-1.318-0.671-2.467-1.569-3.447-2.693
	c-2.525-2.351-4.492-5.286-6.525-8.053c-3.705-5.043-11.324-9.09-17.607-6.703c-6.085,2.312-6.353,9.211-2.875,13.945
	c7.163,9.748,15.345,19.104,27.026,23.357c8.938,3.254,24.338,3.509,26.536-8.707c1.869-10.385-7.977-21.257-15.311-27.159
	c-9.249-7.444-22.194-10.509-32.437-3.333c-5.45,3.818-2.065,11.721,1.748,15.201c11.521,10.516,27.989,19.194,44.064,18.145
	c7.037-0.459,14.188-3.378,17.193-10.174c3.387-7.661-0.709-16.208-4.766-22.794c-8.086-13.127-23.92-25.13-40.153-23.121
	c-15.721,1.946-24.653,18.211-15.585,31.822c8.997,13.505,27.175,20.258,42.9,20.355c6.346,0.039,13.668-0.734,18.387-5.435
	c6.111-6.087,3.673-14.785-0.872-21.013c-9.717-13.317-27.296-24.307-43.584-26.748c-13.02-1.951-29.746,3.43-32.835,17.921
	c-3.22,15.103,9.863,28.317,24.068,30.095c8.126,1.017,16.775-1.369,24.685-2.966c6.382-1.289,17.095-1.777,18.932-9.718
	c1.85-7.994-6.293-13.913-11.589-18.119c-7.125-5.658-14.183-11.414-21.392-16.965c-11.744-9.042-29.794-15.895-42.049-3.564
	c-24.868,25.023,41.932,57.081,52.152,30.605c5.495-14.235-17.203-30.064-27.241-36.214c-11.364-6.963-31.266-10.47-38.808,3.978
	c-8.253,15.809,7.604,36.74,23.173,39.835c18.464,3.67,32.092-14.164,21.181-30.486c-8.46-12.654-32.288-21.863-44.152-9.053
	c-13.444,14.516,0.727,33.461,14.918,39.976c5.179,2.378,12.921,0.841,14.352-5.304
	C449.418,439.676,442.428,434.284,437.243,431.903L437.243,431.903z"/>
<path fill="#F7C7AD" d="M416.729,495.916c1.757,0.294,3.513,0.587,5.27,0.881c-1.224-1.194-2.396-2.436-3.516-3.728
	c-0.969-1.243-2.188-2.574-2.65-4.111c-1.448-4.815,1.385-4.081,5.006-3.09c3.104,0.85,7.73,1.845,10.076,4.108
	c1.332,1.286,3.388,3.982,1.057,5.769c-0.751,0.576,0.085-0.068-1.98-1.121c-5.215-2.66-12.445-13.462-6.395-18.667
	c5.333-4.588,16.137,4.502,19.675,8.328c2.164,2.34,7.278,8.994,3.64,12.378c-1.86,1.73-7.585-0.676-9.563-1.448
	c-5.15-2.01-17.562-9.101-18.318-15.568c-0.42-3.593-1.11-1.097,0.503-2.693c1.548-1.533,6.497-0.552,8.321-0.331
	c3.452,0.419,6.852,1.44,10.112,2.624c4.989,1.812,18.607,7.883,18.293,14.899c-0.184,4.109-3.522,2.038-7.011,1.068
	c-4.911-1.365-9.801-3.176-14.47-5.215c-3.776-1.649-7.733-3.435-11.108-5.812c-1.328-0.935-2.874-1.859-3.749-3.296
	c-0.3-0.493-1.03-4.742-2.118-3.837c0.763-0.635,11.977,4.499,13.047,4.928c3.821,1.533,7.605,3.128,11.231,5.083
	c3.638,1.962,7.139,4.075,10.316,6.723c1.689,1.408,3.575,2.959,4.863,4.765c0.678,0.952,2.8,5.251,2.961,4.829
	c0.301-0.024,0.602-0.047,0.904-0.071c-1.421-0.42-2.804-0.94-4.148-1.56c-2.201-2.425-1.433-0.02-0.951-1.905
	c1.282-5.013,2.953-0.121,0.941-3.04c2.208,3.202,1.007,9.141-0.763,12.134c-0.409,0.692-3.797,4.089-3.795,4.071
	c5.005,4.166,6.826,4.993,5.462,2.481c-0.454-0.864-0.777-1.78-0.967-2.748c-0.874-3.681-0.627-8.934,0.229-12.52
	c0.346-1.451,1.012-3.938,1.942-5.282c1.236-1.787,4.622-2.625,1.946-3.105c-3.121-0.559,0.775,2.511,1.324,3.448
	c0.731,1.246,1.359,2.92,1.753,4.335c0.562,2.019,0.769,4.012,0.745,6.1c-0.014,1.249-2.096,7.861-1.846,8.267
	c0.846,0.077,1.691,0.154,2.537,0.232c3.137,0.82,3.38,0.316,0.726-1.513c-0.883-2.451-3.74-4.797-5.073-7.2
	c-2.884-5.199-4.794-11.316-5.28-17.227c-0.141-1.717-0.373-3.831-0.072-5.497c0.098-1.383,0.545-2.608,1.34-3.677
	c1.424-1.654,0.224-2.277-3.599-1.869c1.09-1.315,8.626,9.837,8.861,10.302c0.994,1.971,4.472,10.679,0.922,12.323
	c-2.038,0.944-8.12-2.962-9.54-3.92c-3.567-2.408-6.548-5.659-8.852-9.285c-1.38-2.172-4.371-11.336-5.393-11.01
	c15.732-5.024-2.255-22.304-13.475-18.721c-28.356,9.055,1.837,44.956,15.591,53.457c10.229,6.322,24.927,11.72,36.842,7.557
	c12.201-4.263,14.218-17.543,10.077-28.451c-4.424-11.652-13.71-21.902-24.795-27.503c-11.07-5.594-26.144-4.879-32.035,7.566
	c-5.199,10.982-0.87,26.136,4.231,36.366c5.845,11.723,15.337,23.023,28.49,26.418c13.625,3.517,24.076-3.399,26.072-17.154
	c1.676-11.554-2.725-23.352-10.898-31.589c-8.678-8.746-23.004-14.565-34.888-8.926c-11.253,5.339-14.782,17.698-14.406,29.384
	c0.365,11.349,5.885,21.762,16.633,26.344c12.189,5.196,26.318,1.892,33.287-9.835c14.167-23.84-13.447-49.518-37.491-41.08
	c-10.567,3.708-16.556,14.763-10.684,25.046c6.168,10.802,21.416,17.3,33.388,18.148c13.131,0.93,23.699-8.531,18.674-21.996
	c-4.41-11.817-17.456-21.014-27.995-26.908c-11.36-6.354-24.806-12.59-37.603-15.298c-10.548-2.232-25.802,0.486-25.892,14.1
	c-0.169,25.496,40.3,37.882,59.664,42.272c10.545,2.39,27.68,1.842,30.171-11.74c2.028-11.059-8.235-22.607-16.208-28.918
	c-10.384-8.219-23.135-13.3-36.041-15.951c-10.741-2.206-28.438-3.327-35.589,7.159c-7.136,10.464,3.378,23.005,10.56,30.321
	c8.857,9.022,20.411,15.418,32.564,18.713c11.048,2.995,26.075,4.981,33.192-6.219c7.551-11.883-0.804-25.319-9.471-33.935
	c-13.542-13.463-53.852-32.956-64.477-5.864c-9.293,23.694,22.482,49.014,44.051,46.899c12.304-1.207,21.097-11.348,16.602-23.759
	c-4.721-13.035-19.69-19.552-32.019-23.177c-10.834-3.185-27.597-6.383-34.221,5.804c-5.911,10.877,2.003,21.804,9.269,29.541
	c8.435,8.982,22.945,16.778,34.709,8.935C447.829,504.395,426.245,489.572,416.729,495.916L416.729,495.916z"/>
<path fill="#F7C7AD" d="M450.669,505.301c-6.323-3.475-14.976-5.196-21.096-0.266c-6.064,4.886-4.859,12.803-3.21,19.513
	c7.157-0.45,14.313-0.9,21.47-1.35c-3.183-3.259-6.367-6.519-9.55-9.778c-4.352-4.456-16.72-10.534-21.277-3.091
	c-5.671,9.261-5.131,19.59-3.79,29.98c5.41-1.035,10.82-2.069,16.23-3.104c-7.07-3.932-18.529-12.835-27.11-8.502
	c-7.127,3.599-9.184,14.411-9.202,21.554c-0.026,10.013,24.205,20.277,25.177,8.065c0.423-5.315-1.008-9.801-3.978-14.218
	c-3.846-5.72-21.423-14.985-23.685-3.335c-1.87,9.634-0.784,19.139,3.008,28.184c8.162,1.139,16.325,2.277,24.487,3.416
	c-3.179-7.152-8.046-16.619-4.119-24.442c0.648-1.701,1.733-3.045,3.256-4.031c3.025-0.834,2.797-1.529-0.683-2.086
	c-5.544-2.922-0.031,4.133,0.905,6.767c1.358,3.82,2.805,8.3,2.743,12.401c0.094,1.556-0.115,3.069-0.627,4.541
	c8.622,5.908,11.437,6.357,8.446,1.345c0.19-3.783-4.447-15.947,4.171-15.499c1.828,0.095,4.065,2.536,5.07,3.806
	c0.785,0.985,1.418,2.056,1.898,3.211c0.846,1.157,0.777,2.389-0.205,3.695c5.686,6.412,1.096-5.402,1.077-5.766
	c-0.258-4.966,2.634-4.678,4.901-7.686c-2.688-2.287-3.186-2.353-1.494-0.198c0.236,0.68,0.472,1.359,0.708,2.039
	c0.893,3.696,0.588,4.398,4.497,6.222c-15.531-7.25-7.944-5.322-10.889,4.562c-0.777,2.608-1.993,6.949-5.369,7.007
	c-5.984,0.102-7.828,5.381-5.15,10.092c3.188,5.607,10.851,8.802,17.042,8.697c10.04-0.171,15.762-6.689,18.2-15.83
	c3.016-11.304,0.829-21.787-9.169-28.705c-7.028-4.863-19.773-8.702-26.708-1.614c-7.073,7.228-0.917,17.748,5.346,23.055
	c7.135,6.046,17.874,10.594,27.365,8.506c10.51-2.311,11.936-11.828,8.527-20.854c-6.366-16.853-33.156-30.865-48.07-15.983
	c-16.82,16.784,9.225,42.967,26.199,45.164c8.078,1.046,18.263-2.315,18.954-11.689c0.724-9.82-7.712-19.598-14.896-25.393
	c-13.509-10.898-45.952-20.055-48.602,6.106c-0.931,9.198,3.344,19.48,9.601,26.069c6.486,6.829,19.878,13.212,28.722,6.745
	c9.155-6.695,5.252-21.956,2.197-30.629c-3.809-10.812-10.028-20.233-20.701-25.165c-10.151-4.691-23.45-3.575-30.007,6.445
	c-7.246,11.074-2.48,24.756,2.376,35.68c2.633,5.923,8.712,10.192,15.181,10.974c4.298,0.519,11.849-1.49,9.306-7.558
	c-3.291-7.852-3.938-15.191-2.318-23.535c-7.895-1.112-15.79-2.223-23.685-3.335c1.26,1.392,1.592,2.978,0.994,4.758
	c8.392,2.688,16.785,5.377,25.177,8.065c0.011-4.303,0.536-10.46,4.288-13.423c-3.653,0.23-7.307,0.459-10.96,0.689
	c3.491,0.992,7.339,4.117,10.525,5.889c2.95,1.641,17.272,4.97,16.23-3.104c-1.155-8.953-2.184-17.746,2.715-25.746
	c-7.092-1.03-14.185-2.061-21.277-3.091c3.183,3.259,6.367,6.519,9.55,9.778c4.276,4.378,24.68,11.711,21.47-1.35
	c-0.135-0.548-2.061-7.169,0.313-7.128c-3.196-0.753-6.392-1.505-9.588-2.258c0.604,0.332,1.207,0.664,1.811,0.995
	c4.06,2.231,12.965,4.359,15.692-0.987C461.895,513.067,454.591,507.456,450.669,505.301L450.669,505.301z"/>
<path fill="#F7C7AD" d="M558.169,414.5c-1.536-4.44-4.18-10.033-3.494-14.839c0.666-4.662,4.671-7.433,8.291-10.045
	c-6.625-2.695-13.25-5.39-19.874-8.085c0.464,3.072-2.014,5.121-3.962,7.003c-3.407,3.29-6.542,6.576-8.584,10.901
	c-2.072,4.388-2.632,9.236-1.56,13.995c1.009,4.48,3.915,8.307,4.609,12.807c5.547-5.547,11.095-11.095,16.642-16.642
	c-1.961-0.757,14.618-19.811,17.529-20.438c-2.398,0-4.795,0-7.193,0c-0.218-2.003-0.213-1.934,0.014,0.205
	c-0.029,0.888-0.057,1.777-0.086,2.665c-0.202,2.93-0.968,5.85-1.924,8.619c-1.323,3.833-4.102,10.807-7.834,12.978
	c4.552,0,9.105,0,13.657,0c-0.325-0.167-0.65-0.334-0.974-0.501c2.234,3.894,4.467,7.788,6.701,11.682
	c-0.03-0.325-0.061-0.651-0.091-0.976c-1.601-17.192-28.675-17.359-27.058,0c0.935,10.043,9.413,17.85,19.807,13.841
	c8.158-3.147,14.224-12.626,17.938-20.167c7.792-15.822,12.577-41.743-5.978-52.144c-9.172-5.141-19.451-2.225-26.819,4.567
	c-6.475,5.969-13.538,12.8-18.527,20.072c-11.848,17.269-5.767,38.194,13.646,45.688c10.722,4.139,18.027-7.654,16.642-16.642
	c-0.771-5.006-4.092-9.084-4.777-14.02c0,2.398,0,4.795,0,7.193c0.349-2.524,0.747-1.981,3.354-4.551
	c2.815-2.776,5.472-5.668,7.46-9.119c4.389-7.617,4.74-15.748,3.461-24.21c-1.242-8.217-13.311-12.821-19.874-8.085
	c-8.658,6.248-17.055,13.096-20.224,23.765c-3.165,10.658-0.535,21.482,2.992,31.677C537.735,438.05,563.883,431.019,558.169,414.5
	L558.169,414.5z"/>
<path fill="#F7C7AD" d="M547.214,408.485c-5.112,13.123-7.097,27.161-5.893,41.19c8.858-1.199,17.717-2.398,26.575-3.597
	c-0.89-4.192-1.78-8.384-2.67-12.575c-2.262-10.652-20.122-13.994-24.728-3.232c-5.906,13.8-11.818,27.597-17.719,41.399
	c-5.742,13.431-11.907,26.927-14.306,41.442c-4.78,28.925,7.881,52.132,27.956,72.039c9.34,9.261,26.744-0.022,22.612-13.163
	c-11.492-36.555-7.451-75.965,11.667-109.238c-8.404-2.276-16.807-4.552-25.211-6.828c0.587,32.873-1.273,65.665-5.575,98.261
	c9.019,0,18.039,0,27.058,0c-1.386-19.897-2.447-39.869-1.393-59.81c0.488-9.228,1.42-18.411,3.162-27.49
	c0.929-4.84,2.038-9.646,3.361-14.394c0.737-2.644,1.539-5.271,2.421-7.87c0.775-2.284,2.841-4.43-0.315-2.139
	c-2.276,0.616-4.552,1.231-6.828,1.847c0.711-0.054,1.422-0.107,2.133-0.161c-2.276-0.616-4.552-1.231-6.828-1.847
	c-2.313-3.671-2.912-4.126-1.797-1.364c0.543,1.647,1.086,3.295,1.63,4.942c0.905,2.746,1.811,5.491,2.716,8.237
	c1.992,6.04,3.983,12.081,5.975,18.121c5.422,16.443,31.42,9.485,26.092-7.193c-3.91-12.239-7.457-24.571-10.647-37.016
	c-5.547,5.547-11.095,11.095-16.642,16.642c18.892,7.294,28.549,29.793,20.494,48.499c8.404,2.276,16.807,4.552,25.211,6.828
	c-1.144-12.738,1.057-24.711,3.714-37.12c3.687-17.222-20.019-23.385-26.092-7.193c-11.153,29.735-20.168,60.155-27.018,91.165
	c8.697,0,17.394,0,26.092,0c-6.077-26.868-0.252-54.964-9.55-81.383c-4.728-13.436-27.978-12.569-26.575,3.597
	c2.209,25.449,2.517,50.941,0.923,76.436c8.858-1.199,17.717-2.398,26.575-3.597c-4.229-21.988,0.883-44.076,13.059-62.676
	c-8.404-2.276-16.807-4.552-25.211-6.828c-1.246,17.344-4.339,34.39-9.286,51.067c-4.609,15.536-10.24,31.44-21.536,43.436
	c7.537,1.99,15.075,3.98,22.612,5.97c-2.777-8.848-3.071-17.147-0.63-26.097c-8.697-2.398-17.394-4.795-26.092-7.193
	c-3.637,13.511-7.274,27.021-10.91,40.532c-4.531,16.835,21.563,24.017,26.092,7.193c3.637-13.511,7.274-27.021,10.91-40.532
	c4.532-16.835-21.507-24.001-26.092-7.193c-3.665,13.437-3.546,27.179,0.63,40.483c2.947,9.388,15.385,13.646,22.612,5.97
	c27.394-29.092,35.981-75.131,38.747-113.636c1.022-14.23-18.392-17.246-25.211-6.828c-16.264,24.845-21.366,54.52-15.787,83.526
	c3.021,15.708,25.671,10.869,26.575-3.597c1.594-25.495,1.286-50.987-0.923-76.436c-8.858,1.199-17.717,2.398-26.575,3.597
	c9.181,26.088,3.487,54.579,9.55,81.383c2.908,12.855,23.232,12.946,26.092,0c6.85-31.01,15.865-61.431,27.018-91.165
	c-8.697-2.398-17.394-4.795-26.092-7.193c-3.124,14.589-6.025,29.337-4.681,44.313c1.051,11.702,19.332,20.482,25.211,6.828
	c15.393-35.744-0.25-74.188-36.664-88.247c-10.044-3.878-18.99,7.48-16.642,16.642c3.19,12.446,6.736,24.778,10.647,37.016
	c8.697-2.398,17.394-4.795,26.092-7.193c-2.897-8.786-5.794-17.572-8.691-26.358c-2.486-7.539-4.527-15.897-12.268-19.749
	c-19.647-9.777-27.614,15.72-31.184,29.515c-8.923,34.483-7.695,70.503-5.243,105.713c1.239,17.792,24.821,16.955,27.058,0
	c4.302-32.595,6.162-65.388,5.575-98.261c-0.237-13.234-18.417-18.652-25.211-6.828c-22.57,39.279-27.997,86.819-14.395,130.088
	c7.537-4.388,15.075-8.775,22.612-13.163c-15.953-15.819-25.172-32.23-18.96-55.035c6.281-23.058,17.878-45.135,27.26-67.055
	c-8.243-1.077-16.485-2.155-24.728-3.232c0.89,4.192,1.78,8.384,2.67,12.575c3.124,14.713,27.889,11.712,26.575-3.597
	c-1.029-11.992,0.558-22.783,4.927-33.997c2.672-6.858-2.943-14.781-9.449-16.642C556.225,396.852,549.854,401.708,547.214,408.485
	L547.214,408.485z"/>
<path fill="#F7C7AD" d="M511.89,537.399c-3.389,9.586-6.779,19.171-10.168,28.756c8.858,1.199,17.717,2.398,26.575,3.597
	c1.474-12.111,2.949-24.222,4.423-36.333c0.801-6.582-5.76-12.577-11.731-13.287c-7.035-0.837-12.426,3.211-14.844,9.691
	c-4.739,12.697-8.029,25.662-9.919,39.083c8.858,1.199,17.717,2.398,26.575,3.597c0.095-6.283,1.206-11.831,3.249-17.784
	c-8.697-2.398-17.394-4.795-26.092-7.193c0.408,1.839,0.114,2.584-0.881,2.234c7.699,3.189,15.397,6.378,23.096,9.567
	c0.177-2.783,0.353-5.566,0.53-8.349c0.82-12.921-19.711-19.106-25.211-6.828c-3.93,8.773-7.186,17.621-9.366,26.99
	c-3.942,16.945,21.081,23.923,26.092,7.193c2.032-6.785,4.064-13.569,6.095-20.354c4.285-14.307-18.576-24.748-24.728-10.425
	c-6.966,16.217-13.931,32.433-20.897,48.65c8.243,3.475,16.485,6.95,24.728,10.425c2.003-5.241,3.552-10.482,4.72-15.966
	c-8.697-2.398-17.395-4.795-26.092-7.193c-0.629,3.777-0.48,9.916-4.753,10.573c-9.615,1.479-13.538,16.581-5.97,22.612
	c20.045,15.973,44.34,33.188,71.464,24.971c23.742-7.193,41.256-32.227,47.009-55.4c4.196-16.901-21.891-24.111-26.092-7.193
	c-3.48,14.017-13.536,31.645-28.111,36.501c-16.373,5.455-33.304-8.583-45.137-18.013c-1.99,7.537-3.98,15.075-5.97,22.612
	c14.802-2.277,21.435-16.166,23.651-29.472c2.808-16.862-22.415-24.456-26.092-7.193c-1.169,5.488-2.718,10.729-4.72,15.966
	c-5.419,14.178,18.675,24.516,24.728,10.425c6.966-16.217,13.931-32.433,20.897-48.65c-8.243-3.475-16.485-6.95-24.728-10.425
	c-2.032,6.785-4.064,13.569-6.095,20.354c8.697,2.398,17.394,4.795,26.092,7.193c1.637-7.036,3.68-13.924,6.639-20.527
	c-8.404-2.276-16.807-4.552-25.211-6.828c-0.177,2.783-0.353,5.566-0.53,8.349c-0.747,11.776,15.278,17.756,23.096,9.567
	c3.887-4.072,6.631-8.635,7.84-14.174c3.726-17.078-20.441-23.658-26.092-7.193c-2.777,8.092-4.087,16.428-4.216,24.978
	c-0.223,14.787,24.404,19.013,26.575,3.597c1.89-13.42,5.18-26.385,9.919-39.083c-8.858-1.199-17.717-2.398-26.575-3.597
	c-1.474,12.111-2.949,24.222-4.423,36.333c-1.946,15.984,21.818,17.049,26.575,3.597c3.389-9.586,6.779-19.171,10.168-28.757
	C543.798,528.143,517.665,521.067,511.89,537.399L511.89,537.399z"/>
<path fill="#F7C7AD" d="M517.228,603.748c5.072,1.15,6.395,0.6,3.968-1.653c-0.909-1.545-1.72-3.14-2.435-4.784
	c-0.819-1.993-0.787-5.252-1.848-6.853c-1.003-1.515,4.023-6.841-4.907-2.339c-0.721,0.364-1.641,3.214-1.58,3.202
	c2.398,0,4.795,0,7.193,0c1.01,0.908,2.02,1.815,3.03,2.723c0.616,2.276,1.231,4.552,1.847,6.828
	c-0.003-0.686-0.006-1.373-0.009-2.059c-4.51,4.51-9.019,9.019-13.529,13.529c7.507-0.219,14.736,1.321,20.765,6.092
	c8.452,6.688,18.593,4.054,22.612-5.97c0.923-2.302,5.207-12.325,6.22-12.648c-2.398,0-4.795,0-7.193,0
	c-1.934-1.947-3.867-3.894-5.801-5.841c0-2.398,0-4.795,0-7.193c2.633-2.267,2.836-2.876,0.611-1.826
	c-1.402,0.498-2.804,0.995-4.206,1.493c-2.804,0.995-5.608,1.991-8.412,2.986c4.388,7.537,8.775,15.075,13.163,22.612
	c9.958-10.287,18.983-21.331,27.286-32.991c10.119-14.211-13.337-27.739-23.364-13.657c-6.973,9.793-14.695,18.879-23.055,27.515
	c-8.881,9.175-0.099,27.32,13.163,22.612c8.604-3.054,19.841-5.183,26.278-12.103c6.392-6.872,6.814-18.172,0.178-25.004
	c-18.384-18.924-35.424,13.042-40.96,26.85c7.537-1.99,15.075-3.98,22.612-5.97c-11.767-9.311-24.706-14.461-39.898-14.017
	c-7.285,0.213-13.563,6.026-13.529,13.529c0.044,9.702,6.829,18.011,16.795,18.841c9.423,0.785,17.484-5.197,22.187-13.031
	c10.413-17.346,0.756-43.077-21.672-41.54c-22.101,1.515-25.881,27.1-19.15,43.631c3.432,8.427,7.944,16.48,16.427,20.653
	c8.954,4.405,19.41,2.575,26.344-4.487C548.571,610.445,529.453,591.297,517.228,603.748L517.228,603.748z"/>
<path fill="#F7C7AD" d="M598.106,583.693c17.215,10.917,34.43,21.834,51.644,32.75c4.552-7.788,9.105-15.576,13.657-23.364
	c-28.119-13.478-56.465-26.89-86.729-34.849c-12.635-3.323-23.377,13.229-13.163,22.612c14.18,13.026,30.111,22.685,48.046,29.611
	c14.387,5.556,23.722-17.503,10.425-24.728c-13.781-7.488-27.861-14.321-42.271-20.514c-6.277-2.698-12.995-2.292-17.453,3.484
	c-3.696,4.79-4.273,13.626,1.058,17.764c14.77,11.465,49.878,27.072,59.466,0.819c8.141-22.29-21.083-38.839-17.654-61.466
	c-8.858-1.199-17.717-2.398-26.575-3.597c0.621,16.536,0.468,33.045-0.46,49.567c9.019,0,18.039,0,27.058,0
	c-2.191-18.762,0.406-37.095,8.967-54.035c-8.404-2.276-16.807-4.552-25.211-6.828c0.496,13.33,2.283,26.547,5.35,39.529
	c3.507,14.841,26.892,11.655,26.575-3.597c-0.356-17.104,1.364-33.682,5.404-50.307c-7.537,1.99-15.075,3.98-22.612,5.97
	c16.767,16.984,35.881,31.48,56.793,42.984c3.475-8.243,6.95-16.485,10.425-24.728c-16.359-5.578-31.405-14.214-44.433-25.579
	c-4.388,7.537-8.775,15.075-13.163,22.612c35.749,7.615,69.844,20.253,101.785,38.033c4.552-7.788,9.105-15.576,13.657-23.364
	c-30.384-15.765-61.843-29.354-94.128-40.729c-16.638-5.862-23.078,19.818-7.193,26.092c7.81,3.085,16.01,4.321,24.392,3.888
	c10.567-0.546,19.309-15.146,9.567-23.096c-8.563-6.988-17.45-12.833-27.628-17.2c-6.764-2.902-14.43-1.958-18.51,4.854
	c-3.41,5.693-1.836,15.602,4.854,18.51c62.802,27.3,548.209,251.315,605.491,288.84c12.697,8.317,28.12-11.163,16.395-21.249
	c-12.787-10.999-451.693-211.663-467.049-218.673c-3.475,8.243-6.95,16.485-10.425,24.728
	c20.263,5.872,463.064,208.051,477.782,223.152c12.276,12.595,30.503-6.138,19.133-19.133c-5.642-6.448-15.137-7.47-22.274-2.973
	c-14.697,9.259-1.134,32.683,13.657,23.364c0.479-0.302,0.957-0.603,1.436-0.905c-2.276,0.616-4.552,1.231-6.828,1.847
	c-1.708-0.733-3.416-1.467-5.124-2.2c6.378-6.378,12.755-12.755,19.133-19.133c-17.893-18.358-465.11-222.978-489.722-230.11
	c-14.328-4.152-24.656,18.232-10.425,24.728c13.21,6.03,450.551,204.962,461.573,214.442c5.465-7.083,10.93-14.166,16.395-21.249
	c-57.282-37.525-542.689-261.54-605.491-288.84c-4.552,7.788-9.105,15.576-13.657,23.364c7.897,3.388,15.476,7.521,22.151,12.969
	c3.189-7.699,6.378-15.397,9.567-23.096c-6.253,0.323-11.353-0.612-17.199-2.921c-2.398,8.697-4.795,17.394-7.193,26.092
	c30.115,10.611,59.323,23.296,87.664,38.001c15.396,7.989,28.952-14.85,13.657-23.364c-33.87-18.853-70.331-32.683-108.249-40.76
	c-12.233-2.606-24.053,13.112-13.163,22.612c16.687,14.557,35.407,25.388,56.373,32.537c14.566,4.967,23.765-17.389,10.425-24.728
	c-19.023-10.465-36.062-23.302-51.317-38.753c-7.001-7.092-20.198-3.966-22.612,5.97c-4.577,18.836-6.774,38.118-6.371,57.5
	c8.858-1.199,17.717-2.398,26.575-3.597c-2.53-10.708-3.974-21.341-4.384-32.336c-0.47-12.632-18.848-19.419-25.211-6.828
	c-10.629,21.032-15.406,44.196-12.662,67.692c1.985,16.994,26.06,17.774,27.058,0c0.928-16.522,1.081-33.031,0.46-49.567
	c-0.542-14.426-24.185-19.361-26.575-3.597c-2.529,16.686,1.408,31.591,9.491,46.272c1.723,3.13,3.697,6.086,5.53,9.147
	c0.972,1.477,1.851,3.008,2.635,4.593c0.607,3.832,1.983,2.493,4.127-4.015c-0.39-0.718-7.565-1.631-8.538-1.985
	c-3.457-1.258-6.914-3.039-9.832-5.304c-5.465,7.083-10.93,14.166-16.395,21.249c14.41,6.193,28.489,13.026,42.271,20.514
	c3.475-8.243,6.95-16.485,10.425-24.728c-13.395-5.173-25.552-12.957-36.106-22.653c-4.388,7.537-8.775,15.075-13.163,22.612
	c28.066,7.381,54.189,19.623,80.265,32.121c15.578,7.467,28.539-13.927,13.657-23.364c-17.215-10.917-34.43-21.834-51.644-32.75
	C597.014,550.976,583.424,574.383,598.106,583.693L598.106,583.693z"/>
<path fill="#F7C7AD" d="M616.837,541.482c35.153,4.322,67.413,21.127,100.306,33.118c30.176,11.001,488.778,206.923,514.795,226.985
	c3.475-8.243,6.95-16.485,10.425-24.728c-36.514-9.514-495.417-218.532-530.317-232.516
	c-36.282-14.537-73.185-27.444-110.071-40.347c-14.279-4.995-24.509,18.493-10.425,24.728
	c76.766,33.984,580.309,255.245,658.809,284.931c6.884,2.603,14.766-2.893,16.642-9.449c2.206-7.708-2.708-13.909-9.449-16.642
	c-72.213-29.275-571.205-245.544-646.45-265.794c-12.421-3.343-23.726,13.472-13.163,22.612
	c30.694,26.56,70.441,40.858,105.967,59.665c36.277,19.203,496.561,232.141,527.333,259.48c4.388-7.537,8.776-15.075,13.163-22.612
	c-39.459-14.147-500.426-227.51-537.748-246.261c-39.059-19.624-79.878-34.288-123.037-41.685
	c-1.199,8.858-2.398,17.717-3.597,26.575c19.121,1.154,37.457,7.784,55.573,13.552c17.745,5.65,35.458,11.465,52.755,18.388
	c16.435,6.578,32.162,14.589,47.288,23.773c15.282,9.279,30.419,18.507,47.601,23.887c14.725,4.611,448.694,174.324,435.487,166.711
	c-39.387-22.706-503.837-236.85-543.225-259.556c-15.113-8.712-28.755,14.66-13.657,23.364
	c39.388,22.706,78.775,45.411,118.163,68.116c3.475-8.243,432.012,174.954,435.487,166.711
	c-16.816-5.266-456.369-206.831-471.404-215.728c-16.435-9.725-33.833-17.618-51.598-24.578
	c-17.348-6.797-35.084-12.541-52.837-18.175c-19.583-6.215-38.99-12.278-59.634-13.524c-15.003-0.906-18.734,23.981-3.597,26.575
	c43.105,7.388,83.479,21.99,122.328,41.878c37.396,19.144,498.771,231.839,538.458,246.068
	c12.659,4.539,23.052-13.827,13.163-22.612C1219.477,816.943,759.56,603.248,723.24,583.71
	c-17.922-9.641-36.161-18.671-54.445-27.602c-18.026-8.805-36.445-17.64-51.723-30.86c-4.388,7.537-8.775,15.075-13.163,22.612
	c75.245,20.25,574.236,236.519,646.45,265.794c2.398-8.697,4.795-17.394,7.193-26.092
	c-76.307-28.857-577.723-249.168-652.345-282.203c-3.475,8.243-6.95,16.485-10.425,24.728
	c36.886,12.903,73.789,25.81,110.071,40.346c34.909,13.987,493.787,222.998,530.317,232.516c15.89,4.14,21.951-15.84,10.425-24.728
	c-27.856-21.479-488.974-217.943-521.259-229.713c-35.636-12.991-69.435-29.405-107.499-34.085
	c-7.264-0.893-13.529,6.857-13.529,13.529C603.308,536.007,609.551,540.586,616.837,541.482L616.837,541.482z"/>
<path fill="#F7C7AD" d="M580.133,545.596c78.925,32.422,582.987,256.588,657.429,298.56c15.266,8.607,28.199-13.903,13.657-23.364
	c-30.652-19.942-492.973-220.173-521.865-242.913c-4.388,7.537-8.775,15.075-13.163,22.612c22.649,8.842,41.459,26.065,61.862,38.9
	c21.566,13.565,469.378,216.276,492.921,225.966c0-8.697,0-17.395,0-26.092c-2.566,0.491-14.151-11.484-17.624-14.225
	c-7.9-6.234-16.006-12.196-24.418-17.722c-7.883-5.179-441.061-201.438-449.381-205.881c-4.161-2.222-8.374-4.337-12.624-6.381
	c-1.644-0.791-3.322-1.521-4.944-2.36c-2.545-1.316-3.191-2.87-2.922,0.245c-5.709,4.349-11.417,8.697-17.126,13.046
	c32.021,10.244,489.258,211.431,521.58,220.681c14.928,4.272,23.398-16.755,10.425-24.728c-11.045-6.787-25.98-10.585-35.52,0.819
	c-8.116,9.702-6.474,23.101,4.106,30.063c14.588,9.6,28.158-13.821,13.657-23.364c5.557,5.998,5.334,10.359-0.669,13.08
	c1.637,0.841,3.226,1.763,4.769,2.765c3.475-8.243,6.95-16.485,10.425-24.728c-32.322-9.25-489.559-210.437-521.58-220.681
	c-7.865-2.516-17.868,4.419-17.126,13.046c1.159,13.457,9.837,19.965,21.267,25.478c11.807,5.695,23.276,12.021,34.307,19.11
	c10.947,7.035,446.451,206.188,456.36,214.62c10.452,8.894,19.825,15.962,34.23,13.207c5.765-1.103,9.933-7.455,9.933-13.046
	c0-6.44-4.346-10.747-9.933-13.046c-23.317-9.596-470.776-212.97-491.903-226.722c-20.733-13.497-39.607-29.056-62.881-38.143
	c-12.281-4.794-23.628,14.376-13.163,22.612c31.005,24.403,494.556,225.813,527.341,247.144c4.552-7.788,9.104-15.576,13.657-23.364
	c-76.47-43.116-582.821-267.984-663.893-301.288c-6.808-2.797-14.807,3.034-16.642,9.449
	C568.47,536.688,573.404,542.832,580.133,545.596L580.133,545.596z"/>
<path fill="#F7C7AD" d="M625.32,596.521c8.432,3.252,16.778,6.679,25.043,10.336c3.475-8.243,6.95-16.485,10.425-24.728
	c-12.482-4.851-25.241-8.386-38.441-10.648c-13.535-2.32-22.117,11.922-13.163,22.612c11.408,13.62,25.788,24.458,42.067,31.58
	c3.475-8.243,6.95-16.485,10.425-24.728c-10.504-3.701-21.008-7.402-31.512-11.103c-12.42-4.376-23.525,14.046-13.163,22.612
	c20.525,16.967,43.983,29.137,69.976,35.225c14.183,3.322,24.988-18.076,10.425-24.728c-14.206-6.489-28.412-12.977-42.618-19.466
	c-15.575-7.114-29.373,15.343-13.657,23.364c20.075,10.246,42.28,13.191,63.228,20.938c18.999,7.027,36.082,18.607,50.447,32.78
	c9.856,9.725,25.619-0.187,22.612-13.163c-4.174-18.018-24.305-27.202-38.64-36.111c-17.978-11.174-36.32-21.742-54.825-32.016
	c-15.238-8.46-28.9,14.9-13.657,23.364c40.322,22.388,506.067,235.554,547.1,256.612c4.552-7.788,9.105-15.576,13.657-23.364
	c-33.155-16.066-491.364-223.762-521.619-244.95c-3.475,8.243-6.95,16.485-10.425,24.728c27.358,8.622,53.672,19.836,78.725,33.825
	c24.091,13.452,471.296,225.209,498.358,232.332c14.548,3.829,24.19-17.268,10.425-24.728
	c-13.941-7.556-27.332-15.931-40.227-25.161c-4.552,7.788-9.105,15.576-13.657,23.364c18.161,8.35,33.917,19.666,47.477,34.355
	c5.465-7.083,10.93-14.166,16.395-21.249c-26.414-15.707-479.777-219.445-509.257-228.12c-15.629-4.599-22.172,16.147-10.425,24.728
	c20.545,15.007,467.7,218.394,491.188,228.109c12.427,5.14,23.179-14.223,13.163-22.612c-8.878-7.436-18.215-13.903-28.558-19.135
	c-15.502-7.842-29.215,15.494-13.657,23.364c8.231,4.164,16.003,8.975,23.081,14.904c4.388-7.537,8.775-15.075,13.163-22.612
	c-21.205-8.77-41.152-20.421-59.662-33.942c-3.475,8.243-432.012-174.954-435.487-166.711
	c27.349,8.048,478.291,210.822,502.793,225.392c13.487,8.02,26.677-10.11,16.395-21.249c-14.957-16.203-32.915-29.373-52.954-38.586
	c-15.861-7.292-27.896,13.172-13.657,23.364c12.894,9.23,26.285,17.605,40.227,25.161c3.475-8.243,6.95-16.485,10.425-24.728
	c-13.124-3.454-24.013-11.164-35.149-18.633c-12.115-8.125-449.598-207.177-462.443-214.097
	c-25.338-13.651-52.048-24.778-79.491-33.427c-15.416-4.858-22.383,16.354-10.425,24.728
	c30.255,21.187,488.464,228.884,521.619,244.95c15.538,7.529,29.253-15.36,13.657-23.364
	c-41.032-21.058-506.778-234.224-547.1-256.612c-4.552,7.788-9.105,15.576-13.657,23.364c15.505,8.608,30.897,17.417,46.053,26.626
	c7.332,4.455,14.612,8.997,21.822,13.647c4.521,2.915,11.844,6.026,13.155,11.684c7.537-4.388,15.075-8.775,22.612-13.163
	c-15.531-15.323-33.599-27.686-53.684-36.229c-21.2-9.018-44.938-11.243-65.467-21.72c-4.552,7.788-9.104,15.576-13.657,23.364
	c14.206,6.489,28.412,12.977,42.618,19.466c3.475-8.243,6.95-16.485,10.425-24.728c-21.293-4.987-41.129-14.29-58.036-28.266
	c-4.388,7.537-8.775,15.075-13.163,22.612c10.504,3.701,21.008,7.402,31.512,11.103c14.27,5.028,24.529-18.557,10.425-24.728
	c-14.474-6.332-26.446-15.237-36.591-27.349c-4.388,7.537-8.775,15.075-13.163,22.612c13.199,2.263,25.958,5.797,38.441,10.648
	c14.157,5.502,24.445-18.524,10.425-24.728c-10.4-4.602-20.896-8.972-31.507-13.064c-6.867-2.648-14.776,2.926-16.642,9.449
	C613.692,587.491,618.534,593.904,625.32,596.521L625.32,596.521z"/>
<path fill="#F7C7AD" d="M436.595,455.241c2.987,1.443,5.974,2.886,8.961,4.33c3.319,1.604,6.765,2.372,10.425,1.364
	c3.138-0.864,6.539-3.291,8.085-6.217c1.659-3.14,2.49-6.944,1.364-10.425c-1.036-3.202-3.075-6.567-6.217-8.085
	c-2.987-1.443-5.974-2.886-8.961-4.33c-3.319-1.604-6.765-2.372-10.425-1.364c-3.138,0.864-6.539,3.291-8.085,6.217
	c-1.659,3.14-2.491,6.944-1.364,10.425C431.413,450.358,433.452,453.723,436.595,455.241L436.595,455.241z"/>
<path fill="#E7A38D" d="M490.856,488.014c27.216,0.079,35.422-41.586,21.375-59.595c-16.143-20.697-45.642-22.066-66.506-35.76
	c-14.6-9.582-28.172,13.838-13.657,23.364c13.623,8.941,29.386,12.55,44.035,19.261c4.901,2.245,13.255,5.572,15.609,10.934
	c1.274,2.902,0.484,5.87-0.315,8.792c-0.408,1.492-1.583,3.324-1.751,4.802c-0.267,2.349-2.579,1.134,1.211,1.145
	C473.444,460.905,473.419,487.963,490.856,488.014L490.856,488.014z"/>
<path fill="#E7A38D" d="M401.392,472.688c15.587,6.138,32.203,8.201,48.205,12.898c6.476,1.901,15.809,4.376,20.549,9.539
	c4.546,4.951,1.188,13.597-0.374,19.263c-4.633,16.812,21.464,23.986,26.092,7.193c2.848-10.335,5.018-21.377,1.875-31.916
	c-3.41-11.432-13.367-18.807-23.705-23.648c-20.851-9.764-44.152-11.035-65.449-19.422c-6.848-2.697-14.786,2.961-16.642,9.449
	C389.753,463.697,394.624,470.023,401.392,472.688L401.392,472.688z"/>
<path fill="#E7A38D" d="M402.975,541.743c9.852,3.502,20.313,4.683,30.065,8.598c1.75,0.702,3.464,1.483,5.16,2.305
	c0.03,0.014,6.412,3.625,4.952,2.229c-1.273-1.216,0.901,2.57,1.215,3.31c1.133,2.675,2.236,5.363,3.354,8.044
	c2.799,6.714,8.973,11.597,16.642,9.449c6.351-1.779,12.288-9.833,9.449-16.642c-2.52-6.044-4.571-12.686-7.757-18.418
	c-3.117-5.608-8.643-8.625-14.199-11.336c-13.512-6.592-27.719-8.664-41.69-13.63C393.73,509.807,386.656,535.941,402.975,541.743
	L402.975,541.743z"/>
<path fill="#E7A38D" d="M587.474,421.473c3.074-6.389,6.043-12.955,6.074-20.197c0.016-3.763-1.206-7.335-1.542-11.027
	c-0.331-3.632,0.393-7.27,0.271-10.905c-0.526-15.697-11.166-25.351-26.158-27.233c-7.262-0.912-13.529,6.871-13.529,13.529
	c0,8.069,6.246,12.615,13.529,13.529c-2.047-0.257-0.347-0.826-0.858,1.714c-0.678,3.376-0.434,7.344-0.132,10.746
	c0.604,6.79,2.015,9.88-1.018,16.185C556.594,423.436,579.918,437.176,587.474,421.473L587.474,421.473z"/>
<path fill="#E7A38D" d="M568.185,435.971c8.907,9.356,38.473,22.167,27.17,38.032c-10.122,14.208,13.334,27.736,23.364,13.657
	c8.572-12.032,8.71-27.797,1.249-40.39c-7.869-13.281-22.315-19.576-32.65-30.432C575.288,404.2,556.174,423.354,568.185,435.971
	L568.185,435.971z"/>
<path fill="#E7A38D" d="M624.226,509.437c50.476,21.876,97.465,50.54,146.266,75.933c359.906,187.279,426.135,228.811,13.657-23.364
	c-46.936-28.695-95.79-54.057-146.266-75.933c-6.753-2.927-14.44-1.942-18.51,4.854
	C615.966,496.614,617.533,506.537,624.226,509.437L624.226,509.437z"/>
<path fill="#E7A38D" d="M614.945,520.295c57.208,23.111,540.619,234.681,599.908,251.761c16.764,4.83,23.922-21.272,7.193-26.092
	c-59.289-17.081-542.7-228.65-599.908-251.761c-6.825-2.757-14.798,3.005-16.642,9.449
	C603.293,511.354,608.201,517.571,614.945,520.295L614.945,520.295z"/>
<path fill="#E7A38D" d="M643.793,541.112c62.293,28.588,549.649,248.615,611.943,277.202c6.689,3.07,14.496,1.848,18.51-4.854
	c3.471-5.794,1.771-15.47-4.854-18.51c-62.293-28.588-549.649-248.615-611.943-277.202c-6.689-3.07-14.496-1.848-18.51,4.854
	C635.469,528.396,637.169,538.071,643.793,541.112L643.793,541.112z"/>
<path fill="#E7A38D" d="M708.892,574.504c47.734,15.712,519.458,225.75,564.857,247.301c15.519,7.367,29.162-14.955,13.657-23.364
	c-47.988-26.027-521.037-243.493-569.025-269.519c-23.994-13.013-47.966-26.066-71.981-39.04
	c-20.306-10.97-44.049-21.509-66.019-8.606c-8.138,4.78-9.472,18.953,0,23.364c14.995,6.983,29.991,13.966,44.986,20.949
	c15.673,7.299,29.439-15.95,13.657-23.364c-6.25-2.936-12.5-5.872-18.75-8.809c-3.475,8.243-6.95,16.485-10.425,24.728
	c76.791,26.203,577.03,248.101,650.483,282.559c15.673,7.353,29.427-15.966,13.657-23.364
	c-75.552-35.443-577.96-258.335-656.947-285.287c-14.33-4.89-24.376,18.174-10.425,24.728c6.25,2.936,12.5,5.872,18.75,8.809
	c4.552-7.788,9.105-15.576,13.657-23.364c-14.995-6.983-29.991-13.966-44.986-20.949c0,7.788,0,15.576,0,23.364
	c8.302-4.876,18.025-1.449,26.227,2.199c10.736,4.775,20.935,10.994,31.256,16.591c21.907,11.882,43.815,23.763,65.722,35.645
	c43.815,23.763,512.692,238.966,556.506,262.73c4.552-7.788,9.104-15.576,13.657-23.364
	c-47.49-22.543-521.387-233.592-571.321-250.029C699.506,542.955,692.401,569.076,708.892,574.504L708.892,574.504z"/>
<path fill="#E7A38D" d="M779.551,601.437c25.991,8.069,479.143,226.307,499.305,244.6c12.871,11.678,32.063-7.402,19.133-19.133
	c-23.687-21.491-51.275-37.319-81.829-46.804c-16.668-5.175-460.822-182.465-444.218-177.31L779.551,601.437z"/>
<path fill="#E7A38D" d="M582.103,480.356c4.91,20.911,4.026,41.984-2.162,62.521c8.858,1.199,17.717,2.398,26.575,3.597
	c0.143-10.19,2.664-19.379,7.715-28.233c-8.243-1.077-16.485-2.155-24.728-3.232c1.861,12.371-1.542,24.423-8.103,34.852
	c7.788,4.552,15.576,9.104,23.364,13.657c6.39-14.517,12.779-29.033,19.169-43.55c-7.083,0.913-14.166,1.825-21.249,2.738
	c12.388,12.129,34.343,9.719,42.458-6.214c7.857-15.427-14.721-28.92-23.364-13.657c-4.106,7.251-8.212,14.502-12.319,21.753
	c-7.207,12.727,6.73,23.634,18.51,18.51c11.666-5.074,23.331-10.147,34.997-15.221c-5.465-7.083-10.93-14.166-16.395-21.249
	c-5.59,5.326-12.381,8.686-20.134,9.297c-15.062,1.186-18.55,21.673-3.597,26.575c13.252,4.344,27.837,2.362,39.197-5.83
	c5.523-3.983,8.317-10.291,5.536-16.895c-2.365-5.615-9.7-10.372-15.961-7.833c-3.732,1.513-7.464,3.026-11.196,4.539
	c-5.621,2.279-9.933,6.59-9.933,13.046c0,5.587,4.158,11.969,9.933,13.046c29.789,5.557,58.685,14.712,86.004,27.855
	c15.62,7.515,29.36-15.809,13.657-23.364c-29.45-14.169-60.327-24.587-92.467-30.583c0,8.697,0,17.394,0,26.092
	c3.732-1.513,7.464-3.026,11.196-4.539c-3.475-8.243-6.95-16.485-10.425-24.728c-5.989,4.319-11.301,5.412-18.347,3.103
	c-1.199,8.858-2.398,17.717-3.597,26.575c15.148-1.193,28.217-6.695,39.267-17.222c11.961-11.396-3.204-26.986-16.395-21.249
	c-11.666,5.074-23.331,10.147-34.997,15.221c6.17,6.17,12.34,12.34,18.51,18.51c4.106-7.251,8.213-14.502,12.319-21.753
	c-7.788-4.552-15.576-9.105-23.364-13.657c-1.427,2.801-0.67,0.043,0.039,0.738c-5.629-5.512-17.637-5.468-21.249,2.738
	c-6.39,14.517-12.779,29.033-19.169,43.55c-6.874,15.617,13.866,28.754,23.364,13.657c10.691-16.994,13.789-36.034,10.831-55.702
	c-1.79-11.901-19.399-12.572-24.728-3.232c-7.401,12.97-11.2,26.953-11.409,41.89c-0.217,15.477,22.212,18.076,26.575,3.597
	c7.574-25.136,8.157-51.38,2.162-76.907C604.216,456.217,578.12,463.391,582.103,480.356L582.103,480.356z"/>
<g>
	<g>
		<path fill="#E7A38D" d="M771.21,604.594c17.411,0,17.44-27.058,0-27.058C753.799,577.536,753.77,604.594,771.21,604.594
			L771.21,604.594z"/>
	</g>
</g>
<path fill="#E7A38D" d="M545.796,556.333c-20.1-24.703-22.708-61.252-7.583-88.973c8.343-15.292-15.012-28.964-23.364-13.657
	c-21.386,39.197-16.196,87.338,11.814,121.763c4.648,5.712,14.29,4.738,19.133,0C551.462,569.923,550.382,561.969,545.796,556.333
	L545.796,556.333z"/>
<path fill="#E7A38D" d="M532.991,539.221c-4.668-25.214,2.572-50.414,17.963-70.603c4.464-5.855,0.868-15.083-4.854-18.51
	c-6.909-4.139-14.104-0.927-18.51,4.854c-19.9,26.104-26.619,59.431-20.69,91.453C510.065,563.514,536.147,556.271,532.991,539.221
	L532.991,539.221z"/>
<path fill="#E7A38D" d="M631.263,624.779c71.74,17.093,564.67,238.034,626.144,278.772c4.552-7.788,9.104-15.576,13.657-23.364
	c-75.171-32.363-574.527-258.426-652.354-284.111c-1.199,8.858-2.398,17.717-3.597,26.575c20.401-2.508,35.992,6.877,53.7,15.53
	c21.853,10.678,44.524,19.883,66.773,29.708c45.476,20.083,516.015,231.605,561.491,251.688c6.733,2.973,14.458,1.911,18.51-4.854
	c3.428-5.722,1.818-15.564-4.854-18.51c-47.642-21.039-520.346-233.518-567.988-254.557c-22.775-10.058-45.925-19.527-68.135-30.793
	c-18.913-9.594-37.775-17.94-59.498-15.27c-14.66,1.802-18.957,21.506-3.597,26.575c75.621,24.957,572.852,249.938,645.891,281.384
	c15.704,6.761,28.528-13.509,13.657-23.364c-63.238-41.907-558.812-263.917-632.608-281.5
	C621.528,594.654,614.304,620.738,631.263,624.779L631.263,624.779z"/>
<path fill="#E7A38D" d="M563.641,589.534c-18.487,13.02-39.474,18.643-61.833,20.256c-17.267,1.246-17.403,28.315,0,27.058
	c26.915-1.943,53.141-8.211,75.49-23.951C591.426,602.948,577.922,579.477,563.641,589.534L563.641,589.534z"/>
<g>
	<path fill="none" d="M319.683,212.927l27.312,12.469c0,0,0,0,27.312,12.469c27.312,12.469,14.843,39.781,14.843,39.781
		l30.685,14.009c0,0,23.533,11.719,12.99,34.813"/>
	<path fill="#231815" d="M440.412,329.933l-15.175-6.929c6.659-14.577-6.092-22.293-9.05-23.846l-30.5-13.924l-4.124-11.052
		c8.33-18.882-7.467-27.245-10.718-28.729l-7.591-3.466l0.632-18.048l13.885,6.339c14.031,6.406,22.036,17.719,22.534,31.858
		c0.147,4.111-0.355,7.882-1.026,10.966l24.02,10.966C434.19,289.485,451.401,305.862,440.412,329.933z"/>
</g>
<path fill="#231815" d="M525.718,480.222l-9.301-16.916c-4.396,3.513-8.429,7.554-12.366,12.127l5.033,9.155l-43.205,94.64
	c-1.385,3.033-34.797,73.967-108.296,40.405l-40.863-18.654l5.541-12.14l40.866,18.658c0.632,0.288,15.664,7.055,34.188,6.389
	c13.383-0.474,30.478-4.899,44.352-20.99c-5.794-1.213-11.259-3.996-15.818-7.613c-7.751,7.396-17.305,11.402-28.599,11.911
	c-14.618,0.651-26.883-4.734-27.212-4.879L321.6,570.2l-11.051,4.124l-12.468,27.313l4.124,11.051l48.45,22.119
	c16.485,7.525,31.334,10.591,44.596,10.589c57.93-0.003,85.469-58.513,85.801-59.243l44.945-98.45L525.718,480.222z"/>
<g>
	<path fill="#231815" d="M492.83,490.062c-9.383,0-16.696-3.211-17.537-3.593l-54.627-24.937
		c-14.028-6.405-30.656-25.227-18.967-50.832c6.405-14.033,17.719-22.036,31.858-22.536c10.063-0.388,18.091,3.165,18.974,3.567
		l54.624,24.939c14.028,6.405,30.659,25.227,18.97,50.832c-6.408,14.031-17.723,22.034-31.858,22.534
		C493.782,490.054,493.306,490.062,492.83,490.062z M482.187,471.281c18.908,8.322,27.281-7.456,28.763-10.707
		c0.922-2.018,8.451-19.977-10.721-28.729l-54.624-24.939c-18.876-8.327-27.248,7.469-28.731,10.72
		c-8.754,19.172,8.702,27.81,10.718,28.731L482.187,471.281z"/>
</g>
<g>
	<path fill="#231815" d="M467.892,544.688c-9.383,0-16.696-3.211-17.537-3.593l-54.627-24.939
		c-0.883-0.404-8.803-4.162-15.126-11.999c-8.881-11.01-10.246-24.802-3.841-38.833c6.408-14.031,17.723-22.034,31.858-22.534
		c10.057-0.36,18.091,3.167,18.974,3.567l54.627,24.937c0.883,0.404,8.803,4.162,15.126,12c8.881,11.01,10.246,24.802,3.841,38.833
		c-6.408,14.031-17.723,22.034-31.861,22.534C468.843,544.68,468.367,544.688,467.892,544.688z M457.252,525.907
		c18.915,8.332,27.278-7.456,28.76-10.707c1.486-3.251,7.943-19.92-10.767-28.754l-54.578-24.914
		c-18.876-8.33-27.248,7.469-28.731,10.72c-8.754,19.172,8.698,27.809,10.718,28.729L457.252,525.907z"/>
</g>
<g>
	<path fill="#231815" d="M442.461,599.338c-6.317,0-12.311-1.458-17.045-3.618l-27.314-12.469
		c-14.028-6.405-30.656-25.227-18.967-50.832c6.405-14.033,17.719-22.036,31.858-22.536c10.057-0.376,18.091,3.165,18.974,3.567
		l27.314,12.469c14.028,6.405,30.656,25.227,18.967,50.832C468.504,593.716,454.864,599.338,442.461,599.338z M432.313,580.532
		c3.359,1.476,20.309,7.794,28.76-10.707c8.754-19.172-8.702-27.81-10.718-28.732l-27.314-12.468
		c-3.277-1.445-20.27-7.812-28.731,10.72c-8.754,19.172,8.702,27.81,10.718,28.732L432.313,580.532z"/>
</g>
<path fill="#231815" d="M538.247,585.378c-21.518-9.824-56.276-41.404-33.813-90.613l12.471-27.314l15.175,6.929l-12.471,27.312
	c-21.228,46.502,23.645,67.634,25.564,68.51L538.247,585.378z"/>
<path fill="#231815" d="M532.918,446.768L404.68,388.223l-4.124-11.051l13.553-29.688l11.051-4.124l103.312,47.165l-1.688,11.625
	l5.885,34.355L532.918,446.768z M419.194,376.513l104.374,47.65l-5.561-20.08l-92.186-42.086L419.194,376.513z"/>
<path fill="#231815" d="M269.641,653.292c-5.558,0-11.337-1.319-17.162-3.978l-136.561-62.345
	c-0.883-0.404-8.803-4.162-15.126-11.999c-8.884-11.011-10.246-24.803-3.841-38.835L234.108,235.7l11.051-4.124l75.861,34.634
	l-6.926,15.175l-68.274-31.171l-133.694,292.85c-3.805,8.332-3.264,15.343,1.648,21.433c3.861,4.784,9.021,7.275,9.07,7.297
	l136.561,62.345c8.33,3.804,15.344,3.261,21.433-1.65c4.782-3.859,7.275-9.019,7.297-9.07l133.697-292.85l-68.284-31.172
	l6.926-15.175l75.871,34.637l4.124,11.051L303.31,630.346c-0.404,0.883-4.16,8.803-11.999,15.126
	C284.871,650.668,277.476,653.292,269.641,653.292z"/>
<g>
	
		<rect x="106.366" y="609.199" transform="matrix(-0.9097 -0.4153 0.4153 -0.9097 87.2328 1267.3917)" fill="#231815" width="150.12" height="30.024"/>
	<path fill="#231815" d="M240.011,676.626l-136.564-62.345l-4.124-11.052l12.471-27.312l11.051-4.123l136.561,62.345l4.124,11.051
		l-12.468,27.312L240.011,676.626z M117.96,602.571l121.389,55.417l5.542-12.139l-121.389-55.417L117.96,602.571z"/>
</g>
<rect x="253.618" y="574.352" transform="matrix(0.4153 -0.9097 0.9097 0.4153 -403.076 595.825)" fill="#231815" width="16.681" height="74.232"/>
<rect x="279.314" y="567.617" transform="matrix(0.4153 -0.9097 0.9097 0.4153 -368.6989 606.7795)" fill="#231815" width="16.681" height="45.156"/>
<rect x="129.961" y="517.899" transform="matrix(0.4153 -0.9097 0.9097 0.4153 -424.0237 450.3282)" fill="#231815" width="16.681" height="74.232"/>
<rect x="129.202" y="499.089" transform="matrix(0.4153 -0.9097 0.9097 0.4153 -394.129 430.1364)" fill="#231815" width="16.681" height="45.153"/>
<rect x="298.664" y="551.012" transform="matrix(0.4153 -0.9097 0.9097 0.4153 -335.3976 610.2355)" fill="#231815" width="16.681" height="30.025"/>
<rect x="311.134" y="523.701" transform="matrix(0.4153 -0.9097 0.9097 0.4153 -303.2612 605.6119)" fill="#231815" width="16.679" height="30.022"/>
<rect x="323.603" y="496.386" transform="matrix(0.4153 -0.9097 0.9097 0.4153 -271.1239 600.9821)" fill="#231815" width="16.681" height="30.025"/>
<rect x="336.07" y="469.074" transform="matrix(0.4153 -0.9097 0.9097 0.4153 -238.9887 596.3543)" fill="#231815" width="16.681" height="30.025"/>
<rect x="348.541" y="441.762" transform="matrix(0.4153 -0.9097 0.9097 0.4153 -206.8516 591.7296)" fill="#231815" width="16.681" height="30.025"/>
<rect x="361.009" y="414.449" transform="matrix(0.4153 -0.9097 0.9097 0.4153 -174.7149 587.1008)" fill="#231815" width="16.681" height="30.025"/>
<rect x="197.134" y="339.636" transform="matrix(0.4153 -0.9097 0.9097 0.4153 -202.4774 394.2829)" fill="#231815" width="16.681" height="30.025"/>
<rect x="373.479" y="387.139" transform="matrix(0.4153 -0.9097 0.9097 0.4153 -142.578 582.4768)" fill="#231815" width="16.679" height="30.022"/>
<rect x="385.947" y="359.825" transform="matrix(0.4153 -0.9097 0.9097 0.4153 -110.4426 577.8483)" fill="#231815" width="16.681" height="30.025"/>
<rect x="398.415" y="332.513" transform="matrix(0.4152 -0.9097 0.9097 0.4152 -78.2956 573.244)" fill="#231815" width="16.681" height="30.025"/>
<rect x="134.789" y="476.197" transform="matrix(0.4153 -0.9097 0.9097 0.4153 -363.1586 417.4167)" fill="#231815" width="16.681" height="30.025"/>
<rect x="147.259" y="448.887" transform="matrix(0.4153 -0.9097 0.9097 0.4153 -331.0227 412.7925)" fill="#231815" width="16.679" height="30.022"/>
<rect x="159.728" y="421.573" transform="matrix(0.4152 -0.9097 0.9097 0.4152 -298.887 408.1867)" fill="#231815" width="16.681" height="30.025"/>
<rect x="172.198" y="394.262" transform="matrix(0.4153 -0.9097 0.9097 0.4153 -266.7487 403.5389)" fill="#231815" width="16.679" height="30.022"/>
<rect x="184.667" y="366.948" transform="matrix(0.4153 -0.9097 0.9097 0.4153 -234.6126 398.9107)" fill="#231815" width="16.681" height="30.025"/>
<rect x="209.604" y="312.325" transform="matrix(0.4153 -0.9097 0.9097 0.4153 -170.3395 389.6574)" fill="#231815" width="16.679" height="30.022"/>
<rect x="222.073" y="285.011" transform="matrix(0.4153 -0.9097 0.9097 0.4153 -138.2036 385.0294)" fill="#231815" width="16.681" height="30.025"/>
<rect x="234.543" y="257.701" transform="matrix(0.4153 -0.9097 0.9097 0.4153 -106.067 380.4047)" fill="#231815" width="16.679" height="30.022"/>
<path fill="#231815" d="M1351.53,957.548L586.655,612.099c-23.577,41.169-66.44,35.676-86.811,26.379l-54.624-24.939l14.306-11.805
	l47.244,21.569c0.101,0.047,12.575,5.535,27.196,4.872c18.579-0.837,32.48-11.078,41.319-30.435l11.051-4.124l772.12,348.758
	L1351.53,957.548z"/>
<g>
	<path fill="#231815" d="M1266.586,778.829L617.341,485.041l-4.124-11.049c1.443-3.274,7.812-20.27-10.718-28.731
		c-14.031-6.406-22.036-17.721-22.538-31.858c-0.355-10.063,3.167-18.092,3.567-18.974c1.446-3.276,7.815-20.27-10.718-28.731
		c-8.333-3.808-15.348-3.266-21.433,1.648c-4.782,3.861-7.275,9.019-7.297,9.07l-12.468,27.314
		c-2.746,6.017-3.235,11.179-1.489,15.784c3.043,8.024,12.044,12.095,12.135,12.135l4.258,11.109l-14.628,32.044l-15.175-6.926
		l11.52-25.232c-4.734-3.409-10.506-8.939-13.631-17.017c-3.447-8.912-2.828-18.61,1.834-28.825l12.468-27.312
		c0.404-0.883,4.16-8.803,11.999-15.124c11.005-8.879,24.799-10.249,38.833-3.843c14.031,6.406,22.036,17.721,22.534,31.86
		c0.358,10.063-3.167,18.091-3.567,18.974c-1.443,3.272-7.812,20.268,10.721,28.729c21.267,9.71,24.707,28.677,21.596,42.865
		l642.492,290.703L1266.586,778.829z"/>
</g>
<g>
	<path fill="#231815" d="M371.001,265.19l-15.175-6.926c8.461-18.534-7.483-27.203-10.767-28.753
		c-13.979-6.382-30.61-25.204-18.921-50.809c8.464-18.534-7.483-27.203-10.767-28.753l-81.888-37.383
		c-19.169-8.754-27.809,8.7-28.731,10.72c-1.443,3.272-7.812,20.268,10.718,28.729l54.627,24.939
		c14.028,6.405,30.656,25.227,18.967,50.832c-6.405,14.031-17.719,22.034-31.858,22.534c-10.067,0.362-18.091-3.165-18.974-3.567
		l6.926-15.175c3.277,1.448,20.27,7.817,28.731-10.718c8.461-18.534-7.483-27.203-10.767-28.753l-54.578-24.916
		c-25.603-11.691-25.369-36.804-18.967-50.832c6.405-14.028,25.245-30.646,50.832-18.967l81.937,37.406
		c0.883,0.404,8.803,4.162,15.126,11.999c8.884,11.011,10.246,24.803,3.841,38.835c-8.461,18.532,7.486,27.201,10.77,28.752
		C366.062,220.763,382.69,239.585,371.001,265.19z"/>
</g>
<g>
	<path fill="#231815" d="M173.004,99.105c-5.248,0-10.575-1.096-15.651-3.413c-9.19-4.198-16.198-11.72-19.729-21.186
		c-3.531-9.466-3.167-19.741,1.029-28.931c8.669-18.97,31.154-27.349,50.115-18.698c9.19,4.196,16.198,11.72,19.729,21.186
		c3.531,9.464,3.167,19.739-1.029,28.929v0.002C201.122,90.887,187.364,99.105,173.004,99.105z M173.095,40.144
		c-8.031,0-15.722,4.594-19.267,12.362c-2.346,5.136-2.551,10.879-0.577,16.17c1.974,5.291,5.89,9.497,11.028,11.842
		c10.614,4.844,23.176,0.151,28.014-10.453c2.346-5.138,2.551-10.881,0.577-16.172c-1.974-5.291-5.89-9.497-11.028-11.841
		C179.005,40.758,176.027,40.144,173.095,40.144z"/>
</g>
<g>
	<path fill="#231815" d="M164.866,202.766c-3.623,0-7.236-0.777-10.63-2.326c-12.852-5.869-18.534-21.099-12.666-33.953
		c2.841-6.224,7.936-10.971,14.351-13.364c6.408-2.393,13.37-2.145,19.599,0.697c6.226,2.842,10.972,7.939,13.364,14.352
		c2.391,6.411,2.144,13.372-0.697,19.596l0,0c-2.841,6.227-7.936,10.974-14.351,13.367
		C170.919,202.225,167.889,202.766,164.866,202.766z M164.882,168.182c-1.056,0-2.114,0.189-3.131,0.568
		c-2.238,0.834-4.017,2.491-5.007,4.662c-2.049,4.489-0.065,9.804,4.418,11.854c2.179,0.992,4.607,1.08,6.841,0.243
		c2.238-0.836,4.017-2.492,5.007-4.664v-0.003c0.994-2.173,1.078-4.602,0.244-6.84c-0.834-2.238-2.489-4.017-4.662-5.007
		C167.407,168.454,166.146,168.182,164.882,168.182z"/>
</g>
<path fill="#231815" d="M338.517,321.684c-5.558,0-11.34-1.321-17.162-3.978c-25.603-11.691-25.369-36.805-18.967-50.833
	l15.194,6.879c-1.463,3.321-7.832,20.319,10.699,28.78c19.182,8.752,27.809-8.702,28.731-10.72l15.175,6.926
	c-0.404,0.883-4.16,8.803-11.999,15.124C353.748,319.06,346.352,321.684,338.517,321.684z"/>
</svg>
