<?xml version="1.0" encoding="utf-8"?>
<!-- Generator: Adobe Illustrator 22.1.0, SVG Export Plug-In . SVG Version: 6.00 Build 0)  -->
<svg version="1.1" id="レイヤー_1" xmlns="http://www.w3.org/2000/svg" xmlns:xlink="http://www.w3.org/1999/xlink" x="0px"
	 y="0px" viewBox="0 0 800 400" enable-background="new 0 0 800 400" xml:space="preserve">
<rect fill="#FFFFFF" width="800" height="400"/>
<g>
	<g>
		<path fill="#231815" d="M400,333.9854l-0.188-0.188L175.7697,197.906l0.5639-0.3759L400,62.0146l0.188,0.188L624.2303,198.094
			l-0.5638,0.3759L400,333.9854z M177.2733,197.906L400,333.0457L622.7267,198.094L400,62.9543L177.2733,197.906z"/>
	</g>
	<g>
		<path fill="#231815" d="M400,340l-0.5639-0.3759L166.9358,197.906L400,56l0.5639,0.3759L633.0642,197.906l-1.6916,0.9398L400,340z
			 M171.6347,197.906L400,337.1807L628.5533,197.906L400,58.6314L171.6347,197.906z"/>
	</g>
	<g>
		<path fill="#231815" d="M480.0688,132.4977c-0.9398,1.8795-1.5037,3.3832-2.0675,4.135v19.7353c0,2.8193,0,4.5109,0,5.0748
			c0,1.3157-0.3759,2.2554-0.9398,3.0073c-1.3157,1.5036-2.2555,2.0675-3.1952,1.8796c-0.188,0-0.3759-0.188-0.3759-0.5639
			c0-0.188,0-0.5639,0-1.1277c0.5639-8.458,0.7518-15.9762,0.9398-22.5546c-0.5638,0.7518-1.5036,1.8795-2.2554,2.8193
			c-0.5639,0.7518-1.6916,1.6916-3.0073,2.6314c-0.7518,0.5639-1.1277,0.7518-1.3157,0.7518c-0.188,0-0.188,0-0.188-0.1879
			c0-0.188,0.3759-0.7518,1.1277-1.6916c1.1277-1.5036,2.4434-3.5712,3.7591-6.0146c0.9398-1.8795,1.8795-4.135,2.6314-6.7664
			c0.7518-2.4434,1.1277-4.135,1.3157-5.4507c0.5639,0.3759,1.5036,0.9398,2.8193,1.6916c1.3157,0.7518,1.8796,1.3157,1.8796,1.8795
			C481.3845,131.9338,480.8206,132.3097,480.0688,132.4977z M508.2621,163.5103c-1.3157,0.5639-2.2555,1.5036-3.1952,2.6314
			l-0.5639,0.9398c-0.3759,0.3759-0.5639,0.5639-0.7518,0.5639c-0.3759,0-1.1277,0-2.0675-0.3759
			c-1.3157-0.3759-2.6313-0.9398-3.9471-1.6916c-1.3157-0.7518-2.6314-1.6916-3.9471-2.4434
			c-1.3157,0.9398-3.0073,1.8795-5.2627,2.6314c-1.1277,0.3759-2.2555,0.7518-3.9471,1.1277c-0.7518,0.188-1.1277,0.188-1.1277,0
			c0-0.1879,0.188-0.5639,0.9398-0.7518c0.9398-0.3759,2.2555-0.9398,3.9471-1.6916c1.3157-0.7518,2.4434-1.6916,3.5711-2.6314
			c-0.9398-0.9398-1.8795-1.8795-2.8193-2.8193c-2.2555,3.3832-5.6387,5.8266-9.7737,7.1423c-0.188,0-0.188,0-0.3759,0
			c-0.188,0-0.3759,0-0.3759,0c-0.188-0.188,0-0.3759,0.5639-0.7518c2.2555-1.5036,3.9471-3.0073,5.4507-4.8868
			c1.3157-1.6916,2.2555-3.3832,2.8193-5.2627c0.188-0.7518,0.5639-1.6916,0.7518-2.8193l2.8193,1.1277
			c0.7518,0.3759,1.1277,0.5639,1.1277,0.9398c0,0.188-0.3759,0.3759-0.9398,0.5639l-0.188,0.5639
			c1.3157,0,2.8193-0.188,4.6989-0.188c0.188-0.3759,0.7518-1.1277,1.3157-1.8795c0.188,0.188,0.9398,0.7518,2.0675,1.6916
			c0.9398,0.7518,1.3157,1.3157,1.3157,1.6916c0,0.188-0.5639,0.5639-1.5036,0.9398c-0.7518,1.3157-1.6916,2.6314-2.6314,3.5712
			c1.3157,0.3759,3.0073,0.7518,5.2628,1.1277c1.8795,0.1879,4.135,0.5639,6.9543,0.5639c0.5639,0,0.9398,0,0.9398,0.188
			C509.2019,162.9464,508.8259,163.1344,508.2621,163.5103z M505.6307,146.5943c-0.7518,0-1.3157,0-1.6916,0
			c-0.9398,0-2.2555,0.3759-3.5711,0.9398c-0.5639,0.1879-1.1277,0.3759-1.1277,0.1879v-0.1879c0-0.188,0.188-0.3759,0.5639-0.9398
			c0.188-0.3759,0.5639-0.7518,0.9398-1.3157c-5.0748,0.1879-10.5255,0.3759-16.54,0.9398c0,0.5639-0.188,1.1277-0.188,1.5036
			c-0.188,0.7518-0.5639,1.5036-0.9398,2.2555c-0.5639,0.7518-1.1277,1.3157-1.8795,1.3157c-0.5639,0-0.9398-0.1879-1.3157-0.7518
			c-0.3759-0.5639-0.5639-1.1277-0.5639-1.6916c0-0.7518,0.3759-1.3157,0.9398-2.0675c0.5639-0.5639,0.9398-1.1277,1.5037-1.6916
			c0.3759-0.5639,0.5638-1.1277,0.7518-1.6916c0.188-0.5639,0.3759-1.3157,0.3759-2.0675c0-0.5639,0.188-0.9398,0.3759-0.9398
			c0.3759,0,0.7518,0.9398,0.9398,2.8193c0,0.5639,0.188,1.1277,0.188,1.6916h1.6916v-7.3302c0-1.1277,0-2.6314-0.188-4.323
			c0.7518,0.188,1.5037,0.5639,2.6314,1.1277l1.1277,0.5639h0.5638c0.188-0.7518,0.3759-1.6916,0.5639-3.0073
			c-1.5036,0-2.6313,0-3.9471,0.188c-1.1277,0-2.6313,0.188-4.5109,0.5639l-0.7518-1.8795c2.4434,0,3.9471,0,4.6989,0
			c2.8193-0.1879,6.9543-0.3759,12.593-0.7518l2.0675-3.3832c1.8795,1.3157,3.1952,2.2555,3.7591,2.8193
			c0.5639,0.5639,0.9398,1.1277,0.7518,1.5036c0,0.3759-0.5638,0.3759-1.5036,0.3759c-1.5036,0-3.1952,0-5.0748,0.1879
			c-1.5037,0-3.5711,0.188-6.2025,0.188l1.1277,0.3759c0.5639,0.1879,0.7518,0.5639,0.7518,0.7518
			c0,0.3759-0.3759,0.5639-1.1277,0.7518c-0.188,0.1879-0.5639,0.5639-0.9398,1.1277c1.3157,0,2.4434-0.1879,3.3832-0.1879
			c0,0,0.5639-0.7518,1.5036-1.8796c0.9398,0.7518,1.8795,1.3157,2.6314,1.8796c0.7518,0.5639,1.1277,0.9398,1.1277,1.3157
			c0,0.3759-0.3759,0.7518-1.1277,1.3157v7.1423h1.1277c0.3759-0.5639,1.1277-1.3157,1.8795-2.2555l3.0073,2.8193
			c0.9398,0.7518,1.1277,1.5036,1.1277,1.8795C506.9464,146.4064,506.5705,146.5943,505.6307,146.5943z M486.0834,152.7968
			c-0.5639,0.7518-0.9398,1.1277-1.5037,1.1277s-0.7518-0.1879-1.1277-0.5639c-0.3759-0.3759-0.5639-0.9398-0.5639-1.5036
			c0-0.5639,0.188-1.1277,0.7518-1.6916c0.3759-0.188,0.9398-0.7518,1.6916-1.6916c0-0.1879,0.188-0.5639,0.3759-0.9398
			c0-0.3759,0.188-0.5639,0.3759-0.5639s0.3759,0.3759,0.5639,1.5036c0.188,0.7518,0.188,1.5036,0.188,1.8796
			C486.8352,151.2932,486.6473,152.045,486.0834,152.7968z M498.8643,151.8571c-0.3759,0.1879-1.1277,0.3759-1.8795,0.5639
			c-0.9398,0.1879-2.2555,0.3759-4.135,0.3759s-3.0073,0-3.7591-0.3759c-0.3759-0.188-0.5639-0.7518-0.5639-1.5036v-4.6989
			c0.5639,0.188,1.3157,0.3759,2.2554,0.5639c0.7518,0.188,1.3157,0.5639,1.3157,0.7518c0,0.1879-0.188,0.3759-0.7518,0.7518v0.9398
			c0,0.3759,0,0.5639,0.188,0.5639c0.188,0.1879,0.5638,0.1879,1.5036,0.1879s1.6916-0.1879,2.2555-0.3759
			s1.1277-0.5639,1.3157-0.9398c0.188-0.3759,0.3759-0.7518,0.5639-1.5036c0.188-0.5639,0.3759-0.9398,0.5639-0.9398
			c0,0,0.188,0.3759,0.188,1.3157c0.188,0.9398,0.3759,1.6916,0.5639,2.0675c0.5639,0.5639,0.7518,0.9398,0.7518,1.1277
			C499.4282,151.2932,499.2402,151.6691,498.8643,151.8571z M496.2329,143.9629v-8.6459c-1.5036,0-3.9471,0.1879-7.3302,0.3759
			c0,0.5639,0,1.3157,0,2.0675c0.7518,0,1.8795,0,3.1953-0.188c0.7518,0,1.5036-0.1879,2.4434-0.5639
			c0.5638,0.7518,0.7518,1.1277,0.5638,1.3157c0,0.188-0.3759,0.188-0.9398,0.3759c-0.5639,0-1.6916,0-3.3832,0.1879
			c-0.3759,0-0.9398,0-2.0675,0.188v1.8795c0.7518,0,1.8795-0.188,3.3832-0.188c0.7518,0,1.5036-0.1879,2.2554-0.3759
			c0.3759,0.5639,0.5639,1.1277,0.5639,1.3157c0,0.188-0.3759,0.3759-0.9398,0.3759c-0.7518,0-1.8795,0.188-3.3832,0.188
			c-0.3759,0-1.1277,0-2.0675,0v2.2555L496.2329,143.9629z M490.2184,156.5559c-0.188,0.3759-0.3759,0.7518-0.7518,1.3157
			c0.9398,0.7518,2.2555,1.5036,3.7591,2.0675c0.7518-0.9398,1.3157-2.0675,2.0675-3.5712
			C494.1655,156.368,492.4738,156.5559,490.2184,156.5559z M495.6691,148.6618c-0.188,0.3759-0.5639,0.3759-1.1277,0.3759
			c-0.5639,0-0.9398-0.1879-1.1277-0.7518c-0.3759-0.7518-0.5639-1.3157-0.7518-1.3157c-0.188-0.188-0.3759-0.188-0.5638-0.3759
			c-0.3759-0.1879-0.3759-0.1879-0.3759-0.3759c0-0.1879,0.5639-0.1879,1.3157-0.1879s1.5037,0.1879,2.0675,0.3759
			c0.7518,0.3759,1.1277,0.7518,1.1277,1.3157C496.045,148.0979,495.8571,148.4739,495.6691,148.6618z M505.2548,152.6089
			c-0.3759,0.5639-0.7518,0.7518-1.3157,0.7518s-0.7518-0.188-1.1277-0.7518c-0.3759-0.3759-0.5639-0.9398-0.7518-1.3157
			c-0.5639-0.7518-0.9398-1.3157-1.3157-1.6916c-0.5639-0.5639-0.9398-0.7518-0.9398-0.9398s0.5639-0.3759,1.3157-0.3759
			c0.9398,0,1.8795,0.188,2.8193,0.5639c0.5639,0.1879,0.9398,0.5639,1.3157,0.9398c0.3759,0.3759,0.5639,0.9398,0.5639,1.3157
			C505.6307,151.6691,505.4427,152.233,505.2548,152.6089z"/>
		<path fill="#231815" d="M499.2402,186.6287c-0.188,0-0.3759,0.188-0.9398,0.5639c0,1.3157,0,2.0675,0,2.6314
			c0,1.1277,0.188,2.8193,0.188,5.4507c0,0.7518-0.188,1.3157-0.5639,1.6916c-0.5639,0.7518-1.5036,1.1277-2.2555,1.5036
			c-0.7518,0.188-1.1277,0.3759-1.5036,0.188c-0.188,0-0.3759-0.3759-0.3759-0.7518c0-0.1879,0-0.5639,0-0.9398l-12.0291,0.7518
			c0,3.0073,0,7.1423,0,12.593c2.6314-0.5639,4.5109-0.9398,6.0146-1.3157c0.3759,0,1.1277-0.188,1.8795-0.3759
			c0.5639-0.188,1.1277,0,1.1277,0.1879c0,0.3759-0.7518,0.9398-2.6313,1.6916c-2.4434,1.1277-6.2025,2.6314-11.0893,4.8868
			c-0.188,0-0.5639,0.3759-1.3157,0.9398c-0.188,0.188-0.5638,0.3759-1.1277,0.7518c-0.5639,0-1.1277-0.188-1.6916-0.9398
			c-0.9398-1.1277-2.0675-2.2554-3.0073-3.5711c1.8795-0.188,3.5711-0.5639,5.0748-0.7518c0.5639,0,1.5037-0.1879,2.8193-0.3759
			v-22.1787c0-1.8795,0-4.6989-0.188-8.27l2.8193,1.5036c0.7518,0.3759,1.6916,1.1277,2.6314,1.8795l2.8193-0.188v-4.135
			c0-0.7518,0-2.0675-0.188-3.7591c1.6916,0.5639,3.0073,0.9398,3.9471,1.3157c1.1277,0.3759,1.6916,0.9398,1.6916,1.5036
			c0,0.3759-0.188,0.5639-0.3759,0.7518c-0.3759,0.188-0.5639,0.3759-0.9398,0.7518v3.5711c1.3157,0,2.4434-0.1879,3.3832-0.1879
			l1.8795-2.4434c0.7518,0.5639,1.8795,1.5036,3.3832,2.6314c0.9398,0.7518,1.3157,1.3157,1.3157,1.6916
			C500.18,185.6889,499.8041,186.2528,499.2402,186.6287z M481.9484,185.6889v4.5109c3.1952-0.1879,4.8868-0.1879,4.8868-0.1879
			c1.8795-0.188,3.5711-0.3759,4.8868-0.7518c0.5639,0.9398,0.9398,1.5036,0.9398,1.6916c0,0.1879-0.5639,0.3759-1.3157,0.3759
			c-0.5639,0-1.6916,0-3.0073,0.188c-0.9398,0-3.0073,0.1879-6.3904,0.3759v4.323l12.0291-0.7518c0-2.2555,0-5.6387,0-10.1496
			L481.9484,185.6889z M507.8862,212.5665c-1.6916,0.5639-2.8193,1.1277-3.7591,1.6916c-0.188,0.188-0.5639,0.3759-1.1277,0.9398
			c-0.5638,0.5639-0.9398,0.7518-1.3157,0.7518c-0.5639,0-1.5036-0.3759-2.8193-1.1277c-1.5037-0.9398-3.0073-1.8795-4.5109-3.1952
			c-1.3157-1.1277-2.8193-3.0073-5.0748-5.6387c-1.3157-1.8795-2.4434-3.5712-3.1952-5.4507
			c-0.3759-0.7518-0.5639-1.3157-0.5639-1.5036c0-0.1879,0-0.1879,0.188-0.1879c0.188-0.188,0.5639,0.1879,1.3157,0.9398
			c1.3157,1.5036,2.6314,2.8193,3.7591,3.9471c0.5639,0.5639,1.1277,0.9398,1.6916,1.3157
			c0.3759-0.3759,0.7518-0.7518,1.3157-1.3157c0.9398-0.9398,1.8795-1.8796,2.4434-2.8193
			c0.5639-0.7518,1.1277-1.6916,1.8795-2.8193c0.7518,0.5639,1.6916,1.5036,3.0073,2.6314
			c0.9398,0.9398,1.3157,1.5036,1.3157,1.8795c0,0.188,0,0.3759-0.188,0.5639c-0.3759,0.1879-1.1277,0.3759-2.4434,0.3759
			c-1.3157,0.7518-2.6313,1.3157-3.9471,1.6916l-1.8795,0.7518c2.4434,1.6916,5.4507,3.0073,9.2098,4.135
			c1.6916,0.5639,3.1952,0.9398,4.6989,1.3157c0.7518,0.188,1.1277,0.3759,1.1277,0.5639
			C509.0139,212.0026,508.638,212.3786,507.8862,212.5665z"/>
		<path fill="#231815" d="M449.4322,143.9629c-1.6916,0.3759-3.0073,0.9398-3.9471,1.5036
			c-0.3759,0.3759-0.9398,0.7518-1.6916,1.3157c-0.188,0-0.5639,0-0.9398-0.3759c-1.1277-0.5639-2.8193-1.8796-4.8868-3.5712
			c-0.188,0.1879-0.5638,0.3759-1.1277,0.7518c0,0.7518,0,2.0675,0.188,3.7591c0,1.6916,0,2.8193,0,3.7591
			c0,1.1277-0.188,1.8795-0.3759,2.2555c-0.3759,0.3759-0.7518,0.9398-1.5036,1.3157c-0.7518,0.3759-1.3157,0.5639-1.6916,0.5639
			s-0.3759-0.3759-0.3759-1.1277v-1.3157l-8.8339,0.5639c0,1.6916,0,4.135,0,7.7061c0.5639-0.1879,1.5036-0.1879,2.6313-0.5639
			c0.7518-0.188,1.8795-0.3759,3.3832-0.7518c0.7518-0.1879,1.1277,0,1.1277,0.188s-0.188,0.5639-0.9398,0.9398
			s-1.6916,0.9398-3.1952,1.5036c-3.0073,1.3157-6.0146,2.6314-9.0219,3.7591c-0.5639,0.188-0.9398,0.5639-1.5037,0.9398
			c-0.3759,0.3759-0.7518,0.5639-1.3157,0.9398c-0.3759,0-0.9398-0.3759-1.5036-1.3157c-0.7518-1.3157-1.5037-2.6314-2.0675-3.7591
			c0.9398-0.188,2.4434-0.3759,4.5109-0.5639c0.9398-0.1879,2.2555-0.3759,4.135-0.5639v-12.593c0-2.6314,0-4.8868,0-6.9543
			c-0.9398,0.7518-2.0675,1.5036-3.1953,2.2555c-2.8193,1.8796-5.4507,3.0073-7.7061,3.7591c-0.5639,0.1879-0.9398,0.1879-1.1277,0
			c-0.188-0.188,0-0.5639,0.7518-0.9398c2.4434-1.6916,4.5109-3.1952,5.8266-4.5109c2.6313-2.4434,4.6989-4.5109,6.0146-6.3905
			c1.5036-2.0675,2.8193-4.135,3.9471-6.3905c0.5639-1.1277,1.1277-2.4434,1.5037-3.7591c1.3157,0.9398,2.2554,1.6916,3.1952,2.2555
			c1.1277,0.9398,1.6916,1.5036,1.5036,1.8796c-0.188,0.3759-0.7518,0.7518-1.8795,0.9398l-0.188,0.1879
			c1.8795,2.0675,3.9471,3.7591,5.8266,5.0748c1.8795,1.3157,3.9471,2.4434,6.2025,3.3832c1.6916,0.7518,4.323,1.5036,7.7061,2.4434
			c0.7518,0.1879,1.1277,0.3759,1.1277,0.7518C450.3719,143.587,449.996,143.775,449.4322,143.9629z M426.6896,141.5195v-3.5711
			c0-0.7518,0-1.5036,0-2.2555c-1.3157,1.6916-2.6313,3.1952-3.9471,4.5109c0.5639,0.3759,1.5037,0.7518,2.4434,1.3157H426.6896z
			 M432.8921,142.6472c-1.5036,0.188-4.5109,0.188-8.8339,0.5639v3.7591c1.6916,0,2.8193-0.188,3.5711-0.188
			c1.1277,0,2.2555-0.1879,3.1953-0.5639c0,0.188,0.188,0.3759,0.5639,0.7518c0.3759,0.3759,0.3759,0.5639,0.188,0.7518
			c0,0.188-0.5639,0.188-1.3157,0.188l-6.3905,0.3759v3.5712l8.8339-0.3759c0-0.7518,0-1.8795,0-3.3832
			C433.0801,145.4666,433.0801,143.587,432.8921,142.6472z M443.6056,167.0814c-0.5639,0.7518-1.1277,1.1277-1.6916,1.3157
			c-0.9398,0-1.5037-0.1879-2.0675-0.9398c-0.3759-0.5639-0.7518-1.3157-1.3157-2.0675c-1.3157-2.0675-3.0073-3.5712-4.6989-5.0748
			c-2.0675-1.6916-4.5109-3.1952-7.3302-4.323c-0.9398-0.3759-1.3157-0.7518-1.3157-0.9398c0-0.188,0.5639-0.188,1.5037-0.188
			c0.7518,0,1.6916,0.188,3.0073,0.5639c1.5036,0.3759,3.1952,0.9398,5.0748,1.6916c1.3157-1.3157,2.2555-2.6314,3.1952-3.7591
			c0.3759-0.7518,1.1277-1.8795,2.2555-3.3832c0.5639,0.9398,1.3157,2.0675,2.0675,3.5712
			c0.5638,0.7518,0.7518,1.5036,0.7518,1.8795c0,0.1879,0,0.1879,0,0.3759c-0.188,0.3759-0.9398,0.3759-2.0675,0
			c-1.5036,0.7518-3.0073,1.5036-4.323,1.8796c0.5639,0.3759,1.1277,0.5639,1.6916,0.9398
			c3.1952,1.6916,5.2628,3.5711,5.6386,5.2627C444.1694,165.3898,444.1694,166.1416,443.6056,167.0814z M434.2078,139.2641
			c-2.0675-2.2555-3.7591-4.6989-5.2627-6.7664c-0.5639,0.9398-1.3157,1.8795-1.8795,2.8193
			c0.5638,0.1879,1.5036,0.3759,2.2554,0.7518c0.7518,0.3759,1.3157,0.5639,1.6916,0.7518c0.5639,0.188,0.7518,0.5639,0.7518,0.7518
			c0,0.3759-0.188,0.5639-0.3759,0.7518c-0.188,0.188-0.5639,0.3759-0.7518,0.5639v2.6314h2.2555L434.2078,139.2641z"/>
		<path fill="#231815" d="M448.3044,200.9133h-3.7591l-3.5711,0.188c0,0.9398-0.188,1.6916-0.188,2.4434
			c0.3759,0.3759,0.7518,0.5639,0.9398,0.7518c0.5639,0.5639,0.9398,0.9398,0.9398,1.1277c0,0.3759-0.5639,0.5639-1.3157,0.5639
			c-2.6313,0-4.135,0-4.5109,0c-1.1277,0-3.0073,0.188-5.2628,0.188c0,1.5036,0,2.6314,0,3.3832
			c0,1.6916-0.188,3.0073-0.3759,3.9471c-0.3759,1.1277-0.9398,1.8795-1.6916,2.8193c-0.7518,0.7518-1.5036,1.1277-2.0675,0.9398
			c-0.3759,0-0.5639-0.3759-0.9398-1.3157l-0.5639-1.6916c-0.3759-0.7518-1.1277-1.6916-2.2555-2.4434
			c-0.7518-0.5639-1.1277-1.1277-1.1277-1.3157s0.5639-0.188,1.1277-0.188l2.0675,0.3759c0.7518,0.1879,1.3157,0,1.5037,0
			c0.188-0.188,0.188-0.5639,0.188-1.5036v-3.0073c-2.0675,0-3.7591,0.1879-5.2628,0.3759c-1.1277,0-2.8193,0.188-4.8868,0.5639
			l-0.9398-1.8795c3.3832,0,5.2627,0,5.6386,0l5.4507-0.188c0-0.7518,0-1.8795,0-3.5712l-11.4653,0.5639
			c-1.5036,0-3.5711,0.188-6.0146,0.5639c-0.3759-0.7518-0.7518-1.3157-0.9398-2.0675c3.9471,0,6.2025,0,6.7664,0
			c3.0073-0.188,6.9543-0.188,11.6532-0.5639v-3.3832c-2.2555,0.188-4.323,0.188-6.0146,0.3759
			c-0.5639,0-1.6916,0.188-3.7591,0.3759c-0.3759-0.7518-0.7518-1.5036-0.7518-1.8796c2.2554,0,3.9471,0,5.0748,0
			c1.6916,0,3.5711-0.1879,5.6386-0.1879v-2.8193l-5.0748,0.3759c0,0.5639-0.3759,0.9398-0.7518,1.3157
			c-1.1277,0.9398-2.0675,1.3157-2.8193,1.1277c-0.188,0-0.188-0.3759-0.188-0.7518v-1.6916c0-1.8795,0-3.7591,0-5.6387
			c0-0.9398,0-2.0675-0.188-3.1952c0.5638,0.1879,1.3157,0.5639,2.2554,1.1277c0.9398,0.3759,1.6916,0.7518,2.2555,1.1277
			l4.323-0.1879v-3.0073c-4.6989,0.1879-8.458,0.5639-11.2773,0.9398c-0.3759-0.7518-0.7518-1.3157-0.9398-1.8795
			c1.1277,0,2.8193,0,5.0748,0c1.6916,0,4.135-0.188,7.1423-0.3759v-1.8795c0-0.5639,0-1.1277,0-2.0675
			c0-1.3157,0-2.2554-0.188-3.0073c0.5639,0.188,1.6916,0.5639,3.0073,1.1277c0.7518,0.3759,1.3157,0.5639,1.5036,0.7518
			c0.5639,0.1879,0.7518,0.5639,0.7518,0.7518c0,0.3759-0.3759,0.7518-1.3157,1.3157v3.0073l4.5109-0.1879l2.2554-3.7591
			c0.7518,0.5639,2.0675,1.6916,3.7591,3.0073c0.7518,0.5639,1.1277,1.1277,0.9398,1.5036c0,0.188-0.7518,0.3759-2.0675,0.3759
			c-0.9398,0-2.6314,0-4.8868,0.188l-4.6989,0.188v3.0073c1.8795,0,3.3832-0.188,4.5109-0.188
			c0.5638-0.9398,1.1277-1.6916,1.5036-2.2554c0.7518,0.5639,1.8795,1.3157,3.0073,2.4434
			c0.7518,0.5639,1.1277,1.3157,1.1277,1.5036c0,0.3759-0.5639,0.7518-1.5037,1.1277c0,0.3759-0.188,0.9398-0.3759,1.8795
			c0.7518,0.5639,1.1277,1.1277,0.9398,1.5036c0,0.3759-0.5639,0.3759-1.6916,0.3759h-3.5711l-4.135,0.1879v2.8193l5.4507-0.1879
			c0.3759-0.5639,0.9398-1.3157,1.6916-2.2555c0.9398,0.5639,1.8796,1.3157,3.1953,2.2555
			c0.7518,0.5639,1.1277,1.1277,1.1277,1.5036c0,0.3759-0.5639,0.7518-1.6916,1.5036c0,0.3759,0,0.9398,0,1.6916h2.2554
			c0.3759-0.7518,0.9398-1.8795,1.8796-3.5712c3.3832,2.4434,4.8868,3.9471,4.6989,4.5109
			C449.8081,200.7253,449.2442,200.9133,448.3044,200.9133z M427.4414,187.5685l-5.2628,0.1879c0,0.9398,0,2.0675,0,3.7591
			l5.0748-0.3759L427.4414,187.5685L427.4414,187.5685z M431.3885,187.3805v3.7591c1.3157,0,2.6313-0.1879,3.7591-0.1879
			c0.188-0.7518,0.3759-2.0675,0.5639-3.7591L431.3885,187.3805z M436.6512,196.5903l-5.2627,0.188v3.1952l5.0748-0.1879
			L436.6512,196.5903z M431.3885,201.4772c0,1.3157,0,2.4434,0,3.3832c1.6916,0,3.3832-0.1879,4.6989-0.1879
			c0-0.9398,0.188-2.0675,0.188-3.3832C435.3355,201.2892,433.6439,201.4772,431.3885,201.4772z"/>
		<path fill="#231815" d="M444.1694,234.1813c-0.9398,0-2.8193,0-5.2628,0.1879l-17.4798,0.9398c0,3.5711,0,6.2025-0.188,7.8941
			c-0.188,3.3832-0.7518,6.2025-1.5036,8.6459c-0.9398,3.1952-2.8193,6.0146-5.2628,8.6459
			c-1.8795,1.8795-3.5711,3.1952-4.8868,3.7591c-0.5639,0.188-0.7518,0.188-0.9398,0c-0.188-0.188,0-0.5639,0.5639-1.1277
			c1.3157-1.5037,2.6314-3.0073,3.5711-4.5109c0.9398-1.5037,1.8795-3.1952,2.6313-5.2628
			c0.9398-2.4434,1.5037-6.7664,1.6916-12.593c0-0.7518-0.188-3.9471-0.5639-9.7737c0.3759,0.188,1.5037,0.5639,3.0073,1.3157
			c1.1277,0.5639,2.0675,0.9398,2.8193,1.3157c2.4434,0,4.5109-0.188,6.3904-0.3759v-3.7591c0-0.9398,0-2.4434-0.188-4.5109
			c0.7518,0.1879,2.0675,0.5639,3.5711,1.1277c1.5037,0.5639,2.0675,0.9398,2.0675,1.5036c0,0.3759-0.5638,0.9398-1.3157,1.5036
			c0,0.3759,0,0.5639,0,1.6916v2.2554c1.3157,0,3.1953-0.1879,5.8266-0.3759l2.2555-3.7591
			c0.5638,0.3759,1.6916,1.3157,3.5711,2.8193c0.9398,0.7518,1.3157,1.3157,1.3157,1.6916
			C445.861,233.8054,445.2971,233.9934,444.1694,234.1813z M444.7333,244.5189c-1.1277,0-2.8193,0-5.2628,0.188
			c-1.1277,0-3.1952,0.1879-6.0146,0.3759v6.5784l3.5711-0.1879l1.6916-2.4434c0.5639,0.3759,1.5036,0.9398,2.6313,1.6916
			c1.1277,0.7518,1.6916,1.3157,1.6916,1.6916c0,0.3759-0.5639,0.9398-1.5037,1.5036l-0.188,5.2627
			c0.5639,0.3759,0.7518,0.7518,1.1277,0.9398c0.7518,0.5639,0.9398,1.1277,0.9398,1.3157c0,0.3759-0.5639,0.3759-1.6916,0.5639
			c-1.1277,0-2.6314,0-4.5109,0.1879c-2.0675,0-5.4507,0.188-10.1495,0.5639c0,1.1277-0.188,1.8796-0.5639,2.2555
			c-0.3759,0.3759-0.9398,0.9398-1.6916,1.3157c-0.5639,0.188-1.1277,0.3759-1.3157,0.188c-0.188,0-0.3759-0.3759-0.3759-0.7518
			c0-0.1879,0-0.3759,0-1.1277c0-0.5639,0-1.1277,0-1.5036c0-0.9398,0-2.8193-0.188-5.4507c0-1.5036-0.188-2.8193-0.188-4.323
			c0-0.9398-0.188-2.0675-0.188-3.7591c1.1277,0.3759,1.8795,0.7518,2.6314,1.1277c0.7518,0.3759,1.5036,0.7518,2.4434,1.3157
			h2.2554c0-4.5109,0-7.7062,0-9.7737c0-1.8796-0.188-4.135-0.188-6.9543c1.6916,0.3759,2.8193,0.7518,3.5711,1.1277
			c1.1277,0.3759,1.6916,0.7518,1.6916,1.1277s-0.3759,0.9398-1.3157,1.5036v4.6989l5.8266-0.3759
			c0.5639-0.7518,1.1277-2.0675,2.0675-3.7591c0.7518,0.5639,2.0675,1.5036,3.5711,2.8193
			c0.9398,0.7518,1.3157,1.5036,1.3157,1.8795C446.2369,244.3309,445.6731,244.5189,444.7333,244.5189z M426.3137,253.5407
			c0.188,1.6916,0.188,4.135,0.3759,7.7061c4.323-0.188,7.7062-0.3759,10.1496-0.5639c0-1.8795,0.188-4.323,0.188-7.7061
			C434.9596,252.9768,431.3885,253.1648,426.3137,253.5407z"/>
		<path fill="#231815" d="M368.0476,133.4375c0,1.1277,0,2.0675,0,3.1952c0,2.4434,0.188,3.9471,0.188,4.135
			c0,0.9398-0.3759,1.8796-1.1277,2.4434c-0.3759,0.3759-0.7518,0.5639-1.5037,0.7518c-0.3759,0.1879-0.7518,0.1879-0.9398,0.1879
			s-0.3759-0.5639-0.3759-1.5036v-0.3759l-5.6386,0.3759v16.54c0,0.5639,0,1.5036-0.188,2.6314s-0.7518,2.0675-1.5036,3.1952
			c-1.1277,1.5036-2.0675,2.0675-3.0073,1.6916c-0.188,0-0.3759-0.5639-0.188-1.5036c0-0.5639,0.3759-1.3157,0.3759-2.2555
			c0.188-2.0675,0.5639-5.4507,0.7518-9.7737c0.3759-7.8941,0.5639-13.5328,0.5639-17.1039c0-1.1277-0.188-3.5712-0.3759-7.5182
			c0.188,0,1.3157,0.5639,3.0073,1.1277c0.7518,0.188,1.1277,0.5639,1.5036,0.9398l4.5109-0.188
			c0.3759-0.3759,0.9398-1.1277,1.6916-2.2554c0.5639,0.3759,1.3157,1.1277,2.4434,1.8795
			c0.5639,0.3759,0.7518,0.7518,0.9398,0.7518c0.188,0.188,0.3759,0.5639,0.3759,0.7518
			C369.3633,132.3097,368.9874,132.6856,368.0476,133.4375z M358.6499,132.3097v3.7591c0.7518,0,1.5036-0.188,1.8795-0.188
			c0.5639,0,1.1277-0.188,1.8795-0.3759c0.5639,0.7518,0.9398,1.3157,0.9398,1.5036c0,0.1879-0.5639,0.1879-1.5037,0.3759
			c-0.7518,0-1.8795,0-3.1952,0.188v3.7591l5.6386-0.3759c0-2.0675,0-5.0748,0-8.8339
			C363.1608,132.1218,361.2813,132.1218,358.6499,132.3097z M379.5129,154.6764c-0.5639,0-1.8795,0.1879-3.5712,0.1879h-1.1277
			c0,0.9398,0,2.4434,0,4.135c0,1.8795,0,3.3832,0,4.135c0,0.5639-0.188,1.1277-0.5639,1.8795
			c-0.3759,0.5639-0.7518,0.9398-1.3157,1.3157c-0.7518,0.5639-1.3157,0.7518-1.6916,0.7518s-0.3759-0.5639-0.3759-0.9398
			s0-0.7518,0-1.1277c0-0.5639,0-1.1277,0-1.8795c0-2.0675,0.188-4.8868,0.188-7.8941c-1.1277,0-2.0675,0-2.8193,0.1879
			c0,1.1277,0,1.8795-0.188,2.4434c-0.1879,1.6916-0.9398,3.1952-1.8795,4.6989c-0.3759,0.3759-0.9398,1.1277-1.8795,1.8795
			c-0.9398,0.7518-1.8795,1.3157-2.8193,1.6916c-0.9398,0.3759-1.5037,0.5639-1.6916,0.3759
			c-0.1879-0.1879,0.188-0.5639,0.9398-1.1277c0.7518-0.5639,1.5036-1.3157,2.0675-1.8796
			c0.7518-0.9398,1.1277-1.6916,1.3157-2.4434c0.3759-1.5036,0.7518-3.1952,0.7518-5.2627h-1.5037
			c-0.5639,0-1.6916,0.188-2.8193,0.3759c-0.3759-0.5639-0.5639-1.1277-0.9398-1.8795h3.5711h1.6916c0-1.5036,0-2.6314,0-3.3832
			c0-0.5639,0-1.3157-0.188-2.2555c-0.3759,0-1.1277,0.188-2.2555,0.3759c-0.188-0.3759-0.5639-0.9398-0.9398-1.8795
			c2.6313,0,4.135,0,4.8868,0l7.1423-0.3759c0.3759-0.5639,0.9398-1.5036,1.6916-2.6314c0.7518,0.5639,1.6916,1.3157,2.6314,2.0675
			c0.7518,0.5639,1.1277,0.9398,1.1277,1.3157s-0.5639,0.5639-1.1277,0.5639c-0.5639,0-1.5036,0-3.1952,0
			c-0.9398,0-1.6916,0-2.4434,0c1.1277,0.3759,1.8795,0.5639,2.2554,0.7518c1.1277,0.3759,1.6916,0.7518,1.6916,1.1277
			c0,0.188-0.3759,0.7518-1.1277,1.1277c0,0.5639,0,1.5036,0,2.6314h0.7518c0.3759-0.7518,0.9398-1.6916,1.6916-2.8193
			c0.7518,0.5639,1.6916,1.3157,2.4434,2.0675c0.7518,0.7518,1.1277,1.1277,1.1277,1.5036
			C380.8286,154.4884,380.2647,154.6764,379.5129,154.6764z M371.0549,153.5486v-3.0073c0-0.5639,0-1.5036,0-2.6314
			c-0.7518,0-2.4434,0.188-5.2628,0.3759c0.5639,0.1879,1.1277,0.3759,2.2555,0.7518c0.9398,0.3759,1.3157,0.5639,1.3157,0.9398
			c0,0.3759-0.3759,0.9398-1.1277,1.3157v2.6314L371.0549,153.5486z M385.5275,133.2495c0,1.1277,0,3.0073,0,5.2627
			c0,1.5036,0.188,5.4507,0.3759,11.8412c0.188,4.8868,0.188,8.8339,0.188,11.8412c0,2.4434-0.7518,4.135-2.2555,5.2627
			c-0.3759,0.188-0.9398,0.5639-1.3157,0.7518c-0.5639,0.1879-0.9398,0.1879-1.1277,0.1879c-0.1879,0-0.3759-0.1879-0.5639-0.7518
			c0-0.188-0.1879-0.5639-0.3759-1.1277c-0.3759-0.9398-0.9398-1.6916-1.6916-2.4434c-0.188-0.188-0.5639-0.3759-1.1277-0.7518
			c-0.5639-0.3759-0.7518-0.5639-0.7518-0.7518s0.3759-0.3759,0.9398-0.3759s1.1277,0,1.5036,0c0.7518,0,1.1277,0,1.5037-0.3759
			c0.3759-0.1879,0.3759-0.7518,0.3759-1.6916v-1.8795v-9.5857c0-1.6916,0-5.2627,0-7.1423l-6.2025,0.3759v0.1879
			c0,0.5639-0.1879,0.9398-0.7518,1.3157s-1.1277,0.5639-1.5037,0.7518c-0.3759,0-0.7518,0-0.9398,0
			c-0.188,0-0.188-0.5639-0.188-1.5036c0.188-3.3832,0.188-5.0748,0.188-5.4507c0-0.3759,0-0.7518,0-1.5036v-1.5036
			c0-0.9398,0-2.8193-0.188-5.8266c0.5639,0.188,1.5036,0.5639,2.8193,1.1277c0.3759,0.188,0.7518,0.3759,1.5037,0.5639
			l5.2628-0.1879c0.1879-0.3759,0.7518-1.3157,1.6916-2.4434c0.7518,0.5639,1.6916,1.3157,3.0073,2.4434
			c0.9398,0.7518,1.3157,1.3157,1.3157,1.8795C387.2191,131.7459,386.6552,132.3097,385.5275,133.2495z M381.3925,139.8279
			c0-2.8193,0-5.6387,0-8.8339c-1.3157,0-3.3832,0.188-6.2025,0.3759v3.7591c0.9398,0,1.6916-0.1879,2.2554-0.1879
			c0.5639,0,1.1277-0.188,1.8796-0.3759c0.5638,0.7518,0.9398,1.3157,0.9398,1.5036c0,0.1879-0.5639,0.1879-1.5036,0.3759
			c-0.9398,0-2.0675,0.188-3.5712,0.188v3.5712L381.3925,139.8279z"/>
		<path fill="#231815" d="M368.0476,192.6433c-0.3759,0.5639-1.1277,1.3157-2.2554,2.2555
			c-0.7518,0.5639-1.6916,1.5036-3.1953,2.6314c0,11.2773,0,11.4653,0,11.6532c0,0.9398,0,1.6916-0.1879,2.2554
			c-0.188,0.5639-0.5639,1.1277-1.3157,1.8795c-1.3157,1.3157-2.4434,1.8795-3.3832,1.8795c-0.3759,0-0.7518-0.3759-0.7518-0.9398
			c0-0.3759-0.188-0.9398-0.3759-1.3157c-0.188-0.5639-0.5639-0.9398-0.7518-1.5036c-0.3759-0.5639-0.7518-0.9398-0.9398-1.1277
			c-0.5639-0.3759-0.5639-0.7518-0.5639-0.9398c0-0.1879,0.5639-0.1879,1.3157-0.1879c0.9398,0,1.6916,0,1.8795,0
			c0.3759,0,0.5639,0,0.9398-0.188c0.188-0.188,0.3759-0.3759,0.3759-0.7518c0-1.1277,0-2.8193,0-5.0748c0-0.9398,0-1.6916,0-2.6314
			c-0.5639,0.3759-0.9398,0.7518-1.5037,1.3157c-0.5639,0.3759-1.3157,1.3157-2.4434,2.2554
			c-0.3759,0.3759-0.7518,0.7518-1.5036,1.3157c-0.3759,0-0.9398-0.3759-2.0675-1.5036c-0.5639-0.5639-1.1277-1.1277-1.6916-1.8795
			c1.3157-0.5639,3.3832-1.6916,6.3905-3.5712l2.8193-1.6916v-8.0821c-0.9398,0-2.0675,0.188-3.1952,0.3759
			c-0.5639,0-1.8795,0.1879-3.7591,0.5639l-0.9398-1.8795c0.9398,0,2.4434-0.1879,4.323-0.3759l3.7591-0.188v-4.8868
			c0-1.1277,0-3.0073-0.188-5.6386c0.5639,0.1879,1.6916,0.5639,3.3832,1.1277c1.3157,0.5639,2.0675,0.9398,2.0675,1.5036
			c0,0.3759-0.5639,0.9398-1.5036,1.6916c0,1.6916,0,3.5712,0,6.0146h0.5639l1.3157-2.8193
			c0.5639,0.3759,1.5036,0.9398,2.4434,1.8796c0.7518,0.5639,1.1277,1.1277,1.1277,1.3157c0,0.3759-0.5639,0.5639-1.5036,0.5639
			c-0.5639,0-2.0675,0.1879-4.135,0.3759v6.2025c0.5639-0.3759,1.3157-0.7518,2.4434-1.5036
			c1.1277-0.7518,1.8795-1.3157,2.4434-1.6916c0.5639-0.3759,0.9398-0.3759,1.1277-0.188
			C368.6115,191.7035,368.6115,192.0794,368.0476,192.6433z M388.7227,184.7492c-5.4507,0.188-10.3375,0.3759-14.4725,0.7518
			c0.5639,0.3759,1.3157,0.7518,2.4434,1.5036c0.5639,0.3759,0.9398,0.5639,1.1277,0.7518s0.188,0.3759,0.188,0.7518
			c0,0.3759-0.5639,0.7518-1.8795,1.1277c-0.9398,2.6314-1.8795,5.0748-2.8193,7.1423l8.0821-0.3759l1.6916-2.6314
			c0.7518,0.3759,1.6916,1.1277,2.8193,2.0675c0.5639,0.3759,0.9398,0.7518,1.1277,0.9398
			c0.3759,0.1879,0.3759,0.5639,0.3759,0.7518c0,0.5639-0.5639,1.1277-1.6916,1.8795c0,1.8796-0.188,4.8868-0.3759,9.0219
			c0.188,0.188,0.3759,0.3759,0.7518,0.7518c0.5639,0.5639,0.7518,1.1277,0.7518,1.5036s-0.5639,0.5639-1.6916,0.5639
			c-0.9398,0-2.2555,0-3.9471,0c-1.3157,0-3.5712,0.188-6.3905,0.3759c0,0.9398-0.188,1.8795-0.3759,2.4434
			c-0.3759,0.9398-1.1277,1.6916-2.2555,2.0675c-0.5639,0.188-0.7518,0.188-1.1277,0.188c-0.188,0-0.3759-0.3759-0.3759-0.7518
			c0-0.188,0-0.7518,0-1.3157c0.188-2.0675,0.188-3.5712,0.188-4.135c0-1.6916,0-4.6989-0.188-7.8941
			c-1.1277,1.6916-2.2555,3.3832-3.5711,4.6989c-0.7518,0.9398-1.6916,1.6916-2.4434,2.2554
			c-0.5639,0.3759-0.9398,0.5639-1.1277,0.3759c-0.1879-0.188,0-0.5639,0.3759-1.1277c0.5639-0.7518,1.3157-1.6916,2.2555-3.3832
			c0.9398-1.5036,1.6916-2.8193,2.2555-4.135c1.3157-2.8193,2.4434-6.2025,3.3832-9.7737c0.188-0.7518,0.5639-2.6314,1.1277-5.2627
			c-0.7518,0-1.5036,0-1.8795,0.1879c-1.1277,0.188-2.2554,0.188-3.3832,0.3759l-0.7518-1.8796c1.1277,0,2.8193,0,5.0748-0.1879
			l11.4653-0.5639l2.0675-3.5712c0.7518,0.5639,2.0675,1.5036,3.7591,2.8193c0.7518,0.5639,1.1277,1.1277,1.1277,1.5036
			C390.2263,184.5612,389.6625,184.5612,388.7227,184.7492z M374.4381,198.094c0,2.6314,0.188,6.5784,0.3759,11.6532l6.5784-0.3759
			c0.188-4.135,0.188-7.8941,0.3759-11.6532C380.2647,197.7181,377.8213,197.7181,374.4381,198.094z"/>
		<path fill="#231815" d="M330.0807,145.8425c-0.7518,0-2.2555,0-4.323,0.188h-1.5037c0,3.0073,0,4.6989,0,4.8868
			c0,0.3759,0,3.7591,0.188,9.9616c0,2.2555,0,3.5712,0,3.9471c-0.188,0.7518-0.9398,1.5036-2.0675,2.4434
			c-0.7518,0.5639-1.3157,0.7518-1.8795,0.7518c-0.3759,0-0.5639-0.1879-0.5639-0.7518c0,0,0-0.5639,0-1.5036
			c0-0.5639,0.188-1.3157,0.188-2.2555c0.188-2.2555,0.188-4.135,0.188-5.4507v-12.0291c-1.3157,0-2.4434,0.188-3.7591,0.188
			c0,4.323-0.3759,7.7061-1.1277,9.9616c-0.5639,1.8795-1.3157,3.5712-2.6313,5.2627c-0.7518,0.9398-1.6916,1.8795-2.8193,3.0073
			c-1.3157,1.1277-2.2555,1.8796-3.1952,2.2555c-0.5639,0.3759-0.9398,0.3759-0.9398,0.188c-0.188-0.188,0-0.5639,0.5639-0.9398
			c0.9398-0.9398,1.6916-1.8795,2.4434-2.6314c0.9398-1.1277,1.6916-2.2555,2.0675-3.3832
			c0.9398-2.2555,1.6916-4.6989,2.0675-7.7061c0.188-1.6916,0.188-3.5712,0.188-5.6387c-1.3157,0-2.2555,0.188-3.1953,0.3759
			c-0.1879-0.3759-0.3759-0.7518-0.5639-1.5036c0,0.1879-0.5638,0.5639-1.3157,1.3157c0,1.1277-0.188,3.0073-0.188,5.4507
			c0.5639,0.3759,0.7518,0.7518,1.1277,0.9398c0.5639,0.5639,0.7518,0.7518,0.7518,1.1277c0,0.3759-0.188,0.5639-0.3759,0.5639
			c0,0-0.3759,0.188-0.9398,0.188c-0.7518,0-1.8795,0-3.3832,0.188l-3.3832,0.1879c0,1.1277,0,1.6916,0,2.0675
			c0,0.7518-0.3759,1.5036-1.1277,2.2555c-0.3759,0.3759-0.7518,0.7518-1.1277,1.1277c-0.5639,0.3759-0.9398,0.3759-1.1277,0.3759
			s-0.188-0.188-0.188-0.5639c0-0.1879,0-0.3759,0-0.9398c0-1.1277,0.188-2.0675,0.188-2.8193c0-2.0675,0-3.7591,0-4.8868
			c0-2.0675-0.188-3.9471-0.188-5.8266c-1.3157,1.8795-2.8193,3.3832-4.323,4.5109c-1.5036,1.1277-2.2554,1.6916-2.4434,1.5036
			c-0.188-0.188,0-0.5639,0.5639-1.3157c0.3759-0.3759,0.7518-0.9398,1.1277-1.3157c2.8193-3.7591,4.8868-7.7061,6.3905-11.8412
			c0.3759-1.3157,0.7518-2.4434,1.1277-3.5712c-1.5037,0.188-3.5711,0.3759-6.5784,0.7518
			c-0.188-0.3759-0.5639-0.9398-0.9398-1.6916c0.7518,0,2.2554,0,4.5109-0.188c2.8193-0.1879,5.2628-0.3759,7.3303-0.5639
			l1.6916-3.1952c0.9398,0.7518,2.0675,1.5036,3.0073,2.2555c0.3759,0.3759,0.5639,0.5639,0.7518,0.7518
			c1.1277,0,2.2555-0.1879,3.7591-0.1879c2.2554,0,5.2627-0.188,9.2098-0.5639c0.3759-0.5639,1.1277-1.6916,2.0675-3.1952
			c0.7518,0.5639,1.6916,1.3157,3.1953,2.4434c0.9398,0.7518,1.3157,1.3157,1.3157,1.5036c0,0.3759-0.5639,0.5639-1.5037,0.7518
			c-1.3157,0-3.0073,0-4.8868,0.1879h-1.5037c0.5639,0.188,1.1277,0.3759,2.0675,0.7518c1.3157,0.3759,1.8795,0.9398,1.8795,1.3157
			c0,0.3759-0.3759,0.9398-1.3157,1.5036c0,1.1277,0,3.5712,0,7.5182h0.9398c0.5638-0.7518,1.1277-1.8795,2.2554-3.3832
			c1.3157,0.9398,2.4434,1.8795,3.1953,2.4434c0.7518,0.5639,1.1277,1.1277,1.1277,1.5036
			C331.7723,145.6545,331.2085,145.8425,330.0807,145.8425z M312.9768,137.9484l-0.188-3.9471
			c-1.1277,0-2.0675,0.1879-2.8193,0.3759l-0.3759-0.7518c-0.188,0-0.5639,0-0.9398,0.188c-0.7518,0-2.0675,0-3.7591,0.1879
			c-0.9398,0-2.2555,0.188-3.7591,0.3759c0.5639,0.3759,1.1277,0.7518,1.8795,1.3157l1.1277,0.7518
			c0.3759,0.3759,0.5639,0.5639,0.5639,0.9398c0,0.188-0.188,0.3759-0.5639,0.5639c-0.3759,0.1879-0.7518,0.1879-1.1277,0.3759
			c-0.7518,1.6916-1.8795,3.5712-3.1952,5.2627c0.1879,0.188,0.7518,0.5639,1.3157,0.7518c0.5639,0,1.6916,0,3.0073-0.188
			c0.3759-0.3759,0.7518-1.3157,1.6916-2.4434c0.5639,0.1879,1.1277,0.7518,2.2554,1.5036
			c0.3759,0.3759,0.7518,0.5639,1.1277,0.9398c0.3759,0.3759,0.5639,0.5639,0.5639,0.9398c1.6916,0,3.0073,0,3.7591,0
			C313.1648,143.587,313.1648,141.1436,312.9768,137.9484z M301.1357,145.6545l0.3759,8.27l2.8193-0.188
			c0.188-1.5036,0.188-4.323,0.3759-8.458L301.1357,145.6545z M320.495,144.7148v-6.3905c0-0.5639,0-2.2554-0.188-5.0748
			c-0.5639,0-2.6313,0.188-5.8266,0.3759c2.2555,0.7518,3.5712,1.5036,3.5712,1.8795s-0.3759,0.9398-1.1277,1.3157
			c0,1.3157,0,3.9471,0,7.7061L320.495,144.7148z"/>
		<path fill="#231815" d="M327.8253,214.2581c-1.3157,0.3759-3.1952,0.5639-5.8266,0.5639c-1.3157,0-2.8193,0-4.323-0.1879
			c-1.3157-0.188-2.2555-0.7518-2.8193-1.6916c-0.3759-0.5639-0.3759-1.3157-0.3759-2.6314c0-0.7518,0.188-1.6916,0.188-2.6314
			l0.5639-7.1423c-1.5036,0.188-3.0073,0.3759-4.5109,0.5639c-0.188,1.6916-0.3759,3.0073-0.7518,4.135
			c-0.7518,2.8193-2.2554,4.8868-3.9471,6.5784c-1.3157,1.3157-3.1952,2.4434-5.4507,3.3832
			c-1.5037,0.7518-3.0073,1.1277-4.135,1.5036c-0.9398,0.188-1.5036,0.188-1.5036,0c0-0.1879,0.3759-0.5639,1.1277-0.9398
			c1.6916-0.5639,3.0073-1.3157,4.323-2.2554c1.1277-0.9398,2.4434-2.0675,3.5711-3.3832c1.3157-1.5036,2.2555-3.5712,2.8193-5.8266
			c0.188-0.7518,0.3759-1.6916,0.3759-2.6314l-2.4434,0.3759c-1.1277,0.188-3.0073,0.3759-5.8266,0.9398l-1.1277-1.8795
			c3.0073-0.188,4.6989-0.3759,5.6387-0.5639l3.9471-0.3759c0-0.7518,0-1.6916,0-2.4434c0-1.5036-0.188-3.0073-0.188-4.5109
			c1.8795,0.5639,2.8193,0.9398,2.8193,0.9398c1.5037,0.5639,2.2555,0.9398,2.2555,1.3157c0,0.5639-0.3759,0.9398-1.1277,1.5036
			c0,0.5639,0,1.6916-0.188,3.0073l4.135-0.5639l1.6916-2.8193c0.5639,0.3759,1.5036,1.1277,2.6314,2.0675
			c1.1277,0.9398,1.5036,1.5036,1.6916,1.6916c0,0.5639-0.5639,1.1277-1.6916,1.5036c-0.188,1.1277-0.188,2.8193-0.5639,5.0748
			c0,0.3759,0,1.1277,0,1.8795c0,0.9398,0,1.3157,0.188,1.5036s0.5639,0.188,1.3157,0.3759c0,0,0.7518,0,2.0675,0
			c0.9398,0,1.8795,0,2.8193-0.188c0.7518-0.188,1.5037-0.5639,1.8796-1.3157c0.3759-0.7518,0.9398-1.8796,1.5036-3.7591
			l1.1277-3.7591c0.3759-1.1277,0.7518-1.6916,0.9398-1.6916s0.3759,0.7518,0,1.8796c-0.188,0.7518-0.188,1.8795-0.3759,3.3832
			s-0.188,2.4434-0.188,3.1952c0,0.7518,0.188,1.3157,0.5639,1.8795c0.3759,0.5639,0.5639,1.1277,0.5639,1.5036
			C331.2085,212.7545,330.0807,213.6942,327.8253,214.2581z M326.5096,185.8769c0,0-0.5639,0-1.6916-0.188
			c-0.7518,0-1.3157,0-1.8795,0c-0.3759,0-1.1277,0.5639-2.2554,1.3157c-1.1277,0.7518-1.6916,1.1277-1.8796,1.1277
			c-0.1879,0-0.1879,0-0.1879-0.1879c0,0,0.3759-0.7518,0.9398-1.6916c0.188-0.3759,0.5639-1.3157,1.5037-3.0073
			c-2.2555,0.188-5.6387,0.3759-9.9616,0.5639c-1.1277,0-4.323,0.188-9.5857,0.5639c0,0.9398,0,1.8795-0.188,2.6314
			c-0.188,1.1277-0.5639,2.2554-1.3157,3.0073c-0.9398,0.5639-1.5037,0.9398-2.2555,0.9398c-0.5639,0-1.1277-0.188-1.5036-0.7518
			c-0.3759-0.3759-0.5639-0.9398-0.5639-1.6916c0-0.7518,0.188-1.3157,0.7518-1.8796c0.5639-0.5639,0.9398-0.9398,1.5036-1.5036
			c0.5639-0.7518,0.9398-1.5036,1.1277-2.0675c0.188-0.7518,0.3759-1.5036,0.3759-1.8795c0.188-1.1277,0.188-1.5036,0.5639-1.5036
			s0.7518,0.9398,1.1277,2.8193l8.27-0.3759v-2.6314c0-1.1277,0-2.2554-0.1879-3.5712c0.9398,0.3759,2.0675,0.7518,3.5711,1.1277
			c1.3157,0.3759,1.8795,0.9398,1.8795,1.3157c0,0.3759-0.3759,0.7518-1.1277,1.5036v2.0675c1.6916-0.188,4.323-0.188,7.8941-0.5639
			c0.3759-0.3759,0.9398-1.1277,1.8795-2.2554c0.5639,0.5639,1.3157,1.1277,2.0675,1.8795
			c0.9398,0.9398,1.3157,1.5036,1.6916,1.6916c0.7518,0.7518,1.1277,1.3157,1.1277,1.8796
			C328.0132,185.501,327.6373,185.8769,326.5096,185.8769z M309.2177,189.2601c-0.3759,0.188-0.9398,0.188-1.3157,0.3759
			c-0.7518,1.1277-1.8795,2.4434-3.3832,4.135c-2.0675,1.6916-3.9471,3.0073-5.6386,3.7591
			c-0.5639,0.188-0.9398,0.3759-1.1277,0.188s0-0.5639,0.5639-0.9398c1.1277-1.1277,1.8795-1.8795,2.4434-2.4434
			c0.7518-0.9398,1.5037-1.8795,2.2555-3.0073c0.5639-0.9398,1.3157-2.4434,2.2555-4.323c0.3759-0.7518,0.5639-1.5036,0.9398-2.4434
			c0.5639,0.5639,1.5037,1.3157,2.4434,2.2554c0.9398,0.9398,1.3157,1.6916,1.1277,2.0675
			C309.7816,189.0721,309.5937,189.2601,309.2177,189.2601z M323.6903,193.3951c-0.188,0-0.7518,0.1879-1.8795,0.1879
			c-1.1277,0.188-2.4434,0.188-4.135,0.188c-1.3157,0-2.2555,0-3.0073,0c-0.5639,0-0.9398,0-1.1277,0
			c-0.3759,0-0.7518-0.188-0.9398-0.5639c-0.3759-0.5639-0.5639-1.3157-0.5639-2.2554s0-2.2555,0-4.135c0-0.3759,0-1.3157,0-3.0073
			l2.8193,0.9398c1.3157,0.3759,1.8796,0.9398,1.8796,1.3157c0,0.1879-0.188,0.5639-0.7518,1.1277v2.0675
			c0,0.3759,0,0.5639,0.188,0.7518c0.1879,0.1879,0.3759,0.1879,0.7518,0.1879c1.5037,0,3.0073-0.1879,4.5109-0.5639
			c0.188-0.1879,0.7518-0.1879,1.3157-0.3759c0.3759,0,0.9398,0.3759,1.5037,0.9398c0.7518,0.7518,1.1277,1.5036,0.9398,2.0675
			C324.6301,192.8312,324.4421,193.2071,323.6903,193.3951z"/>
		<path fill="#231815" d="M331.9603,243.767c-0.3759,0.188-0.7518,0.3759-1.3157,0.5639c-0.7518,0.3759-1.5037,0.7518-2.0675,1.1277
			c-0.188,0.188-0.7518,0.5639-1.5036,1.1277c-0.188,0.1879-0.5639,0.3759-1.1277,0.5639c-0.3759,0-0.7518-0.188-1.3157-0.3759
			c-0.3759-0.1879-0.7518-0.5639-1.5036-1.1277c-2.2555-1.6916-4.323-3.9471-6.5784-6.7664
			c-1.5037-1.8795-3.1953-4.5109-5.0748-7.7061c-1.8795,3.1952-3.5711,5.6386-5.2627,7.5182
			c-1.8795,2.0675-4.135,4.135-6.7664,6.2025c-2.4434,1.6916-4.8868,3.0073-7.1423,3.9471c-0.9398,0.3759-1.3157,0.3759-1.5036,0
			c-0.188-0.188,0.188-0.7518,0.9398-1.1277c2.6314-1.6916,4.8868-3.5711,6.9543-5.4507c2.0675-1.8795,3.9471-4.135,5.6386-6.3905
			c1.5037-2.0675,2.6314-4.5109,3.7591-7.1423c0.5639-1.3157,0.9398-2.6314,1.3157-3.9471
			c1.1277,0.7518,2.2555,1.5036,3.3832,2.4434c0.9398,0.7518,1.3157,1.3157,1.3157,1.6916c0,0.5639-0.5639,0.9398-1.5036,1.3157
			c3.1952,4.135,6.7664,7.1423,10.5255,9.0218c2.4434,1.3157,5.0748,2.4434,7.7061,3.1952c0.3759,0,0.7518,0.188,1.1277,0.3759
			c0.3759,0.188,0.5639,0.188,0.5639,0.3759C332.7121,243.3911,332.3362,243.5791,331.9603,243.767z M323.3144,250.3455
			c-0.9398,0-2.4434,0-4.5109,0c-1.6916,0-4.323,0.3759-8.0821,0.3759h-0.9398c0.5639,0.188,1.1277,0.5639,2.0675,1.1277
			c0.7518,0.5639,1.3157,0.9398,1.3157,1.3157c0,0.3759-0.188,0.5639-0.5639,0.5639c-0.3759,0.188-0.7518,0.188-1.1277,0.3759
			c-0.7518,0.9398-2.0675,2.4434-3.9471,4.5109c2.0675,0,5.4507-0.188,9.7737-0.5639c-0.7518-1.5037-1.5036-2.4434-2.0675-3.0073
			c-0.7518-0.7518-1.1277-1.3157-0.9398-1.5036c0.1879-0.188,0.7518-0.188,1.6916,0.1879c1.6916,0.5639,3.3832,1.5036,4.6989,2.4434
			c1.8795,1.5036,3.0073,3.0073,3.0073,4.6989c0,2.2555-0.5639,3.3832-2.2555,3.3832c-0.9398,0-1.6916-0.5639-2.2554-1.8795
			c-0.188-0.5639-0.5639-1.6916-1.1277-2.8193c-0.3759,0-2.0675,0.5639-5.2627,1.3157c-2.6314,0.5639-5.8266,1.3157-9.3978,2.2555
			c-0.188,0-0.3759,0.188-0.9398,0.3759c-0.7518,0.3759-1.1277,0.5639-1.3157,0.5639c-0.3759,0-0.9398-0.5639-1.3157-1.5037
			c-0.5639-1.1277-1.1277-2.2555-1.6916-3.7591c0.9398,0,2.4434,0,4.323,0h2.2555c0.3759-0.7518,0.9398-2.0675,1.8795-4.135
			c0.3759-0.7518,0.7518-2.0675,1.3157-3.7591l-3.5711,0.188c-1.8795,0.1879-3.5712,0.3759-5.0748,0.5639
			c0-0.1879-0.3759-0.7518-0.7518-2.0675c2.6313,0,4.6989,0,5.8266,0l13.9087-0.5639c0.3759-0.3759,1.1277-1.6916,2.2555-3.5712
			c0.7518,0.5639,1.8795,1.5036,3.1952,2.6314c0.7518,0.7518,1.1277,1.3157,1.1277,1.5036
			C324.818,250.1575,324.2541,250.3455,323.3144,250.3455z M318.2396,243.955c-0.7518,0-1.8795,0-3.7591,0
			c-1.6916,0-3.7591,0.188-6.7664,0.3759c-1.1277,0-2.4434,0.188-3.9471,0.5639l-0.7518-1.8795c2.2555,0,3.7591,0,4.5109,0
			c1.3157,0,3.5711-0.188,6.5784-0.3759c0.3759-0.5639,0.9398-1.5036,1.6916-2.8193c0.5639,0.5639,1.5036,1.3157,2.6314,2.2555
			c0.5639,0.5639,0.9398,0.9398,0.9398,1.3157C319.3673,243.767,318.9914,243.955,318.2396,243.955z"/>
	</g>
</g>
</svg>
