<?xml version="1.0" encoding="utf-8"?>
<!-- Generator: Adobe Illustrator 22.1.0, SVG Export Plug-In . SVG Version: 6.00 Build 0)  -->
<svg version="1.1" id="レイヤー_1" xmlns="http://www.w3.org/2000/svg" xmlns:xlink="http://www.w3.org/1999/xlink" x="0px"
	 y="0px" viewBox="0 0 800 400" enable-background="new 0 0 800 400" xml:space="preserve">
<g>
	<path fill="#0B4D58" d="M169.2925,205.2347l30.667-13.2003l3.7621,1.9306l3.7538-12.7951l26.0946-11.7823l4.9775,11.7823
		l11.3771-39.4024l25.6895,25.9954l-20.2076,75.1461l-27.2109-16.6564l-6.6063-15.4327l-2.9435,10.5586L208.699,216h-29.7575
		L169.2925,205.2347z"/>
	<path fill="#0B4D58" d="M408.7983,160.1428l-23.2586,71.0823h-19.8025l-12.1792-43.8673l-11.8815,43.8673h-19.7032l-23.763-71.0823
		h20.0092l13.808,48.1337l13.6096-45.8971h16.5531l14.0064,45.9964l13.9155-48.2329H408.7983z M403.3165,204.622
		c0-16.0446,10.6578-27.5209,28.4263-27.5209c17.876,0,28.4345,11.4763,28.4345,27.5209c0,16.2471-10.5586,27.6201-28.4345,27.6201
		C413.9743,232.2421,403.3165,220.8691,403.3165,204.622z M442.9132,204.622c0-6.9081-3.1502-12.7951-11.1704-12.7951
		c-8.0202,0-11.1704,5.887-11.1704,12.7951c0,7.0032,3.1502,12.9977,11.1704,12.9977
		C439.763,217.6197,442.9132,211.6252,442.9132,204.622z M467.4865,154.7602c5.3827,0,13.2044-1.0129,17.3634-1.9265v78.3914
		h-17.3634V154.7602z M548.1186,205.1263c0,17.2641-9.955,27.1158-24.8792,27.1158c-5.1842,0-9.4423-1.3229-12.7-3.4561v27.3183
		c-5.0767,0-13.2954,1.0128-17.4626,2.1332v-78.0896c5.3826,0,13.3036-0.8103,17.4626-1.9306v3.0469
		c3.5553-2.5384,8.0285-4.2623,13.3036-4.2623C538.3703,177.0018,548.1186,186.6468,548.1186,205.1263z M531.0529,204.622
		c0-6.8048-2.4309-12.9977-11.9807-12.9977c-3.4479,0-6.1929,1.1162-8.5329,2.8401v19.8025
		c2.1332,1.8273,4.6716,3.3528,8.5329,3.3528C527.1999,217.6197,531.0529,211.9311,531.0529,204.622z M606.7075,231.2251h-17.2642
		v-28.7363c0-6.3996-1.4221-10.6619-7.1107-10.6619c-4.8701,0-8.6321,2.9435-10.757,6.8006v32.5976H554.204v-76.4649
		c5.2834,0,13.4111-1.0129,17.3716-1.9265v32.1883c2.9435-4.0597,7.5076-8.0202,15.4286-8.0202
		c12.8984,0,19.3973,8.0202,19.3973,26.0946L606.7075,231.2251z"/>
</g>
</svg>
