<?xml version="1.0" encoding="utf-8"?>
<!-- Generator: Adobe Illustrator 22.1.0, SVG Export Plug-In . SVG Version: 6.00 Build 0)  -->
<svg version="1.1" id="レイヤー_1" xmlns="http://www.w3.org/2000/svg" xmlns:xlink="http://www.w3.org/1999/xlink" x="0px"
	 y="0px" viewBox="0 0 800 400" style="enable-background:new 0 0 800 400;" xml:space="preserve">
<style type="text/css">
	.st0{fill:#054C56;}
	.st1{fill:#231815;}
</style>
<g>
	<path class="st0" d="M169.3,203.3l31-13.4l3.8,2l3.8-12.9l26.4-11.9l5,11.9l11.5-39.9l26,26.3l-20.4,76l-27.5-16.9l-6.7-15.6
		l-3,10.7l-10.1-5.4h-30.1L169.3,203.3z"/>
	<path class="st1" d="M398.9,157.6l-23.9,71.9h-15.8L343.9,180l-14.8,49.5h-15.8l-24.5-71.9h16.2l16.6,53.2l16.3-51.2h12.5
		l16.9,51.2l16.5-53.2H398.9z"/>
	<path class="st1" d="M397.2,203.4c0-15.9,9.8-27.1,27.3-27.1s27.3,11.2,27.3,27.1c0,16-9.8,27.2-27.3,27.2S397.2,219.4,397.2,203.4
		z M438.5,203.4c0-10.4-5.4-16.1-14-16.1c-8.5,0-14,5.8-14,16.1c0,10.4,5.4,16.1,14,16.1C433,219.5,438.5,213.7,438.5,203.4z"/>
	<path class="st1" d="M465,152.2c4.1,0,10.1-0.7,13.4-1.7v79.1H465V152.2z"/>
	<path class="st1" d="M547.7,203.9c0,15.8-9.7,26.7-26.7,26.7c-4,0-8.3-1-11.5-2.6v26.5c-4.1,0-10.1,0.7-13.4,1.7v-77.9
		c4.1,0,10.1-0.7,13.4-1.7v3.3c3.4-2.5,7.7-4.1,12.8-4.1C539.8,175.8,547.7,187.4,547.7,203.9z M534.4,203.4
		c0-9.2-4.3-16.4-14.6-16.4c-4,0-7.5,1.2-10.3,2.9v27.1c2.7,1.8,5.8,2.6,10,2.6C529.4,219.5,534.4,211.8,534.4,203.4z"/>
	<path class="st1" d="M606.7,229.6h-13.4l-0.1-29.6c0-6.7-1.4-12.1-8.5-12.1c-6.2,0-10.9,3.9-13.6,9.9v31.9h-13.4v-77.4
		c4.1,0,10.1-0.7,13.4-1.7v34.8c3-4.8,8.2-9.5,18.1-9.5c12.6,0,17.4,10.6,17.4,22.7L606.7,229.6z"/>
</g>
</svg>
