<?xml version="1.0" encoding="utf-8"?>
<!-- Generator: Adobe Illustrator 22.1.0, SVG Export Plug-In . SVG Version: 6.00 Build 0)  -->
<svg version="1.1" id="レイヤー_1" xmlns="http://www.w3.org/2000/svg" xmlns:xlink="http://www.w3.org/1999/xlink" x="0px"
	 y="0px" viewBox="0 0 800 400" enable-background="new 0 0 800 400" xml:space="preserve">
<rect fill="#FFFFFF" width="800" height="400"/>
<g>
	<defs>
		<rect id="SVGID_1_" x="189.9325" y="141.7447" width="449.8279" height="125.3855"/>
	</defs>
	<clipPath id="SVGID_2_">
		<use xlink:href="#SVGID_1_"  overflow="visible"/>
	</clipPath>
	<path clip-path="url(#SVGID_2_)" fill="#231815" d="M211.2701,194.8648l10.2269-0.8847
		c12.6421-1.0926,21.9666-4.4588,27.9647-10.0986c5.9937-5.6398,8.5814-13.1729,7.7453-22.6035
		c-0.5396-6.0954-3.2158-10.6338-8.0329-13.6196c-4.8127-2.9769-11.4522-4.1049-19.9097-3.3706l-11.8237,1.0218L211.2701,194.8648z
		 M203.3832,239.0412l11.8812-95.877l13.7966-1.1943c9.1962-0.7962,16.4683,0.4998,21.8162,3.8837
		c5.3479,3.3883,8.3204,8.4575,8.9176,15.2032c0.8979,10.1605-1.9021,18.2819-8.3956,24.3773
		c-6.498,6.091-16.3975,9.7094-29.6986,10.8638l-10.7179,0.9289l-5.1356,41.602L203.3832,239.0412z"/>
	<path clip-path="url(#SVGID_2_)" fill="#231815" d="M300.5001,197.4595c-4.2509,0.6149-8.6123,1.6057-13.0844,2.9769
		c-4.472,1.3668-8.3735,2.8133-11.7176,4.3305c-5.8831,2.7204-9.8288,5.6044-11.8326,8.6433
		c-2.0126,3.0433-2.8752,6.1441-2.5921,9.3157c0.2787,3.1716,1.5039,5.5823,3.6803,7.2367c2.1719,1.6543,5.109,2.3223,8.8026,1.9994
		c4.1889-0.3627,8.3646-1.8047,12.527-4.3394c4.1624-2.5302,8.0815-5.9229,11.7618-10.1694L300.5001,197.4595z M269.5142,179.7483
		c2.4638-2.0967,5.2505-3.813,8.3602-5.1488c3.1096-1.3314,6.3874-2.1498,9.8376-2.4461c5.171-0.4512,9.0901,0.3583,11.7574,2.4196
		c2.6629,2.0613,4.1889,5.2904,4.5782,9.6784c0.1504,1.7074,0.1327,3.3883-0.0487,5.0427l-5.1709,41.2348l-2.601,1.4553
		l1.3889-10.9346c-3.1671,3.4724-6.728,6.4626-10.6869,8.9751c-3.959,2.5125-8.2718,3.9722-12.9561,4.3792
		c-4.4367,0.3804-8.0063-0.4556-10.709-2.5125c-2.7071-2.0569-4.2332-5.0427-4.5782-8.9441
		c-0.345-3.9014,0.6989-7.5552,3.1273-10.9567c2.4284-3.406,6.7014-6.5599,12.819-9.466c7.3119-3.4149,16.0613-5.976,26.2572-7.679
		l0.6414-5.339c0.1858-1.6544,0.2035-3.3352,0.0531-5.0427c-0.3229-3.6581-1.5747-6.3122-3.7466-7.9665
		c-2.1719-1.6543-5.4762-2.2913-9.9128-1.9065c-3.1185,0.2698-6.321,1.0616-9.5943,2.3665c-3.2821,1.3093-6.2104,3.26-8.7937,5.861
		l-0.3671,0.031L269.5142,179.7483z"/>
	<path clip-path="url(#SVGID_2_)" fill="#231815" d="M331.9177,169.5519l2.6452-20.6218l2.6363-1.0882l-2.8177,21.4977
		l19.9539-1.7296l-0.2875,2.3621l-19.9539,1.7251l-4.4676,36.5107c-0.2654,1.7384-0.3981,3.2246-0.4158,4.4543
		c-0.0133,1.2341,0.0265,2.4152,0.1283,3.552c0.2521,2.8487,1.0262,5.0559,2.3223,6.6174c1.2961,1.5703,3.4016,2.884,6.3078,3.9413
		l-0.0929,0.376l-3.1494,0.8847c-2.4152-1.097-4.2553-2.5346-5.5292-4.3128c-1.274-1.7694-2.048-4.2022-2.3223-7.2898
		c-0.1017-1.1368-0.1283-2.3886-0.0796-3.7422c0.0443-1.3535,0.1902-2.9858,0.4335-4.8923l4.4013-35.887l-11.9476,1.0351
		l0.2875-2.3577L331.9177,169.5519z"/>
	<path clip-path="url(#SVGID_2_)" fill="#231815" d="M371.8277,166.0959l2.6452-20.6218l2.6319-1.0882l-2.8133,21.4977
		l19.9539-1.7296l-0.2875,2.3621l-19.9583,1.7251l-4.4676,36.5107c-0.261,1.7384-0.3981,3.2246-0.4114,4.4543
		c-0.0177,1.2297,0.0265,2.4152,0.1283,3.5564c0.2521,2.8442,1.0262,5.0471,2.3223,6.613c1.2961,1.5703,3.4016,2.884,6.3033,3.9413
		l-0.0885,0.376l-3.1494,0.8847c-2.4152-1.097-4.2597-2.5346-5.5292-4.3128c-1.274-1.7694-2.048-4.2022-2.3223-7.2898
		c-0.1017-1.1368-0.1283-2.3886-0.084-3.7422c0.0442-1.3535,0.1902-2.9858,0.4379-4.8923l4.3969-35.887l-11.9476,1.0351
		l0.292-2.3577L371.8277,166.0959z"/>
	<path clip-path="url(#SVGID_2_)" fill="#231815" d="M431.5988,161.2881c-4.1049,0.3539-7.9842,1.6101-11.6424,3.7732
		c-3.6581,2.1586-6.8917,4.8967-9.7005,8.2098c-2.8088,3.3176-5.1134,6.9978-6.9093,11.0408
		c-1.7915,4.0474-2.8,8.0904-3.0212,12.1201c3.3264-0.6989,7.0995-1.5968,11.3018-2.6983c4.2067-1.1014,8.4-2.3267,12.589-3.6714
		c4.6667-1.4686,8.4443-2.9637,11.3327-4.4809c2.8841-1.5217,5.1046-3.1052,6.6528-4.7552c1.5482-1.6499,2.5611-3.3352,3.03-5.0559
		c0.4689-1.7163,0.6193-3.5122,0.4556-5.3833c-0.2566-2.9239-1.5216-5.2727-3.7864-7.042
		C439.6316,161.5757,436.1991,160.89,431.5988,161.2881 M424.8,192.4686c-1.6101,0.5485-3.4414,1.097-5.5027,1.6455
		c-2.0613,0.5441-4.1845,1.1191-6.3653,1.7163c-2.1807,0.6016-4.3659,1.1589-6.5555,1.672c-2.1896,0.522-4.2155,0.982-6.0822,1.3889
		c-0.0486,0.4158-0.0575,0.7608-0.0309,1.0483c0.0266,0.2831,0.0575,0.6281,0.0885,1.0351c0.2477,2.7646,0.867,5.3523,1.8666,7.763
		c0.9997,2.4152,2.424,4.4809,4.273,6.2016c1.849,1.7251,4.158,3.0212,6.9226,3.8882c2.7602,0.8626,6.0335,1.1324,9.8155,0.8051
		c3.7732-0.3273,7.4623-1.4199,11.0674-3.291c3.5962-1.8667,6.6705-4.304,9.2184-7.3119l0.3716-0.031l-0.3052,3.5874
		c-2.4329,2.424-5.3523,4.5207-8.7539,6.2901c-3.4016,1.7693-7.1968,2.831-11.3858,3.1981
		c-4.1049,0.3539-7.6879,0.0487-10.7533-0.9112c-3.0654-0.9643-5.6575-2.4196-7.7719-4.3659
		c-2.1188-1.9463-3.7731-4.2597-4.9586-6.9447c-1.1899-2.6806-1.9198-5.5646-2.194-8.6522
		c-0.4158-4.7153,0.1991-9.4793,1.8401-14.2876c1.6411-4.8127,4.0253-9.236,7.1482-13.2746
		c3.1185-4.0386,6.7899-7.4092,11.0187-10.1075c4.2288-2.7027,8.7672-4.2641,13.6152-4.6799c5.255-0.4556,9.298,0.4025,12.1422,2.57
		c2.8398,2.1719,4.419,5.0869,4.7463,8.745c0.1858,2.1144-0.0044,4.1757-0.5706,6.1883c-0.5662,2.0171-1.7207,3.9589-3.4591,5.83
		c-1.7384,1.8711-4.1845,3.6803-7.3384,5.4275C433.7485,189.359,429.7144,190.9779,424.8,192.4686"/>
	<path clip-path="url(#SVGID_2_)" fill="#231815" d="M496.9141,157.3518c-4.3526,0.376-8.3293,1.2961-11.9166,2.7514
		c-3.6007,1.4597-6.7457,3.3308-9.4395,5.6089c-1.1545,1.0041-2.1055,1.9463-2.8531,2.8266c-0.7475,0.8847-1.3491,1.818-1.7959,2.8
		c-0.4556,0.982-0.8095,2.1365-1.0616,3.4679c-0.2565,1.3314-0.5042,2.9548-0.752,4.8569l-4.5694,36.7628l-2.4638,0.2123
		l7.3207-58.9903l2.4638-0.2123l-1.3005,10.5542c0.5087-0.7829,1.1235-1.5703,1.8401-2.3709
		c0.7166-0.8006,1.3801-1.473,1.995-2.0171c2.6098-2.2692,5.9096-4.2376,9.904-5.8964c3.9899-1.6544,8.3293-2.685,13.0092-3.092
		L496.9141,157.3518z"/>
	<path clip-path="url(#SVGID_2_)" fill="#231815" d="M511.5117,153.9993l2.4638-0.2123l-1.8269,14.407
		c0.5706-1.0307,1.4155-2.2471,2.5302-3.6582c2.5744-3.6626,5.8123-6.7899,9.7226-9.3776
		c3.9059-2.5921,8.1169-4.0828,12.6376-4.4765c4.9277-0.4247,8.8644,0.4025,11.8237,2.4771
		c2.9548,2.079,4.649,5.5558,5.0825,10.4348c0.0974,1.1368,0.1416,2.3223,0.1283,3.552c-0.0177,1.2297-0.1327,2.5081-0.345,3.8351
		l-4.6976,38.1252l-2.4639,0.2167l4.764-38.7445c0.2786-2.4815,0.3273-4.7375,0.1504-6.7722
		c-0.3671-4.1447-1.7827-7.0509-4.2465-8.7229c-2.4683-1.6676-5.7946-2.3223-9.9836-1.9596
		c-4.4322,0.3804-8.4221,1.8136-11.9697,4.2907c-3.5432,2.4771-6.6528,5.4717-9.3201,8.9751
		c-1.5615,2.0215-2.7159,3.9855-3.4547,5.892c-0.7431,1.9065-1.2917,4.1447-1.6411,6.7147l-4.2111,33.7814l-2.4638,0.2123
		L511.5117,153.9993z"/>
</g>
<polygon fill="#231815" points="189.9325,264.8649 190.1316,267.1297 639.7604,228.195 639.5614,225.9303 "/>
</svg>
