<?xml version="1.0" encoding="utf-8"?>
<!-- Generator: Adobe Illustrator 22.1.0, SVG Export Plug-In . SVG Version: 6.00 Build 0)  -->
<svg version="1.1" id="レイヤー_1" xmlns="http://www.w3.org/2000/svg" xmlns:xlink="http://www.w3.org/1999/xlink" x="0px"
	 y="0px" viewBox="0 0 800 400" enable-background="new 0 0 800 400" xml:space="preserve">
<rect fill="#FFFFFF" width="800" height="400"/>
<g>
	<defs>
		<rect id="SVGID_17_" x="194" y="147.226" width="412" height="95.548"/>
	</defs>
	<clipPath id="SVGID_2_">
		<use xlink:href="#SVGID_17_"  overflow="visible"/>
	</clipPath>
	<path clip-path="url(#SVGID_2_)" fill="#241714" d="M302.7021,230.327c-0.4193-0.4193-0.7312-1.2544-0.104-1.9856l8.6804-9.9382
		c0.4193-0.5232,1.1505-0.5232,1.6737-0.104c5.125,4.0786,12.0278,7.9492,20.2922,7.9492c8.0532,0,12.655-3.7666,12.655-9.2036
		c0-4.6052-2.7202-7.4259-11.9238-8.6837l-4.0786-0.5232c-15.6905-2.1936-24.4748-9.5156-24.4748-23.2204
		c0-14.2247,10.6694-23.7403,27.403-23.7403c10.2501,0,19.873,3.0321,26.3598,8.0532c0.7312,0.4193,0.8351,0.9391,0.2079,1.6737
		l-6.9027,10.3541c-0.4193,0.5232-1.0465,0.7312-1.5697,0.3153c-5.9636-3.8706-11.6085-5.9636-17.9914-5.9636
		c-6.7987,0-10.3541,3.5553-10.3541,8.4724c0,4.3939,3.1394,7.322,12.0278,8.5764l4.0786,0.5232
		c15.8984,2.1969,24.3708,9.4149,24.3708,23.4283c0,14.0168-10.3541,24.3708-30.435,24.3708
		C320.3782,240.8924,308.6657,236.0793,302.7021,230.327"/>
	<path clip-path="url(#SVGID_2_)" fill="#241714" d="M408.2386,239.6363c-0.7312,0-1.1505-0.4193-1.1505-1.1505V206.897
		c0-6.0642-2.8242-10.0388-8.5764-10.0388c-5.4403,0-8.6804,3.9746-8.6804,10.0388v31.6928c0,0.7312-0.4193,1.1505-1.1505,1.1505
		h-13.7048c-0.7312,0-1.1505-0.4193-1.1505-1.1505v-75.3094c0-0.7312,0.4193-1.1505,1.1505-1.1505h13.7048
		c0.7312,0,1.1505,0.4193,1.1505,1.1505v26.2558h0.104c2.5089-3.4514,7.2147-6.2755,14.2247-6.2755
		c12.2357,0,18.8265,8.4724,18.8265,20.5002v34.7249c0,0.7312-0.4193,1.1505-1.1505,1.1505H408.2386z"/>
	<path clip-path="url(#SVGID_2_)" fill="#241714" d="M438.1528,239.6373c-0.7312,0-1.1505-0.4193-1.1505-1.1505v-52.8203
		c0-0.7345,0.4193-1.1538,1.1505-1.1538h13.7014c0.7312,0,1.1505,0.4193,1.1505,1.1538v52.8203
		c0,0.7312-0.4193,1.1505-1.1505,1.1505H438.1528z M438.1528,175.7284c-0.7312,0-1.1505-0.4193-1.1505-1.1504v-11.2966
		c0-0.7312,0.4193-1.1505,1.1505-1.1505h13.7014c0.7312,0,1.1505,0.4193,1.1505,1.1505v11.2966
		c0,0.7312-0.4193,1.1504-1.1505,1.1504H438.1528z"/>
	<path clip-path="url(#SVGID_2_)" fill="#1C8C9C" d="M579.88,210.7689l-8.7877-27.091h-0.312l-8.7877,27.091H579.88z
		 M562.4119,163.2817c0.2079-0.7312,0.7312-1.1504,1.4658-1.1504h14.3287c0.8352,0,1.2545,0.4193,1.4624,1.1504l26.2559,75.2055
		c0.2079,0.7312,0,1.1505-0.8386,1.1505h-14.8519c-0.8351,0-1.2544-0.3153-1.4658-1.1505l-4.3905-13.5975h-27.091l-4.2899,13.5975
		c-0.2079,0.8352-0.7312,1.1505-1.4624,1.1505h-14.9592c-0.8352,0-1.0432-0.4193-0.8352-1.1505L562.4119,163.2817z"/>
	<path clip-path="url(#SVGID_2_)" fill="#241714" d="M496.9353,190.3717l-5.8563-5.8562h-5.5443
		c-0.208-0.1073-0.3153-0.3153-0.3153-0.6272v-2.7202c0-4.7092,1.2578-5.9636,6.2755-5.9636h3.5587
		c0.7312,0,1.1505-0.4159,1.1505-1.1505v-10.7733c0-0.7312-0.4193-1.1505-1.1505-1.1505h-6.2755
		c-13.0742,0-19.3498,5.5443-19.3498,19.0378v2.6128c0,0.3153-0.1073,0.5232-0.3153,0.6272h-2.7202v0.1073h-1.0465
		c-0.7312,0-1.1505,0.4159-1.1505,1.1505v9.4116c0,0.7345,0.4193,1.1505,1.1505,1.1505h3.4514c0.4193,0,0.7345,0.2113,0.7345,0.7345
		v41.6277c0,0.7312,0.4159,1.1505,1.1505,1.1505h13.5975c0.7312,0,1.1505-0.4193,1.1505-1.1505v-41.6277
		c0-0.4193,0.2079-0.7345,0.7312-0.7345h5.1251L496.9353,190.3717z"/>
	<path clip-path="url(#SVGID_2_)" fill="#241714" d="M523.6071,196.2293h7.114c0.7312,0,1.1505-0.4193,1.1505-1.1505v-9.4149
		c0-0.7312-0.4193-1.1505-1.1505-1.1505h-7.114c-0.4193,0-0.7312-0.2079-0.7312-0.7312v-14.748
		c0-0.7312-0.4193-1.1505-1.1505-1.1505h-13.5975c-0.7346,0-1.1504,0.4193-1.1504,1.1505v14.8519
		c0,0.3153-0.1074,0.5232-0.3153,0.6272h-8.9957l5.0211,5.0211c0.2113,0.2113,0.3153,0.5232,0.3153,0.8385
		c0,0.3119-0.1073,0.6272-0.3153,0.8352l-5.0211,5.0211h6.0675h-0.8352h3.4514c0.4159,0,0.7312,0.2079,0.7312,0.7312v25.1054
		c0,12.655,4.8098,18.3033,17.5721,18.3033h6.0676c0.7312,0,1.1505-0.4193,1.1505-1.1505v-11.2966
		c0-0.7312-0.4193-1.1505-1.1505-1.1505h-2.7202c-3.6627,0-5.0211-1.3618-5.0211-5.4403v-24.3708
		C522.8759,196.4372,523.0838,196.2293,523.6071,196.2293"/>
	<path clip-path="url(#SVGID_2_)" fill="#1C8C9C" d="M288.4771,193.5094l-34.517-34.517l-11.2966-11.2966
		c-0.6272-0.6272-1.5664-0.6272-2.0896,0l-1.0465,1.0465l-44.8711,44.7671c-1.1505,1.1505-0.7345,2.093,0.8352,2.093h14.748h6.1715
		c0.8352,0,1.989,0.5232,2.5089,1.0465l11.4006,11.2932c0.6306,0.6306,1.6737,1.0465,2.5122,1.0465h17.5721
		c0.8352,0,1.9856-0.5232,2.5089-1.0465l11.2966-11.2932c0.6272-0.6306,1.3618-1.0465,1.6737-1.0465h2.093h11.9238h7.7412
		C289.3123,195.6024,289.6275,194.6599,288.4771,193.5094"/>
	<path clip-path="url(#SVGID_2_)" fill="#1C8C9C" d="M263.1651,232.3143l-19.4537-19.3498l-1.0465-1.0465
		c-0.6272-0.6272-1.5697-0.6272-2.093,0l-1.0465,1.0465l-19.4537,19.3498l-1.0465,1.0465
		c-0.6272,0.6272-1.0465,1.6737-1.0465,2.5089v5.4404c0,0.8352,0.6272,1.4624,1.4657,1.4624h44.3478
		c0.8385,0,1.4657-0.6272,1.4657-1.4624v-5.4404c0-0.8352-0.5232-1.9856-1.0465-2.5089L263.1651,232.3143z"/>
</g>
</svg>
