<?xml version="1.0" encoding="utf-8"?>
<!-- Generator: Adobe Illustrator 22.1.0, SVG Export Plug-In . SVG Version: 6.00 Build 0)  -->
<svg version="1.1" id="レイヤー_1" xmlns="http://www.w3.org/2000/svg" xmlns:xlink="http://www.w3.org/1999/xlink" x="0px"
	 y="0px" viewBox="0 0 800 400" enable-background="new 0 0 800 400" xml:space="preserve">
<rect fill="#FFFFFF" width="800" height="400"/>
<g>
	<defs>
		<rect id="SVGID_23_" x="186" y="145.1109" width="428" height="105.7782"/>
	</defs>
	<clipPath id="SVGID_2_">
		<use xlink:href="#SVGID_23_"  overflow="visible"/>
	</clipPath>
	<path clip-path="url(#SVGID_2_)" fill="#2B2221" d="M218.5217,213.1634l-10.1184,28.0456
		c8.6176,6.0903,19.1301,9.6808,30.4881,9.6808c10.9891,0,21.1923-3.3522,29.6495-9.0873l-10.0771-28.639H218.5217z"/>
	<path clip-path="url(#SVGID_2_)" fill="#2B2221" d="M186.0002,198.0005c0,13.2117,4.8553,25.2846,12.8634,34.5506l32.8298-86.9368
		C205.8888,149.1246,186.0002,171.2311,186.0002,198.0005"/>
	<path clip-path="url(#SVGID_2_)" fill="#2B2221" d="M291.7814,198.0005c0-26.8152-19.9596-48.9515-45.8307-52.4068l32.9582,86.9688
		C286.9215,223.2919,291.7814,211.219,291.7814,198.0005"/>
	<path clip-path="url(#SVGID_2_)" fill="#2B2221" d="M418.1103,170.2133h-22.9337c-4.9973,8.0769-7.8913,17.5904-7.8913,27.7867
		c0,10.1963,2.8939,19.7121,7.8913,27.7867h22.9337V170.2133z"/>
	<path clip-path="url(#SVGID_2_)" fill="#2B2221" d="M440.179,145.1114c-15.3953,0-29.2462,6.5806-38.9133,17.0817h16.8457h12.0844
		h12.4899c11.0372,0,19.5265,2.8069,25.4793,8.4229c5.9551,5.6183,8.9292,14.1809,8.9292,25.681
		c0,6.0193-0.6691,11.3511-2.0072,15.9979c-1.3358,4.6514-3.4095,8.5626-6.2186,11.7361c-2.8069,3.178-6.3859,5.6022-10.7348,7.2749
		c-4.3466,1.6727-9.4952,2.509-15.448,2.509h-12.4899h-12.0844h-16.8457c9.667,10.4942,23.518,17.0748,38.9133,17.0748
		c29.2096,0,52.8879-23.6784,52.8879-52.8902S469.3885,145.1114,440.179,145.1114"/>
	<path clip-path="url(#SVGID_2_)" fill="#2B2221" d="M352.9315,172.5672l-20.9402,53.1606
		c2.4082,0.6553,4.9263,1.0311,7.5453,1.0311c15.881,0,28.7536-12.8748,28.7536-28.7582
		C368.2901,186.9589,362.0601,177.3858,352.9315,172.5672"/>
	<path clip-path="url(#SVGID_2_)" fill="#2B2221" d="M339.5356,169.2446c-15.881,0-28.7605,12.8748-28.7605,28.7559
		c0,11.0441,6.2324,20.6195,15.3632,25.4358l20.9402-53.1606C344.6704,169.6249,342.15,169.2446,339.5356,169.2446"/>
	<path clip-path="url(#SVGID_2_)" fill="#2B2221" d="M567.9825,190.2467c-0.7745-1.0815-1.7666-1.9545-2.9787-2.6098
		c-1.2121-0.6576-2.6556-0.9853-4.3329-0.9853c-1.6749,0-3.1161,0.3277-4.3306,0.9853c-1.2121,0.6553-2.2042,1.5283-2.9787,2.6098
		c-0.7722,1.0838-1.3381,2.3005-1.7001,3.6546c-0.362,1.3519-0.5408,2.7267-0.5408,4.1198s0.1788,2.7633,0.5408,4.1198
		c0.362,1.3542,0.928,2.5708,1.7001,3.6569c0.7745,1.0792,1.7666,1.9522,2.9787,2.6075c1.2144,0.6576,2.6556,0.9853,4.3306,0.9853
		c1.6772,0,3.1208-0.3277,4.3329-0.9853c1.2121-0.6553,2.2042-1.5283,2.9787-2.6075c0.7722-1.0861,1.3404-2.3028,1.7001-3.6569
		c0.3621-1.3565,0.543-2.7267,0.543-4.1198s-0.181-2.7679-0.543-4.1198C569.3229,192.5471,568.7547,191.3305,567.9825,190.2467"/>
	<path clip-path="url(#SVGID_2_)" fill="#2B2221" d="M576.5032,166.0108c3.4003,1.872,6.3263,4.2252,8.7138,7.1122
		c2.7496,3.3224,4.8072,7.1374,6.1843,11.4565c1.3748,4.3145,2.0622,8.8055,2.0622,13.466c0,4.6697-0.6874,9.1606-2.0622,13.4775
		c-1.3771,4.3122-3.4347,8.1341-6.1843,11.4565c-2.7473,3.327-6.1682,5.9574-10.2582,7.9096
		c-4.0922,1.9476-8.8536,2.926-14.2863,2.926c-5.4327,0-10.1964-0.9784-14.2863-2.926c-4.09-1.9522-7.5109-4.5826-10.2604-7.9096
		c-2.745-3.3224-4.8095-7.1443-6.1843-11.4565c-1.3725-4.3168-2.0599-8.8078-2.0599-13.4775c0-4.6605,0.6874-9.1515,2.0599-13.466
		c1.3748-4.3191,3.4393-8.1341,6.1843-11.4565c2.7495-3.327,6.1705-5.978,10.2604-7.9623c4.09-1.9797,8.8536-2.9695,14.2863-2.9695
		c1.5742,0,3.0726,0.1054,4.5345,0.275c7.8248,0.4468,24.1801,1.2694,36.0079,1.0792
		c-9.6991-11.2801-24.061-18.4336-40.1071-18.4336c-29.2095,0-52.8902,23.6761-52.8902,52.8879s23.6806,52.8902,52.8902,52.8902
		c29.2119,0,52.8925-23.6784,52.8925-52.8902c0-11.5688-3.7279-22.2623-10.029-30.967
		C595.2163,167.2894,583.1984,167.3329,576.5032,166.0108"/>
	<path clip-path="url(#SVGID_2_)" fill="#2B2221" d="M560.6721,181.452c-2.4998,0-4.7476,0.4766-6.6769,1.4091
		c-1.9178,0.9326-3.5469,2.1974-4.8438,3.7646c-1.274,1.5421-2.2432,3.3338-2.8756,5.3204
		c-0.6187,1.9453-0.9326,3.9846-0.9326,6.0742c0,2.092,0.3139,4.1358,0.9326,6.0697c0.6324,1.9934,1.6016,3.7852,2.8756,5.3273
		c1.3015,1.5695,2.9352,2.832,4.853,3.7463c1.9293,0.9188,4.1725,1.384,6.6677,1.384s4.7407-0.4651,6.6677-1.384
		c1.9178-0.9142,3.5516-2.1721,4.853-3.7509c1.2762-1.5397,2.2432-3.3316,2.8779-5.3227c0.6164-1.9339,0.9302-3.9777,0.9302-6.0697
		c0-2.0897-0.3138-4.1335-0.9302-6.0742c-0.6347-1.9866-1.6016-3.7761-2.8756-5.3204c-1.2991-1.5673-2.9283-2.8321-4.8438-3.7646
		C565.4197,181.9286,563.1719,181.452,560.6721,181.452 M560.6721,183.5577c2.1927,0,4.1129,0.401,5.7649,1.1961
		c1.6475,0.802,3.0292,1.8697,4.1381,3.2124c1.1067,1.3381,1.9385,2.8779,2.4929,4.6216c0.5545,1.7391,0.8318,3.5515,0.8318,5.4327
		s-0.2773,3.6959-0.8318,5.435c-0.5544,1.7437-1.3862,3.2812-2.4929,4.6216c-1.1089,1.3404-2.4907,2.4059-4.1381,3.1918
		c-1.652,0.7836-3.5721,1.1777-5.7649,1.1777c-2.1905,0-4.1106-0.3941-5.7604-1.1777c-1.652-0.7859-3.0337-1.8514-4.1404-3.1918
		c-1.109-1.3404-1.9384-2.8779-2.4952-4.6216c-0.5545-1.7391-0.8317-3.5538-0.8317-5.435s0.2772-3.6936,0.8317-5.4327
		c0.5568-1.7437,1.3862-3.2834,2.4952-4.6216c1.1067-1.3427,2.4884-2.4104,4.1404-3.2124
		C556.5615,183.9586,558.4816,183.5577,560.6721,183.5577"/>
</g>
</svg>
