<?xml version="1.0" encoding="utf-8"?>
<!-- Generator: Adobe Illustrator 22.1.0, SVG Export Plug-In . SVG Version: 6.00 Build 0)  -->
<svg version="1.1" id="レイヤー_1" xmlns="http://www.w3.org/2000/svg" xmlns:xlink="http://www.w3.org/1999/xlink" x="0px"
	 y="0px" viewBox="0 0 800 400" enable-background="new 0 0 800 400" xml:space="preserve">
<linearGradient id="SVGID_2_" gradientUnits="userSpaceOnUse" x1="136.2489" y1="-114.3264" x2="663.7512" y2="514.3264">
	<stop  offset="0" style="stop-color:#177079"/>
	<stop  offset="1" style="stop-color:#20909A"/>
</linearGradient>
<rect fill="url(#SVGID_2_)" width="800" height="400"/>
<path fill="#20B5B1" d="M502.6954,281.5389c-12.6074,10.0518-32.3708,12.6074-48.2155,12.6074
	c-6.4745,0-12.438-0.5108-18.7418-1.3632c-7.8376,3.2372-17.2078,6.8145-26.5794,10.3933
	c6.4745,4.6004,14.3121,11.7565,14.3121,20.445c0,11.9258-12.9489,17.3786-23.1714,17.3786c-5.9636,0-12.2673-1.7033-17.5493-4.7712
	c-1.1924-0.6816-0.851-1.874,0.6816-0.8509c3.5787,2.2141,8.5193,3.7481,12.7782,3.7481c9.7117,0,21.1281-6.4745,21.1281-17.3786
	c0-7.4962-4.9419-13.4597-10.564-17.7187c-15.3338,5.6221-31.1784,10.9041-42.2533,13.6291
	c-8.8593,2.0448-18.4002,3.408-27.0902,3.408c-7.156,0-23.853-0.8523-23.853-11.2442c0-1.8755,0.6816-3.408,1.5339-5.1113h-2.3849
	c-13.972,0-22.4898-3.9188-22.4898-11.0749c0-8.0084,12.6074-21.2974,49.5786-21.2974c21.2974,0,42.5948,3.5773,63.3813,8.1777
	c16.8663-6.3037,39.0161-16.5262,53.3267-19.0818c1.0231-0.1707,2.0448-0.3401,3.0679-0.3401c2.0434,0,2.5556,0.3401,3.9188,0.6802
	c0.6816,0.1708,1.3618,1.0231,0.1693,1.0231c-0.851,0-1.5325-0.3415-2.725-0.3415c-1.8755,0-2.8972,0.1707-4.4311,0.5122
	c-14.3107,2.8957-35.7788,12.4366-50.7711,18.0588c11.755,2.7264,23.1714,5.9636,35.0972,8.0084
	c13.9706-5.7929,27.7718-11.415,42.7641-14.3121c2.8972-0.5108,6.6452-1.0217,10.2225-1.0217
	c5.1113,0,10.7348,1.0217,10.7348,4.4297C504.5709,279.3234,504.0586,280.5158,502.6954,281.5389z M330.6158,275.2338
	c-26.2379,0-34.7571,9.0301-34.7571,16.1861c0,9.3716,13.4597,11.415,20.445,11.415c3.408-4.599,9.0301-7.8362,14.8229-9.881
	c7.4961-2.5556,19.0818-4.2603,29.6459-4.2603c4.7697,0,9.3701,0.3415,14.1413,1.1938c6.6438-2.0448,13.289-4.0896,19.2526-6.1343
	C373.5507,279.4941,351.9132,275.2338,330.6158,275.2338z M374.9139,291.4199c-17.2078,5.282-38.5052,11.7565-56.5654,13.1197
	c-0.3415,1.0217-0.5108,1.874-0.5108,2.7264c0,5.9622,8.3485,12.2659,21.9776,12.2659c7.4976,0,16.697-1.3618,25.2162-3.4066
	c10.3932-2.3863,25.387-7.4976,40.3792-13.1197C397.5731,297.5543,386.4996,293.4647,374.9139,291.4199z M360.7726,290.0567
	c-10.2225,0-22.3191,1.7047-29.3058,4.2603c-4.599,1.7033-9.3702,4.2589-12.2659,8.5178
	c15.163-0.5109,38.3344-7.4962,52.8159-11.9258C368.2687,290.3983,364.5206,290.0567,360.7726,290.0567z M396.7221,284.2639
	c-6.1343,2.0448-12.438,4.0896-18.9125,6.1344c11.0749,2.2141,21.4681,6.3037,29.8166,11.7564
	c8.8593-3.2372,17.5479-6.6452,25.2148-9.7117C420.7445,290.3983,408.8187,286.8195,396.7221,284.2639z M489.2357,276.0862
	c-1.874,0-3.9174,0-5.7928,0.3415c-13.9706,2.2141-26.9195,7.6669-39.867,13.1183c6.8145,1.0231,13.6291,1.874,20.445,1.874
	c7.4961,0,35.9496-4.0882,35.9496-11.2442C499.9705,277.4493,495.7101,276.0862,489.2357,276.0862z"/>
<g>
	<g>
		<path fill="#20B5B1" d="M378.1408,95.335c-1.7248,1.9227-3.3398,3.9378-4.8593,6.0324l11.3183,7.1069
			c2.4105-4.7352,5.1161-8.9928,8.1404-12.7343c0.1073-0.1328,0.2187-0.2546,0.3265-0.386
			c-1.4003-2.9158-3.3173-5.5221-5.7198-7.7602c-0.1611-0.1497-0.3323-0.2921-0.498-0.4386
			C383.7364,89.627,380.8256,92.3435,378.1408,95.335z"/>
		<path fill="#20B5B1" d="M386.1551,199.0012c-3.3393-4.6679-6.0786-10.327-8.2168-16.982
			c-1.2337-3.8365-2.1516-8.0414-2.7601-12.6079c-5.0167,0.9794-9.9783,2.0496-15.0737,2.5488
			c0.2489,1.0526,0.5137,2.1072,0.8006,3.1645c2.1611,7.9783,5.6426,15.2078,10.4427,21.6965
			c2.1064,2.8497,4.5249,5.4647,7.2191,7.8714c2.459-1.4091,4.69-3.009,6.6584-4.8012
			C385.5445,199.6005,385.8488,199.3002,386.1551,199.0012z"/>
		<path fill="#20B5B1" d="M492.6044,125.2429c-0.8803-5.1359-2.2646-10.2051-4.1566-15.2078
			c-1.8947-4.9991-4.4293-9.7992-7.6039-14.3959c-3.1773-4.594-7.0971-8.6498-11.7605-12.1664
			c-4.6642-3.5139-10.1071-6.3177-16.323-8.4149c-6.2195-2.0945-13.3833-3.1431-21.494-3.1431
			c-10.9495,0-20.9197,2.0972-29.9088,6.2853c-0.8137,0.3793-1.6053,0.7853-2.3983,1.1896
			c0.9304,0.5736,1.8186,1.1831,2.6584,1.8334c1.2004,0.9301,2.2923,1.9393,3.2921,3.0144
			c1.9347-1.3509,3.9228-2.5648,5.9788-3.6035c6.6912-3.378,13.2807-5.0693,19.7694-5.0693c8.1115,0,15.0719,1.8947,20.8855,5.6777
			c5.8109,3.7857,10.6453,8.6174,14.4985,14.4976c3.8524,5.8802,6.6912,12.404,8.5157,19.5678
			c1.8253,7.1665,2.738,14.0602,2.738,20.6821c0,8.5166-1.3879,17.4382-4.1575,26.7658
			c-2.7723,9.3276-6.7254,17.9135-11.8613,25.7523c-5.1395,7.8415-11.4257,14.2951-18.8576,19.3644
			c-7.4365,5.0693-15.8865,7.6039-25.3463,7.6039c-5.4086,0-10.6804-1.1818-15.8163-3.5481
			c-2.5052-1.1522-4.871-2.6239-7.1021-4.4035c-2.2054,1.316-4.5355,2.4912-6.9815,3.5224
			c1.0182,0.6177,2.0587,1.2185,3.1341,1.7929c7.8379,4.189,17.4382,6.2862,28.7928,6.2862c11.3554,0,21.6272-2.2655,30.8215-6.7929
			c9.1907-4.5274,17.0647-10.5094,23.6227-17.9449c6.5553-7.4329,11.5895-15.918,15.1061-25.448
			c3.5139-9.5301,5.2727-19.2951,5.2727-29.3004C493.923,135.179,493.4819,130.3824,492.6044,125.2429z"/>
		<path fill="#F7F3C2" d="M387.5692,200.8769c-0.1015-0.1273-0.1967-0.2651-0.297-0.394c-0.2674,0.2578-0.529,0.5192-0.8056,0.7711
			c-1.9195,1.7479-4.0672,3.325-6.4254,4.7229c1.644,1.3663,3.3922,2.6538,5.2387,3.867c2.5985-1.0287,5.0597-2.2285,7.3861-3.5784
			C390.8751,204.6794,389.1731,202.8901,387.5692,200.8769z"/>
		<path fill="#F7F3C2" d="M400.489,82.6803c-1.0669-0.8262-2.2225-1.58-3.4478-2.2761c-3.0621,1.6744-5.9689,3.5372-8.712,5.5988
			c0.0897,0.0813,0.1848,0.1585,0.2733,0.2408c2.3704,2.2085,4.2942,4.7545,5.7563,7.5831
			c2.8423-3.2702,5.8526-6.1091,9.0349-8.5053C402.5052,84.3824,401.5432,83.497,400.489,82.6803z"/>
	</g>
	<path fill="#20B5B1" d="M374.2876,155.051c0-13.1106,1.7237-24.602,5.171-34.4714c1.5197-4.3492,3.241-8.3721,5.1413-12.1053
		l-11.3183-7.1069c-4.1973,5.7851-7.619,12.2194-10.2477,19.3139c-3.5833,9.666-5.3726,19.9728-5.3726,30.9223
		c0,6.6832,0.8156,13.4697,2.4433,20.3565c5.0954-0.4992,10.0569-1.5694,15.0737-2.5488
		C374.5864,164.9689,374.2876,160.1845,374.2876,155.051z"/>
	<g>
		<path fill="#20B5B1" d="M373.5945,147.3826c0.1744-3.1382,0.4577-6.1808,0.8495-9.1244
			c-4.257,1.3788-9.3339,2.2044-15.2213,2.4825c-0.1776,1.5226-0.3131,3.0587-0.4149,4.6057
			c3.8265,0.2701,7.3352,0.6643,10.5123,1.188C370.8105,146.7808,372.2298,147.0666,373.5945,147.3826z"/>
		<path fill="#F7F3C2" d="M406.326,152.1104c-4.5976-5.7443-11.1529-10.0368-19.6695-12.8757
			c16.4913-8.5166,24.7388-19.872,24.7388-34.0654c0-10.1385-3.4473-17.8756-10.3419-23.2176
			c-6.8937-5.3384-16.8298-8.0089-29.8072-8.0089c-1.6219,0-4.1251,0.1008-7.5022,0.3033
			c-3.3807,0.2034-7.2997,0.4059-11.7605,0.6085c-4.4617,0.2034-9.2961,0.3744-14.4985,0.5077
			c-5.2052,0.1359-10.4427,0.2025-15.7145,0.2025v3.4473l16.0188,0.405c-0.2727,2.1638-0.6778,5.8136-1.2169,10.9495
			c-0.5418,5.1395-1.2511,11.2888-2.1287,18.4526c-0.8812,7.1665-1.8596,15.0746-2.9406,23.7235
			c-1.0837,8.6534-2.1989,17.5084-3.3456,26.5632c-1.1503,9.0584-2.3663,18.0818-3.6498,27.07
			c-1.2862,8.9918-2.468,17.4067-3.5481,25.2446l-14.1943,0.8119v3.6498c2.0279-0.1368,4.3915-0.2376,7.0971-0.3042
			c2.7021-0.0702,5.9469-0.1017,9.7326-0.1017c1.2169,0,2.9721,0,5.2727,0c2.297,0,4.8317,0.0315,7.6039,0.1017
			c2.7686,0.0666,5.6426,0.1323,8.6174,0.2025c2.972,0.0666,5.7443,0.1017,8.3141,0.1017
			c7.5688,0.1323,14.9351-0.5742,22.1015-2.1296c7.1638-1.5526,13.5508-4.0873,19.1619-7.6039
			c5.6075-3.5139,10.1034-8.0089,13.4841-13.4841c3.3771-5.4752,5.0693-12.0647,5.0693-19.7703
			C413.2198,164.7836,410.92,157.8575,406.326,152.1104z M394.4638,188.7105c-1.9613,4.4608-4.8353,8.4149-8.6183,11.8622
			c-3.7857,3.4473-8.4149,6.1845-13.8892,8.2124c-5.4752,2.0279-11.729,3.0414-18.7568,3.0414
			c-5.2718,0-9.0233-0.5734-11.2537-1.7237c-2.2304-1.1467-3.3456-3.0729-3.3456-5.7785c0-0.6751,0.1332-2.4653,0.4059-5.3735
			c0.2691-2.9055,0.64-6.3879,1.1152-10.4428c0.4716-4.0558,0.9784-8.3807,1.5202-12.9774c0.5392-4.594,1.081-8.954,1.6228-13.0791
			c0.5383-4.1215,1.0135-7.7713,1.4185-10.9495c0.4059-3.1746,0.675-5.3735,0.8119-6.5895c4.0974,0,7.9109,0.1108,11.4736,0.3195
			c0.0974-1.4822,0.227-2.9541,0.3926-4.4146c-0.8976,0.0242-1.8086,0.0394-2.7421,0.0394h-8.5166
			c1.081-8.1107,2.1296-16.1871,3.1431-24.2311c1.0144-8.0413,2.0594-15.8478,3.1431-23.4202
			c0.2691-2.297,0.6085-4.7299,1.0144-7.2997c0.405-2.5661,0.7408-4.1881,1.0135-4.8667c0.5382-1.3492,1.5526-2.1953,3.0414-2.5346
			c1.486-0.3357,3.3771-0.5068,5.6777-0.5068c5.2718,0,10.0026,0.811,14.1943,2.4338c4.1881,1.6219,7.7362,3.7857,10.6453,6.4878
			c2.9055,2.7066,5.1008,5.8811,6.5895,9.531c1.486,3.6498,2.2304,7.5715,2.2304,11.7605c0,4.1917-0.6778,8.2466-2.027,12.1664
			c-1.3528,3.9217-3.6498,7.4005-6.8947,10.4428c-2.9375,2.7542-6.7738,5.0041-11.4842,6.761
			c-0.4665,3.2884-0.786,6.7143-0.9732,10.2577c3.8471,1.0228,7.163,2.34,9.9227,3.9677c4.1224,2.4329,7.1638,5.5445,9.1251,9.3276
			c1.9577,3.7858,2.9397,8.3132,2.9397,13.5859C397.4035,179.5854,396.4215,184.2497,394.4638,188.7105z"/>
	</g>
</g>
<g>
	<g>
		<path fill="#231815" d="M339.7739,237.5107c1.0396,0,1.9996,0.0619,2.8822,0.1814c0.8826,0.1217,1.6612,0.3871,2.338,0.7974
			c0.6282,0.3628,1.2011,0.9368,1.7209,1.722s0.7786,1.7342,0.7786,2.8446c0,1.2564-0.3738,2.3978-1.1237,3.4241
			c-0.7477,1.0286-1.9333,1.9521-3.5502,2.7738c1.6169,0.5065,2.8313,1.2675,3.6409,2.2827
			c0.8096,1.0142,1.2144,2.2097,1.2144,3.5878c0,0.7963-0.1637,1.6435-0.4888,2.5371c-0.3274,0.8936-0.887,1.7209-1.6855,2.4818
			c-0.7963,0.7609-1.8603,1.3958-3.1897,1.9023c-1.3294,0.5077-2.995,0.7609-5.0013,0.7609c-0.3384,0-0.7609-0.0055-1.2674-0.0177
			c-0.5088-0.0122-1.064-0.0177-1.6678-0.0177c-0.6039,0-1.2387-0.0066-1.9023-0.0177c-0.6658-0.0132-1.3228-0.0188-1.9753-0.0188
			c-0.6039,0-1.1657,0.0056-1.6855,0.0188c-0.5198,0.0111-0.9356,0.0288-1.2498,0.0531v-0.7963l2.2097-0.146
			c0.1947-1.3759,0.4291-3.0735,0.7078-5.0919c0.2765-2.0162,0.5552-4.1187,0.8339-6.3052
			c0.2765-2.1865,0.5419-4.3244,0.7963-6.4147c0.2544-2.0892,0.4535-3.8964,0.5995-5.4182l-2.6831-0.073v-0.8328h2.9729
			c0.3119,0,0.6393-0.0122,0.9777-0.0365c0.3384-0.0232,0.7609-0.0476,1.2675-0.0719c0.5087-0.0232,1.1237-0.0475,1.8492-0.073
			C337.8185,237.524,338.7122,237.5107,339.7739,237.5107z M335.5336,250.2317c-0.2898,2.2473-0.5132,4.0236-0.6702,5.3275
			c-0.157,1.304-0.2765,2.3082-0.3606,3.0072c-0.0862,0.7012-0.1393,1.1911-0.1637,1.4688
			c-0.0244,0.2776-0.0376,0.5132-0.0376,0.7067c0,0.4103,0.157,0.7134,0.4711,0.9058c0.3141,0.1935,0.9312,0.2898,1.8492,0.2898
			c1.2564,0,2.3203-0.2112,3.1896-0.6348c0.8693-0.4225,1.5749-0.96,2.119-1.6125c0.5442-0.6525,0.9357-1.3581,1.179-2.119
			c0.2411-0.7609,0.3628-1.4798,0.3628-2.1567c0-1.6678-0.6304-2.9474-1.8846-3.8422c-1.2564-0.8936-3.1653-1.3404-5.7268-1.3404
			H335.5336z M335.6442,249.3624c0.6282,0,1.1701-0.0066,1.6302-0.0188c0.4579-0.0122,0.8759-0.0409,1.2498-0.0896
			c0.3738-0.0487,0.7189-0.1217,1.033-0.219c0.3141-0.0951,0.6525-0.2411,1.0153-0.4335c0.8206-0.4114,1.5528-1.0452,2.192-1.9034
			c0.6393-0.8571,0.96-1.9144,0.96-3.1709c0-0.7012-0.1084-1.3648-0.3252-1.993c-0.219-0.6282-0.5441-1.1779-0.9799-1.649
			c-0.4336-0.4711-0.991-0.8394-1.6656-1.1049c-0.6768-0.2665-1.4754-0.3993-2.3933-0.3993c-0.4335,0-0.741,0.0243-0.9224,0.0719
			c-0.1814,0.0487-0.2964,0.1947-0.3451,0.4358c-0.0486,0.1935-0.1991,1.1292-0.4534,2.8081
			C336.3852,243.3768,336.0534,245.9316,335.6442,249.3624z"/>
		<path fill="#231815" d="M360.0687,247.0786c1.2564,0,2.2894,0.2422,3.099,0.7244c0.8096,0.4844,1.4422,1.0761,1.9023,1.7762
			c0.4579,0.7012,0.7786,1.4499,0.96,2.2473c0.1814,0.7963,0.2721,1.5218,0.2721,2.1744c0,0.991-0.1747,2.0295-0.5242,3.1166
			c-0.3517,1.0872-0.8781,2.0903-1.5771,3.0083c-0.7012,0.918-1.5661,1.6789-2.5924,2.2827
			c-1.0263,0.6039-2.2164,0.9069-3.5679,0.9069c-0.7985,0-1.5771-0.1637-2.338-0.49c-0.7609-0.3263-1.4378-0.7974-2.0306-1.4135
			c-0.5928-0.616-1.064-1.3648-1.4135-2.2462c-0.3495-0.8826-0.5242-1.8669-0.5242-2.9541c0-1.1602,0.1924-2.2838,0.5795-3.3699
			c0.3849-1.0883,0.9423-2.0604,1.6678-2.9176c0.7233-0.8582,1.5992-1.5462,2.6256-2.066
			C357.6333,247.3385,358.7879,247.0786,360.0687,247.0786z M355.2134,257.843c0,1.4489,0.2278,2.6035,0.6879,3.4595
			c0.4579,0.8582,1.0861,1.2874,1.8846,1.2874c0.6282,0,1.1834-0.1814,1.6656-0.5442c0.4844-0.3628,0.9135-0.8339,1.2874-1.4134
			c0.3738-0.5796,0.6945-1.2376,0.96-1.9753c0.2654-0.7366,0.4844-1.4854,0.6525-2.2462c0.1703-0.7609,0.2898-1.5042,0.3628-2.2286
			c0.073-0.7255,0.1084-1.3537,0.1084-1.8846c0-1.4732-0.2234-2.5913-0.6702-3.3522c-0.4468-0.762-1.0817-1.1425-1.9023-1.1425
			c-0.6525,0-1.2807,0.2898-1.8846,0.8704c-0.6039,0.5806-1.1414,1.3471-1.6125,2.3015c-0.4711,0.9545-0.8472,2.0295-1.1237,3.2251
			C355.3506,255.3966,355.2134,256.6099,355.2134,257.843z"/>
		<path fill="#231815" d="M375.8333,247.0786c0.6769,0,1.2741,0.1029,1.7939,0.3086c0.5198,0.2057,0.9556,0.4645,1.3051,0.7786
			s0.6171,0.6592,0.7985,1.033c0.1814,0.3749,0.2721,0.731,0.2721,1.0695c0,0.5563-0.1703,1.0385-0.5088,1.4499
			c-0.3384,0.4103-0.7122,0.6149-1.1237,0.6149c-0.2411,0-0.4778-0.1139-0.7056-0.3429c-0.23-0.23-0.3451-0.5862-0.3451-1.0706
			c0-0.0951,0.0066-0.1924,0.0177-0.2898c0.0133-0.0951,0.0376-0.2289,0.073-0.3981c0.0354-0.1681,0.0973-0.3805,0.1814-0.6348
			c0.084-0.2533,0.1991-0.5851,0.3451-0.9954c-0.2676-0.2179-0.5862-0.4048-0.9622-0.5618
			c-0.3738-0.157-0.7654-0.2367-1.1768-0.2367c-0.4358,0-0.8162,0.0796-1.1414,0.2367c-0.3274,0.1571-0.6105,0.3628-0.8516,0.6149
			c-0.2411,0.2544-0.4225,0.5386-0.5442,0.8516c-0.1216,0.3152-0.1814,0.6293-0.1814,0.9423c0,0.3395,0.0486,0.6293,0.146,0.8704
			c0.0951,0.2422,0.2477,0.4711,0.4534,0.689c0.2035,0.2168,0.4712,0.4402,0.7963,0.6702c0.3251,0.23,0.7189,0.5021,1.1768,0.8151
			c0.8936,0.605,1.6744,1.2818,2.338,2.0295c0.6658,0.7498,0.9976,1.68,0.9976,2.7915c0,0.6514-0.1327,1.2807-0.3982,1.8835
			c-0.2676,0.605-0.6414,1.1358-1.1237,1.5948c-0.4844,0.459-1.0573,0.8284-1.7231,1.1049
			c-0.6636,0.2787-1.4068,0.4181-2.2274,0.4181c-1.3781,0-2.5017-0.303-3.371-0.9069c-0.8693-0.6039-1.3051-1.4488-1.3051-2.5371
			c0-0.7963,0.219-1.3947,0.6525-1.7939c0.4358-0.3981,0.845-0.5972,1.2321-0.5972c0.2898,0,0.5309,0.1029,0.7255,0.3075
			c0.1924,0.2057,0.2898,0.5021,0.2898,0.8881c0,0.4833-0.303,1.4013-0.9069,2.755c0.3384,0.3384,0.7012,0.6149,1.0883,0.8328
			c0.3849,0.2179,0.856,0.3263,1.4135,0.3263c0.4579,0,0.856-0.0907,1.1967-0.2721c0.3362-0.1814,0.6216-0.4159,0.8516-0.7067
			c0.2278-0.2898,0.4026-0.6094,0.5242-0.96c0.1217-0.3506,0.1814-0.6945,0.1814-1.033c0-0.3617-0.0487-0.6758-0.1438-0.9423
			c-0.0973-0.2654-0.2676-0.532-0.5087-0.7974c-0.2411-0.2654-0.5619-0.5486-0.96-0.8516
			c-0.3982-0.3019-0.9003-0.6824-1.5042-1.1414c-0.3384-0.2411-0.6658-0.4955-0.9777-0.7609
			c-0.3141-0.2654-0.5928-0.5552-0.8339-0.8693c-0.2411-0.3141-0.4291-0.6713-0.5619-1.0706
			c-0.1327-0.3981-0.1991-0.8516-0.1991-1.3581c0-0.6769,0.1371-1.3051,0.4159-1.8846c0.2787-0.5795,0.6591-1.0816,1.1414-1.5041
			c0.4844-0.4225,1.0573-0.7543,1.7231-0.9965C374.3425,247.2002,375.0613,247.0786,375.8333,247.0786z"/>
		<path fill="#231815" d="M391.7794,247.0786c0.7742,0,1.451,0.1029,2.0306,0.3086c0.5795,0.2057,1.0617,0.4778,1.4488,0.8151
			c0.3871,0.3384,0.6769,0.7134,0.8693,1.1237c0.1946,0.4103,0.2898,0.8096,0.2898,1.1956c0,0.1947-0.0354,0.4291-0.1084,0.7067
			c-0.073,0.2776-0.2057,0.5386-0.3982,0.7797c-0.1946,0.2411-0.4645,0.4468-0.8162,0.6149
			c-0.3495,0.1703-0.814,0.2544-1.3936,0.2544c-0.4114,0-0.6768-0.042-0.7985-0.1261c-0.1216-0.0852-0.1814-0.2002-0.1814-0.3451
			c0-0.1449,0.0553-0.3804,0.1637-0.7067c0.1084-0.3263,0.2234-0.6702,0.3451-1.0319c0.1194-0.3628,0.2345-0.7078,0.3428-1.033
			c0.1084-0.3274,0.1637-0.5508,0.1637-0.6713c0-0.4103-0.1637-0.7067-0.4888-0.8881c-0.3274-0.1814-0.6702-0.2721-1.033-0.2721
			c-0.7499,0-1.4798,0.2898-2.1921,0.8704c-0.7144,0.5806-1.3471,1.3106-1.9045,2.1932c-0.5552,0.8815-1.002,1.8536-1.3405,2.9176
			c-0.3384,1.0629-0.5065,2.077-0.5065,3.0437c0,0.5796,0.0663,1.1303,0.1991,1.649c0.1327,0.5198,0.3318,0.9788,0.5972,1.377
			s0.6105,0.7122,1.033,0.9423s0.9113,0.344,1.4688,0.344c0.845,0,1.6899-0.2289,2.5371-0.689
			c0.845-0.4579,1.7253-1.2675,2.6455-2.4276l0.5419,0.4346c-0.3384,0.4844-0.7366,1.0098-1.1945,1.5771
			c-0.4601,0.5685-0.9843,1.0927-1.5771,1.576c-0.5928,0.4833-1.2498,0.8881-1.9753,1.2144s-1.5219,0.49-2.3911,0.49
			c-0.6039,0-1.2276-0.115-1.8669-0.3451c-0.6415-0.23-1.221-0.5862-1.7386-1.0684c-0.5198-0.4844-0.9423-1.1181-1.2697-1.9034
			c-0.3252-0.7841-0.4889-1.7452-0.4889-2.8811c0-1.3526,0.2345-2.6389,0.7056-3.8599c0.4711-1.2188,1.1193-2.2894,1.9399-3.2073
			c0.8206-0.918,1.7762-1.6424,2.8623-2.1744C389.3882,247.3451,390.5473,247.0786,391.7794,247.0786z"/>
		<path fill="#231815" d="M407.763,247.0786c1.2542,0,2.2871,0.2422,3.0967,0.7244c0.8096,0.4844,1.4444,1.0761,1.9045,1.7762
			c0.4579,0.7012,0.7786,1.4499,0.96,2.2473c0.1814,0.7963,0.2721,1.5218,0.2721,2.1744c0,0.991-0.177,2.0295-0.5265,3.1166
			c-0.3495,1.0872-0.8759,2.0903-1.5771,3.0083c-0.7012,0.918-1.5639,1.6789-2.5902,2.2827
			c-1.0286,0.6039-2.2164,0.9069-3.5701,0.9069c-0.7963,0-1.5771-0.1637-2.338-0.49c-0.7609-0.3263-1.4378-0.7974-2.0284-1.4135
			c-0.5928-0.616-1.064-1.3648-1.4135-2.2462c-0.3517-0.8826-0.5264-1.8669-0.5264-2.9541c0-1.1602,0.1946-2.2838,0.5795-3.3699
			c0.3871-1.0883,0.9423-2.0604,1.6678-2.9176c0.7255-0.8582,1.5992-1.5462,2.6278-2.066
			C405.3276,247.3385,406.48,247.0786,407.763,247.0786z M402.9055,257.843c0,1.4489,0.23,2.6035,0.6879,3.4595
			c0.4601,0.8582,1.0883,1.2874,1.8846,1.2874c0.6282,0,1.1834-0.1814,1.6678-0.5442c0.4822-0.3628,0.9113-0.8339,1.2874-1.4134
			c0.3738-0.5796,0.6924-1.2376,0.96-1.9753c0.2654-0.7366,0.4822-1.4854,0.6526-2.2462c0.1681-0.7609,0.2898-1.5042,0.3627-2.2286
			c0.0708-0.7255,0.1084-1.3537,0.1084-1.8846c0-1.4732-0.2234-2.5913-0.6702-3.3522c-0.449-0.762-1.0816-1.1425-1.9045-1.1425
			c-0.6503,0-1.2807,0.2898-1.8846,0.8704c-0.6039,0.5806-1.1414,1.3471-1.6125,2.3015c-0.4711,0.9545-0.845,2.0295-1.1237,3.2251
			C403.0449,255.3966,402.9055,256.6099,402.9055,257.843z"/>
		<path fill="#231815" d="M434.687,236.606l-4.7115,23.4114c-0.0243,0.0719-0.0486,0.2112-0.073,0.4158
			c-0.0243,0.2057-0.0354,0.3805-0.0354,0.5265c0,0.2411,0.073,0.3617,0.2168,0.3617c0.1216,0,0.3097-0.0719,0.5618-0.2179
			c0.2544-0.1438,0.5375-0.3252,0.8516-0.543c0.3141-0.2179,0.6525-0.4712,1.0153-0.7609c0.3628-0.2909,0.7255-0.5806,1.0883-0.8704
			l0.4711,0.5441c-0.5088,0.4833-1.033,0.9545-1.5771,1.4135c-0.5442,0.459-1.0817,0.8693-1.6125,1.2321
			c-0.5331,0.3628-1.0507,0.6525-1.5594,0.8693c-0.5065,0.2179-0.9909,0.3274-1.4488,0.3274c-0.4844,0-0.8273-0.1394-1.033-0.4181
			c-0.2057-0.2765-0.3075-0.6216-0.3075-1.033v-0.3252c0-0.1692-0.0177-0.2654-0.0553-0.2898
			c-0.0354-0.0243-0.0774-0.0376-0.1261-0.0376c-0.073,0-0.177,0.0498-0.3075,0.146c-0.1349,0.0973-0.3207,0.23-0.5619,0.3981
			c-0.4358,0.2898-0.9489,0.6227-1.5417,0.9976c-0.5906,0.3738-1.263,0.5619-2.0107,0.5619c-0.6768,0-1.2918-0.1526-1.8492-0.4535
			c-0.5552-0.3019-1.0374-0.7255-1.4488-1.2686c-0.4114-0.543-0.7299-1.19-0.96-1.9388s-0.3451-1.5594-0.3451-2.4287
			c0-1.3283,0.219-2.6035,0.6525-3.8234c0.4358-1.2199,1.044-2.3015,1.8315-3.2438c0.783-0.9423,1.7076-1.6899,2.7716-2.2462
			c1.0617-0.5563,2.223-0.8339,3.4794-0.8339c0.8206,0,1.4732,0.0852,1.9554,0.2533c0.4844,0.1703,0.7985,0.303,0.9423,0.3993
			c0.4114-2.1257,0.7322-3.799,0.9622-5.0201c0.2278-1.2188,0.4026-2.1367,0.5242-2.7539c0.1216-0.6149,0.1946-1.002,0.219-1.1591
			c0.0221-0.157,0.0354-0.2599,0.0354-0.3086c0-0.1692-0.1216-0.2533-0.3628-0.2533c-0.1216,0-0.3628,0.0122-0.7255,0.0354
			c-0.3605,0.0243-0.845,0.0619-1.4488,0.1095v-0.7244L434.687,236.606z M420.8069,256.9008c0,0.845,0.1084,1.5395,0.3274,2.0837
			c0.2168,0.543,0.4888,0.9843,0.814,1.3228c0.3274,0.3384,0.6636,0.5729,1.0153,0.7056c0.3495,0.1339,0.6702,0.1991,0.96,0.1991
			c0.5065,0,0.9843-0.1128,1.4311-0.3429c0.4468-0.23,0.8405-0.4778,1.179-0.7432l1.92-9.7857
			c0.1217-0.5552,0.1814-1.002,0.1814-1.3405c0-0.2898-0.1151-0.5375-0.3451-0.7432c-0.23-0.2046-0.6216-0.3075-1.1768-0.3075
			c-0.8228,0-1.6125,0.2721-2.3734,0.8151c-0.7609,0.543-1.4312,1.2509-2.0129,2.1202c-0.5795,0.8693-1.044,1.8359-1.3935,2.8999
			C420.9817,254.847,420.8069,255.8855,420.8069,256.9008z"/>
		<path fill="#231815" d="M444.2559,247.0786c1.2542,0,2.2872,0.2422,3.0967,0.7244c0.8096,0.4844,1.4444,1.0761,1.9045,1.7762
			c0.4579,0.7012,0.7786,1.4499,0.96,2.2473c0.1814,0.7963,0.2721,1.5218,0.2721,2.1744c0,0.991-0.1769,2.0295-0.5264,3.1166
			c-0.3495,1.0872-0.8759,2.0903-1.5771,3.0083c-0.7012,0.918-1.5638,1.6789-2.5902,2.2827
			c-1.0285,0.6039-2.2164,0.9069-3.5701,0.9069c-0.7963,0-1.5771-0.1637-2.338-0.49c-0.7609-0.3263-1.4378-0.7974-2.0284-1.4135
			c-0.5928-0.616-1.064-1.3648-1.4135-2.2462c-0.3517-0.8826-0.5265-1.8669-0.5265-2.9541c0-1.1602,0.1947-2.2838,0.5795-3.3699
			c0.3871-1.0883,0.9423-2.0604,1.6678-2.9176c0.7255-0.8582,1.5992-1.5462,2.6278-2.066
			C441.8206,247.3385,442.973,247.0786,444.2559,247.0786z M439.3985,257.843c0,1.4489,0.23,2.6035,0.6879,3.4595
			c0.4601,0.8582,1.0883,1.2874,1.8846,1.2874c0.6282,0,1.1834-0.1814,1.6678-0.5442c0.4822-0.3628,0.9113-0.8339,1.2874-1.4134
			c0.3738-0.5796,0.6924-1.2376,0.96-1.9753c0.2654-0.7366,0.4822-1.4854,0.6525-2.2462c0.1681-0.7609,0.2898-1.5042,0.3628-2.2286
			c0.0708-0.7255,0.1084-1.3537,0.1084-1.8846c0-1.4732-0.2234-2.5913-0.6702-3.3522c-0.449-0.762-1.0817-1.1425-1.9045-1.1425
			c-0.6503,0-1.2807,0.2898-1.8846,0.8704s-1.1414,1.3471-1.6125,2.3015c-0.4712,0.9545-0.845,2.0295-1.1237,3.2251
			C439.5378,255.3966,439.3985,256.6099,439.3985,257.843z"/>
		<path fill="#231815" d="M457.6626,247.0786c0.7985,0,1.3471,0.2112,1.6501,0.6337c0.3008,0.4236,0.4535,0.9733,0.4535,1.6501
			c0,0.1681-0.0133,0.3561-0.0376,0.5618c-0.0244,0.2057-0.0354,0.344-0.0354,0.4158c0,0.146,0.0597,0.2179,0.1814,0.2179
			c0.0951,0,0.3628-0.1759,0.7963-0.5253c0.4358-0.3495,0.96-0.7299,1.5771-1.1414c0.6172-0.4114,1.2741-0.7919,1.9753-1.1414
			c0.7012-0.3506,1.3648-0.5264,1.993-0.5264c0.845,0,1.4444,0.2477,1.7939,0.7432c0.3495,0.4955,0.5264,1.0573,0.5264,1.6855
			c0,0.3628-0.0442,0.7852-0.1283,1.2675c-0.084,0.4844-0.1615,0.8947-0.2345,1.2321c-0.146,0.7012-0.334,1.5417-0.5618,2.5194
			c-0.23,0.9788-0.4424,1.9211-0.6348,2.8269s-0.3628,1.6922-0.5065,2.3557c-0.146,0.6647-0.219,1.0452-0.219,1.1414
			c0,0.2168,0.0863,0.3263,0.2544,0.3263c0.1681,0,0.4955-0.1869,0.9777-0.5619c0.4844-0.3749,1.1967-0.96,2.139-1.7574
			l0.4711,0.4711c-0.4114,0.4347-0.8516,0.8638-1.3228,1.2863c-0.4711,0.4236-0.9423,0.804-1.4134,1.1425
			c-0.4712,0.3384-0.929,0.6105-1.3759,0.814c-0.449,0.2057-0.8649,0.3086-1.252,0.3086c-0.5552,0-1.0087-0.1758-1.3582-0.5253
			c-0.3517-0.3495-0.5265-0.7786-0.5265-1.2874c0-0.4092,0.0597-0.8383,0.1814-1.2852c0.1216-0.4468,0.2654-1.0573,0.4358-1.8315
			l1.1967-5.5078c0.0951-0.4357,0.1991-0.9246,0.3075-1.4676c0.1084-0.543,0.1637-0.9124,0.1637-1.1049
			c0-0.2411-0.073-0.4291-0.219-0.5618c-0.1438-0.1327-0.3252-0.1991-0.5441-0.1991c-0.2898,0-0.657,0.0774-1.1038,0.2345
			c-0.449,0.157-0.8892,0.3506-1.3228,0.5795c-0.4358,0.2301-0.8405,0.4667-1.2144,0.7078
			c-0.376,0.2411-0.6459,0.4468-0.8162,0.6149c-0.1438,0.146-0.2654,0.4236-0.3628,0.8339
			c-0.0951,0.4114-0.2411,1.0396-0.4335,1.8846l-1.8492,8.6255h-3.4418l2.2097-10.4017c0.0243-0.1681,0.073-0.3915,0.146-0.6702
			c0.0708-0.2765,0.1327-0.5552,0.1814-0.8339c0.0464-0.2765,0.0951-0.543,0.1438-0.7963c0.0486-0.2544,0.073-0.4402,0.073-0.5618
			c0-0.1681-0.0553-0.3019-0.1637-0.3981c-0.1084-0.0973-0.2345-0.146-0.3805-0.146c-0.2654,0-0.5862,0.115-0.96,0.3451
			c-0.376,0.23-0.9113,0.5862-1.6125,1.0684l-0.4358-0.6149c0.8206-0.7012,1.6258-1.3172,2.411-1.8492
			C456.2204,247.3451,456.9614,247.0786,457.6626,247.0786z"/>
		<path fill="#231815" d="M356.9719,271.0529c1.7873,0,3.3932,0.3008,4.8199,0.9047c1.4245,0.605,2.6389,1.4378,3.6409,2.5017
			c1.002,1.0628,1.7696,2.3369,2.3026,3.8223c0.5309,1.4865,0.7963,3.1122,0.7963,4.8752c0,1.8116-0.3141,3.5701-0.9423,5.2733
			c-0.6282,1.7032-1.5351,3.2184-2.7185,4.5478c-1.1834,1.3294-2.6322,2.3911-4.3487,3.1897
			c-1.7165,0.7963-3.6608,1.1956-5.8351,1.1956c-1.6899,0-3.2251-0.2909-4.6009-0.8704c-1.3781-0.5796-2.5615-1.3891-3.5524-2.4276
			c-0.991-1.0385-1.7585-2.2772-2.3004-3.715c-0.5442-1.4366-0.8162-3.0127-0.8162-4.7292c0-1.8846,0.3207-3.7084,0.96-5.4724
			c0.6393-1.7629,1.5528-3.3157,2.7362-4.6562c1.1834-1.3416,2.6101-2.4166,4.2757-3.2262
			C353.0568,271.4577,354.917,271.0529,356.9719,271.0529z M347.6198,286.4548c0,1.4732,0.1637,2.8324,0.4911,4.0767
			c0.3252,1.2453,0.783,2.3137,1.3758,3.2073c0.5928,0.8936,1.3228,1.5882,2.1921,2.0837c0.8715,0.4955,1.8492,0.7432,2.9375,0.7432
			c1.5218,0,2.8866-0.4468,4.0944-1.3405c1.2077-0.8936,2.2296-2.0417,3.0613-3.444c0.8339-1.4002,1.4688-2.9353,1.9045-4.602
			c0.4335-1.6667,0.6503-3.2859,0.6503-4.8564c0-1.2321-0.1438-2.4763-0.4335-3.7327c-0.2898-1.2553-0.7322-2.379-1.3228-3.3699
			c-0.5928-0.9909-1.3405-1.8005-2.2473-2.4287c-0.9069-0.6282-1.9886-0.9423-3.2427-0.9423c-1.2321,0-2.4221,0.3628-3.5701,1.0872
			c-1.148,0.7244-2.1566,1.7397-3.0259,3.0448c-0.8693,1.3051-1.5661,2.8512-2.0837,4.6385
			C347.8808,282.408,347.6198,284.3523,347.6198,286.4548z"/>
		<path fill="#231815" d="M383.6791,270.5441c0.8472,0,1.7762,0.1339,2.7915,0.3993l-0.8339,2.5736
			c-1.3537-0.4358-2.3978-0.7742-3.1344-1.0153c-0.7366-0.2411-1.2387-0.3628-1.5041-0.3628c-0.2654,0-0.4601,0.0851-0.5795,0.2544
			c-0.1217,0.1692-0.2411,0.5674-0.3628,1.1956c-0.0244,0.0719-0.0664,0.2665-0.1261,0.5807
			c-0.0619,0.3141-0.146,0.7908-0.2544,1.4311c-0.1084,0.6393-0.2411,1.4621-0.3982,2.4641s-0.3583,2.2407-0.5994,3.7139
			c0.2898-0.0475,0.6105-0.1084,0.9622-0.1814c0.3495-0.0719,0.741-0.1084,1.1768-0.1084c0.2654,0,0.5065,0.0133,0.7255,0.0365
			c0.2168,0.0243,0.3982,0.0608,0.5419,0.1095v1.3759c-0.1924-0.0476-0.4579-0.0841-0.7963-0.1084
			c-0.3384-0.0232-0.7366-0.0354-1.1967-0.0354c-0.4092,0-0.7233,0.0244-0.9423,0.0719c-0.2168,0.0486-0.3915,0.1449-0.5242,0.2909
			c-0.1327,0.1438-0.23,0.3429-0.2898,0.5972c-0.062,0.2544-0.1283,0.574-0.1991,0.96c-0.991,5.1959-1.7519,9.0967-2.285,11.7057
			c-0.5309,2.6101-0.9047,4.1187-1.1215,4.5301c-0.0487,0.073-0.1349,0.1814-0.2544,0.3274
			c-0.1217,0.1438-0.3274,0.3561-0.6172,0.6326c-0.2898,0.2787-0.6702,0.6227-1.1414,1.033
			c-0.4712,0.4114-1.0573,0.918-1.7563,1.5229l-0.4357-0.3628c0.146-0.3141,0.2898-0.6514,0.4357-1.0142
			c0.1438-0.3628,0.2942-0.8461,0.4513-1.45c0.157-0.605,0.3318-1.3836,0.5264-2.3369c0.1924-0.9556,0.4358-2.1931,0.7255-3.7161
			l2.2827-12.429l-3.1166,0.4712v-0.6525l3.371-1.0518c0.1438-1.0385,0.2898-1.9443,0.4335-2.7174
			c0.146-0.7742,0.3207-1.4732,0.5265-2.1025c0.2035-0.6282,0.4579-1.2199,0.7609-1.7751c0.3008-0.5563,0.6945-1.1358,1.1768-1.7408
			c0.5796-0.7477,1.1414-1.3272,1.6855-1.7386c0.5442-0.4114,1.0573-0.7189,1.5395-0.9246
			c0.4844-0.2046,0.9246-0.3318,1.3228-0.3805C383.0465,270.5685,383.3894,270.5441,383.6791,270.5441z"/>
		<path fill="#231815" d="M394.8783,270.5441c0.845,0,1.7762,0.1339,2.7893,0.3993l-0.8317,2.5736
			c-1.3537-0.4358-2.4-0.7742-3.1366-1.0153c-0.7366-0.2411-1.2365-0.3628-1.5042-0.3628c-0.2654,0-0.4579,0.0851-0.5795,0.2544
			c-0.1194,0.1692-0.2411,0.5674-0.3628,1.1956c-0.0243,0.0719-0.0663,0.2665-0.1261,0.5807
			c-0.0597,0.3141-0.1438,0.7908-0.2544,1.4311c-0.1084,0.6393-0.2411,1.4621-0.3981,2.4641s-0.3561,2.2407-0.5972,3.7139
			c0.2898-0.0475,0.6105-0.1084,0.96-0.1814c0.3495-0.0719,0.7432-0.1084,1.179-0.1084c0.2654,0,0.5066,0.0133,0.7233,0.0365
			c0.219,0.0243,0.3981,0.0608,0.5441,0.1095v1.3759c-0.1946-0.0476-0.4601-0.0841-0.7963-0.1084
			c-0.3406-0.0232-0.7388-0.0354-1.1967-0.0354c-0.4114,0-0.7255,0.0244-0.9423,0.0719c-0.2168,0.0486-0.3937,0.1449-0.5264,0.2909
			c-0.1327,0.1438-0.23,0.3429-0.2898,0.5972c-0.0597,0.2544-0.1261,0.574-0.1991,0.96c-0.991,5.1959-1.7519,9.0967-2.2827,11.7057
			c-0.5309,2.6101-0.9069,4.1187-1.1237,4.5301c-0.0487,0.073-0.1327,0.1814-0.2544,0.3274
			c-0.1194,0.1438-0.3252,0.3561-0.6149,0.6326c-0.2898,0.2787-0.6702,0.6227-1.1414,1.033
			c-0.4712,0.4114-1.0573,0.918-1.7585,1.5229l-0.4358-0.3628c0.146-0.3141,0.292-0.6514,0.4358-1.0142
			c0.146-0.3628,0.2964-0.8461,0.4535-1.45c0.157-0.605,0.3318-1.3836,0.5242-2.3369c0.1946-0.9556,0.4358-2.1931,0.7255-3.7161
			l2.2827-12.429l-3.1167,0.4712v-0.6525l3.371-1.0518c0.146-1.0385,0.2898-1.9443,0.4358-2.7174
			c0.1438-0.7742,0.3185-1.4732,0.5242-2.1025c0.2057-0.6282,0.4601-1.2199,0.7609-1.7751c0.303-0.5563,0.6945-1.1358,1.179-1.7408
			c0.5795-0.7477,1.1414-1.3272,1.6855-1.7386c0.5419-0.4114,1.0551-0.7189,1.5396-0.9246
			c0.4822-0.2046,0.9246-0.3318,1.3228-0.3805C394.2435,270.5685,394.5885,270.5441,394.8783,270.5441z"/>
		<path fill="#231815" d="M399.0434,281.0543c0.4358,0,0.8029,0.1449,1.106,0.4346s0.4535,0.7134,0.4535,1.2697
			c0,0.386-0.0973,0.9909-0.2898,1.8116l-2.2827,10.0025c-0.0244,0.0962-0.0443,0.1814-0.0553,0.2533
			c-0.0133,0.0719-0.0177,0.1449-0.0177,0.2179c0,0.1935,0.073,0.2898,0.2168,0.2898c0.073,0,0.2057-0.0663,0.3982-0.1991
			c0.1946-0.1327,0.4358-0.3086,0.7255-0.5265c0.2898-0.2168,0.6039-0.4579,0.9423-0.7244
			c0.3384-0.2654,0.6768-0.5187,1.0153-0.7609l0.4335,0.543c-0.7477,0.6525-1.4002,1.2033-1.9554,1.6501
			c-0.5574,0.4468-1.0507,0.8029-1.4864,1.0684s-0.8228,0.459-1.1591,0.5795c-0.3384,0.1217-0.6526,0.1814-0.9423,0.1814
			c-0.4844,0-0.8715-0.1692-1.1613-0.5066c-0.2898-0.3384-0.4336-0.7852-0.4336-1.3416c0-0.313,0.0487-0.7122,0.1438-1.1956
			c0.0973-0.4833,0.1814-0.8693,0.2544-1.1602l1.6678-7.2475c0.1438-0.6282,0.2588-1.1237,0.3429-1.4865
			c0.084-0.3628,0.1283-0.616,0.1283-0.7609c0-0.1681-0.0974-0.2544-0.2898-0.2544c-0.2676,0-1.1856,0.605-2.7561,1.8127
			l-0.4711-0.5431c1.2564-1.1115,2.327-1.9576,3.2073-2.5371C397.6609,281.3452,398.4152,281.0543,399.0434,281.0543z
			 M400.4569,274.0236c0.1703,0,0.3561,0.0365,0.5618,0.1084c0.2057,0.073,0.4004,0.188,0.5795,0.3451
			c0.1814,0.157,0.3384,0.3506,0.4712,0.5795c0.1327,0.23,0.2013,0.5021,0.2013,0.8162c0,0.4103-0.1217,0.7852-0.3628,1.1226
			c-0.2433,0.3395-0.5442,0.6293-0.9069,0.8704c-0.3628,0.2411-0.7675,0.4225-1.2144,0.5431
			c-0.4468,0.1205-0.8627,0.1814-1.2498,0.1814c-0.1946,0-0.3207-0.0663-0.3805-0.1991s-0.0907-0.3683-0.0907-0.7067
			c0-0.459,0.0354-0.9069,0.1084-1.3405c0.073-0.4358,0.1991-0.8217,0.3805-1.1602c0.1814-0.3384,0.4291-0.6161,0.7432-0.8339
			C399.6119,274.132,399.999,274.0236,400.4569,274.0236z"/>
		<path fill="#231815" d="M413.0341,281.0543c0.772,0,1.4489,0.1028,2.0284,0.3086s1.0639,0.4778,1.451,0.8151
			c0.3849,0.3384,0.6746,0.7134,0.8693,1.1237c0.1924,0.4103,0.2898,0.8096,0.2898,1.1956c0,0.1947-0.0376,0.4291-0.1084,0.7067
			c-0.073,0.2776-0.2057,0.5386-0.4004,0.7797c-0.1924,0.2411-0.4645,0.4468-0.814,0.6149
			c-0.3517,0.1703-0.8162,0.2544-1.3958,0.2544c-0.4114,0-0.6768-0.042-0.7963-0.1261c-0.1217-0.0852-0.1814-0.2002-0.1814-0.3451
			c0-0.1449,0.0531-0.3804,0.1615-0.7067c0.1106-0.3263,0.2234-0.6702,0.3451-1.0319c0.1216-0.3628,0.2367-0.7078,0.3451-1.033
			c0.1084-0.3274,0.1615-0.5508,0.1615-0.6713c0-0.4103-0.1615-0.7067-0.4889-0.8881c-0.3251-0.1814-0.6702-0.2721-1.033-0.2721
			c-0.7476,0-1.4798,0.2898-2.192,0.8704c-0.7122,0.5806-1.3471,1.3106-1.9023,2.1931c-0.5574,0.8815-1.002,1.8536-1.3405,2.9176
			c-0.3384,1.0629-0.5087,2.0771-0.5087,3.0437c0,0.5795,0.0663,1.1303,0.1991,1.649c0.1327,0.5198,0.3318,0.9788,0.5994,1.377
			c0.2654,0.3982,0.6083,0.7122,1.033,0.9423c0.4225,0.23,0.9113,0.344,1.4666,0.344c0.8449,0,1.6921-0.2289,2.5371-0.689
			c0.845-0.4579,1.7275-1.2675,2.6455-2.4276l0.5441,0.4347c-0.3384,0.4844-0.7366,1.0098-1.1967,1.5771
			c-0.4579,0.5685-0.9843,1.0927-1.5749,1.576c-0.5928,0.4833-1.252,0.8881-1.9753,1.2144
			c-0.7255,0.3263-1.524,0.4899-2.3933,0.4899c-0.6039,0-1.2254-0.115-1.8669-0.3451c-0.6393-0.23-1.2188-0.5862-1.7386-1.0684
			c-0.5198-0.4844-0.9423-1.1182-1.2675-1.9034c-0.3274-0.7841-0.4911-1.7452-0.4911-2.8811c0-1.3526,0.2367-2.6389,0.7078-3.8599
			c0.4712-1.2188,1.117-2.2894,1.9377-3.2073c0.8228-0.918,1.7762-1.6424,2.8645-2.1744
			C410.6407,281.3208,411.802,281.0543,413.0341,281.0543z"/>
		<path fill="#231815" d="M425.4631,281.0543c0.4358,0,0.8029,0.1449,1.106,0.4346c0.3008,0.2898,0.4512,0.7134,0.4512,1.2697
			c0,0.386-0.0951,0.9909-0.2898,1.8116l-2.2827,10.0025c-0.0243,0.0962-0.042,0.1814-0.0531,0.2533
			c-0.0133,0.0719-0.0199,0.1449-0.0199,0.2179c0,0.1935,0.073,0.2898,0.219,0.2898c0.0708,0,0.2035-0.0663,0.3981-0.1991
			c0.1924-0.1327,0.4358-0.3086,0.7255-0.5265c0.2898-0.2168,0.6017-0.4579,0.9423-0.7244
			c0.3362-0.2654,0.6747-0.5187,1.0131-0.7609l0.4358,0.543c-0.7498,0.6525-1.4024,1.2033-1.9576,1.6501
			c-0.5552,0.4468-1.0507,0.8029-1.4865,1.0684c-0.4335,0.2654-0.8206,0.459-1.1591,0.5795
			c-0.3384,0.1217-0.6525,0.1814-0.9423,0.1814c-0.4822,0-0.8693-0.1692-1.1591-0.5066c-0.2898-0.3384-0.4358-0.7852-0.4358-1.3416
			c0-0.313,0.0487-0.7122,0.146-1.1956c0.0951-0.4833,0.1814-0.8693,0.2544-1.1602l1.6656-7.2475
			c0.146-0.6282,0.2588-1.1237,0.3451-1.4865c0.0841-0.3628,0.1261-0.616,0.1261-0.7609c0-0.1681-0.0973-0.2544-0.2898-0.2544
			c-0.2654,0-1.1834,0.605-2.7539,1.8127l-0.4711-0.5431c1.2564-1.1115,2.3248-1.9576,3.2073-2.5371
			C424.0784,281.3452,424.8349,281.0543,425.4631,281.0543z M426.8766,274.0236c0.1681,0,0.3561,0.0365,0.5618,0.1084
			c0.2035,0.073,0.3982,0.188,0.5795,0.3451c0.1814,0.157,0.3384,0.3506,0.4712,0.5795c0.1327,0.23,0.1991,0.5021,0.1991,0.8162
			c0,0.4103-0.1216,0.7852-0.3628,1.1226c-0.2411,0.3395-0.5441,0.6293-0.9047,0.8704c-0.3628,0.2411-0.7675,0.4225-1.2144,0.5431
			c-0.4468,0.1205-0.8649,0.1814-1.2498,0.1814c-0.1947,0-0.3207-0.0663-0.3827-0.1991c-0.0597-0.1327-0.0885-0.3683-0.0885-0.7067
			c0-0.459,0.0354-0.9069,0.1084-1.3405c0.0708-0.4358,0.1991-0.8217,0.3805-1.1602c0.1814-0.3384,0.4291-0.6161,0.7432-0.8339
			C426.0294,274.132,426.4165,274.0236,426.8766,274.0236z"/>
		<path fill="#231815" d="M442.4952,293.7388c-0.1217,0.4844-0.1946,0.8096-0.2168,0.9788
			c-0.0244,0.1692-0.0376,0.2776-0.0376,0.3263c0,0.2168,0.073,0.3252,0.219,0.3252c0.1194,0,0.4159-0.1681,0.887-0.5065
			c0.4712-0.3384,1.1171-0.7852,1.9377-1.3405l0.4358,0.543c-1.3758,1.1602-2.4575,1.9875-3.2427,2.4829
			c-0.7852,0.4944-1.5041,0.7432-2.1566,0.7432c-0.991,0-1.4865-0.4601-1.4865-1.3781c0-0.1205,0.0066-0.2356,0.0177-0.3439
			c0.0133-0.1095,0.0199-0.2234,0.0199-0.344c0-0.0973-0.0486-0.146-0.146-0.146c-0.073,0-0.2721,0.115-0.5972,0.3451
			c-0.3274,0.23-0.7144,0.4833-1.1613,0.7609c-0.4468,0.2787-0.929,0.5309-1.4489,0.7609s-1.0086,0.3451-1.4688,0.3451
			c-0.5309,0-1.0263-0.1283-1.4842-0.3816c-0.4601-0.2533-0.8649-0.5983-1.2144-1.0319c-0.3517-0.4358-0.6282-0.9556-0.8339-1.5594
			c-0.2057-0.6039-0.3075-1.2675-0.3075-1.993c0-0.9423,0.1991-1.9996,0.5972-3.1708c0.3982-1.1712,1.0573-2.2838,1.9753-3.3345
			c0.918-1.0507,2.1147-1.9576,3.5878-2.7185c1.4731-0.7609,3.2848-1.2011,5.437-1.3228c0.0708-0.2898,0.1615-0.5242,0.2721-0.7056
			c0.1084-0.1814,0.2898-0.3207,0.5419-0.417c0.2544-0.0962,0.6105-0.1626,1.0706-0.2002c0.4579-0.0354,1.0861-0.0531,1.8846-0.0531
			L442.4952,293.7388z M433.9062,292.2169c0,1.9333,0.7255,2.8988,2.1743,2.8988c0.4358,0,0.9113-0.084,1.4312-0.2533
			c0.5198-0.1681,0.9246-0.3628,1.2144-0.5795c0.1217-0.0974,0.2477-0.3749,0.3805-0.8339s0.2477-0.9069,0.3451-1.3405
			c0.1438-0.7255,0.3318-1.5594,0.5619-2.5017c0.2278-0.9423,0.4468-1.8536,0.6525-2.7362
			c0.2035-0.8804,0.3805-1.6601,0.5242-2.3369c0.146-0.6758,0.2168-1.1115,0.2168-1.304c0-0.1703-0.0487-0.3207-0.1438-0.4535
			c-0.0973-0.1327-0.3384-0.1991-0.7255-0.1991c-0.845,0-1.6656,0.2964-2.4641,0.887c-0.7963,0.5928-1.5041,1.3537-2.119,2.2827
			c-0.6171,0.9312-1.1126,1.9709-1.4865,3.1167C434.092,290.0116,433.9062,291.1287,433.9062,292.2169z"/>
		<path fill="#231815" d="M457.0278,270.5818c-0.9202,4.2027-1.6855,7.8038-2.3027,10.7988
			c-0.6149,2.9961-1.117,5.4669-1.5041,7.4112c-0.3849,1.9454-0.6636,3.4009-0.8317,4.3675
			c-0.1703,0.9666-0.2544,1.4975-0.2544,1.5948c0,0.1924,0.073,0.2898,0.2168,0.2898c0.1924,0,0.5618-0.2179,1.106-0.6525
			c0.5441-0.4358,1.2741-1.0263,2.192-1.7762l0.4358,0.5442c-1.4997,1.4256-2.6765,2.4221-3.5347,2.9895
			c-0.8582,0.5674-1.5528,0.8516-2.0836,0.8516c-0.4822,0-0.8936-0.1758-1.2321-0.5253c-0.3384-0.3495-0.5065-0.8759-0.5065-1.5771
			c0-0.4579,0.0774-1.0805,0.2345-1.8658c0.157-0.7841,0.3318-1.6125,0.5265-2.4829l3.5878-17.5763
			c0.0486-0.2411,0.073-0.4103,0.073-0.5076c0-0.1692-0.0974-0.2533-0.2898-0.2533l-2.285,0.2168v-0.7963L457.0278,270.5818z"/>
	</g>
	<g>
		<path fill="#F7F3C2" d="M339.7739,237.5107c1.0396,0,1.9996,0.0619,2.8822,0.1814c0.8826,0.1217,1.6612,0.3871,2.338,0.7974
			c0.6282,0.3628,1.2011,0.9368,1.7209,1.722s0.7786,1.7342,0.7786,2.8446c0,1.2564-0.3738,2.3978-1.1237,3.4241
			c-0.7477,1.0286-1.9333,1.9521-3.5502,2.7738c1.6169,0.5065,2.8313,1.2675,3.6409,2.2827
			c0.8096,1.0142,1.2144,2.2097,1.2144,3.5878c0,0.7963-0.1637,1.6435-0.4888,2.5371c-0.3274,0.8936-0.887,1.7209-1.6855,2.4818
			c-0.7963,0.7609-1.8603,1.3958-3.1897,1.9023c-1.3294,0.5077-2.995,0.7609-5.0013,0.7609c-0.3384,0-0.7609-0.0055-1.2674-0.0177
			c-0.5088-0.0122-1.064-0.0177-1.6678-0.0177c-0.6039,0-1.2387-0.0066-1.9023-0.0177c-0.6658-0.0132-1.3228-0.0188-1.9753-0.0188
			c-0.6039,0-1.1657,0.0056-1.6855,0.0188c-0.5198,0.0111-0.9356,0.0288-1.2498,0.0531v-0.7963l2.2097-0.146
			c0.1947-1.3759,0.4291-3.0735,0.7078-5.0919c0.2765-2.0162,0.5552-4.1187,0.8339-6.3052
			c0.2765-2.1865,0.5419-4.3244,0.7963-6.4147c0.2544-2.0892,0.4535-3.8964,0.5995-5.4182l-2.6831-0.073v-0.8328h2.9729
			c0.3119,0,0.6393-0.0122,0.9777-0.0365c0.3384-0.0232,0.7609-0.0476,1.2675-0.0719c0.5087-0.0232,1.1237-0.0475,1.8492-0.073
			C337.8185,237.524,338.7122,237.5107,339.7739,237.5107z M335.5336,250.2317c-0.2898,2.2473-0.5132,4.0236-0.6702,5.3275
			c-0.157,1.304-0.2765,2.3082-0.3606,3.0072c-0.0862,0.7012-0.1393,1.1911-0.1637,1.4688
			c-0.0244,0.2776-0.0376,0.5132-0.0376,0.7067c0,0.4103,0.157,0.7134,0.4711,0.9058c0.3141,0.1935,0.9312,0.2898,1.8492,0.2898
			c1.2564,0,2.3203-0.2112,3.1896-0.6348c0.8693-0.4225,1.5749-0.96,2.119-1.6125c0.5442-0.6525,0.9357-1.3581,1.179-2.119
			c0.2411-0.7609,0.3628-1.4798,0.3628-2.1567c0-1.6678-0.6304-2.9474-1.8846-3.8422c-1.2564-0.8936-3.1653-1.3404-5.7268-1.3404
			H335.5336z M335.6442,249.3624c0.6282,0,1.1701-0.0066,1.6302-0.0188c0.4579-0.0122,0.8759-0.0409,1.2498-0.0896
			c0.3738-0.0487,0.7189-0.1217,1.033-0.219c0.3141-0.0951,0.6525-0.2411,1.0153-0.4335c0.8206-0.4114,1.5528-1.0452,2.192-1.9034
			c0.6393-0.8571,0.96-1.9144,0.96-3.1709c0-0.7012-0.1084-1.3648-0.3252-1.993c-0.219-0.6282-0.5441-1.1779-0.9799-1.649
			c-0.4336-0.4711-0.991-0.8394-1.6656-1.1049c-0.6768-0.2665-1.4754-0.3993-2.3933-0.3993c-0.4335,0-0.741,0.0243-0.9224,0.0719
			c-0.1814,0.0487-0.2964,0.1947-0.3451,0.4358c-0.0486,0.1935-0.1991,1.1292-0.4534,2.8081
			C336.3852,243.3768,336.0534,245.9316,335.6442,249.3624z"/>
		<path fill="#F7F3C2" d="M360.0687,247.0786c1.2564,0,2.2894,0.2422,3.099,0.7244c0.8096,0.4844,1.4422,1.0761,1.9023,1.7762
			c0.4579,0.7012,0.7786,1.4499,0.96,2.2473c0.1814,0.7963,0.2721,1.5218,0.2721,2.1744c0,0.991-0.1747,2.0295-0.5242,3.1166
			c-0.3517,1.0872-0.8781,2.0903-1.5771,3.0083c-0.7012,0.918-1.5661,1.6789-2.5924,2.2827
			c-1.0263,0.6039-2.2164,0.9069-3.5679,0.9069c-0.7985,0-1.5771-0.1637-2.338-0.49c-0.7609-0.3263-1.4378-0.7974-2.0306-1.4135
			c-0.5928-0.616-1.064-1.3648-1.4135-2.2462c-0.3495-0.8826-0.5242-1.8669-0.5242-2.9541c0-1.1602,0.1924-2.2838,0.5795-3.3699
			c0.3849-1.0883,0.9423-2.0604,1.6678-2.9176c0.7233-0.8582,1.5992-1.5462,2.6256-2.066
			C357.6333,247.3385,358.7879,247.0786,360.0687,247.0786z M355.2134,257.843c0,1.4489,0.2278,2.6035,0.6879,3.4595
			c0.4579,0.8582,1.0861,1.2874,1.8846,1.2874c0.6282,0,1.1834-0.1814,1.6656-0.5442c0.4844-0.3628,0.9135-0.8339,1.2874-1.4134
			c0.3738-0.5796,0.6945-1.2376,0.96-1.9753c0.2654-0.7366,0.4844-1.4854,0.6525-2.2462c0.1703-0.7609,0.2898-1.5042,0.3628-2.2286
			c0.073-0.7255,0.1084-1.3537,0.1084-1.8846c0-1.4732-0.2234-2.5913-0.6702-3.3522c-0.4468-0.762-1.0817-1.1425-1.9023-1.1425
			c-0.6525,0-1.2807,0.2898-1.8846,0.8704c-0.6039,0.5806-1.1414,1.3471-1.6125,2.3015c-0.4711,0.9545-0.8472,2.0295-1.1237,3.2251
			C355.3506,255.3966,355.2134,256.6099,355.2134,257.843z"/>
		<path fill="#F7F3C2" d="M375.8333,247.0786c0.6769,0,1.2741,0.1029,1.7939,0.3086c0.5198,0.2057,0.9556,0.4645,1.3051,0.7786
			s0.6171,0.6592,0.7985,1.033c0.1814,0.3749,0.2721,0.731,0.2721,1.0695c0,0.5563-0.1703,1.0385-0.5088,1.4499
			c-0.3384,0.4103-0.7122,0.6149-1.1237,0.6149c-0.2411,0-0.4778-0.1139-0.7056-0.3429c-0.23-0.23-0.3451-0.5862-0.3451-1.0706
			c0-0.0951,0.0066-0.1924,0.0177-0.2898c0.0133-0.0951,0.0376-0.2289,0.073-0.3981c0.0354-0.1681,0.0973-0.3805,0.1814-0.6348
			c0.084-0.2533,0.1991-0.5851,0.3451-0.9954c-0.2676-0.2179-0.5862-0.4048-0.9622-0.5618
			c-0.3738-0.157-0.7654-0.2367-1.1768-0.2367c-0.4358,0-0.8162,0.0796-1.1414,0.2367c-0.3274,0.1571-0.6105,0.3628-0.8516,0.6149
			c-0.2411,0.2544-0.4225,0.5386-0.5442,0.8516c-0.1216,0.3152-0.1814,0.6293-0.1814,0.9423c0,0.3395,0.0486,0.6293,0.146,0.8704
			c0.0951,0.2422,0.2477,0.4711,0.4534,0.689c0.2035,0.2168,0.4712,0.4402,0.7963,0.6702c0.3251,0.23,0.7189,0.5021,1.1768,0.8151
			c0.8936,0.605,1.6744,1.2818,2.338,2.0295c0.6658,0.7498,0.9976,1.68,0.9976,2.7915c0,0.6514-0.1327,1.2807-0.3982,1.8835
			c-0.2676,0.605-0.6414,1.1358-1.1237,1.5948c-0.4844,0.459-1.0573,0.8284-1.7231,1.1049
			c-0.6636,0.2787-1.4068,0.4181-2.2274,0.4181c-1.3781,0-2.5017-0.303-3.371-0.9069c-0.8693-0.6039-1.3051-1.4488-1.3051-2.5371
			c0-0.7963,0.219-1.3947,0.6525-1.7939c0.4358-0.3981,0.845-0.5972,1.2321-0.5972c0.2898,0,0.5309,0.1029,0.7255,0.3075
			c0.1924,0.2057,0.2898,0.5021,0.2898,0.8881c0,0.4833-0.303,1.4013-0.9069,2.755c0.3384,0.3384,0.7012,0.6149,1.0883,0.8328
			c0.3849,0.2179,0.856,0.3263,1.4135,0.3263c0.4579,0,0.856-0.0907,1.1967-0.2721c0.3362-0.1814,0.6216-0.4159,0.8516-0.7067
			c0.2278-0.2898,0.4026-0.6094,0.5242-0.96c0.1217-0.3506,0.1814-0.6945,0.1814-1.033c0-0.3617-0.0487-0.6758-0.1438-0.9423
			c-0.0973-0.2654-0.2676-0.532-0.5087-0.7974c-0.2411-0.2654-0.5619-0.5486-0.96-0.8516
			c-0.3982-0.3019-0.9003-0.6824-1.5042-1.1414c-0.3384-0.2411-0.6658-0.4955-0.9777-0.7609
			c-0.3141-0.2654-0.5928-0.5552-0.8339-0.8693c-0.2411-0.3141-0.4291-0.6713-0.5619-1.0706
			c-0.1327-0.3981-0.1991-0.8516-0.1991-1.3581c0-0.6769,0.1371-1.3051,0.4159-1.8846c0.2787-0.5795,0.6591-1.0816,1.1414-1.5041
			c0.4844-0.4225,1.0573-0.7543,1.7231-0.9965C374.3425,247.2002,375.0613,247.0786,375.8333,247.0786z"/>
		<path fill="#F7F3C2" d="M391.7794,247.0786c0.7742,0,1.451,0.1029,2.0306,0.3086c0.5795,0.2057,1.0617,0.4778,1.4488,0.8151
			c0.3871,0.3384,0.6769,0.7134,0.8693,1.1237c0.1946,0.4103,0.2898,0.8096,0.2898,1.1956c0,0.1947-0.0354,0.4291-0.1084,0.7067
			c-0.073,0.2776-0.2057,0.5386-0.3982,0.7797c-0.1946,0.2411-0.4645,0.4468-0.8162,0.6149
			c-0.3495,0.1703-0.814,0.2544-1.3936,0.2544c-0.4114,0-0.6768-0.042-0.7985-0.1261c-0.1216-0.0852-0.1814-0.2002-0.1814-0.3451
			c0-0.1449,0.0553-0.3804,0.1637-0.7067c0.1084-0.3263,0.2234-0.6702,0.3451-1.0319c0.1194-0.3628,0.2345-0.7078,0.3428-1.033
			c0.1084-0.3274,0.1637-0.5508,0.1637-0.6713c0-0.4103-0.1637-0.7067-0.4888-0.8881c-0.3274-0.1814-0.6702-0.2721-1.033-0.2721
			c-0.7499,0-1.4798,0.2898-2.1921,0.8704c-0.7144,0.5806-1.3471,1.3106-1.9045,2.1932c-0.5552,0.8815-1.002,1.8536-1.3405,2.9176
			c-0.3384,1.0629-0.5065,2.077-0.5065,3.0437c0,0.5796,0.0663,1.1303,0.1991,1.649c0.1327,0.5198,0.3318,0.9788,0.5972,1.377
			s0.6105,0.7122,1.033,0.9423s0.9113,0.344,1.4688,0.344c0.845,0,1.6899-0.2289,2.5371-0.689
			c0.845-0.4579,1.7253-1.2675,2.6455-2.4276l0.5419,0.4346c-0.3384,0.4844-0.7366,1.0098-1.1945,1.5771
			c-0.4601,0.5685-0.9843,1.0927-1.5771,1.576c-0.5928,0.4833-1.2498,0.8881-1.9753,1.2144s-1.5219,0.49-2.3911,0.49
			c-0.6039,0-1.2276-0.115-1.8669-0.3451c-0.6415-0.23-1.221-0.5862-1.7386-1.0684c-0.5198-0.4844-0.9423-1.1181-1.2697-1.9034
			c-0.3252-0.7841-0.4889-1.7452-0.4889-2.8811c0-1.3526,0.2345-2.6389,0.7056-3.8599c0.4711-1.2188,1.1193-2.2894,1.9399-3.2073
			c0.8206-0.918,1.7762-1.6424,2.8623-2.1744C389.3882,247.3451,390.5473,247.0786,391.7794,247.0786z"/>
		<path fill="#F7F3C2" d="M407.763,247.0786c1.2542,0,2.2871,0.2422,3.0967,0.7244c0.8096,0.4844,1.4444,1.0761,1.9045,1.7762
			c0.4579,0.7012,0.7786,1.4499,0.96,2.2473c0.1814,0.7963,0.2721,1.5218,0.2721,2.1744c0,0.991-0.177,2.0295-0.5265,3.1166
			c-0.3495,1.0872-0.8759,2.0903-1.5771,3.0083c-0.7012,0.918-1.5639,1.6789-2.5902,2.2827
			c-1.0286,0.6039-2.2164,0.9069-3.5701,0.9069c-0.7963,0-1.5771-0.1637-2.338-0.49c-0.7609-0.3263-1.4378-0.7974-2.0284-1.4135
			c-0.5928-0.616-1.064-1.3648-1.4135-2.2462c-0.3517-0.8826-0.5264-1.8669-0.5264-2.9541c0-1.1602,0.1946-2.2838,0.5795-3.3699
			c0.3871-1.0883,0.9423-2.0604,1.6678-2.9176c0.7255-0.8582,1.5992-1.5462,2.6278-2.066
			C405.3276,247.3385,406.48,247.0786,407.763,247.0786z M402.9055,257.843c0,1.4489,0.23,2.6035,0.6879,3.4595
			c0.4601,0.8582,1.0883,1.2874,1.8846,1.2874c0.6282,0,1.1834-0.1814,1.6678-0.5442c0.4822-0.3628,0.9113-0.8339,1.2874-1.4134
			c0.3738-0.5796,0.6924-1.2376,0.96-1.9753c0.2654-0.7366,0.4822-1.4854,0.6526-2.2462c0.1681-0.7609,0.2898-1.5042,0.3627-2.2286
			c0.0708-0.7255,0.1084-1.3537,0.1084-1.8846c0-1.4732-0.2234-2.5913-0.6702-3.3522c-0.449-0.762-1.0816-1.1425-1.9045-1.1425
			c-0.6503,0-1.2807,0.2898-1.8846,0.8704c-0.6039,0.5806-1.1414,1.3471-1.6125,2.3015c-0.4711,0.9545-0.845,2.0295-1.1237,3.2251
			C403.0449,255.3966,402.9055,256.6099,402.9055,257.843z"/>
		<path fill="#F7F3C2" d="M434.687,236.606l-4.7115,23.4114c-0.0243,0.0719-0.0486,0.2112-0.073,0.4158
			c-0.0243,0.2057-0.0354,0.3805-0.0354,0.5265c0,0.2411,0.073,0.3617,0.2168,0.3617c0.1216,0,0.3097-0.0719,0.5618-0.2179
			c0.2544-0.1438,0.5375-0.3252,0.8516-0.543c0.3141-0.2179,0.6525-0.4712,1.0153-0.7609c0.3628-0.2909,0.7255-0.5806,1.0883-0.8704
			l0.4711,0.5441c-0.5088,0.4833-1.033,0.9545-1.5771,1.4135c-0.5442,0.459-1.0817,0.8693-1.6125,1.2321
			c-0.5331,0.3628-1.0507,0.6525-1.5594,0.8693c-0.5065,0.2179-0.9909,0.3274-1.4488,0.3274c-0.4844,0-0.8273-0.1394-1.033-0.4181
			c-0.2057-0.2765-0.3075-0.6216-0.3075-1.033v-0.3252c0-0.1692-0.0177-0.2654-0.0553-0.2898
			c-0.0354-0.0243-0.0774-0.0376-0.1261-0.0376c-0.073,0-0.177,0.0498-0.3075,0.146c-0.1349,0.0973-0.3207,0.23-0.5619,0.3981
			c-0.4358,0.2898-0.9489,0.6227-1.5417,0.9976c-0.5906,0.3738-1.263,0.5619-2.0107,0.5619c-0.6768,0-1.2918-0.1526-1.8492-0.4535
			c-0.5552-0.3019-1.0374-0.7255-1.4488-1.2686c-0.4114-0.543-0.7299-1.19-0.96-1.9388s-0.3451-1.5594-0.3451-2.4287
			c0-1.3283,0.219-2.6035,0.6525-3.8234c0.4358-1.2199,1.044-2.3015,1.8315-3.2438c0.783-0.9423,1.7076-1.6899,2.7716-2.2462
			c1.0617-0.5563,2.223-0.8339,3.4794-0.8339c0.8206,0,1.4732,0.0852,1.9554,0.2533c0.4844,0.1703,0.7985,0.303,0.9423,0.3993
			c0.4114-2.1257,0.7322-3.799,0.9622-5.0201c0.2278-1.2188,0.4026-2.1367,0.5242-2.7539c0.1216-0.6149,0.1946-1.002,0.219-1.1591
			c0.0221-0.157,0.0354-0.2599,0.0354-0.3086c0-0.1692-0.1216-0.2533-0.3628-0.2533c-0.1216,0-0.3628,0.0122-0.7255,0.0354
			c-0.3605,0.0243-0.845,0.0619-1.4488,0.1095v-0.7244L434.687,236.606z M420.8069,256.9008c0,0.845,0.1084,1.5395,0.3274,2.0837
			c0.2168,0.543,0.4888,0.9843,0.814,1.3228c0.3274,0.3384,0.6636,0.5729,1.0153,0.7056c0.3495,0.1339,0.6702,0.1991,0.96,0.1991
			c0.5065,0,0.9843-0.1128,1.4311-0.3429c0.4468-0.23,0.8405-0.4778,1.179-0.7432l1.92-9.7857
			c0.1217-0.5552,0.1814-1.002,0.1814-1.3405c0-0.2898-0.1151-0.5375-0.3451-0.7432c-0.23-0.2046-0.6216-0.3075-1.1768-0.3075
			c-0.8228,0-1.6125,0.2721-2.3734,0.8151c-0.7609,0.543-1.4312,1.2509-2.0129,2.1202c-0.5795,0.8693-1.044,1.8359-1.3935,2.8999
			C420.9817,254.847,420.8069,255.8855,420.8069,256.9008z"/>
		<path fill="#F7F3C2" d="M444.2559,247.0786c1.2542,0,2.2872,0.2422,3.0967,0.7244c0.8096,0.4844,1.4444,1.0761,1.9045,1.7762
			c0.4579,0.7012,0.7786,1.4499,0.96,2.2473c0.1814,0.7963,0.2721,1.5218,0.2721,2.1744c0,0.991-0.1769,2.0295-0.5264,3.1166
			c-0.3495,1.0872-0.8759,2.0903-1.5771,3.0083c-0.7012,0.918-1.5638,1.6789-2.5902,2.2827
			c-1.0285,0.6039-2.2164,0.9069-3.5701,0.9069c-0.7963,0-1.5771-0.1637-2.338-0.49c-0.7609-0.3263-1.4378-0.7974-2.0284-1.4135
			c-0.5928-0.616-1.064-1.3648-1.4135-2.2462c-0.3517-0.8826-0.5265-1.8669-0.5265-2.9541c0-1.1602,0.1947-2.2838,0.5795-3.3699
			c0.3871-1.0883,0.9423-2.0604,1.6678-2.9176c0.7255-0.8582,1.5992-1.5462,2.6278-2.066
			C441.8206,247.3385,442.973,247.0786,444.2559,247.0786z M439.3985,257.843c0,1.4489,0.23,2.6035,0.6879,3.4595
			c0.4601,0.8582,1.0883,1.2874,1.8846,1.2874c0.6282,0,1.1834-0.1814,1.6678-0.5442c0.4822-0.3628,0.9113-0.8339,1.2874-1.4134
			c0.3738-0.5796,0.6924-1.2376,0.96-1.9753c0.2654-0.7366,0.4822-1.4854,0.6525-2.2462c0.1681-0.7609,0.2898-1.5042,0.3628-2.2286
			c0.0708-0.7255,0.1084-1.3537,0.1084-1.8846c0-1.4732-0.2234-2.5913-0.6702-3.3522c-0.449-0.762-1.0817-1.1425-1.9045-1.1425
			c-0.6503,0-1.2807,0.2898-1.8846,0.8704s-1.1414,1.3471-1.6125,2.3015c-0.4712,0.9545-0.845,2.0295-1.1237,3.2251
			C439.5378,255.3966,439.3985,256.6099,439.3985,257.843z"/>
		<path fill="#F7F3C2" d="M457.6626,247.0786c0.7985,0,1.3471,0.2112,1.6501,0.6337c0.3008,0.4236,0.4535,0.9733,0.4535,1.6501
			c0,0.1681-0.0133,0.3561-0.0376,0.5618c-0.0244,0.2057-0.0354,0.344-0.0354,0.4158c0,0.146,0.0597,0.2179,0.1814,0.2179
			c0.0951,0,0.3628-0.1759,0.7963-0.5253c0.4358-0.3495,0.96-0.7299,1.5771-1.1414c0.6172-0.4114,1.2741-0.7919,1.9753-1.1414
			c0.7012-0.3506,1.3648-0.5264,1.993-0.5264c0.845,0,1.4444,0.2477,1.7939,0.7432c0.3495,0.4955,0.5264,1.0573,0.5264,1.6855
			c0,0.3628-0.0442,0.7852-0.1283,1.2675c-0.084,0.4844-0.1615,0.8947-0.2345,1.2321c-0.146,0.7012-0.334,1.5417-0.5618,2.5194
			c-0.23,0.9788-0.4424,1.9211-0.6348,2.8269s-0.3628,1.6922-0.5065,2.3557c-0.146,0.6647-0.219,1.0452-0.219,1.1414
			c0,0.2168,0.0863,0.3263,0.2544,0.3263c0.1681,0,0.4955-0.1869,0.9777-0.5619c0.4844-0.3749,1.1967-0.96,2.139-1.7574
			l0.4711,0.4711c-0.4114,0.4347-0.8516,0.8638-1.3228,1.2863c-0.4711,0.4236-0.9423,0.804-1.4134,1.1425
			c-0.4712,0.3384-0.929,0.6105-1.3759,0.814c-0.449,0.2057-0.8649,0.3086-1.252,0.3086c-0.5552,0-1.0087-0.1758-1.3582-0.5253
			c-0.3517-0.3495-0.5265-0.7786-0.5265-1.2874c0-0.4092,0.0597-0.8383,0.1814-1.2852c0.1216-0.4468,0.2654-1.0573,0.4358-1.8315
			l1.1967-5.5078c0.0951-0.4357,0.1991-0.9246,0.3075-1.4676c0.1084-0.543,0.1637-0.9124,0.1637-1.1049
			c0-0.2411-0.073-0.4291-0.219-0.5618c-0.1438-0.1327-0.3252-0.1991-0.5441-0.1991c-0.2898,0-0.657,0.0774-1.1038,0.2345
			c-0.449,0.157-0.8892,0.3506-1.3228,0.5795c-0.4358,0.2301-0.8405,0.4667-1.2144,0.7078
			c-0.376,0.2411-0.6459,0.4468-0.8162,0.6149c-0.1438,0.146-0.2654,0.4236-0.3628,0.8339
			c-0.0951,0.4114-0.2411,1.0396-0.4335,1.8846l-1.8492,8.6255h-3.4418l2.2097-10.4017c0.0243-0.1681,0.073-0.3915,0.146-0.6702
			c0.0708-0.2765,0.1327-0.5552,0.1814-0.8339c0.0464-0.2765,0.0951-0.543,0.1438-0.7963c0.0486-0.2544,0.073-0.4402,0.073-0.5618
			c0-0.1681-0.0553-0.3019-0.1637-0.3981c-0.1084-0.0973-0.2345-0.146-0.3805-0.146c-0.2654,0-0.5862,0.115-0.96,0.3451
			c-0.376,0.23-0.9113,0.5862-1.6125,1.0684l-0.4358-0.6149c0.8206-0.7012,1.6258-1.3172,2.411-1.8492
			C456.2204,247.3451,456.9614,247.0786,457.6626,247.0786z"/>
		<path fill="#F7F3C2" d="M356.9719,271.0529c1.7873,0,3.3932,0.3008,4.8199,0.9047c1.4245,0.605,2.6389,1.4378,3.6409,2.5017
			c1.002,1.0628,1.7696,2.3369,2.3026,3.8223c0.5309,1.4865,0.7963,3.1122,0.7963,4.8752c0,1.8116-0.3141,3.5701-0.9423,5.2733
			c-0.6282,1.7032-1.5351,3.2184-2.7185,4.5478c-1.1834,1.3294-2.6322,2.3911-4.3487,3.1897
			c-1.7165,0.7963-3.6608,1.1956-5.8351,1.1956c-1.6899,0-3.2251-0.2909-4.6009-0.8704c-1.3781-0.5796-2.5615-1.3891-3.5524-2.4276
			c-0.991-1.0385-1.7585-2.2772-2.3004-3.715c-0.5442-1.4366-0.8162-3.0127-0.8162-4.7292c0-1.8846,0.3207-3.7084,0.96-5.4724
			c0.6393-1.7629,1.5528-3.3157,2.7362-4.6562c1.1834-1.3416,2.6101-2.4166,4.2757-3.2262
			C353.0568,271.4577,354.917,271.0529,356.9719,271.0529z M347.6198,286.4548c0,1.4732,0.1637,2.8324,0.4911,4.0767
			c0.3252,1.2453,0.783,2.3137,1.3758,3.2073c0.5928,0.8936,1.3228,1.5882,2.1921,2.0837c0.8715,0.4955,1.8492,0.7432,2.9375,0.7432
			c1.5218,0,2.8866-0.4468,4.0944-1.3405c1.2077-0.8936,2.2296-2.0417,3.0613-3.444c0.8339-1.4002,1.4688-2.9353,1.9045-4.602
			c0.4335-1.6667,0.6503-3.2859,0.6503-4.8564c0-1.2321-0.1438-2.4763-0.4335-3.7327c-0.2898-1.2553-0.7322-2.379-1.3228-3.3699
			c-0.5928-0.9909-1.3405-1.8005-2.2473-2.4287c-0.9069-0.6282-1.9886-0.9423-3.2427-0.9423c-1.2321,0-2.4221,0.3628-3.5701,1.0872
			c-1.148,0.7244-2.1566,1.7397-3.0259,3.0448c-0.8693,1.3051-1.5661,2.8512-2.0837,4.6385
			C347.8808,282.408,347.6198,284.3523,347.6198,286.4548z"/>
		<path fill="#F7F3C2" d="M383.6791,270.5441c0.8472,0,1.7762,0.1339,2.7915,0.3993l-0.8339,2.5736
			c-1.3537-0.4358-2.3978-0.7742-3.1344-1.0153c-0.7366-0.2411-1.2387-0.3628-1.5041-0.3628c-0.2654,0-0.4601,0.0851-0.5795,0.2544
			c-0.1217,0.1692-0.2411,0.5674-0.3628,1.1956c-0.0244,0.0719-0.0664,0.2665-0.1261,0.5807
			c-0.0619,0.3141-0.146,0.7908-0.2544,1.4311c-0.1084,0.6393-0.2411,1.4621-0.3982,2.4641s-0.3583,2.2407-0.5994,3.7139
			c0.2898-0.0475,0.6105-0.1084,0.9622-0.1814c0.3495-0.0719,0.741-0.1084,1.1768-0.1084c0.2654,0,0.5065,0.0133,0.7255,0.0365
			c0.2168,0.0243,0.3982,0.0608,0.5419,0.1095v1.3759c-0.1924-0.0476-0.4579-0.0841-0.7963-0.1084
			c-0.3384-0.0232-0.7366-0.0354-1.1967-0.0354c-0.4092,0-0.7233,0.0244-0.9423,0.0719c-0.2168,0.0486-0.3915,0.1449-0.5242,0.2909
			c-0.1327,0.1438-0.23,0.3429-0.2898,0.5972c-0.062,0.2544-0.1283,0.574-0.1991,0.96c-0.991,5.1959-1.7519,9.0967-2.285,11.7057
			c-0.5309,2.6101-0.9047,4.1187-1.1215,4.5301c-0.0487,0.073-0.1349,0.1814-0.2544,0.3274
			c-0.1217,0.1438-0.3274,0.3561-0.6172,0.6326c-0.2898,0.2787-0.6702,0.6227-1.1414,1.033
			c-0.4712,0.4114-1.0573,0.918-1.7563,1.5229l-0.4357-0.3628c0.146-0.3141,0.2898-0.6514,0.4357-1.0142
			c0.1438-0.3628,0.2942-0.8461,0.4513-1.45c0.157-0.605,0.3318-1.3836,0.5264-2.3369c0.1924-0.9556,0.4358-2.1931,0.7255-3.7161
			l2.2827-12.429l-3.1166,0.4712v-0.6525l3.371-1.0518c0.1438-1.0385,0.2898-1.9443,0.4335-2.7174
			c0.146-0.7742,0.3207-1.4732,0.5265-2.1025c0.2035-0.6282,0.4579-1.2199,0.7609-1.7751c0.3008-0.5563,0.6945-1.1358,1.1768-1.7408
			c0.5796-0.7477,1.1414-1.3272,1.6855-1.7386c0.5442-0.4114,1.0573-0.7189,1.5395-0.9246
			c0.4844-0.2046,0.9246-0.3318,1.3228-0.3805C383.0465,270.5685,383.3894,270.5441,383.6791,270.5441z"/>
		<path fill="#F7F3C2" d="M394.8783,270.5441c0.845,0,1.7762,0.1339,2.7893,0.3993l-0.8317,2.5736
			c-1.3537-0.4358-2.4-0.7742-3.1366-1.0153c-0.7366-0.2411-1.2365-0.3628-1.5042-0.3628c-0.2654,0-0.4579,0.0851-0.5795,0.2544
			c-0.1194,0.1692-0.2411,0.5674-0.3628,1.1956c-0.0243,0.0719-0.0663,0.2665-0.1261,0.5807
			c-0.0597,0.3141-0.1438,0.7908-0.2544,1.4311c-0.1084,0.6393-0.2411,1.4621-0.3981,2.4641s-0.3561,2.2407-0.5972,3.7139
			c0.2898-0.0475,0.6105-0.1084,0.96-0.1814c0.3495-0.0719,0.7432-0.1084,1.179-0.1084c0.2654,0,0.5066,0.0133,0.7233,0.0365
			c0.219,0.0243,0.3981,0.0608,0.5441,0.1095v1.3759c-0.1946-0.0476-0.4601-0.0841-0.7963-0.1084
			c-0.3406-0.0232-0.7388-0.0354-1.1967-0.0354c-0.4114,0-0.7255,0.0244-0.9423,0.0719c-0.2168,0.0486-0.3937,0.1449-0.5264,0.2909
			c-0.1327,0.1438-0.23,0.3429-0.2898,0.5972c-0.0597,0.2544-0.1261,0.574-0.1991,0.96c-0.991,5.1959-1.7519,9.0967-2.2827,11.7057
			c-0.5309,2.6101-0.9069,4.1187-1.1237,4.5301c-0.0487,0.073-0.1327,0.1814-0.2544,0.3274
			c-0.1194,0.1438-0.3252,0.3561-0.6149,0.6326c-0.2898,0.2787-0.6702,0.6227-1.1414,1.033
			c-0.4712,0.4114-1.0573,0.918-1.7585,1.5229l-0.4358-0.3628c0.146-0.3141,0.292-0.6514,0.4358-1.0142
			c0.146-0.3628,0.2964-0.8461,0.4535-1.45c0.157-0.605,0.3318-1.3836,0.5242-2.3369c0.1946-0.9556,0.4358-2.1931,0.7255-3.7161
			l2.2827-12.429l-3.1167,0.4712v-0.6525l3.371-1.0518c0.146-1.0385,0.2898-1.9443,0.4358-2.7174
			c0.1438-0.7742,0.3185-1.4732,0.5242-2.1025c0.2057-0.6282,0.4601-1.2199,0.7609-1.7751c0.303-0.5563,0.6945-1.1358,1.179-1.7408
			c0.5795-0.7477,1.1414-1.3272,1.6855-1.7386c0.5419-0.4114,1.0551-0.7189,1.5396-0.9246
			c0.4822-0.2046,0.9246-0.3318,1.3228-0.3805C394.2435,270.5685,394.5885,270.5441,394.8783,270.5441z"/>
		<path fill="#F7F3C2" d="M399.0434,281.0543c0.4358,0,0.8029,0.1449,1.106,0.4346s0.4535,0.7134,0.4535,1.2697
			c0,0.386-0.0973,0.9909-0.2898,1.8116l-2.2827,10.0025c-0.0244,0.0962-0.0443,0.1814-0.0553,0.2533
			c-0.0133,0.0719-0.0177,0.1449-0.0177,0.2179c0,0.1935,0.073,0.2898,0.2168,0.2898c0.073,0,0.2057-0.0663,0.3982-0.1991
			c0.1946-0.1327,0.4358-0.3086,0.7255-0.5265c0.2898-0.2168,0.6039-0.4579,0.9423-0.7244
			c0.3384-0.2654,0.6768-0.5187,1.0153-0.7609l0.4335,0.543c-0.7477,0.6525-1.4002,1.2033-1.9554,1.6501
			c-0.5574,0.4468-1.0507,0.8029-1.4864,1.0684s-0.8228,0.459-1.1591,0.5795c-0.3384,0.1217-0.6526,0.1814-0.9423,0.1814
			c-0.4844,0-0.8715-0.1692-1.1613-0.5066c-0.2898-0.3384-0.4336-0.7852-0.4336-1.3416c0-0.313,0.0487-0.7122,0.1438-1.1956
			c0.0973-0.4833,0.1814-0.8693,0.2544-1.1602l1.6678-7.2475c0.1438-0.6282,0.2588-1.1237,0.3429-1.4865
			c0.084-0.3628,0.1283-0.616,0.1283-0.7609c0-0.1681-0.0974-0.2544-0.2898-0.2544c-0.2676,0-1.1856,0.605-2.7561,1.8127
			l-0.4711-0.5431c1.2564-1.1115,2.327-1.9576,3.2073-2.5371C397.6609,281.3452,398.4152,281.0543,399.0434,281.0543z
			 M400.4569,274.0236c0.1703,0,0.3561,0.0365,0.5618,0.1084c0.2057,0.073,0.4004,0.188,0.5795,0.3451
			c0.1814,0.157,0.3384,0.3506,0.4712,0.5795c0.1327,0.23,0.2013,0.5021,0.2013,0.8162c0,0.4103-0.1217,0.7852-0.3628,1.1226
			c-0.2433,0.3395-0.5442,0.6293-0.9069,0.8704c-0.3628,0.2411-0.7675,0.4225-1.2144,0.5431
			c-0.4468,0.1205-0.8627,0.1814-1.2498,0.1814c-0.1946,0-0.3207-0.0663-0.3805-0.1991s-0.0907-0.3683-0.0907-0.7067
			c0-0.459,0.0354-0.9069,0.1084-1.3405c0.073-0.4358,0.1991-0.8217,0.3805-1.1602c0.1814-0.3384,0.4291-0.6161,0.7432-0.8339
			C399.6119,274.132,399.999,274.0236,400.4569,274.0236z"/>
		<path fill="#F7F3C2" d="M413.0341,281.0543c0.772,0,1.4489,0.1028,2.0284,0.3086s1.0639,0.4778,1.451,0.8151
			c0.3849,0.3384,0.6746,0.7134,0.8693,1.1237c0.1924,0.4103,0.2898,0.8096,0.2898,1.1956c0,0.1947-0.0376,0.4291-0.1084,0.7067
			c-0.073,0.2776-0.2057,0.5386-0.4004,0.7797c-0.1924,0.2411-0.4645,0.4468-0.814,0.6149
			c-0.3517,0.1703-0.8162,0.2544-1.3958,0.2544c-0.4114,0-0.6768-0.042-0.7963-0.1261c-0.1217-0.0852-0.1814-0.2002-0.1814-0.3451
			c0-0.1449,0.0531-0.3804,0.1615-0.7067c0.1106-0.3263,0.2234-0.6702,0.3451-1.0319c0.1216-0.3628,0.2367-0.7078,0.3451-1.033
			c0.1084-0.3274,0.1615-0.5508,0.1615-0.6713c0-0.4103-0.1615-0.7067-0.4889-0.8881c-0.3251-0.1814-0.6702-0.2721-1.033-0.2721
			c-0.7476,0-1.4798,0.2898-2.192,0.8704c-0.7122,0.5806-1.3471,1.3106-1.9023,2.1931c-0.5574,0.8815-1.002,1.8536-1.3405,2.9176
			c-0.3384,1.0629-0.5087,2.0771-0.5087,3.0437c0,0.5795,0.0663,1.1303,0.1991,1.649c0.1327,0.5198,0.3318,0.9788,0.5994,1.377
			c0.2654,0.3982,0.6083,0.7122,1.033,0.9423c0.4225,0.23,0.9113,0.344,1.4666,0.344c0.8449,0,1.6921-0.2289,2.5371-0.689
			c0.845-0.4579,1.7275-1.2675,2.6455-2.4276l0.5441,0.4347c-0.3384,0.4844-0.7366,1.0098-1.1967,1.5771
			c-0.4579,0.5685-0.9843,1.0927-1.5749,1.576c-0.5928,0.4833-1.252,0.8881-1.9753,1.2144
			c-0.7255,0.3263-1.524,0.4899-2.3933,0.4899c-0.6039,0-1.2254-0.115-1.8669-0.3451c-0.6393-0.23-1.2188-0.5862-1.7386-1.0684
			c-0.5198-0.4844-0.9423-1.1182-1.2675-1.9034c-0.3274-0.7841-0.4911-1.7452-0.4911-2.8811c0-1.3526,0.2367-2.6389,0.7078-3.8599
			c0.4712-1.2188,1.117-2.2894,1.9377-3.2073c0.8228-0.918,1.7762-1.6424,2.8645-2.1744
			C410.6407,281.3208,411.802,281.0543,413.0341,281.0543z"/>
		<path fill="#F7F3C2" d="M425.4631,281.0543c0.4358,0,0.8029,0.1449,1.106,0.4346c0.3008,0.2898,0.4512,0.7134,0.4512,1.2697
			c0,0.386-0.0951,0.9909-0.2898,1.8116l-2.2827,10.0025c-0.0243,0.0962-0.042,0.1814-0.0531,0.2533
			c-0.0133,0.0719-0.0199,0.1449-0.0199,0.2179c0,0.1935,0.073,0.2898,0.219,0.2898c0.0708,0,0.2035-0.0663,0.3981-0.1991
			c0.1924-0.1327,0.4358-0.3086,0.7255-0.5265c0.2898-0.2168,0.6017-0.4579,0.9423-0.7244
			c0.3362-0.2654,0.6747-0.5187,1.0131-0.7609l0.4358,0.543c-0.7498,0.6525-1.4024,1.2033-1.9576,1.6501
			c-0.5552,0.4468-1.0507,0.8029-1.4865,1.0684c-0.4335,0.2654-0.8206,0.459-1.1591,0.5795
			c-0.3384,0.1217-0.6525,0.1814-0.9423,0.1814c-0.4822,0-0.8693-0.1692-1.1591-0.5066c-0.2898-0.3384-0.4358-0.7852-0.4358-1.3416
			c0-0.313,0.0487-0.7122,0.146-1.1956c0.0951-0.4833,0.1814-0.8693,0.2544-1.1602l1.6656-7.2475
			c0.146-0.6282,0.2588-1.1237,0.3451-1.4865c0.0841-0.3628,0.1261-0.616,0.1261-0.7609c0-0.1681-0.0973-0.2544-0.2898-0.2544
			c-0.2654,0-1.1834,0.605-2.7539,1.8127l-0.4711-0.5431c1.2564-1.1115,2.3248-1.9576,3.2073-2.5371
			C424.0784,281.3452,424.8349,281.0543,425.4631,281.0543z M426.8766,274.0236c0.1681,0,0.3561,0.0365,0.5618,0.1084
			c0.2035,0.073,0.3982,0.188,0.5795,0.3451c0.1814,0.157,0.3384,0.3506,0.4712,0.5795c0.1327,0.23,0.1991,0.5021,0.1991,0.8162
			c0,0.4103-0.1216,0.7852-0.3628,1.1226c-0.2411,0.3395-0.5441,0.6293-0.9047,0.8704c-0.3628,0.2411-0.7675,0.4225-1.2144,0.5431
			c-0.4468,0.1205-0.8649,0.1814-1.2498,0.1814c-0.1947,0-0.3207-0.0663-0.3827-0.1991c-0.0597-0.1327-0.0885-0.3683-0.0885-0.7067
			c0-0.459,0.0354-0.9069,0.1084-1.3405c0.0708-0.4358,0.1991-0.8217,0.3805-1.1602c0.1814-0.3384,0.4291-0.6161,0.7432-0.8339
			C426.0294,274.132,426.4165,274.0236,426.8766,274.0236z"/>
		<path fill="#F7F3C2" d="M442.4952,293.7388c-0.1217,0.4844-0.1946,0.8096-0.2168,0.9788
			c-0.0244,0.1692-0.0376,0.2776-0.0376,0.3263c0,0.2168,0.073,0.3252,0.219,0.3252c0.1194,0,0.4159-0.1681,0.887-0.5065
			c0.4712-0.3384,1.1171-0.7852,1.9377-1.3405l0.4358,0.543c-1.3758,1.1602-2.4575,1.9875-3.2427,2.4829
			c-0.7852,0.4944-1.5041,0.7432-2.1566,0.7432c-0.991,0-1.4865-0.4601-1.4865-1.3781c0-0.1205,0.0066-0.2356,0.0177-0.3439
			c0.0133-0.1095,0.0199-0.2234,0.0199-0.344c0-0.0973-0.0486-0.146-0.146-0.146c-0.073,0-0.2721,0.115-0.5972,0.3451
			c-0.3274,0.23-0.7144,0.4833-1.1613,0.7609c-0.4468,0.2787-0.929,0.5309-1.4489,0.7609s-1.0086,0.3451-1.4688,0.3451
			c-0.5309,0-1.0263-0.1283-1.4842-0.3816c-0.4601-0.2533-0.8649-0.5983-1.2144-1.0319c-0.3517-0.4358-0.6282-0.9556-0.8339-1.5594
			c-0.2057-0.6039-0.3075-1.2675-0.3075-1.993c0-0.9423,0.1991-1.9996,0.5972-3.1708c0.3982-1.1712,1.0573-2.2838,1.9753-3.3345
			c0.918-1.0507,2.1147-1.9576,3.5878-2.7185c1.4731-0.7609,3.2848-1.2011,5.437-1.3228c0.0708-0.2898,0.1615-0.5242,0.2721-0.7056
			c0.1084-0.1814,0.2898-0.3207,0.5419-0.417c0.2544-0.0962,0.6105-0.1626,1.0706-0.2002c0.4579-0.0354,1.0861-0.0531,1.8846-0.0531
			L442.4952,293.7388z M433.9062,292.2169c0,1.9333,0.7255,2.8988,2.1743,2.8988c0.4358,0,0.9113-0.084,1.4312-0.2533
			c0.5198-0.1681,0.9246-0.3628,1.2144-0.5795c0.1217-0.0974,0.2477-0.3749,0.3805-0.8339s0.2477-0.9069,0.3451-1.3405
			c0.1438-0.7255,0.3318-1.5594,0.5619-2.5017c0.2278-0.9423,0.4468-1.8536,0.6525-2.7362
			c0.2035-0.8804,0.3805-1.6601,0.5242-2.3369c0.146-0.6758,0.2168-1.1115,0.2168-1.304c0-0.1703-0.0487-0.3207-0.1438-0.4535
			c-0.0973-0.1327-0.3384-0.1991-0.7255-0.1991c-0.845,0-1.6656,0.2964-2.4641,0.887c-0.7963,0.5928-1.5041,1.3537-2.119,2.2827
			c-0.6171,0.9312-1.1126,1.9709-1.4865,3.1167C434.092,290.0116,433.9062,291.1287,433.9062,292.2169z"/>
		<path fill="#F7F3C2" d="M457.0278,270.5818c-0.9202,4.2027-1.6855,7.8038-2.3027,10.7988
			c-0.6149,2.9961-1.117,5.4669-1.5041,7.4112c-0.3849,1.9454-0.6636,3.4009-0.8317,4.3675
			c-0.1703,0.9666-0.2544,1.4975-0.2544,1.5948c0,0.1924,0.073,0.2898,0.2168,0.2898c0.1924,0,0.5618-0.2179,1.106-0.6525
			c0.5441-0.4358,1.2741-1.0263,2.192-1.7762l0.4358,0.5442c-1.4997,1.4256-2.6765,2.4221-3.5347,2.9895
			c-0.8582,0.5674-1.5528,0.8516-2.0836,0.8516c-0.4822,0-0.8936-0.1758-1.2321-0.5253c-0.3384-0.3495-0.5065-0.8759-0.5065-1.5771
			c0-0.4579,0.0774-1.0805,0.2345-1.8658c0.157-0.7841,0.3318-1.6125,0.5265-2.4829l3.5878-17.5763
			c0.0486-0.2411,0.073-0.4103,0.073-0.5076c0-0.1692-0.0974-0.2533-0.2898-0.2533l-2.285,0.2168v-0.7963L457.0278,270.5818z"/>
	</g>
</g>
</svg>
