<?xml version="1.0" encoding="utf-8"?>
<!-- Generator: Adobe Illustrator 22.1.0, SVG Export Plug-In . SVG Version: 6.00 Build 0)  -->
<svg version="1.1" id="レイヤー_1" xmlns="http://www.w3.org/2000/svg" xmlns:xlink="http://www.w3.org/1999/xlink" x="0px"
	 y="0px" viewBox="0 0 800 400" enable-background="new 0 0 800 400" xml:space="preserve">
<rect fill="#FFFFFF" width="800" height="400"/>
<rect x="211" y="157.018" fill="#FFF000" width="378" height="114.782"/>
<g>
	<defs>
		<rect id="SVGID_3_" x="211" y="112.043" width="377.9961" height="168.7591"/>
	</defs>
	<clipPath id="SVGID_2_">
		<use xlink:href="#SVGID_3_"  overflow="visible"/>
	</clipPath>
	<path clip-path="url(#SVGID_2_)" fill="#B6A900" d="M386.8223,203.3715c-1.8536,0-3.7932,0.4771-5.8228,1.4234
		c-2.0257,0.9503-3.8675,2.2446-5.5295,3.8832c-1.662,1.6385-3.0307,3.5899-4.1061,5.8541c-1.0793,2.2603-1.619,4.6887-1.619,7.2736
		c0,1.4704,0.2386,2.8586,0.7117,4.1725c0.4771,1.3178,1.1536,2.4715,2.0374,3.4608c0.8838,0.9933,1.9435,1.791,3.1714,2.3932
		c1.2279,0.6061,2.6201,0.9072,4.1725,0.9072c1.8106,0,3.7189-0.4849,5.725-1.4547c2.0022-0.9698,3.8245-2.2955,5.463-3.977
		c1.6385-1.6815,2.9994-3.6329,4.0748-5.8541c1.0793-2.2212,1.619-4.5831,1.619-7.0859c0-1.2044-0.1955-2.4558-0.5827-3.7502
		c-0.3871-1.2944-0.9933-2.4793-1.8106-3.5586c-0.8212-1.0754-1.8536-1.9631-3.1049-2.6513
		C389.9702,203.7196,388.5038,203.3715,386.8223,203.3715 M379.6425,231.8989c-1.6385,0-2.9877-0.5279-4.0435-1.5838
		s-1.5838-2.6865-1.5838-4.8843c0-1.1223,0.1291-2.4245,0.3871-3.9144c0.262-1.486,0.6374-3.0189,1.1341-4.591
		c0.4927-1.5759,1.1067-3.1167,1.8419-4.6262c0.7352-1.5095,1.5642-2.8586,2.491-4.0435c0.9268-1.1849,1.9514-2.143,3.0737-2.8782
		c1.1184-0.7313,2.3072-1.0989,3.5586-1.0989c2.1977,0,3.7385,0.6022,4.6223,1.8106c0.8838,1.2084,1.3257,2.8469,1.3257,4.9155
		c0,0.8642-0.1291,1.9865-0.3871,3.3631c-0.2581,1.3804-0.6374,2.8469-1.1341,4.3994c-0.4927,1.5525-1.1067,3.105-1.8419,4.6574
		c-0.7352,1.5525-1.5759,2.9642-2.5223,4.239c-0.9503,1.2709-2.0061,2.2955-3.1675,3.0698
		C382.2313,231.5117,380.9799,231.8989,379.6425,231.8989"/>
	<path clip-path="url(#SVGID_2_)" fill="#B6A900" d="M429.5793,182.8025c-1.8536,0-3.7072,0.4653-5.5647,1.3922
		c-1.8536,0.9268-3.5782,2.1977-5.1736,3.8167c-1.5955,1.6151-3.0189,3.5038-4.2664,5.6585
		c-1.2553,2.1586-2.2251,4.4854-2.9134,6.9842l-0.9698,3.5586h-6.1473l-0.2581,0.9072h6.1474l-7.1172,26.7128
		c-1.5094,5.5217-3.0932,9.5182-4.7513,12.0014c-1.662,2.4793-3.3983,3.7189-5.2088,3.7189c-0.5631,0-1.0246-0.129-1.3922-0.3871
		c-0.3637-0.262-0.5475-0.6726-0.5475-1.2318c0-0.6022,0.1056-1.1536,0.3207-1.6463c0.219-0.4966,0.3246-0.9815,0.3246-1.4586
		c0-0.6883-0.1721-1.1419-0.5162-1.357c-0.3441-0.2151-0.7977-0.3246-1.3609-0.3246c-1.0324,0-1.7988,0.3011-2.2955,0.9072
		c-0.4966,0.6022-0.743,1.3139-0.743,2.1352c0,0.8603,0.1721,1.5603,0.5162,2.0999c0.348,0.5397,0.7782,0.9737,1.2944,1.2944
		c0.5162,0.3246,1.0911,0.5514,1.7128,0.6804c0.6257,0.129,1.2201,0.1916,1.7793,0.1916c1.8966,0,3.6994-0.5905,5.4004-1.7754
		c1.705-1.1888,3.277-2.7726,4.7239-4.7552c1.443-1.9866,2.7256-4.2703,3.848-6.8591c1.1223-2.5849,2.0491-5.2597,2.7804-8.0205
		l5.7602-21.9264h7.954l0.2581-0.9072h-7.954l1.357-4.9155c0.3011-1.1184,0.7782-2.5536,1.4234-4.3016
		c0.6491-1.7441,1.486-3.4608,2.5223-5.1423s2.2877-3.1245,3.7541-4.3329c1.4625-1.2084,3.1675-1.8106,5.1111-1.8106
		c0.6453,0,1.2162,0.1173,1.7128,0.3559c0.4927,0.2346,0.743,0.7234,0.743,1.4547c0,0.3441-0.0743,0.6452-0.2268,0.9033
		c-0.1525,0.262-0.3246,0.5318-0.5162,0.8095c-0.1955,0.2816-0.3793,0.5827-0.5514,0.9072c-0.1721,0.3207-0.2581,0.7-0.2581,1.1301
		c0,0.4771,0.2033,0.8955,0.614,1.2631c0.4106,0.3676,1.0871,0.5475,2.0374,0.5475c1.1223,0,1.8849-0.3637,2.2955-1.0989
		c0.4106-0.7313,0.6139-1.4625,0.6139-2.1977c0-0.5201-0.1173-1.0676-0.3558-1.6502c-0.2346-0.5827-0.614-1.1223-1.1302-1.6151
		c-0.5162-0.4966-1.1653-0.9072-1.9396-1.2318C431.6479,182.9668,430.7016,182.8025,429.5793,182.8025"/>
	<path clip-path="url(#SVGID_2_)" fill="#231815" d="M257.5655,163.6608h11.1294c4.9977,0,9.4831-1.0324,13.4522-3.105
		c3.9692-2.0687,7.0507-4.9155,9.2523-8.5367c2.1977-3.6211,3.2966-7.7194,3.2966-12.2908c0-4.5714-1.0989-8.6697-3.2966-12.2908
		c-2.2016-3.6211-5.2831-6.4446-9.2523-8.4741c-3.9692-2.0257-8.4546-3.0385-13.4522-3.0385h-11.1294V163.6608z M294.4379,203.7673
		l-36.8724-37.5177v37.5177h-2.843v-90.5601h13.9723c5.5178,0,10.4763,1.1458,14.8757,3.4295
		c4.3994,2.2877,7.8289,5.4317,10.2847,9.4439c2.4597,4.0083,3.6876,8.5602,3.6876,13.6478c0,5.0915-1.2279,9.659-3.6876,13.7142
		c-2.4558,4.0552-5.8854,7.2227-10.2847,9.5065c-4.3994,2.2877-9.3579,3.4295-14.8757,3.4295h-7.1172l36.8724,37.3886H294.4379z"/>
	<path clip-path="url(#SVGID_2_)" fill="#231815" d="M333.9593,200.9204c-4.7865-2.7608-8.4976-6.7261-11.1255-11.9037
		c-2.6318-5.1736-3.9457-11.2076-3.9457-18.1097v-57.1798l2.8469-1.1653v58.3452c0,6.3859,1.1849,11.9467,3.5547,16.6862
		c2.3737,4.7474,5.7368,8.392,10.0931,10.9338c4.3524,2.5458,9.4205,3.8167,15.2003,3.8167c5.7758,0,10.8439-1.2709,15.2002-3.8167
		c4.3564-2.5418,7.7194-6.1864,10.0931-10.9338c2.3698-4.7396,3.5547-10.3004,3.5547-16.6862v-57.1798l2.8469-1.1653v58.3452
		c0,6.9021-1.3139,12.936-3.9457,18.1097c-2.6318,5.1775-6.339,9.1428-11.1255,11.9037
		c-4.7865,2.7608-10.3277,4.1413-16.6237,4.1413S338.7458,203.6812,333.9593,200.9204"/>
	<path clip-path="url(#SVGID_2_)" fill="#231815" d="M412.8101,202.2148c-4.1413-1.8966-7.9345-4.3133-11.3836-7.2462l0.6452-2.8469
		c3.4491,3.1949,7.2228,5.7172,11.321,7.5708c4.0943,1.8536,8.3451,2.7804,12.7444,2.7804c4.4815,0,8.4898-0.9464,12.0288-2.8469
		c3.5351-1.8927,6.2764-4.4815,8.216-7.7624c1.9396-3.2731,2.9094-6.9842,2.9094-11.1255c0-3.7072-0.6921-6.8747-2.0687-9.5065
		c-1.3804-2.6318-3.6016-4.982-6.6635-7.0507c-3.062-2.0726-7.2228-3.9692-12.4824-5.6937l-1.9396-0.6492
		c-4.4893-1.4625-8.3021-3.1441-11.45-5.0407c-3.1519-1.8966-5.6507-4.3368-7.5043-7.3127
		c-1.8575-2.9759-2.7804-6.6166-2.7804-10.9299s0.9893-8.1691,2.972-11.5791c1.9865-3.4061,4.7435-6.0809,8.2825-8.0205
		c3.5351-1.9396,7.5864-2.9134,12.1578-2.9134c7.0742,0,13.9293,2.2016,20.5733,6.601l-0.6491,2.8469
		c-6.6401-4.5714-13.2372-6.8591-19.7912-6.8591c-4.0552,0-7.6568,0.8642-10.8048,2.5888c-3.148,1.7245-5.6077,4.0982-7.3713,7.1133
		c-1.7715,3.0189-2.6552,6.468-2.6552,10.3512c0,3.7971,0.8447,6.9842,2.5262,9.573c1.6815,2.5888,3.9457,4.7044,6.7887,6.339
		c2.8469,1.6385,6.382,3.148,10.6093,4.5284l1.9396,0.6452c8.1065,2.6748,13.9724,5.9753,17.5974,9.8976
		c3.6212,3.9262,5.4317,8.9082,5.4317,14.9422c0,4.6574-1.0988,8.8417-3.3005,12.5489c-2.1977,3.7111-5.2597,6.6205-9.1819,8.7322
		c-3.9262,2.1117-8.392,3.1714-13.3897,3.1714C421.3898,205.0616,416.9514,204.1114,412.8101,202.2148"/>
</g>
<polygon fill="#231815" points="546.0615,113.7253 546.0615,156.2875 476.9781,156.2875 476.9781,112.5599 474.1312,113.7253 
	474.1312,203.7692 476.9781,203.7692 476.9781,159.0053 546.0615,159.0053 546.0615,203.7692 548.9084,203.7692 548.9084,112.5599 
	"/>
<polygon fill="#231815" points="284.3092,219.3676 284.3092,254.9104 277.1881,254.9104 277.1881,240.4727 261.4991,240.4727 
	261.4991,254.9104 254.378,254.9104 254.378,220.22 261.4991,219.3676 261.4991,233.6566 277.1881,233.6566 277.1881,220.22 "/>
<g>
	<defs>
		<rect id="SVGID_5_" x="211" y="112.043" width="377.9961" height="168.7591"/>
	</defs>
	<clipPath id="SVGID_4_">
		<use xlink:href="#SVGID_5_"  overflow="visible"/>
	</clipPath>
	<path clip-path="url(#SVGID_4_)" fill="#231815" d="M309.8505,248.8706c0.919-0.5514,1.6463-1.2983,2.1821-2.2329
		c0.5318-0.9346,0.8017-1.9866,0.8017-3.1558c0-1.1732-0.2698-2.2212-0.8017-3.1597c-0.5357-0.9346-1.2631-1.6698-2.1821-2.2055
		s-1.9474-0.8017-3.0815-0.8017c-1.1379,0-2.1743,0.2659-3.1089,0.8017c-0.9385,0.5357-1.6737,1.2787-2.2055,2.2329
		c-0.5358,0.9503-0.8017,1.9944-0.8017,3.1323c0,1.134,0.2659,2.1782,0.8017,3.1323c0.5318,0.9542,1.267,1.705,2.2055,2.2564
		c0.9346,0.5514,1.9709,0.8251,3.1089,0.8251C307.903,249.6957,308.9315,249.422,309.8505,248.8706 M300.4261,253.9582
		c-1.9201-1.0715-3.4413-2.5223-4.5636-4.3602c-1.1184-1.838-1.6776-3.8597-1.6776-6.0652c0-2.2407,0.5592-4.2781,1.6776-6.12
		c1.1223-1.834,2.6435-3.2888,4.5636-4.3602c1.9201-1.0676,4.0357-1.6033,6.3429-1.6033c2.3033,0,4.4189,0.5358,6.339,1.6033
		c1.924,1.0715,3.4373,2.5262,4.5362,4.3602c1.1067,1.8419,1.6541,3.8793,1.6541,6.12c0,2.2368-0.5475,4.2664-1.6541,6.0887
		c-1.0989,1.8223-2.6122,3.2653-4.5362,4.3368c-1.9201,1.0676-4.0357,1.6033-6.339,1.6033
		C304.4618,255.5615,302.3462,255.0258,300.4261,253.9582"/>
	<path clip-path="url(#SVGID_4_)" fill="#231815" d="M359.9812,232.6024c1.2514,0.7352,2.2055,1.7871,2.8586,3.1558
		c0.6492,1.3726,0.9737,2.9759,0.9737,4.8139v14.3399h-6.816v-13.4874c0-1.2709-0.3246-2.2642-0.9777-2.9798
		c-0.6491-0.7195-1.4977-1.0793-2.5301-1.0793c-1.1028,0-2.0061,0.3911-2.7061,1.1771c-0.7039,0.786-1.0558,1.8301-1.0558,3.1323
		v13.2372h-6.8669v-13.4874c0-1.2709-0.3168-2.2642-0.9542-2.9798c-0.6335-0.7195-1.4704-1.0793-2.5027-1.0793
		c-1.138,0-2.0569,0.3911-2.7608,1.1771c-0.7,0.786-1.0519,1.8301-1.0519,3.1323v13.2372h-6.8161v-22.4113l6.6166-0.8017v2.7061
		c0.7664-0.9346,1.6972-1.6542,2.7804-2.1547c1.0872-0.5005,2.2838-0.7508,3.586-0.7508c1.4039,0,2.6396,0.2816,3.7111,0.8525
		c1.0676,0.567,1.9553,1.3882,2.6552,2.4558c0.8369-1.0676,1.8888-1.8888,3.1597-2.4558c1.267-0.5709,2.6709-0.8525,4.2116-0.8525
		C357.2321,231.4996,358.7259,231.8672,359.9812,232.6024"/>
	<path clip-path="url(#SVGID_4_)" fill="#231815" d="M382.1883,237.3658c-0.9229,0.5358-1.6737,1.2709-2.2564,2.2056
		c-0.5866,0.9346-0.9268,2.0061-1.0285,3.2066l11.0786-3.6094c-0.4693-0.8329-1.1106-1.4782-1.9279-1.9279
		c-0.8212-0.4536-1.748-0.6765-2.7843-0.6765C384.1318,236.5641,383.1073,236.83,382.1883,237.3658 M393.9434,246.7393
		l1.9553,5.0133c-1.4039,1.1693-3.0072,2.096-4.8139,2.7804c-1.8027,0.6844-3.6407,1.0285-5.5139,1.0285
		c-2.3737,0-4.5206-0.524-6.4406-1.5798c-1.924-1.0519-3.4334-2.4949-4.5362-4.3368c-1.1028-1.834-1.6541-3.8753-1.6541-6.1122
		c0-2.2407,0.5318-4.2781,1.6033-6.12c1.0676-1.834,2.538-3.2888,4.4111-4.3603c1.8692-1.0676,3.9614-1.6033,6.2647-1.6033
		c2.0061,0,3.8362,0.4263,5.4904,1.2787c1.6542,0.8525,3.0072,2.0961,4.0631,3.7346c1.0519,1.6385,1.6776,3.5781,1.877,5.815
		l-16.6432,5.3652c0.6022,0.8681,1.3804,1.5447,2.3307,2.0296c0.9542,0.4849,2.0491,0.7274,3.2849,0.7274
		C388.4608,250.3996,391.2373,249.1795,393.9434,246.7393"/>
</g>
<polygon fill="#231815" points="429.1859,256.3143 421.7676,242.4788 414.3454,256.3143 403.5171,232.1003 410.6382,232.1003 
	415.0493,243.2805 421.7676,230.9466 428.482,243.3313 432.9439,232.1003 440.065,232.1003 "/>
<g>
	<defs>
		<rect id="SVGID_7_" x="211" y="112.043" width="377.9961" height="168.7591"/>
	</defs>
	<clipPath id="SVGID_6_">
		<use xlink:href="#SVGID_7_"  overflow="visible"/>
	</clipPath>
	<path clip-path="url(#SVGID_6_)" fill="#231815" d="M462.5466,248.8706c0.9189-0.5514,1.6463-1.2983,2.1821-2.2329
		c0.5319-0.9346,0.8016-1.9866,0.8016-3.1558c0-1.1732-0.2698-2.2212-0.8016-3.1597c-0.5357-0.9346-1.2631-1.6698-2.1821-2.2055
		c-0.919-0.5357-1.9474-0.8017-3.0815-0.8017c-1.138,0-2.1743,0.2659-3.1089,0.8017c-0.9385,0.5357-1.6737,1.2787-2.2056,2.2329
		c-0.5357,0.9503-0.8016,1.9944-0.8016,3.1323c0,1.134,0.2659,2.1782,0.8016,3.1323c0.5319,0.9542,1.267,1.705,2.2056,2.2564
		c0.9346,0.5514,1.9709,0.8251,3.1089,0.8251C460.5992,249.6957,461.6277,249.422,462.5466,248.8706 M453.1223,253.9582
		c-1.9201-1.0715-3.4413-2.5223-4.5636-4.3602c-1.1184-1.838-1.6776-3.8597-1.6776-6.0652c0-2.2407,0.5592-4.2781,1.6776-6.12
		c1.1223-1.834,2.6435-3.2888,4.5636-4.3602c1.9201-1.0676,4.0357-1.6033,6.3429-1.6033c2.3033,0,4.4189,0.5358,6.339,1.6033
		c1.924,1.0715,3.4373,2.5262,4.5362,4.3602c1.1067,1.8419,1.6542,3.8793,1.6542,6.12c0,2.2368-0.5475,4.2664-1.6542,6.0887
		c-1.0988,1.8223-2.6122,3.2653-4.5362,4.3368c-1.9201,1.0676-4.0357,1.6033-6.339,1.6033
		C457.1579,255.5615,455.0423,255.0258,453.1223,253.9582"/>
	<path clip-path="url(#SVGID_6_)" fill="#231815" d="M490.695,232.6024c1.2044-0.6335,2.7061-0.9542,4.5128-0.9542v6.1161
		c-4.6144,0-6.9178,2.2251-6.9178,6.6675v10.4802h-6.8199v-22.4113l6.4172-0.8017v3.8089
		C488.556,234.2057,489.4906,233.2359,490.695,232.6024"/>
</g>
<polygon fill="#231815" points="517.9143,254.9104 510.6955,244.3324 510.6955,254.9104 503.8794,254.9104 503.8794,219.4692 
	510.6955,218.6167 510.6955,241.8766 517.664,232.1003 525.5359,232.1003 517.2612,243.0302 525.9857,254.9104 "/>
<g>
	<defs>
		<rect id="SVGID_9_" x="211" y="112.043" width="377.9961" height="168.7591"/>
	</defs>
	<clipPath id="SVGID_8_">
		<use xlink:href="#SVGID_9_"  overflow="visible"/>
	</clipPath>
	<path clip-path="url(#SVGID_8_)" fill="#231815" d="M537.2402,255.0109c-1.2866-0.3676-2.5145-0.8681-3.6837-1.5056l0.8016-5.0602
		c1.1379,0.6335,2.2056,1.1184,3.2106,1.4508c1.0011,0.3363,1.967,0.5045,2.9055,0.5045c0.8369,0,1.4938-0.1838,1.9787-0.5553
		c0.4849-0.3637,0.7274-0.8838,0.7274-1.5525c0-0.5358-0.1995-0.9933-0.6022-1.3765c-0.3989-0.3871-1.1185-0.7274-2.1547-1.0285
		l-0.9033-0.3519c-1.7715-0.6022-3.1323-1.5056-4.0826-2.7061c-0.9542-1.2045-1.4312-2.6592-1.4312-4.3642
		c0-1.3335,0.3363-2.5379,1.0011-3.6094c0.6687-1.0676,1.6151-1.9044,2.8351-2.5027c1.2201-0.6022,2.6318-0.9033,4.2351-0.9033
		c1.0676,0,2.1899,0.133,3.3591,0.3989c1.1693,0.2698,2.3072,0.6531,3.41,1.1536l-0.8525,5.115
		c-0.9698-0.5005-1.9631-0.9033-2.9838-1.2044c-1.0206-0.3011-1.8966-0.4497-2.6318-0.4497s-1.2944,0.1682-1.6776,0.5005
		c-0.3871,0.3363-0.5787,0.7704-0.5787,1.3022c0,0.4693,0.176,0.8877,0.5279,1.2553s0.9581,0.7,1.8301,1.0011l1.0011,0.3519
		c2.0374,0.7,3.5664,1.6463,4.587,2.8312c1.0207,1.1888,1.5291,2.667,1.5291,4.4385c0,1.4704-0.3519,2.7647-1.0519,3.8832
		c-0.7039,1.1184-1.6972,1.9905-2.9838,2.6083s-2.7647,0.9268-4.4345,0.9268C539.8211,255.5623,538.5267,255.3785,537.2402,255.0109
		"/>
	<path clip-path="url(#SVGID_8_)" fill="#231815" d="M245.1034,264.0587h14.0388v2.9681h-14.0388V264.0587z M246.3391,280.4751
		v-2.9681c5.4005-0.305,8.8769-2.2407,10.0383-5.5764h-12.2556v-2.8899h15.9667v0.438
		C259.7796,275.9937,255.5797,280.3226,246.3391,280.4751"/>
	<path clip-path="url(#SVGID_8_)" fill="#231815" d="M273.1176,273.4072c-0.2737-1.9553-0.962-5.0563-1.5446-7.1641h2.7999
		c0.6374,1.9161,1.2905,4.8842,1.6737,7.1641H273.1176z M269.9892,280.6691v-2.8938c6.0378-1.3217,7.8563-4.5792,7.8954-11.0551
		v-0.3441h3.0737v0.3637C280.884,275.8396,276.8287,279.6328,269.9892,280.6691 M268.4445,273.5793
		c-0.2737-1.9162-1.0011-5.115-1.5994-7.2032h2.8156c0.6218,1.9162,1.3296,5.0407,1.7128,7.2032H268.4445z"/>
	<path clip-path="url(#SVGID_8_)" fill="#231815" d="M288.2389,280.3617v-3.144c7.6764-0.2268,11.3327-2.8508,12.0053-10.5154
		h3.2027C302.7548,276.7797,297.0454,280.2444,288.2389,280.3617 M288.0199,266.8547v-2.9485
		c2.4206,0.0782,5.6586,0.3441,8.2434,0.6726v3.0228C293.7684,267.2771,290.331,266.9329,288.0199,266.8547 M287.84,272.392v-2.9681
		c2.4754,0.0743,5.7837,0.3637,8.2395,0.7078v2.9877C293.479,272.7753,290.1512,272.4507,287.84,272.392"/>
</g>
<polygon fill="#231815" points="311.6395,266.5692 311.6395,269.4044 318.8779,269.4044 318.1154,277.1629 310.0949,277.1629 
	310.0949,279.9785 324.4426,279.9785 324.4426,277.1629 321.0796,277.1629 322.1002,266.5692 "/>
<g>
	<defs>
		<rect id="SVGID_11_" x="211" y="112.043" width="377.9961" height="168.7591"/>
	</defs>
	<clipPath id="SVGID_10_">
		<use xlink:href="#SVGID_11_"  overflow="visible"/>
	</clipPath>
	<path clip-path="url(#SVGID_10_)" fill="#231815" d="M337.7678,271.9893c0,1.5134-1.1653,2.7608-2.6201,2.7608
		s-2.6161-1.2279-2.6161-2.7608c0-1.5525,1.2005-2.7569,2.6161-2.7569C336.5868,269.2323,337.7678,270.4563,337.7678,271.9893"/>
	<path clip-path="url(#SVGID_10_)" fill="#231815" d="M358.6754,269.1932v11.5126h-3.0932v-11.5126H354.89
		c-1.3257,5.7641-4.982,9.6747-9.311,11.1294v-3.1793c3.148-1.5916,5.1854-4.3289,6.1865-7.9501h-6.0222v-2.9485h9.8389v-2.8742
		h3.0932v2.8742h2.9642v2.9485H358.6754z"/>
	<path clip-path="url(#SVGID_10_)" fill="#231815" d="M383.6016,265.3242c-0.2737,9.9015-5.9284,14.3829-12.9478,15.1142v-2.9681
		c5.6194-0.9972,9.002-4.6183,9.5456-10.3081h-11.5283v-2.9877h12.3651v-1.5916h1.8027v1.5916h0.5983v-1.5916h1.7989v2.7413
		H383.6016z"/>
	<path clip-path="url(#SVGID_10_)" fill="#231815" d="M397.5067,271.9893c0,1.5134-1.1653,2.7608-2.6201,2.7608
		c-1.4547,0-2.6161-1.2279-2.6161-2.7608c0-1.5525,1.2005-2.7569,2.6161-2.7569
		C396.3257,269.2323,397.5067,270.4563,397.5067,271.9893"/>
	<path clip-path="url(#SVGID_10_)" fill="#231815" d="M416.1247,269.9034h2.9094c0.1095,3.062,0.8564,5.42,2.272,6.7613v3.3513
		C417.6342,278.4244,416.2694,274.6703,416.1247,269.9034 M414.6348,268.6168v12.1852h-3.0228v-12.1852h-6.2921v-2.9095h6.2921
		v-2.4519h3.0228v2.4519h6.3468v2.9095H414.6348z M405.0657,280.016v-3.3513c1.4-1.3413,2.1117-3.6994,2.2212-6.7613h2.8156
		C409.9382,274.6703,408.6321,278.4244,405.0657,280.016"/>
</g>
<rect x="428.0972" y="269.6335" fill="#231815" width="15.7712" height="3.0463"/>
<g>
	<defs>
		<rect id="SVGID_13_" x="211" y="112.043" width="377.9961" height="168.7591"/>
	</defs>
	<clipPath id="SVGID_12_">
		<use xlink:href="#SVGID_13_"  overflow="visible"/>
	</clipPath>
	<path clip-path="url(#SVGID_12_)" fill="#231815" d="M450.9711,280.2068v-2.7569c1.4195-2.8547,3.672-9.5964,4.6379-13.6008h3.2888
		c-1.3061,5.0759-2.8508,9.2914-4.5636,13.3701h9.1115c-0.7978-2.5457-2.2525-5.5921-3.4178-8.1026h3.367
		c1.4704,3.1402,3.0541,6.82,4.2703,11.0903H450.9711z"/>
	<path clip-path="url(#SVGID_12_)" fill="#231815" d="M478.8074,280.4751v-2.9681c5.1462-1.0363,7.9657-4.2547,8.13-10.3825h-9.2953
		v5.2284h-2.9994v-8.1965h15.4935v1.7597C490.1362,274.8831,485.8816,279.4779,478.8074,280.4751"/>
</g>
<rect x="497.3997" y="269.6335" fill="#231815" width="15.7673" height="3.0463"/>
<g>
	<defs>
		<rect id="SVGID_15_" x="211" y="112.043" width="377.9961" height="168.7591"/>
	</defs>
	<clipPath id="SVGID_14_">
		<use xlink:href="#SVGID_15_"  overflow="visible"/>
	</clipPath>
	<path clip-path="url(#SVGID_14_)" fill="#231815" d="M522.6183,280.4947v-2.929c6.0926-0.6726,9.5104-4.0826,10.2377-10.4607
		h-6.8708c-1.095,2.796-3.2574,5.115-6.0027,6.0926v-3.2184c1.7441-1.1497,3.1441-3.105,3.672-5.8423h12.5137v0.6883
		C535.9688,274.8439,531.022,279.9785,522.6183,280.4947"/>
	<path clip-path="url(#SVGID_14_)" fill="#231815" d="M552.3079,274.9202c-2.6749,3.0268-6.2021,4.8647-9.3853,5.5569v-3.0854
		c4.1843-1.2279,8.6384-4.7904,10.0032-10.2104h-9.0568v-2.9876h12.7679c-0.1994,3.0659-1.0558,5.7094-2.3111,7.911
		c0.9659,2.5692,2.8742,4.2155,4.5284,5.1541v3.3904C555.9642,279.6519,553.6882,277.4699,552.3079,274.9202"/>
</g>
</svg>
