<?xml version="1.0" encoding="utf-8"?>
<!-- Generator: Adobe Illustrator 22.1.0, SVG Export Plug-In . SVG Version: 6.00 Build 0)  -->
<svg version="1.1" id="レイヤー_1" xmlns="http://www.w3.org/2000/svg" xmlns:xlink="http://www.w3.org/1999/xlink" x="0px"
	 y="0px" viewBox="0 0 800 400" enable-background="new 0 0 800 400" xml:space="preserve">
<rect fill="#FFFFFF" width="800" height="400"/>
<g>
	<defs>
		<rect id="SVGID_19_" x="301.4951" y="56" width="197.0097" height="318"/>
	</defs>
	<clipPath id="SVGID_2_">
		<use xlink:href="#SVGID_19_"  overflow="visible"/>
	</clipPath>
	<path clip-path="url(#SVGID_2_)" fill="#231815" d="M324.5913,105.3814c0,0.3512-0.3083,0.7492-1.1121,0.7492h-8.0109
		c-0.8896,0-3.1138,0.1327-5.6501,0.4878h-0.0898c-0.8038,0-2.0017-1.7715-2.0017-2.3022c4.3156,0.5307,6.7622,0.7102,7.9679,0.7102
		h1.1082c0.2693,0,0.6243-0.2224,0.8038-0.4878c0.5346-0.8857,2.0915-3.1411,2.6261-3.1411
		C321.0756,101.3974,324.5913,104.363,324.5913,105.3814 M308.351,118.1215c-0.0468-0.1756-0.0898-0.3512-0.0898-0.4409
		c0-0.0898,0.0429-0.1327,0.2185-0.1327c0.8038,0,6.1418,0.7531,6.1418,1.9042c0,0.2614-0.3083,0.6165-0.9326,0.9287
		c-0.7141,0.398-0.7999,0.5307-0.7999,6.8129c0,1.5491,0.0429,3.1411,0.0429,4.6005c1.0223-0.1327,2.1383-0.2653,3.2504-0.4409
		c0-2.6105,0.0429-6.1964,0.0429-9.2946c0-3.8474-0.0429-6.0169-0.4878-7.9172c-0.0429-0.1795-0.0898-0.3551-0.0898-0.4448
		c0-0.0858,0.0468-0.1327,0.2224-0.1327c0.8038,0,6.1418,0.7531,6.1418,1.9042c0,0.2653-0.3122,0.6204-0.9365,0.9287
		c-0.5307,0.3122-0.757,0.398-0.757,5.974h0.0468c0.2224,0,0.4448-0.1756,0.5775-0.398c0.4917-0.9287,1.3345-2.2125,2.0018-2.9187
		c0.0897-0.0898,0.2224-0.1366,0.359-0.1366c0.0898,0,0.1756,0,0.2224,0.0468c1.3774,0.5736,3.4689,2.9617,3.4689,3.9801
		c0,0.2653-0.1756,0.5307-0.7999,0.5307h-5.8764c0,2.5246,0.0468,5.2209,0.0468,7.2148c0.2224-0.0468,8.323-1.4164,8.4128-1.4164
		c0.2653,0,0.398,0.0429,0.398,0.1327c0,0.796-11.394,5.3536-20.2516,7.7416c-0.2185,0.0468-0.4878,0.7102-0.9326,0.7102
		c-0.8896,0-3.9606-5.0882-3.9606-5.4433c0-0.1327,0.0898-0.1756,0.2693-0.1756c0.0858,0,0.2654,0.0429,0.4878,0.0429
		c0.4019,0.0429,0.8467,0.0429,1.2916,0.0429c1.0223,0,2.0017-0.0429,2.5363-0.0858l0.1795-0.0468
		c0-2.2124,0.0429-4.6902,0.0429-6.9885C308.8388,121.7504,308.749,119.8931,308.351,118.1215 M330.3351,102.5485
		c-0.2224-0.1327-0.3551-0.2653-0.4019-0.3551c-0.0429,0.1795-0.0429,0.4409-0.0429,0.7531
		c-0.0468,1.1043-0.0897,2.2554-0.0897,3.4962c0,1.5491,0.0429,3.1841,0.1795,4.8658h5.1156c0.3122,0,0.6672-0.2224,0.8038-0.4878
		c2.31-3.3596,2.6261-3.4065,2.9343-3.4065c0.9794,0,4.6746,3.4065,4.6746,4.4249c0,0.3083-0.3122,0.6204-1.1121,0.6204h-12.2836
		c1.4672,15.0423,6.9885,19.7326,8.7679,19.7326c1.8261,0,2.9343-3.5821,4.3586-6.6374c0.2692-0.6165,0.4448-0.796,0.5346-0.796
		c0.1327,0,0.1327,0.3122,0.1327,0.398c0,1.2838-0.7531,5.2209-0.7531,7.2578c0,0.5307,0.0429,0.9716,0.1795,1.1511
		c0.5307,0.796,0.7531,1.5491,0.7531,2.2124c0,1.5023-1.2018,2.5636-3.1138,2.5636c-1.4243,0-12.8611-1.1472-15.2218-25.4841
		c0-0.1327-0.0429-0.2653-0.0429-0.398h-4.6317c-2.4466,0-11.6593,0.0859-15.573,0.4877h-0.0468
		c-0.757,0-1.9588-1.7715-1.9588-2.3451c4.4951,0.5307,15.2218,0.7063,17.7581,0.7063h4.3625
		c-0.2224-2.786-0.3122-5.3965-0.4917-8.2723c-0.0858-1.4164-0.2653-2.6573-0.4877-4.0269
		c-0.0468-0.1795-0.0468-0.2653-0.0468-0.3551c0-0.1327,0.0468-0.1756,0.2263-0.1756c0.2224,0,6.7622,0.796,6.7622,1.9432
		c0,0.3551-0.398,0.7102-1.0653,1.1082c-0.3122,0.1756-0.4487,0.3551-0.5346,0.5306c0.2654-0.2653,1.8223-0.5736,3.3831-0.5736
		c3.5586,0,5.0726,1.7676,5.0726,3.3167c0,1.3267-1.0262,2.388-2.271,2.388c-0.757,0-1.5569-0.3512-2.271-1.237
		C333.0509,104.8936,331.7593,103.3445,330.3351,102.5485"/>
	<path clip-path="url(#SVGID_2_)" fill="#231815" d="M329.7986,158.3398h-6.6725v6.2823h1.4243
		c1.9588-1.9471,3.8708-4.0698,5.6501-6.3252C330.0678,158.3398,329.978,158.3398,329.7986,158.3398 M330.6453,172.8514h-9.2986
		c-0.1795,0.3122-0.5814,0.6633-1.0692,0.9755c-0.4019,0.2653-0.4448,0.2653-0.5346,4.5107h11.749
		C331.492,172.9841,331.492,172.8514,330.6453,172.8514 M319.6962,179.4459v6.1496h11.7061
		c0.0429-1.9003,0.0898-4.0698,0.0898-6.1496H319.6962z M343.0186,165.1098c0,0.3083-0.2224,0.6204-0.9794,0.6204h-13.0406
		c-2.4895,2.2554-5.0297,4.2922-7.566,6.0169h8.9474c0.3551,0,0.6243-0.4448,0.7102-0.5775c0,0,1.2487-1.9003,1.9588-1.9003
		c0.2224,0,4.6278,1.99,4.6278,3.2738c0,0.398-0.4449,0.7531-1.3345,1.194c-0.4878,0.2224-0.5775,0.5307-0.5775,3.0085
		c0,3.2309,0.2224,8.2294,0.398,10.8398v0.0897c0,0.5736-0.398,2.1695-2.669,2.1695c-1.1121,0-2.1344-0.5775-2.1344-1.8613v-1.2838
		h-11.6632v1.4633c0,1.194-1.4243,1.9003-2.7119,1.9003c-1.1121,0-2.0915-0.4839-2.0915-1.6349v-0.2224
		c0.4448-4.1596,0.6672-10.1765,0.6672-12.346v-0.5736c-5.1194,2.7002-12.1509,5.0883-13.7547,5.0883
		c-0.1756,0-0.3122,0-0.3122-0.0898c0-0.1327,0.4019-0.3512,1.2057-0.6633c3.7342-1.3696,8.1435-3.7616,12.6816-7.0783
		c-0.0898-1.1511-0.3122-2.2554-0.4449-3.0553c0-0.1288-0.0429-0.2185-0.0429-0.2614c0-0.1366,0.0429-0.1795,0.1756-0.1795
		c0.3551,0,2.2281,0.7531,3.2933,1.194c1.6935-1.3696,3.3831-2.8758,5.0765-4.5108h-4.4951c-2.4934,0-8.6352,0.0859-12.5957,0.4839
		h-0.0468c-0.7999,0-2.0446-1.7247-2.0446-2.2983c4.3586,0.5307,11.7022,0.7063,14.5507,0.7063
		c0-2.2554,0.0468-4.2454,0.0468-6.2823c-2.2281,0-4.94,0.0898-8.6781,0.4409h-0.0468c-0.757,0-1.912-1.6779-1.912-2.2086
		c4.183,0.5307,8.2333,0.6633,10.5901,0.6633c0-3.6289-0.398-6.5515-0.6672-7.6129c-0.0429-0.1756-0.0898-0.3082-0.0898-0.4409
		c0-0.0898,0.0898-0.1327,0.2693-0.1327c0.2653,0,6.9885,1.0184,6.9885,2.2554c0,0.3122-0.359,0.7102-1.3384,1.194
		c-0.6672,0.3122-0.7102,0.796-0.8428,4.7371h0.8428c0.1366,0,0.4917-0.1327,0.5814-0.3551
		c0.6204-1.4164,1.6428-2.9655,2.1344-2.9655c0.0898,0,0.1795,0,0.2693,0.0468c1.4203,0.5307,3.7342,3.0046,3.7342,3.7147
		c3.6952-4.78,4.2727-5.8843,4.7644-7.7885c0.0897-0.398,0.1327-0.5307,0.2224-0.5307c0.6243,0,5.9623,2.9656,5.9623,4.0737
		c0,0.5307-0.9794,0.7492-2.0017,0.7921c-0.4448,0.0468-0.7999,0.6672-1.2916,1.2838c-2.6261,3.4104-5.338,6.4618-8.1435,9.1151
		h4.183c0.3122,0,0.6243-0.1756,0.757-0.398c0.0468-0.0429,2.271-3.6718,3.1177-3.6718c0.0858,0,0.1756,0,0.2654,0.0429
		C339.9907,161.1297,343.0186,164.0914,343.0186,165.1098"/>
	<path clip-path="url(#SVGID_2_)" fill="#231815" d="M343.6429,224.6205c0,1.7715-1.2018,3.0982-2.6261,3.0982
		c-1.1121,0-2.3139-0.796-3.1606-2.7002c-1.1589-2.6534-3.5626-7.211-6.5866-10.0438c-0.4878-0.4409-0.757-0.7531-0.757-0.8858
		c0-0.0429,0.0468-0.0429,0.1327-0.0429C332.3388,214.046,343.6429,219.1771,343.6429,224.6205 M328.1987,204.0021
		c0,0.3551-0.4448,0.7063-1.0692,1.1043c-0.8428,0.5775-0.9326,1.1511-0.9326,11.55c0,6.5047,0.1327,14.0707,0.3551,16.8568v0.4878
		c0,5.0024-5.1195,5.7087-6.1847,5.7087c-0.6243,0-1.116-0.2224-1.514-0.9287c-1.0262-1.9042-6.1418-3.9411-6.1418-4.2493
		c0,0,0-0.0429,0.0898-0.0429c0.0858,0,0.2224,0,0.3551,0.0429c2.3139,0.3551,3.9606,0.5307,5.2053,0.5307
		c2.7587,0,3.2504-0.8389,3.2933-2.0798c0.0898-1.5491,0.1366-6.1067,0.1366-11.1052c0-13.8483-0.1366-16.1505-0.7141-19.159
		c0-0.1327-0.0429-0.2185-0.0429-0.2653c0-0.2224,0.0858-0.2654,0.2654-0.2654
		C321.4794,202.1877,328.1987,202.894,328.1987,204.0021 M318.229,216.9218c0,0.3551-0.5346,0.6633-1.3345,0.8428
		c-0.6673,0.1327-0.9794,0.1756-1.4243,0.8389c-6.6335,9.9541-13.1303,11.9012-13.1732,11.9012c-0.0429,0-0.0429,0-0.0429-0.0429
		c0-0.1327,0.2654-0.4409,0.9326-1.0614c2.669-2.4349,7.8782-11.152,8.1436-15.2218c0.0468-0.4877-0.0429-0.6633,0.2224-0.6633
		C312.7545,213.5153,318.229,215.7277,318.229,216.9218"/>
	<path clip-path="url(#SVGID_2_)" fill="#231815" d="M329.1496,278.0693l-0.1327,0.0898c-0.2692,0.1756-0.2692,0.4409-0.2692,0.7062
		c-0.0429,1.194-0.0858,2.7431-0.0858,4.3352c0,1.1511,0.0429,2.3022,0.0429,3.4104h6.3213
		c0.0429-2.1695,0.0429-4.382,0.0429-6.0638c0-2.3451-0.0429-2.4778-0.6673-2.4778H329.1496z M331.3309,265.7701
		c1.9588-3.0553,3.0709-6.0638,3.0709-6.2823c0-0.2693-0.1327-0.2693-0.2653-0.2693h-5.0765l-0.7999,1.4633
		C328.9702,262.5392,329.9964,264.2639,331.3309,265.7701 M310.9896,256.5223l-0.3551,0.3083
		c-0.2653,0.1756-0.2653,0.4448-0.2653,0.7531c-0.0429,1.3267-0.0898,2.7002-0.0898,4.1166c0,0.9716,0.0468,1.9901,0.0468,2.9617
		h5.7828c0.0429-2.2125,0.0898-3.9801,0.0898-5.5292c0-0.7102,0-1.3267-0.0468-1.9471c0-0.4409-0.3083-0.6633-0.6673-0.6633
		H310.9896z M322.0284,274.5302c0,0.2654-0.1795,0.4878-0.7999,0.4878h-5.1195c0,3.1411,0.0429,6.5047,0.0429,8.405
		c2.3607-0.6633,4.6317-1.3696,6.6764-2.0798c0.757-0.2654,1.2018-0.3551,1.4243-0.3551c0.0898,0,0.1366,0,0.1366,0.0468
		c0,0.1756-0.4917,0.5307-1.2487,1.0184c-5.3848,3.4923-13.2591,6.77-16.1076,8.0499c-0.4487,0.1795-0.4917,0.8428-0.8936,0.8428
		c-0.8896,0-3.9137-4.1596-3.9137-4.6473c0-0.0898,0.1327-0.1327,0.4878-0.1756c1.0692-0.0429,2.6729-0.1795,3.2036-0.2653
		l0.359-0.0898c0-3.6289,0.0429-10.3092,0.0429-10.5316c0-1.4164-0.1327-2.8329-0.4448-4.2454
		c-0.0429-0.1327-0.0898-0.2653-0.0898-0.3122c0-0.0858,0.0898-0.1327,0.2693-0.1327c1.3306,0,5.5604,1.0652,5.5604,2.0369
		c0,0.3083-0.3083,0.6634-1.2448,0.9716c-0.2654,0.0897-0.4019,0.3122-0.4449,0.7531v10.7072l2.1812-0.5307
		c0-4.1595,0.0429-15.0423,0.0429-15.3076c0-1.2408,0-2.2125-0.1327-3.3636h-1.6466v1.5491c0,1.194-1.2448,1.9003-2.4466,1.9003
		c-0.9794,0-1.869-0.4839-1.869-1.6779v-0.1795c0.2653-3.2738,0.3083-5.1312,0.3083-6.813c0-3.0982-0.0858-4.7332-0.4878-7.2578
		c0-0.0858-0.0429-0.1756-0.0429-0.2185c0-0.0897,0.0429-0.1327,0.1327-0.1327c0.1327,0,3.6484,1.194,5.0726,2.2554l0.1756,0.1327
		h4.144c0.1288,0,0.3083,0,0.4878-0.2653c0,0,1.2448-1.8574,1.6466-1.8574c0.5775,0,4.183,2.1227,4.183,3.1411
		c0,0.3083-0.2224,0.6633-0.8467,1.1043c-0.8467,0.5775-0.8467,0.6633-0.8467,2.1695c0,1.5491,0.1366,3.3635,0.2693,5.9272v0.0898
		c0,1.1082-1.3345,1.8144-2.4934,1.8144c-0.4878,0-0.9326-0.1327-1.2448-0.398c-0.4019,0.3083-0.4019,0.3083-0.4019,6.813
		c0.1327,0,0.4019-0.1327,0.5346-0.3551c1.1121-2.1227,1.4672-2.6963,1.9588-2.6963l0.398-0.4878
		c3.3831-4.2025,7.8353-14.1136,8.1474-17.8323c0.0429-0.2653,0.0898-0.3083,0.1756-0.3083c0.6243,0,5.5643,1.7676,5.5643,2.7861
		c0,0.3121-0.4448,0.6204-1.6896,0.7531c-0.4019,0.0429-0.5775,0.4409-0.8038,0.9287l-0.7531,1.4164h4.5381
		c0.3122,0,0.5346-0.3083,0.5775-0.3551c0.1795-0.3083,1.0692-1.1511,1.3813-1.1511c0.3083,0,4.3156,2.0369,4.3156,3.2777
		c0,0.4409-0.5346,0.7063-1.0223,0.8389c-0.4019,0.0898-0.8467,0.3551-1.0692,0.8389c-1.2018,2.4817-2.669,4.6902-4.3625,6.7271
		c3.0709,2.388,6.9886,4.0698,11.4837,4.6902c0.1327,0,0.1795,0.0429,0.1795,0.0898c0,0.2185-3.3831,1.0613-4.8502,2.7431
		c-0.3161,0.3512-0.6243,0.5736-1.0262,0.5736c-0.6673,0-4.6278-1.9471-7.8782-5.8413c-1.8691,1.7715-3.9606,3.3636-6.2745,4.6044
		c1.2448,0.398,2.9811,1.1043,3.7381,1.592l0.1327,0.1327h4.897c0.1795,0,0.4019,0,0.5775-0.2654
		c0.2224-0.3551,0.9365-1.1082,1.1121-1.1082c0.6712,0,4.6278,2.0798,4.6278,2.7899c0,0.2185-0.1288,0.4409-0.6204,0.7492
		c-0.8897,0.5775-0.8897,0.5775-0.8897,1.9471c0,1.8613,0.1327,5.5331,0.3122,7.9641v0.1327c0,1.2408-1.3345,1.9939-2.5363,1.9939
		c-1.0262,0-2.0056-0.5307-2.0056-1.7247v-0.0468c0-0.4839,0.0468-1.0184,0.0468-1.5491h-6.3213
		c0,0.6633,0.0429,1.2838,0.0429,1.8144v0.0468c0,1.3267-1.4672,1.8574-2.5363,1.8574c-1.0223,0-1.9588-0.4878-1.9588-1.6389
		v-0.2185c0.2692-3.0982,0.3122-6.2862,0.3122-8.5416c0-1.9471,0-3.8942-0.1756-5.3107c-2.985,1.4633-5.8765,2.1695-6.3213,2.1695
		c-0.1795,0-0.2224,0-0.2224-0.0897c0-0.1327,0.3122-0.3512,0.9326-0.6634c4.542-2.2554,8.2801-5.5292,11.1715-9.3805
		c-1.0652-1.8144-1.9549-3.8045-2.4037-5.9272c-3.0241,4.8658-5.8726,7.5231-8.4089,9.201
		C320.4715,271.8729,322.0284,273.9098,322.0284,274.5302"/>
	<path clip-path="url(#SVGID_2_)" fill="#231815" d="M395.8174,286.7861c0,0.3551-4.7176,2.2125-6.1847,4.0698
		c-0.3122,0.398-0.6711,0.5307-1.0692,0.5307c-3.5157,0-10.3248-4.5576-12.506-11.8114h-0.4917
		c-2.1773,6.0169-8.0538,11.1481-20.6925,11.9441h-0.4019c-0.4449,0-0.7999-0.0429-0.7999-0.1327
		c0-0.1327,0.3083-0.2654,1.0652-0.398c9.1269-1.7676,14.1097-6.0169,16.2481-11.4134h-1.0692
		c-2.4934,0-8.1435,0.0858-11.8856,0.4838h-0.0429c-0.7999,0-2.2242-1.7247-2.2242-2.2554
		c4.3625,0.5307,11.749,0.6634,14.3322,0.6634h1.2877c0.4917-1.6349,0.757-3.3636,0.8468-5.1312
		c-2.4037,0.0429-5.5643,0.1327-8.5455,0.4409h-0.0429c-0.8038,0-2.1812-1.6818-2.1812-2.2125
		c3.4689,0.4449,7.8314,0.5775,10.7696,0.6204c0.0429-1.5062,0.0897-2.786,0.0897-3.9839v-0.839
		c-2.5831,0-6.4539,0.0898-9.7941,0.4409h-0.0429c-0.757,0-2.0915-1.6818-2.0915-2.2124c3.8279,0.4448,8.9474,0.6204,11.8817,0.6672
		c-0.0858-1.4164-0.1756-3.188-0.7531-5.3107c-0.0468-0.1795-0.0898-0.3122-0.0898-0.3551c0-0.1327,0.0898-0.1756,0.1756-0.1756
		c0.6243,0,6.6335,0.796,6.6335,1.9471c0,0.2654-0.2693,0.5736-0.7141,0.9287c-0.4878,0.398-0.7102,0.6634-0.7102,1.0614
		l-0.0898,1.9042h4.1362c0.2692,0,0.5814-0.1795,0.7141-0.398c2.1344-2.9226,2.3607-3.145,2.7588-3.145
		c0.3551,0,0.8896,0.3122,0.8896,0.3122c0.4917-0.9287,1.6037-3.0553,1.6037-3.4962c0-0.1327-0.1795-0.1795-0.3122-0.1795h-23.7673
		v0.4448c0,4.78-3.5587,5.7516-4.581,5.7516c-1.3813,0-2.4505-0.9287-2.4505-2.1695c0-0.8389,0.4917-1.8574,1.7364-2.7431
		c1.9588-1.4125,3.4728-2.5636,3.7382-4.6434c0.0897-0.7102,0.1795-1.1082,0.3122-1.1082c0.1327,0,0.2692,0.2653,0.4916,0.8428
		c0.3083,0.8389,0.5307,1.6818,0.6673,2.5207h9.5678c0-2.7002-0.0898-4.382-0.5346-6.2823
		c-0.0429-0.1756-0.0897-0.3083-0.0897-0.4409c0-0.0898,0.0897-0.1327,0.2692-0.1327c0.1327,0,6.9417,0.7063,6.9417,1.99
		c0,0.3083-0.3551,0.6633-1.3345,1.1511c-0.6672,0.3083-0.6672,0.5736-0.7999,3.7147h9.8331c0.1795,0,0.4917-0.0858,0.6243-0.2654
		c0.0429-0.0897,1.5569-1.8144,1.9588-1.8144c1.0652,0,4.9829,2.8758,4.9829,4.3351c0,0.6204-0.6672,1.0184-2.271,1.2408
		c-1.5101,0.2224-3.426,1.1511-5.338,2.1227c0.398,0.3122,2.3568,1.9471,2.3568,2.9226c0,0.3083-0.1756,0.5736-0.9326,0.5736
		h-11.2144c-0.0468,1.4164-0.0468,3.0085-0.0468,4.8658h2.7158c0.2654,0,0.5775-0.1756,0.7141-0.398
		c0.5736-0.796,1.3306-2.1227,2.2202-2.8758c0.0898-0.0858,0.2693-0.1327,0.4019-0.1327c0.0898,0,0.1795,0,0.2692,0.0468
		c1.5569,0.5736,4.1362,2.786,4.1362,3.8903c0,0.3122-0.1756,0.5775-0.9326,0.5775h-9.5249c0,1.7247-0.2224,3.4494-0.7102,5.1312
		h8.9864c0.2693,0,0.5814-0.1756,0.7141-0.398c0.5775-0.796,1.6467-2.786,2.5363-3.5392c0.0898-0.0898,0.2692-0.1327,0.4019-0.1327
		c0.0898,0,0.1756,0,0.2654,0.0429c1.2916,0.4878,4.4054,3.586,4.4054,4.5576c0,0.3122-0.1756,0.5775-0.9326,0.5775h-15.4442
		c3.3831,4.3351,9.9697,7.0783,18.7376,7.1212C395.7277,286.6963,395.8174,286.7432,395.8174,286.7861"/>
	<path clip-path="url(#SVGID_2_)" fill="#231815" d="M435.5151,261.7428c0,1.194-1.0692,2.1656-2.1344,2.1656
		c-0.6673,0-1.3813-0.3941-1.8262-1.3696c-0.3551-0.7531-0.9794-2.4349-1.8261-3.1841c-0.1756-0.1795-0.398-0.3122-0.398-0.398
		c0-0.0898,0.1327-0.1366,0.6673-0.1366C430.6649,258.8202,435.5151,258.867,435.5151,261.7428 M434.8049,283.5123
		c0,1.1043-0.9794,1.9901-2.0486,1.9901c-0.7141,0-1.4672-0.4409-2.0017-1.4594c-0.359-0.7531-0.757-1.9901-1.6037-2.7002
		c-0.4878-0.398-0.7102-0.6165-0.7102-0.7063s0.1756-0.0898,0.8896-0.0898C430.7976,280.5897,434.8049,280.7262,434.8049,283.5123
		 M444.3259,257.7589c0,0.2653-0.1756,0.4877-0.8896,0.4877h-13.7079c-3.5157,3.6718-6.809,5.9311-7.6987,5.9311
		c-0.0898,0-0.0898,0-0.0898-0.0898s0.1327-0.3551,0.4917-0.7102c2.3568-2.5207,5.9623-9.3336,6.3642-11.6788
		c0.0429-0.398,0.0429-0.5307,0.2224-0.5307c0.1327,0,5.697,1.99,5.697,3.0085c0,0.3551-0.5346,0.6204-1.3813,0.6633
		c-0.3122,0.0429-0.6205,0.0429-0.8897,0.3551c-0.4878,0.6165-1.0692,1.2838-1.6896,1.9901h5.338
		c0.2692,0,0.5775-0.1756,0.7141-0.398c2.2242-3.0514,2.4466-3.3206,2.9344-3.3206c0.0936,0,0.1795,0.0468,0.2224,0.0468
		C441.3448,253.9973,444.3259,256.6975,444.3259,257.7589 M417.0468,274.7522c0,1.2798,0.0429,2.5207,0.0429,3.5391h6.6335
		c0-0.9755,0.0429-2.2124,0.0429-3.5391H417.0468z M423.7661,270.3702h-6.7193v3.2738h6.7193V270.3702z M423.5437,265.68h-5.5175
		l-0.2263,0.1795c-0.5307,0.3512-0.6672,0.3083-0.7102,1.8105c0,0.4449-0.0429,1.0184-0.0429,1.6389h6.7193
		C423.7661,268.1149,423.7232,266.874,423.5437,265.68 M418.6935,289.1312c-1.116,0-2.1383-0.7063-2.1383-2.2124
		c0-0.2654,0.0468-0.5736,0.1327-0.9287c0.2693-1.0613,0.6673-2.4348,0.6673-3.5391c0-0.1795,0-0.3551-0.0429-0.5307
		c-0.0429-0.1795-0.0429-0.3122-0.0429-0.398c0-0.2224,0.0429-0.3122,0.1756-0.3122c0.4916,0,4.0971,2.2593,4.0971,4.7332
		C421.5419,287.9801,420.1177,289.1312,418.6935,289.1312 M421.0074,261.7858c0,1.1511-1.1121,2.1227-2.2281,2.1227
		c-0.7102,0-1.4672-0.3941-1.912-1.3696c-0.3551-0.7531-1.0223-2.4349-1.9159-3.1841c-0.1756-0.1795-0.4448-0.3122-0.4448-0.398
		c0-0.0898,0.1795-0.1366,0.7141-0.1366C417,258.8202,421.0074,259.0894,421.0074,261.7858 M444.6381,279.8834
		c0,0.3551-0.3122,0.7063-1.2018,1.0613c-0.4448,0.1795-0.7102,0.4449-0.7999,0.9755c-0.4917,2.4309-2.0915,9.5132-9.3024,9.599
		c-0.8897,0-1.3345-0.4409-1.5999-0.9716c-0.7141-1.4594-3.6055-3.2738-4.1869-3.9372c-0.398,0.398-0.9755,0.6165-1.5101,0.6165
		c-0.8896,0-1.7832-0.5736-2.0915-1.9901c-0.2224-1.0613-0.4916-2.5207-1.1589-3.4494c-0.2224-0.3122-0.3551-0.5307-0.3551-0.6204
		c0-0.0897,0.0429-0.1327,0.2224-0.1327c1.4243,0,5.5175,1.4164,5.5175,4.0269c0,0.5307-0.1756,0.9716-0.4449,1.3267
		c0.0898,0,0.2224,0,0.3551,0.0429c2.0486,0.5307,3.6055,0.8428,4.8541,0.8428c1.5569,0,2.6261-0.4878,3.426-1.5491
		c1.155-1.5062,1.912-5.1351,1.912-5.6189c0-0.2654-0.2224-0.5775-0.4448-0.5775h-20.6964
		c-0.1327,1.1082-1.4672,1.7715-2.669,1.7715c-1.1121,0-2.0915-0.5307-2.0915-1.7247v-0.0898
		c0.1795-4.4249,0.359-9.0722,0.359-11.55v-0.796c0-0.6165-0.0937-3.1411-0.4488-4.8229c-0.0429-0.1327-0.0429-0.2185-0.0429-0.3083
		c0-0.0429,0-0.0898,0.0429-0.0898c0.1327,0,4.7644,1.7715,5.8765,2.5246l0.2224,0.1327h16.2012
		c0.1327,0,0.3083-0.0898,0.4449-0.3122c0.0897-0.1327,1.6427-2.6104,2.4895-2.6104c0.0897,0,0.1795,0.0468,0.2224,0.0468
		c1.4242,0.5307,3.8279,2.6963,3.8279,3.4065c0,0.3083-0.2224,0.5736-0.8897,0.5736h-11.9714l0.3122,0.0898
		c0.3551,0.0897,0.6243,0.3083,0.6243,0.5307c0,0.2654-0.2692,0.5307-1.0692,0.8857c-0.2692,0.1327-0.4916,0.3083-0.4916,0.796
		c0,0.398-0.0429,0.839-0.0429,1.3267h4.183c0.1327,0,0.3122-0.1327,0.4449-0.3083c0.2692-0.4878,1.6935-2.3451,2.4036-2.3451
		c1.0223,0,3.9606,2.3451,3.9606,3.1411c0,0.2654-0.1756,0.5736-0.8428,0.5736h-10.1921v3.2738h4.2259
		c0.1327,0,0.3122-0.1327,0.4449-0.3083c0.2692-0.4878,1.6935-2.3451,2.4036-2.3451c0.4917,0,3.9606,2.1227,3.9606,3.1411
		c0,0.3083-0.1756,0.6204-0.8428,0.6204h-10.1921c0,1.3696-0.0468,2.6104-0.0468,3.5391h9.3025
		c0.4448,0,0.8467-0.1327,1.0223-0.3083c0.2654-0.2692,1.3813-1.4633,1.6896-1.4633
		C440.8141,276.5198,444.6381,279.0445,444.6381,279.8834 M414.0188,285.1472c0,4.4249-3.2036,6.0208-4.8502,6.0208
		c-1.514,0-2.5832-1.1511-2.5832-2.4349c0-0.9287,0.5814-1.9042,1.9588-2.5675c2.4037-1.1511,3.4728-2.6534,4.0074-4.3351
		c0.1795-0.5736,0.3083-0.796,0.4448-0.796C413.2189,281.0345,414.0188,282.9816,414.0188,285.1472 M425.6352,257.7159
		c0,0.2654-0.1795,0.5307-0.8468,0.5307h-10.235c-3.7811,4.0698-8.323,7.0783-9.123,7.0783c-0.0898,0-0.1327,0-0.1327-0.0858
		c0-0.1327,0.2224-0.398,0.6633-0.8858c3.6523-3.7616,7.0354-10.8867,7.4802-12.8299c0.0429-0.2224,0.0429-0.3122,0.1795-0.3122
		c0.1756,0,5.5604,2.0798,5.5604,3.2738c0,0.398-0.5346,0.5775-1.5569,0.6204c-0.4019,0-0.6672,0.1756-1.0223,0.6633l-1.116,1.4164
		h2.7158c0.2692,0,0.5346-0.1756,0.6672-0.398c0.5346-0.796,1.4711-2.2124,2.271-2.9655c0.1327-0.0858,0.2653-0.1327,0.4019-0.1327
		c0.0858,0,0.1756,0.0468,0.2224,0.0468C423.2315,254.3524,425.6352,256.7873,425.6352,257.7159"/>
	<path clip-path="url(#SVGID_2_)" fill="#231815" d="M468.357,269.088c0.0468,1.2369,0.0468,2.4778,0.0468,3.6289h6.9846
		c0-1.2408,0.0468-2.4778,0.0468-3.6289H468.357z M468.3141,264.7061v3.3206h7.1212c0-1.1979,0-2.3022-0.0468-3.3206H468.3141z
		 M469.4691,260.1485c-1.0653,0.5307-1.155,0.5775-1.155,3.4962h7.0744c-0.0429-1.1511-0.0858-2.3451-0.2654-3.4962H469.4691z
		 M468.4467,273.7783v0.1756c0,1.4164-1.6896,2.0369-2.669,2.0369c-1.1121,0-2.0915-0.5775-2.0915-1.8145v-0.2653
		c0.398-3.7616,0.5346-7.6129,0.5346-9.9112v-0.8858c-3.028,3.0982-6.8091,5.8413-7.7455,5.8413
		c-0.0898,0-0.1327-0.0468-0.1327-0.0898c0-0.0858,0.1327-0.2653,0.4019-0.5307c3.5157-3.3636,9.3454-12.4787,10.0126-16.1505
		c0.0429-0.3551,0.0858-0.4838,0.2224-0.4838c0.3122,0,5.6501,2.1227,5.6501,3.227c0,0.398-0.6673,0.5775-1.514,0.6204
		c-0.6672,0.0429-0.7531,0.0898-1.1121,0.6204c-0.5346,0.7492-1.0652,1.4594-1.5999,2.1227l0.7999,0.4878l0.4448,0.3083h6.0989
		l0.0429-0.1756c0.4448-1.994,0.6672-4.0269,0.6672-5.4863v-0.6633c0-0.2224-0.0429-0.3551-0.0429-0.4448
		c0-0.1327,0.0429-0.1756,0.1756-0.1756c1.1589,0,6.1457,1.7715,6.1457,2.7002c0,0.3512-0.4488,0.5736-1.2916,0.7492
		c-0.2692,0.0468-0.4916,0.0898-0.8038,0.3551c-1.2018,1.1082-2.4895,2.2554-3.7811,3.1411h8.1904
		c0.2653,0,0.5346-0.2185,0.6672-0.398c1.3774-1.9042,2.2242-2.9187,2.7588-2.9187c0.0858,0,0.1795,0.0429,0.2224,0.0429
		c1.3813,0.4877,4.3586,2.9187,4.3586,3.7147c0,0.3122-0.2224,0.6204-0.9326,0.6204h-12.4631
		c0.2263,0.0468,0.4916,0.0898,0.7141,0.1795c0.4448,0.1327,0.8467,0.3512,0.8467,0.6165c0,0.2224-0.2224,0.4877-0.9365,0.7531
		c-0.3122,0.1327-0.4449,0.3122-0.4878,0.7531c0,0.398-0.0898,0.796-0.0898,1.194h3.028c0.2653,0,0.5307-0.1756,0.6672-0.3551
		c0.4878-0.6634,2.0447-2.431,2.669-2.431c0.0897,0,0.1795,0.0429,0.2224,0.0429c1.514,0.5307,4.0074,2.3881,4.0074,3.2309
		c0,0.2653-0.2224,0.5736-0.9365,0.5736h-9.6575c-0.0468,1.0613-0.0898,2.2124-0.0898,3.3206h3.1177
		c0.2653,0,0.5307-0.1795,0.6672-0.3551c0.4878-0.6634,2.0447-2.4349,2.669-2.4349c0.0897,0,0.1795,0.0468,0.2224,0.0468
		c1.514,0.5307,4.0074,2.3881,4.0074,3.227c0,0.2692-0.2224,0.5775-0.9365,0.5775h-9.7473c0,1.2838,0.0429,2.5207,0.0429,3.6289
		h6.7661c0.2692,0,0.5346-0.1795,0.6672-0.3551c0.4448-0.6204,2.1383-2.7002,2.7627-2.7002c0.0858,0,0.1756,0.0468,0.2224,0.0468
		c1.553,0.5307,4.3586,2.6963,4.3586,3.4923c0,0.2653-0.2224,0.5775-0.9326,0.5775H468.4467z M479.9304,279.3972
		c3.4728,3.6289,10.1024,6.4618,18.0235,7.168c0.1327,0,0.1795,0.0429,0.1795,0.0858c0,0.4019-4.4951,1.994-6.0091,3.4104
		c-0.3122,0.2653-0.6204,0.398-0.9365,0.398c-2.2671,0-9.7004-5.0453-12.1041-10.9764c-0.0429,0.7531-0.0429,1.5491-0.0429,2.3919
		c0,3.0085,0.1756,6.2394,0.3122,8.0967v0.0898c0,0.9716-1.2916,1.9471-2.8056,1.9471c-1.0692,0-2.0017-0.4877-2.0017-1.6388
		v-0.2654c0.2654-1.99,0.3122-5.3536,0.3122-7.7416c-6.0989,5.6189-11.3081,7.6519-18.0703,8.803
		c-0.3122,0.0429-0.5346,0.0898-0.7102,0.0898c-0.2693,0-0.4019-0.0468-0.4019-0.1327c0-0.1327,0.3122-0.3551,0.8897-0.5775
		c5.6541-1.99,11.8387-6.6374,15.7525-11.1481h-0.4448c-2.2242,0-8.4089,0.0858-12.0144,0.4878h-0.0429
		c-0.757,0-2.0056-1.7286-2.0056-2.2593c4.0932,0.5307,11.9285,0.7102,14.2424,0.7102h2.8056c0-1.2408-0.0898-2.4349-0.4019-3.8513
		c-0.0429-0.2185-0.1327-0.3512-0.1327-0.4409c0-0.0468,0.0429-0.0468,0.1756-0.0468c0.6243,0,6.3642,0.6672,6.3642,1.6818
		c0,0.3122-0.398,0.6633-1.155,0.9755c-0.3122,0.1327-0.4448,0.3083-0.4917,0.9287c0,0.2224-0.0858,0.4877-0.0858,0.7531h8.6781
		c0.2654,0,0.5346-0.1795,0.6673-0.398c0.757-1.2408,2.3139-3.0553,2.7119-3.0553c0.5385,0,4.8541,2.6573,4.8541,3.9372
		c0,0.3122-0.1795,0.5775-0.8896,0.5775H479.9304z"/>
	<path clip-path="url(#SVGID_2_)" fill="#231815" d="M439.8975,201.1373c-2.5402-4.0113-8.9708-8.9161-13.4542-12.0378
		c-1.0457-0.7453-1.6427-1.1901-1.6427-1.3384c0-0.1483,0.2966-0.1483,0.7453-0.1483c10.6135,0,23.4707,5.2014,23.4707,12.4865
		c0,2.6729-1.6428,4.7566-3.8825,4.7566C443.4874,204.8559,441.5441,203.8141,439.8975,201.1373 M448.8683,151.0469
		c-7.1758,0-13.7547,0.2966-28.2546,1.3384h-0.1522c-2.5402,0-5.9818-5.3497-5.9818-6.9846
		c19.4399,1.6349,26.4636,1.9315,33.6433,1.9315c0.1483-6.8403,0.1483-12.4865,0.1483-20.0681
		c-5.9818,0-10.4653,0.2966-21.231,1.3384h-0.1483c-2.5402,0-5.9818-5.2014-5.9818-6.8363
		c12.1119,1.4867,20.3335,1.9315,27.3611,2.0798c0-1.1901,0.1483-2.5285,0.1483-3.863c0-4.1635-0.1483-15.015-2.0915-21.8514
		c-0.1483-0.2966-0.1483-0.5931-0.1483-0.7414c0-0.1522,0-0.3005,1.4945-0.3005c1.3423,0.1483,13.4542,1.3384,13.4542,4.7566
		c0,1.1901-1.194,2.3802-3.4377,3.2699c-2.0915,0.7453-2.0915,0.7453-2.5402,18.7298h13.3059c0.2965,0,1.4945-0.4448,1.9432-1.1901
		c3.8864-6.2393,4.6317-7.1329,6.1262-7.1329c0.4526,0,0.7492,0.1483,1.0496,0.1483c2.8407,1.0418,9.7161,7.7299,9.7161,9.8097
		c0,0.8936-0.7453,1.7832-3.1372,1.7832h-29.0038v20.0681h21.0788c0.2966,0,1.4945-0.2966,1.9432-1.0418
		c5.0844-7.4295,5.5331-7.5817,6.5788-7.5817c0.4488,0,0.7492,0.1522,1.0457,0.1522c3.5899,1.1862,10.9179,8.4713,10.9179,10.2545
		c0,0.8897-0.9014,1.9315-3.7382,1.9315H448.8683z M470.0992,177.0578c0,3.2699-0.1483,7.1368-0.1483,10.8516
		s0.1483,7.4334,0.1483,10.555c0,1.4828,0.597,12.0378,0.597,15.1594c0,13.6766-13.903,16.65-16.8919,16.65
		c-1.1979,0-1.3462-0.597-2.5441-1.7871c-1.795-1.7832-18.9873-8.323-18.9873-9.361c0,0,0.1483-0.1522,0.4487-0.1522
		c0.4487,0,1.0457,0.1522,1.9432,0.3005c6.1301,1.1862,11.2144,1.7832,15.253,1.7832c9.2673,0,13.1537-2.9734,13.3059-8.0265
		c0.2965-7.2851,0.2965-13.6766,0.2965-18.878c0-7.2851-0.1483-12.9313-0.2965-17.0948h-14.9526
		c-7.1758,0-13.7547,0.3005-28.2585,1.3384h-0.1483c-2.5402,0-5.9818-5.498-5.9818-7.1329
		c20.3335,1.7832,27.361,2.0798,34.8373,2.0798h14.3517c0-3.5665-0.1483-10.9998-1.7949-17.3914
		c-0.1483-0.2966-0.1483-0.5931-0.1483-0.7414c0-0.2966,0.1483-0.597,0.597-0.597c0.1522,0,13.7547,1.0418,13.7547,4.3117
		c0,0.7414-0.4488,1.4867-1.3423,1.7832c-2.8407,1.1901-3.5899,0.8897-3.8903,8.1748c0,1.1901-0.1483,2.6768-0.1483,4.46h7.1758
		c0.3004,0,1.6467-0.4448,2.0954-1.1901c4.6317-6.8364,5.3809-7.4295,6.7271-7.4295c0.4487,0,0.7453,0.1483,1.0457,0.1483
		c3.8864,1.3345,11.3627,8.1748,11.3627,10.1062c0,1.0419-0.8975,2.0798-3.7381,2.0798H470.0992z M401.1737,214.2169
		c0.1522-5.7945,0.1522-10.2545,0.1522-14.418c0-3.4182,0-6.5398-0.3004-10.1062c0-0.1483-0.1483-1.3384-0.8975-1.3384h-18.2381
		c-0.3005,0.1483-0.597,0.3005-0.8975,0.597c-2.5441,1.7832-2.0954,3.2699-2.2437,5.6462
		c-0.1483,6.8403-0.1483,13.2318-0.1483,19.6194H401.1737z M408.65,221.0571c0,2.6729-2.2437,4.1595-4.3352,4.1595
		c-1.6466,0-3.2894-1.0379-3.2894-3.5664v-3.5665h-22.2767v6.6881c0,2.3763-2.3919,3.8669-4.4834,3.8669
		c-1.4945,0-2.8407-0.8936-2.8407-2.8251v-0.4487c0.8975-11.2964,1.0457-16.053,1.0457-21.4026
		c0-13.9732-1.0457-20.3647-1.9432-24.0794c0-0.4448-0.1522-0.7414-0.1522-0.8896c0-0.3005,0.1522-0.4487,0.3004-0.4487
		c1.194,0,8.8225,3.5665,11.3627,5.3536l0.4487,0.2966h15.2491c0.7492,0,1.4945-0.4448,1.9432-1.1901
		c0.6009-1.0419,2.0954-2.9734,2.8407-3.2699h0.4487c0.4487,0,1.0497,0.1483,1.795,0.4448
		c5.9818,2.9734,8.6703,5.2014,8.6703,7.2851c0,1.7832-2.392,2.6729-3.2894,3.2699c-2.0915,1.1901-2.5402,2.8251-2.5402,8.6196
		c0,5.5019,0.4487,12.3382,1.0457,21.4065V221.0571z M391.1572,168.4382c-4.3352,0-8.9708,0.1483-15.6979,1.3384h-0.1483
		c-1.795,0-5.5331-4.9049-5.5331-7.1368c8.522,1.6349,17.0441,2.0837,21.5314,2.0837h2.989c0.3005,0,1.0457-0.4487,1.4945-1.1901
		c1.4945-2.8251,4.0386-5.9467,4.9361-5.9467c0.2965,0,0.597,0,0.7453,0.1483c5.5331,2.6768,8.3738,6.6881,8.3738,8.7718
		c0,0.8897-0.597,1.9315-2.6924,1.9315H391.1572z M391.1572,148.8188c-4.3352,0-8.9708,0.1483-15.6979,1.3384h-0.1483
		c-1.795,0-5.5331-4.6083-5.5331-7.1368c8.522,1.635,17.1924,2.0798,21.6797,2.0798h2.8407c0.3005,0,1.0457-0.4448,1.4945-1.1901
		c3.1411-5.7945,4.6356-5.9428,5.0844-5.9428c0.2966,0,0.597,0,0.7453,0.1483c3.2894,1.635,8.2255,5.9467,8.2255,8.6196
		c0,1.0418-0.597,2.0837-2.6924,2.0837H391.1572z M391.1572,109.5761c-4.3352,0-8.9708,0.2965-15.6979,1.3384h-0.1483
		c-2.0954,0-5.5331-4.9048-5.5331-7.1368c8.522,1.6388,17.1924,2.0837,21.6797,2.0837h2.2437c0.2966,0,1.194-0.4448,1.6428-1.1901
		c0.7492-1.3384,3.5899-6.3915,5.2326-6.3915c0.3004,0,0.597,0,0.7492,0.1483c5.5331,2.6768,8.5221,7.1368,8.5221,9.2166
		c0,0.8897-0.597,1.9315-2.6924,1.9315H391.1572z M392.0547,130.2373c-5.6814,0-14.5,0.1483-23.4707,1.3384h-0.1522
		c-1.795,0-5.9779-5.5019-5.9779-7.1368c10.914,1.6349,23.9195,2.0837,29.9013,2.0837h7.4763c0.4488,0,1.3423-0.4487,1.791-1.1901
		c0.1522-0.2965,4.1869-6.9846,5.5331-6.9846c1.7949,0,10.914,7.1329,10.914,10.5511c0,0.7453-0.7453,1.3384-2.8407,1.3384H392.0547
		z"/>
	<path clip-path="url(#SVGID_2_)" fill="#DBDCDC" d="M451.0831,374h-1.2877V246.7742c0-2.6261,0-4.1674,0.0468-5.0687h-96.1071V56
		h1.2877v184.4217h96.0641l-0.0039,0.6438C451.0831,241.4285,451.0831,372.6733,451.0831,374"/>
</g>
</svg>
