<?xml version="1.0" encoding="utf-8"?>
<!-- Generator: Adobe Illustrator 22.1.0, SVG Export Plug-In . SVG Version: 6.00 Build 0)  -->
<svg version="1.1" id="レイヤー_1" xmlns="http://www.w3.org/2000/svg" xmlns:xlink="http://www.w3.org/1999/xlink" x="0px"
	 y="0px" viewBox="0 0 800 400" enable-background="new 0 0 800 400" xml:space="preserve">
<rect fill="#FFFFFF" width="800" height="400"/>
<path fill="#150301" d="M399.9995,80.7285C336.3374,80.7285,284.73,132.3359,284.73,196c0,25.3515,8.1894,48.7851,22.0566,67.8144
	c0.0293,0.0391,0.0576,0.0762,0.0879,0.1133c0.4873,0.6738,0.9853,1.3359,1.4883,1.9961c0.1504,0.1973,0.3008,0.3945,0.4531,0.5918
	c0.3809,0.4941,0.7695,0.9844,1.1602,1.4746c0.2558,0.3164,0.5117,0.6348,0.7705,0.9531c0.292,0.3555,0.5879,0.711,0.8838,1.0606
	c0.3437,0.4121,0.6894,0.8261,1.041,1.2324c0.2148,0.248,0.4316,0.498,0.6474,0.7383c0.4258,0.4883,0.8526,0.9726,1.2891,1.4551
	c0.1328,0.1464,0.2695,0.2929,0.4033,0.4375c1.9688,2.1503,4.0274,4.2343,6.1758,6.2421c0.499,0.4649,0.998,0.9336,1.5059,1.3926
	c0.1123,0.1016,0.2275,0.2031,0.3417,0.3047c20.4083,18.3164,47.3829,29.4649,76.9649,29.4649
	C463.6626,311.2715,515.27,259.664,515.27,196C515.27,132.3359,463.6626,80.7285,399.9995,80.7285z M332.0239,282.9629
	l20.5313-1.7539c-26.8428-14.9415-43.878-40.6934-48.6924-68.7989l-11.1094-11.5293l0,0
	c0.918,19.4746,7.1094,38.4571,17.9434,54.7539l7.5986,2.0528c5.2978,7.041,11.5517,13.4609,18.7158,19.0468l-12.2793-0.0253
	c-0.9336-0.877-1.8623-1.7598-2.7724-2.67c-5.0674-5.0644-9.5762-10.5429-13.5069-16.3515c-0.3359-0.4961-0.6719-1-1-1.5078
	c-0.041-0.0625-0.084-0.125-0.1269-0.1954c-10.1084-15.6796-16.086-33.6992-17.419-52.2304
	c-0.0244-0.3379-0.0439-0.6739-0.0635-1.0176c-0.0273-0.4453-0.0556-0.8828-0.0781-1.3281
	c-0.0859-1.7989-0.1308-3.5977-0.1308-5.4082c0-29.4785,11.4804-57.1953,32.3252-78.0391
	c10.6728-10.6719,23.1513-18.8848,36.7402-24.3633l-8.7725,18.7051c26.3653-15.7734,57.1797-17.6504,83.9317-7.7676l15.5459-3.8691
	l0,0c-17.3203-8.9297-36.8799-13.0625-56.3994-11.8223l-5.5762,5.5488c-8.7422,1.0743-17.4356,3.2735-25.8516,6.6875l3.959-6.8281
	l0,0l1.6016-2.7578l0.6367-1.0996l0.0068-0.0059c10.3106-3.1328,21.1387-4.7539,32.2178-4.7539c2.665,0,5.3144,0.0957,7.9434,0.2793
	c14.9199,1.0996,29.538,5.1797,42.8593,12.0567l0,0c9.9209,5.1543,19.1045,11.8535,27.2354,19.9902
	c20.8476,20.8438,32.3262,48.5606,32.3262,78.0391c0,5.1914-0.3633,10.3261-1.0655,15.3867l-11.7793-16.9063
	c0.4795,30.7246-13.3027,58.3457-35.2353,76.5723l-4.4307,15.3867l0,0c16.4072-10.5312,29.7549-25.3886,38.4453-42.9199
	l-2.0215-7.6074c3.4444-8.1035,5.8858-16.7344,7.1387-25.7266l4.7461,8.2617l1.3984,2.4336
	c-0.7148,3.1153-1.5625,6.1856-2.542,9.2168c-0.0976,0.3047-0.1972,0.6172-0.3027,0.9199
	c-0.1142,0.3438-0.2344,0.6875-0.3515,1.0313c-0.21,0.6035-0.419,1.207-0.6387,1.8125c-0.0186,0.0488-0.0381,0.0996-0.0596,0.1504
	c-8.3711,22.748-24.0254,42.0488-44.1758,54.9824l0,0c-17.5947,11.3086-38.0771,17.3711-59.4902,17.3711
	C375.0444,306.3652,351.354,298.1347,332.0239,282.9629z M462.0708,256.4218c14.8594-15.2666,23.7217-35.7851,24.5322-57.083
	c0.9014-23.6728-8.1406-47.041-24.7236-63.957c-7.7959-7.9521-17.1074-14.3916-27.3125-18.8525c1.2353,0,2.4707,0,3.706,0
	c0.4551,0,0.9092-0.0772,1.3194,0.1279c1.1074,0.5537,2.2041,1.1309,3.2871,1.7305c4.1465,2.2949,8.1084,4.9238,11.8359,7.8506
	c7.4336,5.8369,13.9277,12.8583,19.1641,20.7275c10.9863,16.5107,16.0947,36.5088,14.498,56.2685
	c-1.6904,20.9297-10.9814,40.8477-25.8681,55.6475c-0.1455,0.1445-0.292,0.2891-0.4385,0.4326
	C462.0708,258.3506,462.0708,257.3857,462.0708,256.4218z M348.9409,265.9804h-3.3779
	c-20.8291-16.2187-34.2315-41.5332-34.2315-69.9804c0-24.8067,10.1875-47.2285,26.6045-63.3203v2.8964
	c-15.2158,15.6231-24.6045,36.9454-24.6045,60.4239C313.3315,224.7148,327.3716,250.2011,348.9409,265.9804z M428.3305,130.957
	l3.4083-5.7266l-0.5635-2.9863l3.3916-5.7148h-2.3291l-4.5772,7.709l0.0039,0.0058l-3.0986,5.207
	c-3.3359-1.2304-6.7832-2.2343-10.334-2.957l-8.6152,5.7402c-1.8526-0.1601-3.7227-0.2617-5.6172-0.2617
	c-35.3027,0-64.0254,28.7207-64.0254,64.0274h-6.9092c0,23.0683,11.0225,43.5527,28.0781,56.5078l-8.2021,13.4726h2.3418
	l7.4727-12.2754c7.9414,5.6836,17.0976,9.7793,27.0126,11.7989l8.6153-5.7383c1.8525,0.166,3.7226,0.2598,5.6162,0.2598
	c35.3047,0,64.0283-28.7207,64.0283-64.0254h6.9082C470.9331,166.8965,453.4048,141.8906,428.3305,130.957z M339.978,196
	c0-33.1524,26.8731-60.0215,60.0215-60.0215c4.0098,0,7.9219,0.4004,11.7119,1.1484c0.127,0.0254,0.2578,0.0449,0.3848,0.0703
	c0.2793,0.0567,0.5537,0.127,0.8301,0.1914c0.7373,0.1582,1.4707,0.3243,2.1982,0.5137c1.2676,0.3301,2.5127,0.711,3.7461,1.1192
	l-7.2764,12.2285l0.0127,0.0058l-46.0664,77.4258l0.4395,9.3086l-3.127,5.1367C348.9272,232.1367,339.978,215.1191,339.978,196z
	 M415.6909,184.5273l2.0518-3.3242l1.5732,48.5449l-6.1611,9.961l-0.1524-17.6895l3.6192-5.8145L415.6909,184.5273z
	 M399.9995,256.0215c-13.3076,0-25.5996-4.3379-35.5518-11.668l5.0577-8.3086l-0.0166-0.0117l40.2968-66.1992l0.3692,42.1308
	h-2.5645h-19.7344l-2.3642,3.8262h22.0986h2.5967l0.2754,31.5098h2.7597l7.6065-12.3028l-0.6709-19.207h1.8213h10.7256
	l2.3642-3.8262H421.979h-1.9531l-2.2129-63.334l4.8828-8.205c10.1543,4.1503,18.9219,10.998,25.4023,19.6582
	c1.6338,2.1875,3.1172,4.4941,4.4463,6.8945c0.0762,0.1348,0.1572,0.2676,0.2344,0.4082c0.9092,1.6777,1.7412,3.4004,2.4912,5.1738
	c0.0127,0.0254,0.0244,0.0488,0.0352,0.0762c0.2382,0.5586,0.4511,1.1308,0.6709,1.6973c0.1328,0.3418,0.2783,0.6796,0.4062,1.0293
	c0.2734,0.75,0.5273,1.5175,0.7715,2.2871c0.0547,0.166,0.1191,0.33,0.168,0.4961c0.1533,0.4882,0.2832,0.9843,0.4209,1.4804
	c0.1298,0.4571,0.2734,0.9082,0.3906,1.3731c0.0478,0.1797,0.0791,0.3633,0.123,0.541c0.1944,0.7812,0.3858,1.5683,0.5469,2.3633
	c0.0615,0.2929,0.1025,0.5918,0.1592,0.8906c0.1308,0.6855,0.2637,1.3652,0.3681,2.0664c0.0704,0.4512,0.1153,0.9023,0.1729,1.3594
	c0.0723,0.5468,0.1553,1.0859,0.209,1.6386c0.0703,0.6993,0.1152,1.4063,0.1601,2.1036c0.0205,0.3183,0.0567,0.6289,0.0723,0.9472
	c0.0322,0.6114,0.0352,1.2324,0.0469,1.8555c0.0097,0.4141,0.0312,0.8203,0.0312,1.2344
	C460.0229,229.1504,433.1489,256.0215,399.9995,256.0215z"/>
</svg>
