<?xml version="1.0" encoding="utf-8"?>
<!-- Generator: Adobe Illustrator 22.1.0, SVG Export Plug-In . SVG Version: 6.00 Build 0)  -->
<svg version="1.1" id="レイヤー_1" xmlns="http://www.w3.org/2000/svg" xmlns:xlink="http://www.w3.org/1999/xlink" x="0px"
	 y="0px" viewBox="0 0 800 400" enable-background="new 0 0 800 400" xml:space="preserve">
<rect fill="#FFFFFF" width="800" height="400"/>
<path id="合体_6" d="M413.896,281.9709c-1.0787-0.2586-2.1425-0.5759-3.1867-0.9505l-3.1308-1.1181
	c-1.019-0.3647-2.0659-0.6453-3.1308-0.8387c0.6315-2.1244,1.1719-4.2396,1.6212-6.3455c0.4493-2.106,0.9338-4.28,1.4536-6.5224
	l1.174,0.3913c-0.0404,0.5591-0.0745,1.0529-0.1118,1.4815c-0.0374,0.4286-0.0559,0.8665-0.0559,1.3137
	c-0.0212,1.5357,0.2053,3.0648,0.6709,4.5285c0.3977,1.25,1.0231,2.4157,1.8449,3.4382c0.7643,0.9376,1.7291,1.6923,2.8233,2.2083
	c1.1463,0.5325,2.3981,0.8002,3.6619,0.7827c1.037,0.0072,2.0675-0.1628,3.047-0.5031c0.9109-0.3141,1.7539-0.7977,2.4847-1.4256
	c0.7056-0.6123,1.2766-1.3643,1.6771-2.2083c0.4231-0.9099,0.6355-1.9037,0.6212-2.9071c0.0388-1.709-0.5363-3.3753-1.6212-4.6962
	c-1.3907-1.5818-2.9676-2.9897-4.6963-4.193c-1.6982-1.1892-3.2305-2.5992-4.5564-4.1929c-1.1531-1.462-1.7566-3.2823-1.7052-5.1434
	c-0.011-1.6011,0.4351-3.1721,1.2859-4.5285c0.8658-1.3888,1.9846-2.6024,3.2985-3.578c1.3496-1.0104,2.8495-1.8028,4.4447-2.348
	c1.5353-0.5443,3.1511-0.8279,4.7801-0.8387c1.8838-0.0019,3.7579,0.2711,5.5628,0.8106c1.8019,0.5403,3.5514,1.2421,5.2272,2.0965
	c-0.7181,1.7023-1.2976,3.4597-1.7331,5.2553c-0.414,1.7166-0.8055,3.5239-1.174,5.4229l-1.0062-0.2796
	c-0.1094-2.1467-0.4087-4.2796-0.8946-6.3734c-0.3105-1.5334-1.1642-2.9033-2.404-3.8576c-1.3012-0.7649-2.7971-1.134-4.3048-1.0622
	c-0.7945,0.003-1.5814,0.1547-2.3202,0.4472c-0.7412,0.2876-1.4235,0.7086-2.0127,1.2424
	c-0.5822,0.5249-1.0569,1.1577-1.3977,1.8635c-0.3575,0.7406-0.5393,1.5537-0.5312,2.3761
	c-0.0076,0.8178,0.1247,1.6309,0.3913,2.404c0.2777,0.7795,0.684,1.5071,1.2021,2.1524c0.596,0.7496,1.2605,1.4421,1.9846,2.0686
	c0.7827,0.6895,1.6959,1.4258,2.7395,2.2083c1.7812,1.2682,3.364,2.7945,4.6963,4.5285c1.0483,1.4863,1.5926,3.2692,1.5529,5.0876
	c0.0326,1.8102-0.421,3.5962-1.3137,5.1713c-0.8692,1.5003-2.04,2.8044-3.4383,3.8296c-1.4459,1.0593-3.0627,1.8629-4.78,2.3761
	c-1.7479,0.5378-3.5662,0.8112-5.395,0.8106C416.1149,282.3613,414.9917,282.2322,413.896,281.9709z M527.036,280.7285
	c-1.3706-0.8332-2.1505-2.3714-2.0126-3.9695c0.0225-2.153,0.5547-4.2701,1.5529-6.1778c1.0428-2.0732,2.4055-3.9692,4.0377-5.6187
	c1.6292-1.6553,3.5177-3.0339,5.5906-4.0813c1.9078-0.9981,4.0248-1.5304,6.1777-1.553c1.7105-0.0938,3.4004,0.4102,4.7801,1.4256
	c1.2629,1.1628,1.9137,2.8464,1.7611,4.5563c-0.0387,2.0157-0.5663,3.9918-1.5374,5.7584c-1.168,2.1566-2.7109,4.0876-4.5564,5.7025
	c-1.7112,1.6133-3.6754,2.9353-5.8143,3.9135c-1.5045,0.7289-3.1387,1.1511-4.8079,1.2424
	c-1.798,0.0663-3.5819-0.3427-5.1715-1.1862V280.7285z M537.7701,261.9439c-0.668,0.6478-1.2506,1.3784-1.7331,2.1742
	c-0.5986,0.9693-1.131,1.9778-1.5933,3.0189c-0.4976,1.1033-0.9361,2.2324-1.3137,3.3823
	c-0.3526,1.0627-0.6419,2.1456-0.8665,3.2426c-0.186,0.8546-0.29,1.7251-0.3105,2.5996c-0.0212,0.9075,0.1702,1.8074,0.5591,2.6277
	c0.3076,0.7069,1.0187,1.1512,1.7889,1.1181c0.7698-0.0248,1.5007-0.3452,2.0406-0.8946c0.7088-0.666,1.3203-1.428,1.817-2.2642
	c0.5966-0.9939,1.1158-2.0324,1.553-3.106c0.4709-1.1058,0.8855-2.2346,1.2424-3.3823c0.3152-1.0208,0.5765-2.0576,0.7828-3.1059
	c0.162-0.7541,0.2557-1.5211,0.2796-2.2921c0.0239-0.9685-0.1894-1.9281-0.6212-2.7954c-0.3225-0.727-1.0497-1.1897-1.8449-1.174
	c-0.6827,0.0468-1.3207,0.3564-1.7801,0.8637V261.9439z M512.8636,281.6509c-0.6161-0.1522-1.2021-0.4074-1.733-0.7547
	c-0.4872-0.3207-0.8976-0.745-1.2021-1.2425c-0.3094-0.524-0.4643-1.1247-0.4472-1.7331c0.0432-0.6552,0.1651-1.3027,0.3634-1.9287
	c0.2422-0.8756,0.643-2.0965,1.2021-3.662l4.4166-12.3555h6.7647l-4.7522,12.6349c-0.0745,0.1863-0.1771,0.4317-0.3105,0.7268
	c-0.1334,0.2951-0.2608,0.6212-0.3912,1.0062c-0.1304,0.385-0.2423,0.7268-0.3354,1.0622
	c-0.0826,0.2724-0.1296,0.5543-0.1397,0.8387c-0.0497,0.637,0.2231,1.2563,0.7268,1.6493c0.4861,0.3554,1.0751,0.542,1.6772,0.5312
	c0.7399,0.0237,1.4756-0.1196,2.1523-0.4193c0.5274-0.2457,1.0171-0.5659,1.4537-0.9505c0.3355-0.2976,0.6529-0.615,0.9505-0.9505
	c0.2422-0.2796,0.4565-0.4193,0.6428-0.4193s0.3354,0.1522,0.3354,0.4472c-0.2129,0.4102-0.4969,0.7793-0.8387,1.0902
	c-0.6663,0.7143-1.3939,1.3691-2.1742,1.9568c-0.9439,0.7172-1.9549,1.3412-3.0189,1.8635
	c-1.0186,0.5342-2.1484,0.8216-3.2986,0.8387c-0.6877,0.014-1.3744-0.0588-2.0438-0.2171V281.6509z M484.6306,280.5329
	c-1.3439-1.2288-2.0191-3.0261-1.817-4.836c-0.0048-1.542,0.2895-3.0705,0.8665-4.5004c0.5729-1.4246,1.3446-2.7611,2.2921-3.9695
	c0.9517-1.2112,2.0396-2.3086,3.2426-3.2705c1.1708-0.9399,2.4244-1.7715,3.7458-2.4847c1.211-0.6567,2.4845-1.1903,3.8017-1.5934
	c1.0948-0.3475,2.2339-0.5357,3.3823-0.5591c0.3211-0.0044,0.6394,0.0624,0.9317,0.1956c0.2794,0.1304,0.4193,0.2703,0.4193,0.4193
	c0.0292,0.2584-0.1386,0.498-0.3913,0.559c-1.2995,0.3016-2.5317,0.8419-3.6339,1.5934c-1.3911,0.9158-2.6352,2.0373-3.6898,3.3264
	c-1.2007,1.4557-2.1717,3.0866-2.8792,4.836c-0.7859,1.9634-1.1755,4.0631-1.1461,6.1778
	c-0.0491,0.8857,0.1238,1.7698,0.5031,2.5717c0.3723,0.6201,1.0695,0.9687,1.789,0.8946c1.0352,0,2.2093-0.8387,3.5221-2.5158
	c1.6813-2.3687,3.0529-4.9427,4.0813-7.6592c0.7083-1.7145,1.3232-3.4009,1.8449-5.0597c0.5219-1.6586,0.9503-3.2426,1.2859-4.7522
	c0.3354-1.5094,0.5871-2.8885,0.7547-4.137c0.1524-1.0464,0.2364-2.1016,0.2516-3.1588c0.1454-2.3924-0.4923-4.7672-1.817-6.7647
	c-1.1843-1.5898-3.079-2.49-5.0597-2.404c-1.2444,0.004-2.4633,0.3522-3.522,1.0062c-1.0681,0.6345-2.0701,1.3744-2.9911,2.2083
	c-0.7664,0.6938-1.4923,1.4313-2.1742,2.2083c-0.5778,0.6709-0.9225,1.0062-1.0343,1.0062
	c-0.1212,0.0176-0.2381-0.0525-0.2796-0.1678c-0.0362-0.108-0.0552-0.2212-0.0559-0.3353c0.1742-0.7392,0.5632-1.4102,1.1181-1.9287
	c0.881-0.9975,1.8752-1.8887,2.963-2.6555c1.2982-0.9329,2.6949-1.7202,4.1651-2.348c1.4669-0.6533,3.0532-0.9958,4.6589-1.0063
	c1.5528-0.0233,3.094,0.2715,4.5285,0.8665c1.302,0.5513,2.4735,1.3704,3.4383,2.404c0.9676,1.0546,1.7181,2.2893,2.2083,3.6339
	c0.5301,1.4408,0.7953,2.9653,0.7827,4.5004c-0.0064,1.4064-0.1374,2.8096-0.3913,4.1929c-0.5452,3.0123-1.446,5.9493-2.6836,8.7495
	c-0.6106,1.3848-1.3012,2.7331-2.0686,4.0377c-0.979,1.713-2.1012,3.3401-3.3545,4.8638c-1.1512,1.4148-2.4542,2.6989-3.8854,3.8295
	c-1.2935,1.0224-2.7236,1.8588-4.2489,2.4847c-1.4275,0.5884-2.9564,0.8923-4.5004,0.8946
	c-1.7535,0.1065-3.4934-0.3647-4.9535-1.3416V280.5329z M470.8372,281.4646c-0.7551-0.3164-1.4324-0.7933-1.9846-1.3977
	c-0.2237-0.2608-0.4379-0.5312-0.6428-0.8106s-0.4379-0.5871-0.6988-0.9317l2.5158-5.9821l-0.1118-0.1678
	c-0.9008,1.5888-1.8999,3.1198-2.9911,4.5844c-0.8572,1.1359-1.8631,2.1512-2.9911,3.0189c-1.813,1.3869-4.0346,2.134-6.3174,2.1245
	c-0.8512,0.0099-1.6898-0.2044-2.432-0.6212c-0.7717-0.4927-1.1949-1.3825-1.0902-2.2921c-0.026-0.9501,0.1552-1.8944,0.5312-2.7674
	c0.352-0.7619,0.6967-1.5725,1.0343-2.432l5.3112-13.8089h6.3734l-4.7522,12.02c-0.414,1.0352-0.7962,1.9951-1.1461,2.8792
	c-0.3026,0.6608-0.4827,1.3712-0.5312,2.0965c0,0.8944,0.4846,1.3418,1.4536,1.3418c1.599-0.1566,3.0544-0.9911,3.9973-2.2921
	c1.5348-1.8258,2.7365-3.9074,3.5501-6.1497l3.8576-9.8954h6.0938l-4.4725,12.2437c-0.2798,0.7585-0.5132,1.5333-0.6988,2.3202
	c-0.1441,0.5579-0.2285,1.1295-0.2516,1.7052c-0.0836,0.6487,0.2091,1.2885,0.7547,1.6493c0.5598,0.2933,1.1854,0.4375,1.817,0.4193
	c0.6696,0.0093,1.3315-0.1443,1.9287-0.4472c0.5418-0.2735,1.0487-0.6114,1.5096-1.0062c0.3708-0.3172,0.7253-0.6531,1.0622-1.0063
	c0.2796-0.3105,0.4753-0.4472,0.5871-0.4472c0.2237,0,0.3354,0.1304,0.3354,0.3913c0,0.1864-0.2701,0.6006-0.8106,1.2425
	c-0.7788,0.8417-1.651,1.592-2.5996,2.2362c-1.0136,0.7725-2.1107,1.4288-3.2705,1.9568c-0.8311,0.4-1.7342,0.6281-2.6555,0.6709
	c-0.7755,0.0028-1.5439-0.1471-2.2614-0.4415L470.8372,281.4646z M438.4391,280.8775c-0.9939-0.6624-1.567-1.7981-1.5096-2.9911
	c0.0498-0.8423,0.229-1.672,0.5312-2.4599c0.3521-1.0355,0.6781-1.9486,0.9784-2.7395l6.8765-20.2383l7.212-1.5096l-3.2985,9.057
	h7.4947l-0.7268,2.348h-7.4356l-3.0748,8.9451c-0.414,1.2299-0.815,2.3387-1.2021,3.3264
	c-0.3454,0.7856-0.5444,1.6277-0.5871,2.4847c0.0093,0.4654,0.2646,0.891,0.6709,1.1181c0.5016,0.3138,1.0858,0.4694,1.6771,0.4472
	c0.739,0.0104,1.4688-0.1625,2.1245-0.5031c0.5877-0.3067,1.1486-0.662,1.6771-1.0622c0.418-0.3132,0.8106-0.6591,1.174-1.0343
	c0.3105-0.3105,0.5031-0.4753,0.6212-0.4753c0.1833,0,0.2796,0.1304,0.2796,0.3913c-0.1818,0.5096-0.4673,0.9761-0.8387,1.3697
	c-0.6777,0.8404-1.4677,1.5835-2.348,2.2083c-1.808,1.4631-4.0483,2.2885-6.3734,2.348c-1.3806,0.0652-2.7484-0.2933-3.9196-1.0275
	L438.4391,280.8775z M349.1558,281.1291c-0.8707-0.4781-1.3918-1.4117-1.3418-2.404c0.0777-0.8474,0.2872-1.6773,0.6212-2.4599
	c0.414-1.1181,1.029-2.6089,1.8449-4.4726c1.0711-2.0775,1.8966-4.2727,2.4599-6.5412c0.0303-0.4637-0.1433-0.9173-0.4753-1.2424
	c-0.3526-0.2914-0.8011-0.4409-1.258-0.4193c-1.3806,0.134-2.6449,0.8318-3.4942,1.9287c-1.3547,1.4722-2.5624,3.0731-3.606,4.78
	c-0.4472,0.7113-0.851,1.3977-1.2021,2.0686c-0.3511,0.6709-0.7392,1.494-1.1461,2.4599c-0.4865,1.1179-0.9338,2.2362-1.3418,3.3545
	c-0.408,1.1181-0.7807,2.1431-1.1181,3.0748h-6.3175l7.268-21.2447h6.7087l-4.0377,10.1191l0.1118,0.0559
	c1.8328-3.0538,4.0917-5.8304,6.7087-8.2463c1.6364-1.5615,3.7789-2.484,6.0378-2.5996c1.1302-0.0186,2.237,0.3242,3.1588,0.9784
	c0.9177,0.6633,1.4339,1.7488,1.3697,2.8792c-0.4815,2.4529-1.3098,4.8248-2.4599,7.0443
	c-0.8284,1.9008-1.4618,3.3732-1.9008,4.4166c-0.3433,0.6823-0.57,1.4171-0.6709,2.1742c-0.0571,0.5752,0.1757,1.1412,0.6212,1.5096
	c0.4974,0.3232,1.0847,0.4798,1.6772,0.4472c0.5312,0.0061,1.057-0.1086,1.5374-0.3354c0.4427-0.2106,0.8639-0.4633,1.258-0.7547
	c0.3727-0.2796,0.6988-0.5405,0.9784-0.7827c0.1856-0.196,0.4316-0.324,0.6988-0.3634c0.149,0,0.2237,0.1118,0.2237,0.3354
	c0,0.1511-0.2518,0.4959-0.7547,1.0343c-0.6119,0.6345-1.2862,1.2058-2.0127,1.7052c-0.923,0.6434-1.9173,1.178-2.963,1.5934
	c-1.1259,0.4641-2.3323,0.7014-3.5501,0.6988c-1.2584,0.0595-2.5103-0.2123-3.6307-0.7886L349.1558,281.1291z M319.2177,281.3806
	c-1.003-0.4123-1.9078-1.0314-2.6555-1.817l2.7954-5.6466l-0.1118-0.0559c-0.8377,1.0637-1.7435,2.072-2.7115,3.0189
	c-0.942,0.9301-1.9511,1.7896-3.0189,2.5717c-0.95,0.7018-1.9713,1.3014-3.047,1.789c-0.8565,0.4117-1.7896,0.6402-2.7395,0.6709
	c-1.2975,0.0351-2.5746-0.3257-3.662-1.0343c-1.0705-0.7795-1.6538-2.0633-1.5374-3.3823c0.0103-1.6091,0.3829-3.195,1.0902-4.6404
	c0.7384-1.5452,1.668-2.9916,2.7674-4.3048c1.1291-1.357,2.3833-2.6047,3.7457-3.7272c1.2677-1.055,2.603-2.0261,3.9973-2.9071
	c1.1281-0.7152,2.305-1.3505,3.5221-1.9008c0.7251-0.3704,1.511-0.6072,2.3202-0.6988c0.6921,0.0199,1.363,0.2434,1.9287,0.6429
	c0.585,0.3573,1.0591,0.8703,1.3697,1.4815h0.1118l0.2796-1.4536h6.4852l-4.3048,11.0137
	c-0.3748,0.9338-0.6637,1.7259-0.8665,2.3761c-0.1765,0.542-0.3259,1.0923-0.4472,1.6493
	c-0.0851,0.3772-0.1412,0.7604-0.1678,1.1461c-0.0186,0.3105-0.0279,0.5871-0.0279,0.8106
	c-0.0139,0.2914,0.0751,0.5784,0.2516,0.8106c0.1591,0.1989,0.3594,0.3611,0.5871,0.4753c0.2282,0.1141,0.4739,0.1896,0.7268,0.2237
	c0.2406,0.0368,0.4834,0.0555,0.7268,0.0559c0.6394,0.0072,1.2715-0.1365,1.8449-0.4193c0.5283-0.2597,1.0252-0.5786,1.4815-0.9505
	c0.4286-0.3509,0.7827-0.6709,1.0622-0.9505c0.2794-0.2796,0.4753-0.4193,0.5871-0.4193c0.3105,0,0.4472,0.1678,0.4472,0.5031
	c-0.0753,0.2885-0.2301,0.5501-0.4472,0.7547c-0.8294,0.9562-1.7782,1.8017-2.8233,2.5158
	c-0.6282,0.437-1.2921,0.8203-1.9846,1.1461c-0.713,0.3369-1.4514,0.6172-2.2083,0.8387c-0.7164,0.2163-1.4601,0.3293-2.2083,0.3354
	c-1.0751,0.0247-2.1452-0.1511-3.156-0.5181L319.2177,281.3806z M314.0464,265.7546c-0.7899,1.0699-1.509,2.1905-2.1524,3.3545
	c-0.5829,1.0438-1.0696,2.1384-1.4536,3.2705c-0.3371,0.9619-0.5164,1.9719-0.5312,2.9911
	c-0.0381,0.6992,0.1166,1.3954,0.4472,2.0127c0.4239,0.5443,1.1056,0.8214,1.789,0.7268c0.9992-0.0241,1.9622-0.3778,2.7395-1.0063
	c0.9886-0.7695,1.8555-1.6836,2.5717-2.7114c0.8934-1.2682,1.661-2.6205,2.2921-4.0377c0.7403-1.632,1.3935-3.3023,1.9568-5.0037
	c-0.2271-0.9987-0.9416-1.8157-1.9008-2.1742c-0.9933-0.4085-2.0566-0.6195-3.1308-0.6212
	c-0.9361,1.0157-1.8125,2.0851-2.6246,3.2025L314.0464,265.7546z M290.6774,281.6322c-0.5752-0.1733-1.1147-0.4478-1.5934-0.8106
	c-0.4527-0.3344-0.8332-0.7572-1.1181-1.2425c-0.2821-0.4933-0.4269-1.0531-0.4193-1.6212c0.019-0.8489,0.1797-1.6887,0.4753-2.4847
	c0.3168-0.9111,0.6989-2.0201,1.1461-3.3264c0.3727-1.0352,0.764-2.1534,1.174-3.3545c0.41-1.2009,0.8387-2.4216,1.2859-3.662
	c0.4474-1.2422,0.9039-2.5002,1.3697-3.7738c0.4658-1.2735,0.9037-2.5035,1.3137-3.6898l5.8144-16.2129h6.8918
	c-0.6709,1.789-1.3882,3.7084-2.1524,5.7584c-0.764,2.0498-1.5281,4.1277-2.2921,6.2337c-0.7662,2.1078-1.5302,4.1785-2.2921,6.2119
	c-0.7619,2.0333-1.4701,3.925-2.1245,5.6746c-0.6544,1.7516-1.2318,3.2986-1.7331,4.6403c-0.501,1.3418-0.902,2.3668-1.2021,3.0749
	c-0.2764,0.6455-0.5098,1.3084-0.6988,1.9846c-0.156,0.5363-0.2406,1.0908-0.2516,1.6493c-0.0178,0.597,0.3082,1.1511,0.8387,1.4256
	c0.4893,0.298,1.0485,0.4618,1.6212,0.4753c0.7183,0.0157,1.4292-0.1475,2.0686-0.4753c0.5549-0.2885,1.0713-0.6453,1.5374-1.0622
	c0.3687-0.33,0.7143-0.6849,1.0343-1.0622c0.2608-0.3105,0.4845-0.4753,0.6709-0.4753c0.1903-0.0258,0.3655,0.1079,0.3913,0.2982
	c0.0042,0.0309,0.0042,0.0622,0,0.0931c0.0002,0.2629-0.2982,0.7195-0.8946,1.3697c-0.7037,0.7471-1.4811,1.4214-2.3202,2.0127
	c-0.9989,0.7187-2.0661,1.3365-3.1867,1.8449c-1.0916,0.5223-2.2841,0.799-3.4942,0.8106
	c-0.6309-0.0038-1.2576-0.1054-1.8574-0.3011L290.6774,281.6322z M264.6058,281.2968c-1.882-0.0374-3.7738-0.0561-5.6746-0.0559
	c-1.6773-0.0002-3.3078,0.0186-4.8919,0.0559c-0.9598,0.0248-1.9537,0.0529-2.9848,0.09v-1.4443
	c0.8946-0.2114,1.7388-0.5966,2.4847-1.1336c1.0643-0.8161,1.8542-1.9376,2.2642-3.2146c0.4844-1.342,1.174-3.2798,2.0686-5.8143
	c0.8944-2.5344,1.9568-5.5721,3.1867-9.1129c1.3044-3.8017,2.2735-6.6437,2.9071-8.5258c0.4836-1.2292,0.803-2.5168,0.9505-3.8295
	c0.0048-0.2015-0.0334-0.4015-0.1118-0.5871c-0.1473-0.2303-0.3653-0.4068-0.6212-0.5031c-0.4796-0.222-0.9748-0.4089-1.4815-0.5591
	c-0.6521-0.207-1.556-0.4586-2.7114-0.7547l0.3913-1.2424c1.4165,0.0745,2.7952,0.1304,4.137,0.1678
	c1.3416,0.0372,2.6876,0.0559,4.0377,0.0559c1.4953,0.0049,2.9893-0.0885,4.4725-0.2796c1.3901-0.1837,2.7907-0.2772,4.193-0.2796
	c2.9169-0.1649,5.8039,0.6627,8.1904,2.348c2.0125,1.6049,3.1264,4.0826,2.9911,6.653c0.0299,1.643-0.2942,3.2733-0.9505,4.7801
	c-0.6122,1.3664-1.4967,2.5935-2.5996,3.606c-1.1376,1.0322-2.4419,1.8639-3.8576,2.4599
	c-1.4946,0.6419-3.0578,1.1109-4.6589,1.3977c-0.6212,0.1118-1.4444,0.2082-2.432,0.2796s-1.9846,0.1304-2.9911,0.1678
	c-1.0064,0.0374-1.9194,0.0683-2.7395,0.0838c-0.8201,0.0155-1.3977,0.0279-1.733,0.0279l-3.019,9.3923
	c-0.2045,0.5365-0.3179,1.1033-0.3353,1.6771c-0.0002,0.8282,0.5776,1.4434,1.7331,1.8449c2.0457,0.5873,4.1421,0.9803,6.2615,1.174
	l-0.3913,1.2425c-2.1721-0.0722-4.1992-0.127-6.0815-0.1644L264.6058,281.2968z M274.4175,246.6625
	c-0.3727,0.0559-0.7454,0.1026-1.1181,0.1397l-6.2615,17.6666h1.4536c1.1522,0.0132,2.3033-0.0804,3.4383-0.2796
	c0.9063-0.1596,1.789-0.4319,2.6277-0.8106c0.7196-0.3295,1.3956-0.7469,2.0127-1.2425c0.5775-0.4679,1.1107-0.9876,1.5934-1.5529
	c0.9604-1.1359,1.6743-2.4591,2.0965-3.8855c0.4254-1.4102,0.6419-2.8752,0.6429-4.3484c0.1086-1.5363-0.2944-3.0654-1.1461-4.3484
	c-1.0921-1.0974-2.6273-1.6332-4.1651-1.4536c-0.3928,0.0102-0.7843,0.0499-1.1712,0.1185L274.4175,246.6625z M377.0533,281.2504
	l3.8017-9.9391h-16.3777l-0.6212-1.2424l13.753-14.2563c1.377-1.4495,2.9143-2.9215,4.6123-4.4166
	c1.6978-1.4951,3.3378-2.8407,4.9198-4.0377c1.3772-1.069,2.8146-2.0582,4.3048-2.963c0.8555-0.6045,1.8423-0.9973,2.8792-1.1461
	c0.3355-0.0453,0.6715,0.0806,0.8946,0.3354c0.1647,0.2885,0.2425,0.6188,0.2237,0.9505c-0.0288,0.3714-0.1041,0.7376-0.2237,1.0902
	c-0.1522,0.5031-0.3105,1.0343-0.4753,1.5934s-0.3105,1.0622-0.4472,1.5096c-0.0857,0.2554-0.1511,0.5172-0.1956,0.7827
	c-0.9761-0.0059-1.9501,0.088-2.9071,0.2796c-0.8561,0.1767-1.6974,0.4195-2.5158,0.7268
	c-0.5282,0.2076-1.0417,0.4504-1.5374,0.7268c-0.5435,0.3105-1.0622,0.6212-1.553,0.9317
	c-0.4908,0.3105-0.9784,0.6212-1.4256,0.9317s-0.8231,0.5591-1.1181,0.7827c-1.3075,0.913-2.5672,1.8925-3.7738,2.9351
	c-1.1369,0.9899-2.0967,1.8563-2.8792,2.5996l-6.7647,6.653h13.0821l3.6898-11.405l6.8765-2.0686l-9.7339,28.646H377.0533z
	 M520.0196,251.2283c-0.6053-0.6265-0.9198-1.4785-0.8665-2.348c-0.0021-0.585,0.1121-1.1645,0.3354-1.7052
	c0.2234-0.5395,0.546-1.0326,0.9505-1.4536c0.4061-0.4241,0.89-0.7657,1.4255-1.0063c0.5547-0.2445,1.1551-0.3683,1.7612-0.3634
	c0.8722-0.0487,1.7277,0.2533,2.376,0.8387c0.5975,0.6087,0.912,1.4404,0.8666,2.2921c0.0005,0.5939-0.1132,1.1824-0.3354,1.7331
	c-0.2134,0.5403-0.5298,1.0341-0.9317,1.4536c-0.4076,0.4222-0.8912,0.7636-1.4256,1.0062c-0.5598,0.262-1.171,0.3956-1.789,0.3913
	c-0.8699,0.0445-1.7219-0.2595-2.367-0.8447V251.2283z M384.2373,222.7562l3.106-17.6851h-39.9704l14.7003-83.3788h23.7791
	l-10.5042,59.5935h16.2036l9.2589-52.509h0.0466L406.2802,98h37.2713c20.5799,0,34.3206,16.6819,30.6897,37.2713
	c-4.2081,21.0784-22.3473,36.5041-43.828,37.2713h-13.4829l-1.5529,8.7618h17.6417l-4.1929,23.776h-17.6417l-2.2113,12.5386h-0.0466
	l-0.9069,5.1465L384.2373,222.7562z M434.594,148.7479c7.7669-0.284,14.3256-5.8574,15.859-13.4766
	c1.3674-5.9252-2.3275-11.837-8.2528-13.2044c-0.9352-0.2157-1.8948-0.3084-2.854-0.2755l4.1929-23.7791l-4.1929,23.7761h-13.4799
	l-4.7552,26.9626L434.594,148.7479z"/>
</svg>
