<?xml version="1.0" encoding="utf-8"?>
<!-- Generator: Adobe Illustrator 22.1.0, SVG Export Plug-In . SVG Version: 6.00 Build 0)  -->
<svg version="1.1" id="レイヤー_1" xmlns="http://www.w3.org/2000/svg" xmlns:xlink="http://www.w3.org/1999/xlink" x="0px"
	 y="0px" viewBox="0 0 800 400" enable-background="new 0 0 800 400" xml:space="preserve">
<rect fill="#FFFFFF" width="800" height="400"/>
<g>
	<path d="M286.9023,133.5225v43.4385c0,9.7192-2.8809,27.2383-21.8398,27.2383s-21.8379-17.519-21.8379-27.2383v-43.4385
		c0-9.7192,2.8789-27.2388,21.8379-27.2388S286.9023,123.8032,286.9023,133.5225z M271.7832,116.8433
		c0-3.8398-1.5605-8.1597-6.7207-8.1597s-6.7188,4.3198-6.7188,8.1597v76.7969c0,3.8398,1.5586,8.1597,6.7188,8.1597
		s6.7207-4.3198,6.7207-8.1597V116.8433z"/>
	<path d="M357.3398,199.04v4.1992h-18.4785V199.04h3.2402v-61.6777h-6.8398c-2.7598,0-3.2402,4.0801-3.7207,6.6001
		c0.1211,1.1997,0.1211,2.5195,0.1211,3.8398V199.04h3.2383v4.1992h-18.4785V199.04h3.2402v-61.6777h-6.8398
		c-1.5605,0-2.1602,2.7603-2.6406,5.2798V199.04h3.2402v4.1992h-18.4785V199.04h3.2383v-60.3579h-3.5996v-6.2393h15.5996v4.4395
		c0.7207,0.48,1.4395,0.3604,1.8008-0.1201c0.959-1.3198,3.1191-5.2793,8.7598-5.2793c5.2793,0,8.3984,2.7598,9.8398,7.4395
		c0.4785,0.2402,0.959,0.1201,1.4395-0.7197c1.1992-2.1602,4.1992-6.7197,10.6797-6.7197c8.1602,0,11.3984,6.3594,11.3984,16.3193
		V199.04H357.3398z"/>
	<path d="M396.8203,151.8818v13.4395h-21.5996v36.1182c0.9609,0.8398,2.5195,1.3203,4.8008,1.3203
		c8.8789,0,10.6797-6.2397,10.6797-12.1196v-14.5195h4.9199v5.6401c0,17.2793-5.041,22.4385-15.5996,22.4385
		c-14.0391,0-16.7988-11.2788-16.7988-20.3989v-31.9185c0-9.1196,2.7598-20.3989,16.7988-20.3989
		S396.8203,142.7622,396.8203,151.8818z M384.8203,163.4014v-29.1587c-0.959-0.8403-2.5195-1.3203-4.7988-1.3203
		s-3.8398,0.48-4.8008,1.3203v29.1587H384.8203z"/>
	<path d="M443.0195,199.04v4.1992h-18.4805V199.04h3.2402v-61.6777h-7.4395c-1.5605,0-2.1602,2.7603-2.6406,5.2798v-0.3599
		l-0.2402,48.8379v7.9199h3.2402v4.1992h-18.4785V199.04h3.2402v-7.9199l0.2383-48.8379v-3.6001h-3.5996v-6.2393h15.5996v4.5596
		c0.7207,0.1201,1.4395,0.2402,1.8008-0.2402c0.959-1.3198,3.1191-5.2793,9.1191-5.2793c8.5195,0,11.1602,6.3594,11.1602,16.3193
		V199.04H443.0195z"/>
	<path d="M493.6562,132.8027c0-11.6396-2.5195-23.3989-10.5586-23.3989c-1.9199,0-3.3613,0.3599-3.7207,0.5996l-6.3594,17.5195
		h-3.7207v-15.1196c2.5195-2.52,6.7207-5.7598,14.5195-5.7598c21,0,27.3594,12.5996,27.3594,26.6392
		c0,23.999-27.5996,47.7578-34.5586,56.6377h34.4395v12.7192h-44.2793v-3.7197C481.416,179.481,493.6562,153.0815,493.6562,132.8027
		z"/>
	<path d="M534.0957,106.6436c5.1602,0,23.0391,3.3599,23.0391,23.6392c0,10.0796-6,19.1992-20.2793,22.6792
		c18,2.52,22.3203,15.1191,22.3203,23.7588c0,14.0396-6.4805,27.4785-24.3594,27.4785c-7.9199,0-15.2402-2.2793-16.4395-3v-18.3589
		h3.7188l6.1211,18.3589c0.7188,0.2402,2.7598,0.2402,3.2402,0.2402c7.7988,0,10.1992-14.3989,10.1992-24.8384
		c0-10.4399-1.0801-20.0396-12.3594-21.3594v-4.5596c10.5586-0.96,11.5195-10.9199,11.5195-20.6396
		c0-10.3193-3.9609-20.6387-8.6406-20.6387c-1.6797,0-2.5195,0.2397-3.7188,0.5996l-6.3613,17.5195h-3.7188v-15.1196
		C520.8965,109.8833,526.2969,106.6436,534.0957,106.6436z"/>
</g>
<g>
	<g>
		<path d="M221.8711,276.2549c0,4.1768-1.0078,10.1289-10.9453,9.9854h-8.0645v-2.6406h2.0156v-32.1631h-2.0156v-3.6006h8.0645
			c9.9375-0.1436,10.9453,5.5215,10.9453,9.6973c0,3.4082-0.6719,7.6807-6.2891,9.0723
			C221.1992,268.1426,221.8711,272.8467,221.8711,276.2549z M211.166,266.0781c3.7441-0.0957,4.6562-1.8721,4.6562-4.6562v-7.9209
			c0-2.833-0.959-4.7041-4.8965-4.7041v17.2812H211.166z M215.8223,271.9346c0-2.7842-0.9121-4.7998-4.6562-4.8965h-0.2402v18.2412
			c3.9375,0,4.8965-1.8711,4.8965-4.7041V271.9346z"/>
		<path d="M226.9082,258.3496c0-3.8887,0.7207-10.8965,9.793-10.8965c6.0977,0,7.5859,3.9355,7.4414,10.1758h-2.6875v-4.5117
			c0-2.0166-1.0098-4.7051-4.7539-4.7051c-3.5508,0-3.7441,2.6885-3.7441,4.2246v28.8027c0,1.5361,0.1934,4.2246,3.7441,4.2246
			c3.7441,0,4.7539-2.6885,4.7539-4.7051v-5.9521h2.6875v1.4404c0.1445,6.2402-1.3438,10.1758-7.4414,10.1758
			c-9.0723,0-9.793-7.0078-9.793-10.8965V258.3496z"/>
		<path d="M266.9902,258.7334v16.6094c0,5.3291-1.4883,11.041-11.4238,10.8975h-8.0645v-2.6406h2.0156v-32.1631h-2.0156v-3.6006
			h8.0645C265.502,247.6924,266.9902,253.4043,266.9902,258.7334z M260.9414,253.501c0-2.833-1.4395-4.7041-5.375-4.7041v36.4824
			c3.9355,0,5.375-1.8711,5.375-4.7041V253.501z"/>
		<path d="M289.7422,267.0381v8.6885c0,3.8887-1.1523,10.8965-8.7363,10.8965c-7.5859,0-8.7383-7.0078-8.7383-10.8965v-17.377
			c0-3.8887,1.2012-10.8965,10.2734-10.8965c6.0977,0,7.1055,3.9355,6.9609,10.1758h-2.6875v-4.5117
			c0-1.5371-0.5293-4.7051-4.2734-4.7051c-3.5527,0-4.2246,2.6885-4.2246,4.2246v29.7627c0,1.5361,0.625,3.2646,2.6895,3.2646
			s2.6875-1.7285,2.6875-3.2646v-11.7607h-2.0156v-3.6006H289.7422z"/>
		<path d="M299.0527,284.5596h1.2969v1.6807h-7.3926v-1.6807h1.2949v-24.1455h-1.4395v-2.4961h6.2402v3.6475
			c0.2871,0.0479,0.4805,0.0967,0.625-0.0957c0.3828-0.8164,0.8633-3.9365,3.7441-3.9365c0.3359,0,1.0078,0,1.2949,0.0957v4.0801
			h-4.6074c-0.5293,0-0.8652,1.1055-1.0566,2.1133V284.5596z"/>
		<path d="M318.7324,260.5576c0.625,1.248,0.8164,2.7842,0.8164,4.3203c0,3.2158-1.1035,7.3447-6.7207,7.3447
			c-1.0566,0-1.9688-0.1445-2.7363-0.4316c-0.3848-0.0488-0.9609,0-0.9609,0.3359v4.6562h3.9375
			c3.6484,0,8.6406,0.8633,8.6406,7.3438c0,5.9531-5.7129,7.4893-8.834,7.4893c-4.0801,0-7.6309-1.7275-7.6309-6.1445
			c0-1.9209,0.7676-3.9844,2.0625-5.376c-0.9121-0.7686-1.4883-1.9688-1.4883-3.793c0-3.0234,2.4492-4.1758,2.9766-4.416
			c0.2891-0.1924,0.2891-0.3848,0.0957-0.625c-2.2559-1.4395-2.7832-4.127-2.7832-6.3838c0-3.6484,1.1035-7.3447,6.7207-7.3447
			c2.8809,0,4.5605,0.96,5.5195,2.4004c0.1445,0.0479,0.2402,0.0479,0.3359-0.0957c0.3848-0.8164,0.8652-3.9375,3.7461-3.9375
			c0.3359,0,0.4316,0,0.7188,0.0488v4.1289h-4.0312C318.7812,260.0781,318.6836,260.2217,318.7324,260.5576z M309.084,281.0547
			c-1.6328,0.625-2.832,2.209-2.832,4.417c0,4.0322,2.6875,5.5684,6.9121,5.5684c4.9922,0,6.3359-4.7041,6.3359-6.8164
			c0-0.6729-0.0957-2.0645-0.5762-2.6396h-5.1367C312.1074,281.584,310.4766,281.4873,309.084,281.0547z M312.8281,258.1094
			c-0.9121,0-1.5371,0.1914-1.9199,0.5273v12.4824c0.3828,0.3359,1.0078,0.5273,1.9199,0.5273s1.5352-0.1914,1.9199-0.5273v-12.4824
			C314.3633,258.3008,313.7402,258.1094,312.8281,258.1094z"/>
		<path d="M323.8672,296.0801c-0.3359,0-0.8633-0.0469-0.9609-0.0957v-4.0801h2.4492v-31.4902h-1.4395v-2.4961h6.2402v30.5781
			C330.1562,293.4404,327.2754,296.0801,323.8672,296.0801z M324.6836,250.4766c0-1.6318,1.1992-2.8809,2.9277-2.8809
			c1.6797,0,2.8809,1.249,2.8809,2.8809c0,1.7285-1.2012,2.9766-2.8809,2.9766
			C325.8828,253.4531,324.6836,252.2051,324.6836,250.4766z"/>
	</g>
	<g>
		<path d="M486.752,276.2549c0,5.5684-3.5059,9.9854-11.9531,9.9854h-8.0645v-2.6406h2.0156v-32.1631h-2.0156v-3.6006h8.0645
			c8.9766,0,11.4727,4.5605,11.4727,9.6973c0,4.0322-2.3047,7.584-7.7773,8.9766C484.1582,267.71,486.752,271.3584,486.752,276.2549
			z M480.2227,257.5332c0-3.3604-0.9609-7.7285-5.4238-8.7363v17.2812C479.2617,264.9746,480.2227,261.4697,480.2227,257.5332z
			 M480.6543,276.1113c0-3.1211-1.2949-8.4492-5.8555-9.0732v18.2412C479.5508,284.2715,480.6543,279.3271,480.6543,276.1113z"/>
		<path d="M508.3027,249.9004v6.0488h-1.4883l-2.543-7.0088c-0.1445-0.0957-0.7207-0.2393-1.4883-0.2393
			c-5.9531,0-7.1055,12-7.1055,17.2324s1.5371,19.5859,8.1133,19.5859c0.1914,0,0.7676-0.0479,1.0566-0.0957l2.4473-7.3447h1.4883
			v7.3447c-0.4805,0.2881-3.6484,1.1992-6.8164,1.1992c-12.2891,0-13.2969-16.9922-13.2969-20.5938
			c0-3.5996,1.1523-18.4336,13.8242-18.4336C505.6152,247.5957,507.2949,248.8926,508.3027,249.9004z"/>
		<path d="M519.7266,286.2402h-8.0645v-2.6406h2.0156v-32.1631h-2.0156v-3.6006h8.0645c12.6719,0,12.2402,16.4658,12.2402,18.1934
			C531.9668,267.7578,532.7344,286.2402,519.7266,286.2402z M524.959,265.9336c0-2.0645,0.6719-15.793-5.2324-17.1367v36.4824
			C525.1504,284.0312,524.959,267.998,524.959,265.9336z"/>
		<path d="M548.1895,247.5957c3.1211,0,4.8008,1.2969,5.8086,2.3047v6.0488h-1.4883l-2.543-7.0088
			c-0.1445-0.0957-0.7207-0.2393-1.4883-0.2393c-5.9531,0-7.1055,12-7.1055,17.2324c0,4.9453,1.3926,18.002,7.0566,19.4414v-14.7363
			h-2.0156v-3.6006h8.0645v18.3857c-0.4805,0.2881-3.6484,1.1992-6.8164,1.1992c-12.2891,0-13.2969-16.9922-13.2969-20.5938
			C534.3652,262.4297,535.5176,247.5957,548.1895,247.5957z"/>
		<path d="M569.9336,260.3174c0,1.4404-1.1035,2.6396-2.5918,2.6396c-1.0566,0-1.9688-0.623-2.4004-1.4873
			c-0.2871,0-0.623,0.0479-0.8164,0.1436c-0.3828,0.1924-0.8633,1.2012-1.0547,2.209v20.7373h1.2949v1.6807h-7.3926v-1.6807h1.2969
			v-24.1455h-1.4414v-2.4961h6.2422v3.6475c0.2871,0.0479,0.4785,0.1436,0.623-0.0957c0.3848-0.8164,0.7676-3.8887,3.6484-3.8887
			C568.8301,257.5811,569.9336,258.7812,569.9336,260.3174z"/>
		<path d="M589.7578,258.2539c0,1.4395-1.1035,2.6396-2.5918,2.6396c-1.0078,0-1.8711-0.5283-2.3516-1.3447
			c-0.8652,0.0488-1.4414,0.3359-1.2969,1.2969c0.5762,1.1992,0.7207,2.6406,0.7207,4.0322c0,3.2158-1.1035,7.3447-6.7207,7.3447
			c-1.0566,0-1.9688-0.1445-2.7363-0.4316c-0.3848-0.0488-0.9609,0-0.9609,0.3359v4.6562h3.9375
			c3.6484,0,8.6406,0.8633,8.6406,7.3438c0,5.9531-5.7129,7.4893-8.834,7.4893c-4.0801,0-7.6309-1.7275-7.6309-6.1445
			c0-1.9209,0.7676-3.9844,2.0625-5.376c-0.9121-0.7686-1.4883-1.9688-1.4883-3.793c0-3.0234,2.4492-4.1758,2.9766-4.416
			c0.2891-0.1924,0.2891-0.3848,0.0957-0.625c-2.2559-1.4395-2.7832-4.127-2.7832-6.3838c0-3.6484,1.1035-7.3447,6.7207-7.3447
			c2.8809,0,4.5605,0.96,5.5195,2.4004c0.1445,0.0479,0.2402,0.0479,0.3359-0.0957c0.3359-0.6719,0.7207-2.9287,2.3535-3.8887
			c0.3828-0.2881,0.9121-0.4316,1.4395-0.4316C588.6543,255.5176,589.7578,256.7168,589.7578,258.2539z M573.7734,281.0547
			c-1.6328,0.625-2.832,2.209-2.832,4.417c0,4.0322,2.6875,5.5684,6.9121,5.5684c4.9922,0,6.3359-4.7041,6.3359-6.8164
			c0-0.6729-0.0957-2.0645-0.5762-2.6396h-5.1367C576.7969,281.584,575.166,281.4873,573.7734,281.0547z M577.5176,258.1094
			c-0.9121,0-1.5371,0.1914-1.9199,0.5273v12.4824c0.3828,0.3359,1.0078,0.5273,1.9199,0.5273s1.5352-0.1914,1.9199-0.5273v-12.4824
			C579.0527,258.3008,578.4297,258.1094,577.5176,258.1094z"/>
		<path d="M590.0449,257.918h6.2402v30.5781c0,4.9443-2.8809,7.584-6.4316,7.584c-2.3047,0-3.6484-0.3828-4.4648-1.0557
			c-0.7676-0.4795-1.2969-1.3916-1.2969-2.3525c0-1.584,1.248-2.8799,2.832-2.8799c1.5859,0,2.7852,1.2959,2.7852,2.8799
			c0,1.0078-0.5273,1.9688-1.3438,2.4492c1.0078-0.0488,3.1191-0.4326,3.1191-3.2646v-31.4424h-1.4395V257.918z M590.8125,250.4766
			c0-1.6318,1.2012-2.8809,2.9297-2.8809c1.6797,0,2.8789,1.249,2.8789,2.8809c0,1.7285-1.1992,2.9766-2.8789,2.9766
			C592.0137,253.4531,590.8125,252.2051,590.8125,250.4766z"/>
	</g>
</g>
</svg>
