<?xml version="1.0" encoding="utf-8"?>
<!-- Generator: Adobe Illustrator 22.1.0, SVG Export Plug-In . SVG Version: 6.00 Build 0)  -->
<svg version="1.1" id="レイヤー_1" xmlns="http://www.w3.org/2000/svg" xmlns:xlink="http://www.w3.org/1999/xlink" x="0px"
	 y="0px" viewBox="0 0 796 100" enable-background="new 0 0 796 100" xml:space="preserve">
<g opacity="0.2">
	<path fill="#D3CE3D" d="M30.4883,1.1318c0.6963-7.3721,5.7031-11.127,13.0742-11.127c11.4053,0,14.8818,6.8145,14.4648,13.2129
		L57.749,6.9727c1.9473-0.1387,10.8486-0.834,12.5176-0.834c11.4053,0,12.3789,9.5967,12.3789,13.0732
		c0,5.2852-1.5303,10.0146-7.5107,11.5439c-2.6426,0.6953-3.8945,0.6953-15.5771,1.252c1.3906-0.9736,4.7285-3.0596,4.7285-11.2656
		c0-4.1729-0.6953-10.5703-6.6758-13.0742l-0.2783,2.9209c3.4766,3.4775,3.6162,8.2061,3.6162,10.1533
		c0,1.6689,0,8.4844-5.7021,10.8486L53.8545,45.499c1.3916,2.0859,3.7559,5.1465,3.7559,12.3789
		c0,7.5098-2.6426,12.6562-5.7031,18.3584c-3.7549,7.2324-3.7549,7.9277-3.7549,9.041c0,3.7549,13.3525,3.7549,16.8291,3.7549
		c23.0879,0,24.4785-5.4238,24.4785-8.9014c0-2.6426-0.5557-5.0068-1.8076-8.3447c-2.5039-6.9541-2.9209-7.6494-2.9209-9.7363
		c0-6.8145,5.8418-11.6826,14.4648-11.6826c6.3975,0,10.1533,2.7812,14.0469,11.5439c1.6699,3.8945,4.4512,11.9609,4.4512,20.7236
		c0,27.2598-22.5312,32.6846-52.9912,32.6846c-14.0469,0-43.3936-0.6953-44.3672-24.0615
		c8.3447-2.7822,11.6826-11.127,11.6826-16.8291c0-3.0596-0.6953-5.9805-3.0596-8.4844c0.834-1.9473,1.9473-4.4502,1.9473-7.9277
		c0-0.5566,0-2.0859-1.6689-2.0859c-3.1992,0-5.1465,5.5635-5.1465,8.0664c0,0.417,0,1.3906,1.3906,2.9209
		c2.2256,2.6426,3.1992,3.8945,3.1992,7.7891c0,5.7021-3.6162,13.7686-11.8223,13.7686c-10.0137,0-15.7168-10.4307-15.7168-22.1143
		c0-13.2129,7.5107-29.624,26.4268-31.1543c5.8408-1.8086,9.04-9.3184,9.04-15.7168c0-2.5029-0.2783-9.5967-6.5371-13.4912
		L30.4883,1.1318z M18.8057,7.1123c4.7285,0,14.4648,0,14.4648,12.2393c0,12.7959-9.5967,12.7959-12.5176,12.7959
		c-6.1201,0-17.5244,0-17.5244-11.6836C3.2285,7.1123,13.2422,7.1123,18.8057,7.1123z M116.7207,15.3184
		c8.3447,8.3447,8.623,12.2393,8.623,15.0205c0,7.2324-6.2588,13.4912-13.4912,13.4912c-5.2852,0-6.9541-1.9473-13.0732-9.3184
		c-2.6426-3.3379-5.9814-6.6758-9.041-9.875c-2.9209-3.0596-4.8682-5.1465-4.8682-9.458c0-7.6494,7.0938-12.6562,12.7959-12.6562
		C103.5078,2.5225,106.8457,5.4434,116.7207,15.3184z"/>
</g>
<g opacity="0.2">
	<path fill="#E6AC27" d="M234.2646-10.9932c33.0088-14.4414,36.792-15.4736,53.8115-20.2871
		c2.2354-0.6875,2.4072-0.6875,2.4072-2.2354c0-2.9219,0-7.3926-1.5479-8.5957c-2.5781-1.8906-6.0166-4.2979-6.0166-8.7676
		c0-3.0947,5.3291-8.7686,14.0977-8.7686c11.0029,0,20.2861,6.7051,22.6934,11.5195c1.375,2.75,2.5781,7.5645,3.2666,9.9707
		c1.7188,0.1719,9.2832-0.6875,10.8311-0.6875c16.332,0,32.3203,10.3154,32.3203,22.6934c0,5.1582-3.0938,9.9717-9.1113,9.9717
		c-2.5791,0-6.877-1.5469-8.252-2.0635c-4.8145-1.7188-7.9082-2.4062-12.0352-2.4062c-2.9219,0-3.2656,0-12.2061,1.7188
		c0,2.4072-0.1719,11.8623-0.8594,17.0205c-0.1719,0.6875-1.0312,3.9541-1.0312,4.6416c0,1.375,0,1.8916,2.2344,5.3301
		c3.7822,6.1885,6.1895,16.8477,6.1895,24.584c0,26.3037-16.5049,50.7168-40.4014,50.7168c-16.333,0-26.4756-10.8311-35.416-20.2861
		c-0.5156-0.6885-3.6104-3.2666-3.9541-3.9551c-1.2031-1.5469-1.0312-2.2344-0.6875-3.2656
		c1.375-0.5166,1.8906-0.6885,2.2354-0.6885c0.1719,0,6.876,1.8916,7.2197,1.8916c2.4072,0.6875,3.9551,0.8594,6.5332,0.8594
		c6.5332,0,17.5361-1.2031,20.459-12.2061c-1.7197,0.5156-3.4385,0.8594-6.0176,0.8594c-9.9707,0-20.458-4.8135-21.3184-12.5498
		c-0.3438-3.9541-0.3438-4.2988-1.2031-7.2207c-0.6875-2.2354-0.6875-3.7822-0.6875-4.4707
		c0-16.6758,22.5215-28.5381,31.1172-28.5381c0.5166,0,2.0635,0,2.4072-0.3438c0.1719-0.6885,0.3438-2.5791,0.3438-3.7822
		c0-0.5166,0-2.5791-1.2031-2.5791c-0.1719,0-13.4102,4.9854-14.957,5.6729c-16.6768,6.3613-21.1465,8.0811-28.5391,8.0811
		c-19.4268,0-22.1777-13.4102-22.1777-18.5674c0-1.0322,0-3.4385,3.2666-3.4385c0.6875,0,0.6875,0,4.126,0.6875L234.2646-10.9932z
		 M290.6553,24.25c0-1.2031,0-2.0625-2.2354-2.0625c-0.5156,0-12.8936,0-12.8936,9.627c0,3.2666,2.4062,4.126,4.2979,4.126
		C283.0908,35.9404,290.6553,32.502,290.6553,24.25z"/>
</g>
<g opacity="0.2">
	<path fill="#F6F7BD" d="M388.9482,121.0146c0-0.7891,0.5264-1.4473,1.0527-1.4473l8.5508-0.1318
		c0.9209,0,1.7109-0.2627,2.2363-1.71l26.1807-83.542c0.5264-1.71,0.6582-2.3672,0.6582-2.6309
		c0-0.6582-0.3945-0.7891-0.9209-0.7891l-10.3936-0.1318c-0.3945,0-0.6572-0.2627-0.6572-0.6582
		c0-0.7891,0.5264-1.4463,1.0518-1.4463c9.8672,0.2627,11.1836,0.2627,20.5244,0.2627c13.0244,0,19.7334-0.1318,29.3379-0.2627
		c1.1836,0,1.5781,0.2627,1.8418,2.1045l7.2354,48.415h0.2637l33.416-48.2832c0.9209-1.5791,1.8418-2.2363,3.4209-2.2363
		c12.2354,0.2627,14.7344,0.2627,25.6543,0.2627c8.8145,0,10.7881,0,26.0498-0.2627c0.3945,0,0.6572,0.2627,0.6572,0.6572
		c0,0.7891-0.3945,1.4473-0.9209,1.4473l-8.0254,0.1318c-1.4473,0-2.3682,0.5264-2.8945,2.2363l-25.6543,83.0156
		c-0.5264,1.71-0.6572,2.3672-0.6572,2.6309c0,0.6582,0.3945,0.7891,0.9209,0.7891l9.8672,0.1318
		c0.2627,0,0.5264,0.2627,0.5264,0.6582c0,0.7891-0.3955,1.4463-0.9219,1.4463c-15.5234-0.2627-17.4971-0.2627-31.3115-0.2627
		c-16.4443,0-18.418,0-32.4951,0.2627c-0.3945,0-0.6582-0.2627-0.6582-0.6572c0-0.7891,0.3955-1.4473,0.9209-1.4473l10.1309-0.1318
		c1.4473,0,2.3682-0.5264,2.8945-2.2363L513.5361,31.29h-1.0518c-0.6582,0-1.1846,0.1309-2.1055,1.3154l-60.5176,87.8828
		c-0.6582,1.0527-0.9209,1.3154-1.5791,1.3154h-4.4736c-0.7891,0-1.1836-0.3945-1.3154-1.4473
		c-3.8154-28.9434-8.1562-58.2812-12.7607-87.4883h-0.2637l-25.917,83.1475c-0.5264,1.5781-0.79,2.3672-0.79,2.6309
		c0,0.6582,0.5264,0.7891,1.0527,0.7891l11.3145,0.1318c0.3945,0,0.6572,0.2627,0.6572,0.6582c0,0.7891-0.3945,1.4463-0.9209,1.4463
		c-8.8145-0.2627-10.1299-0.2627-13.0244-0.2627c-2.7627,0-4.21,0-12.2354,0.2627
		C389.2109,121.6719,388.9482,121.4092,388.9482,121.0146z"/>
</g>
<g opacity="0.2">
	<path fill="#80BCA3" d="M722.9541-7.3848v85.0479c4.7158-4.3652,8.7324-9.4297,12.2246-14.8438l2.2705,1.7461
		c-9.4307,26.0215-27.2432,44.5322-56.4082,44.5322c-28.9893,0-50.6445-21.6543-50.6445-50.6445
		c0-21.6543,14.4951-44.0078,30.9111-57.2803l2.9688,1.7461c-9.6055,11.3516-15.543,24.624-15.543,39.6426
		c0,24.2744,15.7178,46.4531,41.5635,46.4531c9.7803,0,19.7344-3.3184,27.7676-8.7314V-5.6387
		c-4.541,1.2227-9.0811,1.7471-13.7959,1.7471c-13.0986,0-26.1963-1.7471-39.2939-3.3184
		c-5.5879-0.5244-11.1768-1.3975-16.7646-1.3975c-6.4619,0-11.002,1.3975-15.3682,6.4619l-2.2705-0.873
		c6.9854-14.1455,16.9395-23.0527,33.3555-23.0527c21.3057,0,41.9131,5.5889,63.2188,5.5889c4.0166,0,8.0332-0.6982,11.1768-3.3184
		l1.3975,1.3975C736.0518-16.4658,729.416-10.0039,722.9541-7.3848z M678.9463,80.458l-1.7471-1.2227
		c1.9209-2.0957,2.7939-7.1602,2.7939-13.0977V18.1123l-6.8105,3.4932v-4.8906l27.418-15.542v46.6279
		C700.6006,67.0107,695.7109,72.0752,678.9463,80.458z"/>
</g>
<g>
	<g>
		<path fill="#101F78" d="M119.2148,71.1484c-2.4946,0-4.4023,0-9.6846,0.1465c-0.293,0-0.5132-0.293-0.5132-0.5869
			c0-0.3662,0-0.3662,2.9346-2.7139c13.1323-10.418,19.1479-15.334,25.5308-22.8896c4.5483-5.3564,5.1353-9.8311,5.1353-12.1787
			c0-6.0898-3.5947-10.0508-9.6841-10.0508c-6.7495,0-12.8389,6.0889-12.8389,16.7266c0,0.2939-0.0732,0.5869-0.5132,0.5869
			c-0.4404,0-0.6606-0.2197-0.6606-0.5137c0-9.0967,4.9155-21.0557,21.0557-21.0557c12.1055,0,18.6348,5.3564,18.6348,13.2061
			s-5.9424,11.4443-14.5996,15.4062c-5.4287,2.4951-11.0781,5.0625-17.314,10.2715c-0.2935,0.2197-0.3667,0.293-0.3667,0.3662
			c0,0.1475,0.0732,0.1475,0.2197,0.1475h23.8438c2.3477,0,3.3013-0.5137,4.0352-1.9082l0.8066-1.3936
			c0.2935-0.4404,0.3672-0.5869,0.5869-0.5869c0.2935,0,0.7339,0.3672,0.7339,0.5869s-0.0737,0.3672-0.4404,0.8809
			c-2.6411,4.915-3.8882,7.4092-7.043,14.5986c-0.2202,0.5869-0.5132,1.1738-1.4673,1.1738
			C123.3232,71.1484,121.0488,71.1484,119.2148,71.1484z"/>
	</g>
</g>
<g>
	<g>
		<path fill="#101F78" d="M188.395,54.5645v-2.9092h5.6299V38.7129h3.2993v5.2041h5.6294v2.9424h-5.6294v4.7959h6.8882v2.9258
			L188.395,54.5645z"/>
		<path fill="#101F78" d="M216.917,54.2412v-2.6025c2.4492-0.2891,4.7451-1.667,4.7451-5.1367c0-1.8193-0.9863-3.5371-3.2144-4.0986
			c-0.5273,3.9287-1.3096,7.0078-2.4834,9.1162c-0.8672,1.582-1.9048,2.041-2.9766,2.041c-1.9219,0-4.0308-2.126-4.0308-5.7314
			c0-4.4561,3.1978-8.1133,8.1299-8.1133c4.5581,0,7.3813,2.7559,7.3813,6.8887C224.4683,51.9619,220.8115,54.1221,216.917,54.2412z
			 M211.5762,47.8291c0,1.8027,0.8848,2.9082,1.3608,2.9082c0.4082,0,0.7822-0.5957,1.3096-1.9219
			c0.6465-1.6328,1.2246-4.2178,1.5308-6.5137C213.0562,42.7949,211.5762,45.2949,211.5762,47.8291z"/>
		<path fill="#101F78" d="M238.0581,49.4111c-2.5,2.6865-5.7998,4.3193-8.7759,4.9316v-2.7383
			c3.9116-1.0879,8.0786-4.252,9.354-9.0654h-8.4697v-2.6523h11.9395c-0.187,2.7207-0.9863,5.0684-2.1602,7.0234
			c0.9019,2.2793,2.6875,3.7422,4.2354,4.5752v3.0107C241.4766,53.6113,239.3506,51.6729,238.0581,49.4111z"/>
		<path fill="#101F78" d="M251.2739,54.3428V51.707c5.0513-0.2725,8.2998-1.9902,9.3882-4.9492h-11.4634v-2.5684h14.9331v0.3906
			C263.8428,50.3633,259.9141,54.207,251.2739,54.3428z M250.1172,42.4033v-2.6357h13.1304v2.6357H250.1172z"/>
		<path fill="#101F78" d="M279.1152,45.3115v9.3887h-2.9932V46.877c-2.3301,0.9521-4.8643,1.5137-7.0752,1.8359v-2.7041
			c7.1943-1.2578,10.2725-3.8604,11.5142-6.7012h3.1294C282.9253,41.9785,281.2412,43.9004,279.1152,45.3115z"/>
		<path fill="#101F78" d="M303.3857,40.8555c-0.3911,7.1943-3.4185,12.8242-13.0107,13.5381v-2.6191
			c3.6567-0.4414,6.1396-1.6494,7.7217-3.5879c-2.2964-0.4932-4.4053-0.8164-6.4463-1.0205v-1.8887
			c-0.9185,0.9023-2.0068,1.667-3.2144,2.1436v-2.9424c1.5137-0.9189,2.8403-2.7217,3.5205-4.7793h8.708v-1.2754h1.6841v1.2754
			h0.561v-1.2754h1.6836v2.4316H303.3857z M293.8276,42.3184c-0.4082,0.7822-0.9526,1.582-1.5986,2.3301
			c2.3638,0.2549,4.8979,0.6123,7.2451,1.1396c0.4253-1.0371,0.6973-2.1943,0.8506-3.4697H293.8276z"/>
		<path fill="#101F78" d="M309.2705,47.4209v-2.7041h14.7461v2.7041H309.2705z"/>
		<path fill="#101F78" d="M340.1738,47.7949c0.1021,0.9014,0.1362,1.9902,0.1362,3.2656h-2.5513c0-0.9863-0.0171-1.8535-0.085-2.585
			c-1.667,0.6123-2.7725,1.3604-2.7725,2.1084c0,1.0713,1.6328,1.3779,3.8608,1.3779c1.4287,0,2.8574-0.1357,4.4561-0.374v2.6191
			c-1.1226,0.1357-2.6191,0.2891-4.4731,0.2891c-3.5718,0-6.6499-0.6973-6.6499-3.7588c0-1.8711,2.0918-3.4521,4.7959-4.541
			c-0.1699-0.1357-0.3911-0.2207-0.6631-0.2207c-1.1226,0-2.2622,0.5264-3.4355,1.6318c-1.0205,0.9355-2.2451,2.2451-3.793,3.5215
			v-3.2998c1.5308-1.3438,2.8916-2.8916,3.9971-4.6602h-3.5039v-2.415h4.7793c0.2212-0.4932,0.4253-1.0205,0.5952-1.5479h2.9087
			c-0.1875,0.5273-0.3916,1.0547-0.5952,1.5479h6.0034v2.415h-7.2114c-0.2549,0.4424-0.5269,0.8506-0.7822,1.207
			c0.2891-0.1357,1.0547-0.374,1.6841-0.374c1.2925,0,2.1089,0.4424,2.6191,1.3613c1.4453-0.3574,2.9253-0.5791,4.269-0.6465v2.585
			C342.521,47.3867,341.2964,47.5566,340.1738,47.7949z"/>
		<path fill="#101F78" d="M352.4199,53.1016v-2.585c5.1704,0,8.6743-1.208,8.6743-4.1846c0-1.7178-1.208-2.9082-4.0649-2.9082
			c-2.8916,0-6.0381,0.8506-8.2998,1.5986v-2.7549c1.9556-0.5781,5.2212-1.4629,8.4355-1.4629c5.0005,0,6.9053,2.3809,6.9053,5.3408
			C364.0703,50.3799,360.7881,53.3398,352.4199,53.1016z"/>
		<path fill="#101F78" d="M376.5371,54.3604c-0.9185,0-2.0747-0.2383-2.6533-0.46v-2.7041
			c0.6465,0.2217,1.5986,0.4932,2.2622,0.4932c1.4458,0,1.854-1.6494,1.854-4.7793c0-2.0576-0.3403-2.4316-1.8032-2.4316h-1.5815
			c-0.6973,3.5205-1.5815,6.752-2.5684,9.8135h-3.0952c1.2754-3.0615,2.2451-6.3945,2.9082-9.8135h-2.772v-2.5342h3.1973
			c0.1362-0.8848,0.2383-1.7686,0.3232-2.6533h2.874c-0.1187,0.9014-0.2549,1.7861-0.4077,2.6533h1.5986
			c2.8062,0,4.1499,0.6289,4.1499,4.9658C380.8232,52.5234,379.6665,54.3604,376.5371,54.3604z M382.439,48.5947
			c-0.2041-2.79-0.7993-5.375-2.4492-7.79h3.0273c1.3438,2.2285,2.0068,5.2217,2.1938,7.79H382.439z"/>
		<path fill="#101F78" d="M399.481,54.3604c-2.0239,0-3.2998-0.9873-3.2998-2.9258v-2.6533c0-0.6631-0.1021-0.9521-0.561-0.9521
			c-0.8672,0-1.939,1.3262-2.3979,2.4834c-0.4253,1.1055-0.8506,2.8906-1.1055,3.877h-2.9595
			c1.4458-5.3906,2.9595-10.7314,4.541-14.8301h3.1123c-0.9185,2.041-2.0747,5.2207-2.5513,6.7344
			c0.5273-0.4932,1.4116-0.9346,2.2793-0.9346c1.7686,0,2.3301,1.1904,2.3301,2.7715v2.79c0,0.5947,0.2891,0.748,0.7485,0.748
			c1.4624,0,2.2788-2.5342,2.2959-6.1572h2.8574C404.7021,49.6484,403.5796,54.3604,399.481,54.3604z"/>
		<path fill="#101F78" d="M423.0532,42.7598c-3.4526,0.1543-7.0073,2.4668-7.0073,5.1377c0,2.959,3.0444,3.6055,6.7183,3.6055
			v2.8057c-6.4629,0.1875-9.5757-2.3301-9.5757-6.0547c0-2.4492,1.3779-4.252,3.0957-5.4766l-6.6499,0.2383v-2.7119l14.6094-0.2559
			v2.6777L423.0532,42.7598z M420.5869,46.1621v-2.4658h1.6841v2.4658H420.5869z M422.9004,46.1621v-2.4658h1.6836v2.4658H422.9004z
			"/>
		<path fill="#101F78" d="M437.6123,54.5127c-3.0952,0-5.4424-1.292-5.3232-4.8301c0.0166-0.2549,0.0337-1.0713,0.085-2.1602
			h-2.9678v-2.4658h3.0439c0.0171-0.5098,0.0342-1.0205,0.0513-1.5303h-3.104v-2.4668h3.1807
			c0.0337-1.1396,0.0508-1.9219,0.0508-1.9219h2.8062c0,0-0.0337,0.7822-0.085,1.9219h8.0029v2.4668h-8.0962
			c-0.0171,0.5098-0.0342,1.0205-0.0513,1.5303h8.1377v2.4658h-8.231c-0.0342,1.0381-0.0684,1.8203-0.0513,2.041
			c-0.0337,1.7861,1.1226,2.3301,2.6958,2.3301c2.7383,0,3.6567-1.9043,3.9282-3.9795h2.8066
			C444.2886,51.2988,442.4331,54.5127,437.6123,54.5127z"/>
		<path fill="#101F78" d="M455.5903,54.4619c-3.4531,0-5.9189-1.3262-5.9189-5.5107v-9.4395h2.7549v9.2871
			c0,2.126,1.208,2.9424,3.1973,2.9424c2.9766,0,4.5078-2.041,4.7969-6.3613h2.8057
			C462.9712,51.2988,460.2837,54.4619,455.5903,54.4619z M457.7329,42.3691v-2.5166h1.7686v2.5166H457.7329z M460.1138,42.3691
			v-2.5166h1.7686v2.5166H460.1138z"/>
		<path fill="#101F78" d="M475.9995,54.2412v-2.6025c2.4492-0.2891,4.7451-1.667,4.7451-5.1367
			c0-1.8193-0.9863-3.5371-3.2148-4.0986c-0.5273,3.9287-1.3096,7.0078-2.4824,9.1162c-0.8682,1.582-1.9053,2.041-2.9766,2.041
			c-1.9219,0-4.0312-2.126-4.0312-5.7314c0-4.4561,3.1973-8.1133,8.1299-8.1133c4.5586,0,7.3818,2.7559,7.3818,6.8887
			C483.5513,51.9619,479.894,54.1221,475.9995,54.2412z M470.6587,47.8291c0,1.8027,0.8848,2.9082,1.3604,2.9082
			c0.4082,0,0.7832-0.5957,1.3105-1.9219c0.6455-1.6328,1.2236-4.2178,1.5303-6.5137
			C472.1382,42.7949,470.6587,45.2949,470.6587,47.8291z"/>
		<path fill="#101F78" d="M493.3647,54.9043V47.54h-1.0039c0,2.8916-0.2715,5.4082-2.041,7.3984l-2.2783-2.415
			c1.207-1.3945,1.5137-3.0791,1.5137-4.9834h-1.4795V44.751h1.4795v-3.0283h-1.1904v-2.7041h8.793v2.7041h-0.9697v3.0283h1.3438
			v1.5469c2.9424-0.9688,4.626-2.6357,4.626-2.6357l1.8877,2.1768c0,0-2.2959,2.126-5.2725,3.1123l-1.2412-2.3301V47.54h-1.3438
			v7.3643H493.3647z M493.3647,41.7227h-0.9697v3.0283h0.9697V41.7227z M496.4946,51.9277c3.4688-0.8506,5.748-2.959,5.748-2.959
			l1.9902,2.126c0,0-2.3984,2.5508-6.4287,3.6055L496.4946,51.9277z M497.2935,41.1787c2.7217-0.8838,4.2178-2.5166,4.2178-2.5166
			l2.0586,2.0068c0,0-2.041,1.9893-4.916,3.0781L497.2935,41.1787z"/>
		<path fill="#101F78" d="M519.7778,47.7949c0.1016,0.9014,0.1357,1.9902,0.1357,3.2656h-2.5508c0-0.9863-0.0176-1.8535-0.085-2.585
			c-1.667,0.6123-2.7725,1.3604-2.7725,2.1084c0,1.0713,1.6328,1.3779,3.8604,1.3779c1.4287,0,2.8574-0.1357,4.4561-0.374v2.6191
			c-1.1221,0.1357-2.6191,0.2891-4.4727,0.2891c-3.5713,0-6.6504-0.6973-6.6504-3.7588c0-1.8711,2.0928-3.4521,4.7969-4.541
			c-0.1699-0.1357-0.3916-0.2207-0.6641-0.2207c-1.1221,0-2.2617,0.5264-3.4355,1.6318c-1.0205,0.9355-2.2451,2.2451-3.792,3.5215
			v-3.2998c1.5303-1.3438,2.8906-2.8916,3.9961-4.6602h-3.5029v-2.415h4.7793c0.2207-0.4932,0.4248-1.0205,0.5947-1.5479h2.9082
			c-0.1865,0.5273-0.3906,1.0547-0.5947,1.5479h6.0039v2.415h-7.2119c-0.2549,0.4424-0.5273,0.8506-0.7822,1.207
			c0.2891-0.1357,1.0547-0.374,1.6836-0.374c1.293,0,2.1094,0.4424,2.6191,1.3613c1.4463-0.3574,2.9258-0.5791,4.2695-0.6465v2.585
			C522.1245,47.3867,520.8999,47.5566,519.7778,47.7949z"/>
		<path fill="#101F78" d="M542.9937,54.8701c-2.7549,0-4.9316-0.3574-6.5645-0.918c-1.8545,0.6289-4.3369,0.918-7.3652,0.918
			l-1.0879-2.7725c0.7656,0.0518,1.582,0.0684,2.3467,0.0684c0.9697,0,1.9219-0.0342,2.7041-0.1025c0,0-0.8838-0.5264-1.5137-1.1729
			c-0.9688,0.4932-1.8193,0.7139-1.8193,0.7139l-1.7012-2.6699c0,0,2.1094-0.3916,3.793-1.6162l-1.1396-0.6455
			c1.4121-1.0039,2.0068-2.4834,2.0244-4.0146h-1.9561l1.2588,0.4766c-0.5615,2.5508-1.9053,4.1328-1.9053,4.1328l-2.3135-1.6328
			c0,0,1.293-1.4111,1.7861-2.9766h-1.1396v-2.7891h6.0215v-1.1738h3.248v1.1738h6.0205v2.7891h-1.667
			c0.4766,0.5449,1.3779,1.8369,2.0586,2.8916l-2.2793,1.752c-0.7822-1.4795-1.5137-2.5-1.8711-2.959v0.7646
			c0,2.2627-0.085,2.4668-3.5029,2.4668l-0.2559-0.5791l-0.8672,0.834h6.8369v2.4492c-0.6123,0.7139-1.5645,1.5303-2.4824,1.9043
			c0.6797,0.0518,1.6152,0.0684,2.2959,0.0684c0.7656,0,1.5303-0.0342,2.2451-0.1016L542.9937,54.8701z M534.5923,50.1758
			c0.5781,0.46,1.2246,0.8672,1.9561,1.1572c0.8496-0.3066,1.6152-0.7148,2.126-1.1572H534.5923z M535.3237,45.0059
			c-0.1191,0.4932-0.29,0.9521-0.5449,1.292l1.2754,0.375L535.3237,45.0059z M537.0415,42.6582h-1.4629c0,0,0,1.0547-0.2041,2.1094
			h1.0029c0.6299,0,0.6641-0.085,0.6641-0.5107V42.6582z M539.9321,42.6582v1.0547l1.3945-1.0547H539.9321z"/>
		<path fill="#101F78" d="M559.4751,54.377c-2.5684,0-3.7588-0.459-3.7588-2.3984v-0.9521c0-0.6289-0.1025-0.9014-0.6973-0.9014
			c-0.3232,0-0.9521,0.2725-1.5986,0.7314c-1.6162,1.1055-4.082,3.1123-4.916,3.8438v-3.4014
			c1.8203-1.5137,4.8643-3.8096,7.3818-5.5957h-6.4629v-2.5518h11.7188v2.1094c-1.2588,0.8164-3.3682,2.1943-4.2012,2.7383h0.1191
			c1.0371,0,1.4629,0.4766,1.4629,1.5986v0.7148c0,1.0879,0.1523,1.4111,1.3428,1.4111c0.9189,0,2.5518-0.2725,3.4873-0.5273v2.7217
			C563.1147,54.0029,560.9038,54.377,559.4751,54.377z M550.6646,41.9443v-2.4326c3.4873,0,7.2461,0.0518,10.2734,0.2041v2.5518
			C557.9438,42.0801,553.6411,41.9785,550.6646,41.9443z"/>
		<path fill="#101F78" d="M581.6694,42.7598c-3.4521,0.1543-7.0068,2.4668-7.0068,5.1377c0,2.959,3.0439,3.6055,6.7178,3.6055
			v2.8057c-6.4629,0.1875-9.5752-2.3301-9.5752-6.0547c0-2.4492,1.377-4.252,3.0947-5.4766l-6.6494,0.2383v-2.7119l14.6094-0.2559
			v2.6777L581.6694,42.7598z"/>
		<path fill="#101F78" d="M601.8911,49.0879c-0.748,3.0947-2.5,5.2041-6.6328,5.5439V52.166
			c2.6025-0.459,3.708-1.8203,4.2012-4.3369c-1.0889-0.4932-2.2793-0.8848-3.5205-1.0889
			c-0.1357,0.6123-0.2891,1.1904-0.4424,1.7354c-1.0713,3.7412-2.2451,5.4932-4.4395,5.4932c-1.6494,0-3.1631-1.3262-3.1631-3.9121
			c0-3.0615,2.1602-5.6289,5.834-5.918c0.1357-0.6973,0.2549-1.4121,0.374-2.126h-4.6094v-2.4668h7.7725
			c-0.2549,1.582-0.5098,3.1807-0.7988,4.7109c1.1729,0.1709,2.2793,0.4941,3.2656,0.8506
			c0.0508-1.0371,0.0674-2.2109,0.0674-3.5205h2.6191c0,1.6504-0.0166,3.2148-0.1191,4.6602
			c0.6123,0.3232,1.123,0.6299,1.4971,0.8672v3.1982C603.2524,49.9375,602.606,49.5127,601.8911,49.0879z M590.4116,50.04
			c0,0.7998,0.3906,1.1904,0.7822,1.1904c0.6465,0,1.3262-1.6328,2.0234-4.5752C591.4321,47.0127,590.4116,48.6113,590.4116,50.04z"
			/>
		<path fill="#101F78" d="M618.356,50.1084c-0.0684,2.9756-1.8877,4.4727-5.1025,4.4727c-2.874,0-4.8984-1.4795-4.8984-3.9629
			c0-2.415,1.9902-3.9629,5.0684-3.9629c0.7656,0,1.4971,0.0684,2.2285,0.1699v-7.6357h2.7041v2.585h5.4082v2.4658h-5.4082v3.2148
			c2.2959,0.7139,4.252,1.7686,5.5615,2.5v3.0957C623.186,52.54,620.9751,51.1113,618.356,50.1084z M615.6519,49.3086
			c-0.7656-0.1699-1.5479-0.2549-2.2959-0.2549c-1.4287,0-2.3477,0.4932-2.3477,1.4629c0,1.0713,1.0205,1.5469,2.2285,1.5469
			c1.5303,0,2.415-0.5439,2.415-2.6191V49.3086z"/>
		<path fill="#101F78" d="M630.8062,54.3262v-2.6367c4.7617-0.0508,9.0986-1.0205,9.0986-3.8604
			c0-1.2422-1.0205-1.9902-3.5713-1.9902c-3.0439,0-6.0889,0.7314-7.8574,1.1738V44.291c1.5645-0.3564,4.6602-1.0205,8.2314-1.0205
			c3.708,0,6.1396,1.3438,6.1396,4.4902C642.8472,52.3018,638.5103,54.2412,630.8062,54.3262z M630.313,42.2168v-2.5684
			c3.0273,0,7.041,0,10.3232,0.2041v2.6699C637.5073,42.2168,633.8843,42.2168,630.313,42.2168z"/>
	</g>
</g>
</svg>
