<?xml version="1.0" encoding="utf-8"?>
<!-- Generator: Adobe Illustrator 22.1.0, SVG Export Plug-In . SVG Version: 6.00 Build 0)  -->
<svg version="1.1" id="レイヤー_1" xmlns="http://www.w3.org/2000/svg" xmlns:xlink="http://www.w3.org/1999/xlink" x="0px"
	 y="0px" viewBox="0 0 443 229" enable-background="new 0 0 443 229" xml:space="preserve">
<g>
	<path fill="#4ECDC4" d="M49.0386,112.2549c-24.6909,0-43.4126-10.3105-42.4629-38.5283c0.1353-2.0352,0.271-8.5469,0.6782-17.2295
		h-23.7412V36.8252H7.7964c0.1357-4.0693,0.2715-8.1396,0.4072-12.209h-24.6909V4.9443H8.8818
		c0.2715-9.0898,0.4067-15.3301,0.4067-15.3301h22.3848c0,0-0.271,6.2402-0.6782,15.3301h63.7622v19.6719H30.1812
		c-0.1357,4.0693-0.2715,8.1396-0.4072,12.209h64.9834v19.6719H29.0957c-0.271,8.2754-0.5425,14.5156-0.4067,16.2793
		c-0.2715,14.2451,8.9536,18.5859,21.4351,18.5859c21.8418,0,29.1675-15.1943,31.3384-31.7451h22.3848
		C102.2192,86.6143,87.4316,112.2549,49.0386,112.2549z"/>
</g>
<g>
	<path fill="#C7F464" d="M217.5942,216.127c-2.4321,3.1807-6.3608,7.4834-11.7866,12.9092
		c-16.8379,16.6514-34.9854,25.0703-54.2554,25.0703c-7.1094,0-13.0962-1.4971-17.7734-4.6777
		c-9.9155-6.5479-14.7798-18.709-14.7798-36.4824c0-11.5986,0.561-22.6377,1.4966-33.1143
		c2.0581-22.6377,3.1807-36.4824,3.1807-41.3467c0-4.4902-3.1807-7.4834-9.5415-8.793c-2.9937-0.5615-4.4902-1.4961-4.4902-2.4316
		c0-1.6846,1.4966-3.3682,4.6772-4.6777c2.6191-1.1221,4.8643-1.6836,6.9224-1.6836c3.5547,0,8.2319,1.3096,14.0317,3.9287
		c6.5479,2.9932,9.7285,6.1738,9.7285,9.3545c0,2.2451-0.7485,6.9219-2.4321,14.0312c-5.6128,23.3867-8.4189,44.7148-8.4189,63.9844
		c0,9.7285,1.8706,16.2764,5.4253,19.8311c3.1807,3.1807,8.4189,4.6777,15.7153,4.6777c7.6709,0,15.5283-1.3096,23.7603-3.7422
		c9.5415-2.8057,21.5151-9.3545,35.7339-19.8311c2.4321-1.6836,3.9287-2.6191,4.4902-2.6191c0.561,0,0.9355,0.374,0.9355,0.9355
		C220.2139,212.3857,219.2783,213.8818,217.5942,216.127z M189.1572,165.4268c-2.4321,0.374-4.3032-0.375-6.1743-2.2451
		c-2.9932-2.9941-7.1094-6.9229-12.1606-11.9736c-3.9287-4.1162-5.6123-6.3613-5.2383-6.9229
		c0.561-0.9355,2.8062-1.1221,6.3608-0.5605c3.7417,0.5605,7.6709,2.0576,11.9736,4.1152c5.7998,2.8066,8.606,6.9229,8.4189,12.1611
		C192.3374,163.3682,191.2148,165.2393,189.1572,165.4268z M206.9302,153.2656c-2.4321,0.374-4.3027-0.374-6.1738-2.2451
		c-2.9932-2.9932-7.2964-6.7354-12.1606-11.9736c-4.1157-4.1162-5.6128-6.5479-5.2383-7.1094
		c0.561-0.9355,2.8062-1.1221,6.3608-0.5615c3.9287,0.5615,7.8579,2.0586,12.1606,4.1162c5.7998,2.8066,8.606,6.9219,8.4189,12.1611
		C210.1108,151.0205,208.9883,152.8916,206.9302,153.2656z"/>
</g>
<g>
	<path fill="#FF6B6B" d="M295.6304,1.7324c-15.5542,42.6494-27.7637,64.3916-38.6353,87.4727
		c-1.6724,3.6797-5.3521,5.1846-9.0312,5.1846c-4.8506,0-9.8682-3.0107-9.8682-8.0283c0-1.6719,0.502-3.3447,1.5054-5.3516
		c8.5298-15.3867,22.0771-38.6348,35.29-72.9219c-5.1846,1.3379-9.8677,2.1748-14.2163,2.1748
		c-9.3662,0-15.7217-3.6797-15.7217-10.2031c0-4.6826,3.0107-9.7002,8.3628-9.7002c1.6724,0,3.5122,0.334,5.6865,1.5049
		c1.1709,0.502,2.3413,0.8369,3.6792,0.8369c3.8472,0,11.5405-1.8398,18.5649-4.3486c0.6694-3.6797,1.0039-7.3594,1.0039-12.377
		c0-5.8535,5.3521-9.0312,10.5366-9.0312c8.5298,0,9.0317,6.5225,9.0317,9.1982c0,0.8369,0,1.6729-0.1675,2.5088
		c0.1675,0,0.1675,0,0.3345,0c5.0176,0,9.1992,4.1816,9.1992,8.8643c0,5.1855-5.0176,8.8652-15.2202,13.3809L295.6304,1.7324z
		 M344.8022,96.2295c-26.7603,0-45.9941-14.0488-45.9941-23.75c0-5.5186,4.5161-10.3691,9.5337-10.3691
		c2.5088,0,5.1846,1.1709,7.3589,4.1816c5.854,7.6934,8.5298,8.8643,32.6138,10.5361c6.6904,0.502,9.5337,4.8506,9.5337,9.3662
		c0,4.8506-3.5122,9.7012-9.7007,10.0352C346.9766,96.2295,345.9731,96.2295,344.8022,96.2295z M354.5029,33.6777
		c-7.8608-3.0107-19.5684-7.8613-28.9346-7.8613c-1.8398,0-3.6792,0.168-5.3521,0.6689c-0.8359,0.168-1.5054,0.335-2.1743,0.335
		c-4.3481,0-7.3589-3.8467-7.3589-7.8613c0-3.8467,2.3413-10.0352,17.0596-10.0352c9.3662,0,21.4082,2.6768,33.7847,7.6943
		c4.3486,1.6719,6.0215,5.0176,6.0215,8.3623c0,4.6826-3.8472,9.5332-9.1992,9.5332
		C357.1792,34.5137,355.8408,34.1797,354.5029,33.6777z"/>
</g>
<g>
	<path fill="#F8CA00" d="M370.0723,232.0312c-24.8652,0-38.0654-26.0928-38.0654-63.3906c0-23.791,1.8418-47.2744,7.9814-64.6182
		c2.6094-7.3682,9.2095-11.2051,15.8096-11.2051c8.2881,0,15.8091,5.5254,15.8091,17.1904c0,3.5303-0.6138,7.3682-2.1489,11.8193
		c-3.9907,11.3574-6.9067,28.2412-6.9067,39.7529c0,16.8838,5.2183,27.3213,7.9814,27.3213c3.2231,0,7.5205-4.4512,12.4321-19.4932
		c2.1489-6.9072,7.9814-10.5908,14.1211-10.5908c8.2886,0,16.8838,6.9072,16.8838,20.2607c0,3.5303-0.4604,7.6738-1.9956,12.4326
		C402.1509,222.0547,389.1045,232.0312,370.0723,232.0312z M406.7559,178.6172c0.4604-1.3809,0.6138-2.6094,0.6138-3.8369
		c0-6.293-5.3721-10.2842-10.5908-10.2842c-3.6836,0-7.0601,1.9961-8.5952,6.6006c-5.6792,17.1904-10.8975,23.4834-17.6509,23.4834
		s-13.814-13.5068-13.814-36.377c0-15.3486,2.7627-34.8418,7.6743-49.4229c0.3071-0.9209,0.4604-1.6885,0.4604-2.6094
		c0-4.6045-4.4512-7.8281-9.3628-7.8281c-4.144,0-8.5952,2.3027-10.437,7.6748c-4.7583,13.2002-7.2144,34.5352-7.2144,51.4189
		c0,34.9951,11.0513,58.6318,32.2329,58.6318C386.4951,216.0684,397.6997,206.7061,406.7559,178.6172z M469.5322,200.1055
		c0,9.9775-8.1348,14.8887-15.9624,14.8887c-7.521,0-15.042-4.6045-15.042-14.1211c0-25.4785-6.6001-50.4971-21.4883-68.7627
		c-3.9907-4.9111-5.6792-10.1299-5.6792-15.042c0-10.4365,8.2886-18.7256,17.3442-18.7256c4.4512,0,8.9023,1.8418,12.7393,6.293
		c23.6372,27.3213,28.0884,60.168,28.0884,90.4053V200.1055z M437.1465,108.166c-2.6094-2.916-5.5259-4.1436-8.4419-4.1436
		c-5.2188,0-9.6699,3.8369-9.6699,8.2881c0,1.5352,0.7676,3.377,2.3022,5.3721c15.6558,19.4932,22.563,45.5859,22.563,72.1396
		c0,5.832,4.6045,8.9023,9.5161,8.9023c5.2188,0,10.2837-3.2236,10.2837-9.8232
		C463.6997,160.1992,456.1787,130.4219,437.1465,108.166z"/>
</g>
<g>
	<path fill="#420943" d="M200.4189,67.4287c0-0.4404,0.2935-0.8076,0.5137-0.8076h6.4561c1.2471,0,1.6875-0.5137,2.0542-1.54
		l11.8115-36.6826l-0.0732-0.0732c-2.9346,1.7607-6.5293,3.7412-9.2437,5.209c-0.5137,0.2197-0.8071,0.293-0.9541,0.293
		c-0.3667,0-0.6602-0.4395-0.6602-0.6602c0-0.2197,0.0732-0.3662,0.7334-0.6602c9.2441-4.8418,19.5884-11.665,27.9521-17.6074
		c0.5869-0.4404,0.6602-0.4404,0.8804-0.4404s2.8608,0.3672,2.8608,0.7344c0,0.293,0,0.2197-2.9346,9.3164l-12.9854,40.6445
		c-0.2197,0.7334-0.2935,1.0273-0.2935,1.1006c0,0.293,0.0737,0.3662,0.3667,0.3662h6.9697c0.2202,0,0.3672,0.1465,0.3672,0.3672
		c0,0.4404-0.2202,0.8066-0.5137,0.8066c-10.9316-0.1465-12.4722-0.1465-16.3604-0.1465c-4.2549,0-5.5757,0-16.5801,0.1465
		C200.5659,67.7949,200.4189,67.6484,200.4189,67.4287z"/>
</g>
<g>
	<path fill="#420943" d="M75.9551,88.9414v3.2646c0,5.7656-3.1465,7.6709-8.895,7.8242v-2.5518
		c2.5-0.0674,4.3027-0.6289,5.2383-1.7852c-0.4761,0.1699-1.1226,0.3232-1.8706,0.3232c-2.3813,0-4.1499-1.123-4.1499-3.3174
		c0-1.8535,1.5308-3.1973,4.439-3.1973c0.9863,0,1.752,0.1367,2.415,0.374v-0.9346h-9.0654v-2.5176h9.0654v-1.8203h2.8232v1.8203
		h3.708v2.5176H75.9551z M70.9888,91.4414c-1.2246,0-2.0581,0.5098-2.0581,1.207c0,0.7822,0.7485,1.208,2.0752,1.208
		c1.3096,0,2.1602-0.5781,2.1602-1.3438C73.166,91.7979,72.3154,91.4414,70.9888,91.4414z"/>
	<path fill="#420943" d="M95.8711,91.7812c0.6123,1.293,1.2417,2.5508,1.8877,3.7422l-2.9761,0.2549
		c-0.7656-0.4258-2.126-0.8672-4.0312-0.8672c-1.7856,0-2.9424,0.4082-2.9424,1.1729c0,0.9355,1.2588,1.3438,4.4395,1.3438
		c1.8535,0,3.8267-0.2383,5.5952-0.5947v2.6191c-1.6836,0.3057-3.5884,0.5273-6.0547,0.5273c-4.269,0-6.8369-0.9873-6.8369-3.7588
		c0-2.1094,1.8198-3.5039,5-3.5039c1.8032,0,3.1465,0.3057,3.7251,0.459c-0.2041-0.3906-0.4253-0.833-0.6465-1.2754h-8.5381v-2.2109
		h7.4834c-0.1699-0.3574-0.3228-0.7148-0.4932-1.0713h-6.9902v-2.2285h6.021c-0.2554-0.5947-0.4932-1.1738-0.7144-1.7178h3.0444
		c0.187,0.4766,0.374,0.9863,0.5952,1.4971h5.5107v2.2109h-4.6094c0.1699,0.374,0.3232,0.748,0.4932,1.1221h4.1162v2.2793H95.8711z"
		/>
	<path fill="#420943" d="M109.5796,89.2979c-0.7993,3.1123-1.8198,6.0547-2.9766,8.9639h-2.9761
		c1.3267-2.8916,2.3809-5.9365,3.1636-8.9639h-2.2114V86.832h2.7725c0.1533-0.7148,0.272-1.4287,0.3911-2.1426h2.8232
		c-0.1191,0.7305-0.2549,1.4453-0.4082,2.1426h2.5176v2.4658H109.5796z M117.3013,96.9004c-0.272,2.2109-1.939,3.2314-4.354,3.2314
		c-2.7041,0-4.5752-1.2412-4.5752-3.5713c0-2.1602,1.7349-3.5713,4.3711-3.5713c0.6973,0,1.3438,0.0674,1.9561,0.1699v-3.8613
		h-1.1738V86.832h5.9697v2.4658h-2.1597v4.6777c1.0371,0.459,1.8364,1.0029,2.415,1.4111v3.334
		C119.019,98.125,118.1855,97.4785,117.3013,96.9004z M114.6992,95.6084c-0.6294-0.2217-1.2759-0.3408-1.8882-0.3408
		c-1.3774,0-1.9897,0.5449-1.9897,1.2246c0,0.8848,0.8672,1.2422,1.9727,1.2422c1.2588,0,1.9053-0.5791,1.9053-2.0068V95.6084z"/>
	<path fill="#420943" d="M132.5571,100.0127c-3.0952,0-5.4424-1.292-5.3232-4.8301c0.0166-0.2549,0.0337-1.0713,0.085-2.1602
		h-2.9678v-2.4658h3.0439c0.0171-0.5098,0.0342-1.0205,0.0513-1.5303h-3.104v-2.4668h3.1807
		c0.0337-1.1396,0.0508-1.9219,0.0508-1.9219h2.8062c0,0-0.0337,0.7822-0.085,1.9219h8.0024v2.4668h-8.0957
		c-0.0171,0.5098-0.0342,1.0205-0.0513,1.5303h8.1382v2.4658h-8.2314c-0.0342,1.0381-0.0684,1.8203-0.0513,2.041
		c-0.0337,1.7861,1.1226,2.3301,2.6958,2.3301c2.7383,0,3.6567-1.9043,3.9287-3.9795h2.8066
		C139.2329,96.7988,137.3789,100.0127,132.5571,100.0127z"/>
	<path fill="#420943" d="M150.5347,99.9619c-3.4526,0-5.9185-1.3262-5.9185-5.5107v-9.4395h2.7549v9.2871
		c0,2.126,1.2075,2.9424,3.1978,2.9424c2.9761,0,4.5068-2.041,4.7959-6.3613h2.8066
		C157.916,96.7988,155.229,99.9619,150.5347,99.9619z M152.6777,87.8691v-2.5166h1.7686v2.5166H152.6777z M155.0586,87.8691v-2.5166
		h1.769v2.5166H155.0586z"/>
	<path fill="#420943" d="M173.9209,93.2949c0.1021,0.9014,0.1362,1.9902,0.1362,3.2656h-2.5513c0-0.9863-0.0171-1.8535-0.085-2.585
		c-1.667,0.6123-2.7725,1.3604-2.7725,2.1084c0,1.0713,1.6328,1.3779,3.8608,1.3779c1.4287,0,2.8574-0.1357,4.4561-0.374v2.6191
		c-1.1226,0.1357-2.6191,0.2891-4.4731,0.2891c-3.5718,0-6.6499-0.6973-6.6499-3.7588c0-1.8711,2.0918-3.4521,4.7959-4.541
		c-0.1699-0.1357-0.3911-0.2207-0.6631-0.2207c-1.1226,0-2.2622,0.5264-3.4355,1.6318c-1.0205,0.9355-2.2451,2.2451-3.793,3.5215
		v-3.2998c1.5308-1.3438,2.8916-2.8916,3.9971-4.6602h-3.5039v-2.415h4.7793c0.2212-0.4932,0.4253-1.0205,0.5952-1.5479h2.9087
		c-0.1875,0.5273-0.3916,1.0547-0.5952,1.5479h6.0034v2.415h-7.2114c-0.2549,0.4424-0.5269,0.8506-0.7822,1.207
		c0.2891-0.1357,1.0547-0.374,1.6841-0.374c1.2925,0,2.1089,0.4424,2.6191,1.3613c1.4453-0.3574,2.9253-0.5791,4.269-0.6465v2.585
		C176.2681,92.8867,175.0435,93.0566,173.9209,93.2949z"/>
	<path fill="#420943" d="M187.8501,100.3877V87.6484h-5.3745v-2.9424h15.375v2.9424h-6.7178v3.3506l0.8501-1.2588
		c2.2622,1.2588,5.1533,3.334,5.1533,3.334l-1.8535,2.6699c0,0-1.7012-1.4971-4.1499-3.0781v7.7217H187.8501z"/>
	<path fill="#420943" d="M210.7935,99.7412v-2.6025c2.4492-0.2891,4.7451-1.667,4.7451-5.1367c0-1.8193-0.9863-3.5371-3.2144-4.0986
		c-0.5273,3.9287-1.3096,7.0078-2.4834,9.1162c-0.8672,1.582-1.9048,2.041-2.9766,2.041c-1.9219,0-4.0308-2.126-4.0308-5.7314
		c0-4.4561,3.1978-8.1133,8.1299-8.1133c4.5581,0,7.3813,2.7559,7.3813,6.8887C218.3447,97.4619,214.688,99.6221,210.7935,99.7412z
		 M205.4526,93.3291c0,1.8027,0.8848,2.9082,1.3608,2.9082c0.4082,0,0.7822-0.5957,1.3096-1.9219
		c0.6465-1.6328,1.2246-4.2178,1.5308-6.5137C206.9326,88.2949,205.4526,90.7949,205.4526,93.3291z"/>
	<path fill="#420943" d="M233.5332,92.3936c-0.6973,5.0518-4.4048,7.0752-8.6909,7.5176v-2.6875
		c3.3164-0.4424,5.1533-2.1943,5.5444-4.8301h-7.0752v-2.585h15.2222v2.585H233.5332z M224.3491,87.8691V85.25h13.249v2.6191
		H224.3491z"/>
	<path fill="#420943" d="M252.9731,95.5059l0.4253,4.626h-2.9146l-0.4092-4.626h-6.7363v-2.6191h6.4805l-0.2559-3.1123h-5.6465
		v-2.6191h5.4258l-0.2212-2.6191h2.8994l0.2041,2.6191h6.2593v2.6191h-6.0044l0.2725,3.1123h6.4634v2.6191H252.9731z"/>
	<path fill="#420943" d="M272.6685,94.9111c-2.5,2.6865-5.7998,4.3193-8.7759,4.9316v-2.7383
		c3.9116-1.0879,8.0786-4.252,9.354-9.0654h-8.4697v-2.6523h11.9395c-0.187,2.7207-0.9863,5.0684-2.1602,7.0234
		c0.9019,2.2793,2.6875,3.7422,4.2354,4.5752v3.0107C276.0869,99.1113,273.9609,97.1729,272.6685,94.9111z"/>
	<path fill="#420943" d="M287.1421,92.3594v7.6709h-2.9424V84.6719h2.9424v4.8643c3.2822,0.5957,6.9219,1.3438,9.8306,2.0918v2.9082
		C293.9111,93.7539,290.1182,92.9375,287.1421,92.3594z"/>
	<path fill="#420943" d="M301.9219,99.1455v-2.6191h5.9526v-8.1465h-4.9834v-2.6191h13.2153v2.6191h-5.3066v8.1465h6.293v2.6191
		H301.9219z"/>
	<path fill="#420943" d="M322.7734,94.043v-8.9463h2.959v8.9463H322.7734z M324.6104,99.7754v-2.6367
		c5.5273-0.3057,8.4185-1.5137,8.4185-6.7178v-5.3242h2.9766v5.3408C336.0054,97.2236,331.9917,99.6221,324.6104,99.7754z"/>
	<path fill="#420943" d="M348.2344,94.9785c-1.2417,2.8066-3.6396,4.3545-6.3608,4.9492v-2.6865
		c2.874-1.0723,4.5068-3.1641,4.5068-7.127v-0.7988h2.7383v0.9688c0,0.6299-0.0337,1.2246-0.1021,1.7861
		c2.1602-0.6465,3.2998-2.1768,3.6909-4.167h-11.3442V85.25h14.5586v0.5615C355.8198,91.832,351.9761,94.332,348.2344,94.9785z"/>
	<path fill="#420943" d="M363.9668,94.332c0,1.7354,0.0513,3.5215,0.1699,5.4766h-2.772c-0.1021-1.7852-0.1191-3.6221-0.1191-5.4248
		c0-3.2656,0.1699-6.4121,0.4761-9.5244h2.8062C364.2051,88.0225,363.9668,91.1006,363.9668,94.332z M371.1953,99.3838
		c-3.9971,0-6.2251-1.2246-6.2251-4.082c0-1.5303,0.7822-2.9766,1.4966-3.9121h3.0957c-1.0034,1.1055-1.854,2.3643-1.854,3.5547
		c0,1.208,1.2754,1.7178,3.5039,1.7178c1.5303,0,3.146-0.2715,4.1157-0.4932v2.79
		C374.1885,99.1963,372.522,99.3838,371.1953,99.3838z M365.7017,88.7031v-2.6709h9.269v2.6709H365.7017z"/>
	<path fill="#420943" d="M145.1519,134.4199v-0.5439h-8.2998v0.5439h-2.8745v-14.2012h3.9121
		c0.4082-0.5273,0.8672-1.2246,1.2075-2.0078l3.2822,0.375c-0.2891,0.5947-0.6631,1.1729-1.1055,1.6328h6.7524v14.2178
		L145.1519,134.4199z M145.1519,122.9229h-8.2998v1.0537h8.2998V122.9229z M145.1519,126.5107h-8.2998v1.0547h8.2998V126.5107z
		 M145.1519,130.0996h-8.2998v1.0889h8.2998V130.0996z"/>
	<path fill="#420943" d="M165.6973,134.4199v-0.6973h-8.5889v0.6973h-3.0786v-13.3848h5.8506v-2.8242h3.0615v2.8242h5.8335v13.4014
		L165.6973,134.4199z M159.8804,124.1133h-2.772v1.9727h2.772V124.1133z M159.8804,128.79h-2.772v2.0586h2.772V128.79z
		 M165.6973,124.1133h-2.7554v1.9727h2.7554V124.1133z M165.6973,128.79h-2.7554v2.0586h2.7554V128.79z"/>
	<path fill="#420943" d="M177.1777,128.3477c0,1.7354,0.0513,3.5215,0.1699,5.4766h-2.772
		c-0.1021-1.7852-0.1191-3.6221-0.1191-5.4248c0-3.2656,0.1699-6.4121,0.4761-9.5244h2.8062
		C177.416,122.0381,177.1777,125.1162,177.1777,128.3477z M184.4062,133.3994c-3.9971,0-6.2251-1.2246-6.2251-4.082
		c0-1.5303,0.7822-2.9766,1.4966-3.9121h3.0957c-1.0034,1.1055-1.854,2.3643-1.854,3.5547c0,1.208,1.2754,1.7178,3.5039,1.7178
		c1.5303,0,3.146-0.2715,4.1157-0.4932v2.79C187.3994,133.2119,185.7329,133.3994,184.4062,133.3994z M178.9126,122.7188v-2.6709
		h9.269v2.6709H178.9126z"/>
	<path fill="#420943" d="M195.853,133.8418v-2.6367c4.7622-0.0508,9.0991-1.0205,9.0991-3.8604
		c0-1.2422-1.0205-1.9902-3.5718-1.9902c-3.0444,0-6.0889,0.7314-7.8574,1.1738v-2.7217c1.5645-0.3564,4.6602-1.0205,8.2314-1.0205
		c3.708,0,6.1401,1.3438,6.1401,4.4902C207.8945,131.8174,203.5576,133.7568,195.853,133.8418z M195.3594,121.7324v-2.5684
		c3.0278,0,7.0415,0,10.3242,0.2041v2.6699C202.5537,121.7324,198.9312,121.7324,195.3594,121.7324z"/>
	<path fill="#420943" d="M216.1436,132.9062v-2.4326c4.4727,0,7.4663-0.9863,7.4663-3.4863c0-1.4111-1.0376-2.3809-3.4014-2.3809
		c-2.4663,0-5.1704,0.7139-7.2456,1.3945v-2.585c1.752-0.5273,4.6094-1.293,7.3306-1.293c4.354,0,6.0547,2.1094,6.0547,4.7109
		C226.3481,130.5078,223.4736,133.1104,216.1436,132.9062z"/>
	<path fill="#420943" d="M245.0054,122.2754c-3.4526,0.1543-7.0073,2.4668-7.0073,5.1377c0,2.959,3.0444,3.6055,6.7183,3.6055
		v2.8057c-6.4629,0.1875-9.5757-2.3301-9.5757-6.0547c0-2.4492,1.3779-4.252,3.0957-5.4766l-6.6499,0.2383v-2.7119l14.6094-0.2559
		v2.6777L245.0054,122.2754z"/>
	<path fill="#420943" d="M265.228,128.6035c-0.7485,3.0947-2.5,5.2041-6.6333,5.5439v-2.4658
		c2.6025-0.459,3.708-1.8203,4.2012-4.3369c-1.0884-0.4932-2.2793-0.8848-3.5205-1.0889c-0.1362,0.6123-0.2891,1.1904-0.4424,1.7354
		c-1.0713,3.7412-2.2451,5.4932-4.439,5.4932c-1.6499,0-3.1636-1.3262-3.1636-3.9121c0-3.0615,2.1602-5.6289,5.834-5.918
		c0.1357-0.6973,0.2549-1.4121,0.374-2.126h-4.6094v-2.4668h7.7729c-0.2554,1.582-0.5103,3.1807-0.7993,4.7109
		c1.1733,0.1709,2.2788,0.4941,3.2651,0.8506c0.0513-1.0371,0.0684-2.2109,0.0684-3.5205h2.6191
		c0,1.6504-0.0171,3.2148-0.1191,4.6602c0.6123,0.3232,1.1226,0.6299,1.4966,0.8672v3.1982
		C266.5889,129.4531,265.9424,129.0283,265.228,128.6035z M253.7476,129.5557c0,0.7998,0.3911,1.1904,0.7827,1.1904
		c0.646,0,1.3262-1.6328,2.0239-4.5752C254.7681,126.5283,253.7476,128.127,253.7476,129.5557z"/>
	<path fill="#420943" d="M281.6914,129.624c-0.0679,2.9756-1.8877,4.4727-5.1021,4.4727c-2.8745,0-4.8984-1.4795-4.8984-3.9629
		c0-2.415,1.9897-3.9629,5.0684-3.9629c0.7651,0,1.4966,0.0684,2.228,0.1699v-7.6357h2.7041v2.585h5.4087v2.4658h-5.4087v3.2148
		c2.2964,0.7139,4.252,1.7686,5.5615,2.5v3.0957C286.522,132.0557,284.3105,130.627,281.6914,129.624z M278.9873,128.8242
		c-0.7656-0.1699-1.5479-0.2549-2.2959-0.2549c-1.4287,0-2.3472,0.4932-2.3472,1.4629c0,1.0713,1.0205,1.5469,2.228,1.5469
		c1.5308,0,2.415-0.5439,2.415-2.6191V128.8242z"/>
	<path fill="#420943" d="M294.1416,133.8418v-2.6367c4.7622-0.0508,9.0991-1.0205,9.0991-3.8604
		c0-1.2422-1.0205-1.9902-3.5718-1.9902c-3.0444,0-6.0889,0.7314-7.8574,1.1738v-2.7217c1.5645-0.3564,4.6602-1.0205,8.2314-1.0205
		c3.708,0,6.1401,1.3438,6.1401,4.4902C306.1831,131.8174,301.8462,133.7568,294.1416,133.8418z M293.6479,121.7324v-2.5684
		c3.0278,0,7.0415,0,10.3242,0.2041v2.6699C300.8423,121.7324,297.2197,121.7324,293.6479,121.7324z"/>
	<path fill="#420943" d="M75.606,152.1309c-1.1567,0.9756-2.4834,2.6768-2.4834,5.375s1.3267,4.3994,2.4834,5.374h-1.9844
		c-0.5439-0.5557-2.2222-2.2676-2.2222-5.374s1.6782-4.8193,2.2222-5.375H75.606z"/>
	<path fill="#420943" d="M88.5659,162.8799c-1.8369,0-3.2881-0.2373-4.3765-0.6123c-1.2358,0.4199-2.8916,0.6123-4.9097,0.6123
		l-0.7256-1.8477c0.5103,0.0342,1.0542,0.0449,1.5645,0.0449c0.6465,0,1.2812-0.0225,1.8032-0.0674c0,0-0.5898-0.3516-1.0093-0.7822
		c-0.6465,0.3281-1.2134,0.4756-1.2134,0.4756l-1.1338-1.7803c0,0,1.4058-0.2607,2.5283-1.0771l-0.7593-0.4307
		c0.9409-0.6689,1.3379-1.6553,1.3491-2.6758h-1.3042l0.8394,0.3174c-0.3745,1.7012-1.27,2.7549-1.27,2.7549l-1.542-1.0879
		c0,0,0.8618-0.9414,1.1904-1.9844h-0.7598v-1.8594h4.0142v-0.7822h2.1655v0.7822h4.0137v1.8594h-1.1108
		c0.3174,0.3623,0.9185,1.2246,1.3716,1.9277l-1.519,1.168c-0.5215-0.9863-1.0093-1.667-1.2476-1.9736v0.5107
		c0,1.5078-0.0566,1.6436-2.3354,1.6436l-0.1704-0.3848l-0.5781,0.5557h4.5581v1.6328c-0.4082,0.4756-1.043,1.0195-1.6553,1.2695
		c0.4536,0.0342,1.0771,0.0449,1.5308,0.0449c0.5103,0,1.0205-0.0225,1.4966-0.0674L88.5659,162.8799z M82.9648,159.751
		c0.3853,0.3057,0.8164,0.5781,1.3037,0.7705c0.5669-0.2041,1.0771-0.4756,1.4175-0.7705H82.9648z M83.4521,156.3037
		c-0.0791,0.3291-0.1924,0.6348-0.3628,0.8623l0.8506,0.249L83.4521,156.3037z M84.5977,154.7393h-0.9751
		c0,0,0,0.7031-0.1362,1.4062h0.6689c0.4194,0,0.4424-0.0566,0.4424-0.3408V154.7393z M86.5249,154.7393v0.7031l0.9302-0.7031
		H86.5249z"/>
	<path fill="#420943" d="M93.7363,162.9033v-5.7266c-0.5557,0.5557-0.9756,0.9072-0.9756,0.9072l-0.6572-2.2227
		c0,0,1.6895-1.2471,2.812-3.7637l1.8364,0.7363c-0.272,0.7373-0.7144,1.4629-1.0884,2.0635v8.0059H93.7363z M98.4644,162.665
		c-0.9526,0-1.4287-0.3516-1.4287-1.4287v-8.9238h2.041v3.0273c0.8501-0.5664,1.8594-1.3486,2.5283-2.2451l1.1567,1.6104
		c-1.0205,1.3379-2.6646,2.3584-3.6851,2.9258v2.6865c0,0.3857,0.0679,0.4316,0.4419,0.4316h0.9526
		c0.4424,0,0.4424-0.4883,0.4424-2.4834l1.939,0.8047c0,3.1641-0.3062,3.5947-2.1094,3.5947H98.4644z"/>
	<path fill="#420943" d="M113.9072,155.2607v2.1768c0,3.8438-2.0977,5.1143-5.9302,5.2158v-1.7002
		c1.6665-0.0459,2.8687-0.4199,3.4922-1.1914c-0.3174,0.1143-0.748,0.2158-1.2471,0.2158c-1.5874,0-2.7666-0.748-2.7666-2.2109
		c0-1.2363,1.0205-2.1318,2.9595-2.1318c0.6572,0,1.1675,0.0908,1.6099,0.25v-0.624h-6.0435v-1.6777h6.0435v-1.2139h1.8823v1.2139
		h2.4717v1.6777H113.9072z M110.5962,156.9277c-0.8164,0-1.3721,0.3398-1.3721,0.8047c0,0.5215,0.499,0.8057,1.3833,0.8057
		c0.873,0,1.4399-0.3857,1.4399-0.8965C112.0474,157.166,111.4805,156.9277,110.5962,156.9277z"/>
	<path fill="#420943" d="M124.7915,162.665c-2.2676,0-3.9229-0.8057-3.9229-2.291c0-0.8838,0.7593-1.8027,2.3921-1.8027
		c1.5537,0,2.6196,0.8164,2.8574,1.0098v1.2812c0.9072-0.2842,1.5874-0.8623,1.5874-1.792c0-0.9863-0.9751-1.6211-2.5059-1.6211
		c-1.5762,0-2.9141,0.1475-5.5332,1.9727v-1.9277l5.1025-3.0947h-4.0254v-1.667h7.4043v1.4512l-3.0503,1.8936
		c0.2041-0.0566,0.499-0.1025,0.8618-0.1025c2.0977,0,3.6509,1.0781,3.6509,3.0508
		C129.6104,161.2471,127.6943,162.665,124.7915,162.665z M123.2153,159.9775c-0.4761,0-0.6689,0.1816-0.6689,0.3398
		c0,0.499,1.27,0.749,2.0752,0.749c0.3403,0,0.6802-0.0342,0.9976-0.0908C125.0068,160.5449,124.0547,159.9775,123.2153,159.9775z"
		/>
	<path fill="#420943" d="M138.2734,162.4609v-1.7354c1.6328-0.1924,3.1636-1.1104,3.1636-3.4238
		c0-1.2129-0.6577-2.3584-2.1431-2.7324c-0.3516,2.6191-0.873,4.6709-1.6558,6.0771c-0.5781,1.0547-1.2695,1.3604-1.9839,1.3604
		c-1.2812,0-2.6875-1.417-2.6875-3.8203c0-2.9707,2.1318-5.4092,5.4199-5.4092c3.0386,0,4.9209,1.8369,4.9209,4.5928
		C143.3076,160.9414,140.8701,162.3818,138.2734,162.4609z M134.7129,158.1865c0,1.2012,0.5898,1.9385,0.9072,1.9385
		c0.272,0,0.5215-0.3965,0.873-1.2812c0.4307-1.0889,0.8164-2.8115,1.0205-4.3428
		C135.6997,154.8301,134.7129,156.4971,134.7129,158.1865z"/>
	<path fill="#420943" d="M148.6255,158.8213c0,1.1787,0.0229,2.3809,0.1021,3.6846h-1.8257
		c-0.0449-1.2012-0.0679-2.4258-0.0679-3.6621c0-2.1885,0.0679-4.2744,0.2607-6.3271h1.8369
		C148.7388,154.6035,148.6255,156.6553,148.6255,158.8213z M154.9751,160.3516c-0.1362,1.5195-1.0659,2.2568-2.8345,2.2568
		c-1.6216,0-2.9482-0.749-2.9482-2.4834c0-1.293,1.0547-2.3242,2.8687-2.3242c0.397,0,0.7827,0.0342,1.1455,0.1016v-2.0176h-3.7646
		v-1.667h3.7646v-1.7012h1.7915v1.7012h1.6323v1.667h-1.6323v2.5625c0.9751,0.4189,1.6323,0.9062,1.7686,1.0088v2.1768
		C156.5967,161.4746,155.8711,160.8965,154.9751,160.3516z M153.2065,159.5127c-0.3745-0.125-0.7485-0.2041-1.0889-0.2041
		c-0.8164,0-1.2812,0.3516-1.2812,0.8389c0,0.5674,0.5444,0.8164,1.2476,0.8164c0.8047,0,1.1226-0.499,1.1226-1.2129V159.5127z"/>
	<path fill="#420943" d="M168.5815,157.46c0.0449,0.2383,0.0566,0.5791,0.0566,0.7598c0,2.4492-1.4175,4.4678-4.252,4.4678
		c-2.5742,0-4.1162-1.5078-4.1162-3.8438c0-2.0068,1.1455-3.4473,1.9731-4.2295h-2.2563v-1.7119h4.5015v1.7012
		c-1.3833,1.2246-2.3813,2.4941-2.3813,4.1377c0,1.5996,1.1792,2.1885,2.2109,2.1885c1.395,0,2.6191-0.8613,2.6191-3.2422
		c0-1.4629-0.6235-2.9365-1.4512-4.8076h1.8823c0.873,1.7803,1.4966,2.7666,2.7891,3.6055v2.1992
		C169.6133,158.334,169.0122,157.9482,168.5815,157.46z"/>
	<path fill="#420943" d="M177.6973,162.4385c-1.4741,0-2.3472-0.125-3.0161-0.2041v-1.7461
		c0.7256,0.1016,1.5986,0.2266,2.9482,0.2266c1.9048,0,3.4692-0.5781,3.4692-1.8027c0-0.7715-0.6577-1.3047-1.9614-1.3047
		c-1.939,0-3.4243,0.9873-4.082,1.8037h-1.644l0.4536-4.627h1.8481l-0.3286,2.3477c0.7144-0.5449,2.041-1.1904,3.8438-1.1904
		c2.5625,0,3.8208,1.2012,3.8208,2.9248C183.0488,161.123,181.1216,162.4385,177.6973,162.4385z M174.2617,154.3311v-1.6777
		c2.0859,0,5.3403,0.0674,7.5967,0.2041v1.7227C179.6362,154.4102,176.1553,154.3311,174.2617,154.3311z"/>
	<path fill="#420943" d="M191.4058,162.54c-0.6123,0-1.3833-0.1582-1.7686-0.3057v-1.8037
		c0.4307,0.1475,1.0654,0.3291,1.5078,0.3291c0.9639,0,1.2358-1.0996,1.2358-3.1855c0-1.3721-0.2266-1.6221-1.2017-1.6221h-1.0547
		c-0.4648,2.3477-1.0547,4.502-1.7119,6.543h-2.064c0.8506-2.041,1.4971-4.2637,1.939-6.543h-1.8481v-1.6895h2.1318
		c0.0903-0.5889,0.1587-1.1787,0.2153-1.7686h1.916c-0.0791,0.6006-0.1699,1.1904-0.272,1.7686h1.0659
		c1.8706,0,2.7666,0.4199,2.7666,3.3115C194.2632,161.3154,193.4922,162.54,191.4058,162.54z M193.6279,153.7529v-1.5879h1.1226
		v1.5879H193.6279z M195.3403,158.7646c-0.125-1.667-0.4648-3.2314-1.3379-4.7061h1.9956c0.7144,1.4062,1.0884,3.1865,1.1904,4.7061
		H195.3403z M195.1475,153.7529v-1.5879h1.1338v1.5879H195.1475z"/>
	<path fill="#420943" d="M203.7866,155.499c-0.5327,2.0752-1.2129,4.0361-1.9839,5.9756h-1.9844
		c0.8843-1.9277,1.5874-3.957,2.1089-5.9756h-1.4741v-1.6445h1.8481c0.1021-0.4756,0.1816-0.9521,0.2607-1.4287h1.8823
		c-0.0791,0.4883-0.1699,0.9639-0.272,1.4287h1.6782v1.6445H203.7866z M208.9346,160.5674
		c-0.1816,1.4736-1.2925,2.1543-2.9028,2.1543c-1.8027,0-3.0498-0.8281-3.0498-2.3809c0-1.4404,1.1562-2.3818,2.9141-2.3818
		c0.4648,0,0.8955,0.0459,1.3037,0.1133v-2.5732h-0.7822v-1.6445h3.9795v1.6445h-1.4399v3.1182
		c0.6919,0.3057,1.2246,0.6689,1.6104,0.9404v2.2227C210.0796,161.3838,209.5239,160.9531,208.9346,160.5674z M207.1997,159.7051
		c-0.4194-0.1475-0.8506-0.2266-1.2588-0.2266c-0.918,0-1.3262,0.3633-1.3262,0.8164c0,0.5898,0.5781,0.8281,1.3149,0.8281
		c0.8394,0,1.27-0.3857,1.27-1.3379V159.7051z"/>
	<path fill="#420943" d="M217.5527,157.5059c0,0.8955-0.7261,1.6328-1.6328,1.6328c-0.9072,0-1.6328-0.7256-1.6328-1.6328
		c0-0.9189,0.748-1.6328,1.6328-1.6328C216.8154,155.873,217.5527,156.5986,217.5527,157.5059z"/>
	<path fill="#420943" d="M226.1582,159.2861c-0.8276,1.8711-2.4263,2.9023-4.2407,3.2998v-1.792
		c1.9165-0.7139,3.0049-2.1094,3.0049-4.751v-0.5332h1.8257v0.6465c0,0.4199-0.0229,0.8164-0.0684,1.1904
		c1.4404-0.4307,2.1997-1.4512,2.4609-2.7773h-7.563v-1.7695h9.7056v0.375C231.2153,157.1885,228.6528,158.8555,226.1582,159.2861z"
		/>
	<path fill="#420943" d="M234.481,162.7783v-2.1543c0.8276-0.7715,1.4624-1.8711,1.4624-4.751v-3.1748h1.8481v3.0498
		C237.7915,160.0342,236.4424,161.7012,234.481,162.7783z M238.9253,162.54v-9.8535h1.8481v7.4727
		c1.5195-0.4873,2.166-2.4717,2.2681-4.377h1.8481C244.7534,159.9209,242.8374,162.3359,238.9253,162.54z"/>
	<path fill="#420943" d="M249.4473,162.5059v-1.7568c3.5034-0.5898,5.6128-2.7334,5.9526-6.1006h-7.2451v-1.7686h9.3657v0.2266
		C257.5205,159.2861,253.9263,162.0635,249.4473,162.5059z"/>
	<path fill="#420943" d="M265.0493,159.7852c-0.7256,1.6211-2.1206,2.5059-3.7871,2.8799v-1.7012
		c1.6665-0.6123,2.585-1.791,2.585-4.0137v-0.3516h1.7236v0.4424c0,0.3057-0.0112,0.6006-0.0454,0.8848
		c1.1001-0.375,1.7007-1.1455,1.9165-2.166h-6.4746v-1.6895h8.5039v0.4082C269.4033,157.9023,267.2603,159.3652,265.0493,159.7852z"
		/>
	<path fill="#420943" d="M278.6782,157.4941c-1.0996-2.2217-1.2588-2.3584-2.1089-2.3584h-0.3745l-1.145,2.71
		c-0.4873,1.3037-1.2925,1.9619-2.5283,2.1201v-1.8359c0.4082-0.1934,0.6802-0.5791,0.9185-1.2246l1.4399-3.6172h1.5308
		c1.9956,0,2.5396,0.2949,3.855,2.9707c0.9526,1.9502,1.8936,3.7412,3.1182,4.1719v1.9395
		C281.3086,162.0635,280.0503,160.2725,278.6782,157.4941z M279.6309,154.3428v-1.6787h1.1792v1.6787H279.6309z M281.2183,154.3428
		v-1.6787h1.1792v1.6787H281.2183z"/>
	<path fill="#420943" d="M287.3296,158.4473c-0.1699-1.1338-0.6235-3.0273-0.9976-4.2637h1.7573
		c0.3853,1.1338,0.8276,2.9824,1.0659,4.2637H287.3296z M288.2935,162.6426v-1.7129c3.7642-0.7822,4.8984-2.71,4.9209-6.542v-0.2041
		h1.916v0.2158C295.0854,159.7852,292.5566,162.0303,288.2935,162.6426z M290.2437,158.3447
		c-0.1699-1.1562-0.6011-2.9932-0.9639-4.2402h1.7461c0.397,1.1338,0.8052,2.8906,1.0435,4.2402H290.2437z"/>
	<path fill="#420943" d="M300.7319,157.54v5.1133H298.77V152.415h1.9619v3.2422c2.188,0.3975,4.6147,0.8965,6.5532,1.3955v1.9385
		C305.2446,158.4697,302.7158,157.9258,300.7319,157.54z"/>
	<path fill="#420943" d="M319.5308,153.8203v1.4971h-5.4653c-0.4424,2.4941-0.9526,4.6602-1.6099,7.0303h-1.9277
		c0.7144-2.1777,1.3037-4.5469,1.7349-7.0078h-1.6104v-1.7002h1.8711c0.0454-0.3975,0.1021-0.8057,0.1475-1.2021h1.8594
		c-0.0566,0.4082-0.1245,0.8047-0.1812,1.2021h3.3901v-1.3838h1.1226v1.3838h0.4082v-1.3838h1.1226v1.5645H319.5308z
		 M317.2856,162.4951c-2.313,0-3.3564-0.9072-3.3564-2.1777c0-0.7822,0.397-1.4854,0.7485-1.9609h1.939
		c-0.2949,0.3398-0.8843,1.0205-0.8843,1.5869c0,0.4648,0.4531,0.8623,1.7573,0.8623c0.9976,0,2.1997-0.1816,3.0615-0.375v1.792
		C319.7573,162.3477,318.5894,162.4951,317.2856,162.4951z M314.5981,157.6641v-1.5645h5.7036v1.5645H314.5981z"/>
	<path fill="#420943" d="M325.8457,158.0391c0,1.3379,0.0454,2.7773,0.1475,4.252h-1.8481
		c-0.0566-1.123-0.1133-2.5967-0.1133-4.1045c0-1.917,0.0791-3.7988,0.2832-5.5674h1.7915
		C325.9141,154.5352,325.8457,156.2021,325.8457,158.0391z M332.3315,156.293v1.0088c0,4.0928-2.5967,5.0342-5.0005,5.2725v-1.6895
		c1.7236-0.2725,3.1636-0.998,3.1636-3.6621v-0.9297h-3.7417v-1.7129h3.7417v-1.9844h1.8369v1.9844h1.5874v1.7129H332.3315z"/>
	<path fill="#420943" d="M346.21,153.8203v1.4971h-5.4653c-0.4424,2.4941-0.9526,4.6602-1.6099,7.0303h-1.9277
		c0.7144-2.1777,1.3037-4.5469,1.7349-7.0078h-1.6104v-1.7002h1.8711c0.0454-0.3975,0.1021-0.8057,0.1475-1.2021h1.8594
		c-0.0566,0.4082-0.1245,0.8047-0.1812,1.2021h3.3901v-1.3838h1.1226v1.3838h0.4082v-1.3838h1.1226v1.5645H346.21z
		 M343.9648,162.4951c-2.313,0-3.3564-0.9072-3.3564-2.1777c0-0.7822,0.397-1.4854,0.7485-1.9609h1.939
		c-0.2949,0.3398-0.8843,1.0205-0.8843,1.5869c0,0.4648,0.4531,0.8623,1.7573,0.8623c0.9976,0,2.1997-0.1816,3.0615-0.375v1.792
		C346.4365,162.3477,345.2686,162.4951,343.9648,162.4951z M341.2773,157.6641v-1.5645h5.7036v1.5645H341.2773z"/>
	<path fill="#420943" d="M357.2642,159.7051c-0.0449,1.9844-1.2583,2.9824-3.4014,2.9824c-1.916,0-3.2656-0.9863-3.2656-2.6416
		c0-1.6104,1.3267-2.6426,3.3789-2.6426c0.5103,0,0.998,0.0459,1.4854,0.1143v-5.0918h1.8027v1.7236h3.606v1.6445h-3.606v2.1426
		c1.5308,0.4766,2.835,1.1797,3.708,1.667v2.0635C360.4844,161.3271,359.0107,160.374,357.2642,159.7051z M355.4614,159.1729
		c-0.5103-0.1133-1.0317-0.1699-1.5308-0.1699c-0.9521,0-1.5645,0.3281-1.5645,0.9746c0,0.7148,0.6802,1.0322,1.4854,1.0322
		c1.0205,0,1.6099-0.3633,1.6099-1.7461V159.1729z"/>
	<path fill="#420943" d="M363.9888,162.8799c1.1562-0.9746,2.4829-2.6758,2.4829-5.374s-1.3267-4.3994-2.4829-5.375h1.9839
		c0.5444,0.5557,2.2227,2.2686,2.2227,5.375s-1.6782,4.8184-2.2227,5.374H363.9888z"/>
</g>
<g>
	<g>
		<g>
			<polygon fill="#C42E63" points="211.1018,169 211.1018,186.9599 211.1018,189.8397 203.2701,189.8397 222.9985,224 
				242.7299,189.8397 234.8989,189.8397 234.8989,186.9599 234.8989,169 			"/>
		</g>
	</g>
</g>
</svg>
