<?xml version="1.0" encoding="utf-8"?>
<!-- Generator: Adobe Illustrator 22.1.0, SVG Export Plug-In . SVG Version: 6.00 Build 0)  -->
<svg version="1.1" id="レイヤー_1" xmlns="http://www.w3.org/2000/svg" xmlns:xlink="http://www.w3.org/1999/xlink" x="0px"
	 y="0px" viewBox="0 0 800 400" style="enable-background:new 0 0 800 400;" xml:space="preserve">
<style type="text/css">
	.st0{fill:#F0E5D1;}
	.st1{fill:#0B4D58;}
</style>
<rect class="st0" width="800" height="400"/>
<g>
	<path class="st1" d="M785,15v370H15V15H785 M800,0H0v400h800V0L800,0z"/>
</g>
<g>
	<path class="st1" d="M290.1,87.5l-6.1,14.4h-4.1l-11.8-28.4h6.2l7.9,21.1l5.5-12.8l-3.4-8.3h6.2l7.6,20.4l8.4-20.4h5.7L300,101.9
		h-3.9L290.1,87.5z"/>
	<path class="st1" d="M332.2,92.3c0,1.5-0.2,2.9-0.7,4.2c-0.5,1.3-1.2,2.3-2.1,3.2c-0.9,0.9-2,1.6-3.2,2.1c-1.3,0.5-2.7,0.7-4.2,0.7
		c-1.6,0-3-0.2-4.3-0.7s-2.3-1.2-3.2-2.1c-0.9-0.9-1.6-2-2.1-3.2c-0.5-1.3-0.7-2.7-0.7-4.2s0.2-3,0.7-4.2c0.5-1.3,1.2-2.3,2.1-3.2
		c0.9-0.9,2-1.6,3.2-2c1.3-0.5,2.7-0.7,4.2-0.7s3,0.2,4.2,0.7c1.3,0.5,2.3,1.2,3.2,2c0.9,0.9,1.6,2,2.1,3.2
		C332,89.3,332.2,90.7,332.2,92.3z M327,92.3c0-0.9-0.1-1.7-0.4-2.4c-0.2-0.7-0.6-1.4-1-1.9c-0.5-0.5-1-0.9-1.6-1.3
		c-0.6-0.3-1.3-0.5-2-0.5s-1.4,0.2-2,0.5s-1.2,0.7-1.6,1.3c-0.5,0.5-0.8,1.2-1.1,1.9c-0.2,0.7-0.4,1.5-0.4,2.4s0.1,1.7,0.4,2.5
		c0.2,0.8,0.6,1.4,1.1,1.9s1,0.9,1.6,1.3s1.3,0.5,2,0.5s1.4-0.2,2-0.5s1.1-0.7,1.6-1.3c0.5-0.5,0.8-1.2,1-1.9
		C326.9,94,327,93.1,327,92.3z"/>
	<path class="st1" d="M337.6,82.5h5.2v14.9h9.4v4.5h-14.6V82.5z"/>
	<path class="st1" d="M356.4,101.9V82.5h7.1c2.7,0,4.7,0.5,6.2,1.6s2.2,2.7,2.2,4.8c0,2.4-0.8,4.2-2.3,5.3c-1.5,1.2-3.7,1.8-6.5,1.8
		h-1.5v5.9C361.6,101.9,356.4,101.9,356.4,101.9z M361.6,92.1h1.3c1.2,0,2.1-0.2,2.8-0.7c0.6-0.5,1-1.3,1-2.3c0-1.9-1.3-2.9-3.9-2.9
		h-1.1L361.6,92.1L361.6,92.1z"/>
	<path class="st1" d="M376.7,101.9V82.5h5.2v7h8.3v-7h5.2v19.4h-5.2V94h-8.3v7.9H376.7L376.7,101.9z"/>
	<path class="st1" d="M404.2,96.8c0.9,0,1.6,0.3,2.1,0.8s0.8,1.2,0.8,2.1c0,0.8-0.3,1.5-0.8,2.1s-1.2,0.8-2.1,0.8s-1.6-0.3-2.1-0.8
		s-0.8-1.2-0.8-2.1s0.3-1.6,0.8-2.1C402.6,97,403.3,96.8,404.2,96.8z"/>
	<path class="st1" d="M412.9,101.9V82.5h7.6c1.7,0,3.3,0.2,4.6,0.7c1.4,0.5,2.5,1.1,3.4,1.9s1.6,1.8,2.1,3s0.7,2.4,0.7,3.8
		c0,3.3-0.9,5.8-2.8,7.5c-1.8,1.7-4.5,2.5-8.1,2.5H412.9L412.9,101.9z M418.1,98h1.9c2,0,3.5-0.5,4.5-1.5S426,94,426,92
		c0-0.8-0.1-1.5-0.4-2.2s-0.6-1.3-1.1-1.8s-1.1-0.9-1.9-1.2c-0.7-0.3-1.6-0.4-2.6-0.4h-2L418.1,98L418.1,98z"/>
	<path class="st1" d="M441.9,90.1h6.6v3.8h-6.6v4.3h7.7v3.8h-12.9V82.5h12.6v3.8h-7.4L441.9,90.1L441.9,90.1z"/>
	<path class="st1" d="M458.2,97.7c1.1,0.3,2.2,0.5,3.2,0.5c0.9,0,1.6-0.1,2-0.4s0.6-0.7,0.6-1.3c0-0.5-0.2-0.9-0.7-1.3
		c-0.5-0.3-1.3-0.7-2.5-1.1c-2.1-0.7-3.6-1.5-4.5-2.5s-1.3-2.2-1.3-3.8c0-0.8,0.2-1.6,0.5-2.3s0.8-1.3,1.4-1.8s1.4-0.9,2.2-1.2
		c0.9-0.3,1.8-0.4,2.9-0.4c2,0,3.9,0.3,5.5,0.9v4.9c-0.9-0.6-1.9-1.1-2.8-1.4c-1-0.3-1.8-0.5-2.5-0.5c-0.9,0-1.5,0.2-1.8,0.5
		c-0.4,0.3-0.6,0.7-0.6,1.1c0,0.2,0,0.5,0.1,0.7s0.2,0.4,0.5,0.6c0.2,0.2,0.6,0.4,1,0.5c0.4,0.2,0.9,0.4,1.5,0.6
		c1.1,0.4,2,0.8,2.7,1.2c0.7,0.4,1.4,0.9,1.8,1.4c0.5,0.5,0.8,1.1,1,1.7s0.3,1.3,0.3,2c0,1.1-0.2,2-0.6,2.8s-0.9,1.4-1.6,2
		c-0.7,0.5-1.5,0.9-2.4,1.2c-0.9,0.3-2,0.4-3.1,0.4c-1.2,0-2.2-0.1-3.3-0.3c-1-0.2-1.9-0.4-2.5-0.7l-0.5-5.5
		C456,96.8,457.1,97.4,458.2,97.7z"/>
	<path class="st1" d="M474.5,101.9V82.5h5.2v19.4H474.5z"/>
	<path class="st1" d="M503.4,99.4c-1.1,1-2.3,1.7-3.7,2.2c-1.4,0.5-2.9,0.8-4.5,0.8c-1.5,0-2.8-0.2-4.1-0.7c-1.2-0.5-2.3-1.1-3.2-2
		c-0.9-0.9-1.6-1.9-2.1-3.2c-0.5-1.3-0.8-2.7-0.8-4.3c0-1.4,0.2-2.8,0.7-4s1.2-2.3,2.1-3.2c0.9-0.9,2-1.6,3.4-2.2
		c1.3-0.5,2.8-0.8,4.5-0.8c1.3,0,2.6,0.1,3.7,0.4c1.2,0.3,2.2,0.7,3.1,1.3l-0.9,4.8h-0.1c-0.7-0.7-1.5-1.3-2.5-1.7
		c-0.9-0.4-2-0.6-3.2-0.6c-0.8,0-1.6,0.1-2.3,0.4c-0.7,0.3-1.3,0.7-1.8,1.3c-0.5,0.5-0.9,1.2-1.2,1.9s-0.4,1.5-0.4,2.4
		c0,1.8,0.5,3.3,1.5,4.3s2.4,1.6,4,1.6c0.9,0,1.7-0.3,2.4-0.8v-5.2h5.2L503.4,99.4L503.4,99.4z"/>
	<path class="st1" d="M513.2,82.5L524,94.7V82.5h4.9v19.4h-4.1l-10.9-12.3v12.3H509V82.5H513.2z"/>
</g>
<path class="st1" d="M530.7,251.5c0,2.3,0.4,4.2,1.1,6.2c0.9,1.8,2.7,2.7,5.3,2.7c2.5,0,5.1-0.9,7.8-2.5c2.8-1.8,5.5-4.1,8.1-6.9
	c2.5-2.7,4.9-5.8,7.4-9.4c2.3-3.7,4.4-7.2,6.2-11c1.6-3.7,3-7.4,4.1-11c1.1-3.4,1.6-6.5,1.6-9.2c0-2.8-0.7-5.1-2.1-6.7
	c-1.6-1.6-3.5-2.5-5.8-2.5c-2.5,0-5.1,0.9-7.6,2.5c-2.7,1.8-5.1,3.9-7.8,6.5c-2.5,2.7-4.8,5.8-7.1,9.2c-2.1,3.5-4.2,7.2-5.8,11
	c-1.6,3.7-3,7.4-3.9,11C531.3,245.1,530.7,248.3,530.7,251.5z M507.6,248.9c0-6.2,1.6-12.2,4.8-18.2c3.2-5.8,7.2-11.1,12.2-15.9
	c5.1-4.6,10.8-8.5,17-11.3c6.4-2.8,12.7-4.2,19.1-4.2c3.7,0,7.1,0.7,10.1,2.1c2.8,1.4,5.3,4.1,7.2,8.5l4.2-8.5l24.7-1.1
	c-6.2,10.6-12.2,20.8-18.4,31.1c-6,10.1-12.5,20.8-19.8,33c-4.9,9.2-9.9,17.3-15.9,24.6c-6.2,7.2-12.9,13.4-20.1,18.4
	c-7.1,5.1-14.5,8.8-22.4,11.5c-7.8,2.7-15.5,4.1-23.5,4.1c-4.9,0-9.7-0.5-14.5-1.4c-4.8-0.9-9-2.5-12.7-4.6c-3.7-1.9-6.7-4.6-9-8
	c-2.3-3.2-3.5-7.2-3.5-12c0-3,0.7-5.8,1.9-8.7c1.2-2.7,3.2-4.9,5.8-6.9c2.5-2.1,5.8-3.7,10.1-4.8c4.1-1.1,9.2-1.6,14.8-1.6h11.5v2.1
	h-3.9c-5.8,0-10.2,1.6-13.8,4.9c-3.4,3.4-5.1,8.5-5.1,15.4c0,3.2,0.5,6.2,1.4,9.2c0.9,2.8,2.3,5.1,4.2,7.2c1.8,2.1,4.1,3.7,6.5,4.9
	c2.5,1.2,5.5,1.9,8.7,1.9c7.2,0,14.1-2.7,20.7-8s12.7-12.4,18.6-20.8l27.2-39.6l-0.4-0.4c-4.2,4.8-9,8.7-14.3,11.3
	c-5.5,2.8-11,4.1-16.6,4.1c-5.3,0-9.5-1.8-12.4-5.1C509,258.8,507.6,254.3,507.6,248.9z M466.4,201.3c-2.8,0-5.7,1.1-8.7,3
	c-2.8,1.9-5.7,4.4-8.5,7.6c-2.7,3.2-5.1,6.7-7.6,10.6c-2.3,4.1-4.4,8.1-6.2,12c-1.8,4.1-3.2,8-4.2,11.8c-0.9,3.7-1.4,7.1-1.4,9.9
	c0,2.7,0.5,4.9,1.8,6.5c1.2,1.8,3,2.5,5.3,2.5c2.8,0,5.7-0.9,8.7-2.8c2.8-1.9,5.7-4.6,8.5-7.8c2.7-3,5.1-6.5,7.6-10.6
	c2.3-3.9,4.4-8,6.2-12c1.8-4.1,3.2-8,4.2-11.8c0.9-3.7,1.4-7.1,1.4-9.7c0-2.8-0.5-4.9-1.8-6.7C470.5,202.2,468.7,201.3,466.4,201.3z
	 M526.3,219.7c-0.5,0.5-1.2,1.2-2.3,2.3c-1.1,1.2-2.5,2.3-4.1,3.5c-1.6,1.1-3.4,2.1-5.5,3c-1.9,0.9-4.1,1.2-6.5,1.2
	c-3,0-5.8-0.7-8.1-2.1c-2.5-1.6-4.8-3.5-6.7-6h-0.4c0,6.2-1.4,12-4.4,17.5c-2.8,5.7-6.7,10.6-11.5,14.7c-4.8,4.2-10.2,7.6-16.4,10.1
	c-6.2,2.3-12.5,3.5-19.3,3.5c-3.9,0-7.6-0.4-11.3-1.2c-3.7-0.7-6.9-2.1-9.7-4.1c-2.8-1.9-5.1-4.4-6.9-7.4c-1.8-3-2.7-6.9-2.7-11.3
	c0-6.9,1.6-12.9,4.8-18.4c3.4-5.5,7.4-10.1,12.4-14c5.1-3.9,10.8-6.7,17.1-8.8c6.4-1.9,12.5-3,18.7-3c5.1,0,9.4,0.7,12.5,2.1
	c3.4,1.4,6.2,3.2,8.5,5.3c2.3,2.1,4.2,4.4,5.8,6.9s3.2,4.8,4.8,6.7c1.6,2.1,3.4,3.9,5.5,5.3c1.9,1.4,4.2,2.1,7.2,2.1
	c2.8,0,5.7-0.7,8.5-2.3c2.8-1.6,5.7-4.1,8.5-7.1L526.3,219.7z M441,139.8c-11.8,19.8-21.9,36.4-30.4,50
	c-8.3,13.6-15.2,25.1-20.7,34.3c-5.3,9-9.4,16.4-11.8,21.7c-2.7,5.5-3.9,9.7-3.9,12.9c0,1.2,0.4,2.3,1.2,3c0.7,0.7,1.6,1.1,2.5,1.1
	c2.8,0,6.2-1.4,10.4-4.4c4.1-3.2,8.3-6.9,12.9-11.3c4.4-4.6,8.7-9.4,12.7-14.5c4.2-5.1,7.6-9.9,10.4-14.1l1.4,0.7
	c-0.9,1.2-2.3,3.2-4.1,6c-1.9,2.8-4.2,6-7.2,9.7c-2.8,3.5-6,7.2-9.4,11.1c-3.5,3.7-7.2,7.2-11.1,10.4c-3.7,3.2-7.8,5.8-11.8,8
	c-4.1,1.9-8.1,3-12.2,3c-4.9,0-8.7-1.2-11.1-3.7c-2.5-2.5-3.7-5.7-3.7-9.4c0-2.7,0.4-5.3,1.2-8.3c0.7-2.8,2.1-6.4,3.9-10.2
	c1.9-4.1,4.2-8.7,7.4-14.1c3-5.3,6.7-11.7,11.1-19.3c4.4-7.4,9.5-16.1,15.5-26c6-10.1,12.9-21.6,20.5-34.6L441,139.8z M357.2,137.4
	c-4.6-0.2-9.2,0.2-13.8,0.9c-4.6,0.9-8.8,2.8-12.5,5.8c5.8,2.8,10.8,6.4,14.7,10.8c3.9,4.4,5.8,10.1,5.8,17.1
	c0,5.5-1.4,9.9-4.2,13.6s-6.2,6.7-10.4,9c-4.1,2.5-8.7,4.2-13.4,5.3c-4.8,1.2-9.2,1.9-13.3,2.1v0.4c10.8,0.4,19.1,2.5,24.9,6.9
	c5.7,4.2,8.5,10.4,8.5,18.6c0,6-1.6,11.3-4.9,16.3c-3.4,4.9-7.6,9.2-12.9,12.7c-5.3,3.5-11.1,6.4-17.7,8.3c-6.5,2.1-12.9,3-19.4,3
	c-2.5,0-5.1-0.2-8-0.9c-2.7-0.5-5.1-1.6-7.2-2.8c-2.3-1.4-4.1-3.2-5.5-5.3s-2.1-4.8-2.1-7.8c0-4.1,1.2-7.2,3.7-9.7
	c2.3-2.5,5.7-3.7,9.5-3.7c2.7,0,4.9,0.5,7.1,1.6c1.9,1.2,3.5,2.3,4.6,3.7c-2.1,1.8-4.1,3.9-5.8,6.5c-1.8,2.7-2.8,5.3-2.8,8.3
	c0,2.3,0.9,4.2,2.3,5.5c1.4,1.2,3.5,1.8,6,1.8c3.5,0,7.2-1.2,10.8-3.5c3.4-2.5,6.5-5.7,9.2-9.4c2.8-3.9,4.9-8.1,6.7-12.9
	c1.6-4.6,2.5-9.4,2.5-14c0-4.4-0.9-8.3-2.3-11.1c-1.4-3-3.5-5.3-6-6.9c-2.5-1.8-5.1-2.8-8.3-3.4c-3-0.4-6.2-0.4-9.4,0.2l0.7-1.6
	c11.1-1.8,19.8-5.7,26.3-11.7c6.4-6.2,9.5-14.1,9.5-24c0-3.2-0.5-6.4-1.6-9c-0.9-2.8-2.7-5.5-4.9-7.8c-7.2,7.1-13.3,14.8-18.4,23.5
	c-5.1,8.7-9.9,17.1-14.7,25.8c-4.6,8.7-9.4,17-14.1,25.1c-4.8,8.1-10.4,15.2-17,21.4c-6.4,6.2-14,11.3-22.8,15
	c-8.8,3.9-19.6,5.7-32.3,5.7c-3.9,0-7.6-0.4-11.3-1.1c-3.5-0.9-6.7-1.9-9.7-3.7c-2.8-1.6-4.9-3.7-6.7-6.5c-1.6-2.7-2.5-5.8-2.5-9.7
	c0-3.5,1.1-6.5,3.4-9.4c2.1-2.7,5.3-4.1,9.4-4.1c3.4,0,6.2,1.1,8.3,2.8c2.1,1.9,3.2,4.6,3.2,8c0,4.6-2.5,7.8-7.2,9.5
	c0.4,4.4,1.9,7.4,4.2,9.4c2.5,1.8,5.7,2.7,9.4,2.7c6,0,11.5-1.2,16.3-4.1c4.8-2.7,9.2-6.4,13.4-11c4.1-4.6,8-10.1,11.5-16.1
	c3.7-6,7.4-12.4,11.1-19.1c3.5-6.7,7.4-13.4,11.3-20.3c3.9-6.9,8.1-13.4,12.9-19.6c4.6-6.2,9.9-11.8,15.4-17
	c5.7-5.3,12-9.5,19.1-12.7c-2.7-1.4-6.4-2.7-11.3-3.7c-4.8-1.2-11-1.9-18.2-1.9c-10.4,0-20.3,1.8-29.7,4.9
	c-9.4,3.4-17.5,7.8-24.6,13.6c-6.9,5.7-12.4,12.4-16.4,20.1c-4.1,7.8-6.2,16.1-6.2,25.1c0,3,0.4,5.8,1.2,8.5
	c0.7,2.5,1.9,4.8,3.4,6.7c1.4,1.9,3.4,3.5,5.8,4.6c2.3,1.2,5.1,1.8,8.3,1.8c4.4,0,8.1-1.2,11.3-3.7c3.2-2.5,5.8-5.7,8-9.4
	c2.1-3.7,3.9-7.8,4.9-12.2c1.1-4.4,1.6-8.7,1.6-12.5c0-3.5-0.7-7.1-1.8-11c-1.2-4.1-2.7-7.6-4.4-10.8l1.8-0.7
	c1.8,3.5,3.2,6.9,4.6,10.2c1.2,3.4,1.9,7.8,1.9,13.1c0,5.7-0.9,11.1-2.7,16.4c-1.8,5.3-4.2,9.9-7.6,14c-3.4,4.1-7.6,7.2-12.5,9.7
	c-4.8,2.3-10.6,3.5-17.1,3.5c-4.1,0-7.8-0.7-11.1-2.1c-3.4-1.6-6.4-3.5-8.7-6.2c-2.5-2.7-4.2-5.7-5.5-9c-1.4-3.5-1.9-7.2-1.9-11.3
	c0-6.5,1.4-12.9,4.2-18.7c2.8-5.8,6.7-11.1,11.5-16.1c4.9-4.8,10.6-9.2,17-12.9c6.5-3.7,13.3-7.1,20.5-9.7s14.7-4.6,22.3-6
	c7.8-1.4,15-2.1,22.3-2.1s14.3,0.5,20.8,1.2c6.7,0.7,12,1.8,16.3,3c2.3-1.1,4.8-1.9,7.2-2.7c2.5-0.7,5.1-1.2,7.8-1.8
	c5.7-1.1,11.8-1.6,18.7-1.6V137.4z"/>
</svg>
