<?xml version="1.0" encoding="utf-8"?>
<!-- Generator: Adobe Illustrator 22.1.0, SVG Export Plug-In . SVG Version: 6.00 Build 0)  -->
<svg version="1.1" id="レイヤー_1" xmlns="http://www.w3.org/2000/svg" xmlns:xlink="http://www.w3.org/1999/xlink" x="0px"
	 y="0px" viewBox="0 0 800 400" style="enable-background:new 0 0 800 400;" xml:space="preserve">
<style type="text/css">
	.st0{fill:#F0E5D1;}
	.st1{fill:#0B4D58;}
</style>
<rect y="0" class="st0" width="800" height="400"/>
<g>
	<path class="st1" d="M785,15v370H15V15H785 M800,0H0v400h800V0L800,0z"/>
</g>
<g>
	<path class="st1" d="M290.1,87.5l-6.1,14.4h-4.1l-11.8-28.4h6.2l7.9,21.1l5.5-12.8l-3.4-8.3h6.2l7.6,20.4l8.4-20.4h5.7L300,101.9
		h-3.9L290.1,87.5z"/>
	<path class="st1" d="M332.2,92.3c0,1.5-0.2,2.9-0.7,4.2c-0.5,1.3-1.2,2.3-2.1,3.2c-0.9,0.9-2,1.6-3.2,2.1c-1.3,0.5-2.7,0.7-4.2,0.7
		c-1.6,0-3-0.2-4.3-0.7c-1.3-0.5-2.3-1.2-3.2-2.1c-0.9-0.9-1.6-2-2.1-3.2c-0.5-1.3-0.7-2.7-0.7-4.2c0-1.5,0.2-3,0.7-4.2
		c0.5-1.3,1.2-2.3,2.1-3.2c0.9-0.9,2-1.6,3.2-2c1.3-0.5,2.7-0.7,4.2-0.7s3,0.2,4.2,0.7c1.3,0.5,2.3,1.2,3.2,2c0.9,0.9,1.6,2,2.1,3.2
		C332,89.3,332.2,90.7,332.2,92.3z M327,92.3c0-0.9-0.1-1.7-0.4-2.4c-0.2-0.7-0.6-1.4-1-1.9c-0.5-0.5-1-0.9-1.6-1.3
		c-0.6-0.3-1.3-0.5-2-0.5c-0.7,0-1.4,0.2-2,0.5c-0.6,0.3-1.2,0.7-1.6,1.3c-0.5,0.5-0.8,1.2-1.1,1.9c-0.2,0.7-0.4,1.5-0.4,2.4
		c0,0.9,0.1,1.7,0.4,2.5c0.2,0.8,0.6,1.4,1.1,1.9c0.5,0.5,1,0.9,1.6,1.3s1.3,0.5,2,0.5c0.7,0,1.4-0.2,2-0.5c0.6-0.3,1.1-0.7,1.6-1.3
		c0.5-0.5,0.8-1.2,1-1.9C326.9,94,327,93.1,327,92.3z"/>
	<path class="st1" d="M337.6,82.5h5.2v14.9h9.4v4.5h-14.6V82.5z"/>
	<path class="st1" d="M356.4,101.9V82.5h7.1c2.7,0,4.7,0.5,6.2,1.6c1.5,1.1,2.2,2.7,2.2,4.8c0,2.4-0.8,4.2-2.3,5.3
		c-1.5,1.2-3.7,1.8-6.5,1.8h-1.5v5.9H356.4z M361.6,92.1h1.3c1.2,0,2.1-0.2,2.8-0.7c0.6-0.5,1-1.3,1-2.3c0-1.9-1.3-2.9-3.9-2.9h-1.1
		V92.1z"/>
	<path class="st1" d="M376.7,101.9V82.5h5.2v7h8.3v-7h5.2v19.4h-5.2V94h-8.3v7.9L376.7,101.9L376.7,101.9z"/>
	<path class="st1" d="M404.2,96.8c0.9,0,1.6,0.3,2.1,0.8c0.5,0.5,0.8,1.2,0.8,2.1c0,0.8-0.3,1.5-0.8,2.1s-1.2,0.8-2.1,0.8
		c-0.9,0-1.6-0.3-2.1-0.8s-0.8-1.2-0.8-2.1c0-0.9,0.3-1.6,0.8-2.1C402.6,97,403.3,96.8,404.2,96.8z"/>
	<path class="st1" d="M412.9,101.9V82.5h7.6c1.7,0,3.3,0.2,4.6,0.7c1.4,0.5,2.5,1.1,3.4,1.9c0.9,0.8,1.6,1.8,2.1,3
		c0.5,1.2,0.7,2.4,0.7,3.8c0,3.3-0.9,5.8-2.8,7.5c-1.8,1.7-4.5,2.5-8.1,2.5L412.9,101.9L412.9,101.9z M418.1,98h1.9
		c2,0,3.5-0.5,4.5-1.5c1-1,1.5-2.5,1.5-4.5c0-0.8-0.1-1.5-0.4-2.2c-0.3-0.7-0.6-1.3-1.1-1.8c-0.5-0.5-1.1-0.9-1.9-1.2
		c-0.7-0.3-1.6-0.4-2.6-0.4h-2L418.1,98L418.1,98z"/>
	<path class="st1" d="M441.9,90.1h6.6v3.8h-6.6v4.3h7.7v3.8h-12.9V82.5h12.6v3.8h-7.4L441.9,90.1L441.9,90.1z"/>
	<path class="st1" d="M458.2,97.7c1.1,0.3,2.2,0.5,3.2,0.5c0.9,0,1.6-0.1,2-0.4c0.4-0.3,0.6-0.7,0.6-1.3c0-0.5-0.2-0.9-0.7-1.3
		c-0.5-0.3-1.3-0.7-2.5-1.1c-2.1-0.7-3.6-1.5-4.5-2.5s-1.3-2.2-1.3-3.8c0-0.8,0.2-1.6,0.5-2.3s0.8-1.3,1.4-1.8
		c0.6-0.5,1.4-0.9,2.2-1.2c0.9-0.3,1.8-0.4,2.9-0.4c2,0,3.9,0.3,5.5,0.9v4.9c-0.9-0.6-1.9-1.1-2.8-1.4c-1-0.3-1.8-0.5-2.5-0.5
		c-0.9,0-1.5,0.2-1.8,0.5c-0.4,0.3-0.6,0.7-0.6,1.1c0,0.2,0,0.5,0.1,0.7c0.1,0.2,0.2,0.4,0.5,0.6c0.2,0.2,0.6,0.4,1,0.5
		c0.4,0.2,0.9,0.4,1.5,0.6c1.1,0.4,2,0.8,2.7,1.2c0.7,0.4,1.4,0.9,1.8,1.4c0.5,0.5,0.8,1.1,1,1.7c0.2,0.6,0.3,1.3,0.3,2
		c0,1.1-0.2,2-0.6,2.8c-0.4,0.8-0.9,1.4-1.6,2c-0.7,0.5-1.5,0.9-2.4,1.2c-0.9,0.3-2,0.4-3.1,0.4c-1.2,0-2.2-0.1-3.3-0.3
		c-1-0.2-1.9-0.4-2.5-0.7l-0.5-5.5C456,96.8,457.1,97.4,458.2,97.7z"/>
	<path class="st1" d="M474.5,101.9V82.5h5.2v19.4H474.5z"/>
	<path class="st1" d="M503.4,99.4c-1.1,1-2.3,1.7-3.7,2.2c-1.4,0.5-2.9,0.8-4.5,0.8c-1.5,0-2.8-0.2-4.1-0.7c-1.2-0.5-2.3-1.1-3.2-2
		c-0.9-0.9-1.6-1.9-2.1-3.2c-0.5-1.3-0.8-2.7-0.8-4.3c0-1.4,0.2-2.8,0.7-4c0.5-1.2,1.2-2.3,2.1-3.2c0.9-0.9,2-1.6,3.4-2.2
		c1.3-0.5,2.8-0.8,4.5-0.8c1.3,0,2.6,0.1,3.7,0.4c1.2,0.3,2.2,0.7,3.1,1.3l-0.9,4.8h-0.1c-0.7-0.7-1.5-1.3-2.5-1.7
		c-0.9-0.4-2-0.6-3.2-0.6c-0.8,0-1.6,0.1-2.3,0.4c-0.7,0.3-1.3,0.7-1.8,1.3c-0.5,0.5-0.9,1.2-1.2,1.9s-0.4,1.5-0.4,2.4
		c0,1.8,0.5,3.3,1.5,4.3c1,1,2.4,1.6,4,1.6c0.9,0,1.7-0.3,2.4-0.8v-5.2h5.2L503.4,99.4L503.4,99.4z"/>
	<path class="st1" d="M513.2,82.5L524,94.7V82.5h4.9v19.4h-4.1l-10.9-12.3v12.3H509V82.5H513.2z"/>
</g>
<g>
	<path class="st1" d="M357.2,137.7c-4.6-0.2-9.2,0.1-13.8,0.9c-4.6,0.8-8.7,2.7-12.5,5.7c5.9,2.8,10.8,6.5,14.6,10.8
		c3.8,4.4,5.8,10.1,5.8,17.2c0,5.3-1.4,9.8-4.2,13.5c-2.8,3.7-6.2,6.7-10.4,9.1c-4.1,2.4-8.6,4.1-13.4,5.3
		c-4.8,1.2-9.2,1.9-13.2,2.1v0.4c10.8,0.2,19,2.5,24.8,6.7c5.7,4.3,8.6,10.5,8.6,18.6c0,5.9-1.7,11.3-5,16.2
		c-3.3,4.9-7.6,9.1-12.9,12.7c-5.3,3.6-11.2,6.3-17.7,8.3c-6.5,2-13,3-19.5,3c-2.5,0-5.1-0.3-7.8-0.9c-2.7-0.6-5.2-1.6-7.4-2.9
		c-2.2-1.4-4-3.1-5.4-5.2c-1.4-2.1-2.1-4.7-2.1-7.8c0-4,1.2-7.2,3.6-9.7c2.4-2.4,5.7-3.6,9.7-3.6c2.6,0,4.9,0.5,6.9,1.6
		c2,1.1,3.6,2.2,4.6,3.6c-2,1.8-3.9,4-5.8,6.6c-1.8,2.6-2.8,5.4-2.8,8.3c0,2.4,0.7,4.2,2.2,5.4c1.5,1.2,3.5,1.9,5.9,1.9
		c3.7,0,7.2-1.2,10.7-3.6c3.5-2.4,6.6-5.5,9.3-9.3c2.7-3.8,4.9-8,6.6-12.8c1.7-4.7,2.5-9.4,2.5-14c0-4.5-0.7-8.2-2.2-11.2
		c-1.5-3-3.5-5.3-5.9-6.9c-2.5-1.7-5.3-2.7-8.3-3.2c-3.1-0.5-6.2-0.4-9.4,0.2l0.7-1.6c11.1-1.8,19.9-5.7,26.3-11.8
		c6.4-6.1,9.6-14.1,9.6-23.9c0-3.3-0.5-6.4-1.5-9.1c-1-2.8-2.7-5.4-5.1-7.7c-7.1,7.1-13.2,14.9-18.3,23.5
		c-5.1,8.6-10,17.2-14.6,25.8c-4.7,8.6-9.4,17-14.2,25c-4.8,8-10.4,15.2-16.9,21.4c-6.5,6.2-14.1,11.2-22.9,15
		c-8.8,3.8-19.6,5.7-32.2,5.7c-3.9,0-7.7-0.4-11.3-1.2c-3.6-0.8-6.8-2-9.7-3.6c-2.8-1.7-5.1-3.8-6.7-6.5c-1.7-2.7-2.5-5.9-2.5-9.9
		c0-3.4,1.1-6.5,3.3-9.2c2.2-2.7,5.3-4.1,9.3-4.1c3.4,0,6.2,0.9,8.3,2.8c2.1,1.9,3.2,4.5,3.2,7.8c0,4.6-2.4,7.8-7.3,9.6
		c0.5,4.4,1.9,7.5,4.3,9.3c2.4,1.8,5.5,2.8,9.3,2.8c6,0,11.5-1.4,16.2-4.1c4.8-2.7,9.2-6.4,13.3-11c4.1-4.6,8-9.9,11.6-16
		c3.7-6,7.3-12.4,11-19.1c3.7-6.7,7.5-13.5,11.4-20.3c3.9-6.9,8.2-13.4,12.9-19.6c4.7-6.2,9.8-11.9,15.4-17
		c5.6-5.1,12-9.4,19.1-12.7c-2.7-1.3-6.5-2.5-11.4-3.7c-4.9-1.2-10.9-1.8-18.3-1.8c-10.4,0-20.3,1.6-29.6,4.9
		c-9.4,3.3-17.5,7.8-24.4,13.5c-6.9,5.7-12.4,12.5-16.5,20.2c-4.1,7.8-6.1,16.1-6.1,25.1c0,3,0.4,5.7,1.2,8.3
		c0.8,2.6,1.9,4.9,3.4,6.8c1.5,2,3.4,3.5,5.8,4.6c2.4,1.1,5.1,1.7,8.3,1.7c4.4,0,8.2-1.2,11.4-3.7c3.2-2.5,5.9-5.6,8-9.3
		c2.1-3.7,3.7-7.8,4.8-12.2c1.1-4.4,1.6-8.6,1.6-12.5c0-3.4-0.6-7.1-1.8-11c-1.2-3.9-2.6-7.5-4.3-10.7l1.8-0.7
		c1.7,3.4,3.1,6.8,4.4,10.2c1.3,3.4,2,7.7,2,13c0,5.7-0.9,11.2-2.6,16.4c-1.7,5.3-4.3,9.9-7.6,13.9c-3.4,4-7.5,7.3-12.4,9.7
		c-4.9,2.4-10.6,3.6-17.1,3.6c-4.1,0-7.9-0.7-11.3-2.2c-3.4-1.5-6.2-3.5-8.6-6.1c-2.4-2.6-4.2-5.6-5.5-9.1c-1.3-3.4-2-7.2-2-11.2
		c0-6.6,1.4-12.9,4.3-18.7s6.7-11.2,11.5-16.1c4.9-4.9,10.5-9.2,17-13c6.4-3.8,13.3-7,20.5-9.7c7.2-2.7,14.6-4.7,22.3-6
		c7.6-1.4,15-2,22.1-2c7.3,0,14.3,0.4,20.9,1.2c6.6,0.8,12,1.7,16.2,2.9c2.4-0.9,4.8-1.8,7.3-2.5s5.1-1.3,7.8-1.8
		c5.6-1.1,11.8-1.6,18.6-1.6L357.2,137.7L357.2,137.7z"/>
	<path class="st1" d="M441,140.2c-11.8,19.6-22,36.3-30.4,49.9c-8.4,13.6-15.3,25-20.7,34.2c-5.4,9.2-9.4,16.5-11.9,21.8
		c-2.5,5.4-3.8,9.7-3.8,12.9c0,1.3,0.4,2.3,1.2,3c0.8,0.7,1.6,1.1,2.6,1.1c2.7,0,6.2-1.5,10.3-4.5c4.1-3,8.4-6.8,12.9-11.3
		c4.4-4.5,8.7-9.3,12.9-14.5c4.1-5.1,7.6-9.9,10.3-14.1l1.4,0.7c-0.8,1.2-2.2,3.2-4.1,6c-1.9,2.8-4.3,6.1-7.1,9.7
		c-2.8,3.6-6,7.3-9.5,11.1c-3.5,3.8-7.2,7.3-11,10.5c-3.8,3.2-7.8,5.8-11.9,7.9s-8.1,3.1-12.2,3.1c-5,0-8.7-1.2-11.2-3.7
		s-3.7-5.6-3.7-9.4c0-2.6,0.4-5.4,1.2-8.3c0.8-2.9,2.2-6.3,4-10.3c1.8-4,4.3-8.6,7.3-14c3-5.4,6.7-11.8,11.2-19.3
		c4.4-7.5,9.6-16.2,15.6-26.1c6-9.9,12.8-21.5,20.5-34.6L441,140.2z"/>
	<path class="st1" d="M526.2,219.9c-0.5,0.5-1.2,1.3-2.3,2.4c-1.1,1.1-2.4,2.2-4,3.4c-1.6,1.1-3.4,2.1-5.4,3c-2,0.9-4.2,1.3-6.6,1.3
		c-3.1,0-5.8-0.7-8.3-2.2c-2.4-1.5-4.6-3.5-6.7-5.9h-0.4c0,6.2-1.5,12-4.3,17.6c-2.9,5.6-6.7,10.4-11.5,14.6
		c-4.8,4.2-10.3,7.5-16.4,9.9c-6.2,2.4-12.5,3.6-19.2,3.6c-3.9,0-7.7-0.4-11.4-1.2c-3.7-0.8-6.9-2.2-9.8-4.1
		c-2.8-1.9-5.1-4.4-6.8-7.5c-1.7-3.1-2.6-6.9-2.6-11.4c0-6.7,1.6-12.8,4.8-18.3c3.2-5.4,7.3-10.1,12.3-13.9c5-3.8,10.7-6.8,17-8.8
		c6.3-2,12.6-3,18.7-3c5.1,0,9.3,0.7,12.6,2.1c3.3,1.4,6.1,3.2,8.4,5.2c2.3,2.1,4.3,4.3,5.9,6.8s3.2,4.8,4.8,6.8
		c1.6,2.1,3.4,3.8,5.3,5.2c2,1.4,4.4,2.1,7.4,2.1c2.7,0,5.5-0.8,8.4-2.4c2.9-1.6,5.7-3.9,8.4-7L526.2,219.9z M466.4,201.6
		c-2.8,0-5.7,1-8.6,2.9c-2.9,2-5.7,4.5-8.4,7.6c-2.7,3.1-5.3,6.7-7.6,10.7c-2.4,4-4.4,8-6.2,12c-1.8,4-3.2,7.9-4.2,11.7
		c-1,3.8-1.5,7.1-1.5,9.9c0,2.7,0.6,4.9,1.9,6.6c1.2,1.7,3,2.5,5.2,2.5c2.8,0,5.7-1,8.6-2.9c2.9-2,5.7-4.5,8.4-7.6
		c2.7-3.1,5.3-6.7,7.6-10.7c2.4-4,4.4-8,6.2-12c1.8-4,3.2-8,4.2-11.8c1-3.8,1.5-7.1,1.5-9.9c0-2.7-0.6-4.9-1.9-6.6
		C470.4,202.4,468.6,201.6,466.4,201.6z"/>
	<path class="st1" d="M507.6,249c0-6.2,1.6-12.2,4.7-18.1c3.1-5.9,7.2-11.2,12.2-15.9c5-4.7,10.7-8.4,17-11.3
		c6.3-2.8,12.6-4.3,19-4.3c3.8,0,7.1,0.7,10,2c2.9,1.4,5.4,4.2,7.4,8.4l4.3-8.3l24.7-1.1c-6.2,10.5-12.3,20.9-18.4,31
		c-6.1,10.1-12.2,20.3-18.2,30.6c5.4-1.9,10.7-4.4,15.7-7.5c5-3.1,9.8-6.6,14.3-10.5c4.5-3.8,8.8-8,12.9-12.3
		c4.1-4.4,7.9-8.8,11.5-13.1l1.2,1.2c-3.6,4.5-7.5,9.1-11.9,13.7c-4.4,4.6-9,8.9-13.8,13c-4.9,4-9.9,7.6-15.2,10.8
		c-5.3,3.2-10.7,5.6-16.2,7.3c-4.5,9.1-9.8,17.3-16,24.5c-6.2,7.2-12.8,13.3-20,18.4c-7.2,5-14.6,8.9-22.5,11.5
		c-7.8,2.7-15.7,4-23.6,4c-4.9,0-9.6-0.5-14.4-1.4c-4.7-0.9-9-2.5-12.7-4.5c-3.7-2.1-6.7-4.7-9.1-8c-2.3-3.3-3.5-7.3-3.5-12
		c0-3.1,0.6-5.9,1.9-8.6c1.2-2.7,3.2-5,5.8-7c2.6-2,6-3.6,10.1-4.7c4.1-1.1,9.1-1.7,14.9-1.7h11.4v2.1h-3.9c-5.7,0-10.2,1.7-13.7,5
		c-3.4,3.3-5.1,8.5-5.1,15.4c0,3.2,0.5,6.2,1.4,9.1c0.9,2.8,2.3,5.3,4.2,7.4c1.8,2.1,4,3.7,6.6,5c2.5,1.2,5.4,1.9,8.6,1.9
		c7.2,0,14.1-2.7,20.7-8s12.8-12.2,18.6-20.8l27.2-39.6l-0.4-0.4c-4.1,4.9-8.9,8.6-14.3,11.4c-5.4,2.7-10.9,4.1-16.6,4.1
		c-5.3,0-9.4-1.7-12.3-5.2C509,258.9,507.6,254.4,507.6,249z M530.7,251.6c0,2.2,0.4,4.3,1.2,6.1c0.8,1.8,2.5,2.8,5.2,2.8
		c2.5,0,5.1-0.9,7.8-2.6c2.7-1.7,5.4-4,8-6.7c2.6-2.8,5.1-5.9,7.5-9.5c2.4-3.6,4.4-7.2,6.1-10.9c1.7-3.7,3.1-7.3,4.2-10.8
		c1.1-3.5,1.6-6.6,1.6-9.3c0-2.8-0.7-5.1-2.2-6.7c-1.5-1.6-3.4-2.4-5.8-2.4c-2.5,0-5,0.8-7.6,2.5c-2.6,1.7-5.1,3.8-7.6,6.5
		s-4.9,5.7-7.1,9.2c-2.2,3.5-4.2,7.1-5.9,10.8c-1.7,3.7-3,7.4-3.9,11C531.1,245.2,530.7,248.6,530.7,251.6z"/>
</g>
</svg>
