<?xml version="1.0" encoding="utf-8"?>
<!-- Generator: Adobe Illustrator 22.1.0, SVG Export Plug-In . SVG Version: 6.00 Build 0)  -->
<svg version="1.1" id="レイヤー_1" xmlns="http://www.w3.org/2000/svg" xmlns:xlink="http://www.w3.org/1999/xlink" x="0px"
	 y="0px" viewBox="0 0 800 400" enable-background="new 0 0 800 400" xml:space="preserve">
<rect fill="#F0E5D1" width="800" height="400"/>
<g>
	<path fill="#0B4D58" d="M792,8v384H8V8H792 M800,0H0v400h800V0L800,0z"/>
</g>
<g>
	<path fill="#0B4D58" d="M290.1138,87.4985l-6.1172,14.4453h-4.0532L268.188,73.4951h6.1538l7.9229,21.1157l5.4907-12.8242
		l-3.3901-8.2915h6.1543l7.5908,20.4155l8.3652-20.4155h5.7119l-12.1978,28.4487h-3.9062L290.1138,87.4985z"/>
	<path fill="#0B4D58" d="M332.2344,92.252c0,1.5479-0.2456,2.9482-0.7368,4.2012c-0.4917,1.2529-1.1792,2.3281-2.0635,3.2246
		c-0.8848,0.897-1.9595,1.5908-3.2246,2.082c-1.2656,0.4912-2.6714,0.7368-4.2192,0.7368c-1.5728,0-2.9912-0.2456-4.2563-0.7368
		c-1.2656-0.4912-2.3462-1.1851-3.2427-2.082c-0.897-0.8965-1.5845-1.9717-2.064-3.2246c-0.479-1.2529-0.7183-2.6533-0.7183-4.2012
		c0-1.5474,0.2451-2.9536,0.7368-4.2192c0.4912-1.2651,1.1851-2.3398,2.082-3.2241c0.8965-0.8848,1.9775-1.5664,3.2432-2.0454
		c1.2646-0.479,2.6714-0.7188,4.2192-0.7188s2.9536,0.2397,4.2192,0.7188c1.2651,0.479,2.3457,1.1606,3.2427,2.0454
		c0.8965,0.8843,1.585,1.959,2.064,3.2241C331.9951,89.2983,332.2344,90.7046,332.2344,92.252z M327.0386,92.252
		c0-0.8843-0.123-1.6948-0.3687-2.4321c-0.2456-0.7368-0.5957-1.3691-1.0498-1.8975c-0.4551-0.5283-0.9893-0.9453-1.603-1.2529
		c-0.6147-0.3071-1.29-0.4609-2.0269-0.4609c-0.7373,0-1.4189,0.1538-2.0454,0.4609c-0.6265,0.3076-1.167,0.7246-1.6211,1.2529
		c-0.4551,0.5283-0.8052,1.1606-1.0503,1.8975c-0.2461,0.7373-0.3687,1.5479-0.3687,2.4321c0,0.8848,0.1226,1.7017,0.3687,2.4507
		c0.2451,0.75,0.5952,1.3882,1.0503,1.9165c0.4541,0.5283,0.9946,0.9458,1.6211,1.2529s1.3081,0.4604,2.0454,0.4604
		c0.7368,0,1.4121-0.1533,2.0269-0.4604c0.6138-0.3071,1.1479-0.7246,1.603-1.2529c0.4541-0.5283,0.8042-1.1665,1.0498-1.9165
		C326.9155,93.9536,327.0386,93.1367,327.0386,92.252z"/>
	<path fill="#0B4D58" d="M337.6143,82.5239h5.1958v14.9243h9.3604v4.4956h-14.5562V82.5239z"/>
	<path fill="#0B4D58" d="M356.4443,101.9438V82.5239h7.0752c2.6533,0,4.7227,0.5405,6.2095,1.6211
		c1.4858,1.0815,2.2295,2.6899,2.2295,4.8276c0,2.3828-0.7681,4.1582-2.3032,5.3247c-1.5356,1.167-3.7163,1.7505-6.541,1.7505
		h-1.4741v5.896H356.4443z M361.6401,92.1416h1.29c1.2031,0,2.1245-0.2451,2.7637-0.7368c0.6387-0.4912,0.958-1.2529,0.958-2.2847
		c0-1.9404-1.2896-2.9116-3.8691-2.9116h-1.1426V92.1416z"/>
	<path fill="#0B4D58" d="M376.7485,101.9438V82.5239h5.1958v7.0015h8.3281v-7.0015h5.1963v19.4199h-5.1963V94.021h-8.3281v7.9229
		H376.7485z"/>
	<path fill="#0B4D58" d="M404.2021,96.7847c0.8594,0,1.5537,0.2646,2.082,0.7925c0.5283,0.5283,0.792,1.2222,0.792,2.082
		c0,0.8354-0.2578,1.5234-0.7734,2.0635s-1.2041,0.811-2.0635,0.811c-0.8848,0-1.5908-0.2646-2.1191-0.7925
		s-0.792-1.2217-0.792-2.082c0-0.8599,0.2637-1.5537,0.792-2.082C402.6484,97.0493,403.3418,96.7847,404.2021,96.7847z"/>
	<path fill="#0B4D58" d="M412.9355,101.9438V82.5239h7.6279c1.7441,0,3.292,0.2334,4.6436,0.6997
		c1.3506,0.4673,2.4814,1.1118,3.3906,1.9351c0.9082,0.8232,1.5967,1.812,2.0635,2.9663c0.4658,1.1548,0.7002,2.4199,0.7002,3.7954
		c0,3.2925-0.9219,5.7856-2.7637,7.481c-1.8428,1.6948-4.5459,2.5425-8.1074,2.5425H412.9355z M418.1318,97.9639h1.8789
		c1.9658,0,3.458-0.4849,4.4775-1.4556c1.0195-0.9702,1.5293-2.4624,1.5293-4.4771c0-0.7861-0.1289-1.5229-0.3867-2.2114
		c-0.2578-0.687-0.6328-1.2832-1.124-1.7871c-0.4922-0.5029-1.1123-0.8965-1.8613-1.1792c-0.749-0.2822-1.6025-0.4238-2.5605-0.4238
		h-1.9531V97.9639z"/>
	<path fill="#0B4D58" d="M441.9365,90.1147h6.5967v3.7588h-6.5967v4.2749h7.7383v3.7954h-12.9336V82.5239h12.5654v3.7954h-7.3701
		V90.1147z"/>
	<path fill="#0B4D58" d="M458.2227,97.6875c1.0811,0.3315,2.1621,0.4976,3.2432,0.4976c0.9336,0,1.6084-0.1475,2.0273-0.4424
		c0.417-0.2944,0.626-0.7119,0.626-1.2529c0-0.5156-0.2334-0.9453-0.7002-1.2896c-0.4668-0.3438-1.29-0.7241-2.4688-1.1421
		c-2.0889-0.6875-3.5742-1.5112-4.459-2.4692s-1.3271-2.2109-1.3271-3.7588c0-0.835,0.1602-1.6089,0.4795-2.3213
		s0.7861-1.3267,1.4004-1.8428c0.6133-0.5161,1.3506-0.915,2.2109-1.1978c0.8594-0.2822,1.8301-0.4238,2.9111-0.4238
		c2.0391,0,3.8818,0.3076,5.5273,0.9214v4.9014c-0.9336-0.6387-1.8789-1.1177-2.8369-1.4375
		c-0.958-0.3188-1.7939-0.479-2.5059-0.479c-0.8604,0-1.4746,0.1602-1.8428,0.479c-0.3682,0.3198-0.5527,0.7002-0.5527,1.1426
		c0,0.2456,0.043,0.4668,0.1289,0.6631c0.0859,0.1973,0.2451,0.3872,0.4795,0.5713c0.2324,0.1841,0.5527,0.3628,0.958,0.5342
		c0.4053,0.1724,0.915,0.3687,1.5293,0.5898c1.0801,0.3687,1.9951,0.7617,2.7451,1.1792c0.749,0.418,1.3506,0.8784,1.8057,1.3818
		c0.4541,0.5039,0.7861,1.0566,0.9951,1.6582c0.208,0.6025,0.3135,1.2715,0.3135,2.0083c0,1.0566-0.1914,1.978-0.5713,2.7637
		c-0.3818,0.7866-0.9092,1.4375-1.585,1.9531c-0.6758,0.5161-1.4863,0.9028-2.4316,1.1611
		c-0.9463,0.2578-1.9717,0.3867-3.0771,0.3867c-1.1553,0-2.2422-0.0864-3.2617-0.2578c-1.0195-0.1724-1.8604-0.4175-2.5244-0.7373
		l-0.5156-5.4536C456.0488,96.7847,457.1416,97.356,458.2227,97.6875z"/>
	<path fill="#0B4D58" d="M474.4746,101.9438V82.5239h5.1953v19.4199H474.4746z"/>
	<path fill="#0B4D58" d="M503.4014,99.438c-1.0566,0.958-2.291,1.6953-3.7031,2.2109c-1.4131,0.5161-2.9053,0.7739-4.4775,0.7739
		c-1.4736,0-2.8311-0.2275-4.0713-0.6816c-1.2412-0.4541-2.3164-1.1177-3.2246-1.9897c-0.9092-0.8721-1.6162-1.9351-2.1191-3.188
		c-0.5039-1.2529-0.7559-2.6772-0.7559-4.2744c0-1.4492,0.2402-2.7944,0.7188-4.0352c0.4795-1.2402,1.1797-2.3218,2.1006-3.2427
		c0.9209-0.9214,2.0449-1.6455,3.3721-2.1743c1.3262-0.5278,2.8242-0.7925,4.4951-0.7925c1.3271,0,2.5674,0.1475,3.7227,0.4424
		c1.1543,0.2949,2.1855,0.7251,3.0947,1.2896l-0.8838,4.8276h-0.1104c-0.7129-0.7124-1.542-1.2715-2.4883-1.6768
		c-0.9453-0.4053-2.0078-0.6079-3.1875-0.6079c-0.835,0-1.5967,0.1475-2.2842,0.4424c-0.6885,0.2944-1.2842,0.7124-1.7871,1.2524
		c-0.5039,0.541-0.8906,1.1797-1.1611,1.9165s-0.4053,1.5479-0.4053,2.4321c0,1.8423,0.5098,3.2861,1.5293,4.3301
		c1.0195,1.0444,2.3643,1.5659,4.0352,1.5659c0.9336,0,1.7314-0.2578,2.3955-0.7739V92.252h5.1953V99.438z"/>
	<path fill="#0B4D58" d="M513.2041,82.5239l10.7969,12.1602V82.5239h4.9014v19.4199h-4.0537l-10.9082-12.3081v12.3081H509.04
		V82.5239H513.2041z"/>
</g>
<g>
	<path fill="#0B4D58" d="M357.2178,137.668c-4.6162-0.2358-9.2041,0.061-13.7588,0.8877
		c-4.5566,0.8296-8.7285,2.7241-12.5156,5.6807c5.917,2.8403,10.7988,6.4521,14.6465,10.8291
		c3.8447,4.3799,5.7695,10.1191,5.7695,17.2202c0,5.3257-1.3926,9.8247-4.1719,13.4922c-2.7822,3.6694-6.2441,6.6875-10.3857,9.0537
		c-4.1436,2.3687-8.6094,4.144-13.4033,5.3257c-4.793,1.1855-9.2031,1.8945-13.2256,2.1309v0.3555
		c10.7686,0.2383,19.0234,2.4854,24.7656,6.7451c5.7383,4.2607,8.6094,10.4746,8.6094,18.6406
		c0,5.9189-1.6582,11.334-4.9707,16.2432c-3.3145,4.9131-7.6055,9.1436-12.8701,12.6934
		c-5.2676,3.5508-11.1572,6.333-17.6641,8.3438c-6.5107,2.0117-13.0205,3.0186-19.5283,3.0186
		c-2.4854,0-5.0898-0.2969-7.8105-0.8877c-2.7246-0.5938-5.1787-1.5703-7.3672-2.9297c-2.1914-1.3594-3.9951-3.1064-5.415-5.2373
		c-1.4199-2.1299-2.1299-4.7314-2.1299-7.8105c0-4.0225,1.2119-7.248,3.6387-9.6758c2.4248-2.4238,5.6504-3.6387,9.6758-3.6387
		c2.6016,0,4.9092,0.5322,6.9229,1.5977c2.0117,1.0654,3.5508,2.25,4.6162,3.5508c-2.0137,1.7754-3.9365,3.9658-5.7695,6.5684
		c-1.8369,2.6045-2.752,5.3867-2.752,8.3438c0,2.3682,0.7383,4.1719,2.2188,5.4141c1.4785,1.2432,3.4619,1.8643,5.9473,1.8643
		c3.667,0,7.248-1.2119,10.7402-3.6396c3.4902-2.4238,6.5967-5.5303,9.3203-9.3193c2.7217-3.7871,4.9102-8.0469,6.5684-12.7822
		c1.6562-4.7324,2.4854-9.4092,2.4854-14.0244c0-4.4971-0.7402-8.2246-2.2188-11.1846c-1.4814-2.957-3.4619-5.2646-5.9473-6.9229
		c-2.4854-1.6562-5.2676-2.7217-8.3438-3.1963c-3.0791-0.4717-6.2129-0.4131-9.4092,0.1777l0.7109-1.5977
		c11.123-1.7754,19.8828-5.709,26.2734-11.8057c6.3906-6.0942,9.5859-14.0527,9.5859-23.8774c0-3.312-0.5049-6.3604-1.5088-9.1426
		c-1.0068-2.7793-2.6934-5.3535-5.0596-7.7227c-7.1006,7.1011-13.1973,14.9429-18.2852,23.5225
		c-5.0898,8.582-9.9717,17.1924-14.6455,25.8301c-4.6768,8.6411-9.4092,16.9849-14.2021,25.0317
		c-4.793,8.0498-10.416,15.1787-16.8652,21.3916c-6.4521,6.2139-14.085,11.2148-22.9004,15.001
		c-8.8184,3.7891-19.5586,5.6807-32.2217,5.6807c-3.9053,0-7.6641-0.3857-11.2725-1.1533c-3.6113-0.7686-6.835-1.9805-9.6748-3.6396
		c-2.8408-1.6562-5.0908-3.8164-6.7461-6.4795c-1.6592-2.6631-2.4854-5.9473-2.4854-9.8525c0-3.4316,1.0928-6.5078,3.2842-9.2314
		c2.1885-2.7217,5.2949-4.083,9.3203-4.083c3.4307,0,6.2129,0.9482,8.3438,2.8398c2.1299,1.8945,3.1953,4.499,3.1953,7.8115
		c0,4.6152-2.4277,7.8105-7.2793,9.5859c0.4717,4.3799,1.9229,7.4873,4.3496,9.3203c2.4248,1.8369,5.5312,2.752,9.3203,2.752
		c6.0361,0,11.4502-1.3594,16.2432-4.083c4.7939-2.7217,9.2314-6.3916,13.3145-11.0068c4.084-4.6152,7.959-9.9414,11.6289-15.9775
		c3.667-6.0361,7.3359-12.3965,11.0059-19.084c3.667-6.6846,7.4561-13.4609,11.3623-20.3271
		c3.9053-6.8623,8.1934-13.4033,12.8701-19.6167c4.6738-6.2134,9.8223-11.894,15.4453-17.0425
		c5.6191-5.1479,11.9824-9.3784,19.084-12.6929c-2.7246-1.3013-6.5107-2.5439-11.3623-3.728
		c-4.8535-1.1816-10.9482-1.7754-18.2852-1.7754c-10.415,0-20.2988,1.6284-29.6465,4.8818
		c-9.3506,3.2563-17.4863,7.7529-24.4102,13.4922c-6.9229,5.7417-12.4268,12.4878-16.5098,20.2378
		c-4.083,7.7529-6.125,16.127-6.125,25.1206c0,2.96,0.3828,5.7422,1.1543,8.3438c0.7686,2.6045,1.8916,4.8818,3.373,6.835
		c1.4785,1.9521,3.4004,3.4922,5.7695,4.6152c2.3662,1.126,5.1484,1.6865,8.3438,1.6865c4.377,0,8.166-1.2422,11.3613-3.7275
		c3.1963-2.4854,5.8584-5.5928,7.9893-9.3203c2.1299-3.7285,3.7275-7.8115,4.793-12.25c1.0654-4.438,1.5977-8.6099,1.5977-12.5156
		c0-3.4312-0.5938-7.1011-1.7754-11.0068c-1.1846-3.9053-2.6045-7.4561-4.2607-10.6514l1.7754-0.71
		c1.6562,3.4341,3.1348,6.8345,4.4385,10.2075c1.3008,3.373,1.9531,7.7227,1.9531,13.0483c0,5.6807-0.8604,11.1562-2.5742,16.4219
		c-1.7178,5.2676-4.2607,9.9131-7.6338,13.9355c-3.373,4.0244-7.5176,7.251-12.4268,9.6748
		c-4.9131,2.4277-10.624,3.6396-17.1318,3.6396c-4.1436,0-7.8994-0.7383-11.2725-2.2188c-3.373-1.4785-6.2441-3.5205-8.6104-6.125
		c-2.3682-2.6016-4.2021-5.6201-5.5029-9.0537c-1.3037-3.4316-1.9531-7.1592-1.9531-11.1846c0-6.627,1.4199-12.8706,4.2607-18.729
		s6.6846-11.2119,11.5391-16.0664c4.8516-4.8516,10.502-9.1704,16.9541-12.9595c6.4492-3.7861,13.2842-7.0122,20.5039-9.6748
		c7.2178-2.6631,14.6465-4.6743,22.2793-6.0361c7.6338-1.3594,15.001-2.0415,22.1025-2.0415c7.3369,0,14.3184,0.3857,20.9482,1.1538
		c6.626,0.771,12.0107,1.7476,16.1543,2.9292c2.3662-0.9458,4.7939-1.7754,7.2793-2.4854s5.0869-1.3008,7.8105-1.7754
		c5.5615-1.0649,11.7754-1.5977,18.6406-1.5977V137.668z"/>
	<path fill="#0B4D58" d="M441.0088,140.1533c-11.8359,19.647-21.9531,36.2764-30.3555,49.8848
		c-8.4053,13.6123-15.2979,25.0039-20.6816,34.1748c-5.3877,9.1729-9.3506,16.4512-11.8945,21.835
		c-2.5469,5.3867-3.8174,9.6758-3.8174,12.8711c0,1.3037,0.3828,2.3076,1.1543,3.0176c0.7686,0.71,1.626,1.0654,2.5742,1.0654
		c2.7207,0,6.1523-1.5088,10.2969-4.5273c4.1406-3.0176,8.4316-6.7734,12.8701-11.2725c4.4385-4.4961,8.7266-9.3203,12.8711-14.4688
		c4.1406-5.1475,7.5723-9.8525,10.2969-14.1133l1.4199,0.71c-0.8301,1.1846-2.1914,3.1963-4.084,6.0361
		c-1.8945,2.8408-4.2598,6.0664-7.1006,9.6758c-2.8408,3.6113-6.0078,7.3086-9.498,11.0947
		c-3.4922,3.7891-7.1621,7.2793-11.0059,10.4746c-3.8477,3.1953-7.8115,5.8301-11.8945,7.8994s-8.1387,3.1064-12.1602,3.1064
		c-4.9707,0-8.6992-1.2422-11.1846-3.7275s-3.7285-5.6201-3.7285-9.4092c0-2.6016,0.417-5.3535,1.2432-8.2549
		c0.8262-2.8984,2.1582-6.3301,3.9941-10.2959c1.834-3.9639,4.2607-8.6387,7.2783-14.0254
		c3.0186-5.3838,6.7461-11.8047,11.1846-19.2607c4.4385-7.457,9.6445-16.1558,15.6221-26.0972
		c5.9746-9.9414,12.8096-21.481,20.5049-34.6177L441.0088,140.1533z"/>
	<path fill="#0B4D58" d="M526.2227,219.8633c-0.4746,0.4746-1.2432,1.2734-2.3076,2.3965c-1.0654,1.126-2.3975,2.25-3.9951,3.373
		c-1.5977,1.126-3.4033,2.1299-5.4141,3.0176c-2.0137,0.8877-4.2021,1.332-6.5684,1.332c-3.0791,0-5.8311-0.7383-8.2549-2.2197
		c-2.4277-1.4785-4.6465-3.4619-6.6572-5.9473h-0.3555c0,6.1553-1.4502,12.0137-4.3496,17.5752
		c-2.9014,5.5645-6.7461,10.4463-11.5391,14.6465c-4.793,4.2021-10.2686,7.5166-16.4209,9.9414
		c-6.1553,2.4238-12.5459,3.6387-19.1729,3.6387c-3.9053,0-7.6943-0.416-11.3613-1.2422c-3.6699-0.8291-6.9238-2.1885-9.7646-4.083
		c-2.8398-1.8916-5.1201-4.377-6.834-7.4561c-1.7168-3.0762-2.5742-6.8623-2.5742-11.3623c0-6.7451,1.5977-12.8398,4.793-18.2852
		c3.1953-5.4414,7.3057-10.0879,12.3379-13.9355c5.0293-3.8447,10.71-6.7734,17.043-8.7871
		c6.3291-2.0117,12.5732-3.0186,18.7285-3.0186c5.0869,0,9.29,0.71,12.6045,2.1309c3.3115,1.4199,6.125,3.168,8.4326,5.2363
		c2.3076,2.0723,4.2607,4.3496,5.8584,6.835s3.1953,4.7656,4.793,6.835c1.5977,2.0723,3.373,3.8164,5.3262,5.2373
		c1.9521,1.4199,4.4072,2.1299,7.3672,2.1299c2.7207,0,5.5303-0.7988,8.4326-2.3965c2.8984-1.5977,5.708-3.9336,8.4316-7.0117
		L526.2227,219.8633z M466.3965,201.5781c-2.8408,0-5.7119,0.9766-8.6104,2.9287c-2.9014,1.9531-5.7109,4.499-8.4326,7.6338
		c-2.7236,3.1377-5.2676,6.6875-7.6338,10.6514c-2.3682,3.9668-4.4375,7.9609-6.2129,11.9834
		c-1.7754,4.0244-3.168,7.9307-4.1719,11.7168c-1.0068,3.7891-1.5088,7.1006-1.5088,9.9414c0,2.7236,0.6211,4.9121,1.8633,6.5684
		c1.2432,1.6592,2.9873,2.4854,5.2373,2.4854c2.8408,0,5.709-0.9766,8.6104-2.9287c2.8984-1.9531,5.708-4.4971,8.4326-7.6338
		c2.7207-3.1348,5.2646-6.6855,7.6328-10.6523c2.3662-3.9629,4.4385-7.958,6.2139-11.9824c1.7754-4.0225,3.165-7.958,4.1719-11.8057
		c1.0039-3.8447,1.5088-7.1289,1.5088-9.8525c0-2.7217-0.6211-4.9102-1.8643-6.5684
		C470.3906,202.4072,468.6426,201.5781,466.3965,201.5781z"/>
	<path fill="#0B4D58" d="M507.5801,248.9775c0-6.1523,1.5703-12.1885,4.7041-18.1074c3.1348-5.917,7.2178-11.2119,12.25-15.8887
		c5.0283-4.6738,10.6787-8.4326,16.9531-11.2734c6.2715-2.8403,12.6045-4.2607,18.9951-4.2607c3.7871,0,7.1289,0.6821,10.0303,2.042
		c2.8994,1.3623,5.3535,4.1719,7.3682,8.4326l4.2598-8.3438l24.6768-1.0659c-6.1553,10.5356-12.2803,20.8599-18.374,30.979
		c-6.0967,10.1191-12.1611,20.3262-18.1963,30.623c5.4424-1.8916,10.6787-4.4072,15.7109-7.5449
		c5.0293-3.1348,9.791-6.627,14.291-10.4736c4.4961-3.8447,8.7871-7.958,12.8701-12.3379
		c4.083-4.3779,7.9004-8.7578,11.4502-13.1377l1.2432,1.2432c-3.5508,4.499-7.5176,9.0537-11.8945,13.6689
		c-4.3799,4.6162-8.9951,8.9375-13.8467,12.96c-4.8545,4.0244-9.9141,7.6338-15.1787,10.8291
		c-5.2676,3.1953-10.6816,5.6221-16.2432,7.2783c-4.5,9.1123-9.8252,17.2783-15.9775,24.499
		c-6.1553,7.2168-12.8125,13.3418-19.9717,18.374c-7.1621,5.0283-14.6465,8.876-22.457,11.5391
		c-7.8115,2.6631-15.6807,3.9941-23.6113,3.9941c-4.8516,0-9.6445-0.4746-14.3799-1.4199
		c-4.7314-0.9492-8.9648-2.458-12.6924-4.5273c-3.7285-2.0723-6.7461-4.7354-9.0537-7.9883
		c-2.3086-3.2568-3.4619-7.251-3.4619-11.9834c0-3.0791,0.6211-5.9473,1.8633-8.6104c1.2432-2.6621,3.168-5.001,5.7705-7.0117
		c2.6045-2.0137,5.9775-3.5811,10.1182-4.7051c4.1445-1.126,9.1152-1.6865,14.9121-1.6865h11.3623v2.1309h-3.9053
		c-5.6816,0-10.2363,1.6562-13.6699,4.9707c-3.4316,3.3115-5.1484,8.46-5.1484,15.4443c0,3.1963,0.4746,6.2139,1.4199,9.0547
		c0.9492,2.8398,2.3389,5.2949,4.1719,7.3672c1.8369,2.0693,4.0254,3.7275,6.5693,4.9707c2.5459,1.2422,5.4141,1.8633,8.6094,1.8633
		c7.2207,0,14.1133-2.6621,20.6816-7.9883s12.752-12.249,18.5518-20.7705l27.1611-39.5879l-0.3545-0.3555
		c-4.1445,4.8545-8.9072,8.6406-14.291,11.3613c-5.3867,2.7217-10.918,4.083-16.5986,4.083c-5.3262,0-9.4395-1.7471-12.3379-5.2363
		C509.0312,258.8906,507.5801,254.4229,507.5801,248.9775z M530.6582,251.6406c0,2.249,0.3828,4.291,1.1543,6.124
		c0.7686,1.8369,2.5127,2.752,5.2373,2.752c2.4854,0,5.0869-0.8574,7.8105-2.5742c2.7217-1.7139,5.3838-3.9639,7.9893-6.7461
		c2.6016-2.7793,5.0869-5.9473,7.4561-9.4971c2.3662-3.5508,4.4072-7.1904,6.124-10.918c1.7148-3.7285,3.1074-7.3369,4.1719-10.8291
		c1.0654-3.4902,1.5977-6.5967,1.5977-9.3203c0-2.8408-0.7402-5.0596-2.2188-6.6572c-1.4814-1.5977-3.4033-2.3965-5.7695-2.3965
		c-2.4854,0-5.0322,0.8291-7.6338,2.4854c-2.6045,1.6582-5.1484,3.8164-7.6338,6.4795s-4.8535,5.7422-7.1006,9.2314
		c-2.25,3.4922-4.2021,7.1006-5.8584,10.8291c-1.6592,3.7275-2.96,7.3975-3.9053,11.0068
		C531.1299,245.2217,530.6582,248.5645,530.6582,251.6406z"/>
</g>
</svg>
