<?xml version="1.0" encoding="utf-8"?>
<!-- Generator: Adobe Illustrator 22.1.0, SVG Export Plug-In . SVG Version: 6.00 Build 0)  -->
<svg version="1.1" id="レイヤー_1" xmlns="http://www.w3.org/2000/svg" xmlns:xlink="http://www.w3.org/1999/xlink" x="0px"
	 y="0px" viewBox="0 0 800 400" enable-background="new 0 0 800 400" xml:space="preserve">
<rect fill="#F0E5D1" width="800" height="400"/>
<g>
	<path fill="#0B4D58" d="M217.2422,168.2559h8.6406v38.3398h21.4199v7.9805h-30.0605V168.2559z"/>
	<path fill="#0B4D58" d="M267.1621,201.3164c-1.2812,0.3594-2.7695,0.7305-4.4707,1.1094
		c-1.6992,0.3809-3.3105,0.6709-4.8301,0.8701c0.4004,1.5605,1.2305,2.8506,2.4902,3.8701
		c1.2598,1.0205,3.0312,1.5303,5.3105,1.5303c2,0,3.8594-0.4199,5.5801-1.2598c1.7188-0.8408,3.2188-1.9805,4.5-3.4199h0.1797
		l-0.6602,8.2793c-1.2793,1.0801-2.8203,1.9004-4.6191,2.46c-1.8008,0.5596-3.6602,0.8398-5.5801,0.8398
		c-2.4805,0-4.6406-0.3896-6.4805-1.1699c-1.8398-0.7793-3.3711-1.8301-4.5898-3.1494c-1.2207-1.3203-2.1309-2.8291-2.7305-4.5303
		c-0.5996-1.6992-0.9004-3.4893-0.9004-5.3701c0-2.1992,0.4102-4.3496,1.2305-6.4502c0.8203-2.0996,1.9707-3.9795,3.4512-5.6396
		c1.4785-1.6592,3.248-2.9893,5.3086-3.9902c2.0605-0.999,4.3105-1.5,6.75-1.5c3.0801,0,5.4609,0.7705,7.1406,2.3105
		s2.5195,3.4502,2.5195,5.7295c0,2.2803-0.7598,4.2002-2.2793,5.7598C272.9609,199.1562,270.5215,200.3965,267.1621,201.3164z
		 M265.002,189.7363c-0.9199,0-1.8008,0.25-2.6406,0.75s-1.5898,1.1797-2.25,2.04s-1.209,1.8896-1.6484,3.0898
		c-0.4414,1.2002-0.7207,2.4805-0.8398,3.8398c1.1191-0.1992,2.2383-0.4502,3.3594-0.75c1.1191-0.2998,2.1387-0.6094,3.0605-0.9297
		c1.5977-0.5596,2.7598-1.2393,3.4785-2.04c0.7207-0.7998,1.0801-1.6797,1.0801-2.6406c0-1.0391-0.3105-1.8594-0.9297-2.46
		C267.0508,190.0361,266.1621,189.7363,265.002,189.7363z"/>
	<path fill="#0B4D58" d="M284.6816,186.8564c1.3984-0.9199,2.9902-1.6201,4.7695-2.1006c1.7793-0.4795,3.5703-0.7197,5.3711-0.7197
		c4.0391,0,6.9785,0.9707,8.8184,2.9102c1.8398,1.9404,2.7598,4.71,2.7598,8.3096v18.6006l-7.9785,1.6201v-3.7207
		c-1.3203,1.041-2.7598,1.9004-4.3203,2.5801s-3.2617,1.0205-5.0996,1.0205c-2.4805,0-4.4102-0.6006-5.791-1.7998
		c-1.3789-1.2002-2.0703-2.9199-2.0703-5.1602c0-2.1602,0.6309-3.9697,1.8906-5.4307c1.2598-1.459,3.0898-2.709,5.4902-3.75
		c2.8398-1.2393,6.1387-2.0996,9.9004-2.5801v-1.3799c0-1.3594-0.4121-2.4492-1.2305-3.2695
		c-0.8203-0.8193-2.1113-1.2305-3.8691-1.2305c-1.4805,0-2.9707,0.251-4.4707,0.75c-1.5,0.501-2.8301,1.2705-3.9902,2.3105h-0.1797
		V186.8564z M298.4219,200.3564c-1.1211,0.2002-2.25,0.4707-3.3906,0.8096c-1.1406,0.3408-2.1094,0.7305-2.9102,1.1699
		c-0.8398,0.5205-1.4805,1.0801-1.9199,1.6807c-0.4414,0.5996-0.6602,1.3398-0.6602,2.2197c0,1.96,1.0801,2.9395,3.2402,2.9395
		c0.9199,0,1.9004-0.2393,2.9395-0.7197c1.041-0.4795,1.9395-1.2197,2.7012-2.2197V200.3564z"/>
	<path fill="#0B4D58" d="M333.8809,193.0957c-0.4414-0.0791-0.9297-0.1396-1.4707-0.1797
		c-0.5391-0.0391-1.0703-0.0596-1.5898-0.0596c-1.4004,0-2.5703,0.1201-3.5098,0.3594c-0.9395,0.2402-1.75,0.6006-2.4297,1.0801
		c-1.0801,0.8008-1.6191,2.0205-1.6191,3.6602v16.6201h-8.2207v-29.6396h8.2207v4.6201c1.0391-1.5205,2.2578-2.7695,3.6602-3.75
		c1.3984-0.9805,3.0586-1.4707,4.9785-1.4707c0.7598,0,1.4199,0.0605,1.9805,0.1807V193.0957z"/>
	<path fill="#0B4D58" d="M339.0996,184.9365h8.2207v4.1396c1.6797-1.7998,3.2891-3.0801,4.8301-3.8398
		c1.5391-0.7598,3.2695-1.1406,5.1895-1.1406c3.041,0,5.3906,0.8506,7.0508,2.5508s2.4902,4.2295,2.4902,7.5898v20.3398h-8.2207
		v-17.5195c0-1.9209-0.3809-3.3096-1.1387-4.1709c-0.7617-0.8594-1.9219-1.29-3.4805-1.29c-1.041,0-2.002,0.2109-2.8809,0.6309
		c-0.8809,0.4199-1.5996,0.9893-2.1602,1.71c-0.5996,0.6807-1.0293,1.3701-1.2891,2.0693
		c-0.2617,0.7002-0.3906,1.6504-0.3906,2.8506v15.7197h-8.2207V184.9365z"/>
	<path fill="#0B4D58" d="M389.6191,168.2559h9.1797l17.3418,34.2002l17.459-34.2002h9.3008v46.3203H434.5v-31.0801l-15.9004,31.0801
		h-4.8008l-15.7793-31.1396v31.1396h-8.4004V168.2559z"/>
	<path fill="#0B4D58" d="M466.5391,215.5957c-2.2793,0-4.3809-0.3701-6.3008-1.1094c-1.9199-0.7402-3.5898-1.7998-5.0098-3.1797
		c-1.4199-1.3809-2.5195-3.0703-3.2988-5.0703c-0.7812-2-1.1699-4.2598-1.1699-6.7803c0-2.4395,0.3984-4.6201,1.1992-6.54
		c0.7988-1.9199,1.9102-3.5488,3.3301-4.8896c1.4199-1.3398,3.0898-2.3701,5.0098-3.0898c1.9199-0.7207,4-1.0801,6.2402-1.0801
		s4.3301,0.3506,6.2695,1.0498c1.9395,0.7002,3.6191,1.71,5.041,3.0303c1.418,1.3193,2.5293,2.9502,3.3301,4.8896
		c0.7988,1.9404,1.1992,4.1504,1.1992,6.6299c0,2.7207-0.4297,5.0908-1.2891,7.1104c-0.8613,2.0205-2.0215,3.7002-3.4805,5.04
		c-1.4609,1.3408-3.1504,2.3398-5.0703,3S468.6191,215.5957,466.5391,215.5957z M466.5391,208.9365
		c2.2793,0,4.0703-0.7998,5.3691-2.4004c1.3008-1.5996,1.9512-3.96,1.9512-7.0801c0-2.6797-0.6504-4.8496-1.9512-6.5098
		c-1.2988-1.6592-3.0898-2.4902-5.3691-2.4902c-2.2402,0-4.0195,0.8008-5.3398,2.4004s-1.9805,3.8008-1.9805,6.5996
		c0,2.8408,0.6191,5.1299,1.8594,6.8701S464.1387,208.9365,466.5391,208.9365z"/>
	<path fill="#0B4D58" d="M508.1191,193.0957c-0.4414-0.0791-0.9316-0.1396-1.4707-0.1797c-0.541-0.0391-1.0703-0.0596-1.5898-0.0596
		c-1.4004,0-2.5703,0.1201-3.5098,0.3594c-0.9414,0.2402-1.75,0.6006-2.4297,1.0801c-1.0801,0.8008-1.6211,2.0205-1.6211,3.6602
		v16.6201h-8.2207v-29.6396h8.2207v4.6201c1.0391-1.5205,2.2598-2.7695,3.6602-3.75s3.0605-1.4707,4.9805-1.4707
		c0.7598,0,1.4199,0.0605,1.9805,0.1807V193.0957z"/>
	<path fill="#0B4D58" d="M527.6777,201.3164c-1.2812,0.3594-2.7695,0.7305-4.4707,1.1094
		c-1.6992,0.3809-3.3105,0.6709-4.8301,0.8701c0.4004,1.5605,1.2305,2.8506,2.4902,3.8701
		c1.2598,1.0205,3.0312,1.5303,5.3105,1.5303c2,0,3.8594-0.4199,5.5801-1.2598c1.7188-0.8408,3.2188-1.9805,4.5-3.4199h0.1797
		l-0.6602,8.2793c-1.2793,1.0801-2.8203,1.9004-4.6191,2.46c-1.8008,0.5596-3.6602,0.8398-5.5801,0.8398
		c-2.4805,0-4.6406-0.3896-6.4805-1.1699c-1.8398-0.7793-3.3711-1.8301-4.5898-3.1494c-1.2207-1.3203-2.1309-2.8291-2.7305-4.5303
		c-0.5996-1.6992-0.9004-3.4893-0.9004-5.3701c0-2.1992,0.4102-4.3496,1.2305-6.4502c0.8203-2.0996,1.9707-3.9795,3.4512-5.6396
		c1.4785-1.6592,3.248-2.9893,5.3086-3.9902c2.0605-0.999,4.3105-1.5,6.75-1.5c3.0801,0,5.4609,0.7705,7.1406,2.3105
		s2.5195,3.4502,2.5195,5.7295c0,2.2803-0.7598,4.2002-2.2793,5.7598C533.4766,199.1562,531.0371,200.3965,527.6777,201.3164z
		 M525.5176,189.7363c-0.9199,0-1.8008,0.25-2.6406,0.75s-1.5898,1.1797-2.25,2.04s-1.209,1.8896-1.6484,3.0898
		c-0.4414,1.2002-0.7207,2.4805-0.8398,3.8398c1.1191-0.1992,2.2383-0.4502,3.3594-0.75c1.1191-0.2998,2.1387-0.6094,3.0605-0.9297
		c1.5977-0.5596,2.7598-1.2393,3.4785-2.04c0.7207-0.7998,1.0801-1.6797,1.0801-2.6406c0-1.0391-0.3105-1.8594-0.9297-2.46
		C527.5664,190.0361,526.6777,189.7363,525.5176,189.7363z"/>
	<path fill="#0B4D58" d="M547.7168,206.1758c1.4004,0,2.5293,0.4307,3.3906,1.29c0.8594,0.8613,1.2891,1.9902,1.2891,3.3906
		c0,1.3604-0.4199,2.4805-1.2598,3.3594c-0.8398,0.8799-1.9609,1.3203-3.3594,1.3203c-1.4395,0-2.5898-0.4307-3.4512-1.29
		c-0.8594-0.8594-1.2891-1.9893-1.2891-3.3896s0.4297-2.5293,1.2891-3.3906C545.1875,206.6064,546.3164,206.1758,547.7168,206.1758z
		"/>
	<path fill="#0B4D58" d="M563.4375,206.1758c1.3984,0,2.5293,0.4307,3.3887,1.29c0.8594,0.8613,1.291,1.9902,1.291,3.3906
		c0,1.3604-0.4199,2.4805-1.2598,3.3594c-0.8398,0.8799-1.9609,1.3203-3.3613,1.3203c-1.4395,0-2.5898-0.4307-3.4492-1.29
		c-0.8613-0.8594-1.291-1.9893-1.291-3.3896s0.4297-2.5293,1.291-3.3906C560.9062,206.6064,562.0352,206.1758,563.4375,206.1758z"/>
	<path fill="#0B4D58" d="M579.1562,206.1758c1.4004,0,2.5293,0.4307,3.3906,1.29c0.8594,0.8613,1.2891,1.9902,1.2891,3.3906
		c0,1.3604-0.4199,2.4805-1.2598,3.3594c-0.8398,0.8799-1.9609,1.3203-3.3594,1.3203c-1.4395,0-2.5898-0.4307-3.4512-1.29
		c-0.8594-0.8594-1.2891-1.9893-1.2891-3.3896s0.4297-2.5293,1.2891-3.3906C576.627,206.6064,577.7559,206.1758,579.1562,206.1758z"
		/>
</g>
<path fill="#0B4D58" d="M780,20v360H20V20H780 M800,0H0v400h800V0L800,0z"/>
</svg>
