<?xml version="1.0" encoding="utf-8"?>
<!-- Generator: Adobe Illustrator 22.1.0, SVG Export Plug-In . SVG Version: 6.00 Build 0)  -->
<svg version="1.1" id="レイヤー_1" xmlns="http://www.w3.org/2000/svg" xmlns:xlink="http://www.w3.org/1999/xlink" x="0px"
	 y="0px" viewBox="0 0 800 400" style="enable-background:new 0 0 800 400;" xml:space="preserve">
<style type="text/css">
	.st0{fill:#F0E5D1;}
	.st1{fill:#0B4D58;}
</style>
<rect class="st0" width="800" height="400"/>
<g>
	<path class="st1" d="M217.2,168.3h8.6v38.3h21.4v8h-30.1V168.3z"/>
	<path class="st1" d="M267.2,201.3c-1.3,0.4-2.8,0.7-4.5,1.1c-1.7,0.4-3.3,0.7-4.8,0.9c0.4,1.6,1.2,2.9,2.5,3.9c1.3,1,3,1.5,5.3,1.5
		c2,0,3.9-0.4,5.6-1.3c1.7-0.8,3.2-2,4.5-3.4h0.2l-0.7,8.3c-1.3,1.1-2.8,1.9-4.6,2.5c-1.8,0.6-3.7,0.8-5.6,0.8
		c-2.5,0-4.6-0.4-6.5-1.2c-1.8-0.8-3.4-1.8-4.6-3.1c-1.2-1.3-2.1-2.8-2.7-4.5c-0.6-1.7-0.9-3.5-0.9-5.4c0-2.2,0.4-4.3,1.2-6.5
		c0.8-2.1,2-4,3.5-5.6c1.5-1.7,3.2-3,5.3-4c2.1-1,4.3-1.5,6.8-1.5c3.1,0,5.5,0.8,7.1,2.3s2.5,3.5,2.5,5.7c0,2.3-0.8,4.2-2.3,5.8
		C273,199.2,270.5,200.4,267.2,201.3z M265,189.7c-0.9,0-1.8,0.2-2.6,0.8s-1.6,1.2-2.2,2s-1.2,1.9-1.6,3.1c-0.4,1.2-0.7,2.5-0.8,3.8
		c1.1-0.2,2.2-0.5,3.4-0.8c1.1-0.3,2.1-0.6,3.1-0.9c1.6-0.6,2.8-1.2,3.5-2c0.7-0.8,1.1-1.7,1.1-2.6c0-1-0.3-1.9-0.9-2.5
		C267.1,190,266.2,189.7,265,189.7z"/>
	<path class="st1" d="M284.7,186.9c1.4-0.9,3-1.6,4.8-2.1c1.8-0.5,3.6-0.7,5.4-0.7c4,0,7,1,8.8,2.9c1.8,1.9,2.8,4.7,2.8,8.3v18.6
		l-8,1.6v-3.7c-1.3,1-2.8,1.9-4.3,2.6s-3.3,1-5.1,1c-2.5,0-4.4-0.6-5.8-1.8c-1.4-1.2-2.1-2.9-2.1-5.2c0-2.2,0.6-4,1.9-5.4
		c1.3-1.5,3.1-2.7,5.5-3.8c2.8-1.2,6.1-2.1,9.9-2.6v-1.4c0-1.4-0.4-2.4-1.2-3.3c-0.8-0.8-2.1-1.2-3.9-1.2c-1.5,0-3,0.3-4.5,0.8
		c-1.5,0.5-2.8,1.3-4,2.3h-0.2L284.7,186.9L284.7,186.9z M298.4,200.4c-1.1,0.2-2.2,0.5-3.4,0.8c-1.1,0.3-2.1,0.7-2.9,1.2
		c-0.8,0.5-1.5,1.1-1.9,1.7c-0.4,0.6-0.7,1.3-0.7,2.2c0,2,1.1,2.9,3.2,2.9c0.9,0,1.9-0.2,2.9-0.7c1-0.5,1.9-1.2,2.7-2.2L298.4,200.4
		L298.4,200.4z"/>
	<path class="st1" d="M333.9,193.1c-0.4-0.1-0.9-0.1-1.5-0.2c-0.5,0-1.1-0.1-1.6-0.1c-1.4,0-2.6,0.1-3.5,0.4
		c-0.9,0.2-1.8,0.6-2.4,1.1c-1.1,0.8-1.6,2-1.6,3.7v16.6H315v-29.6h8.2v4.6c1-1.5,2.3-2.8,3.7-3.8c1.4-1,3.1-1.5,5-1.5
		c0.8,0,1.4,0.1,2,0.2L333.9,193.1L333.9,193.1z"/>
	<path class="st1" d="M339.1,184.9h8.2v4.1c1.7-1.8,3.3-3.1,4.8-3.8c1.5-0.8,3.3-1.1,5.2-1.1c3,0,5.4,0.9,7.1,2.6s2.5,4.2,2.5,7.6
		v20.3h-8.2v-17.5c0-1.9-0.4-3.3-1.1-4.2c-0.8-0.9-1.9-1.3-3.5-1.3c-1,0-2,0.2-2.9,0.6c-0.9,0.4-1.6,1-2.2,1.7
		c-0.6,0.7-1,1.4-1.3,2.1c-0.3,0.7-0.4,1.7-0.4,2.9v15.7h-8.2L339.1,184.9L339.1,184.9z"/>
	<path class="st1" d="M389.6,168.3h9.2l17.3,34.2l17.5-34.2h9.3v46.3h-8.4v-31.1l-15.9,31.1h-4.8L398,183.4v31.1h-8.4V168.3z"/>
	<path class="st1" d="M466.5,215.6c-2.3,0-4.4-0.4-6.3-1.1c-1.9-0.7-3.6-1.8-5-3.2c-1.4-1.4-2.5-3.1-3.3-5.1c-0.8-2-1.2-4.3-1.2-6.8
		c0-2.4,0.4-4.6,1.2-6.5c0.8-1.9,1.9-3.5,3.3-4.9c1.4-1.3,3.1-2.4,5-3.1c1.9-0.7,4-1.1,6.2-1.1s4.3,0.4,6.3,1c1.9,0.7,3.6,1.7,5,3
		c1.4,1.3,2.5,3,3.3,4.9c0.8,1.9,1.2,4.2,1.2,6.6c0,2.7-0.4,5.1-1.3,7.1c-0.9,2-2,3.7-3.5,5c-1.5,1.3-3.2,2.3-5.1,3
		S468.6,215.6,466.5,215.6z M466.5,208.9c2.3,0,4.1-0.8,5.4-2.4c1.3-1.6,2-4,2-7.1c0-2.7-0.7-4.8-2-6.5c-1.3-1.7-3.1-2.5-5.4-2.5
		c-2.2,0-4,0.8-5.3,2.4s-2,3.8-2,6.6c0,2.8,0.6,5.1,1.9,6.9S464.1,208.9,466.5,208.9z"/>
	<path class="st1" d="M508.1,193.1c-0.4-0.1-0.9-0.1-1.5-0.2c-0.5,0-1.1-0.1-1.6-0.1c-1.4,0-2.6,0.1-3.5,0.4
		c-0.9,0.2-1.8,0.6-2.4,1.1c-1.1,0.8-1.6,2-1.6,3.7v16.6h-8.2v-29.6h8.2v4.6c1-1.5,2.3-2.8,3.7-3.8s3.1-1.5,5-1.5
		c0.8,0,1.4,0.1,2,0.2L508.1,193.1L508.1,193.1z"/>
	<path class="st1" d="M527.7,201.3c-1.3,0.4-2.8,0.7-4.5,1.1c-1.7,0.4-3.3,0.7-4.8,0.9c0.4,1.6,1.2,2.9,2.5,3.9c1.3,1,3,1.5,5.3,1.5
		c2,0,3.9-0.4,5.6-1.3c1.7-0.8,3.2-2,4.5-3.4h0.2l-0.7,8.3c-1.3,1.1-2.8,1.9-4.6,2.5c-1.8,0.6-3.7,0.8-5.6,0.8
		c-2.5,0-4.6-0.4-6.5-1.2c-1.8-0.8-3.4-1.8-4.6-3.1c-1.2-1.3-2.1-2.8-2.7-4.5c-0.6-1.7-0.9-3.5-0.9-5.4c0-2.2,0.4-4.3,1.2-6.5
		c0.8-2.1,2-4,3.5-5.6c1.5-1.7,3.2-3,5.3-4c2.1-1,4.3-1.5,6.8-1.5c3.1,0,5.5,0.8,7.1,2.3s2.5,3.5,2.5,5.7c0,2.3-0.8,4.2-2.3,5.8
		C533.5,199.2,531,200.4,527.7,201.3z M525.5,189.7c-0.9,0-1.8,0.2-2.6,0.8s-1.6,1.2-2.2,2s-1.2,1.9-1.6,3.1
		c-0.4,1.2-0.7,2.5-0.8,3.8c1.1-0.2,2.2-0.5,3.4-0.8c1.1-0.3,2.1-0.6,3.1-0.9c1.6-0.6,2.8-1.2,3.5-2c0.7-0.8,1.1-1.7,1.1-2.6
		c0-1-0.3-1.9-0.9-2.5C527.6,190,526.7,189.7,525.5,189.7z"/>
	<path class="st1" d="M547.7,206.2c1.4,0,2.5,0.4,3.4,1.3c0.9,0.9,1.3,2,1.3,3.4c0,1.4-0.4,2.5-1.3,3.4c-0.8,0.9-2,1.3-3.4,1.3
		c-1.4,0-2.6-0.4-3.5-1.3c-0.9-0.9-1.3-2-1.3-3.4s0.4-2.5,1.3-3.4C545.2,206.6,546.3,206.2,547.7,206.2z"/>
	<path class="st1" d="M563.4,206.2c1.4,0,2.5,0.4,3.4,1.3c0.9,0.9,1.3,2,1.3,3.4c0,1.4-0.4,2.5-1.3,3.4c-0.8,0.9-2,1.3-3.4,1.3
		c-1.4,0-2.6-0.4-3.4-1.3c-0.9-0.9-1.3-2-1.3-3.4s0.4-2.5,1.3-3.4C560.9,206.6,562,206.2,563.4,206.2z"/>
	<path class="st1" d="M579.2,206.2c1.4,0,2.5,0.4,3.4,1.3c0.9,0.9,1.3,2,1.3,3.4c0,1.4-0.4,2.5-1.3,3.4c-0.8,0.9-2,1.3-3.4,1.3
		c-1.4,0-2.6-0.4-3.5-1.3c-0.9-0.9-1.3-2-1.3-3.4s0.4-2.5,1.3-3.4C576.6,206.6,577.8,206.2,579.2,206.2z"/>
</g>
<g>
	<path class="st1" d="M792,8v384H8V8H792 M800,0H0v400h800V0L800,0z"/>
</g>
</svg>
