<?xml version="1.0" encoding="utf-8"?>
<!-- Generator: Adobe Illustrator 22.0.1, SVG Export Plug-In . SVG Version: 6.00 Build 0)  -->
<svg version="1.1" id="レイヤー_1" xmlns="http://www.w3.org/2000/svg" xmlns:xlink="http://www.w3.org/1999/xlink" x="0px"
	 y="0px" viewBox="0 0 1000 354.1" enable-background="new 0 0 1000 354.1" xml:space="preserve">
<path fill="#F2F2F2" d="M105.463,335.1h-113.8l-1.2-2.9l31-31l1.2-0.5h113.8l1.2,2.9l-31,31L105.463,335.1z M-4.137,331.7h108.9
	l27.6-27.6h-108.9L-4.137,331.7z"/>
<rect x="600.556" y="310.132" transform="matrix(0.7071 -0.7071 0.7071 0.7071 -38.1707 531.5111)" fill="#F2F2F2" width="43.9" height="3.4"/>
<rect x="5.901" y="316.09" transform="matrix(0.7071 -0.7071 0.7071 0.7071 -216.5541 112.7723)" fill="#F2F2F2" width="43.9" height="3.4"/>
<rect x="16.213" y="316.119" transform="matrix(0.7071 -0.7071 0.7071 0.7071 -213.5545 120.0723)" fill="#F2F2F2" width="43.9" height="3.4"/>
<rect x="26.596" y="316.078" transform="matrix(0.7071 -0.7071 0.7071 0.7071 -210.4842 127.4023)" fill="#F2F2F2" width="43.9" height="3.4"/>
<rect x="36.908" y="316.107" transform="matrix(0.7071 -0.7071 0.7071 0.7071 -207.4846 134.7023)" fill="#F2F2F2" width="43.9" height="3.4"/>
<rect x="47.22" y="316.136" transform="matrix(0.7071 -0.7071 0.7071 0.7071 -204.485 142.0023)" fill="#F2F2F2" width="43.9" height="3.4"/>
<rect x="57.603" y="316.095" transform="matrix(0.7071 -0.7071 0.7071 0.7071 -201.4146 149.3322)" fill="#F2F2F2" width="43.9" height="3.4"/>
<rect x="67.915" y="316.124" transform="matrix(0.7071 -0.7071 0.7071 0.7071 -198.4151 156.6323)" fill="#F2F2F2" width="43.9" height="3.4"/>
<rect x="78.297" y="316.083" transform="matrix(0.7071 -0.7071 0.7071 0.7071 -195.3447 163.9616)" fill="#F2F2F2" width="43.9" height="3.4"/>
<rect x="88.609" y="316.112" transform="matrix(0.7071 -0.7071 0.7071 0.7071 -192.3451 171.2622)" fill="#F2F2F2" width="43.9" height="3.4"/>
<polygon fill="#F2F2F2" points="166.263,334.6 136.463,304.8 134.163,307.1 131.663,304.7 135.263,301.1 137.663,301.1 
	168.663,332.2 "/>
<rect x="108.863" y="328.2" fill="#F2F2F2" width="3.4" height="25.6"/>
<rect x="158.463" y="326.1" fill="#F2F2F2" width="3.4" height="27.7"/>
<rect x="119.563" y="317.5" fill="#F2F2F2" width="33.5" height="3.4"/>
<rect x="127.263" y="309.8" fill="#F2F2F2" width="3.4" height="9.4"/>
<rect x="132.363" y="305.9" fill="#F2F2F2" width="3.4" height="12"/>
<rect x="137.963" y="305.9" fill="#F2F2F2" width="3.4" height="12"/>
<rect x="143.663" y="311.9" fill="#F2F2F2" width="3.4" height="6"/>
<rect x="110.563" y="335.6" fill="#F2F2F2" width="49.6" height="3.4"/>
<rect x="125.163" y="326.1" fill="#F2F2F2" width="3.4" height="6.2"/>
<rect x="129.863" y="326.1" fill="#F2F2F2" width="3.4" height="6.2"/>
<rect x="134.463" y="326.1" fill="#F2F2F2" width="3.4" height="6.2"/>
<rect x="139.163" y="326.1" fill="#F2F2F2" width="3.4" height="6.2"/>
<rect x="143.763" y="326.1" fill="#F2F2F2" width="3.4" height="6.2"/>
<rect x="93.063" y="337.1" fill="#F2F2F2" width="3.9" height="3.4"/>
<rect x="76.163" y="337.1" fill="#F2F2F2" width="3.9" height="3.4"/>
<rect x="59.363" y="337.1" fill="#F2F2F2" width="3.9" height="3.4"/>
<rect x="42.463" y="337.1" fill="#F2F2F2" width="3.9" height="3.4"/>
<rect x="630.6" y="331.1" fill="#F2F2F2" width="3.9" height="3.4"/>
<rect x="613.7" y="331.1" fill="#F2F2F2" width="3.9" height="3.4"/>
<path fill="#F2F2F2" d="M198.463,366.1h-10.3l-1.7-1.7v-31l1.7-1.7h10.3l1.7,1.7v31L198.463,366.1z M189.863,362.7h6.9v-27.6h-6.9
	V362.7z"/>
<path fill="#F2F2F2" d="M229.563,366.1h-10.3l-1.7-1.7v-31l1.7-1.7h10.3l1.7,1.7v31L229.563,366.1z M220.963,362.7h6.9v-27.6h-6.9
	V362.7z"/>
<path fill="#F2F2F2" d="M260.563,366.1h-10.3l-1.7-1.7v-31l1.7-1.7h10.3l1.7,1.7v31L260.563,366.1z M251.963,362.7h6.9v-27.6h-6.9
	V362.7z"/>
<path fill="#F2F2F2" d="M291.563,366.1h-10.3l-1.7-1.7v-31l1.7-1.7h10.3l1.7,1.7v31L291.563,366.1z M282.963,362.7h6.9v-27.6h-6.9
	V362.7z"/>
<path fill="#F2F2F2" d="M301.963,335.1h-124.1l-1.2-0.5l-10.3-10.3l1.2-2.9h10.3c0.9,0,8.6-0.3,8.6-8.6l0.5-1.2l10.3-10.3l1.2-0.5
	h82.7l1.2,0.5l10.3,10.3l0.5,1.2c0,0.9,0.3,8.6,8.6,8.6h10.3l1.2,2.9l-10.3,10.3L301.963,335.1z M178.563,331.7h122.7l6.9-6.9h-6.2
	c-9,0-11.8-7-12-11.3l-9.4-9.4h-81.3l-9.3,9.3c-0.4,8.9-8,11.3-12,11.3h-6.2L178.563,331.7z"/>
<path fill="none" stroke="#231815" stroke-width="3.4471" stroke-linejoin="bevel" stroke-miterlimit="10" d="M188.163,312.7"/>
<rect x="238.163" y="296.8" fill="#F2F2F2" width="3.4" height="36.6"/>
<rect x="244.763" y="296.8" fill="#F2F2F2" width="3.4" height="36.6"/>
<rect x="251.263" y="296.8" fill="#F2F2F2" width="3.4" height="36.6"/>
<rect x="257.863" y="296.8" fill="#F2F2F2" width="3.4" height="36.6"/>
<rect x="264.463" y="296.8" fill="#F2F2F2" width="3.4" height="36.6"/>
<rect x="271.063" y="296.8" fill="#F2F2F2" width="3.4" height="36.6"/>
<rect x="277.663" y="296.8" fill="#F2F2F2" width="3.4" height="36.6"/>
<rect x="284.263" y="307.2" fill="#F2F2F2" width="3.4" height="26.1"/>
<rect x="290.763" y="317.1" fill="#F2F2F2" width="3.4" height="16.2"/>
<rect x="297.363" y="322" fill="#F2F2F2" width="3.4" height="11.3"/>
<rect x="303.963" y="322" fill="#F2F2F2" width="3.4" height="7.6"/>
<rect x="231.763" y="296.8" fill="#F2F2F2" width="3.4" height="36.6"/>
<rect x="225.263" y="296.8" fill="#F2F2F2" width="3.4" height="36.6"/>
<rect x="218.663" y="296.8" fill="#F2F2F2" width="3.4" height="36.6"/>
<rect x="212.063" y="296.8" fill="#F2F2F2" width="3.4" height="36.6"/>
<rect x="205.463" y="296.8" fill="#F2F2F2" width="3.4" height="36.6"/>
<rect x="198.863" y="296.8" fill="#F2F2F2" width="3.4" height="36.6"/>
<polygon fill="#F2F2F2" points="195.763,333.4 192.363,333.4 192.363,307.7 185.963,297.7 187.463,295 239.863,295 239.863,298.5 
	190.563,298.5 195.463,306.3 195.763,307.2 "/>
<polygon fill="#F2F2F2" points="287.163,308.2 284.263,306.3 289.163,298.5 239.863,298.5 239.863,295 292.363,295 293.763,297.7 
	"/>
<rect x="185.763" y="317.1" fill="#F2F2F2" width="3.4" height="16.2"/>
<rect x="179.163" y="322" fill="#F2F2F2" width="3.4" height="11.3"/>
<rect x="172.563" y="322" fill="#F2F2F2" width="3.4" height="7.6"/>
<rect x="284.263" y="297.9" fill="#F2F2F2" width="3.4" height="6.1"/>
<rect x="192.463" y="297.9" fill="#F2F2F2" width="3.4" height="6.1"/>
<rect x="198.463" y="342.2" fill="#F2F2F2" width="20.7" height="3.4"/>
<rect x="229.563" y="342.2" fill="#F2F2F2" width="19.6" height="3.4"/>
<rect x="261.663" y="342.2" fill="#F2F2F2" width="17.7" height="3.4"/>
<rect x="656.8" y="304.1" fill="#F2F2F2" width="3.4" height="55"/>
<rect x="652.8" y="302.3" fill="#F2F2F2" width="23.7" height="3.4"/>
<rect x="664.3" y="297.9" fill="#F2F2F2" width="3.4" height="12.5"/>
<rect x="669.4" y="297.9" fill="#F2F2F2" width="3.4" height="12.5"/>
<rect x="674.5" y="297.9" fill="#F2F2F2" width="3.4" height="12.5"/>
<path fill="#F2F2F2" d="M664.1,338.5h-5.5l-1.7-1.7v-10.3l1.7-1.7h5.5l1.7,1.7v10.3L664.1,338.5z M660.3,335.1h2v-6.9h-2V335.1z"/>
<path fill="#F2F2F2" d="M753.6,361h-51.7l-1.7-1.7v-31l0.5-1.2l25.9-25.9h2.4l25.9,25.9l0.5,1.2v31L753.6,361z M703.6,357.5h48.3
	v-28.6l-24.1-24.1l-24.1,24.1v28.6H703.6z"/>
<polygon fill="#F2F2F2" points="833.8,359.2 830.3,359.2 830.3,326.6 807.8,304.1 727.7,304.1 727.7,300.6 808.5,300.6 809.7,301.1 
	833.3,324.7 833.8,325.9 "/>
<polygon fill="#F2F2F2" points="766.7,357.5 763.2,357.5 763.2,328.8 738.4,303.6 740.9,301.1 766.2,326.9 766.7,328.1 "/>
<polygon fill="#F2F2F2" points="778.3,357.5 774.8,357.5 774.8,328.8 750,303.6 752.5,301.1 777.8,326.9 778.3,328.1 "/>
<polygon fill="#F2F2F2" points="789.9,357.5 786.4,357.5 786.4,328.8 761.6,303.6 764.1,301.1 789.4,326.9 789.9,328.1 "/>
<polygon fill="#F2F2F2" points="801.5,357.5 798,357.5 798,328.8 773.2,303.6 775.7,301.1 801,326.9 801.5,328.1 "/>
<polygon fill="#F2F2F2" points="813.1,357.5 809.6,357.5 809.6,328.8 784.9,303.6 787.3,301.1 812.6,326.9 813.1,328.1 "/>
<polygon fill="#F2F2F2" points="824.7,357.5 821.2,357.5 821.2,328.8 796.5,303.6 798.9,301.1 824.2,326.9 824.7,328.1 "/>
<rect x="753.6" y="326.5" fill="#F2F2F2" width="78.5" height="3.4"/>
<rect x="753.6" y="333.4" fill="#F2F2F2" width="77" height="3.4"/>
<path fill="#F2F2F2" d="M731.9,334.9h-9.1l-1.7-1.7v-7.1c0-0.5-0.1-2.2,1.1-3.6c1.1-1.3,2.9-2,5.4-2c1.9,0,3.5,0.6,4.6,1.7
	c1.5,1.6,1.5,3.5,1.5,3.8v7.2L731.9,334.9z M724.4,331.5h5.7V326c0-0.7-0.4-2-2.6-2c-1.3,0-2.3,0.3-2.8,0.8c-0.4,0.4-0.3,1-0.3,1
	v0.3L724.4,331.5L724.4,331.5z"/>
<polygon fill="#F2F2F2" points="847,355 844.5,352.6 855.5,341.6 856.7,341.1 869.7,341.1 876.4,334.3 877.7,333.8 892.1,333.8 
	903.3,322.7 904.5,322.1 939.4,322.1 939.4,325.6 905.2,325.6 894.1,336.8 892.8,337.3 878.4,337.3 871.6,344 870.4,344.5 
	857.4,344.5 "/>
<polygon fill="#F2F2F2" points="884.2,336.4 881.8,333.9 904.1,311.6 905.3,311.1 926.1,311.1 942.1,295 943.4,294.5 961.7,294.5 
	972.5,283.7 973.7,283.2 1001.8,283.2 1001.8,286.7 974.4,286.7 963.6,297.5 962.4,298 944.1,298 928,314.1 926.8,314.6 906,314.6 
	"/>
<polygon fill="#F2F2F2" points="956.5,316.8 954,314.4 962,306.5 948.9,306.5 947.7,303.6 956.2,295 958.6,297.5 953,303 966.1,303 
	967.3,306 "/>
<rect x="907.935" y="331.906" transform="matrix(0.7071 -0.7071 0.7071 0.7071 34.0897 749.5116)" fill="#F2F2F2" width="27.7" height="3.4"/>
<rect x="860.7" y="310.4" fill="#F2F2F2" width="3.4" height="32.5"/>
<rect x="855.776" y="332.335" transform="matrix(0.7071 -0.7071 0.7071 0.7071 15.5803 705.6838)" fill="#F2F2F2" width="7.7" height="3.4"/>
<rect x="855.767" y="325.739" transform="matrix(0.7071 -0.7071 0.7071 0.7071 20.2417 703.7457)" fill="#F2F2F2" width="7.7" height="3.4"/>
<rect x="855.758" y="319.142" transform="matrix(0.7071 -0.7071 0.7071 0.7071 24.9036 701.8073)" fill="#F2F2F2" width="7.7" height="3.4"/>
<rect x="855.749" y="312.546" transform="matrix(0.7071 -0.7071 0.7071 0.7071 29.5651 699.869)" fill="#F2F2F2" width="7.7" height="3.4"/>
<rect x="863.696" y="330.185" transform="matrix(0.7071 -0.7071 0.7071 0.7071 17.2706 709.764)" fill="#F2F2F2" width="3.4" height="7.7"/>
<rect x="863.571" y="323.562" transform="matrix(0.7071 -0.7071 0.7071 0.7071 21.9169 707.7357)" fill="#F2F2F2" width="3.4" height="7.7"/>
<rect x="863.632" y="317.036" transform="matrix(0.7071 -0.7071 0.7071 0.7071 26.549 705.8679)" fill="#F2F2F2" width="3.4" height="7.7"/>
<rect x="863.623" y="310.44" transform="matrix(0.7071 -0.7071 0.7071 0.7071 31.2104 703.9294)" fill="#F2F2F2" width="3.4" height="7.7"/>
<rect x="876.5" y="309.6" fill="#F2F2F2" width="3.4" height="25.8"/>
<rect x="871.555" y="324.949" transform="matrix(0.7071 -0.7071 0.7071 0.7071 25.4245 714.6783)" fill="#F2F2F2" width="7.7" height="3.4"/>
<rect x="871.617" y="318.424" transform="matrix(0.7071 -0.7071 0.7071 0.7071 30.0566 712.8107)" fill="#F2F2F2" width="7.7" height="3.4"/>
<rect x="871.608" y="311.828" transform="matrix(0.7071 -0.7071 0.7071 0.7071 34.718 710.8724)" fill="#F2F2F2" width="7.7" height="3.4"/>
<rect x="879.43" y="322.843" transform="matrix(0.7071 -0.7071 0.7071 0.7071 27.0701 718.739)" fill="#F2F2F2" width="3.4" height="7.7"/>
<rect x="879.42" y="316.247" transform="matrix(0.7071 -0.7071 0.7071 0.7071 31.7315 716.8005)" fill="#F2F2F2" width="3.4" height="7.7"/>
<rect x="879.411" y="309.65" transform="matrix(0.7071 -0.7071 0.7071 0.7071 36.3934 714.8621)" fill="#F2F2F2" width="3.4" height="7.7"/>
<rect x="907.063" y="307.079" transform="matrix(0.7071 -0.7071 0.7071 0.7071 48.4605 734.5522)" fill="#F2F2F2" width="7.7" height="3.4"/>
<rect x="914.868" y="304.901" transform="matrix(0.7071 -0.7071 0.7071 0.7071 50.1367 738.5424)" fill="#F2F2F2" width="3.4" height="7.7"/>
<g>
	<polyline fill="#FFFFFF" points="365,288.9 365,267.1 324.2,267.1 324.2,347.9 365,347.9 365,298.5 	"/>
	<polygon fill="#F2F2F2" points="366.4,349.3 322.8,349.3 322.8,265.7 366.4,265.7 366.4,288.9 363.6,288.9 363.6,268.6 
		325.7,268.6 325.7,346.4 363.6,346.4 363.6,298.5 366.4,298.5 	"/>
</g>
<g>
	<rect x="352.1" y="217.9" fill="#FFFFFF" width="286.7" height="58.2"/>
	<path fill="#F2F2F2" d="M640.3,277.5H350.7v-61h289.6V277.5z M353.5,274.6h283.9v-55.3H353.5V274.6z"/>
</g>
<g>
	<rect x="571.1" y="229.7" fill="#FFFFFF" width="47.5" height="27.3"/>
	<path fill="#F2F2F2" d="M620,258.4h-50.4v-30.1H620V258.4z M572.5,255.6h44.6v-24.4h-44.6V255.6z"/>
</g>
<g>
	<polyline fill="#FFFFFF" points="638.9,341.4 638.9,284.8 352.1,284.8 	"/>
	<polygon fill="#F2F2F2" points="640.3,341.4 637.4,341.4 637.4,286.2 352.1,286.2 352.1,283.4 640.3,283.4 	"/>
</g>
<g>
	<rect x="461.8" y="341.4" fill="#F2F2F2" width="7.6" height="22.8"/>
	<path fill="#F2F2F2" d="M470.8,365.6h-10.4V340h10.4V365.6z M463.2,362.7h4.7v-19.9h-4.7V362.7z"/>
</g>
<g>
	<rect x="565.9" y="341.4" fill="#F2F2F2" width="7.6" height="24.9"/>
	<path fill="#F2F2F2" d="M574.9,367.7h-10.4V340h10.4V367.7z M567.3,364.9h4.7v-22.1h-4.7V364.9z"/>
</g>
<g>
	<rect x="626" y="341.4" fill="#F2F2F2" width="12.9" height="19.5"/>
	<path fill="#F2F2F2" d="M640.3,362.3h-15.8V340h15.8V362.3z M627.4,359.4h10v-16.6h-10V359.4z"/>
</g>
<g>
	<rect x="438.4" y="340.2" fill="#F2F2F2" width="23.4" height="7.7"/>
	<path fill="#F2F2F2" d="M463.2,349.3H437v-10.5h26.2V349.3z M439.8,346.4h20.5v-4.8h-20.5V346.4z"/>
</g>
<g>
	<rect x="469.2" y="340.2" fill="#F2F2F2" width="14.9" height="7.7"/>
	<path fill="#F2F2F2" d="M485.5,349.3h-17.7v-10.5h17.7V349.3z M470.6,346.4h12v-4.8h-12V346.4z"/>
</g>
<g>
	<rect x="552.2" y="340.2" fill="#F2F2F2" width="13.8" height="7.7"/>
	<path fill="#F2F2F2" d="M567.3,349.3h-16.6v-10.5h16.6V349.3z M553.6,346.4h10.9v-4.8h-10.9V346.4z"/>
</g>
<g>
	<rect x="573.5" y="340.2" fill="#F2F2F2" width="7.7" height="7.7"/>
	<path fill="#F2F2F2" d="M582.6,349.3h-10.5v-10.5h10.5V349.3z M574.9,346.4h4.8v-4.8h-4.8V346.4z"/>
</g>
<g>
	<rect x="618.3" y="340.2" fill="#F2F2F2" width="7.7" height="7.7"/>
	<path fill="#F2F2F2" d="M627.4,349.3h-10.5v-10.5h10.5V349.3z M619.7,346.4h4.8v-4.8h-4.8V346.4z"/>
</g>
<path fill="#F2F2F2" d="M505.9,349.3h-23.3v-52.2h23.3V349.3z M485.5,346.4h17.6v-46.5h-17.6V346.4z"/>
<path fill="#F2F2F2" d="M528.4,312.8h-38.8v-2.9c4.1,0,5-8.5,5-11.4v-1.4H536v1.4c0,0.1,0,3.4-0.8,6.7
	C533.7,311.3,530.7,312.7,528.4,312.8L528.4,312.8z M494.7,309.9h33.6c3.5-0.1,4.6-6.4,4.8-10h-35.7
	C497.3,302.3,496.8,306.9,494.7,309.9z"/>
<g>
	<path fill="#FFFFFF" d="M508.9,311.4h-19.3c6.4,0,6.4-12.9,6.4-12.9h38.6c0,0,0,12.9-6.4,12.9"/>
	<path fill="#F2F2F2" d="M528.2,312.8v-2.9c3.5,0,4.7-6.4,4.9-10h-35.7c-0.1,2.3-0.7,7-2.8,10h14.2v2.9h-19.3v-2.9
		c4.1,0,5-8.5,5-11.4v-1.4h41.4v1.4C536.1,299.1,536,312.8,528.2,312.8z"/>
</g>
<path fill="#F2F2F2" d="M521.8,312.8h-19.3v-2.9c4.1,0,5-8.5,5-11.4h2.9c0,0.4,0,7.4-2.8,11.4h14.2V312.8L521.8,312.8z"/>
<path fill="#F2F2F2" d="M528.4,312.8h-13v-2.9c4.1,0,5-8.5,5-11.4h2.9c0,0.4,0,7.4-2.8,11.4h8v2.9H528.4z"/>
<path fill="#F2F2F2" d="M608.8,312.8h-25.9v-2.9h25.8c4-0.1,4.9-8.5,4.9-11.4h2.9c0,0.1,0,3.4-0.8,6.7
	C614.1,311.3,611.1,312.7,608.8,312.8L608.8,312.8z"/>
<path fill="#F2F2F2" d="M602.2,312.8h-19.3v-2.9c4.1,0,5-8.5,5-11.4h2.9c0,0.4,0,7.4-2.8,11.4h14.2V312.8L602.2,312.8z"/>
<path fill="#F2F2F2" d="M608.8,312.8h-13v-2.9c4.1,0,5-8.5,5-11.4h2.9c0,0.4,0,7.4-2.8,11.4h8L608.8,312.8L608.8,312.8z"/>
<rect x="484.6" y="313.6" fill="#F2F2F2" width="19.9" height="2.9"/>
<rect x="484.6" y="329.2" fill="#F2F2F2" width="19.9" height="2.9"/>
<rect x="484.1" y="334" fill="#F2F2F2" width="20.5" height="2.9"/>
<rect x="488.2" y="335.4" fill="#F2F2F2" width="2.9" height="12.5"/>
<path fill="#F2F2F2" d="M544,349.3h-7.5V300h-49v-2.9H544V349.3z M539.3,346.4h1.8v-46.5h-1.8V346.4z"/>
<polygon fill="#F2F2F2" points="553.6,349.3 477.7,349.3 477.7,346.4 550.7,346.4 550.7,299.9 542.5,299.9 542.5,297.1 553.6,297.1 
	"/>
<rect x="504.5" y="340.2" fill="#F2F2F2" width="32.8" height="2.9"/>
<path fill="#F2F2F2" d="M567.3,349.3h-99.6v-52.2h99.6V349.3z M470.6,346.4h93.9v-46.5h-93.9V346.4z"/>
<path fill="#F2F2F2" d="M627.4,349.3h-55.3v-52.2h55.3V349.3z M574.9,346.4h49.6v-46.5h-49.6V346.4z"/>
<path fill="#F2F2F2" d="M401.8,349.3h-23.3v-52.2h23.3V349.3z M381.3,346.4h17.6v-46.5h-17.6V346.4z"/>
<rect x="380.5" y="313.6" fill="#F2F2F2" width="19.9" height="2.9"/>
<rect x="380.5" y="329.2" fill="#F2F2F2" width="19.9" height="2.9"/>
<rect x="379.9" y="334" fill="#F2F2F2" width="20.5" height="2.9"/>
<rect x="384" y="335.4" fill="#F2F2F2" width="2.9" height="12.5"/>
<path fill="#F2F2F2" d="M417,349.3h-23.3v-52.2H417V349.3z M396.5,346.4h17.6v-46.5h-17.6V346.4z"/>
<rect x="395.7" y="313.6" fill="#F2F2F2" width="19.9" height="2.9"/>
<rect x="395.7" y="329.2" fill="#F2F2F2" width="19.9" height="2.9"/>
<rect x="395.1" y="334" fill="#F2F2F2" width="20.5" height="2.9"/>
<path fill="#F2F2F2" d="M439.8,349.3h-7.5V300h-49v-2.9h56.5V349.3z M435.1,346.4h1.8v-46.5h-1.8V346.4z"/>
<path fill="#F2F2F2" d="M463.2,349.3h-99.6v-52.2h99.6V349.3L463.2,349.3z M366.4,346.4h93.9v-46.5h-93.9V346.4z"/>
<g>
	<path fill="#FFFFFF" d="M450.2,347.8c0,0-6.4,0-6.4-6.4s0-6.4,0-6.4h12.9v6.4C456.6,341.4,456.6,347.8,450.2,347.8z"/>
	<path fill="#F2F2F2" d="M450.2,349.2c-2.7,0-7.9-1.6-7.9-7.9v-7.9H458v7.9C458.1,344.1,456.4,349.2,450.2,349.2z M445.2,336.4v5
		c0,4.9,4.5,5,5,5c4.9,0,5-4.5,5-5v-5H445.2z"/>
</g>
<rect x="447.4" y="328.5" fill="#F2F2F2" width="2.9" height="6.4"/>
<path fill="#F2F2F2" d="M446.9,334.6H444v-15.9c0-0.9-0.4-1.3-1.3-1.3v-2.9c1.5,0,2.5,0.6,3,1.2c1.2,1.2,1.2,2.9,1.2,3V334.6z"/>
<path fill="#F2F2F2" d="M453.9,333.9H451v-6.4c0-2.7,1.6-7.9,7.9-7.9v2.9c-4.9,0-5,4.5-5,5V333.9z"/>
<rect x="450.011" y="322.008" transform="matrix(0.7071 -0.7071 0.7071 0.7071 -96.4892 413.97)" fill="#F2F2F2" width="2.9" height="2.9"/>
<rect x="452.525" y="328.185" transform="matrix(0.8931 -0.4499 0.4499 0.8931 -99.6661 239.8879)" fill="#F2F2F2" width="4.7" height="2.9"/>
<rect x="442.533" y="320.074" transform="matrix(0.7071 -0.7071 0.7071 0.7071 -97.4533 408.1741)" fill="#F2F2F2" width="2.9" height="3.3"/>
<rect x="444.378" y="319.471" transform="matrix(0.7071 -0.7071 0.7071 0.7071 -95.8329 410.4808)" fill="#F2F2F2" width="6.4" height="2.9"/>
<rect x="442.462" y="324.775" transform="matrix(0.7071 -0.7071 0.7071 0.7071 -100.7634 409.4864)" fill="#F2F2F2" width="2.9" height="3.2"/>
<rect x="386.8" y="346.4" fill="#F2F2F2" width="222.9" height="2.9"/>
<g>
	<rect x="365" y="340.2" fill="#F2F2F2" width="14.9" height="7.7"/>
	<path fill="#F2F2F2" d="M381.3,349.3h-17.7v-10.5h17.7C381.3,338.7,381.3,349.3,381.3,349.3z M366.4,346.4h12v-4.8h-12V346.4z"/>
</g>
<g>
	<line fill="none" x1="618.3" y1="340.2" x2="618.3" y2="298.5"/>
	<rect x="616.8" y="298.5" fill="#F2F2F2" width="2.9" height="41.6"/>
</g>
<g>
	<line fill="none" x1="581.2" y1="340.2" x2="581.2" y2="298.5"/>
	<rect x="579.8" y="298.5" fill="#F2F2F2" width="2.9" height="41.6"/>
</g>
<g>
	<rect x="345.1" y="276" fill="#FFFFFF" width="293.7" height="12.9"/>
	<path fill="#F2F2F2" d="M640.3,290.3H343.7v-15.7h296.6V290.3L640.3,290.3z M346.6,287.5h290.9v-10H346.6V287.5z"/>
</g>
<g>
	<rect x="324.2" y="342.9" fill="#F2F2F2" width="40.8" height="21.2"/>
	<path fill="#F2F2F2" d="M366.4,365.6h-43.6v-24.1h43.6C366.4,341.5,366.4,365.6,366.4,365.6z M325.7,362.7h37.9v-18.4h-37.9V362.7z
		"/>
</g>
<g>
	<line fill="none" x1="345.1" y1="280.7" x2="638.9" y2="280.7"/>
	<rect x="345.1" y="279.2" fill="#F2F2F2" width="293.7" height="2.9"/>
</g>
<g>
	<rect x="629.9" y="288.9" fill="#FFFFFF" width="4.5" height="4.5"/>
	<path fill="#F2F2F2" d="M635.8,294.8h-7.4v-7.4h7.4V294.8z M631.3,292h1.7v-1.7h-1.7V292z"/>
</g>
<g>
	<rect x="613.8" y="288.9" fill="#FFFFFF" width="4.5" height="4.5"/>
	<path fill="#F2F2F2" d="M619.7,294.8h-7.4v-7.4h7.4V294.8z M615.2,292h1.7v-1.7h-1.7V292z"/>
</g>
<g>
	<rect x="597.7" y="288.9" fill="#FFFFFF" width="4.5" height="4.5"/>
	<path fill="#F2F2F2" d="M603.7,294.8h-7.4v-7.4h7.4V294.8z M599.1,292h1.7v-1.7h-1.7V292z"/>
</g>
<g>
	<rect x="581.6" y="288.9" fill="#FFFFFF" width="4.5" height="4.5"/>
	<path fill="#F2F2F2" d="M587.6,294.8h-7.4v-7.4h7.4V294.8z M583.1,292h1.7v-1.7h-1.7V292z"/>
</g>
<g>
	<rect x="565.6" y="288.9" fill="#FFFFFF" width="4.5" height="4.5"/>
	<path fill="#F2F2F2" d="M571.5,294.8h-7.4v-7.4h7.4V294.8z M567,292h1.7v-1.7H567V292z"/>
</g>
<g>
	<rect x="549.5" y="288.9" fill="#FFFFFF" width="4.5" height="4.5"/>
	<path fill="#F2F2F2" d="M555.4,294.8H548v-7.4h7.4V294.8z M550.9,292h1.7v-1.7h-1.7V292z"/>
</g>
<g>
	<rect x="533.4" y="288.9" fill="#FFFFFF" width="4.5" height="4.5"/>
	<path fill="#F2F2F2" d="M539.4,294.8H532v-7.4h7.4V294.8z M534.8,292h1.7v-1.7h-1.7V292L534.8,292z"/>
</g>
<g>
	<rect x="517.3" y="288.9" fill="#FFFFFF" width="4.5" height="4.5"/>
	<path fill="#F2F2F2" d="M523.3,294.8h-7.4v-7.4h7.4V294.8z M518.8,292h1.7v-1.7h-1.7V292z"/>
</g>
<g>
	<rect x="501.3" y="288.9" fill="#FFFFFF" width="4.5" height="4.5"/>
	<path fill="#F2F2F2" d="M507.2,294.8h-7.4v-7.4h7.4V294.8z M502.7,292h1.7v-1.7h-1.7V292z"/>
</g>
<g>
	<rect x="485.2" y="288.9" fill="#FFFFFF" width="4.5" height="4.5"/>
	<path fill="#F2F2F2" d="M491.1,294.8h-7.4v-7.4h7.4V294.8z M486.6,292h1.7v-1.7h-1.7V292z"/>
</g>
<g>
	<rect x="469.1" y="288.9" fill="#FFFFFF" width="4.5" height="4.5"/>
	<path fill="#F2F2F2" d="M475.1,294.8h-7.4v-7.4h7.4V294.8z M470.5,292h1.7v-1.7h-1.7V292z"/>
</g>
<g>
	<rect x="453" y="288.9" fill="#FFFFFF" width="4.5" height="4.5"/>
	<path fill="#F2F2F2" d="M459,294.8h-7.4v-7.4h7.4V294.8z M454.5,292h1.7v-1.7h-1.7V292z"/>
</g>
<g>
	<rect x="437" y="288.9" fill="#FFFFFF" width="4.5" height="4.5"/>
	<path fill="#F2F2F2" d="M442.9,294.8h-7.4v-7.4h7.4V294.8z M438.4,292h1.7v-1.7h-1.7V292z"/>
</g>
<g>
	<rect x="420.9" y="288.9" fill="#FFFFFF" width="4.5" height="4.5"/>
	<path fill="#F2F2F2" d="M426.8,294.8h-7.3v-7.4h7.4v7.4H426.8z M422.3,292h1.7v-1.7h-1.7V292z"/>
</g>
<g>
	<rect x="404.8" y="288.9" fill="#FFFFFF" width="4.5" height="4.5"/>
	<path fill="#F2F2F2" d="M410.8,294.8h-7.4v-7.4h7.4V294.8z M406.2,292h1.7v-1.7h-1.7V292z"/>
</g>
<g>
	<rect x="388.7" y="288.9" fill="#FFFFFF" width="4.5" height="4.5"/>
	<path fill="#F2F2F2" d="M394.7,294.8h-7.4v-7.4h7.4V294.8z M390.2,292h1.7v-1.7h-1.7V292z"/>
</g>
<g>
	<rect x="372.7" y="288.9" fill="#FFFFFF" width="4.5" height="4.5"/>
	<path fill="#F2F2F2" d="M378.6,294.8h-7.4v-7.4h7.4V294.8z M374.1,292h1.7v-1.7h-1.7V292z"/>
</g>
<g>
	<rect x="356.6" y="288.9" fill="#FFFFFF" width="4.5" height="9.6"/>
	<path fill="#F2F2F2" d="M362.5,299.9h-7.4v-12.5h7.4V299.9z M358,297.1h1.7v-6.8H358V297.1z"/>
</g>
<g>
	<rect x="629.9" y="288.9" fill="#FFFFFF" width="4.5" height="9.6"/>
	<path fill="#F2F2F2" d="M635.8,299.9h-7.4v-12.5h7.4V299.9z M631.3,297.1h1.7v-6.8h-1.7V297.1z"/>
</g>
<g>
	<line fill="none" x1="618.6" y1="227.1" x2="618.6" y2="259.6"/>
	<rect x="617.2" y="227.1" fill="#F2F2F2" width="2.9" height="32.5"/>
</g>
<g>
	<line fill="none" x1="613.8" y1="227.1" x2="613.8" y2="259.6"/>
	<rect x="612.4" y="227.1" fill="#F2F2F2" width="2.9" height="32.5"/>
</g>
<g>
	<line fill="none" x1="609.1" y1="227.1" x2="609.1" y2="259.6"/>
	<rect x="607.7" y="227.1" fill="#F2F2F2" width="2.9" height="32.5"/>
</g>
<g>
	<line fill="none" x1="604.3" y1="227.1" x2="604.3" y2="259.6"/>
	<rect x="602.9" y="227.1" fill="#F2F2F2" width="2.9" height="32.5"/>
</g>
<g>
	<line fill="none" x1="599.6" y1="227.1" x2="599.6" y2="259.6"/>
	<rect x="598.2" y="227.1" fill="#F2F2F2" width="2.9" height="32.5"/>
</g>
<g>
	<line fill="none" x1="594.8" y1="227.1" x2="594.8" y2="259.6"/>
	<rect x="593.4" y="227.1" fill="#F2F2F2" width="2.9" height="32.5"/>
</g>
<g>
	<line fill="none" x1="590.1" y1="227.1" x2="590.1" y2="259.6"/>
	<rect x="588.7" y="227.1" fill="#F2F2F2" width="2.9" height="32.5"/>
</g>
<g>
	<line fill="none" x1="585.3" y1="227.1" x2="585.3" y2="259.6"/>
	<rect x="583.9" y="227.1" fill="#F2F2F2" width="2.9" height="32.5"/>
</g>
<g>
	<line fill="none" x1="580.6" y1="227.1" x2="580.6" y2="259.6"/>
	<rect x="579.2" y="227.1" fill="#F2F2F2" width="2.9" height="32.5"/>
</g>
<g>
	<line fill="none" x1="575.8" y1="227.1" x2="575.8" y2="259.6"/>
	<rect x="574.4" y="227.1" fill="#F2F2F2" width="2.9" height="32.5"/>
</g>
<g>
	<line fill="none" x1="571.1" y1="227.1" x2="571.1" y2="259.6"/>
	<rect x="569.7" y="227.1" fill="#F2F2F2" width="2.9" height="32.5"/>
</g>
<g>
	<rect x="378.6" y="229.7" fill="#FFFFFF" width="47.5" height="27.3"/>
	<path fill="#F2F2F2" d="M427.6,258.4h-50.4v-30.1h50.4V258.4L427.6,258.4z M380.1,255.6h44.6v-24.4h-44.6
		C380.1,231.2,380.1,255.6,380.1,255.6z"/>
</g>
<g>
	<line fill="none" x1="426.1" y1="227.1" x2="426.1" y2="259.6"/>
	<rect x="424.7" y="227.1" fill="#F2F2F2" width="2.9" height="32.5"/>
</g>
<g>
	<line fill="none" x1="421.4" y1="227.1" x2="421.4" y2="259.6"/>
	<rect x="420" y="227.1" fill="#F2F2F2" width="2.9" height="32.5"/>
</g>
<g>
	<line fill="none" x1="416.6" y1="227.1" x2="416.6" y2="259.6"/>
	<rect x="415.2" y="227.1" fill="#F2F2F2" width="2.9" height="32.5"/>
</g>
<g>
	<line fill="none" x1="407.1" y1="227.1" x2="407.1" y2="259.6"/>
	<rect x="405.7" y="227.1" fill="#F2F2F2" width="2.9" height="32.5"/>
</g>
<g>
	<line fill="none" x1="402.4" y1="227.1" x2="402.4" y2="259.6"/>
	<rect x="401" y="227.1" fill="#F2F2F2" width="2.9" height="32.5"/>
</g>
<g>
	<line fill="none" x1="397.6" y1="227.1" x2="397.6" y2="259.6"/>
	<rect x="396.2" y="227.1" fill="#F2F2F2" width="2.9" height="32.5"/>
</g>
<g>
	<line fill="none" x1="388.1" y1="227.1" x2="388.1" y2="259.6"/>
	<rect x="386.7" y="227.1" fill="#F2F2F2" width="2.9" height="32.5"/>
</g>
<g>
	<line fill="none" x1="383.4" y1="227.1" x2="383.4" y2="259.6"/>
	<rect x="382" y="227.1" fill="#F2F2F2" width="2.9" height="32.5"/>
</g>
<g>
	<line fill="none" x1="378.6" y1="227.1" x2="378.6" y2="259.6"/>
	<rect x="377.2" y="227.1" fill="#F2F2F2" width="2.9" height="32.5"/>
</g>
<g>
	<rect x="527.8" y="229.7" fill="#FFFFFF" width="38" height="27.3"/>
	<path fill="#F2F2F2" d="M567.2,258.4h-40.9v-30.1h40.9V258.4z M529.2,255.6h35.1v-24.4h-35.1L529.2,255.6L529.2,255.6z"/>
</g>
<g>
	<line fill="none" x1="565.8" y1="227.1" x2="565.8" y2="259.6"/>
	<rect x="564.4" y="227.1" fill="#F2F2F2" width="2.9" height="32.5"/>
</g>
<g>
	<line fill="none" x1="561.1" y1="227.1" x2="561.1" y2="259.6"/>
	<rect x="559.6" y="227.1" fill="#F2F2F2" width="2.9" height="32.5"/>
</g>
<g>
	<line fill="none" x1="556.3" y1="227.1" x2="556.3" y2="259.6"/>
	<rect x="554.9" y="227.1" fill="#F2F2F2" width="2.9" height="32.5"/>
</g>
<g>
	<line fill="none" x1="551.6" y1="227.1" x2="551.6" y2="259.6"/>
	<rect x="550.1" y="227.1" fill="#F2F2F2" width="2.9" height="32.5"/>
</g>
<g>
	<line fill="none" x1="546.8" y1="227.1" x2="546.8" y2="259.6"/>
	<rect x="545.4" y="227.1" fill="#F2F2F2" width="2.9" height="32.5"/>
</g>
<g>
	<line fill="none" x1="542.1" y1="227.1" x2="542.1" y2="259.6"/>
	<rect x="540.6" y="227.1" fill="#F2F2F2" width="2.9" height="32.5"/>
</g>
<g>
	<line fill="none" x1="537.3" y1="227.1" x2="537.3" y2="259.6"/>
	<rect x="535.9" y="227.1" fill="#F2F2F2" width="2.9" height="32.5"/>
</g>
<g>
	<line fill="none" x1="532.6" y1="227.1" x2="532.6" y2="259.6"/>
	<rect x="531.1" y="227.1" fill="#F2F2F2" width="2.9" height="32.5"/>
</g>
<g>
	<line fill="none" x1="527.8" y1="227.1" x2="527.8" y2="259.6"/>
	<rect x="526.4" y="227.1" fill="#F2F2F2" width="2.9" height="32.5"/>
</g>
<path fill="#FFFFFF" stroke="#231815" stroke-width="4.0565" stroke-miterlimit="10" d="M523.1,243.4"/>
<path fill="#FFFFFF" stroke="#231815" stroke-width="4.0565" stroke-miterlimit="10" d="M523.1,243.4"/>
<path fill="#FFFFFF" stroke="#231815" stroke-width="4.0565" stroke-miterlimit="10" d="M518.3,243.4"/>
<path fill="#FFFFFF" stroke="#231815" stroke-width="4.0565" stroke-miterlimit="10" d="M518.3,243.4"/>
<path fill="#FFFFFF" stroke="#231815" stroke-width="4.0565" stroke-miterlimit="10" d="M443.7,210.7"/>
<g>
	<path fill="#FFFFFF" d="M649.8,205.7c0,0,0,6.6-6.6,6.6c-6.6,0-6.6-6.6-6.6-6.6"/>
	<path fill="#F2F2F2" d="M643.2,213.7c-6.3,0-8-5.2-8-8h2.9c0,0.5,0.2,5.1,5.1,5.1c5,0,5.1-4.6,5.1-5.1h2.9
		C651.2,208.4,649.5,213.7,643.2,213.7z"/>
</g>
<g>
	<path fill="#FFFFFF" d="M354.5,205.7c0,0,0,6.6-6.6,6.6s-6.6-6.6-6.6-6.6"/>
	<path fill="#F2F2F2" d="M347.9,213.7c-6.3,0-8-5.2-8-8h2.9c0,0.5,0.2,5.1,5.1,5.1c5,0,5.1-4.6,5.1-5.1h2.9
		C355.9,208.4,354.2,213.7,347.9,213.7z"/>
</g>
<g>
	<path fill="#FFFFFF" d="M630.1,205.7c0,0,0,6.6-6.6,6.6c-6.6,0-6.6-6.6-6.6-6.6"/>
	<path fill="#F2F2F2" d="M623.5,213.7c-6.3,0-8-5.2-8-8h2.9c0,0.5,0.2,5.1,5.1,5.1c5,0,5.1-4.6,5.1-5.1h2.9
		C631.5,208.4,629.8,213.7,623.5,213.7z"/>
</g>
<g>
	<path fill="#FFFFFF" d="M610.4,205.7c0,0,0,6.6-6.6,6.6c-6.6,0-6.6-6.6-6.6-6.6"/>
	<path fill="#F2F2F2" d="M603.8,213.7c-6.3,0-8-5.2-8-8h2.9c0,0.5,0.2,5.1,5.1,5.1c5,0,5.1-4.6,5.1-5.1h2.9
		C611.8,208.4,610.1,213.7,603.8,213.7z"/>
</g>
<g>
	<path fill="#FFFFFF" d="M590.7,205.7c0,0,0,6.6-6.6,6.6c-6.6,0-6.6-6.6-6.6-6.6"/>
	<path fill="#F2F2F2" d="M584.1,213.7c-6.3,0-8-5.2-8-8h2.9c0,0.5,0.2,5.1,5.1,5.1c5,0,5.1-4.6,5.1-5.1h2.9
		C592.1,208.4,590.5,213.7,584.1,213.7z"/>
</g>
<g>
	<path fill="#FFFFFF" d="M571,205.7c0,0,0,6.6-6.6,6.6c-6.6,0-6.6-6.6-6.6-6.6"/>
	<path fill="#F2F2F2" d="M564.5,213.7c-6.3,0-8-5.2-8-8h2.9c0,0.5,0.2,5.1,5.1,5.1c5,0,5.1-4.6,5.1-5.1h2.9
		C572.4,208.4,570.8,213.7,564.5,213.7z"/>
</g>
<g>
	<path fill="#FFFFFF" d="M551.3,205.7c0,0,0,6.6-6.6,6.6c-6.6,0-6.6-6.6-6.6-6.6"/>
	<path fill="#F2F2F2" d="M544.8,213.7c-6.3,0-8-5.2-8-8h2.9c0,0.5,0.2,5.1,5.1,5.1c5,0,5.1-4.6,5.1-5.1h2.9
		C552.8,208.4,551.1,213.7,544.8,213.7z"/>
</g>
<g>
	<path fill="#FFFFFF" d="M531.6,205.7c0,0,0,6.6-6.6,6.6c-6.6,0-6.6-6.6-6.6-6.6"/>
	<path fill="#F2F2F2" d="M525.1,213.7c-6.3,0-8-5.2-8-8h2.9c0,0.5,0.2,5.1,5.1,5.1c5,0,5.1-4.6,5.1-5.1h2.9
		C533.1,208.4,531.4,213.7,525.1,213.7z"/>
</g>
<g>
	<path fill="#FFFFFF" d="M512,205.7c0,0,0,6.6-6.6,6.6s-6.6-6.6-6.6-6.6"/>
	<path fill="#F2F2F2" d="M505.4,213.7c-6.3,0-8-5.2-8-8h2.9c0,0.5,0.2,5.1,5.1,5.1c4.9,0,5.1-4.6,5.1-5.1h2.9
		C513.4,208.4,511.7,213.7,505.4,213.7z"/>
</g>
<g>
	<path fill="#FFFFFF" d="M492.3,205.7c0,0,0,6.6-6.6,6.6s-6.6-6.6-6.6-6.6"/>
	<path fill="#F2F2F2" d="M485.7,213.7c-6.3,0-8-5.2-8-8h2.9c0,0.5,0.2,5.1,5.1,5.1c5,0,5.1-4.6,5.1-5.1h2.9
		C493.7,208.4,492,213.7,485.7,213.7z"/>
</g>
<g>
	<path fill="#FFFFFF" d="M472.6,205.7c0,0,0,6.6-6.6,6.6s-6.6-6.6-6.6-6.6"/>
	<path fill="#F2F2F2" d="M466,213.7c-6.3,0-8-5.2-8-8h2.9c0,0.5,0.2,5.1,5.1,5.1c5,0,5.1-4.6,5.1-5.1h2.9
		C474,208.4,472.3,213.7,466,213.7z"/>
</g>
<g>
	<path fill="#FFFFFF" d="M452.9,205.7c0,0,0,6.6-6.6,6.6s-6.6-6.6-6.6-6.6"/>
	<path fill="#F2F2F2" d="M446.3,213.7c-6.3,0-8-5.2-8-8h2.9c0,0.5,0.2,5.1,5.1,5.1c5,0,5.1-4.6,5.1-5.1h2.9
		C454.3,208.4,452.7,213.7,446.3,213.7z"/>
</g>
<g>
	<path fill="#FFFFFF" d="M433.2,205.7c0,0,0,6.6-6.6,6.6s-6.6-6.6-6.6-6.6"/>
	<path fill="#F2F2F2" d="M426.7,213.7c-6.3,0-8-5.2-8-8h2.9c0,0.5,0.2,5.1,5.1,5.1s5.1-4.6,5.1-5.1h2.9
		C434.6,208.4,433,213.7,426.7,213.7z"/>
</g>
<g>
	<path fill="#FFFFFF" d="M413.5,205.7c0,0,0,6.6-6.6,6.6s-6.6-6.6-6.6-6.6"/>
	<path fill="#F2F2F2" d="M407,213.7c-6.3,0-8-5.2-8-8h2.9c0,0.5,0.2,5.1,5.1,5.1c5,0,5.1-4.6,5.1-5.1h2.9
		C415,208.4,413.3,213.7,407,213.7z"/>
</g>
<g>
	<path fill="#FFFFFF" d="M393.8,205.7c0,0,0,6.6-6.6,6.6c-6.6,0-6.6-6.6-6.6-6.6"/>
	<path fill="#F2F2F2" d="M387.3,213.7c-6.3,0-8-5.2-8-8h2.9c0,0.5,0.2,5.1,5.1,5.1c5,0,5.1-4.6,5.1-5.1h2.9
		C395.3,208.4,393.6,213.7,387.3,213.7z"/>
</g>
<g>
	<path fill="#FFFFFF" d="M374.2,205.7c0,0,0,6.6-6.6,6.6c-6.6,0-6.6-6.6-6.6-6.6"/>
	<path fill="#F2F2F2" d="M367.6,213.7c-6.3,0-8-5.2-8-8h2.9c0,0.5,0.2,5.1,5.1,5.1c5,0,5.1-4.6,5.1-5.1h2.9
		C375.6,208.4,373.9,213.7,367.6,213.7z"/>
</g>
<g>
	<path fill="#FFFFFF" d="M649.8,197.2c0,0,0,6.6-6.6,6.6c-6.6,0-6.6-6.6-6.6-6.6"/>
	<path fill="#F2F2F2" d="M643.2,205.2c-6.3,0-8-5.2-8-8h2.9c0,0.5,0.2,5.1,5.1,5.1c5,0,5.1-4.6,5.1-5.1h2.9
		C651.2,200,649.5,205.2,643.2,205.2z"/>
</g>
<g>
	<path fill="#FFFFFF" d="M354.5,197.2c0,0,0,6.6-6.6,6.6s-6.6-6.6-6.6-6.6"/>
	<path fill="#F2F2F2" d="M347.9,205.2c-6.3,0-8-5.2-8-8h2.9c0,0.5,0.2,5.1,5.1,5.1c5,0,5.1-4.6,5.1-5.1h2.9
		C355.9,200,354.2,205.2,347.9,205.2z"/>
</g>
<g>
	<path fill="#FFFFFF" d="M630.1,197.2c0,0,0,6.6-6.6,6.6c-6.6,0-6.6-6.6-6.6-6.6"/>
	<path fill="#F2F2F2" d="M623.5,205.2c-6.3,0-8-5.2-8-8h2.9c0,0.5,0.2,5.1,5.1,5.1c5,0,5.1-4.6,5.1-5.1h2.9
		C631.5,200,629.8,205.2,623.5,205.2z"/>
</g>
<g>
	<path fill="#FFFFFF" d="M610.4,197.2c0,0,0,6.6-6.6,6.6c-6.6,0-6.6-6.6-6.6-6.6"/>
	<path fill="#F2F2F2" d="M603.8,205.2c-6.3,0-8-5.2-8-8h2.9c0,0.5,0.2,5.1,5.1,5.1c5,0,5.1-4.6,5.1-5.1h2.9
		C611.8,200,610.1,205.2,603.8,205.2z"/>
</g>
<g>
	<path fill="#FFFFFF" d="M590.7,197.2c0,0,0,6.6-6.6,6.6c-6.6,0-6.6-6.6-6.6-6.6"/>
	<path fill="#F2F2F2" d="M584.1,205.2c-6.3,0-8-5.2-8-8h2.9c0,0.5,0.2,5.1,5.1,5.1c5,0,5.1-4.6,5.1-5.1h2.9
		C592.1,200,590.5,205.2,584.1,205.2z"/>
</g>
<g>
	<path fill="#FFFFFF" d="M571,197.2c0,0,0,6.6-6.6,6.6c-6.6,0-6.6-6.6-6.6-6.6"/>
	<path fill="#F2F2F2" d="M564.5,205.2c-6.3,0-8-5.2-8-8h2.9c0,0.5,0.2,5.1,5.1,5.1c5,0,5.1-4.6,5.1-5.1h2.9
		C572.4,200,570.8,205.2,564.5,205.2z"/>
</g>
<g>
	<path fill="#FFFFFF" d="M551.3,197.2c0,0,0,6.6-6.6,6.6c-6.6,0-6.6-6.6-6.6-6.6"/>
	<path fill="#F2F2F2" d="M544.8,205.2c-6.3,0-8-5.2-8-8h2.9c0,0.5,0.2,5.1,5.1,5.1c5,0,5.1-4.6,5.1-5.1h2.9
		C552.8,200,551.1,205.2,544.8,205.2z"/>
</g>
<g>
	<path fill="#FFFFFF" d="M531.6,197.2c0,0,0,6.6-6.6,6.6c-6.6,0-6.6-6.6-6.6-6.6"/>
	<path fill="#F2F2F2" d="M525.1,205.2c-6.3,0-8-5.2-8-8h2.9c0,0.5,0.2,5.1,5.1,5.1c5,0,5.1-4.6,5.1-5.1h2.9
		C533.1,200,531.4,205.2,525.1,205.2z"/>
</g>
<g>
	<path fill="#FFFFFF" d="M512,197.2c0,0,0,6.6-6.6,6.6s-6.6-6.6-6.6-6.6"/>
	<path fill="#F2F2F2" d="M505.4,205.2c-6.3,0-8-5.2-8-8h2.9c0,0.5,0.2,5.1,5.1,5.1c4.9,0,5.1-4.6,5.1-5.1h2.9
		C513.4,200,511.7,205.2,505.4,205.2z"/>
</g>
<g>
	<path fill="#FFFFFF" d="M492.3,197.2c0,0,0,6.6-6.6,6.6s-6.6-6.6-6.6-6.6"/>
	<path fill="#F2F2F2" d="M485.7,205.2c-6.3,0-8-5.2-8-8h2.9c0,0.5,0.2,5.1,5.1,5.1c5,0,5.1-4.6,5.1-5.1h2.9
		C493.7,200,492,205.2,485.7,205.2z"/>
</g>
<g>
	<path fill="#FFFFFF" d="M472.6,197.2c0,0,0,6.6-6.6,6.6s-6.6-6.6-6.6-6.6"/>
	<path fill="#F2F2F2" d="M466,205.2c-6.3,0-8-5.2-8-8h2.9c0,0.5,0.2,5.1,5.1,5.1c5,0,5.1-4.6,5.1-5.1h2.9
		C474,200,472.3,205.2,466,205.2z"/>
</g>
<g>
	<path fill="#FFFFFF" d="M452.9,197.2c0,0,0,6.6-6.6,6.6s-6.6-6.6-6.6-6.6"/>
	<path fill="#F2F2F2" d="M446.3,205.2c-6.3,0-8-5.2-8-8h2.9c0,0.5,0.2,5.1,5.1,5.1c5,0,5.1-4.6,5.1-5.1h2.9
		C454.3,200,452.7,205.2,446.3,205.2z"/>
</g>
<g>
	<path fill="#FFFFFF" d="M433.2,197.2c0,0,0,6.6-6.6,6.6s-6.6-6.6-6.6-6.6"/>
	<path fill="#F2F2F2" d="M426.7,205.2c-6.3,0-8-5.2-8-8h2.9c0,0.5,0.2,5.1,5.1,5.1s5.1-4.6,5.1-5.1h2.9
		C434.6,200,433,205.2,426.7,205.2z"/>
</g>
<g>
	<path fill="#FFFFFF" d="M413.5,197.2c0,0,0,6.6-6.6,6.6s-6.6-6.6-6.6-6.6"/>
	<path fill="#F2F2F2" d="M407,205.2c-6.3,0-8-5.2-8-8h2.9c0,0.5,0.2,5.1,5.1,5.1c5,0,5.1-4.6,5.1-5.1h2.9
		C415,200,413.3,205.2,407,205.2z"/>
</g>
<g>
	<path fill="#FFFFFF" d="M393.8,197.2c0,0,0,6.6-6.6,6.6c-6.6,0-6.6-6.6-6.6-6.6"/>
	<path fill="#F2F2F2" d="M387.3,205.2c-6.3,0-8-5.2-8-8h2.9c0,0.5,0.2,5.1,5.1,5.1c5,0,5.1-4.6,5.1-5.1h2.9
		C395.3,200,393.6,205.2,387.3,205.2z"/>
</g>
<g>
	<path fill="#FFFFFF" d="M374.2,197.2c0,0,0,6.6-6.6,6.6c-6.6,0-6.6-6.6-6.6-6.6"/>
	<path fill="#F2F2F2" d="M367.6,205.2c-6.3,0-8-5.2-8-8h2.9c0,0.5,0.2,5.1,5.1,5.1c5,0,5.1-4.6,5.1-5.1h2.9
		C375.6,200,373.9,205.2,367.6,205.2z"/>
</g>
<g>
	<path fill="#FFFFFF" d="M649.8,188.8c0,0,0,6.6-6.6,6.6c-6.6,0-6.6-6.6-6.6-6.6"/>
	<path fill="#F2F2F2" d="M643.2,196.8c-6.3,0-8-5.2-8-8h2.9c0,0.5,0.2,5.1,5.1,5.1c5,0,5.1-4.6,5.1-5.1h2.9
		C651.2,191.6,649.5,196.8,643.2,196.8z"/>
</g>
<g>
	<path fill="#FFFFFF" d="M354.5,188.8c0,0,0,6.6-6.6,6.6s-6.6-6.6-6.6-6.6"/>
	<path fill="#F2F2F2" d="M347.9,196.8c-6.3,0-8-5.2-8-8h2.9c0,0.5,0.2,5.1,5.1,5.1c5,0,5.1-4.6,5.1-5.1h2.9
		C355.9,191.6,354.2,196.8,347.9,196.8z"/>
</g>
<g>
	<path fill="#FFFFFF" d="M630.1,188.8c0,0,0,6.6-6.6,6.6c-6.6,0-6.6-6.6-6.6-6.6"/>
	<path fill="#F2F2F2" d="M623.5,196.8c-6.3,0-8-5.2-8-8h2.9c0,0.5,0.2,5.1,5.1,5.1c5,0,5.1-4.6,5.1-5.1h2.9
		C631.5,191.6,629.8,196.8,623.5,196.8z"/>
</g>
<g>
	<path fill="#FFFFFF" d="M610.4,188.8c0,0,0,6.6-6.6,6.6c-6.6,0-6.6-6.6-6.6-6.6"/>
	<path fill="#F2F2F2" d="M603.8,196.8c-6.3,0-8-5.2-8-8h2.9c0,0.5,0.2,5.1,5.1,5.1c5,0,5.1-4.6,5.1-5.1h2.9
		C611.8,191.6,610.1,196.8,603.8,196.8z"/>
</g>
<g>
	<path fill="#FFFFFF" d="M590.7,188.8c0,0,0,6.6-6.6,6.6c-6.6,0-6.6-6.6-6.6-6.6"/>
	<path fill="#F2F2F2" d="M584.1,196.8c-6.3,0-8-5.2-8-8h2.9c0,0.5,0.2,5.1,5.1,5.1c5,0,5.1-4.6,5.1-5.1h2.9
		C592.1,191.6,590.5,196.8,584.1,196.8z"/>
</g>
<g>
	<path fill="#FFFFFF" d="M571,188.8c0,0,0,6.6-6.6,6.6c-6.6,0-6.6-6.6-6.6-6.6"/>
	<path fill="#F2F2F2" d="M564.5,196.8c-6.3,0-8-5.2-8-8h2.9c0,0.5,0.2,5.1,5.1,5.1c5,0,5.1-4.6,5.1-5.1h2.9
		C572.4,191.6,570.8,196.8,564.5,196.8z"/>
</g>
<g>
	<path fill="#FFFFFF" d="M551.3,188.8c0,0,0,6.6-6.6,6.6c-6.6,0-6.6-6.6-6.6-6.6"/>
	<path fill="#F2F2F2" d="M544.8,196.8c-6.3,0-8-5.2-8-8h2.9c0,0.5,0.2,5.1,5.1,5.1c5,0,5.1-4.6,5.1-5.1h2.9
		C552.8,191.6,551.1,196.8,544.8,196.8z"/>
</g>
<g>
	<path fill="#FFFFFF" d="M531.6,188.8c0,0,0,6.6-6.6,6.6c-6.6,0-6.6-6.6-6.6-6.6"/>
	<path fill="#F2F2F2" d="M525.1,196.8c-6.3,0-8-5.2-8-8h2.9c0,0.5,0.2,5.1,5.1,5.1c5,0,5.1-4.6,5.1-5.1h2.9
		C533.1,191.6,531.4,196.8,525.1,196.8z"/>
</g>
<g>
	<path fill="#FFFFFF" d="M512,188.8c0,0,0,6.6-6.6,6.6s-6.6-6.6-6.6-6.6"/>
	<path fill="#F2F2F2" d="M505.4,196.8c-6.3,0-8-5.2-8-8h2.9c0,0.5,0.2,5.1,5.1,5.1c4.9,0,5.1-4.6,5.1-5.1h2.9
		C513.4,191.6,511.7,196.8,505.4,196.8z"/>
</g>
<g>
	<path fill="#FFFFFF" d="M492.3,188.8c0,0,0,6.6-6.6,6.6s-6.6-6.6-6.6-6.6"/>
	<path fill="#F2F2F2" d="M485.7,196.8c-6.3,0-8-5.2-8-8h2.9c0,0.5,0.2,5.1,5.1,5.1c5,0,5.1-4.6,5.1-5.1h2.9
		C493.7,191.6,492,196.8,485.7,196.8z"/>
</g>
<g>
	<path fill="#FFFFFF" d="M472.6,188.8c0,0,0,6.6-6.6,6.6s-6.6-6.6-6.6-6.6"/>
	<path fill="#F2F2F2" d="M466,196.8c-6.3,0-8-5.2-8-8h2.9c0,0.5,0.2,5.1,5.1,5.1c5,0,5.1-4.6,5.1-5.1h2.9
		C474,191.6,472.3,196.8,466,196.8z"/>
</g>
<g>
	<path fill="#FFFFFF" d="M452.9,188.8c0,0,0,6.6-6.6,6.6s-6.6-6.6-6.6-6.6"/>
	<path fill="#F2F2F2" d="M446.3,196.8c-6.3,0-8-5.2-8-8h2.9c0,0.5,0.2,5.1,5.1,5.1c5,0,5.1-4.6,5.1-5.1h2.9
		C454.3,191.6,452.7,196.8,446.3,196.8z"/>
</g>
<g>
	<path fill="#FFFFFF" d="M433.2,188.8c0,0,0,6.6-6.6,6.6s-6.6-6.6-6.6-6.6"/>
	<path fill="#F2F2F2" d="M426.7,196.8c-6.3,0-8-5.2-8-8h2.9c0,0.5,0.2,5.1,5.1,5.1s5.1-4.6,5.1-5.1h2.9
		C434.6,191.6,433,196.8,426.7,196.8z"/>
</g>
<g>
	<path fill="#FFFFFF" d="M413.5,188.8c0,0,0,6.6-6.6,6.6s-6.6-6.6-6.6-6.6"/>
	<path fill="#F2F2F2" d="M407,196.8c-6.3,0-8-5.2-8-8h2.9c0,0.5,0.2,5.1,5.1,5.1c5,0,5.1-4.6,5.1-5.1h2.9
		C415,191.6,413.3,196.8,407,196.8z"/>
</g>
<g>
	<path fill="#FFFFFF" d="M393.8,188.8c0,0,0,6.6-6.6,6.6c-6.6,0-6.6-6.6-6.6-6.6"/>
	<path fill="#F2F2F2" d="M387.3,196.8c-6.3,0-8-5.2-8-8h2.9c0,0.5,0.2,5.1,5.1,5.1c5,0,5.1-4.6,5.1-5.1h2.9
		C395.3,191.6,393.6,196.8,387.3,196.8z"/>
</g>
<g>
	<path fill="#FFFFFF" d="M374.2,188.8c0,0,0,6.6-6.6,6.6c-6.6,0-6.6-6.6-6.6-6.6"/>
	<path fill="#F2F2F2" d="M367.6,196.8c-6.3,0-8-5.2-8-8h2.9c0,0.5,0.2,5.1,5.1,5.1c5,0,5.1-4.6,5.1-5.1h2.9
		C375.6,191.6,373.9,196.8,367.6,196.8z"/>
</g>
<g>
	<path fill="#FFFFFF" d="M649.8,180.4c0,0,0,6.6-6.6,6.6c-6.6,0-6.6-6.6-6.6-6.6"/>
	<path fill="#F2F2F2" d="M643.2,188.4c-6.3,0-8-5.2-8-8h2.9c0,0.5,0.2,5.1,5.1,5.1c5,0,5.1-4.6,5.1-5.1h2.9
		C651.2,183.1,649.5,188.4,643.2,188.4z"/>
</g>
<g>
	<path fill="#FFFFFF" d="M354.5,180.4c0,0,0,6.6-6.6,6.6s-6.6-6.6-6.6-6.6"/>
	<path fill="#F2F2F2" d="M347.9,188.4c-6.3,0-8-5.2-8-8h2.9c0,0.5,0.2,5.1,5.1,5.1c5,0,5.1-4.6,5.1-5.1h2.9
		C355.9,183.1,354.2,188.4,347.9,188.4z"/>
</g>
<g>
	<path fill="#FFFFFF" d="M630.1,180.4c0,0,0,6.6-6.6,6.6c-6.6,0-6.6-6.6-6.6-6.6"/>
	<path fill="#F2F2F2" d="M623.5,188.4c-6.3,0-8-5.2-8-8h2.9c0,0.5,0.2,5.1,5.1,5.1c5,0,5.1-4.6,5.1-5.1h2.9
		C631.5,183.1,629.8,188.4,623.5,188.4z"/>
</g>
<g>
	<path fill="#FFFFFF" d="M610.4,180.4c0,0,0,6.6-6.6,6.6c-6.6,0-6.6-6.6-6.6-6.6"/>
	<path fill="#F2F2F2" d="M603.8,188.4c-6.3,0-8-5.2-8-8h2.9c0,0.5,0.2,5.1,5.1,5.1c5,0,5.1-4.6,5.1-5.1h2.9
		C611.8,183.1,610.1,188.4,603.8,188.4z"/>
</g>
<g>
	<path fill="#FFFFFF" d="M590.7,180.4c0,0,0,6.6-6.6,6.6c-6.6,0-6.6-6.6-6.6-6.6"/>
	<path fill="#F2F2F2" d="M584.1,188.4c-6.3,0-8-5.2-8-8h2.9c0,0.5,0.2,5.1,5.1,5.1c5,0,5.1-4.6,5.1-5.1h2.9
		C592.1,183.1,590.5,188.4,584.1,188.4z"/>
</g>
<g>
	<path fill="#FFFFFF" d="M571,180.4c0,0,0,6.6-6.6,6.6c-6.6,0-6.6-6.6-6.6-6.6"/>
	<path fill="#F2F2F2" d="M564.5,188.4c-6.3,0-8-5.2-8-8h2.9c0,0.5,0.2,5.1,5.1,5.1c5,0,5.1-4.6,5.1-5.1h2.9
		C572.4,183.1,570.8,188.4,564.5,188.4z"/>
</g>
<g>
	<path fill="#FFFFFF" d="M551.3,180.4c0,0,0,6.6-6.6,6.6c-6.6,0-6.6-6.6-6.6-6.6"/>
	<path fill="#F2F2F2" d="M544.8,188.4c-6.3,0-8-5.2-8-8h2.9c0,0.5,0.2,5.1,5.1,5.1c5,0,5.1-4.6,5.1-5.1h2.9
		C552.8,183.1,551.1,188.4,544.8,188.4z"/>
</g>
<g>
	<path fill="#FFFFFF" d="M531.6,180.4c0,0,0,6.6-6.6,6.6c-6.6,0-6.6-6.6-6.6-6.6"/>
	<path fill="#F2F2F2" d="M525.1,188.4c-6.3,0-8-5.2-8-8h2.9c0,0.5,0.2,5.1,5.1,5.1c5,0,5.1-4.6,5.1-5.1h2.9
		C533.1,183.1,531.4,188.4,525.1,188.4z"/>
</g>
<g>
	<path fill="#FFFFFF" d="M512,180.4c0,0,0,6.6-6.6,6.6s-6.6-6.6-6.6-6.6"/>
	<path fill="#F2F2F2" d="M505.4,188.4c-6.3,0-8-5.2-8-8h2.9c0,0.5,0.2,5.1,5.1,5.1c4.9,0,5.1-4.6,5.1-5.1h2.9
		C513.4,183.1,511.7,188.4,505.4,188.4z"/>
</g>
<g>
	<path fill="#FFFFFF" d="M492.3,180.4c0,0,0,6.6-6.6,6.6s-6.6-6.6-6.6-6.6"/>
	<path fill="#F2F2F2" d="M485.7,188.4c-6.3,0-8-5.2-8-8h2.9c0,0.5,0.2,5.1,5.1,5.1c5,0,5.1-4.6,5.1-5.1h2.9
		C493.7,183.1,492,188.4,485.7,188.4z"/>
</g>
<g>
	<path fill="#FFFFFF" d="M472.6,180.4c0,0,0,6.6-6.6,6.6s-6.6-6.6-6.6-6.6"/>
	<path fill="#F2F2F2" d="M466,188.4c-6.3,0-8-5.2-8-8h2.9c0,0.5,0.2,5.1,5.1,5.1c5,0,5.1-4.6,5.1-5.1h2.9
		C474,183.1,472.3,188.4,466,188.4z"/>
</g>
<g>
	<path fill="#FFFFFF" d="M452.9,180.4c0,0,0,6.6-6.6,6.6s-6.6-6.6-6.6-6.6"/>
	<path fill="#F2F2F2" d="M446.3,188.4c-6.3,0-8-5.2-8-8h2.9c0,0.5,0.2,5.1,5.1,5.1c5,0,5.1-4.6,5.1-5.1h2.9
		C454.3,183.1,452.7,188.4,446.3,188.4z"/>
</g>
<g>
	<path fill="#FFFFFF" d="M433.2,180.4c0,0,0,6.6-6.6,6.6s-6.6-6.6-6.6-6.6"/>
	<path fill="#F2F2F2" d="M426.7,188.4c-6.3,0-8-5.2-8-8h2.9c0,0.5,0.2,5.1,5.1,5.1s5.1-4.6,5.1-5.1h2.9
		C434.6,183.1,433,188.4,426.7,188.4z"/>
</g>
<g>
	<path fill="#FFFFFF" d="M413.5,180.4c0,0,0,6.6-6.6,6.6s-6.6-6.6-6.6-6.6"/>
	<path fill="#F2F2F2" d="M407,188.4c-6.3,0-8-5.2-8-8h2.9c0,0.5,0.2,5.1,5.1,5.1c5,0,5.1-4.6,5.1-5.1h2.9
		C415,183.1,413.3,188.4,407,188.4z"/>
</g>
<g>
	<path fill="#FFFFFF" d="M393.8,180.4c0,0,0,6.6-6.6,6.6c-6.6,0-6.6-6.6-6.6-6.6"/>
	<path fill="#F2F2F2" d="M387.3,188.4c-6.3,0-8-5.2-8-8h2.9c0,0.5,0.2,5.1,5.1,5.1c5,0,5.1-4.6,5.1-5.1h2.9
		C395.3,183.1,393.6,188.4,387.3,188.4z"/>
</g>
<g>
	<path fill="#FFFFFF" d="M374.2,180.4c0,0,0,6.6-6.6,6.6c-6.6,0-6.6-6.6-6.6-6.6"/>
	<path fill="#F2F2F2" d="M367.6,188.4c-6.3,0-8-5.2-8-8h2.9c0,0.5,0.2,5.1,5.1,5.1c5,0,5.1-4.6,5.1-5.1h2.9
		C375.6,183.1,373.9,188.4,367.6,188.4z"/>
</g>
<g>
	<path fill="#FFFFFF" d="M649.8,171.9c0,0,0,6.6-6.6,6.6c-6.6,0-6.6-6.6-6.6-6.6"/>
	<path fill="#F2F2F2" d="M643.2,179.9c-6.3,0-8-5.2-8-8h2.9c0,0.5,0.2,5.1,5.1,5.1c5,0,5.1-4.6,5.1-5.1h2.9
		C651.2,174.7,649.5,179.9,643.2,179.9z"/>
</g>
<g>
	<path fill="#FFFFFF" d="M354.5,171.9c0,0,0,6.6-6.6,6.6s-6.6-6.6-6.6-6.6"/>
	<path fill="#F2F2F2" d="M347.9,179.9c-6.3,0-8-5.2-8-8h2.9c0,0.5,0.2,5.1,5.1,5.1c5,0,5.1-4.6,5.1-5.1h2.9
		C355.9,174.7,354.2,179.9,347.9,179.9z"/>
</g>
<g>
	<path fill="#FFFFFF" d="M630.1,171.9c0,0,0,6.6-6.6,6.6c-6.6,0-6.6-6.6-6.6-6.6"/>
	<path fill="#F2F2F2" d="M623.5,179.9c-6.3,0-8-5.2-8-8h2.9c0,0.5,0.2,5.1,5.1,5.1c5,0,5.1-4.6,5.1-5.1h2.9
		C631.5,174.7,629.8,179.9,623.5,179.9z"/>
</g>
<g>
	<path fill="#FFFFFF" d="M610.4,171.9c0,0,0,6.6-6.6,6.6c-6.6,0-6.6-6.6-6.6-6.6"/>
	<path fill="#F2F2F2" d="M603.8,179.9c-6.3,0-8-5.2-8-8h2.9c0,0.5,0.2,5.1,5.1,5.1c5,0,5.1-4.6,5.1-5.1h2.9
		C611.8,174.7,610.1,179.9,603.8,179.9z"/>
</g>
<g>
	<path fill="#FFFFFF" d="M590.7,171.9c0,0,0,6.6-6.6,6.6c-6.6,0-6.6-6.6-6.6-6.6"/>
	<path fill="#F2F2F2" d="M584.1,179.9c-6.3,0-8-5.2-8-8h2.9c0,0.5,0.2,5.1,5.1,5.1c5,0,5.1-4.6,5.1-5.1h2.9
		C592.1,174.7,590.5,179.9,584.1,179.9z"/>
</g>
<g>
	<path fill="#FFFFFF" d="M571,171.9c0,0,0,6.6-6.6,6.6c-6.6,0-6.6-6.6-6.6-6.6"/>
	<path fill="#F2F2F2" d="M564.5,179.9c-6.3,0-8-5.2-8-8h2.9c0,0.5,0.2,5.1,5.1,5.1c5,0,5.1-4.6,5.1-5.1h2.9
		C572.4,174.7,570.8,179.9,564.5,179.9z"/>
</g>
<g>
	<path fill="#FFFFFF" d="M551.3,171.9c0,0,0,6.6-6.6,6.6c-6.6,0-6.6-6.6-6.6-6.6"/>
	<path fill="#F2F2F2" d="M544.8,179.9c-6.3,0-8-5.2-8-8h2.9c0,0.5,0.2,5.1,5.1,5.1c5,0,5.1-4.6,5.1-5.1h2.9
		C552.8,174.7,551.1,179.9,544.8,179.9z"/>
</g>
<g>
	<path fill="#FFFFFF" d="M531.6,171.9c0,0,0,6.6-6.6,6.6c-6.6,0-6.6-6.6-6.6-6.6"/>
	<path fill="#F2F2F2" d="M525.1,179.9c-6.3,0-8-5.2-8-8h2.9c0,0.5,0.2,5.1,5.1,5.1c5,0,5.1-4.6,5.1-5.1h2.9
		C533.1,174.7,531.4,179.9,525.1,179.9z"/>
</g>
<g>
	<path fill="#FFFFFF" d="M512,171.9c0,0,0,6.6-6.6,6.6s-6.6-6.6-6.6-6.6"/>
	<path fill="#F2F2F2" d="M505.4,179.9c-6.3,0-8-5.2-8-8h2.9c0,0.5,0.2,5.1,5.1,5.1c4.9,0,5.1-4.6,5.1-5.1h2.9
		C513.4,174.7,511.7,179.9,505.4,179.9z"/>
</g>
<g>
	<path fill="#FFFFFF" d="M492.3,171.9c0,0,0,6.6-6.6,6.6s-6.6-6.6-6.6-6.6"/>
	<path fill="#F2F2F2" d="M485.7,179.9c-6.3,0-8-5.2-8-8h2.9c0,0.5,0.2,5.1,5.1,5.1c5,0,5.1-4.6,5.1-5.1h2.9
		C493.7,174.7,492,179.9,485.7,179.9z"/>
</g>
<g>
	<path fill="#FFFFFF" d="M472.6,171.9c0,0,0,6.6-6.6,6.6s-6.6-6.6-6.6-6.6"/>
	<path fill="#F2F2F2" d="M466,179.9c-6.3,0-8-5.2-8-8h2.9c0,0.5,0.2,5.1,5.1,5.1c5,0,5.1-4.6,5.1-5.1h2.9
		C474,174.7,472.3,179.9,466,179.9z"/>
</g>
<g>
	<path fill="#FFFFFF" d="M452.9,171.9c0,0,0,6.6-6.6,6.6s-6.6-6.6-6.6-6.6"/>
	<path fill="#F2F2F2" d="M446.3,179.9c-6.3,0-8-5.2-8-8h2.9c0,0.5,0.2,5.1,5.1,5.1c5,0,5.1-4.6,5.1-5.1h2.9
		C454.3,174.7,452.7,179.9,446.3,179.9z"/>
</g>
<g>
	<path fill="#FFFFFF" d="M433.2,171.9c0,0,0,6.6-6.6,6.6s-6.6-6.6-6.6-6.6"/>
	<path fill="#F2F2F2" d="M426.7,179.9c-6.3,0-8-5.2-8-8h2.9c0,0.5,0.2,5.1,5.1,5.1s5.1-4.6,5.1-5.1h2.9
		C434.6,174.7,433,179.9,426.7,179.9z"/>
</g>
<g>
	<path fill="#FFFFFF" d="M413.5,171.9c0,0,0,6.6-6.6,6.6s-6.6-6.6-6.6-6.6"/>
	<path fill="#F2F2F2" d="M407,179.9c-6.3,0-8-5.2-8-8h2.9c0,0.5,0.2,5.1,5.1,5.1c5,0,5.1-4.6,5.1-5.1h2.9
		C415,174.7,413.3,179.9,407,179.9z"/>
</g>
<g>
	<path fill="#FFFFFF" d="M393.8,171.9c0,0,0,6.6-6.6,6.6c-6.6,0-6.6-6.6-6.6-6.6"/>
	<path fill="#F2F2F2" d="M387.3,179.9c-6.3,0-8-5.2-8-8h2.9c0,0.5,0.2,5.1,5.1,5.1c5,0,5.1-4.6,5.1-5.1h2.9
		C395.3,174.7,393.6,179.9,387.3,179.9z"/>
</g>
<g>
	<path fill="#FFFFFF" d="M374.2,171.9c0,0,0,6.6-6.6,6.6c-6.6,0-6.6-6.6-6.6-6.6"/>
	<path fill="#F2F2F2" d="M367.6,179.9c-6.3,0-8-5.2-8-8h2.9c0,0.5,0.2,5.1,5.1,5.1c5,0,5.1-4.6,5.1-5.1h2.9
		C375.6,174.7,373.9,179.9,367.6,179.9z"/>
</g>
<g>
	<path fill="#FFFFFF" d="M649.8,163.5c0,0,0,6.6-6.6,6.6c-6.6,0-6.6-6.6-6.6-6.6"/>
	<path fill="#F2F2F2" d="M643.2,171.5c-6.3,0-8-5.2-8-8h2.9c0,0.5,0.2,5.1,5.1,5.1c5,0,5.1-4.6,5.1-5.1h2.9
		C651.2,166.3,649.5,171.5,643.2,171.5z"/>
</g>
<g>
	<path fill="#FFFFFF" d="M354.5,163.5c0,0,0,6.6-6.6,6.6s-6.6-6.6-6.6-6.6"/>
	<path fill="#F2F2F2" d="M347.9,171.5c-6.3,0-8-5.2-8-8h2.9c0,0.5,0.2,5.1,5.1,5.1c5,0,5.1-4.6,5.1-5.1h2.9
		C355.9,166.3,354.2,171.5,347.9,171.5z"/>
</g>
<g>
	<path fill="#FFFFFF" d="M630.1,163.5c0,0,0,6.6-6.6,6.6c-6.6,0-6.6-6.6-6.6-6.6"/>
	<path fill="#F2F2F2" d="M623.5,171.5c-6.3,0-8-5.2-8-8h2.9c0,0.5,0.2,5.1,5.1,5.1c5,0,5.1-4.6,5.1-5.1h2.9
		C631.5,166.3,629.8,171.5,623.5,171.5z"/>
</g>
<g>
	<path fill="#FFFFFF" d="M610.4,163.5c0,0,0,6.6-6.6,6.6c-6.6,0-6.6-6.6-6.6-6.6"/>
	<path fill="#F2F2F2" d="M603.8,171.5c-6.3,0-8-5.2-8-8h2.9c0,0.5,0.2,5.1,5.1,5.1c5,0,5.1-4.6,5.1-5.1h2.9
		C611.8,166.3,610.1,171.5,603.8,171.5z"/>
</g>
<g>
	<path fill="#FFFFFF" d="M590.7,163.5c0,0,0,6.6-6.6,6.6c-6.6,0-6.6-6.6-6.6-6.6"/>
	<path fill="#F2F2F2" d="M584.1,171.5c-6.3,0-8-5.2-8-8h2.9c0,0.5,0.2,5.1,5.1,5.1c5,0,5.1-4.6,5.1-5.1h2.9
		C592.1,166.3,590.5,171.5,584.1,171.5z"/>
</g>
<g>
	<path fill="#FFFFFF" d="M571,163.5c0,0,0,6.6-6.6,6.6c-6.6,0-6.6-6.6-6.6-6.6"/>
	<path fill="#F2F2F2" d="M564.5,171.5c-6.3,0-8-5.2-8-8h2.9c0,0.5,0.2,5.1,5.1,5.1c5,0,5.1-4.6,5.1-5.1h2.9
		C572.4,166.3,570.8,171.5,564.5,171.5z"/>
</g>
<g>
	<path fill="#FFFFFF" d="M551.3,163.5c0,0,0,6.6-6.6,6.6c-6.6,0-6.6-6.6-6.6-6.6"/>
	<path fill="#F2F2F2" d="M544.8,171.5c-6.3,0-8-5.2-8-8h2.9c0,0.5,0.2,5.1,5.1,5.1c5,0,5.1-4.6,5.1-5.1h2.9
		C552.8,166.3,551.1,171.5,544.8,171.5z"/>
</g>
<g>
	<path fill="#FFFFFF" d="M531.6,163.5c0,0,0,6.6-6.6,6.6c-6.6,0-6.6-6.6-6.6-6.6"/>
	<path fill="#F2F2F2" d="M525.1,171.5c-6.3,0-8-5.2-8-8h2.9c0,0.5,0.2,5.1,5.1,5.1c5,0,5.1-4.6,5.1-5.1h2.9
		C533.1,166.3,531.4,171.5,525.1,171.5z"/>
</g>
<g>
	<path fill="#FFFFFF" d="M512,163.5c0,0,0,6.6-6.6,6.6s-6.6-6.6-6.6-6.6"/>
	<path fill="#F2F2F2" d="M505.4,171.5c-6.3,0-8-5.2-8-8h2.9c0,0.5,0.2,5.1,5.1,5.1c4.9,0,5.1-4.6,5.1-5.1h2.9
		C513.4,166.3,511.7,171.5,505.4,171.5z"/>
</g>
<g>
	<path fill="#FFFFFF" d="M492.3,163.5c0,0,0,6.6-6.6,6.6s-6.6-6.6-6.6-6.6"/>
	<path fill="#F2F2F2" d="M485.7,171.5c-6.3,0-8-5.2-8-8h2.9c0,0.5,0.2,5.1,5.1,5.1c5,0,5.1-4.6,5.1-5.1h2.9
		C493.7,166.3,492,171.5,485.7,171.5z"/>
</g>
<g>
	<path fill="#FFFFFF" d="M472.6,163.5c0,0,0,6.6-6.6,6.6s-6.6-6.6-6.6-6.6"/>
	<path fill="#F2F2F2" d="M466,171.5c-6.3,0-8-5.2-8-8h2.9c0,0.5,0.2,5.1,5.1,5.1c5,0,5.1-4.6,5.1-5.1h2.9
		C474,166.3,472.3,171.5,466,171.5z"/>
</g>
<g>
	<path fill="#FFFFFF" d="M452.9,163.5c0,0,0,6.6-6.6,6.6s-6.6-6.6-6.6-6.6"/>
	<path fill="#F2F2F2" d="M446.3,171.5c-6.3,0-8-5.2-8-8h2.9c0,0.5,0.2,5.1,5.1,5.1c5,0,5.1-4.6,5.1-5.1h2.9
		C454.3,166.3,452.7,171.5,446.3,171.5z"/>
</g>
<g>
	<path fill="#FFFFFF" d="M433.2,163.5c0,0,0,6.6-6.6,6.6s-6.6-6.6-6.6-6.6"/>
	<path fill="#F2F2F2" d="M426.7,171.5c-6.3,0-8-5.2-8-8h2.9c0,0.5,0.2,5.1,5.1,5.1s5.1-4.6,5.1-5.1h2.9
		C434.6,166.3,433,171.5,426.7,171.5z"/>
</g>
<g>
	<path fill="#FFFFFF" d="M413.5,163.5c0,0,0,6.6-6.6,6.6s-6.6-6.6-6.6-6.6"/>
	<path fill="#F2F2F2" d="M407,171.5c-6.3,0-8-5.2-8-8h2.9c0,0.5,0.2,5.1,5.1,5.1c5,0,5.1-4.6,5.1-5.1h2.9
		C415,166.3,413.3,171.5,407,171.5z"/>
</g>
<g>
	<path fill="#FFFFFF" d="M393.8,163.5c0,0,0,6.6-6.6,6.6c-6.6,0-6.6-6.6-6.6-6.6"/>
	<path fill="#F2F2F2" d="M387.3,171.5c-6.3,0-8-5.2-8-8h2.9c0,0.5,0.2,5.1,5.1,5.1c5,0,5.1-4.6,5.1-5.1h2.9
		C395.3,166.3,393.6,171.5,387.3,171.5z"/>
</g>
<g>
	<path fill="#FFFFFF" d="M374.2,163.5c0,0,0,6.6-6.6,6.6c-6.6,0-6.6-6.6-6.6-6.6"/>
	<path fill="#F2F2F2" d="M367.6,171.5c-6.3,0-8-5.2-8-8h2.9c0,0.5,0.2,5.1,5.1,5.1c5,0,5.1-4.6,5.1-5.1h2.9
		C375.6,166.3,373.9,171.5,367.6,171.5z"/>
</g>
<g>
	<path fill="#FFFFFF" d="M649.8,155.1c0,0,0,6.6-6.6,6.6c-6.6,0-6.6-6.6-6.6-6.6"/>
	<path fill="#F2F2F2" d="M643.2,163.1c-6.3,0-8-5.2-8-8h2.9c0,0.5,0.2,5.1,5.1,5.1c5,0,5.1-4.6,5.1-5.1h2.9
		C651.2,157.8,649.5,163.1,643.2,163.1z"/>
</g>
<g>
	<path fill="#FFFFFF" d="M354.5,155.1c0,0,0,6.6-6.6,6.6s-6.6-6.6-6.6-6.6"/>
	<path fill="#F2F2F2" d="M347.9,163.1c-6.3,0-8-5.2-8-8h2.9c0,0.5,0.2,5.1,5.1,5.1c5,0,5.1-4.6,5.1-5.1h2.9
		C355.9,157.8,354.2,163.1,347.9,163.1z"/>
</g>
<g>
	<path fill="#FFFFFF" d="M630.1,155.1c0,0,0,6.6-6.6,6.6c-6.6,0-6.6-6.6-6.6-6.6"/>
	<path fill="#F2F2F2" d="M623.5,163.1c-6.3,0-8-5.2-8-8h2.9c0,0.5,0.2,5.1,5.1,5.1c5,0,5.1-4.6,5.1-5.1h2.9
		C631.5,157.8,629.8,163.1,623.5,163.1z"/>
</g>
<g>
	<path fill="#FFFFFF" d="M610.4,155.1c0,0,0,6.6-6.6,6.6c-6.6,0-6.6-6.6-6.6-6.6"/>
	<path fill="#F2F2F2" d="M603.8,163.1c-6.3,0-8-5.2-8-8h2.9c0,0.5,0.2,5.1,5.1,5.1c5,0,5.1-4.6,5.1-5.1h2.9
		C611.8,157.8,610.1,163.1,603.8,163.1z"/>
</g>
<g>
	<path fill="#FFFFFF" d="M590.7,155.1c0,0,0,6.6-6.6,6.6c-6.6,0-6.6-6.6-6.6-6.6"/>
	<path fill="#F2F2F2" d="M584.1,163.1c-6.3,0-8-5.2-8-8h2.9c0,0.5,0.2,5.1,5.1,5.1c5,0,5.1-4.6,5.1-5.1h2.9
		C592.1,157.8,590.5,163.1,584.1,163.1z"/>
</g>
<g>
	<path fill="#FFFFFF" d="M571,155.1c0,0,0,6.6-6.6,6.6c-6.6,0-6.6-6.6-6.6-6.6"/>
	<path fill="#F2F2F2" d="M564.5,163.1c-6.3,0-8-5.2-8-8h2.9c0,0.5,0.2,5.1,5.1,5.1c5,0,5.1-4.6,5.1-5.1h2.9
		C572.4,157.8,570.8,163.1,564.5,163.1z"/>
</g>
<g>
	<path fill="#FFFFFF" d="M551.3,155.1c0,0,0,6.6-6.6,6.6c-6.6,0-6.6-6.6-6.6-6.6"/>
	<path fill="#F2F2F2" d="M544.8,163.1c-6.3,0-8-5.2-8-8h2.9c0,0.5,0.2,5.1,5.1,5.1c5,0,5.1-4.6,5.1-5.1h2.9
		C552.8,157.8,551.1,163.1,544.8,163.1z"/>
</g>
<g>
	<path fill="#FFFFFF" d="M531.6,155.1c0,0,0,6.6-6.6,6.6c-6.6,0-6.6-6.6-6.6-6.6"/>
	<path fill="#F2F2F2" d="M525.1,163.1c-6.3,0-8-5.2-8-8h2.9c0,0.5,0.2,5.1,5.1,5.1c5,0,5.1-4.6,5.1-5.1h2.9
		C533.1,157.8,531.4,163.1,525.1,163.1z"/>
</g>
<g>
	<path fill="#FFFFFF" d="M512,155.1c0,0,0,6.6-6.6,6.6s-6.6-6.6-6.6-6.6"/>
	<path fill="#F2F2F2" d="M505.4,163.1c-6.3,0-8-5.2-8-8h2.9c0,0.5,0.2,5.1,5.1,5.1c4.9,0,5.1-4.6,5.1-5.1h2.9
		C513.4,157.8,511.7,163.1,505.4,163.1z"/>
</g>
<g>
	<path fill="#FFFFFF" d="M492.3,155.1c0,0,0,6.6-6.6,6.6s-6.6-6.6-6.6-6.6"/>
	<path fill="#F2F2F2" d="M485.7,163.1c-6.3,0-8-5.2-8-8h2.9c0,0.5,0.2,5.1,5.1,5.1c5,0,5.1-4.6,5.1-5.1h2.9
		C493.7,157.8,492,163.1,485.7,163.1z"/>
</g>
<g>
	<path fill="#FFFFFF" d="M472.6,155.1c0,0,0,6.6-6.6,6.6s-6.6-6.6-6.6-6.6"/>
	<path fill="#F2F2F2" d="M466,163.1c-6.3,0-8-5.2-8-8h2.9c0,0.5,0.2,5.1,5.1,5.1c5,0,5.1-4.6,5.1-5.1h2.9
		C474,157.8,472.3,163.1,466,163.1z"/>
</g>
<g>
	<path fill="#FFFFFF" d="M452.9,155.1c0,0,0,6.6-6.6,6.6s-6.6-6.6-6.6-6.6"/>
	<path fill="#F2F2F2" d="M446.3,163.1c-6.3,0-8-5.2-8-8h2.9c0,0.5,0.2,5.1,5.1,5.1c5,0,5.1-4.6,5.1-5.1h2.9
		C454.3,157.8,452.7,163.1,446.3,163.1z"/>
</g>
<g>
	<path fill="#FFFFFF" d="M433.2,155.1c0,0,0,6.6-6.6,6.6s-6.6-6.6-6.6-6.6"/>
	<path fill="#F2F2F2" d="M426.7,163.1c-6.3,0-8-5.2-8-8h2.9c0,0.5,0.2,5.1,5.1,5.1s5.1-4.6,5.1-5.1h2.9
		C434.6,157.8,433,163.1,426.7,163.1z"/>
</g>
<g>
	<path fill="#FFFFFF" d="M413.5,155.1c0,0,0,6.6-6.6,6.6s-6.6-6.6-6.6-6.6"/>
	<path fill="#F2F2F2" d="M407,163.1c-6.3,0-8-5.2-8-8h2.9c0,0.5,0.2,5.1,5.1,5.1c5,0,5.1-4.6,5.1-5.1h2.9
		C415,157.8,413.3,163.1,407,163.1z"/>
</g>
<g>
	<path fill="#FFFFFF" d="M393.8,155.1c0,0,0,6.6-6.6,6.6c-6.6,0-6.6-6.6-6.6-6.6"/>
	<path fill="#F2F2F2" d="M387.3,163.1c-6.3,0-8-5.2-8-8h2.9c0,0.5,0.2,5.1,5.1,5.1c5,0,5.1-4.6,5.1-5.1h2.9
		C395.3,157.8,393.6,163.1,387.3,163.1z"/>
</g>
<g>
	<path fill="#FFFFFF" d="M374.2,155.1c0,0,0,6.6-6.6,6.6c-6.6,0-6.6-6.6-6.6-6.6"/>
	<path fill="#F2F2F2" d="M367.6,163.1c-6.3,0-8-5.2-8-8h2.9c0,0.5,0.2,5.1,5.1,5.1c5,0,5.1-4.6,5.1-5.1h2.9
		C375.6,157.8,373.9,163.1,367.6,163.1z"/>
</g>
<g>
	<path fill="#FFFFFF" d="M649.8,146.7c0,0,0,6.6-6.6,6.6c-6.6,0-6.6-6.6-6.6-6.6"/>
	<path fill="#F2F2F2" d="M643.2,154.6c-6.3,0-8-5.2-8-8h2.9c0,0.5,0.2,5.1,5.1,5.1c5,0,5.1-4.6,5.1-5.1h2.9
		C651.2,149.4,649.5,154.6,643.2,154.6z"/>
</g>
<g>
	<path fill="#FFFFFF" d="M354.5,146.7c0,0,0,6.6-6.6,6.6s-6.6-6.6-6.6-6.6"/>
	<path fill="#F2F2F2" d="M347.9,154.6c-6.3,0-8-5.2-8-8h2.9c0,0.5,0.2,5.1,5.1,5.1c5,0,5.1-4.6,5.1-5.1h2.9
		C355.9,149.4,354.2,154.6,347.9,154.6z"/>
</g>
<g>
	<path fill="#FFFFFF" d="M630.1,146.7c0,0,0,6.6-6.6,6.6c-6.6,0-6.6-6.6-6.6-6.6"/>
	<path fill="#F2F2F2" d="M623.5,154.6c-6.3,0-8-5.2-8-8h2.9c0,0.5,0.2,5.1,5.1,5.1c5,0,5.1-4.6,5.1-5.1h2.9
		C631.5,149.4,629.8,154.6,623.5,154.6z"/>
</g>
<g>
	<path fill="#FFFFFF" d="M610.4,146.7c0,0,0,6.6-6.6,6.6c-6.6,0-6.6-6.6-6.6-6.6"/>
	<path fill="#F2F2F2" d="M603.8,154.6c-6.3,0-8-5.2-8-8h2.9c0,0.5,0.2,5.1,5.1,5.1c5,0,5.1-4.6,5.1-5.1h2.9
		C611.8,149.4,610.1,154.6,603.8,154.6z"/>
</g>
<g>
	<path fill="#FFFFFF" d="M590.7,146.7c0,0,0,6.6-6.6,6.6c-6.6,0-6.6-6.6-6.6-6.6"/>
	<path fill="#F2F2F2" d="M584.1,154.6c-6.3,0-8-5.2-8-8h2.9c0,0.5,0.2,5.1,5.1,5.1c5,0,5.1-4.6,5.1-5.1h2.9
		C592.1,149.4,590.5,154.6,584.1,154.6z"/>
</g>
<g>
	<path fill="#FFFFFF" d="M571,146.7c0,0,0,6.6-6.6,6.6c-6.6,0-6.6-6.6-6.6-6.6"/>
	<path fill="#F2F2F2" d="M564.5,154.6c-6.3,0-8-5.2-8-8h2.9c0,0.5,0.2,5.1,5.1,5.1c5,0,5.1-4.6,5.1-5.1h2.9
		C572.4,149.4,570.8,154.6,564.5,154.6z"/>
</g>
<g>
	<path fill="#FFFFFF" d="M551.3,146.7c0,0,0,6.6-6.6,6.6c-6.6,0-6.6-6.6-6.6-6.6"/>
	<path fill="#F2F2F2" d="M544.8,154.6c-6.3,0-8-5.2-8-8h2.9c0,0.5,0.2,5.1,5.1,5.1c5,0,5.1-4.6,5.1-5.1h2.9
		C552.8,149.4,551.1,154.6,544.8,154.6z"/>
</g>
<g>
	<path fill="#FFFFFF" d="M531.6,146.7c0,0,0,6.6-6.6,6.6c-6.6,0-6.6-6.6-6.6-6.6"/>
	<path fill="#F2F2F2" d="M525.1,154.6c-6.3,0-8-5.2-8-8h2.9c0,0.5,0.2,5.1,5.1,5.1c5,0,5.1-4.6,5.1-5.1h2.9
		C533.1,149.4,531.4,154.6,525.1,154.6z"/>
</g>
<g>
	<path fill="#FFFFFF" d="M512,146.7c0,0,0,6.6-6.6,6.6s-6.6-6.6-6.6-6.6"/>
	<path fill="#F2F2F2" d="M505.4,154.6c-6.3,0-8-5.2-8-8h2.9c0,0.5,0.2,5.1,5.1,5.1c4.9,0,5.1-4.6,5.1-5.1h2.9
		C513.4,149.4,511.7,154.6,505.4,154.6z"/>
</g>
<g>
	<path fill="#FFFFFF" d="M492.3,146.7c0,0,0,6.6-6.6,6.6s-6.6-6.6-6.6-6.6"/>
	<path fill="#F2F2F2" d="M485.7,154.6c-6.3,0-8-5.2-8-8h2.9c0,0.5,0.2,5.1,5.1,5.1c5,0,5.1-4.6,5.1-5.1h2.9
		C493.7,149.4,492,154.6,485.7,154.6z"/>
</g>
<g>
	<path fill="#FFFFFF" d="M472.6,146.7c0,0,0,6.6-6.6,6.6s-6.6-6.6-6.6-6.6"/>
	<path fill="#F2F2F2" d="M466,154.6c-6.3,0-8-5.2-8-8h2.9c0,0.5,0.2,5.1,5.1,5.1c5,0,5.1-4.6,5.1-5.1h2.9
		C474,149.4,472.3,154.6,466,154.6z"/>
</g>
<g>
	<path fill="#FFFFFF" d="M452.9,146.7c0,0,0,6.6-6.6,6.6s-6.6-6.6-6.6-6.6"/>
	<path fill="#F2F2F2" d="M446.3,154.6c-6.3,0-8-5.2-8-8h2.9c0,0.5,0.2,5.1,5.1,5.1c5,0,5.1-4.6,5.1-5.1h2.9
		C454.3,149.4,452.7,154.6,446.3,154.6z"/>
</g>
<g>
	<path fill="#FFFFFF" d="M433.2,146.7c0,0,0,6.6-6.6,6.6s-6.6-6.6-6.6-6.6"/>
	<path fill="#F2F2F2" d="M426.7,154.6c-6.3,0-8-5.2-8-8h2.9c0,0.5,0.2,5.1,5.1,5.1s5.1-4.6,5.1-5.1h2.9
		C434.6,149.4,433,154.6,426.7,154.6z"/>
</g>
<g>
	<path fill="#FFFFFF" d="M413.5,146.7c0,0,0,6.6-6.6,6.6s-6.6-6.6-6.6-6.6"/>
	<path fill="#F2F2F2" d="M407,154.6c-6.3,0-8-5.2-8-8h2.9c0,0.5,0.2,5.1,5.1,5.1c5,0,5.1-4.6,5.1-5.1h2.9
		C415,149.4,413.3,154.6,407,154.6z"/>
</g>
<g>
	<path fill="#FFFFFF" d="M393.8,146.7c0,0,0,6.6-6.6,6.6c-6.6,0-6.6-6.6-6.6-6.6"/>
	<path fill="#F2F2F2" d="M387.3,154.6c-6.3,0-8-5.2-8-8h2.9c0,0.5,0.2,5.1,5.1,5.1c5,0,5.1-4.6,5.1-5.1h2.9
		C395.3,149.4,393.6,154.6,387.3,154.6z"/>
</g>
<g>
	<path fill="#FFFFFF" d="M374.2,146.7c0,0,0,6.6-6.6,6.6c-6.6,0-6.6-6.6-6.6-6.6"/>
	<path fill="#F2F2F2" d="M367.6,154.6c-6.3,0-8-5.2-8-8h2.9c0,0.5,0.2,5.1,5.1,5.1c5,0,5.1-4.6,5.1-5.1h2.9
		C375.6,149.4,373.9,154.6,367.6,154.6z"/>
</g>
<path fill="#F2F2F2" d="M649.8,219.3H341.3l-1.4-1.4v-71.3l1.4-1.4h308.4l1.4,1.4v71.3L649.8,219.3z M342.8,216.4h305.6V148H342.8
	V216.4z"/>
<path fill="#F2F2F2" d="M639.9,148H351.2l-1.4-1.4v-7.4l1.4-1.4H640l1.4,1.4v7.4L639.9,148z M352.6,145.1h285.9v-4.6H352.6V145.1z"
	/>
<g>
	<rect x="354.5" y="146.5" fill="#FFFFFF" width="6.6" height="62.4"/>
	<path fill="#F2F2F2" d="M362.5,210.4h-9.4v-65.3h9.4V210.4L362.5,210.4z M355.9,207.5h3.7V148h-3.7V207.5z"/>
</g>
<g>
	<rect x="374.2" y="146.5" fill="#FFFFFF" width="6.6" height="62.4"/>
	<path fill="#F2F2F2" d="M382.1,210.4h-9.4v-65.3h9.4V210.4z M375.6,207.5h3.7V148h-3.7V207.5z"/>
</g>
<g>
	<rect x="393.8" y="146.5" fill="#FFFFFF" width="6.6" height="62.4"/>
	<path fill="#F2F2F2" d="M401.8,210.4h-9.4v-65.3h9.4V210.4z M395.3,207.5h3.7V148h-3.7V207.5z"/>
</g>
<g>
	<rect x="413.5" y="146.5" fill="#FFFFFF" width="6.6" height="62.4"/>
	<path fill="#F2F2F2" d="M421.5,210.4h-9.4v-65.3h9.4V210.4z M415,207.5h3.7V148H415V207.5z"/>
</g>
<g>
	<rect x="433.2" y="146.5" fill="#FFFFFF" width="6.6" height="62.4"/>
	<path fill="#F2F2F2" d="M441.2,210.4h-9.4v-65.3h9.4V210.4z M434.6,207.5h3.7V148h-3.7V207.5z"/>
</g>
<g>
	<rect x="452.9" y="146.5" fill="#FFFFFF" width="6.6" height="62.4"/>
	<path fill="#F2F2F2" d="M460.9,210.4h-9.4v-65.3h9.4V210.4z M454.3,207.5h3.7V148h-3.7V207.5z"/>
</g>
<g>
	<rect x="472.6" y="146.5" fill="#FFFFFF" width="6.6" height="62.4"/>
	<path fill="#F2F2F2" d="M480.6,210.4h-9.4v-65.3h9.4V210.4z M474,207.5h3.7V148H474V207.5z"/>
</g>
<g>
	<rect x="492.3" y="146.5" fill="#FFFFFF" width="6.6" height="62.4"/>
	<path fill="#F2F2F2" d="M500.3,210.4h-9.4v-65.3h9.4V210.4z M493.7,207.5h3.7V148h-3.7V207.5z"/>
</g>
<g>
	<rect x="512" y="146.5" fill="#FFFFFF" width="6.6" height="62.4"/>
	<path fill="#F2F2F2" d="M519.9,210.4h-9.4v-65.3h9.4V210.4z M513.4,207.5h3.7V148h-3.7V207.5z"/>
</g>
<g>
	<rect x="531.6" y="146.5" fill="#FFFFFF" width="6.6" height="62.4"/>
	<path fill="#F2F2F2" d="M539.6,210.4h-9.4v-65.3h9.4V210.4z M533.1,207.5h3.7V148h-3.7L533.1,207.5L533.1,207.5z"/>
</g>
<g>
	<rect x="551.3" y="146.5" fill="#FFFFFF" width="6.6" height="62.4"/>
	<path fill="#F2F2F2" d="M559.3,210.4h-9.4v-65.3h9.4V210.4z M552.8,207.5h3.7V148h-3.7V207.5z"/>
</g>
<g>
	<rect x="571" y="146.5" fill="#FFFFFF" width="6.6" height="62.4"/>
	<path fill="#F2F2F2" d="M579,210.4h-9.4v-65.3h9.4V210.4z M572.4,207.5h3.7V148h-3.7V207.5z"/>
</g>
<g>
	<rect x="590.7" y="146.5" fill="#FFFFFF" width="6.6" height="62.4"/>
	<path fill="#F2F2F2" d="M598.7,210.4h-9.4v-65.3h9.4V210.4z M592.1,207.5h3.7V148h-3.7V207.5z"/>
</g>
<g>
	<rect x="610.4" y="146.5" fill="#FFFFFF" width="6.6" height="62.4"/>
	<path fill="#F2F2F2" d="M618.4,210.4H609v-65.3h9.4V210.4z M611.8,207.5h3.7V148h-3.7V207.5z"/>
</g>
<g>
	<rect x="630.1" y="146.5" fill="#FFFFFF" width="6.6" height="62.4"/>
	<path fill="#F2F2F2" d="M638.1,210.4h-9.4v-65.3h9.4V210.4z M631.5,207.5h3.7V148h-3.7V207.5z"/>
</g>
<g>
	<circle fill="#FFFFFF" cx="633.4" cy="209" r="3.3"/>
	<path fill="#F2F2F2" d="M633.4,213.7c-2.6,0-4.7-2.1-4.7-4.7s2.1-4.7,4.7-4.7c2.6,0,4.7,2.1,4.7,4.7S636,213.7,633.4,213.7z
		 M633.4,207.1c-1,0-1.9,0.8-1.9,1.9s0.8,1.9,1.9,1.9c1.1,0,1.9-0.8,1.9-1.9S634.4,207.1,633.4,207.1z"/>
</g>
<g>
	<circle fill="#FFFFFF" cx="613.7" cy="209" r="3.3"/>
	<path fill="#F2F2F2" d="M613.7,213.7c-2.6,0-4.7-2.1-4.7-4.7s2.1-4.7,4.7-4.7c2.6,0,4.7,2.1,4.7,4.7S616.3,213.7,613.7,213.7z
		 M613.7,207.1c-1,0-1.9,0.8-1.9,1.9s0.8,1.9,1.9,1.9c1.1,0,1.9-0.8,1.9-1.9S614.7,207.1,613.7,207.1z"/>
</g>
<g>
	<circle fill="#FFFFFF" cx="594" cy="209" r="3.3"/>
	<path fill="#F2F2F2" d="M594,213.7c-2.6,0-4.7-2.1-4.7-4.7s2.1-4.7,4.7-4.7c2.6,0,4.7,2.1,4.7,4.7S596.6,213.7,594,213.7z
		 M594,207.1c-1,0-1.9,0.8-1.9,1.9s0.8,1.9,1.9,1.9c1.1,0,1.9-0.8,1.9-1.9S595,207.1,594,207.1z"/>
</g>
<g>
	<circle fill="#FFFFFF" cx="574.3" cy="209" r="3.3"/>
	<path fill="#F2F2F2" d="M574.3,213.7c-2.6,0-4.7-2.1-4.7-4.7s2.1-4.7,4.7-4.7c2.6,0,4.7,2.1,4.7,4.7S576.9,213.7,574.3,213.7z
		 M574.3,207.1c-1,0-1.9,0.8-1.9,1.9s0.8,1.9,1.9,1.9c1.1,0,1.9-0.8,1.9-1.9S575.3,207.1,574.3,207.1z"/>
</g>
<g>
	<circle fill="#FFFFFF" cx="554.6" cy="209" r="3.3"/>
	<path fill="#F2F2F2" d="M554.6,213.7c-2.6,0-4.7-2.1-4.7-4.7s2.1-4.7,4.7-4.7c2.6,0,4.7,2.1,4.7,4.7S557.2,213.7,554.6,213.7z
		 M554.6,207.1c-1,0-1.9,0.8-1.9,1.9s0.8,1.9,1.9,1.9c1.1,0,1.9-0.8,1.9-1.9S555.6,207.1,554.6,207.1z"/>
</g>
<g>
	
		<ellipse transform="matrix(0.1602 -0.9871 0.9871 0.1602 242.9171 703.515)" fill="#FFFFFF" cx="534.9" cy="209" rx="3.3" ry="3.3"/>
	<path fill="#F2F2F2" d="M534.9,213.7c-2.6,0-4.7-2.1-4.7-4.7s2.1-4.7,4.7-4.7c2.6,0,4.7,2.1,4.7,4.7S537.5,213.7,534.9,213.7z
		 M534.9,207.1c-1,0-1.9,0.8-1.9,1.9s0.8,1.9,1.9,1.9c1.1,0,1.9-0.8,1.9-1.9S535.9,207.1,534.9,207.1z"/>
</g>
<g>
	<circle fill="#FFFFFF" cx="515.2" cy="209" r="3.3"/>
	<path fill="#F2F2F2" d="M515.2,213.7c-2.6,0-4.7-2.1-4.7-4.7s2.1-4.7,4.7-4.7c2.6,0,4.7,2.1,4.7,4.7S517.8,213.7,515.2,213.7z
		 M515.2,207.1c-1,0-1.9,0.8-1.9,1.9s0.8,1.9,1.9,1.9c1.1,0,1.9-0.8,1.9-1.9S516.3,207.1,515.2,207.1z"/>
</g>
<g>
	<circle fill="#FFFFFF" cx="495.6" cy="209" r="3.3"/>
	<path fill="#F2F2F2" d="M495.6,213.7c-2.6,0-4.7-2.1-4.7-4.7s2.1-4.7,4.7-4.7s4.7,2.1,4.7,4.7S498.1,213.7,495.6,213.7z
		 M495.6,207.1c-1,0-1.9,0.8-1.9,1.9s0.8,1.9,1.9,1.9c1.1,0,1.9-0.8,1.9-1.9S496.6,207.1,495.6,207.1z"/>
</g>
<g>
	<circle fill="#FFFFFF" cx="475.9" cy="209" r="3.3"/>
	<path fill="#F2F2F2" d="M475.9,213.7c-2.6,0-4.7-2.1-4.7-4.7s2.1-4.7,4.7-4.7s4.7,2.1,4.7,4.7S478.5,213.7,475.9,213.7z
		 M475.9,207.1c-1,0-1.9,0.8-1.9,1.9s0.8,1.9,1.9,1.9c1.1,0,1.9-0.8,1.9-1.9S476.9,207.1,475.9,207.1z"/>
</g>
<g>
	<circle fill="#FFFFFF" cx="456.2" cy="209" r="3.3"/>
	<path fill="#F2F2F2" d="M456.2,213.7c-2.6,0-4.7-2.1-4.7-4.7s2.1-4.7,4.7-4.7c2.6,0,4.7,2.1,4.7,4.7S458.8,213.7,456.2,213.7z
		 M456.2,207.1c-1,0-1.9,0.8-1.9,1.9s0.8,1.9,1.9,1.9c1.1,0,1.9-0.8,1.9-1.9S457.2,207.1,456.2,207.1z"/>
</g>
<g>
	<circle fill="#FFFFFF" cx="436.5" cy="209" r="3.3"/>
	<path fill="#F2F2F2" d="M436.5,213.7c-2.6,0-4.7-2.1-4.7-4.7s2.1-4.7,4.7-4.7s4.7,2.1,4.7,4.7S439.1,213.7,436.5,213.7z
		 M436.5,207.1c-1,0-1.9,0.8-1.9,1.9s0.8,1.9,1.9,1.9c1.1,0,1.9-0.8,1.9-1.9S437.5,207.1,436.5,207.1z"/>
</g>
<g>
	<circle fill="#FFFFFF" cx="416.8" cy="209" r="3.3"/>
	<path fill="#F2F2F2" d="M416.8,213.7c-2.6,0-4.7-2.1-4.7-4.7s2.1-4.7,4.7-4.7c2.6,0,4.7,2.1,4.7,4.7S419.4,213.7,416.8,213.7z
		 M416.8,207.1c-1,0-1.9,0.8-1.9,1.9s0.8,1.9,1.9,1.9c1.1,0,1.9-0.8,1.9-1.9S417.8,207.1,416.8,207.1z"/>
</g>
<g>
	<circle fill="#FFFFFF" cx="397.1" cy="209" r="3.3"/>
	<path fill="#F2F2F2" d="M397.1,213.7c-2.6,0-4.7-2.1-4.7-4.7s2.1-4.7,4.7-4.7c2.6,0,4.7,2.1,4.7,4.7S399.7,213.7,397.1,213.7z
		 M397.1,207.1c-1,0-1.9,0.8-1.9,1.9s0.8,1.9,1.9,1.9c1.1,0,1.9-0.8,1.9-1.9S398.1,207.1,397.1,207.1z"/>
</g>
<g>
	<circle fill="#FFFFFF" cx="377.4" cy="209" r="3.3"/>
	<path fill="#F2F2F2" d="M377.4,213.7c-2.6,0-4.7-2.1-4.7-4.7s2.1-4.7,4.7-4.7s4.7,2.1,4.7,4.7S380,213.7,377.4,213.7z M377.4,207.1
		c-1,0-1.9,0.8-1.9,1.9s0.8,1.9,1.9,1.9s1.9-0.8,1.9-1.9S378.5,207.1,377.4,207.1z"/>
</g>
<g>
	<circle fill="#FFFFFF" cx="357.7" cy="209" r="3.3"/>
	<path fill="#F2F2F2" d="M357.7,213.7c-2.6,0-4.7-2.1-4.7-4.7s2.1-4.7,4.7-4.7c2.6,0,4.7,2.1,4.7,4.7S360.3,213.7,357.7,213.7z
		 M357.7,207.1c-1,0-1.9,0.8-1.9,1.9s0.8,1.9,1.9,1.9c1.1,0,1.9-0.8,1.9-1.9S358.8,207.1,357.7,207.1z"/>
</g>
<path fill="#F2F2F2" d="M645.8,148h-5.9l-1.4-1.4v-11l1.4-1.4h5.9l1.4,1.4v11L645.8,148z M641.4,145.1h3v-8.2h-3V145.1z"/>
<path fill="#F2F2F2" d="M351.2,148h-5.9l-1.4-1.4v-11l1.4-1.4h5.9l1.4,1.4v11L351.2,148z M346.7,145.1h3v-8.2h-3V145.1z"/>
<g>
	<rect x="324.2" y="254.3" fill="#FFFFFF" width="27.9" height="12.8"/>
	<path fill="#F2F2F2" d="M353.5,268.6h-30.7V253h30.7V268.6z M325.7,265.7h25v-9.9h-25C325.7,255.8,325.7,265.7,325.7,265.7z"/>
</g>
<g>
	<line fill="none" x1="329.1" y1="254.3" x2="329.1" y2="267.1"/>
	<rect x="327.7" y="254.3" fill="#F2F2F2" width="2.9" height="12.8"/>
</g>
<g>
	<line fill="none" x1="333.8" y1="254.3" x2="333.8" y2="267.1"/>
	<rect x="332.3" y="254.3" fill="#F2F2F2" width="2.9" height="12.8"/>
</g>
<g>
	<line fill="none" x1="338.4" y1="254.3" x2="338.4" y2="267.1"/>
	<rect x="337" y="254.3" fill="#F2F2F2" width="2.9" height="12.8"/>
</g>
<g>
	<line fill="none" x1="343" y1="254.3" x2="343" y2="267.1"/>
	<rect x="341.6" y="254.3" fill="#F2F2F2" width="2.9" height="12.8"/>
</g>
<g>
	<line fill="none" x1="347.6" y1="254.3" x2="347.6" y2="267.1"/>
	<rect x="346.1" y="254.3" fill="#F2F2F2" width="2.9" height="12.8"/>
</g>
</svg>
