<?xml version="1.0" encoding="utf-8"?>
<!-- Generator: Adobe Illustrator 22.0.1, SVG Export Plug-In . SVG Version: 6.00 Build 0)  -->
<svg version="1.1" id="レイヤー_1" xmlns="http://www.w3.org/2000/svg" xmlns:xlink="http://www.w3.org/1999/xlink" x="0px"
	 y="0px" viewBox="0 0 258.048 49.758" enable-background="new 0 0 258.048 49.758" xml:space="preserve">
<g>
	<g>
		<path fill="#231815" d="M136.803,12.851h-7.577h-3.267h-7.822h-12.189v3.156v7.1c0,5.327,4.341,7.26,7.26,7.26h1.578v-7.18h3.351
			v4.023v3.156h7.822h3.267h8.867h0.415V12.851H136.803z M114.786,16.007h3.351v4.023h-3.351V16.007z M129.226,20.031h-3.267v-4.023
			h3.267V20.031z M125.959,23.187h3.267v4.023h-3.267V23.187z"/>
		<path fill="#231815" d="M106.416,41.296v6.58h8.838v-13.84h-1.578C110.757,34.036,106.416,35.969,106.416,41.296z"/>
		<path fill="#231815" d="M138.437,45.234h-12.109V34.03h-1.578h-1.578h-2.525h-1.578h-1.578v7.1c0,5.327,4.341,7.26,7.26,7.26
			h1.001h0.577h12.109V45.234z"/>
		<rect x="129.138" y="34.872" fill="#231815" width="3.156" height="5.856"/>
		<rect x="134.937" y="34.872" fill="#231815" width="3.156" height="5.856"/>
	</g>
	<path fill="#231815" d="M43.769,23.983h-5.212h-8.339h-1.395h-1.395h-2.232h-1.395h-1.395v15.931c0,4.708,3.837,6.417,6.417,6.417
		h0.192l16.26,0v-2.79H30.218v-7.325h8.339h0.555h0.84c2.58,0,6.417-1.709,6.417-6.417v-5.816H43.769z M38.557,33.426h-8.339v-6.653
		h8.339V33.426z"/>
	<path fill="#231815" d="M101.622,33.432v-2.79H88.057v-6.679h-1.395h-1.395h-2.232H81.64h-1.395v6.679h-3.748v2.79h3.748v7.036
		c0,4.708,3.837,6.417,6.417,6.417h1.257h0.138h12.691v-2.79H88.057V33.432H101.622z"/>
	<path fill="#231815" d="M65.371,23.983h-0.879h-0.516H50.71v2.79h13.265v6.865h-5.453h-1.395h-1.395H53.5h0h-1.395H50.71v6.276
		c0,4.667,3.77,6.385,6.348,6.414v0.003h0.069h1.395h13.265v-1.395v-1.395V30.4C71.788,25.692,67.95,23.983,65.371,23.983z
		 M58.522,36.428h5.453v7.113h-5.453V36.428z"/>
	<g>
		<path fill="#231815" d="M162.283,23.267c0-2.918-1.933-7.26-7.26-7.26h-6.58v8.838h13.84V23.267z"/>
		<path fill="#231815" d="M144.512,27.886v3.156h12.089v12.543h-6.182v3.156h6.182h0.499h1.08c2.919,0,7.26-1.933,7.26-7.26v-8.44
			v-0.293v-2.863H144.512z"/>
	</g>
	<path fill="#231815" d="M196.082,31.937h-4.915v-1.795h4.915v-3.156h-4.915V14.146h-8.838v12.839v2.699v0.457v1.696h-4.084h-1.578
		h-0.52v0.021c-2.887,0.215-6.74,2.22-6.74,7.239v6.58h6.74h2.098h4.084h0.499h1.08c2.919,0,7.26-1.933,7.26-7.26v-3.324h4.915
		V31.937z M182.33,42.521h-4.084v-7.527h4.084v0.1V42.521z"/>
	<g>
		<path fill="#231815" d="M218.003,16.647h-8.866h-0.913h-0.913h-1.46h-0.913h-0.913v10.424c0,3.08,2.511,4.199,4.199,4.199h0.913
			v-6.618h5.819v-1.825h-5.819v-4.353h8.866V16.647z"/>
		<path fill="#231815" d="M218.003,33.748h-8.866h-0.913h-0.913h-1.46h-0.913h-0.913v10.424c0,3.066,2.486,4.187,4.173,4.198v0.001
			h0.025h0.913h8.635v-1.825h-8.635v-4.793h5.819v-1.825h-5.819v-4.353h8.866V33.748z"/>
		<path fill="#231815" d="M232.686,39.944v-0.017h-0.354h-0.913h-4.552v-4.353h8.866v-1.825h-8.866h-0.913h-0.913h-1.46h-0.913
			h-0.913v3.805c0,3.08,2.511,4.199,4.199,4.199h0.913h4.552v4.793h-9.213v1.825h9.213h0.879h0.034h0.913h1.46h0.913h0.913v-4.245
			C236.531,41.254,234.349,40.089,232.686,39.944z"/>
	</g>
	<g>
		<path fill="#231815" d="M36.446,10.429l-0.852,0.456l-0.204-0.228v4.281h-1.02v-3.574l-0.408,0.732l-0.899-0.468l1.308-2.363
			V8.487h-1.176v-0.96h1.176V6.676l-0.659,0.12l-0.48-0.839l2.566-0.456l0.444,0.84l-0.852,0.155v1.031h0.743v0.96h-0.743v0.804
			L36.446,10.429z M40.775,14.484l-0.84,0.455l-1.631-2.746l-1.559,2.771l-0.852-0.444l1.895-3.357V5.297h0.983v5.793L40.775,14.484
			z M36.662,9.182l-0.516-2.135l0.852-0.456l0.635,2.591H36.662z M40.464,7.132l-0.588,2.051h-0.983l0.72-2.507L40.464,7.132z"/>
		<path fill="#231815" d="M49.708,11.701V5.297h1.043v6.32l-0.54,3.37l-0.947-0.503L49.708,11.701z M52.454,12.949V5.717h1.02v7.232
			H52.454z M55.32,5.297h1.044v9.643H55.32V5.297z"/>
		<path fill="#231815" d="M66.603,9.339l0.936,0.504L66.195,15l-0.947-0.504L66.603,9.339z M67.203,5.573v0.935h-1.835V5.573H67.203
			z M67.203,7.468v0.936h-1.835V7.468H67.203z M72.6,14.508L71.664,15l-1.69-1.703L68.318,15l-0.924-0.492l2.087-2.135v-0.372
			h-1.955V11.09h1.955v-0.672h-1.559V9.518h1.559V8.547h0.983v0.972h1.548v0.899h-1.548v0.672h1.931v0.911h-1.931v0.36L72.6,14.508z
			 M72.24,6.221l-4.233,0.623l-0.492-0.923l4.438-0.647L72.24,6.221z M68.175,8.919l-0.372-1.451h0.936l0.264,1.008L68.175,8.919z
			 M69.577,8.26l-0.323-1.248h0.936l0.204,0.815L69.577,8.26z M70.825,8.487L71.736,6.7l0.827,0.432L71.641,8.93L70.825,8.487z"/>
		<path fill="#231815" d="M85.046,7.336l3.85,2.675l-1.079,0.503l-2.782-1.942l-2.782,1.931l-1.008-0.54L85.046,7.336z
			 M84.122,6.232l-1.715,1.176l-0.983-0.517l2.23-1.535L84.122,6.232z M82.755,14.891v-4.665h4.642v4.665H82.755z M83.751,11.101
			v2.902h2.626v-2.902H83.751z M88.716,6.928l-1.043,0.48l-1.716-1.2l0.468-0.875L88.716,6.928z"/>
	</g>
	<g>
		<line fill="#231815" x1="26.928" y1="2.211" x2="93.416" y2="2.211"/>
		<rect x="26.928" y="1.461" fill="#231815" width="66.487" height="1.5"/>
	</g>
	<g>
		<line fill="#231815" x1="26.928" y1="17.783" x2="93.416" y2="17.783"/>
		<rect x="26.928" y="17.033" fill="#231815" width="66.487" height="1.5"/>
	</g>
</g>
</svg>
