<?xml version="1.0" encoding="utf-8"?>
<!-- Generator: Adobe Illustrator 22.0.1, SVG Export Plug-In . SVG Version: 6.00 Build 0)  -->
<svg version="1.1" id="レイヤー_1" xmlns="http://www.w3.org/2000/svg" xmlns:xlink="http://www.w3.org/1999/xlink" x="0px"
	 y="0px" viewBox="0 0 463.978 207.555" enable-background="new 0 0 463.978 207.555" xml:space="preserve">
<g>
	<path fill="#231815" d="M225.278,98.936v15.61h20.967V81.713h-3.744C235.577,81.713,225.278,86.299,225.278,98.936z"/>
	<path fill="#231815" d="M357.815,56.166c0-6.924-4.587-17.223-17.223-17.223h-15.61V59.91h32.833V56.166z"/>
	<path fill="#231815" d="M438,76.734h-11.659v-4.259H438v-7.488h-11.659V34.527h-20.967v30.459v6.403v1.085v4.022h-9.688h-3.744
		h-1.234v0.051c-6.848,0.51-15.989,5.266-15.989,17.173v15.61h15.989h4.978h9.688h1.183h2.561c6.924,0,17.223-4.587,17.223-17.223
		v-7.885H438V76.734z M405.373,101.842h-9.688V83.985h9.688v0.237V101.842z"/>
	<rect x="279.184" y="83.697" fill="#231815" width="7.488" height="13.893"/>
	<rect x="292.94" y="83.697" fill="#231815" width="7.488" height="13.893"/>
	<path fill="#231815" d="M241.392,73.009h3.744V55.976h7.949v9.545v7.488h18.557h7.751h21.036h0.985V31.454h-4.045h-17.975h-7.751
		h-18.557h-28.917v7.488v16.844C224.169,68.423,234.468,73.009,241.392,73.009z M271.642,55.976h7.751v9.545h-7.751V55.976z
		 M279.393,48.488h-7.751v-9.545h7.751V48.488z M253.085,48.488h-7.949v-9.545h7.949V48.488z"/>
	<path fill="#231815" d="M272.518,115.765h28.726v-7.488h-28.726V81.699h-3.744h-3.744h-5.991h-3.744h-3.744v16.844
		c0,12.636,10.299,17.223,17.223,17.223h2.375H272.518z"/>
	<path fill="#231815" d="M64.293,59.88H44.511h-3.309h-3.309h-5.295h-3.309h-3.309v37.794c0,11.169,9.104,15.223,15.223,15.223
		h0.454h2.855h35.72v-6.619h-35.72V88.901h19.782h1.318h1.992c6.12,0,15.223-4.054,15.223-15.223V59.88h-6.168H64.293z
		 M64.293,82.282H44.511V66.499h19.782V82.282z"/>
	<path fill="#231815" d="M181.725,59.833h-3.309h-3.309h-5.295h-3.309h-3.309v15.845H154.3v6.619h8.892v16.691
		c0,11.169,9.104,15.223,15.223,15.223h2.982h0.328h30.108v-6.619h-30.108V82.296h32.181v-6.619h-32.181V59.833z"/>
	<path fill="#231815" d="M127.905,59.88h-2.085h-1.225h-31.47v6.619h31.47v16.287h-12.937h-3.309h-3.309h-5.295h0h-3.309h-3.309
		v14.888c0,11.073,8.943,15.147,15.06,15.217v0.007h0.163h3.309h31.47v-3.309v-3.309V75.103
		C143.128,63.934,134.025,59.88,127.905,59.88z M111.658,89.405h12.937v16.874h-12.937V89.405z"/>
	<path fill="#231815" d="M315.657,74.612l28.679,0v29.757H329.67v7.488h14.666h1.183h2.561c6.924,0,17.223-4.587,17.223-17.223
		V74.612v-0.696v-6.792l-49.646,0V74.612z"/>
	<path fill="#231815" d="M203.544,131.209h-27.22h-2.802h-2.802h-4.484h-2.802h-2.802v32.001c0,9.457,7.708,12.89,12.89,12.89h2.802
		v-20.318h17.866v-5.604h-17.866v-13.364h27.22V131.209z"/>
	<path fill="#231815" d="M257.637,131.209h-27.22h-2.802h-2.802h-4.484h-2.802h-2.802v32.001c0,9.412,7.632,12.854,12.813,12.887
		v0.003h0.077h2.802h26.509v-5.604h-26.509v-14.714h17.866v-5.604h-17.866v-13.364h27.22V131.209z"/>
	<path fill="#231815" d="M303.739,150.229v-0.052h-1.088h-2.802h-13.976v-13.364h27.22v-5.604h-27.22h-2.802h-2.802h-4.483h-2.802
		h-2.802v11.683c0,9.457,7.708,12.89,12.89,12.89h2.802h13.976v14.714h-28.284v5.604h28.284h2.699h0.103h2.802h4.483h2.802h2.802
		v-13.033C315.541,154.252,308.845,150.675,303.739,150.229z"/>
</g>
</svg>
