<?xml version="1.0" encoding="utf-8"?>
<!-- Generator: Adobe Illustrator 22.1.0, SVG Export Plug-In . SVG Version: 6.00 Build 0)  -->
<svg version="1.1" id="レイヤー_1" xmlns="http://www.w3.org/2000/svg" xmlns:xlink="http://www.w3.org/1999/xlink" x="0px"
	 y="0px" viewBox="0 0 756 516" enable-background="new 0 0 756 516" xml:space="preserve">
<rect x="656.454" y="67.016" fill="#231815" width="7.243" height="420.175"/>
<rect x="462.147" y="211.456" fill="#231815" width="7.243" height="275.904"/>
<polygon fill="#231815" points="381.117,60.464 536.812,60.464 536.812,67.707 388.359,67.707 388.359,211.456 381.117,211.456 "/>
<g>
	<path fill="#231815" d="M336.143,207.834H469.39v119.808H336.143V207.834z M462.147,215.077H343.385V320.4h118.762V215.077z"/>
</g>
<g>
	<path fill="#231815" d="M236.949,320.4H469.39v170.581H236.949V320.4z M462.147,327.643H244.191v156.096h217.956V327.643z"/>
</g>
<rect x="240.57" y="402.07" fill="#231815" width="225.198" height="7.243"/>
<rect x="399.146" y="209.998" fill="#231815" width="7.243" height="114.024"/>
<path fill="#231815" d="M454.674,383.773c10.797,0,14.715,8.8,14.715,14.715h-7.243h3.621l-3.621,0.027
	c-0.027-1.759-0.645-7.498-7.473-7.498c-7.26,0-7.471,6.707-7.471,7.472h-7.243C439.961,392.572,443.879,383.773,454.674,383.773z"
	/>
<path fill="#231815" d="M454.674,367.972c10.797,0,14.715,8.799,14.715,14.714h-7.243h3.621l-3.621,0.027
	c-0.027-1.759-0.645-7.497-7.473-7.497c-7.26,0-7.471,6.706-7.471,7.471h-7.243C439.961,376.771,443.879,367.972,454.674,367.972z"
	/>
<path fill="#231815" d="M454.674,352.171c10.797,0,14.715,8.8,14.715,14.715h-7.243h3.621l-3.621,0.027
	c-0.027-1.759-0.645-7.498-7.473-7.498c-7.26,0-7.471,6.707-7.471,7.472h-7.243C439.961,360.971,443.879,352.171,454.674,352.171z"
	/>
<path fill="#231815" d="M454.674,336.37c10.797,0,14.715,8.8,14.715,14.715h-7.243h3.621l-3.621,0.027
	c-0.027-1.759-0.645-7.498-7.473-7.498c-7.26,0-7.471,6.707-7.471,7.472h-7.243C439.961,345.17,443.879,336.37,454.674,336.37z"/>
<path fill="#231815" d="M454.674,320.569c10.797,0,14.715,8.8,14.715,14.715h-7.243h3.621l-3.621,0.027
	c-0.027-1.759-0.645-7.498-7.473-7.498c-7.26,0-7.471,6.707-7.471,7.472h-7.243C439.961,329.368,443.879,320.569,454.674,320.569z"
	/>
<rect x="439.961" y="324.19" fill="#231815" width="7.243" height="81.501"/>
<path fill="#231815" d="M432.336,383.773c10.795,0,14.714,8.8,14.714,14.715h-7.243h3.621l-3.621,0.027
	c-0.027-1.759-0.645-7.498-7.471-7.498c-7.262,0-7.473,6.707-7.473,7.472h-7.243C417.62,392.572,421.539,383.773,432.336,383.773z"
	/>
<path fill="#231815" d="M432.336,367.972c10.795,0,14.714,8.799,14.714,14.714h-7.243h3.621l-3.621,0.027
	c-0.027-1.759-0.645-7.497-7.471-7.497c-7.262,0-7.473,6.706-7.473,7.471h-7.243C417.62,376.771,421.539,367.972,432.336,367.972z"
	/>
<path fill="#231815" d="M432.336,352.171c10.795,0,14.714,8.8,14.714,14.715h-7.243h3.621l-3.621,0.027
	c-0.027-1.759-0.645-7.498-7.471-7.498c-7.262,0-7.473,6.707-7.473,7.472h-7.243C417.62,360.971,421.539,352.171,432.336,352.171z"
	/>
<path fill="#231815" d="M432.336,336.37c10.795,0,14.714,8.8,14.714,14.715h-7.243h3.621l-3.621,0.027
	c-0.027-1.759-0.645-7.498-7.471-7.498c-7.262,0-7.473,6.707-7.473,7.472h-7.243C417.62,345.17,421.539,336.37,432.336,336.37z"/>
<path fill="#231815" d="M432.336,320.569c10.795,0,14.714,8.8,14.714,14.715h-7.243h3.621l-3.621,0.027
	c-0.027-1.759-0.645-7.498-7.471-7.498c-7.262,0-7.473,6.707-7.473,7.472h-7.243C417.62,329.368,421.539,320.569,432.336,320.569z"
	/>
<rect x="417.62" y="324.19" fill="#231815" width="7.243" height="81.501"/>
<path fill="#231815" d="M409.996,383.773c10.795,0,14.714,8.8,14.714,14.715h-7.243h3.621l-3.621,0.027
	c-0.027-1.759-0.645-7.498-7.471-7.498c-7.262,0-7.473,6.707-7.473,7.472h-7.243C395.28,392.572,399.199,383.773,409.996,383.773z"
	/>
<path fill="#231815" d="M409.996,367.972c10.795,0,14.714,8.799,14.714,14.714h-7.243h3.621l-3.621,0.027
	c-0.027-1.759-0.645-7.497-7.471-7.497c-7.262,0-7.473,6.706-7.473,7.471h-7.243C395.28,376.771,399.199,367.972,409.996,367.972z"
	/>
<path fill="#231815" d="M409.996,352.171c10.795,0,14.714,8.8,14.714,14.715h-7.243h3.621l-3.621,0.027
	c-0.027-1.759-0.645-7.498-7.471-7.498c-7.262,0-7.473,6.707-7.473,7.472h-7.243C395.28,360.971,399.199,352.171,409.996,352.171z"
	/>
<path fill="#231815" d="M409.996,336.37c10.795,0,14.714,8.8,14.714,14.715h-7.243h3.621l-3.621,0.027
	c-0.027-1.759-0.645-7.498-7.471-7.498c-7.262,0-7.473,6.707-7.473,7.472h-7.243C395.28,345.17,399.199,336.37,409.996,336.37z"/>
<path fill="#231815" d="M409.996,320.569c10.795,0,14.714,8.8,14.714,14.715h-7.243h3.621l-3.621,0.027
	c-0.027-1.759-0.645-7.498-7.471-7.498c-7.262,0-7.473,6.707-7.473,7.472h-7.243C395.28,329.368,399.199,320.569,409.996,320.569z"
	/>
<rect x="395.28" y="324.19" fill="#231815" width="7.243" height="81.501"/>
<path fill="#231815" d="M387.656,383.773c10.797,0,14.715,8.8,14.715,14.715h-7.243h3.621l-3.621,0.027
	c-0.027-1.759-0.645-7.498-7.473-7.498c-7.26,0-7.471,6.707-7.471,7.472h-7.243C372.942,392.572,376.86,383.773,387.656,383.773z"/>
<path fill="#231815" d="M387.656,367.972c10.797,0,14.715,8.799,14.715,14.714h-7.243h3.621l-3.621,0.027
	c-0.027-1.759-0.645-7.497-7.473-7.497c-7.26,0-7.471,6.706-7.471,7.471h-7.243C372.942,376.771,376.86,367.972,387.656,367.972z"/>
<path fill="#231815" d="M387.656,352.171c10.797,0,14.715,8.8,14.715,14.715h-7.243h3.621l-3.621,0.027
	c-0.027-1.759-0.645-7.498-7.473-7.498c-7.26,0-7.471,6.707-7.471,7.472h-7.243C372.942,360.971,376.86,352.171,387.656,352.171z"/>
<path fill="#231815" d="M387.656,336.37c10.797,0,14.715,8.8,14.715,14.715h-7.243h3.621l-3.621,0.027
	c-0.027-1.759-0.645-7.498-7.473-7.498c-7.26,0-7.471,6.707-7.471,7.472h-7.243C372.942,345.17,376.86,336.37,387.656,336.37z"/>
<path fill="#231815" d="M387.656,320.569c10.797,0,14.715,8.8,14.715,14.715h-7.243h3.621l-3.621,0.027
	c-0.027-1.759-0.645-7.498-7.473-7.498c-7.26,0-7.471,6.707-7.471,7.472h-7.243C372.942,329.368,376.86,320.569,387.656,320.569z"/>
<rect x="372.942" y="324.19" fill="#231815" width="7.243" height="81.501"/>
<path fill="#231815" d="M365.315,383.773c10.797,0,14.715,8.8,14.715,14.715h-7.243h3.621l-3.621,0.027
	c-0.027-1.759-0.645-7.498-7.473-7.498c-7.26,0-7.471,6.707-7.471,7.472h-7.243C350.602,392.572,354.52,383.773,365.315,383.773z"/>
<path fill="#231815" d="M365.315,367.972c10.797,0,14.715,8.799,14.715,14.714h-7.243h3.621l-3.621,0.027
	c-0.027-1.759-0.645-7.497-7.473-7.497c-7.26,0-7.471,6.706-7.471,7.471h-7.243C350.602,376.771,354.52,367.972,365.315,367.972z"/>
<path fill="#231815" d="M365.315,352.171c10.797,0,14.715,8.8,14.715,14.715h-7.243h3.621l-3.621,0.027
	c-0.027-1.759-0.645-7.498-7.473-7.498c-7.26,0-7.471,6.707-7.471,7.472h-7.243C350.602,360.971,354.52,352.171,365.315,352.171z"/>
<path fill="#231815" d="M365.315,336.37c10.797,0,14.715,8.8,14.715,14.715h-7.243h3.621l-3.621,0.027
	c-0.027-1.759-0.645-7.498-7.473-7.498c-7.26,0-7.471,6.707-7.471,7.472h-7.243C350.602,345.17,354.52,336.37,365.315,336.37z"/>
<path fill="#231815" d="M365.315,320.569c10.797,0,14.715,8.8,14.715,14.715h-7.243h3.621l-3.621,0.027
	c-0.027-1.759-0.645-7.498-7.473-7.498c-7.26,0-7.471,6.707-7.471,7.472h-7.243C350.602,329.368,354.52,320.569,365.315,320.569z"/>
<rect x="350.602" y="324.19" fill="#231815" width="7.243" height="81.501"/>
<path fill="#231815" d="M342.977,383.773c10.795,0,14.714,8.8,14.714,14.715h-7.243h3.621l-3.621,0.027
	c-0.027-1.759-0.645-7.498-7.471-7.498c-7.262,0-7.473,6.707-7.473,7.472h-7.243C328.262,392.572,332.18,383.773,342.977,383.773z"
	/>
<path fill="#231815" d="M342.977,367.972c10.795,0,14.714,8.799,14.714,14.714h-7.243h3.621l-3.621,0.027
	c-0.027-1.759-0.645-7.497-7.471-7.497c-7.262,0-7.473,6.706-7.473,7.471h-7.243C328.262,376.771,332.18,367.972,342.977,367.972z"
	/>
<path fill="#231815" d="M342.977,352.171c10.795,0,14.714,8.8,14.714,14.715h-7.243h3.621l-3.621,0.027
	c-0.027-1.759-0.645-7.498-7.471-7.498c-7.262,0-7.473,6.707-7.473,7.472h-7.243C328.262,360.971,332.18,352.171,342.977,352.171z"
	/>
<path fill="#231815" d="M342.977,336.37c10.795,0,14.714,8.8,14.714,14.715h-7.243h3.621l-3.621,0.027
	c-0.027-1.759-0.645-7.498-7.471-7.498c-7.262,0-7.473,6.707-7.473,7.472h-7.243C328.262,345.17,332.18,336.37,342.977,336.37z"/>
<path fill="#231815" d="M342.977,320.569c10.795,0,14.714,8.8,14.714,14.715h-7.243h3.621l-3.621,0.027
	c-0.027-1.759-0.645-7.498-7.471-7.498c-7.262,0-7.473,6.707-7.473,7.472h-7.243C328.262,329.368,332.18,320.569,342.977,320.569z"
	/>
<rect x="328.262" y="324.19" fill="#231815" width="7.243" height="81.501"/>
<path fill="#231815" d="M320.637,383.773c10.795,0,14.714,8.8,14.714,14.715h-7.243h3.621l-3.621,0.027
	c-0.027-1.759-0.645-7.498-7.471-7.498c-7.262,0-7.473,6.707-7.473,7.472h-7.243C305.921,392.572,309.84,383.773,320.637,383.773z"
	/>
<path fill="#231815" d="M320.637,367.972c10.795,0,14.714,8.799,14.714,14.714h-7.243h3.621l-3.621,0.027
	c-0.027-1.759-0.645-7.497-7.471-7.497c-7.262,0-7.473,6.706-7.473,7.471h-7.243C305.921,376.771,309.84,367.972,320.637,367.972z"
	/>
<path fill="#231815" d="M320.637,352.171c10.795,0,14.714,8.8,14.714,14.715h-7.243h3.621l-3.621,0.027
	c-0.027-1.759-0.645-7.498-7.471-7.498c-7.262,0-7.473,6.707-7.473,7.472h-7.243C305.921,360.971,309.84,352.171,320.637,352.171z"
	/>
<path fill="#231815" d="M320.637,336.37c10.795,0,14.714,8.8,14.714,14.715h-7.243h3.621l-3.621,0.027
	c-0.027-1.759-0.645-7.498-7.471-7.498c-7.262,0-7.473,6.707-7.473,7.472h-7.243C305.921,345.17,309.84,336.37,320.637,336.37z"/>
<path fill="#231815" d="M320.637,320.569c10.795,0,14.714,8.8,14.714,14.715h-7.243h3.621l-3.621,0.027
	c-0.027-1.759-0.645-7.498-7.471-7.498c-7.262,0-7.473,6.707-7.473,7.472h-7.243C305.921,329.368,309.84,320.569,320.637,320.569z"
	/>
<rect x="305.921" y="324.19" fill="#231815" width="7.243" height="81.501"/>
<path fill="#231815" d="M298.297,383.773c10.797,0,14.715,8.8,14.715,14.715h-7.243h3.621l-3.621,0.027
	c-0.027-1.759-0.645-7.498-7.473-7.498c-7.26,0-7.471,6.707-7.471,7.472h-7.243C283.583,392.572,287.501,383.773,298.297,383.773z"
	/>
<path fill="#231815" d="M298.297,367.972c10.797,0,14.715,8.799,14.715,14.714h-7.243h3.621l-3.621,0.027
	c-0.027-1.759-0.645-7.497-7.473-7.497c-7.26,0-7.471,6.706-7.471,7.471h-7.243C283.583,376.771,287.501,367.972,298.297,367.972z"
	/>
<path fill="#231815" d="M298.297,352.171c10.797,0,14.715,8.8,14.715,14.715h-7.243h3.621l-3.621,0.027
	c-0.027-1.759-0.645-7.498-7.473-7.498c-7.26,0-7.471,6.707-7.471,7.472h-7.243C283.583,360.971,287.501,352.171,298.297,352.171z"
	/>
<path fill="#231815" d="M298.297,336.37c10.797,0,14.715,8.8,14.715,14.715h-7.243h3.621l-3.621,0.027
	c-0.027-1.759-0.645-7.498-7.473-7.498c-7.26,0-7.471,6.707-7.471,7.472h-7.243C283.583,345.17,287.501,336.37,298.297,336.37z"/>
<path fill="#231815" d="M298.297,320.569c10.797,0,14.715,8.8,14.715,14.715h-7.243h3.621l-3.621,0.027
	c-0.027-1.759-0.645-7.498-7.473-7.498c-7.26,0-7.471,6.707-7.471,7.472h-7.243C283.583,329.368,287.501,320.569,298.297,320.569z"
	/>
<rect x="283.583" y="324.19" fill="#231815" width="7.243" height="81.501"/>
<path fill="#231815" d="M275.956,383.773c10.797,0,14.715,8.8,14.715,14.715h-7.243h3.621l-3.621,0.027
	c-0.027-1.759-0.645-7.498-7.473-7.498c-7.26,0-7.471,6.707-7.471,7.472h-7.243C261.243,392.572,265.161,383.773,275.956,383.773z"
	/>
<path fill="#231815" d="M275.956,367.972c10.797,0,14.715,8.799,14.715,14.714h-7.243h3.621l-3.621,0.027
	c-0.027-1.759-0.645-7.497-7.473-7.497c-7.26,0-7.471,6.706-7.471,7.471h-7.243C261.243,376.771,265.161,367.972,275.956,367.972z"
	/>
<path fill="#231815" d="M275.956,352.171c10.797,0,14.715,8.8,14.715,14.715h-7.243h3.621l-3.621,0.027
	c-0.027-1.759-0.645-7.498-7.473-7.498c-7.26,0-7.471,6.707-7.471,7.472h-7.243C261.243,360.971,265.161,352.171,275.956,352.171z"
	/>
<path fill="#231815" d="M275.956,336.37c10.797,0,14.715,8.8,14.715,14.715h-7.243h3.621l-3.621,0.027
	c-0.027-1.759-0.645-7.498-7.473-7.498c-7.26,0-7.471,6.707-7.471,7.472h-7.243C261.243,345.17,265.161,336.37,275.956,336.37z"/>
<path fill="#231815" d="M275.956,320.569c10.797,0,14.715,8.8,14.715,14.715h-7.243h3.621l-3.621,0.027
	c-0.027-1.759-0.645-7.498-7.473-7.498c-7.26,0-7.471,6.707-7.471,7.472h-7.243C261.243,329.368,265.161,320.569,275.956,320.569z"
	/>
<rect x="261.243" y="324.19" fill="#231815" width="7.243" height="81.501"/>
<path fill="#231815" d="M253.618,383.773c10.795,0,14.714,8.8,14.714,14.715h-7.243h3.621l-3.621,0.027
	c-0.027-1.759-0.645-7.498-7.471-7.498c-7.262,0-7.473,6.707-7.473,7.472h-7.243C238.903,392.572,242.821,383.773,253.618,383.773z"
	/>
<path fill="#231815" d="M253.618,367.972c10.795,0,14.714,8.799,14.714,14.714h-7.243h3.621l-3.621,0.027
	c-0.027-1.759-0.645-7.497-7.471-7.497c-7.262,0-7.473,6.706-7.473,7.471h-7.243C238.903,376.771,242.821,367.972,253.618,367.972z"
	/>
<path fill="#231815" d="M253.618,352.171c10.795,0,14.714,8.8,14.714,14.715h-7.243h3.621l-3.621,0.027
	c-0.027-1.759-0.645-7.498-7.471-7.498c-7.262,0-7.473,6.707-7.473,7.472h-7.243C238.903,360.971,242.821,352.171,253.618,352.171z"
	/>
<path fill="#231815" d="M253.618,336.37c10.795,0,14.714,8.8,14.714,14.715h-7.243h3.621l-3.621,0.027
	c-0.027-1.759-0.645-7.498-7.471-7.498c-7.262,0-7.473,6.707-7.473,7.472h-7.243C238.903,345.17,242.821,336.37,253.618,336.37z"/>
<path fill="#231815" d="M253.618,320.569c10.795,0,14.714,8.8,14.714,14.715h-7.243h3.621l-3.621,0.027
	c-0.027-1.759-0.645-7.498-7.471-7.498c-7.262,0-7.473,6.707-7.473,7.472h-7.243C238.903,329.368,242.821,320.569,253.618,320.569z"
	/>
<rect x="238.903" y="324.19" fill="#231815" width="7.243" height="81.501"/>
<g>
	<rect x="240.444" y="402.07" fill="#231815" width="227.343" height="7.243"/>
	<path fill="#231815" d="M244.066,412.867c0.027,1.759,0.656,7.499,7.577,7.499s7.55-5.74,7.577-7.499l7.243,0.027
		c0,5.915-3.947,14.715-14.82,14.715s-14.82-8.8-14.82-14.715h7.243h-3.621L244.066,412.867z"/>
	<path fill="#231815" d="M244.066,428.668c0.027,1.759,0.656,7.499,7.577,7.499s7.55-5.74,7.577-7.499l7.243,0.027
		c0,5.915-3.947,14.715-14.82,14.715s-14.82-8.8-14.82-14.715h7.243h-3.621L244.066,428.668z"/>
	<path fill="#231815" d="M244.066,444.469c0.028,1.759,0.656,7.498,7.577,7.498s7.549-5.739,7.577-7.498l7.243,0.027
		c0,5.915-3.947,14.714-14.82,14.714s-14.82-8.799-14.82-14.714h7.243h-3.621L244.066,444.469z"/>
	<path fill="#231815" d="M244.066,460.269c0.027,1.759,0.656,7.499,7.577,7.499s7.55-5.74,7.577-7.499l7.243,0.027
		c0,5.915-3.947,14.715-14.82,14.715s-14.82-8.8-14.82-14.715h7.243h-3.621L244.066,460.269z"/>
	<path fill="#231815" d="M244.066,476.07c0.027,1.759,0.656,7.499,7.577,7.499s7.55-5.74,7.577-7.499l7.243,0.027
		c0,5.915-3.947,14.715-14.82,14.715s-14.82-8.8-14.82-14.715h7.243h-3.621L244.066,476.07z"/>
	<rect x="259.22" y="405.691" fill="#231815" width="7.243" height="81.5"/>
	<path fill="#231815" d="M266.618,412.867c0.027,1.759,0.656,7.499,7.577,7.499c6.921,0,7.55-5.74,7.577-7.499l7.243,0.027
		c0,5.915-3.947,14.715-14.82,14.715c-10.873,0-14.82-8.8-14.82-14.715h7.243h-3.621L266.618,412.867z"/>
	<path fill="#231815" d="M266.618,428.668c0.027,1.759,0.656,7.499,7.577,7.499c6.921,0,7.55-5.74,7.577-7.499l7.243,0.027
		c0,5.915-3.947,14.715-14.82,14.715c-10.873,0-14.82-8.8-14.82-14.715h7.243h-3.621L266.618,428.668z"/>
	<path fill="#231815" d="M266.618,444.469c0.028,1.759,0.656,7.498,7.577,7.498c6.921,0,7.549-5.739,7.577-7.498l7.243,0.027
		c0,5.915-3.947,14.714-14.82,14.714c-10.873,0-14.82-8.799-14.82-14.714h7.243h-3.621L266.618,444.469z"/>
	<path fill="#231815" d="M266.618,460.269c0.027,1.759,0.656,7.499,7.577,7.499c6.921,0,7.55-5.74,7.577-7.499l7.243,0.027
		c0,5.915-3.947,14.715-14.82,14.715c-10.873,0-14.82-8.8-14.82-14.715h7.243h-3.621L266.618,460.269z"/>
	<path fill="#231815" d="M266.618,476.07c0.027,1.759,0.656,7.499,7.577,7.499c6.921,0,7.55-5.74,7.577-7.499l7.243,0.027
		c0,5.915-3.947,14.715-14.82,14.715c-10.873,0-14.82-8.8-14.82-14.715h7.243h-3.621L266.618,476.07z"/>
	<rect x="281.772" y="405.691" fill="#231815" width="7.243" height="81.5"/>
	<path fill="#231815" d="M289.171,412.867c0.027,1.759,0.656,7.499,7.577,7.499s7.55-5.74,7.577-7.499l7.243,0.027
		c0,5.915-3.947,14.715-14.82,14.715s-14.82-8.8-14.82-14.715h7.243h-3.621L289.171,412.867z"/>
	<path fill="#231815" d="M289.171,428.668c0.027,1.759,0.656,7.499,7.577,7.499s7.55-5.74,7.577-7.499l7.243,0.027
		c0,5.915-3.947,14.715-14.82,14.715s-14.82-8.8-14.82-14.715h7.243h-3.621L289.171,428.668z"/>
	<path fill="#231815" d="M289.171,444.469c0.028,1.759,0.656,7.498,7.577,7.498s7.549-5.739,7.577-7.498l7.243,0.027
		c0,5.915-3.947,14.714-14.82,14.714s-14.82-8.799-14.82-14.714h7.243h-3.621L289.171,444.469z"/>
	<path fill="#231815" d="M289.171,460.269c0.027,1.759,0.656,7.499,7.577,7.499s7.55-5.74,7.577-7.499l7.243,0.027
		c0,5.915-3.947,14.715-14.82,14.715s-14.82-8.8-14.82-14.715h7.243h-3.621L289.171,460.269z"/>
	<path fill="#231815" d="M289.171,476.07c0.027,1.759,0.656,7.499,7.577,7.499s7.55-5.74,7.577-7.499l7.243,0.027
		c0,5.915-3.947,14.715-14.82,14.715s-14.82-8.8-14.82-14.715h7.243h-3.621L289.171,476.07z"/>
	<rect x="304.325" y="405.691" fill="#231815" width="7.243" height="81.5"/>
	<path fill="#231815" d="M311.723,412.867c0.027,1.759,0.656,7.499,7.577,7.499c6.921,0,7.55-5.74,7.577-7.499l7.243,0.027
		c0,5.915-3.947,14.715-14.82,14.715c-10.873,0-14.82-8.8-14.82-14.715h7.243h-3.621L311.723,412.867z"/>
	<path fill="#231815" d="M311.723,428.668c0.027,1.759,0.656,7.499,7.577,7.499c6.921,0,7.55-5.74,7.577-7.499l7.243,0.027
		c0,5.915-3.947,14.715-14.82,14.715c-10.873,0-14.82-8.8-14.82-14.715h7.243h-3.621L311.723,428.668z"/>
	<path fill="#231815" d="M311.723,444.469c0.028,1.759,0.656,7.498,7.577,7.498c6.921,0,7.549-5.739,7.577-7.498l7.243,0.027
		c0,5.915-3.947,14.714-14.82,14.714c-10.873,0-14.82-8.799-14.82-14.714h7.243h-3.621L311.723,444.469z"/>
	<path fill="#231815" d="M311.723,460.269c0.027,1.759,0.656,7.499,7.577,7.499c6.921,0,7.55-5.74,7.577-7.499l7.243,0.027
		c0,5.915-3.947,14.715-14.82,14.715c-10.873,0-14.82-8.8-14.82-14.715h7.243h-3.621L311.723,460.269z"/>
	<path fill="#231815" d="M311.723,476.07c0.027,1.759,0.656,7.499,7.577,7.499c6.921,0,7.55-5.74,7.577-7.499l7.243,0.027
		c0,5.915-3.947,14.715-14.82,14.715c-10.873,0-14.82-8.8-14.82-14.715h7.243h-3.621L311.723,476.07z"/>
	<rect x="326.877" y="405.691" fill="#231815" width="7.243" height="81.5"/>
	<path fill="#231815" d="M334.275,412.867c0.027,1.759,0.656,7.499,7.577,7.499s7.55-5.74,7.577-7.499l7.243,0.027
		c0,5.915-3.947,14.715-14.82,14.715s-14.82-8.8-14.82-14.715h7.243h-3.621L334.275,412.867z"/>
	<path fill="#231815" d="M334.275,428.668c0.027,1.759,0.656,7.499,7.577,7.499s7.55-5.74,7.577-7.499l7.243,0.027
		c0,5.915-3.947,14.715-14.82,14.715s-14.82-8.8-14.82-14.715h7.243h-3.621L334.275,428.668z"/>
	<path fill="#231815" d="M334.275,444.469c0.028,1.759,0.656,7.498,7.577,7.498s7.549-5.739,7.577-7.498l7.243,0.027
		c0,5.915-3.947,14.714-14.82,14.714s-14.82-8.799-14.82-14.714h7.243h-3.621L334.275,444.469z"/>
	<path fill="#231815" d="M334.275,460.269c0.027,1.759,0.656,7.499,7.577,7.499s7.55-5.74,7.577-7.499l7.243,0.027
		c0,5.915-3.947,14.715-14.82,14.715s-14.82-8.8-14.82-14.715h7.243h-3.621L334.275,460.269z"/>
	<path fill="#231815" d="M334.275,476.07c0.027,1.759,0.656,7.499,7.577,7.499s7.55-5.74,7.577-7.499l7.243,0.027
		c0,5.915-3.947,14.715-14.82,14.715s-14.82-8.8-14.82-14.715h7.243h-3.621L334.275,476.07z"/>
	<rect x="349.429" y="405.691" fill="#231815" width="7.243" height="81.5"/>
	<path fill="#231815" d="M356.828,412.867c0.028,1.759,0.656,7.499,7.577,7.499c7.367,0,7.579-6.707,7.579-7.472h7.243
		c0,5.915-3.947,14.715-14.822,14.715c-10.873,0-14.82-8.8-14.82-14.715h7.243h-3.621L356.828,412.867z"/>
	<path fill="#231815" d="M356.828,428.668c0.028,1.759,0.656,7.499,7.577,7.499c7.367,0,7.579-6.707,7.579-7.472h7.243
		c0,5.915-3.947,14.715-14.822,14.715c-10.873,0-14.82-8.8-14.82-14.715h7.243h-3.621L356.828,428.668z"/>
	<path fill="#231815" d="M356.828,444.469c0.028,1.759,0.656,7.498,7.577,7.498c7.367,0,7.579-6.706,7.579-7.471h7.243
		c0,5.915-3.947,14.714-14.822,14.714c-10.873,0-14.82-8.799-14.82-14.714h7.243h-3.621L356.828,444.469z"/>
	<path fill="#231815" d="M356.828,460.269c0.028,1.759,0.656,7.499,7.577,7.499c7.367,0,7.579-6.707,7.579-7.472h7.243
		c0,5.915-3.947,14.715-14.822,14.715c-10.873,0-14.82-8.8-14.82-14.715h7.243h-3.621L356.828,460.269z"/>
	<path fill="#231815" d="M356.828,476.07c0.028,1.759,0.656,7.499,7.577,7.499c7.367,0,7.579-6.707,7.579-7.472h7.243
		c0,5.915-3.947,14.715-14.822,14.715c-10.873,0-14.82-8.8-14.82-14.715h7.243h-3.621L356.828,476.07z"/>
	<rect x="371.983" y="405.691" fill="#231815" width="7.243" height="81.5"/>
	<path fill="#231815" d="M379.38,412.867c0.028,1.759,0.656,7.499,7.577,7.499c7.367,0,7.579-6.707,7.579-7.472h7.243
		c0,5.915-3.947,14.715-14.822,14.715c-10.873,0-14.82-8.8-14.82-14.715h7.243h-3.621L379.38,412.867z"/>
	<path fill="#231815" d="M379.38,428.668c0.028,1.759,0.656,7.499,7.577,7.499c7.367,0,7.579-6.707,7.579-7.472h7.243
		c0,5.915-3.947,14.715-14.822,14.715c-10.873,0-14.82-8.8-14.82-14.715h7.243h-3.621L379.38,428.668z"/>
	<path fill="#231815" d="M379.38,444.469c0.028,1.759,0.656,7.498,7.577,7.498c7.367,0,7.579-6.706,7.579-7.471h7.243
		c0,5.915-3.947,14.714-14.822,14.714c-10.873,0-14.82-8.799-14.82-14.714h7.243h-3.621L379.38,444.469z"/>
	<path fill="#231815" d="M379.38,460.269c0.028,1.759,0.656,7.499,7.577,7.499c7.367,0,7.579-6.707,7.579-7.472h7.243
		c0,5.915-3.947,14.715-14.822,14.715c-10.873,0-14.82-8.8-14.82-14.715h7.243h-3.621L379.38,460.269z"/>
	<path fill="#231815" d="M379.38,476.07c0.028,1.759,0.656,7.499,7.577,7.499c7.367,0,7.579-6.707,7.579-7.472h7.243
		c0,5.915-3.947,14.715-14.822,14.715c-10.873,0-14.82-8.8-14.82-14.715h7.243h-3.621L379.38,476.07z"/>
	<rect x="394.536" y="405.691" fill="#231815" width="7.243" height="81.5"/>
	<path fill="#231815" d="M401.932,412.867c0.028,1.759,0.656,7.499,7.579,7.499c6.921,0,7.55-5.74,7.577-7.499l7.243,0.027
		c0,5.915-3.947,14.715-14.82,14.715c-10.875,0-14.822-8.8-14.822-14.715h7.243h-3.621L401.932,412.867z"/>
	<path fill="#231815" d="M401.932,428.668c0.028,1.759,0.656,7.499,7.579,7.499c6.921,0,7.55-5.74,7.577-7.499l7.243,0.027
		c0,5.915-3.947,14.715-14.82,14.715c-10.875,0-14.822-8.8-14.822-14.715h7.243h-3.621L401.932,428.668z"/>
	<path fill="#231815" d="M401.932,444.469c0.028,1.759,0.656,7.498,7.579,7.498c6.921,0,7.549-5.739,7.577-7.498l7.243,0.027
		c0,5.915-3.947,14.714-14.82,14.714c-10.875,0-14.822-8.799-14.822-14.714h7.243h-3.621L401.932,444.469z"/>
	<path fill="#231815" d="M401.932,460.269c0.028,1.759,0.656,7.499,7.579,7.499c6.921,0,7.55-5.74,7.577-7.499l7.243,0.027
		c0,5.915-3.947,14.715-14.82,14.715c-10.875,0-14.822-8.8-14.822-14.715h7.243h-3.621L401.932,460.269z"/>
	<path fill="#231815" d="M401.932,476.07c0.028,1.759,0.656,7.499,7.579,7.499c6.921,0,7.55-5.74,7.577-7.499l7.243,0.027
		c0,5.915-3.947,14.715-14.82,14.715c-10.875,0-14.822-8.8-14.822-14.715h7.243h-3.621L401.932,476.07z"/>
	<rect x="417.088" y="405.691" fill="#231815" width="7.243" height="81.5"/>
	<path fill="#231815" d="M424.487,412.867c0.027,1.759,0.656,7.499,7.577,7.499c6.921,0,7.55-5.74,7.577-7.499l7.243,0.027
		c0,5.915-3.947,14.715-14.82,14.715c-10.873,0-14.82-8.8-14.82-14.715h7.243h-3.621L424.487,412.867z"/>
	<path fill="#231815" d="M424.487,428.668c0.027,1.759,0.656,7.499,7.577,7.499c6.921,0,7.55-5.74,7.577-7.499l7.243,0.027
		c0,5.915-3.947,14.715-14.82,14.715c-10.873,0-14.82-8.8-14.82-14.715h7.243h-3.621L424.487,428.668z"/>
	<path fill="#231815" d="M424.487,444.469c0.028,1.759,0.656,7.498,7.577,7.498c6.921,0,7.549-5.739,7.577-7.498l7.243,0.027
		c0,5.915-3.947,14.714-14.82,14.714c-10.873,0-14.82-8.799-14.82-14.714h7.243h-3.621L424.487,444.469z"/>
	<path fill="#231815" d="M424.487,460.269c0.027,1.759,0.656,7.499,7.577,7.499c6.921,0,7.55-5.74,7.577-7.499l7.243,0.027
		c0,5.915-3.947,14.715-14.82,14.715c-10.873,0-14.82-8.8-14.82-14.715h7.243h-3.621L424.487,460.269z"/>
	<path fill="#231815" d="M424.487,476.07c0.027,1.759,0.656,7.499,7.577,7.499c6.921,0,7.55-5.74,7.577-7.499l7.243,0.027
		c0,5.915-3.947,14.715-14.82,14.715c-10.873,0-14.82-8.8-14.82-14.715h7.243h-3.621L424.487,476.07z"/>
	<rect x="439.641" y="405.691" fill="#231815" width="7.243" height="81.5"/>
	<path fill="#231815" d="M447.039,412.867c0.027,1.759,0.656,7.499,7.577,7.499c6.921,0,7.55-5.74,7.577-7.499l7.243,0.027
		c0,5.915-3.947,14.715-14.82,14.715c-10.873,0-14.82-8.8-14.82-14.715h7.243h-3.621L447.039,412.867z"/>
	<path fill="#231815" d="M447.039,428.668c0.027,1.759,0.656,7.499,7.577,7.499c6.921,0,7.55-5.74,7.577-7.499l7.243,0.027
		c0,5.915-3.947,14.715-14.82,14.715c-10.873,0-14.82-8.8-14.82-14.715h7.243h-3.621L447.039,428.668z"/>
	<path fill="#231815" d="M447.039,444.469c0.028,1.759,0.656,7.498,7.577,7.498c6.921,0,7.549-5.739,7.577-7.498l7.243,0.027
		c0,5.915-3.947,14.714-14.82,14.714c-10.873,0-14.82-8.799-14.82-14.714h7.243h-3.621L447.039,444.469z"/>
	<path fill="#231815" d="M447.039,460.269c0.027,1.759,0.656,7.499,7.577,7.499c6.921,0,7.55-5.74,7.577-7.499l7.243,0.027
		c0,5.915-3.947,14.715-14.82,14.715c-10.873,0-14.82-8.8-14.82-14.715h7.243h-3.621L447.039,460.269z"/>
	<path fill="#231815" d="M447.039,476.07c0.027,1.759,0.656,7.499,7.577,7.499c6.921,0,7.55-5.74,7.577-7.499l7.243,0.027
		c0,5.915-3.947,14.715-14.82,14.715c-10.873,0-14.82-8.8-14.82-14.715h7.243h-3.621L447.039,476.07z"/>
	<rect x="462.193" y="405.691" fill="#231815" width="7.243" height="81.5"/>
</g>
<g>
	
		<rect x="240.57" y="398.487" transform="matrix(-1 -1.224647e-16 1.224647e-16 -1 706.3846 811.3813)" fill="#FFFFFF" width="225.244" height="14.407"/>
	<path fill="#231815" d="M236.949,394.866h232.487v21.65H236.949V394.866z M462.193,402.109H244.191v7.164h218.002V402.109z"/>
</g>
<g>
	<rect x="339.764" y="305.311" fill="#231815" width="126.004" height="7.243"/>
</g>
<g>
	<rect x="339.81" y="291.386" fill="#231815" width="126.004" height="7.243"/>
</g>
<g>
	<rect x="339.858" y="277.461" fill="#231815" width="126.003" height="7.243"/>
</g>
<g>
	<rect x="339.904" y="263.535" fill="#231815" width="126.003" height="7.243"/>
</g>
<g>
	<rect x="339.95" y="249.61" fill="#231815" width="126.004" height="7.243"/>
</g>
<g>
	<rect x="339.996" y="235.685" fill="#231815" width="126.004" height="7.243"/>
</g>
<g>
	<rect x="340.042" y="221.759" fill="#231815" width="126.004" height="7.243"/>
</g>
<g>
	<rect x="340.089" y="207.834" fill="#231815" width="126.003" height="7.243"/>
</g>
<g>
	<path fill="#231815" d="M610.172,362.817h53.525v86.959h-53.525V362.817z M656.454,370.06h-39.04v72.473h39.04V370.06z"/>
</g>
<g>
	<path fill="#231815" d="M610.172,263.009h53.525v86.959h-53.525V263.009z M656.454,270.252h-39.04v72.474h39.04V270.252z"/>
</g>
<g>
	<path fill="#231815" d="M610.172,163.202h53.525v86.959h-53.525V163.202z M656.454,170.444h-39.04v72.474h39.04V170.444z"/>
</g>
<g>
	<path fill="#231815" d="M610.172,63.395h53.525v86.959h-53.525V63.395z M656.454,70.638h-39.04v72.473h39.04V70.638z"/>
</g>
<g>
	<path fill="#231815" d="M514.122,260.079h53.527v86.959h-53.527V260.079z M560.407,267.322h-39.041v72.473h39.041V267.322z"/>
</g>
<g>
	<path fill="#231815" d="M514.122,160.272h53.527v86.959h-53.527V160.272z M560.407,167.514h-39.041v72.474h39.041V167.514z"/>
</g>
<g>
	<path fill="#231815" d="M514.122,60.464h53.527v86.959h-53.527V60.464z M560.407,67.707h-39.041v72.474h39.041V67.707z"/>
</g>
<g>
	<path fill="#231815" d="M514.122,423.122h53.527v53.525h-53.527V423.122z M560.407,430.365h-39.041v39.04h39.041V430.365z"/>
</g>
<g>
	<path fill="#231815" d="M514.122,359.522h53.527v53.525h-53.527V359.522z M560.407,366.765h-39.041v39.04h39.041V366.765z"/>
</g>
<g>
	<rect x="514.387" y="53.109" fill="#231815" width="7.243" height="9.053"/>
	<rect x="514.387" y="36.48" fill="#231815" width="7.243" height="11.086"/>
	<rect x="514.387" y="21.884" fill="#231815" width="7.243" height="9.053"/>
</g>
<g>
	<rect x="656.454" y="54.433" fill="#231815" width="7.243" height="9.053"/>
	<rect x="656.454" y="37.804" fill="#231815" width="7.243" height="11.086"/>
	<rect x="656.454" y="23.208" fill="#231815" width="7.243" height="9.053"/>
</g>
<line fill="none" stroke="#231815" stroke-width="7.4742" stroke-miterlimit="10" x1="122.84" y1="487.191" x2="241.09" y2="487.191"/>
<line fill="none" stroke="#231815" stroke-width="7.4742" stroke-miterlimit="10" x1="656.454" y1="483.483" x2="733.583" y2="483.483"/>
<g>
	
		<line fill="none" stroke="#231815" stroke-width="1.8685" stroke-miterlimit="10" x1="584.794" y1="488.789" x2="584.794" y2="169.259"/>
	<polygon fill="#231815" points="584.794,163.16 577.752,175.357 591.835,175.357 	"/>
</g>
<g>
	
		<line fill="none" stroke="#231815" stroke-width="1.8685" stroke-miterlimit="10" x1="488.032" y1="488.789" x2="488.032" y2="169.259"/>
	<polygon fill="#231815" points="488.032,163.16 480.99,175.357 495.074,175.357 	"/>
</g>
<g>
	<path fill="#231815" d="M90.994,197.355l1.4,0.729l-3.885,9.095h-2.035l-0.803-1.513h1.755L90.994,197.355z M86.417,194.199h10.14
		l-2.277,5.341l-1.401-0.747l1.327-3.118h-7.788V194.199z"/>
	<path fill="#231815" d="M115.02,201.389h-10.272v-1.625h10.272V201.389z"/>
	<path fill="#231815" d="M133.275,197.878v1.475h-3.005l-3.12,7.825h-2.54l-0.783-1.494h2.202l2.54-6.331h-4.799v-1.475H133.275z
		 M132.79,194.311v1.494h-7.376v-1.494H132.79z"/>
	<path fill="#231815" d="M151.532,195.712v2.353l-3.064,1.214v8.273h-1.438v-7.694l-3.436,1.382l-0.69-1.27l7.226-2.895v-1.363
		H151.532z"/>
	<path fill="#231815" d="M171.3,207.178h-1.717l-2.746-6.424l-2.744,6.424h-2.726l-0.748-1.382h2.354l4.239-9.86h-5.64v-1.55h7.994
		l-1.869,4.369L171.3,207.178z"/>
	<path fill="#231815" d="M189.127,200.362l-0.728,1.381l-4.651-2.016v7.601h-1.588v-13.279h1.588v4.015L189.127,200.362z"/>
	<path fill="#231815" d="M202.191,201.202l-1.064,0.598v6.274h-1.531v-5.397l-1.925,1.102v-1.719l1.925-1.101v-3.978h-0.524
		l-0.261,1.886l-1.458-0.765l0.635-4.463h1.569l-0.279,1.886h0.318v-2.465h1.531v2.465h0.989v1.457h-0.989v3.1l0.372-0.205
		L202.191,201.202z M204.413,195.619h4.799l-0.279,12.475h-1.606l0.204-9.002l-3.343,9.02l-0.971-1.811l3.454-9.301h-0.54
		l-3.157,8.554l-0.953-1.793l2.502-6.761h-0.615l-0.655,1.775h-1.681l2.111-5.715h1.681L204.413,195.619z"/>
	<path fill="#231815" d="M216.134,207.421l0.914-2.671h1.476l-1.14,3.343L216.134,207.421z M220.727,193.377v10.552h-4.089v-10.552
		H220.727z M219.457,196.384v-1.793h-1.513v1.793H219.457z M219.457,199.279v-1.662h-1.513v1.662H219.457z M219.457,202.715v-2.185
		h-1.513v2.185H219.457z M218.86,204.545h1.42l0.69,1.793l-1.175,0.635L218.86,204.545z M225.639,202.565l2.204,4.874l-1.29,0.672
		l-1.792-3.978l-2.036,3.978l-1.27-0.691l2.54-4.986l-1.102-2.447l-0.728,3.119l-1.288-0.692l0.841-3.623v-5.565h5.976v1.326h-4.52
		v2.651h4.257v1.849L225.639,202.565z M223.566,198.494l1.213,2.671l1.363-2.671H223.566z"/>
	<path fill="#231815" d="M241.485,205.18h3.941v1.494h-9.487v-1.494h3.958v-8.161h-3.454v-1.494h8.498v1.494h-3.456V205.18z"/>
	<path fill="#231815" d="M259.014,194.871l-3.325,7.713l-1.345-0.747l3.306-7.694L259.014,194.871z M263.028,193.788l1.42,0.746
		l-5.434,12.625h-2.971l-0.746-1.381h2.597L263.028,193.788z"/>
	<path fill="#231815" d="M277.849,197.355l1.4,0.729l-3.885,9.095h-2.035l-0.803-1.513h1.755L277.849,197.355z M273.272,194.199
		h10.14l-2.277,5.341l-1.401-0.747l1.327-3.118h-7.788V194.199z"/>
</g>
<g>
	<path fill="#231815" d="M88.005,236.551l1.12-0.523l0.599,1.101l-4.37,2.036v-1.737l1.157-0.523v-5.64h-1.157v-1.419h1.157v-3.623
		h1.494v3.623h1.159v1.419h-1.159V236.551z M91.777,231.303v7.863h5.305v1.587h-6.836v-8.964l-0.261,0.075l-0.746-1.419l1.007-0.299
		v-3.81h1.531v3.325l0.991-0.318v-3.287h1.494v2.82l2.837-0.878l-0.914,8.273l-1.531-0.822l0.578-5.211l-0.971,0.299v4.258h-1.494
		v-3.791L91.777,231.303z"/>
	<path fill="#231815" d="M115.524,232.442h-3.604v6.966h3.604v1.494h-5.173v-8.46h-0.989l-3.941,8.702l-1.42-0.747l3.606-7.955
		h-3.363v-1.532h11.281V232.442z M114.123,226.877v1.532h-8.478v-1.532H114.123z"/>
	<path fill="#231815" d="M127.449,234.198l-1.064,0.598v6.274h-1.531v-5.397l-1.925,1.102v-1.719l1.925-1.101v-3.978h-0.524
		l-0.261,1.886l-1.458-0.765l0.635-4.463h1.569l-0.279,1.886h0.318v-2.465h1.531v2.465h0.989v1.457h-0.989v3.1l0.372-0.205
		L127.449,234.198z M129.671,228.614h4.799l-0.279,12.475h-1.606l0.204-9.002l-3.343,9.02l-0.971-1.811l3.454-9.301h-0.54
		l-3.157,8.554l-0.953-1.793l2.502-6.761h-0.615l-0.655,1.775h-1.681l2.111-5.715h1.681L129.671,228.614z"/>
	<path fill="#231815" d="M143.633,231.135v4.874l-1.102,1.849l-1.381-0.747l0.932-1.568v-5.771h2.708l-0.803-1.345h-2.129v-1.382
		h4.651v-0.99h1.494v0.99h4.649v1.382h-1.998l-0.785,1.345h2.819v1.363H143.633z M149.178,239.594h3.867v1.382h-9.75v-1.382h4.352
		v-2.483h-2.129v-1.345h2.129v-1.905h-1.662l-0.914,1.513l-1.252-0.672l1.794-3.006h1.681l-0.485,0.803h0.839v-1.008h1.531v1.008
		h2.578v1.363h-2.578v1.905h2.129v1.345h-2.129V239.594z M145.724,228.427l0.524,0.878l-0.859,0.467h2.708l0.803-1.345H145.724z"/>
	<path fill="#231815" d="M166.743,238.175h3.941v1.494h-9.487v-1.494h3.958v-8.161h-3.454v-1.494h8.498v1.494h-3.456V238.175z"/>
	<path fill="#231815" d="M184.272,227.867l-3.325,7.713l-1.345-0.747l3.306-7.694L184.272,227.867z M188.286,226.784l1.42,0.746
		l-5.434,12.625h-2.971l-0.746-1.381h2.597L188.286,226.784z"/>
	<path fill="#231815" d="M203.107,230.35l1.4,0.729l-3.885,9.095h-2.035l-0.803-1.513h1.755L203.107,230.35z M198.53,227.194h10.14
		l-2.277,5.341l-1.401-0.747l1.327-3.119h-7.788V227.194z"/>
</g>
<g>
	<path fill="#231815" d="M95.868,263.065h-4.053l0.859,2.167h3.193v1.475h-2.578l2.336,5.901l-1.401,0.747l-2.651-6.648h-5.042
		v-1.475h4.443l-0.878-2.167h-3.566v-1.475h2.987l-0.485-1.233l1.401-0.747l0.783,1.98h4.651V263.065z"/>
	<path fill="#231815" d="M107.232,262.561v3.866h-1.327v-3.866H107.232z M112.984,263.98l1.308,0.692l-3.681,8.572h-3.865
		l-0.71-1.307h3.547L112.984,263.98z M109.585,262.561v3.866h-1.343v-3.866H109.585z"/>
	<path fill="#231815" d="M133.275,264.466v1.494h-3.268l-2.876,7.209h-2.166l-0.785-1.494h1.887l2.277-5.714h-4.575v-1.494h5.155
		l1.082-2.671h-4.593v-1.494h7.376v1.494h-1.12l-1.064,2.671H133.275z"/>
	<path fill="#231815" d="M146.527,261.067v1.606h-4.182v-1.606H146.527z M150.972,260.077l1.438,0.765l-5.284,12.326h-3.699
		l-0.728-1.401h3.268L150.972,260.077z"/>
	<path fill="#231815" d="M168.238,261.627h2.204v11.522h-1.569v-10.028h-1.213l-3.941,9.86h-2.688l-0.766-1.456h2.316l3.379-8.404
		h-4.482v-1.494h5.062l0.821-2.036l1.401,0.747L168.238,261.627z"/>
	<path fill="#231815" d="M189.762,267.38h-10.272v-1.625h10.272V267.38z"/>
	<path fill="#231815" d="M204.114,271.171h3.941v1.494h-9.487v-1.494h3.958v-8.161h-3.454v-1.494h8.498v1.494h-3.456V271.171z"/>
	<path fill="#231815" d="M221.643,260.862l-3.325,7.713l-1.345-0.747l3.306-7.694L221.643,260.862z M225.657,259.779l1.42,0.746
		l-5.434,12.625h-2.971l-0.746-1.381h2.597L225.657,259.779z"/>
	<path fill="#231815" d="M240.478,263.345l1.4,0.729l-3.885,9.095h-2.035l-0.803-1.513h1.755L240.478,263.345z M235.901,260.189
		h10.14l-2.277,5.341l-1.401-0.747l1.327-3.119h-7.788V260.189z"/>
</g>
<g>
	<path fill="#58C2E7" d="M554.801,435.971v27.828h-27.83v-27.828H554.801 M560.407,430.365h-39.041v39.04h39.041V430.365
		L560.407,430.365z"/>
</g>
<g>
	<path fill="#58C2E7" d="M554.801,372.37v27.828h-27.83V372.37H554.801 M560.407,366.765h-39.041v39.04h39.041V366.765
		L560.407,366.765z"/>
</g>
<g>
	<path fill="#58C2E7" d="M75.154,196.794v8.496h-8.497v-8.496H75.154 M80.759,191.188H61.051v19.708h19.709V191.188L80.759,191.188z
		"/>
</g>
<g>
	<g>
		<path fill="#E74692" d="M75.154,229.789v8.496h-8.497v-8.496H75.154 M80.759,224.184H61.051v19.708h19.709V224.184L80.759,224.184
			z"/>
	</g>
</g>
<g>
	<g>
		<path fill="#7CBC27" d="M75.154,262.784v8.496h-8.497v-8.496H75.154 M80.759,257.179H61.051v19.708h19.709V257.179L80.759,257.179
			z"/>
	</g>
</g>
<g>
	<path fill="#E74692" d="M554.801,272.928v61.262h-27.83v-61.262H554.801 M560.407,267.322h-39.041v72.473h39.041V267.322
		L560.407,267.322z"/>
</g>
<g>
	<path fill="#E74692" d="M554.801,173.121v61.262h-27.83v-61.262H554.801 M560.407,167.515h-39.041v72.473h39.041V167.515
		L560.407,167.515z"/>
</g>
<g>
	<path fill="#E74692" d="M554.801,73.314v61.262h-27.83V73.314H554.801 M560.407,67.709h-39.041v72.473h39.041V67.709
		L560.407,67.709z"/>
</g>
<g>
	<path fill="#7CBC27" d="M650.848,375.665v61.262h-27.83v-61.262H650.848 M656.454,370.06h-39.041v72.473h39.041V370.06
		L656.454,370.06z"/>
</g>
<g>
	<path fill="#7CBC27" d="M650.848,275.859v61.262h-27.83v-61.262H650.848 M656.454,270.253h-39.041v72.473h39.041V270.253
		L656.454,270.253z"/>
</g>
<g>
	<path fill="#7CBC27" d="M650.848,176.052v61.262h-27.83v-61.262H650.848 M656.454,170.446h-39.041v72.473h39.041V170.446
		L656.454,170.446z"/>
</g>
<g>
	<path fill="#7CBC27" d="M650.848,76.243v61.262h-27.83V76.243H650.848 M656.454,70.638h-39.041v72.473h39.041V70.638
		L656.454,70.638z"/>
</g>
<g>
	<rect x="334.661" y="112.653" fill="#FFFFFF" width="153.034" height="37.966"/>
	<g>
		<polyline fill="none" stroke="#231815" stroke-width="4.6714" stroke-miterlimit="10" points="487.695,141.276 487.695,150.619 
			478.353,150.619 		"/>
		
			<line fill="none" stroke="#231815" stroke-width="4.6714" stroke-miterlimit="10" stroke-dasharray="20.669,10.3345" x1="468.018" y1="150.619" x2="349.171" y2="150.619"/>
		<polyline fill="none" stroke="#231815" stroke-width="4.6714" stroke-miterlimit="10" points="344.004,150.619 334.661,150.619 
			334.661,141.276 		"/>
		
			<line fill="none" stroke="#231815" stroke-width="4.6714" stroke-miterlimit="10" stroke-dasharray="9.6401,4.82" x1="334.661" y1="136.456" x2="334.661" y2="124.406"/>
		<polyline fill="none" stroke="#231815" stroke-width="4.6714" stroke-miterlimit="10" points="334.661,121.996 334.661,112.653 
			344.004,112.653 		"/>
		
			<line fill="none" stroke="#231815" stroke-width="4.6714" stroke-miterlimit="10" stroke-dasharray="20.669,10.3345" x1="354.338" y1="112.653" x2="473.185" y2="112.653"/>
		<polyline fill="none" stroke="#231815" stroke-width="4.6714" stroke-miterlimit="10" points="478.353,112.653 487.695,112.653 
			487.695,121.996 		"/>
		
			<line fill="none" stroke="#231815" stroke-width="4.6714" stroke-miterlimit="10" stroke-dasharray="9.6401,4.82" x1="487.695" y1="126.816" x2="487.695" y2="138.866"/>
	</g>
</g>
<g>
	<path fill="#231815" d="M359.652,131.724l1.513-0.803v8.498h-8.328v-8.293h-0.617v-1.363h0.617v-1.381h-0.617v-1.345h0.617v-1.214
		h1.513v1.214h4.5v1.345h-4.5v1.381h4.5v1.363h-4.5v6.817h5.303V131.724z"/>
	<path fill="#231815" d="M372.568,132.041l7.115,6.518l-1.456,0.765l-7.918-7.264l6.89-6.294l1.401,0.747L372.568,132.041z
		 M379.646,131.406l-1.064,0.561l-1.177-2.764l1.046-0.541L379.646,131.406z M381.383,130.996l-1.066,0.56l-1.139-2.633l1.046-0.578
		L381.383,130.996z"/>
	<path fill="#231815" d="M397.023,131.724l1.513-0.803v8.498h-8.328v-8.293h-0.617v-1.363h0.617v-1.381h-0.617v-1.345h0.617v-1.214
		h1.513v1.214h4.5v1.345h-4.5v1.381h4.5v1.363h-4.5v6.817h5.303V131.724z"/>
	<path fill="#231815" d="M409.939,132.041l7.115,6.518l-1.456,0.765l-7.918-7.264l6.89-6.294l1.401,0.747L409.939,132.041z
		 M417.017,131.406l-1.064,0.561l-1.177-2.764l1.046-0.541L417.017,131.406z M418.754,130.996l-1.066,0.56l-1.139-2.633l1.046-0.578
		L418.754,130.996z"/>
	<path fill="#231815" d="M431.986,137.271h3.941v1.494h-9.487v-1.494h3.958v-8.161h-3.454v-1.494h8.498v1.494h-3.456V137.271z"/>
	<path fill="#231815" d="M449.514,126.962l-3.325,7.713l-1.345-0.747l3.306-7.694L449.514,126.962z M453.529,125.879l1.42,0.746
		l-5.434,12.625h-2.971l-0.746-1.381h2.597L453.529,125.879z"/>
	<path fill="#231815" d="M468.349,129.446l1.4,0.729l-3.885,9.095h-2.035l-0.803-1.513h1.755L468.349,129.446z M463.773,126.29
		h10.14l-2.277,5.341l-1.401-0.747l1.327-3.119h-7.788V126.29z"/>
</g>
<g>
	<g>
		<polyline fill="none" stroke="#231815" stroke-width="5.6056" stroke-miterlimit="10" points="743,493.841 743,503.184 
			733.657,503.184 		"/>
		
			<line fill="none" stroke="#231815" stroke-width="5.6056" stroke-miterlimit="10" stroke-dasharray="18.7216,9.3608" x1="724.296" y1="503.184" x2="26.917" y2="503.184"/>
		<polyline fill="none" stroke="#231815" stroke-width="5.6056" stroke-miterlimit="10" points="22.236,503.184 12.894,503.184 
			12.894,493.841 		"/>
		
			<line fill="none" stroke="#231815" stroke-width="5.6056" stroke-miterlimit="10" stroke-dasharray="19.2389,9.6195" x1="12.894" y1="484.222" x2="12.894" y2="27.297"/>
		<polyline fill="none" stroke="#231815" stroke-width="5.6056" stroke-miterlimit="10" points="12.894,22.487 12.894,13.145 
			22.236,13.145 		"/>
		
			<line fill="none" stroke="#231815" stroke-width="5.6056" stroke-miterlimit="10" stroke-dasharray="18.7216,9.3608" x1="31.597" y1="13.145" x2="728.977" y2="13.145"/>
		<polyline fill="none" stroke="#231815" stroke-width="5.6056" stroke-miterlimit="10" points="733.657,13.145 743,13.145 
			743,22.487 		"/>
		
			<line fill="none" stroke="#231815" stroke-width="5.6056" stroke-miterlimit="10" stroke-dasharray="19.2389,9.6195" x1="743" y1="32.107" x2="743" y2="489.032"/>
	</g>
</g>
<g>
</g>
<g>
</g>
<g>
</g>
<g>
</g>
<g>
</g>
<g>
</g>
<g>
</g>
<g>
</g>
<g>
</g>
<g>
</g>
<g>
</g>
<g>
</g>
<g>
</g>
<g>
</g>
<g>
</g>
</svg>
