<?xml version="1.0" encoding="utf-8"?>
<!-- Generator: Adobe Illustrator 22.1.0, SVG Export Plug-In . SVG Version: 6.00 Build 0)  -->
<svg version="1.1" xmlns="http://www.w3.org/2000/svg" xmlns:xlink="http://www.w3.org/1999/xlink" x="0px" y="0px"
	 viewBox="0 0 197.579 141.732" enable-background="new 0 0 197.579 141.732" xml:space="preserve">
<g id="レイヤー_2">
	<g>
		<g>
			<path fill="#F8C8AE" d="M117.662,77.921c0.555-3.307,0.637-6.623-0.565-9.82c-0.672-1.788-1.676-3.546-3.447-4.482
				c-1.691-0.893-3.914-1.458-5.779-0.756c-3.078,1.158-5.74,2.945-7.308,5.949c-1.637,3.134-1.128,6.48,1.173,9.089
				c0.076,0.086,0.152,0.173,0.229,0.259c-0.391-0.506-0.782-1.012-1.173-1.518c0.211,0.295,0.367,0.565,0.517,0.895
				c-0.252-0.597-0.504-1.194-0.756-1.792c0.117,0.343,0.189,0.647,0.238,1.006c-0.089-0.665-0.179-1.329-0.268-1.994
				c0.004,0.115,0.008,0.23,0.012,0.345c0.131,3.917,3.356,7.686,7.5,7.5c3.951-0.177,7.641-3.3,7.5-7.5
				c-0.102-3.05-1.19-5.539-3.192-7.809c0.391,3.03,0.782,6.059,1.173,9.089c0.168-0.322,0.343-0.603,0.557-0.896
				c-0.391,0.506-0.782,1.012-1.173,1.518c0.234-0.276,0.467-0.514,0.738-0.754c-0.506,0.391-1.012,0.782-1.518,1.173
				c0.382-0.292,0.765-0.525,1.201-0.728c-0.597,0.252-1.194,0.504-1.792,0.756c0.11-0.041,0.22-0.083,0.33-0.124
				c-3.075-1.746-6.151-3.492-9.226-5.238c0.302,0.803,0.513,1.607,0.647,2.455c-0.089-0.665-0.179-1.329-0.268-1.994
				c0.117,0.999,0.114,1.961-0.011,2.959c0.089-0.665,0.179-1.329,0.268-1.994c-0.023,0.139-0.047,0.279-0.07,0.418
				c-0.343,2.044-0.327,3.928,0.756,5.779c0.91,1.556,2.694,3.039,4.482,3.447c1.92,0.437,4.075,0.343,5.779-0.756
				C115.76,81.407,117.344,79.812,117.662,77.921L117.662,77.921z"/>
		</g>
	</g>
	<g>
		<g>
			<path fill="#F8C8AE" d="M32.617,84.278c24.007,0,48.014,0,72.021,0c9.652,0,9.668-15,0-15c-24.007,0-48.014,0-72.021,0
				C22.965,69.278,22.949,84.278,32.617,84.278L32.617,84.278z"/>
		</g>
	</g>
	<g>
		<g>
			<path fill="#F8C8AE" d="M114.013,71.168c-0.357-0.118-0.711-0.244-1.062-0.377c0.914,0.404,1.002,0.416,0.266,0.039
				c0.728,0.594,1.252,1.259,1.495,2.183c0.201,0.753,0.19,1.502-0.035,2.249c0.227-0.759,0.138-0.582-0.267,0.531
				c0.429-0.665,0.318-0.526-0.333,0.419c-0.881,0.606-1.084,0.762-0.606,0.466c0.496-0.287,0.247-0.19-0.746,0.293
				c-0.695,0.192-1.382,0.173-2.062-0.057c0.784,0.222,0.661,0.139-0.369-0.25c0.555,0.35,0.583,0.346,0.084-0.013
				c-0.479-0.391-0.474-0.359,0.013,0.095c-0.608-0.854-0.691-0.939-0.247-0.255c0.375,0.734,0.329,0.618-0.138-0.349
				c0.099,0.334,0.17,0.674,0.213,1.019c0.644,3.881,5.65,6.395,9.226,5.238c4.197-1.358,5.929-5.067,5.238-9.226
				c-1.521-9.164-12.61-14.261-20.109-8.467c-3.613,2.791-5.514,7.578-4.37,12.078c1.235,4.86,5.402,7.327,9.823,8.846
				c3.714,1.276,8.365-1.458,9.226-5.238C120.201,76.225,117.99,72.535,114.013,71.168L114.013,71.168z"/>
		</g>
	</g>
	<g>
		<g>
			<path fill="#F8C8AE" d="M102.274,68.881c-0.287,1.114-0.575,2.229-0.862,3.343c-0.491,1.903-0.243,4.073,0.756,5.779
				c0.91,1.556,2.694,3.039,4.482,3.447c1.92,0.437,4.075,0.343,5.779-0.756c1.629-1.05,2.952-2.563,3.447-4.482
				c0.287-1.114,0.575-2.229,0.862-3.343c0.491-1.903,0.243-4.073-0.756-5.779c-0.91-1.556-2.694-3.039-4.482-3.447
				c-1.92-0.437-4.075-0.343-5.779,0.756C104.092,65.449,102.769,66.962,102.274,68.881L102.274,68.881z"/>
		</g>
	</g>
	<g>
		<g>
			<path fill="#F8C8AE" d="M109.668,63.301c-9.242-0.04-14.379,12.102-7.662,18.599c2.822,2.73,7.835,3.019,10.607,0
				c2.711-2.953,3.013-7.693,0-10.607c-0.122-0.107-0.232-0.224-0.332-0.352c0.391,0.506,0.782,1.012,1.173,1.518
				c-0.141-0.199-0.248-0.384-0.351-0.605c0.252,0.597,0.504,1.194,0.756,1.792c-0.083-0.226-0.141-0.435-0.187-0.671
				c0.089,0.665,0.179,1.329,0.268,1.994c-0.038-0.32-0.041-0.624-0.014-0.946c-0.089,0.665-0.179,1.329-0.268,1.994
				c0.061-0.408,0.166-0.783,0.321-1.165c-0.252,0.597-0.504,1.194-0.756,1.792c0.141-0.296,0.3-0.566,0.492-0.832
				c-0.391,0.506-0.782,1.012-1.173,1.518c0.205-0.249,0.419-0.465,0.67-0.667c-0.506,0.391-1.012,0.782-1.518,1.173
				c0.198-0.137,0.385-0.246,0.602-0.35c-0.597,0.252-1.194,0.504-1.792,0.756c0.228-0.086,0.434-0.144,0.674-0.188
				c-0.665,0.089-1.329,0.179-1.994,0.268c0.16-0.022,0.322-0.029,0.483-0.02c3.924,0.017,7.681-3.462,7.5-7.5
				C116.986,66.723,113.873,63.319,109.668,63.301L109.668,63.301z"/>
		</g>
	</g>
	<g>
		<g>
			<path fill="#F8C8AE" d="M107.475,73.988c1.395-0.281,2.791-0.562,4.186-0.843c1.769-0.356,3.595-1.931,4.482-3.447
				c0.941-1.608,1.339-3.977,0.756-5.779c-0.587-1.815-1.712-3.566-3.447-4.482c-1.855-0.98-3.715-1.172-5.779-0.756
				c-1.395,0.281-2.791,0.562-4.186,0.843c-1.769,0.356-3.595,1.931-4.482,3.447c-0.941,1.608-1.339,3.977-0.756,5.779
				c0.587,1.815,1.712,3.566,3.447,4.482C103.551,74.212,105.41,74.404,107.475,73.988L107.475,73.988z"/>
		</g>
	</g>
	<g>
		<g>
			<path fill="#F8C8AE" d="M128.31,71.457c1.634-4.855,3.177-9.867,4.039-14.926c0.525-3.083,0.209-6.265-2.126-8.6
				c-2.465-2.465-6.973-3.112-9.845-0.987c-3.036,2.246-3.945,4.814-3.447,8.47c0.015,0.113,0.031,0.227,0.046,0.34
				c0.548,4.017,5.693,6.209,9.226,5.238c4.332-1.191,5.788-5.196,5.238-9.226c-0.015-0.113-0.031-0.227-0.046-0.34
				c-1.149,2.823-2.298,5.647-3.447,8.47c0.114-0.084,0.227-0.168,0.341-0.252c-1.926,0.252-3.853,0.504-5.779,0.756
				c0.138,0.022,0.277,0.045,0.415,0.067c-1.494-1.149-2.988-2.298-4.482-3.447c0.088,0.199,0.176,0.397,0.263,0.596
				c-0.341-1.262-0.683-2.524-1.024-3.785c-0.375,4.029-2.425,9.444-3.837,13.64c-1.292,3.839,1.489,8.196,5.238,9.226
				C123.181,77.821,127.013,75.31,128.31,71.457L128.31,71.457z"/>
		</g>
	</g>
	<g>
		<g>
			<path fill="#F8C8AE" d="M131.44,86.713c7.841,0.377,15.653,0.227,23.473-0.452c9.544-0.828,9.631-15.836,0-15
				c-7.82,0.679-15.633,0.829-23.473,0.452C121.791,71.249,121.815,86.25,131.44,86.713L131.44,86.713z"/>
		</g>
	</g>
	<g>
		<g>
			<path fill="#F8C8AE" d="M132.618,105.081c7.591-1.354,15.206-2.112,22.911-2.39c-2.159-1.238-4.317-2.476-6.476-3.715
				c0.144,0.303,0.289,0.606,0.433,0.909c-0.252-1.926-0.504-3.853-0.756-5.779c2.264-1.995,2.514-2.85,0.752-2.565
				c-0.88,0.03-1.76,0.029-2.641-0.004c-1.679-0.05-3.347-0.195-5.006-0.458c-4.028-0.639-8.024,1.037-9.226,5.238
				c-1.019,3.56,1.243,8.592,5.238,9.226c5.95,0.944,12.951,2.014,18.768-0.001c6.258-2.168,8.064-8.525,5.388-14.137
				c-1.08-2.264-4.032-3.803-6.476-3.715c-9.036,0.326-17.998,1.338-26.898,2.926C119.143,92.31,123.163,106.768,132.618,105.081
				L132.618,105.081z"/>
		</g>
	</g>
	<g>
		<g>
			<path fill="#F8C8AE" d="M86.74,100.739c5.576,1.972,11.153,3.945,16.729,5.917c3.819,1.351,8.207-1.531,9.226-5.238
				c1.139-4.146-1.406-7.87-5.238-9.226c-5.576-1.972-11.153-3.945-16.729-5.917c-3.819-1.351-8.207,1.531-9.226,5.238
				C80.362,95.659,82.907,99.383,86.74,100.739L86.74,100.739z"/>
		</g>
	</g>
	<g>
		<g>
			<path fill="#F8C8AE" d="M94.954,97.659c6.609-1.041,12.914,0.973,18.334,4.675c0-4.317,0-8.635,0-12.952
				c-2.289,1.545-7.162,2.953-8.781-0.336c0.341,1.262,0.683,2.524,1.024,3.785c0.047,0.862-0.03-0.43,0.629-0.774
				c1.297-0.675,1.943-0.978,3.383-1.297c1.153-0.255,1.186,0.217,1.733-0.277c-0.223-0.836,0.069-1.57,0.874-2.203
				c1.263-0.659,2.245-0.465,2.946,0.58c-2.686-9.252-17.165-5.316-14.464,3.988c3.209,11.052,18.333,13.807,24.024,3.113
				c6.142-11.541-6.263-21.241-17.112-20.001c-9.611,1.099-21.724,11.513-15.37,21.914c5.751,9.413,20.276,10.136,28.684,4.459
				c4.839-3.267,4.794-9.677,0-12.952c-8.937-6.105-19.325-7.851-29.892-6.187c-3.992,0.629-6.243,5.639-5.238,9.226
				C86.922,96.684,90.921,98.294,94.954,97.659L94.954,97.659z"/>
		</g>
	</g>
	<g>
		<g>
			<path fill="#F8C8AE" d="M118.099,92.689c0.122,4.019,0.694,7.97,1.798,11.837c2.276,7.973,15.01,6.645,14.732-1.994
				c-0.142-4.392-0.065-8.802,0.549-13.162c-4.821,0-9.643,0-14.464,0c1.612,8.437,1.965,16.915,1.362,25.478
				c-0.372,5.276,5.065,8.007,9.494,7.232c2.214-0.387,4.429-0.768,6.646-1.131c1.208-0.198,3.843-1.144,4.944-0.747
				c-1.494-1.149-2.988-2.298-4.482-3.447c0.158,0.288,0.315,0.576,0.473,0.864c-0.341-1.262-0.683-2.524-1.024-3.785
				c-0.039,0.342-0.077,0.685-0.116,1.027c0.341-1.262,0.683-2.524,1.024-3.785c0.236-0.381,0.473-0.762,0.709-1.143
				c1.262-0.341,2.524-0.683,3.785-1.024c-2.643,0.31-5.099,0.128-7.542-1.001c-8.705-4.023-16.334,8.902-7.571,12.952
				c7.623,3.523,24.353,6.437,24.653-6.511c0.315-13.583-17.841-8.069-25.486-6.732c3.165,2.411,6.329,4.821,9.494,7.232
				c0.698-9.91-0.034-19.713-1.898-29.465c-1.335-6.987-13.432-7.329-14.464,0c-0.806,5.723-1.271,11.368-1.085,17.149
				c4.911-0.665,9.821-1.329,14.732-1.994c-0.758-2.654-1.179-5.097-1.262-7.85C132.808,83.059,117.807,83.018,118.099,92.689
				L118.099,92.689z"/>
		</g>
	</g>
	<g>
		<g>
			<path fill="#F8C8AE" d="M94.245,107.261c-0.09-0.076,0.504,1.935,0.774,2.858c0.422,1.445,0.997,2.904,1.764,4.201
				c1.642,2.78,4.242,5.11,7.095,6.607c6.81,3.572,14.331,2.518,21.557,1.094c7.087-1.397,6.355-10.197,1.792-13.708
				c-3.901-3.001-7.802-6.003-11.703-9.004c-3.213-2.472-8.399-0.493-10.261,2.691c-2.263,3.869-0.53,7.783,2.691,10.261
				c3.901,3.001,7.802,6.003,11.703,9.004c0.597-4.569,1.194-9.139,1.792-13.708c-2.954,0.582-9.426,2.418-11.708-0.756
				c-0.68-0.945-0.654-2.723-0.991-3.87c-0.721-2.456-1.936-4.627-3.896-6.276C97.509,90.479,86.845,101.038,94.245,107.261
				L94.245,107.261z"/>
		</g>
	</g>
	<g>
		<g>
			<path fill="#F8C8AE" d="M82.023,81.42c-8.572-0.057-17.145-0.115-25.717-0.172c-9.904-0.066-9.325,13.883,0,15
				c9.939,1.19,19.9,1.659,29.906,1.406c9.635-0.243,9.672-15.244,0-15c-10.007,0.252-19.968-0.216-29.906-1.406c0,5,0,10,0,15
				c8.572,0.057,17.145,0.115,25.717,0.172C91.678,96.485,91.688,81.485,82.023,81.42L82.023,81.42z"/>
		</g>
	</g>
	<g>
		<g>
			<path fill="#F8C8AE" d="M95.426,89.377c-21.215,0-42.431,0-63.646,0c-9.652,0-9.668,15,0,15c21.215,0,42.431,0,63.646,0
				C105.078,104.377,105.094,89.377,95.426,89.377L95.426,89.377z"/>
		</g>
	</g>
	<g>
		<g>
			<path fill="#F8C8AE" d="M39.28,101.064c0-8.095,0-16.191,0-24.286c0-9.652-15-9.668-15,0c0,8.095,0,16.191,0,24.286
				C24.28,110.716,39.28,110.732,39.28,101.064L39.28,101.064z"/>
		</g>
	</g>
	<g>
		<g>
			<path fill="#F8C8AE" d="M38.483,96.05c3.344-0.2,6.667-0.108,9.995,0.276c-1.262-4.659-2.524-9.317-3.785-13.976
				c-0.757,0.547-0.076,0.157,0.408,0.019c-1.375,0.393,1.112-0.003,0.164,0.024c-0.657,0.019,0.871,0.235,1.08,0.275
				c0.821,0.157-0.084-0.11-0.476-0.41c0.506,3.926,1.012,7.853,1.518,11.779c-0.222,0.146-0.444,0.292-0.666,0.439
				c0.609-0.342,0.644-0.386,0.105-0.13c-0.276,0.038-2.09,0.244-0.699,0.222c-1.262-4.659-2.524-9.317-3.785-13.976
				c-0.362,0.225-0.722,0.444-1.104,0.633c0.936-0.465,0.344-0.254-0.314-0.043c-0.814,0.262,0.93,0.127,0.098-0.062
				c-0.314-0.071-1.872-0.327-0.215,0.016c1.494,3.672,2.988,7.345,4.482,11.017c0.629-1.207-0.75,0.692-0.135,0.059
				c0.653-0.672-1.458,0.991-0.046,0.142c-0.572,0.344-1.136,0.48-1.801,0.49c1.667-0.026-1.572-0.482,0.033-0.003
				c3.759,1.12,8.339-1.346,9.226-5.238c0.919-4.033-1.213-8.026-5.238-9.226c-5.67-1.69-12.233,0.914-14.992,6.206
				c-2.098,4.025-0.487,9.987,4.482,11.017c4.551,0.944,9.097,0.43,13.093-2.058c2.723-1.695,4.482-5.272,3.447-8.47
				c-1.009-3.118-3.836-5.558-7.232-5.506c-3.591,0.055-6.769,1.381-9.347,3.863c-1.718,1.654-2.372,3.996-2.063,6.3
				c0.337,2.511,1.633,3.985,3.581,5.479c3.822,2.932,10.083,2.897,13.966,0.092c2.626-1.897,4.532-5.115,3.447-8.47
				c-1.103-3.409-3.79-5.109-7.232-5.506c-3.328-0.384-6.651-0.476-9.995-0.276c-3.909,0.233-7.689,3.282-7.5,7.5
				C31.156,92.413,34.289,96.3,38.483,96.05L38.483,96.05z"/>
		</g>
	</g>
	<g>
		<g>
			<path fill="#F8C8AE" d="M119.194,72.387c9.652,0,9.668-15,0-15C109.543,57.387,109.527,72.387,119.194,72.387L119.194,72.387z"/>
		</g>
	</g>
	<g>
		<g>
			<path fill="#F8C8AE" d="M125.754,67.577c9.652,0,9.668-15,0-15C116.102,52.577,116.086,67.577,125.754,67.577L125.754,67.577z"/>
		</g>
	</g>
	<g>
		<g>
			<path fill="#E8A48D" d="M125.748,48.206c3.854,0.241,2.449,8.132,2.314,10.175c-0.088,1.325,0.15,3.089-0.286,4.309
				c-0.739,2.069,0.436,0.184-1.068,1.508c-0.951,0.838-2.032,1.028-2.849,2.147c-1.139,1.559-1.315,3.534-1.44,5.406
				c-0.215,3.212,4.786,3.199,5,0c0.223-3.331,3.435-2.763,4.747-5.531c1.382-2.914,0.869-7.278,1.067-10.426
				c0.357-5.687-0.589-12.158-7.485-12.589C122.535,43.005,122.547,48.006,125.748,48.206L125.748,48.206z"/>
		</g>
	</g>
	<g>
		<g>
			<path fill="#E8A48D" d="M125.514,87.106c-0.214,0.626-0.427,1.251-0.641,1.877c-0.423,1.239,0.484,2.788,1.746,3.075
				c1.388,0.316,2.622-0.42,3.075-1.746c0.214-0.626,0.427-1.251,0.641-1.877c0.423-1.239-0.484-2.788-1.746-3.075
				C127.202,85.044,125.967,85.78,125.514,87.106L125.514,87.106z"/>
		</g>
	</g>
	<g>
		<g>
			<path fill="#E8A48D" d="M122.423,100.298c0.163,3.512,1.885,6.527,4.789,8.495c2.671,1.81,5.175-2.52,2.524-4.317
				c-1.387-0.94-2.235-2.512-2.312-4.177C127.275,97.094,122.274,97.076,122.423,100.298L122.423,100.298z"/>
		</g>
	</g>
	<g>
		<g>
			<path fill="#E8A48D" d="M126.89,103.384c-5.312,5.738-5.34,13.872-0.133,19.685c2.151,2.402,5.678-1.144,3.536-3.536
				c-3.351-3.741-3.268-8.94,0.133-12.614C132.609,104.561,129.081,101.017,126.89,103.384L126.89,103.384z"/>
		</g>
	</g>
	<g>
		<g>
			<path fill="#E8A48D" d="M129.307,120.89c-3.716-3.157-1.585-7.886,0.657-11.25c1.789-2.685-2.54-5.192-4.317-2.524
				c-3.471,5.21-5.336,12.669,0.125,17.309C128.211,126.497,131.764,122.977,129.307,120.89L129.307,120.89z"/>
		</g>
	</g>
	<g>
		<g>
			<path fill="#E8A48D" d="M125.482,105.735c-4.96,4.149-4.996,11.667-0.182,15.94c2.399,2.13,5.948-1.394,3.536-3.536
				c-2.92-2.592-2.798-6.376,0.182-8.869C131.488,107.204,127.935,103.683,125.482,105.735L125.482,105.735z"/>
		</g>
	</g>
	<g>
		<g>
			<path fill="#E8A48D" d="M126.965,120.049c-2.108-0.797-1.804-4.239-1.421-5.871c0.55-2.34,1.885-4.123,3.695-5.651
				c2.462-2.078-1.09-5.6-3.536-3.536c-5.529,4.668-8.736,16.603-0.067,19.878C128.649,126.009,129.951,121.178,126.965,120.049
				L126.965,120.049z"/>
		</g>
	</g>
	<g>
		<g>
			<path fill="#E8A48D" d="M119.735,103.801c0.367,2.365,1.683,4.624,3.558,6.111c1.057,0.838,2.504,1.032,3.536,0
				c0.87-0.87,1.064-2.692,0-3.536c-1.329-1.053-2.015-2.246-2.272-3.905c-0.207-1.335-1.881-2.074-3.075-1.746
				C120.056,101.117,119.527,102.462,119.735,103.801L119.735,103.801z"/>
		</g>
	</g>
	<g>
		<g>
			<path fill="#E8A48D" d="M109.077,107.362c8.561-0.678,13.698-7.632,14.895-15.733c0.729-4.932,0.184-9.853,0.004-14.803
				c-0.115-3.176-0.525-4.818,2.459-6.748c1.833-1.186,3.344-2.027,4.81-3.728c2.09-2.427-1.432-5.979-3.536-3.536
				c-2.155,2.502-6.031,2.874-7.791,5.621c-1.654,2.58-1.023,6.483-0.904,9.324c0.347,8.289,1.974,23.659-9.937,24.602
				C105.891,102.614,105.864,107.616,109.077,107.362L109.077,107.362z"/>
		</g>
	</g>
	<g>
		<g>
			<path fill="#E8A48D" d="M128.294,61.765c-0.203,1.741-5.045,3.033-6.43,4.078c-1.516,1.143-2.489,2.678-2.988,4.509
				c-1.319,4.836-1.1,10.419-1.528,15.394c-0.228,2.657-0.256,5.433-0.878,8.037c-0.886,3.712-2.499,4.569-5.818,6.146
				c-2.99,1.421-5.029,3.871-3.93,7.285c0.982,3.051,5.812,1.746,4.821-1.329c-0.236-0.733,5.073-3.05,5.827-3.661
				c1.281-1.036,2.183-2.399,2.868-3.882c1.774-3.843,1.754-8.464,2.109-12.596c0.235-2.732,0.47-5.463,0.705-8.195
				c0.365-4.248,0.06-6.522,4.499-8.955c3.226-1.769,5.287-2.915,5.743-6.831C133.665,58.575,128.662,58.601,128.294,61.765
				L128.294,61.765z"/>
		</g>
	</g>
	<g>
		<g>
			<path fill="#E8A48D" d="M121.086,48.634c1.77-1.31,4.373-1.129,5.589,0.866c1.672,2.744,5.998,0.234,4.317-2.524
				c-2.517-4.13-8.436-5.615-12.43-2.66c-1.093,0.809-1.616,2.156-0.897,3.42C118.279,48.815,120.004,49.435,121.086,48.634
				L121.086,48.634z"/>
		</g>
	</g>
	<g>
		<g>
			<path fill="#E8A48D" d="M119.11,48.846c1.395,0.065,3.97-0.43,5.22,0.168c2.131,1.02,2.184,3.833,2.25,5.771
				c0.139,4.145-0.305,8.268-1.107,12.331c-0.62,3.143,4.198,4.488,4.821,1.329c1.168-5.921,2.648-13.756,0.468-19.603
				c-1.96-5.257-6.986-4.778-11.652-4.996C115.893,43.696,115.901,48.696,119.11,48.846L119.11,48.846z"/>
		</g>
	</g>
	<g>
		<g>
			<path fill="#E8A48D" d="M153.301,74.018c1.575,0.511,3.806,1.965,4.16,3.73c0.631,3.143-2.216,3.925-4.504,4.396
				c-2.577,0.531-5.587,0.322-8.203,0.348c-5.663,0.058-10.976,0.156-14.958-4.493c-2.097-2.448-5.619,1.103-3.536,3.536
				c3.302,3.855,7.493,5.582,12.502,5.888c5.501,0.337,13.137,0.96,18.402-0.948c3.32-1.203,5.49-4.695,5.374-8.195
				c-0.155-4.658-3.779-7.743-7.908-9.083C151.562,68.202,150.248,73.028,153.301,74.018L153.301,74.018z"/>
		</g>
	</g>
	<g>
		<g>
			<path fill="#E8A48D" d="M154.713,92.634c2.461,0.78,3.108,2.85,1.94,6.213c-1.53,1.229-3.267,1.888-5.212,1.98
				c-2.397,0.254-4.897-0.108-7.287-0.286c-4.526-0.337-12.565,0.611-14.892-4.227c-1.394-2.899-5.707-0.366-4.317,2.524
				c2.024,4.208,6.024,5.574,10.427,6.028c5.822,0.601,12.756,1.876,18.533,0.647c9.192-1.956,12.52-12.675,3.332-17.195
				C154.359,86.901,151.823,91.212,154.713,92.634L154.713,92.634z"/>
		</g>
	</g>
	<g>
		<g>
			<path fill="#E8A48D" d="M145.561,109.377c1.103,1.967,3.339,3.794,2.06,6.416c-1.234,2.53-4.798,2.903-7.209,3.054
				c-4.232,0.266-8.519,0.056-12.204-2.224c-2.744-1.698-5.257,2.625-2.524,4.317c5.746,3.557,15.313,4.385,21.53,1.501
				c2.676-1.241,4.901-3.476,5.645-6.392c0.963-3.775-1.244-6.099-2.982-9.197C148.304,104.047,143.983,106.565,145.561,109.377
				L145.561,109.377z"/>
		</g>
	</g>
	<g>
		<g>
			<path fill="#E8A48D" d="M26.284,103.685c21.81,0,43.619,0,65.429,0c3.217,0,3.223-5,0-5c-21.81,0-43.619,0-65.429,0
				C23.067,98.685,23.061,103.685,26.284,103.685L26.284,103.685z"/>
		</g>
	</g>
	<g>
		<g>
			<path fill="#E8A48D" d="M94.796,102.689c1.508,6.563,3.356,13.906,8.969,18.226c4.548,3.501,10.73,4.561,15.726,1.402
				c2.713-1.715,0.207-6.044-2.524-4.317c-10.399,6.574-15.726-9.569-17.351-16.64C98.897,98.225,94.075,99.552,94.796,102.689
				L94.796,102.689z"/>
		</g>
	</g>
	<g>
		<g>
			<path fill="#E8A48D" d="M119.88,115.428c-5.713,1.449-11.334,0.575-16.369-2.47c-2.761-1.669-5.277,2.653-2.524,4.317
				c6.164,3.727,13.248,4.744,20.222,2.974C124.326,119.458,123.005,114.635,119.88,115.428L119.88,115.428z"/>
		</g>
	</g>
</g>
<g id="レイヤー_1">
	<path fill="none" stroke="#000000" stroke-width="5" stroke-linejoin="bevel" stroke-miterlimit="10" d="M136.54,88.329
		c0,0-9-0.087-8.913-9.086s9.086-8.913,9.086-8.913l17.999,0.173c0,0,9,0.087,8.913,9.086c-0.087,9-9.086,8.913-9.086,8.913
		L136.54,88.329z"/>
	<path fill="none" stroke="#000000" stroke-width="5" stroke-linejoin="bevel" stroke-miterlimit="10" d="M136.367,106.328
		c0,0-9-0.087-8.913-9.086c0.087-9,9.086-8.913,9.086-8.913l17.999,0.173c0,0,9,0.087,8.913,9.086s-9.086,8.913-9.086,8.913
		L136.367,106.328z"/>
	<path fill="none" stroke="#000000" stroke-width="5" stroke-linejoin="bevel" stroke-miterlimit="10" d="M136.193,124.327
		c0,0-9-0.087-8.913-9.086s9.086-8.913,9.086-8.913l9,0.087c0,0,9,0.087,8.913,9.086s-9.086,8.913-9.086,8.913L136.193,124.327z"/>
	<path fill="none" stroke="#000000" stroke-width="5" stroke-linejoin="bevel" stroke-miterlimit="10" d="M106.877,107.178
		c0,0,17.999,0.173,18.172-17.826c0.087-9,0.087-9,0.087-9"/>
	<path fill="none" stroke="#000000" stroke-width="5" stroke-linejoin="bevel" stroke-miterlimit="10" d="M140.78,124.327
		l-21.227-0.087l-9-0.087c0,0-17.999-0.173-17.826-18.172l-44.998-0.433l-23.81-0.229"/>
	<path fill="none" stroke="#000000" stroke-width="5" stroke-linejoin="bevel" stroke-miterlimit="10" d="M125.134,80.492
		l0.102-10.559c0,0,8.921,0.299,9.007-8.701s0.087-9,0.087-9s0.087-9-8.913-9.086c-9-0.087-9.086,8.913-9.086,8.913
		s-0.087,9-9.086,8.913c-9-0.087-9.086,8.913-9.086,8.913l-9-0.087L62.16,69.54l-37.872-0.364"/>
</g>
</svg>
