<?xml version="1.0" encoding="utf-8"?>
<!-- Generator: Adobe Illustrator 22.1.0, SVG Export Plug-In . SVG Version: 6.00 Build 0)  -->
<svg version="1.1" xmlns="http://www.w3.org/2000/svg" xmlns:xlink="http://www.w3.org/1999/xlink" x="0px" y="0px"
	 viewBox="0 0 198.425 203.847" enable-background="new 0 0 198.425 203.847" xml:space="preserve">
<g id="レイヤー_2">
	<g>
		<g>
			<path fill="#F8C8AE" d="M77.455,183.342c11.484,0,22.968,0,34.452,0c2.413,0,2.417-3.75,0-3.75c-11.484,0-22.968,0-34.452,0
				C75.042,179.592,75.038,183.342,77.455,183.342L77.455,183.342z"/>
		</g>
	</g>
	<g>
		<g>
			<path fill="#F8C8AE" d="M78.781,71.514c0.102,0.34,0.052,0.657-0.152,0.953c4.659,1.262,9.317,2.524,13.976,3.785
				c-0.156-3.329-0.313-6.658-0.469-9.987c-0.072-1.536-0.144-3.073-0.217-4.609c-0.036-0.768-0.072-1.536-0.108-2.305
				c0.031-1.625-0.009-2.044-0.119-1.256c-0.643,1.103-1.286,2.206-1.929,3.31c0.179-0.198,0.358-0.397,0.537-0.595
				c-1.103,0.643-2.206,1.286-3.31,1.929c0.252-0.047,0.504-0.093,0.757-0.14c-1.926-0.252-3.853-0.504-5.779-0.756
				c-1.555-2.694-2.128-2.901-1.718-0.621c0.027,0.74,0.032,1.48,0.013,2.221c-0.026,1.732-0.165,3.446-0.351,5.167
				c-0.436,4.033,3.759,7.5,7.5,7.5c4.417,0,7.063-3.455,7.5-7.5c0.51-4.714,1.132-10.692-1.067-15.061
				c-2.209-4.389-6.929-6.972-11.738-4.896c-5.116,2.208-5.452,7.399-5.224,12.235c0.241,5.122,0.481,10.243,0.722,15.365
				c0.328,6.979,10.403,10.787,13.976,3.785c1.418-2.778,2.154-5.379,2.2-8.523C93.924,61.858,78.924,61.854,78.781,71.514
				L78.781,71.514z"/>
		</g>
	</g>
	<g>
		<g>
			<path fill="#F8C8AE" d="M96.857,53.935c0.146,3.181,0.293,6.362,0.439,9.543c0.073,1.591,0.146,3.181,0.22,4.772
				c0.051,1.115-0.738,4.442,0.552,2.072c0.897-0.897,1.794-1.794,2.691-2.691c-0.241,0.145-0.481,0.289-0.722,0.434
				c-8.265,4.966-0.733,17.941,7.571,12.952c4.534-2.724,5.17-7.075,4.945-11.972c-0.232-5.037-0.464-10.073-0.695-15.11
				C111.415,44.323,96.413,44.269,96.857,53.935L96.857,53.935z"/>
		</g>
	</g>
	<g>
		<g>
			<path fill="#F8C8AE" d="M128.128,70.211c-0.873-0.523-0.114-0.275,0.055,0.105c-0.486-0.53-0.547-0.582-0.185-0.155
				c0.276,0.367,0.303,0.372,0.079,0.017c-0.198-0.373-0.203-0.347-0.014,0.08c0.165,0.439,0.18,0.456,0.045,0.051
				c-0.384-0.17-0.051-2.053-0.133-0.1c0.016-0.392,0.018-0.829-0.003-1.22c0.029,0.542-0.05,1.131,0.039,0.204
				c0.134-1.39-0.009,0.71,0.092-0.123c0.225-0.353,0.21-0.34-0.046,0.04c-0.34,0.444-0.258,0.404,0.245-0.121
				c-3.926-0.506-7.853-1.012-11.779-1.518c0.425,0.787,0.513,0.856,0.264,0.207c0.206,0.893,0.268,0.962,0.187,0.206
				c-0.038,0.916,0.011,0.999,0.146,0.25c-0.268,0.851-0.253,0.964,0.045,0.336c-1.635,3.703-1.081,8.055,2.691,10.261
				c3.189,1.865,8.617,1.034,10.261-2.691c2.354-5.333,2.583-11.056-0.642-16.141c-2.656-4.187-8.147-4.871-11.779-1.518
				c-7.465,6.891-5.668,19.674,2.861,24.781c3.475,2.081,8.233,0.778,10.261-2.691C132.889,76.933,131.613,72.298,128.128,70.211
				L128.128,70.211z"/>
		</g>
	</g>
	<g>
		<g>
			<path fill="#F8C8AE" d="M55.929,91.734c4.406-0.969,8.758-1.164,13.256-0.846c-2.159-1.238-4.317-2.476-6.476-3.715
				c1.265,2.651,2.53,5.301,3.795,7.952c1.745,3.655,6.974,4.613,10.261,2.691c3.739-2.187,4.442-6.593,2.691-10.261
				c-1.265-2.651-2.53-5.301-3.795-7.952c-1.169-2.449-3.966-3.537-6.476-3.715c-5.809-0.411-11.559,0.132-17.244,1.382
				C42.518,79.342,46.506,93.807,55.929,91.734L55.929,91.734z"/>
		</g>
	</g>
	<g>
		<g>
			<path fill="#F8C8AE" d="M59.948,95.935c5.446,2.073,10.041,6.045,13.147,10.934c5.162,8.126,18.149,0.61,12.952-7.571
				c-5.329-8.389-12.858-14.306-22.111-17.828c-3.786-1.441-8.225,1.597-9.226,5.238C53.55,90.93,56.147,94.489,59.948,95.935
				L59.948,95.935z"/>
		</g>
	</g>
	<g>
		<g>
			<path fill="#F8C8AE" d="M67.429,95.947c-0.964,6.059,0.348,13.607,7.453,15.145c6.883,1.49,13.292-4.572,16.406-10.118
				c1.921-3.422,0.933-8.347-2.691-10.261c-3.543-1.872-8.21-0.963-10.261,2.691c-0.317,0.565-0.648,1.099-1.011,1.636
				c0.585-0.866,0.189-0.255-0.255,0.212c-0.37,0.389-0.779,0.731-1.161,1.105c1.075-1.053-0.303,0.14-0.562,0.324
				c-0.177,0.098-0.354,0.196-0.53,0.295c1.803-0.936,3.401-0.858,4.794,0.234c1.177,0.667,1.847,1.243,2.34,2.494
				c-0.47-1.192-0.103,1.469,0.043,0.122c0.059-0.546,0.254-2.116-0.1,0.111c0.614-3.859-0.989-8.258-5.238-9.226
				C73.058,89.89,68.088,91.804,67.429,95.947L67.429,95.947z"/>
		</g>
	</g>
	<g>
		<g>
			<path fill="#F8C8AE" d="M76.217,99.938c6.099,1.983,12.38,2.102,18.629,0.814c3.969-0.818,6.261-5.504,5.238-9.226
				c-1.133-4.123-5.245-6.059-9.226-5.238c-3.65,0.752-7.14,0.328-10.654-0.814c-3.851-1.252-8.188,1.46-9.226,5.238
				C69.861,94.776,72.351,98.681,76.217,99.938L76.217,99.938z"/>
		</g>
	</g>
	<g>
		<g>
			<path fill="#F8C8AE" d="M78.913,98.886c5.206,0.672,10.411,1.343,15.617,2.015c1.524,0.197,5.821,1.556,7.157,0.95
				c1.239,0.371,1.098-0.061-0.422-1.295c-0.614-1.573-1.019-1.98-1.215-1.221c-0.007,0-0.659,1.679-0.743,1.846
				c-4.319,8.604,8.616,16.209,12.952,7.571c3.634-7.24,4.576-16.962-4.375-20.629c-4.317-1.768-9.659-1.745-14.274-2.341
				c-4.899-0.632-9.799-1.264-14.698-1.896c-4.024-0.519-7.5,3.819-7.5,7.5C71.413,95.87,74.877,98.365,78.913,98.886L78.913,98.886
				z"/>
		</g>
	</g>
	<g>
		<g>
			<path fill="#F8C8AE" d="M95.611,97.169c0,0.733,0,1.466,0,2.199c0,1.923,0.837,3.943,2.197,5.303
				c0.679,0.731,1.484,1.248,2.414,1.551c0.894,0.47,1.857,0.685,2.89,0.646c1.94-0.087,3.951-0.724,5.303-2.197
				c1.347-1.467,2.197-3.271,2.197-5.303c0-0.733,0-1.466,0-2.199c0-1.923-0.837-3.943-2.197-5.303
				c-0.679-0.731-1.484-1.248-2.414-1.551c-0.894-0.47-1.857-0.685-2.89-0.646c-1.94,0.087-3.951,0.724-5.303,2.197
				C96.46,93.333,95.611,95.136,95.611,97.169L95.611,97.169z"/>
		</g>
	</g>
	<g>
		<g>
			<path fill="#F8C8AE" d="M97.452,92.869c-0.977,0.244-1.955,0.489-2.932,0.733c-1.803,0.451-3.552,1.857-4.482,3.447
				c-0.941,1.608-1.339,3.977-0.756,5.779c0.587,1.815,1.712,3.566,3.447,4.482c1.81,0.956,3.764,1.26,5.779,0.756
				c0.977-0.244,1.955-0.489,2.932-0.733c1.803-0.451,3.552-1.857,4.482-3.447c0.941-1.608,1.339-3.977,0.756-5.779
				c-0.587-1.815-1.712-3.566-3.447-4.482C101.421,92.668,99.467,92.365,97.452,92.869L97.452,92.869z"/>
		</g>
	</g>
	<g>
		<g>
			<path fill="#F8C8AE" d="M87.21,100.25c-1.221,0.491-2.441,0.982-3.662,1.474c-0.976,0.232-1.826,0.68-2.551,1.342
				c-0.816,0.529-1.46,1.23-1.932,2.104c-0.941,1.608-1.339,3.977-0.756,5.779c0.587,1.815,1.712,3.566,3.447,4.482
				c1.667,0.881,3.947,1.493,5.779,0.756c1.221-0.491,2.441-0.982,3.662-1.474c0.976-0.232,1.826-0.68,2.551-1.342
				c0.816-0.529,1.46-1.23,1.932-2.104c0.941-1.608,1.339-3.977,0.756-5.779c-0.587-1.815-1.712-3.566-3.447-4.482
				C91.322,100.125,89.042,99.513,87.21,100.25L87.21,100.25z"/>
		</g>
	</g>
	<g>
		<g>
			<path fill="#F8C8AE" d="M84.052,111.999c9.652,0,9.668-15,0-15C74.4,96.999,74.384,111.999,84.052,111.999L84.052,111.999z"/>
		</g>
	</g>
	<g>
		<g>
			<path fill="#F8C8AE" d="M84.785,119.329c9.652,0,9.668-15,0-15C75.133,104.329,75.117,119.329,84.785,119.329L84.785,119.329z"/>
		</g>
	</g>
	<g>
		<g>
			<path fill="#F8C8AE" d="M89.169,119.183c6.749,0.083,11.97-3.126,18.249-4.896c6.096-1.718,12.254-0.167,17.959-3.709
				c5.318-3.301,8.497-10.376,4.715-16.005c-3.48-5.18-11.832-6.67-17.503-7.941c-0.665,4.911-1.329,9.821-1.994,14.732
				c5.298-0.008,10.55-0.659,15.705-1.881c-3.075-1.746-6.151-3.492-9.226-5.238c0.623,0.795,0.588,1.563-0.103,2.304
				c-1.492,3.798,1.639,8.196,5.238,9.226c4.239,1.213,7.752-1.485,9.226-5.238c1.315-3.347,1.307-6.891,0.103-10.279
				c-1.395-3.924-5.033-6.232-9.226-5.238c-3.934,0.932-7.675,1.339-11.717,1.345c-8.276,0.012-10.421,12.843-1.994,14.732
				c2.147,0.481,4.273,1.013,6.372,1.677c1.048,0.332,2.086,0.689,3.117,1.072c1.246,0.613,1.128,0.355-0.353-0.774
				c-0.341-1.262-0.683-2.524-1.024-3.785c-0.153-2.349,0.94-0.693-0.922-0.89c-1.197-0.127-2.711,0.141-3.957,0.21
				c-2.838,0.156-5.666,0.417-8.406,1.217c-4.754,1.389-9.193,4.423-14.261,4.36C79.513,104.064,79.507,119.064,89.169,119.183
				L89.169,119.183z"/>
		</g>
	</g>
	<g>
		<g>
			<path fill="#F8C8AE" d="M126.568,99.537c9.652,0,9.668-15,0-15C116.916,84.537,116.9,99.537,126.568,99.537L126.568,99.537z"/>
		</g>
	</g>
	<g>
		<g>
			<path fill="#F8C8AE" d="M117.286,99.656c-6.4,1.516-12.531,4.183-17.971,7.882c-3.346,2.275-4.834,6.596-2.691,10.261
				c1.94,3.317,6.896,4.979,10.261,2.691c4.496-3.057,9.102-5.117,14.388-6.37C130.663,111.896,126.688,97.428,117.286,99.656
				L117.286,99.656z"/>
		</g>
	</g>
	<g>
		<g>
			<path fill="#F8C8AE" d="M76.951,119.185c0.429,9.079,0.859,18.158,1.288,27.237c0.215,4.54,0.429,9.079,0.644,13.619
				c0.092,1.946,0.184,3.891,0.276,5.837c0.061,1.297,0.123,2.594,0.184,3.891c-0.264,2.899,0.388,2.672,1.955-0.681
				c3.673,1.494,7.345,2.988,11.017,4.482c-0.531-2.806,4.186-7.691,5.476-10.142c2.365-4.492,3.763-9.379,4.755-14.335
				c2.12-10.6,2.558-21.372,1.203-32.094c-2.5,2.5-5,5-7.5,7.5c0.425,0.009,0.85,0.019,1.276,0.028
				c-1.262-0.341-2.524-0.683-3.785-1.024c-1.12-0.781-0.65-0.65-0.113,0.531c0.544,1.199,1.461,2.252,2.392,3.149
				c1.825,1.758,3.865,1.767,5.858,2.914c-1.149-1.494-2.298-2.988-3.447-4.482c0.701,1.738-0.172,4.589-0.362,6.415
				c-0.259,2.493-0.519,4.986-0.778,7.479c5,0,10,0,15,0c0.205-7.685,0.41-15.371,0.616-23.056c-5,0-10,0-15,0
				c-0.201,10.721-0.771,21.421-1.708,32.103c4.911-0.665,9.821-1.329,14.732-1.994c-0.145-0.394-0.29-0.789-0.435-1.183
				c0,1.329,0,2.658,0,3.988c0.101-0.408,0.203-0.816,0.304-1.223c-4.911-0.665-9.821-1.329-14.732-1.994
				c0.608,5.28,0.509,10.404-0.64,15.598c4.911,0.665,9.821,1.329,14.732,1.994c-0.34-3.737-0.392-7.419-0.159-11.165
				c-4.911,0.665-9.821,1.329-14.732,1.994c0.522,2.082,0.86,4.187,0.563,6.344c4.911,0.665,9.821,1.329,14.732,1.994
				c0.091-2.537,0.183-5.074,0.274-7.611c0.352-9.784-14.104-9.448-15,0c-0.212,2.235-0.424,4.47-0.636,6.704
				c-0.106,1.117-0.212,2.235-0.318,3.352c2.104-1.83,2.276-2.439,0.514-1.827c-3.569-0.054-6.851,2.965-8.711,5.618
				c-3.624,5.17,1.409,10.697,6.476,11.285c5.451,0.633,13.667,2.191,17.996-2.204c4.212-4.275,2.956-13.212,3.247-18.69
				c0.715-13.466,2.972-27.868-0.689-41.068c-2.576-9.289-17.052-5.344-14.464,3.988c2.189,7.894,1.264,16.139,0.835,24.215
				c-0.45,8.474-0.455,17.114-1.403,25.545c0.341-1.262,0.683-2.524,1.024-3.785c0.507-0.502,1.013-1.004,1.52-1.506
				c1.262-0.341,2.524-0.683,3.785-1.024c-3.901,0.41-7.973-0.019-11.851-0.47c2.159,3.762,4.317,7.524,6.476,11.285
				c-1.568,2.237-3.248,1.998-0.254,1.275c0.692-0.167,1.384-0.292,2.062-0.518c2.728-0.909,5.052-2.581,6.528-5.067
				c2.816-4.741,2.352-11.739,2.862-17.108c-5,0-10,0-15,0c-0.091,2.537-0.183,5.074-0.274,7.611
				c-0.297,8.253,13.563,10.482,14.732,1.994c0.683-4.957,0.662-9.434-0.563-14.32c-2.136-8.518-14.222-6.192-14.732,1.994
				c-0.233,3.745-0.181,7.427,0.159,11.165c0.715,7.863,12.775,10.839,14.732,1.994c1.436-6.49,1.937-12.975,1.176-19.585
				c-0.9-7.816-12.527-10.869-14.732-1.994c-0.57,2.295-0.695,4.146,0.131,6.394c2.956,8.046,13.981,6.566,14.732-1.994
				c0.937-10.682,1.507-21.382,1.708-32.103c0.182-9.663-14.742-9.646-15,0c-0.205,7.685-0.41,15.371-0.616,23.056
				c-0.262,9.828,14.022,9.401,15,0c0.683-6.565,3.901-16.882-2.084-21.777c-1.068-0.873-2.94-2.242-4.368-2.123
				c-1.216-0.326-0.97-0.041,0.74,0.855c-0.242-0.679-0.586-1.297-1.033-1.854c-2.199-3.431-5.278-5.022-9.296-5.111
				c-3.684-0.082-8.002,3.523-7.5,7.5c1.398,11.065,1.1,22.334-1.833,33.14c-2.687,9.9-11.157,16.36-9.065,27.418
				c0.977,5.164,7.007,6.341,11.017,4.482c4.477-2.075,5.62-6.782,5.52-11.299c-0.13-5.834-0.552-11.68-0.828-17.51
				c-0.537-11.349-1.074-22.698-1.61-34.047C91.496,109.574,76.494,109.519,76.951,119.185L76.951,119.185z"/>
		</g>
	</g>
	<g>
		<g>
			<path fill="#F8C8AE" d="M111.346,169.566c-0.244-0.244-0.489-0.489-0.733-0.733c-1.36-1.36-3.38-2.197-5.303-2.197
				c-1.033-0.039-1.996,0.176-2.89,0.646c-0.93,0.302-1.734,0.819-2.414,1.551c-1.312,1.429-2.286,3.306-2.197,5.303
				c0.089,1.989,0.761,3.868,2.197,5.303c0.244,0.244,0.489,0.489,0.733,0.733c1.36,1.36,3.38,2.197,5.303,2.197
				c1.033,0.039,1.996-0.176,2.89-0.646c0.93-0.302,1.734-0.819,2.414-1.551c1.312-1.429,2.286-3.306,2.197-5.303
				C113.454,172.88,112.782,171.002,111.346,169.566L111.346,169.566z"/>
		</g>
	</g>
	<g>
		<g>
			<path fill="#E8A48D" d="M84.684,51.076c5.941,1.211,4.874,8.415,4.634,12.974c-0.229,4.351-0.468,8.702-0.702,13.053
				c-0.173,3.215,4.828,3.206,5,0c0.477-8.872,5.099-28.259-7.603-30.848C82.872,45.614,81.528,50.433,84.684,51.076L84.684,51.076z
				"/>
		</g>
	</g>
	<g>
		<g>
			<path fill="#E8A48D" d="M103.304,51.584c4.668,3.005,3.184,9.974,3.108,14.815c-0.07,4.459-0.14,8.917-0.21,13.376
				c-0.051,3.219,4.949,3.22,5,0c0.11-7,0.386-14.019,0.331-21.019c-0.04-5.065-1.325-8.669-5.705-11.489
				C103.114,45.519,100.605,49.846,103.304,51.584L103.304,51.584z"/>
		</g>
	</g>
	<g>
		<g>
			<path fill="#E8A48D" d="M121.184,60.343c6.466,2.05,3.954,12.927,3.417,17.881c-0.346,3.195,4.656,3.17,5,0
				c0.859-7.921,2.64-19.618-7.088-22.702C119.438,54.547,118.122,59.372,121.184,60.343L121.184,60.343z"/>
		</g>
	</g>
	<g>
		<g>
			<path fill="#E8A48D" d="M110.662,92.25c1.165,0.784,1.799,2.059,1.832,3.448c1.667,0,3.333,0,5,0
				c-0.389-2.946-1.292-5.677-2.994-8.137c-0.767-1.109-2.192-1.615-3.42-0.897c-1.098,0.642-1.669,2.305-0.897,3.42
				c1.164,1.683,2.041,3.564,2.312,5.613c0.177,1.338,1.023,2.5,2.5,2.5c1.331,0,2.532-1.144,2.5-2.5
				c-0.075-3.221-1.649-5.976-4.308-7.765C110.509,86.132,108.004,90.461,110.662,92.25L110.662,92.25z"/>
		</g>
	</g>
	<g>
		<g>
			<path fill="#E8A48D" d="M111.534,91.335c6.213,1.108,16.251,4.232,19.621-3.419c1.285-2.918-3.022-5.465-4.317-2.524
				c-2.102,4.774-10.104,1.812-13.974,1.122C109.717,85.952,108.367,90.77,111.534,91.335L111.534,91.335z"/>
		</g>
	</g>
	<g>
		<g>
			<path fill="#E8A48D" d="M126.049,88.143c-0.603,7.442,0.685,23.805-11.104,22.683c-3.201-0.305-3.181,4.697,0,5
				c15.364,1.462,15.273-17.431,16.104-27.683C131.309,84.936,126.307,84.953,126.049,88.143L126.049,88.143z"/>
		</g>
	</g>
	<g>
		<g>
			<path fill="#E8A48D" d="M109.6,114.715c0.229,2.227,0.191,4.436-0.235,6.636c-0.608,3.144,4.21,4.49,4.821,1.329
				c0.512-2.645,0.689-5.283,0.413-7.966c-0.138-1.343-1.05-2.5-2.5-2.5C110.855,112.215,109.461,113.364,109.6,114.715
				L109.6,114.715z"/>
		</g>
	</g>
	<g>
		<g>
			<path fill="#E8A48D" d="M125.941,111.767c2.853-4.066,4.43-8.625,4.965-13.546c0.347-3.195-4.656-3.17-5,0
				c-0.438,4.037-1.96,7.713-4.282,11.022C119.772,111.883,124.105,114.384,125.941,111.767L125.941,111.767z"/>
		</g>
	</g>
	<g>
		<g>
			<path fill="#E8A48D" d="M126.648,98.692c-0.737,4.344-2.594,8.143-5.688,11.294c-2.256,2.298,1.277,5.836,3.536,3.536
				c3.651-3.719,6.101-8.353,6.974-13.501C132.004,96.873,127.186,95.521,126.648,98.692L126.648,98.692z"/>
		</g>
	</g>
	<g>
		<g>
			<path fill="#E8A48D" d="M109.002,115.124c0,22.409,0,44.818,0,67.228c0,3.217,5,3.223,5,0c0-22.409,0-44.818,0-67.228
				C114.002,111.907,109.002,111.901,109.002,115.124L109.002,115.124z"/>
		</g>
	</g>
	<g>
		<g>
			<path fill="#E8A48D" d="M62.723,81.288c3.585-0.093,6.782,1.641,8.598,4.744c1.625,2.775,5.948,0.262,4.317-2.524
				c-2.679-4.576-7.604-7.359-12.916-7.221C59.511,76.371,59.499,81.372,62.723,81.288L62.723,81.288z"/>
		</g>
	</g>
	<g>
		<g>
			<path fill="#E8A48D" d="M76.928,90.349c7.555,0,15.11,0,22.665,0c3.217,0,3.223-5,0-5c-7.555,0-15.11,0-22.665,0
				C73.71,85.349,73.705,90.349,76.928,90.349L76.928,90.349z"/>
		</g>
	</g>
	<g>
		<g>
			<path fill="#E8A48D" d="M96.503,90.181c5.92,0.758,9.616,5.606,9.491,11.423c-0.044,2.06,2.839,3.439,4.268,1.768
				c3.45-4.036-1.364-10.714-4.207-13.866c-4.723-5.236-12.584-5.334-19.141-5.34c-3.217-0.003-3.222,4.997,0,5
				c4.069,0.004,9.244-0.198,12.921,1.756c2.022,1.074,3.391,2.828,4.538,4.774c0.384,0.651,2.239,4.274,2.353,4.141
				c1.423,0.589,2.845,1.179,4.268,1.768c0.189-8.809-5.898-15.322-14.491-16.423C93.32,84.774,93.35,89.777,96.503,90.181
				L96.503,90.181z"/>
		</g>
	</g>
	<g>
		<g>
			<path fill="#B5D348" d="M72.73,72.297c-0.829-1.106-1.659-2.212-2.488-3.317c-0.782-1.043-2.196-1.686-3.42-0.897
				c-1.032,0.665-1.736,2.302-0.897,3.42c0.829,1.106,1.659,2.212,2.488,3.317c0.782,1.043,2.196,1.686,3.42,0.897
				C72.864,75.053,73.569,73.416,72.73,72.297L72.73,72.297z"/>
		</g>
	</g>
	<g>
		<g>
			<path fill="#B5D348" d="M70.585,68.713c-1.392-3.802-2.296-7.693-2.613-11.732c-0.25-3.187-5.253-3.214-5,0
				c0.353,4.489,1.243,8.83,2.792,13.062C66.861,73.04,71.695,71.745,70.585,68.713L70.585,68.713z"/>
		</g>
	</g>
	<g>
		<g>
			<path fill="#B5D348" d="M70.085,64.111c-1.904-2.953-2.665-6.298-1.975-9.768c0.625-3.143-4.193-4.487-4.821-1.329
				c-0.948,4.766-0.167,9.516,2.479,13.621C67.505,69.33,71.835,66.826,70.085,64.111L70.085,64.111z"/>
		</g>
	</g>
	<g>
		<g>
			<path fill="#B5D348" d="M67.09,69.41c0.067-5.528,0.135-11.056,0.202-16.584c0.039-3.218-4.961-3.22-5,0
				c-0.067,5.528-0.135,11.056-0.202,16.584C62.05,72.629,67.05,72.631,67.09,69.41L67.09,69.41z"/>
		</g>
	</g>
	<g>
		<g>
			<path fill="#B5D348" d="M67.309,67.895c-1.224-7.548-1.328-15.144-0.28-22.72c0.435-3.147-4.382-4.508-4.821-1.329
				c-1.182,8.538-1.1,16.87,0.28,25.379C63.001,72.393,67.82,71.048,67.309,67.895L67.309,67.895z"/>
		</g>
	</g>
	<g>
		<g>
			<path fill="#B5D348" d="M65.542,51.837c1.185-4.976,3.196-9.481,6.087-13.698c1.824-2.661-2.507-5.164-4.317-2.524
				c-3.107,4.533-5.318,9.547-6.591,14.893C59.975,53.636,64.795,54.971,65.542,51.837L65.542,51.837z"/>
		</g>
	</g>
	<g>
		<g>
			<path fill="#B5D348" d="M67.308,42.739c0.845-3.435,2.482-6.422,4.962-8.949c2.255-2.299-1.277-5.837-3.536-3.536
				c-3.057,3.116-5.203,6.913-6.247,11.155C61.717,44.534,66.538,45.867,67.308,42.739L67.308,42.739z"/>
		</g>
	</g>
	<g>
		<g>
			<path fill="#B5D348" d="M70.174,35.91c2.212-1.382,4.423-2.764,6.635-4.147c2.723-1.702,0.216-6.029-2.524-4.317
				c-2.212,1.382-4.423,2.764-6.635,4.147C64.928,33.294,67.435,37.622,70.174,35.91L70.174,35.91z"/>
		</g>
	</g>
	<g>
		<g>
			<path fill="#B5D348" d="M77.87,32.016c1.106-0.276,2.212-0.553,3.317-0.829c1.269-0.317,2.155-1.812,1.746-3.075
				c-0.425-1.314-1.715-2.086-3.075-1.746c-1.106,0.276-2.212,0.553-3.317,0.829c-1.269,0.317-2.155,1.812-1.746,3.075
				C75.22,31.584,76.51,32.356,77.87,32.016L77.87,32.016z"/>
		</g>
	</g>
	<g>
		<g>
			<path fill="#B5D348" d="M75.979,35.081c1.659-0.829,3.317-1.659,4.976-2.488c1.207-0.604,1.547-2.309,0.897-3.42
				c-0.719-1.229-2.209-1.503-3.42-0.897c-1.659,0.829-3.317,1.659-4.976,2.488c-1.207,0.604-1.547,2.309-0.897,3.42
				C73.278,35.413,74.768,35.687,75.979,35.081L75.979,35.081z"/>
		</g>
	</g>
	<g>
		<g>
			<path fill="#B5D348" d="M82.182,30.446c3.317,0,6.635,0,9.952,0c3.217,0,3.223-5,0-5c-3.317,0-6.635,0-9.952,0
				C78.964,25.446,78.959,30.446,82.182,30.446L82.182,30.446z"/>
		</g>
	</g>
	<g>
		<g>
			<path fill="#B5D348" d="M89.645,29.617c1.106,0,2.212,0,3.317,0c1.308,0,2.56-1.15,2.5-2.5c-0.061-1.355-1.098-2.5-2.5-2.5
				c-1.106,0-2.212,0-3.317,0c-1.308,0-2.56,1.15-2.5,2.5C87.206,28.471,88.244,29.617,89.645,29.617L89.645,29.617z"/>
		</g>
	</g>
	<g>
		<g>
			<path fill="#B5D348" d="M120.33,29.624c2.774,0.105,5.451,0.747,7.951,1.96c2.883,1.399,5.421-2.912,2.524-4.317
				c-3.317-1.609-6.787-2.503-10.475-2.643C117.112,24.503,117.118,29.503,120.33,29.624L120.33,29.624z"/>
		</g>
	</g>
	<g>
		<g>
			<path fill="#B5D348" d="M119.494,31.345c5.343,0.649,10.525,2.149,15.402,4.421c2.899,1.35,5.441-2.959,2.524-4.317
				c-5.732-2.67-11.651-4.341-17.925-5.103C116.306,25.958,116.334,30.961,119.494,31.345L119.494,31.345z"/>
		</g>
	</g>
	<g>
		<g>
			<path fill="#B5D348" d="M116.891,27.063c-1.567-0.463-3.133-0.925-4.7-1.388c0,1.607,0,3.214,0,4.821
				c6.189-1.147,12.11,0.486,17.085,4.271c2.56,1.948,5.054-2.392,2.524-4.317c-6.063-4.612-13.492-6.155-20.938-4.775
				c-2.536,0.47-2.219,4.166,0,4.821c1.567,0.463,3.133,0.925,4.7,1.388C118.654,32.798,119.975,27.974,116.891,27.063
				L116.891,27.063z"/>
		</g>
	</g>
	<g>
		<g>
			<path fill="#B5D348" d="M120.779,30.813c7.14,3.196,12.555,8.622,15.738,15.768c1.307,2.934,5.617,0.393,4.317-2.524
				c-3.481-7.814-9.724-14.067-17.532-17.562C120.39,25.192,117.844,29.499,120.779,30.813L120.779,30.813z"/>
		</g>
	</g>
	<g>
		<g>
			<path fill="#B5D348" d="M131.897,37.093c4.114,3.336,6.437,7.94,6.449,13.259c0.007,3.217,5.007,3.223,5,0
				c-0.015-6.525-2.829-12.671-7.914-16.795C132.955,31.548,129.396,35.065,131.897,37.093L131.897,37.093z"/>
		</g>
	</g>
	<g>
		<g>
			<path fill="#B5D348" d="M131.785,34.728c3.247,4.097,5.566,8.732,7.025,13.743c0.898,3.083,5.724,1.771,4.821-1.329
				c-1.712-5.879-4.513-11.156-8.311-15.949C133.323,28.672,129.806,32.231,131.785,34.728L131.785,34.728z"/>
		</g>
	</g>
	<g>
		<g>
			<path fill="#B5D348" d="M131.56,32.487c7.26,3.859,11.037,11.482,9.978,19.59c-0.416,3.181,4.588,3.151,5,0
				c1.274-9.75-3.806-19.31-12.454-23.907C131.244,26.66,128.715,30.974,131.56,32.487L131.56,32.487z"/>
		</g>
	</g>
	<g>
		<g>
			<path fill="#B5D348" d="M136.233,41.76c3.028,5.28,3.94,11.141,2.585,17.078c-0.715,3.133,4.105,4.47,4.821,1.329
				c1.654-7.247,0.612-14.478-3.089-20.931C138.95,36.446,134.628,38.961,136.233,41.76L136.233,41.76z"/>
		</g>
	</g>
	<g>
		<g>
			<path fill="#B5D348" d="M138.532,54.482c-0.468,4.49-1.728,8.818-3.706,12.874c-1.405,2.881,2.905,5.418,4.317,2.524
				c2.387-4.894,3.824-9.985,4.389-15.397C143.865,51.285,138.863,51.308,138.532,54.482L138.532,54.482z"/>
		</g>
	</g>
	<g>
		<g>
			<path fill="#B5D348" d="M137.824,61.284c-0.276,1.106-0.553,2.212-0.829,3.317c-0.317,1.267,0.408,2.771,1.746,3.075
				c1.295,0.295,2.736-0.389,3.075-1.746c0.276-1.106,0.553-2.212,0.829-3.317c0.317-1.267-0.408-2.771-1.746-3.075
				C139.604,59.243,138.163,59.927,137.824,61.284L137.824,61.284z"/>
		</g>
	</g>
	<g>
		<g>
			<path fill="#B5D348" d="M141.934,57.953c-2.709,6.87-6.183,13.327-10.329,19.433c-1.812,2.669,2.518,5.174,4.317,2.524
				c4.394-6.472,7.965-13.354,10.833-20.628C147.936,56.288,143.103,54.989,141.934,57.953L141.934,57.953z"/>
		</g>
	</g>
	<g>
		<g>
			<path fill="#B5D348" d="M136.364,71.437c-1.713,2.835-3.426,5.67-5.139,8.505c-1.549,2.564,1.839,4.765,3.926,3.03
				c6.89-5.729,9.774-14.561,8.066-23.288c-0.617-3.155-5.437-1.819-4.821,1.329c1.383,7.07-1.294,13.861-6.781,18.423
				c1.309,1.01,2.618,2.02,3.926,3.03c1.713-2.835,3.426-5.67,5.139-8.505C142.349,71.199,138.028,68.683,136.364,71.437
				L136.364,71.437z"/>
		</g>
	</g>
	<g>
		<g>
			<path fill="#B5D348" d="M140.222,58.632c0.049,1.861,0.098,3.722,0.148,5.583c0.086,3.252,4.748,3.179,5,0
				c0.365-4.61,0.731-9.219,1.096-13.829c0.254-3.209-4.745-3.191-5,0c-0.419,5.236-0.837,10.472-1.256,15.708
				c-0.256,3.208,4.745,3.191,5,0c0.419-5.236,0.837-10.472,1.256-15.708c-1.667,0-3.333,0-5,0
				c-0.365,4.61-0.731,9.219-1.096,13.829c1.667,0,3.333,0,5,0c-0.049-1.861-0.098-3.722-0.148-5.583
				C145.137,55.421,140.137,55.408,140.222,58.632L140.222,58.632z"/>
		</g>
	</g>
	<g>
		<g>
			<path fill="#B5D348" d="M145.222,58.631c0-2.764,0-5.529,0-8.293c0-3.217-5-3.223-5,0c0,2.764,0,5.529,0,8.293
				C140.222,61.848,145.222,61.854,145.222,58.631L145.222,58.631z"/>
		</g>
	</g>
	<g>
		<g>
			<path fill="#B5D348" d="M141.893,44.545c3.217,0,3.223-5,0-5C138.676,39.545,138.67,44.545,141.893,44.545L141.893,44.545z"/>
		</g>
	</g>
	<g>
		<g>
			<path fill="#B5D348" d="M71.313,32.797c-1.019,0.987-2.037,1.974-3.056,2.961c-0.941,0.912-0.984,2.632,0,3.536
				c1.011,0.928,2.532,0.973,3.536,0c1.019-0.987,2.037-1.974,3.056-2.961c0.941-0.912,0.984-2.632,0-3.536
				C73.837,31.869,72.317,31.825,71.313,32.797L71.313,32.797z"/>
		</g>
	</g>
	<g>
		<g>
			<path fill="#B5D348" d="M70.773,75.582c0.551,0.359,1.102,0.718,1.652,1.077c1.098,0.716,2.811,0.257,3.42-0.897
				c0.659-1.247,0.275-2.657-0.897-3.42c-0.551-0.359-1.102-0.718-1.652-1.077c-1.098-0.716-2.811-0.257-3.42,0.897
				C69.217,73.409,69.601,74.819,70.773,75.582L70.773,75.582z"/>
		</g>
	</g>
	<g>
		<g>
			<path fill="#B5D348" d="M93.801,84.583c1.25,0.439,2.593-0.005,3.532-0.87c0.964-0.889,0.967-2.648,0-3.536
				c-1.031-0.947-2.507-0.948-3.536,0c0.243-0.224,0.527-0.359,0.854-0.402c0.134-0.036,0.269-0.035,0.403,0.002
				c0.242,0.047,0.267,0.042,0.076-0.016c-1.235-0.434-2.79,0.492-3.075,1.746C91.737,82.905,92.478,84.118,93.801,84.583
				L93.801,84.583z"/>
		</g>
	</g>
	<g>
		<g>
			<path fill="#B5D348" d="M110.996,84.055c1.358,0.872,3.051,0.815,4.448,0.088c1.162-0.605,1.604-2.324,0.897-3.42
				c-0.763-1.184-2.177-1.543-3.42-0.897c0.163-0.085,0.499-0.218,0.126-0.069c-0.23,0.092,0.623-0.026,0.161-0.042
				c0.107,0.004,0.551,0.135,0.236,0.019c0.624,0.229,0.256,0.12,0.076,0.004c-1.102-0.708-2.808-0.263-3.42,0.897
				C109.444,81.874,109.819,83.299,110.996,84.055L110.996,84.055z"/>
		</g>
	</g>
	<g>
		<g>
			<path fill="#8EC020" d="M115.48,23.93c0,2.189,0,4.377,0,6.566c0,3.217,5,3.223,5,0c0-2.189,0-4.377,0-6.566
				C120.48,20.713,115.48,20.708,115.48,23.93L115.48,23.93z"/>
		</g>
	</g>
	<g>
		<g>
			<path fill="#8EC020" d="M87.73,23.277c-0.342,2.136-0.305,4.206,0.269,6.304c0.848,3.1,5.673,1.784,4.821-1.329
				c-0.325-1.187-0.465-2.419-0.269-3.646c0.213-1.332-0.344-2.69-1.746-3.075C89.615,21.204,87.945,21.936,87.73,23.277
				L87.73,23.277z"/>
		</g>
	</g>
	<g>
		<g>
			<path fill="#8EC020" d="M132.394,72.238c-0.006,2.332-0.555,4.498-1.685,6.539c-1.56,2.817,2.756,5.342,4.317,2.524
				c1.551-2.801,2.36-5.859,2.368-9.063C137.402,69.02,132.402,69.016,132.394,72.238L132.394,72.238z"/>
		</g>
	</g>
	<g>
		<g>
			<path fill="#8EC020" d="M112.617,85.609c3.217,0,3.223-5,0-5C109.4,80.609,109.394,85.609,112.617,85.609L112.617,85.609z"/>
		</g>
	</g>
	<g>
		<g>
			<path fill="#8EC020" d="M111.582,86.127c3.217,0,3.223-5,0-5C108.364,81.127,108.359,86.127,111.582,86.127L111.582,86.127z"/>
		</g>
	</g>
	<g>
		<g>
			<path fill="#8EC020" d="M95.749,83.841c0.173-0.173,0.345-0.345,0.518-0.518c0.926-0.926,0.995-2.622,0-3.536
				c-0.998-0.916-2.547-0.988-3.536,0c-0.173,0.173-0.345,0.345-0.518,0.518c-0.926,0.926-0.995,2.622,0,3.536
				C93.212,84.758,94.761,84.83,95.749,83.841L95.749,83.841z"/>
		</g>
	</g>
	<g>
		<g>
			<path fill="#8EC020" d="M63.44,74.738c2.761,0,5.522,0,8.282,0c3.217,0,3.223-5,0-5c-2.761,0-5.522,0-8.282,0
				C60.223,69.738,60.217,74.738,63.44,74.738L63.44,74.738z"/>
		</g>
	</g>
</g>
<g id="レイヤー_1">
	<path fill="none" stroke="#000000" stroke-width="5" stroke-linejoin="bevel" stroke-miterlimit="10" d="M81.476,83.876
		c3.455,0.624,5.928,0.536,5.928,0.536l13.526,0.521l19.478,0.187c0,0,26.999,0.26,27.258-26.739l0.128-2.679l0.025,0l-0.009-0.349
		l0.009-0.181l-0.013,0l-0.14-5.662c-0.26-26.999-27.258-26.739-27.258-26.739l-19.478-0.238l-13.526,0.238
		c0,0-26.999-0.26-27.258,26.739l-0.14,5.662l-0.013,0L60,55.353l-0.009,0.349l0.025,0l0.128,2.679
		c0.076,7.867,2.421,13.359,5.708,17.193 M77.594,73.845c-8.346-4.807-8.45-15.55-8.45-15.55l-0.142-2.969l0.142-5.729
		c0,0,0.173-17.999,18.172-17.826l16.866-0.849l16.046,0.852l0.265-0.003c17.999-0.173,18.172,17.826,18.172,17.826l0.142,5.729
		l-0.142,2.969c0,0-0.108,11.207-8.997,15.85"/>
	<path fill="none" stroke="#000000" stroke-width="5" stroke-linejoin="bevel" stroke-miterlimit="10" d="M95.097,73.362
		c0,0-0.087,9-9.086,8.913s-8.913-9.086-8.913-9.086L77.27,55.19c0,0,0.087-9,9.086-8.913c9,0.087,8.913,9.086,8.913,9.086
		L95.097,73.362z"/>
	<path fill="none" stroke="#000000" stroke-width="5" stroke-linejoin="bevel" stroke-miterlimit="10" d="M113.096,73.535
		c0,0-0.087,9-9.086,8.913c-9-0.087-8.913-9.086-8.913-9.086l0.173-17.999c0,0,0.087-9,9.086-8.913c9,0.087,8.913,9.086,8.913,9.086
		L113.096,73.535z"/>
	<path fill="none" stroke="#000000" stroke-width="5" stroke-linejoin="bevel" stroke-miterlimit="10" d="M131.095,73.708
		c0,0-0.087,9-9.086,8.913s-8.913-9.086-8.913-9.086l0.087-9c0,0,0.087-9,9.086-8.913c9,0.087,8.913,9.086,8.913,9.086
		L131.095,73.708z"/>
	<path fill="none" stroke="#000000" stroke-width="5" stroke-linejoin="bevel" stroke-miterlimit="10" d="M113.946,103.025
		c0,0,0.173-17.999-17.826-18.172c-9-0.087-9-0.087-9-0.087"/>
	<path fill="none" stroke="#000000" stroke-width="5" stroke-linejoin="bevel" stroke-miterlimit="10" d="M133.415,81.35l-0.087,9
		l-0.087,9c0,0-0.173,17.999-18.172,17.826l-0.433,44.998l-0.229,23.81"/>
	<path fill="none" stroke="#000000" stroke-width="5" stroke-linejoin="bevel" stroke-miterlimit="10" d="M87.26,84.768
		l-10.559-0.102c0,0,0.299-8.921-8.701-9.007c-9-0.087-9-0.087-9-0.087s-9-0.087-9.086,8.913s8.913,9.086,8.913,9.086
		s9,0.087,8.913,9.086s8.913,9.086,8.913,9.086l-0.087,9l-0.26,26.999l-0.364,37.872"/>
	
		<rect x="93.536" y="8.612" stroke="#000000" stroke-width="5" stroke-linejoin="bevel" stroke-miterlimit="10" width="20.737" height="30.443"/>
</g>
</svg>
