<?xml version="1.0" encoding="utf-8"?>
<!-- Generator: Adobe Illustrator 22.1.0, SVG Export Plug-In . SVG Version: 6.00 Build 0)  -->
<svg version="1.1" xmlns="http://www.w3.org/2000/svg" xmlns:xlink="http://www.w3.org/1999/xlink" x="0px" y="0px"
	 viewBox="0 0 198.425 141.732" enable-background="new 0 0 198.425 141.732" xml:space="preserve">
<g id="レイヤー_2">
	<g>
		<g>
			<path fill="#F8C8AE" d="M30.588,80.236c0.437,0.583,0.875,1.166,1.312,1.749c0.471,0.874,1.115,1.575,1.932,2.104
				c0.724,0.663,1.575,1.11,2.551,1.342c0.997,0.313,1.994,0.357,2.991,0.134c0.998-0.045,1.928-0.342,2.788-0.89
				c1.601-1.032,3.011-2.57,3.447-4.482c0.089-0.665,0.179-1.329,0.268-1.994c-0.004-1.354-0.346-2.616-1.024-3.785
				c-0.437-0.583-0.875-1.166-1.312-1.749c-0.471-0.874-1.115-1.575-1.932-2.104c-0.724-0.663-1.575-1.11-2.551-1.342
				c-0.997-0.313-1.994-0.357-2.991-0.134c-0.998,0.045-1.928,0.342-2.788,0.89c-1.601,1.032-3.011,2.57-3.447,4.482
				c-0.089,0.665-0.179,1.329-0.268,1.994C29.568,77.805,29.91,79.067,30.588,80.236L30.588,80.236z"/>
		</g>
	</g>
	<g>
		<g>
			<path fill="#F8C8AE" d="M39.251,85.263c11.516,0,23.032,0,34.548,0c9.652,0,9.668-15,0-15c-11.516,0-23.032,0-34.548,0
				C29.599,70.263,29.583,85.263,39.251,85.263L39.251,85.263z"/>
		</g>
	</g>
	<g>
		<g>
			<path fill="#F8C8AE" d="M37.501,101.881c13.411,0,26.822,0,40.233,0c9.652,0,9.668-15,0-15c-13.411,0-26.822,0-40.233,0
				C27.85,86.881,27.834,101.881,37.501,101.881L37.501,101.881z"/>
		</g>
	</g>
	<g>
		<g>
			<path fill="#F8C8AE" d="M65.866,85.197c0.43,3.486,0.675,6.98,0.736,10.492c0.068,3.92,3.401,7.684,7.5,7.5
				c4.006-0.179,7.573-3.297,7.5-7.5c-0.061-3.512-0.306-7.006-0.736-10.492c-0.479-3.879-3.106-7.697-7.5-7.5
				C69.715,77.86,65.351,81.026,65.866,85.197L65.866,85.197z"/>
		</g>
	</g>
	<g>
		<g>
			<path fill="#F8C8AE" d="M65.861,87.384c-0.146,1.312-0.292,2.624-0.437,3.936c-0.198,1.786,0.98,4.087,2.197,5.303
				c1.301,1.301,3.435,2.28,5.303,2.197c1.94-0.087,3.951-0.724,5.303-2.197c0.391-0.506,0.782-1.012,1.173-1.518
				c0.678-1.17,1.02-2.432,1.024-3.785c0.146-1.312,0.292-2.624,0.437-3.936c0.198-1.786-0.98-4.087-2.197-5.303
				c-1.301-1.301-3.435-2.28-5.303-2.197c-1.94,0.087-3.951,0.724-5.303,2.197c-0.391,0.506-0.782,1.012-1.173,1.518
				C66.207,84.768,65.865,86.03,65.861,87.384L65.861,87.384z"/>
		</g>
	</g>
	<g>
		<g>
			<path fill="#F8C8AE" d="M65.245,94.135c-0.848,4.381-1.822,8.729-2.923,13.053c4.911,0.665,9.821,1.329,14.732,1.994
				c-0.035-0.526-0.07-1.052-0.105-1.577c-0.638-9.589-14.578-9.713-15,0c-0.112,2.584-0.402,5.025-0.933,7.554
				c-1.976,9.418,12.48,13.445,14.464,3.988c0.799-3.807,1.3-7.655,1.469-11.542c-5,0-10,0-15,0c0.035,0.526,0.07,1.052,0.105,1.577
				c0.539,8.104,12.544,10.587,14.732,1.994c1.101-4.324,2.075-8.672,2.923-13.053C81.535,88.691,67.081,84.652,65.245,94.135
				L65.245,94.135z"/>
		</g>
	</g>
	<g>
		<g>
			<path fill="#F8C8AE" d="M41.437,120.248c12.828,0,25.656,0,38.483,0c9.652,0,9.668-15,0-15c-12.828,0-25.656,0-38.483,0
				C31.785,105.248,31.77,120.248,41.437,120.248L41.437,120.248z"/>
		</g>
	</g>
	<g>
		<g>
			<path fill="#F8C8AE" d="M71.178,122.489c11.301-0.731,23.805-4.433,26.709-16.929c-4.911-0.665-9.821-1.329-14.732-1.994
				c0.223,2.039-1.351,2.792-1.707,4.641c-0.255,0.289-0.509,0.579-0.764,0.868c1.133-0.443,2.086,0.115,2.862,1.673
				c0.034-0.025-0.034-4.059-0.029-4.103c0.216-1.901,0.751-3.903,1.514-5.657c-4.317,0-8.635,0-12.952,0
				c2.405,3.753,4.566,7.613,6.511,11.624c2.865,5.91,12.155,4.158,13.708-1.792c2.276-8.718,3.247-18.821,0.786-27.633
				c-0.954-3.419-4.126-5.237-4.922-8.372c-1.011-3.983,0.318-7.597-2.413-11.221c-2.456-3.259-6.447-4.861-10.261-2.691
				c-3.207,1.825-5.123,7.034-2.691,10.261c1.017,1.349,0.462,5.748,0.901,7.638c0.849,3.656,2.843,5.543,4.783,8.553
				c2.672,4.145,0.677,14.404-0.647,19.477c4.569-0.597,9.139-1.194,13.708-1.792c-1.944-4.011-4.106-7.871-6.511-11.624
				c-2.723-4.25-10.564-5.489-12.952,0c-3.854,8.86-7.581,26.146,5.179,29.922c10.985,3.25,22.064-9.125,20.897-19.772
				c-0.854-7.791-12.662-10.901-14.732-1.994c-1.228,5.283-7.773,5.627-12.245,5.916C61.593,108.109,61.524,123.114,71.178,122.489
				L71.178,122.489z"/>
		</g>
	</g>
	<g>
		<g>
			<path fill="#F8C8AE" d="M81.772,56.228c-1.102-1.797-1.393-3.025-0.868-5.059c-4.178,1.103-8.357,2.206-12.535,3.31
				c1.18,0.922,0.794,0.897,1.351,2.908c0.505,1.823,1.012,3.729,1.93,5.401c1.696,3.086,4.295,5.28,7.422,6.815
				c1.689,0.829,6.248,1.507,7.45,3.069c-0.259-0.466-0.278-0.338-0.056,0.386c0.106,1.253,0.189,2.507,0.25,3.763
				c0.121,2.514,0.129,5.025,0.092,7.541c-0.143,9.656,14.857,9.659,15,0c0.145-9.764,0.575-20.738-9.542-25.538
				c-2.287-1.085-6.659-2.053-7.572-3.577c-0.888-1.481-0.964-3.792-1.592-5.417c-0.897-2.317-2.151-4.416-4.126-5.959
				c-4.229-3.304-10.99-2.677-12.535,3.31c-1.494,5.788-0.756,11.503,2.38,16.618C73.858,72.015,86.837,64.488,81.772,56.228
				L81.772,56.228z"/>
		</g>
	</g>
	<g>
		<g>
			<path fill="#F8C8AE" d="M96.101,82.202c20.262,0,40.524,0,60.786,0c9.652,0,9.668-15,0-15c-20.262,0-40.524,0-60.786,0
				C86.449,67.202,86.433,82.202,96.101,82.202L96.101,82.202z"/>
		</g>
	</g>
	<g>
		<g>
			<path fill="#F8C8AE" d="M104.466,93.999c2.478-2.478,4.956-4.956,7.434-7.434c2.778-2.778,2.985-7.867,0-10.607
				c-2.994-2.748-7.642-2.964-10.607,0c-2.478,2.478-4.956,4.956-7.434,7.434c-2.778,2.778-2.985,7.867,0,10.607
				C96.853,96.747,101.501,96.963,104.466,93.999L104.466,93.999z"/>
		</g>
	</g>
	<g>
		<g>
			<path fill="#F8C8AE" d="M93.04,103.63c0.146,0,0.292,0,0.437,0c1.923,0,3.943-0.837,5.303-2.197
				c0.731-0.679,1.248-1.484,1.551-2.414c0.47-0.894,0.685-1.857,0.646-2.89c-0.087-1.94-0.724-3.951-2.197-5.303
				c-1.467-1.347-3.271-2.197-5.303-2.197c-0.146,0-0.292,0-0.437,0c-1.923,0-3.943,0.837-5.303,2.197
				c-0.731,0.679-1.248,1.484-1.551,2.414c-0.47,0.894-0.685,1.857-0.646,2.89c0.087,1.94,0.724,3.951,2.197,5.303
				C89.204,102.78,91.008,103.63,93.04,103.63L93.04,103.63z"/>
		</g>
	</g>
	<g>
		<g>
			<path fill="#F8C8AE" d="M95.227,105.817c20.408,0,40.816,0,61.224,0c9.652,0,9.668-15,0-15c-20.408,0-40.816,0-61.224,0
				C85.575,90.817,85.559,105.817,95.227,105.817L95.227,105.817z"/>
		</g>
	</g>
	<g>
		<g>
			<path fill="#F8C8AE" d="M107.466,91.103c7.113,0.425,14.232,0.629,21.357,0.546c3.237-0.037,6.475-0.131,9.709-0.28
				c1.941-0.09,3.879-0.207,5.819-0.327c0.646-0.045,1.292-0.09,1.938-0.135c2.46,0.278,2.353-0.381-0.321-1.977
				c0-1.329,0-2.658,0-3.988c-0.108,0.383-0.216,0.766-0.323,1.149c4.911,0.665,9.821,1.329,14.732,1.994
				c0.011-0.165,0.023-0.331,0.034-0.496c-4.569-0.597-9.139-1.194-13.708-1.792c0.465,0.728,0.637,1.508,0.515,2.34
				c4.911-0.665,9.821-1.329,14.732-1.994c-0.138-0.401-0.276-0.803-0.415-1.204c-3.123-9.074-17.618-5.175-14.464,3.988
				c0.138,0.401,0.276,0.803,0.415,1.204c2.677,7.777,14.707,6.8,14.732-1.994c0.006-2.206-0.273-4.265-1.051-6.327
				c-2.171-5.761-10.294-7.786-13.708-1.792c-1.487,2.612-2.181,5.065-2.082,8.067c0.276,8.351,12.393,10.31,14.732,1.994
				c1.321-4.698-0.35-9.605-4.583-12.252c-4.559-2.851-9.97-1.822-15.053-1.554c-10.999,0.58-22.013,0.486-33.006-0.17
				C97.823,75.527,97.857,90.529,107.466,91.103L107.466,91.103z"/>
		</g>
	</g>
	<g>
		<g>
			<path fill="#F8C8AE" d="M165.196,71.766c2.413,0,2.417-3.75,0-3.75C162.783,68.016,162.779,71.766,165.196,71.766L165.196,71.766
				z"/>
		</g>
	</g>
	<g>
		<g>
			<path fill="#F8C8AE" d="M163.759,68.142c0,11.662,0,23.323,0,34.985c0,2.413,3.75,2.417,3.75,0c0-11.662,0-23.323,0-34.985
				C167.509,65.729,163.759,65.725,163.759,68.142L163.759,68.142z"/>
		</g>
	</g>
	<g>
		<g>
			<path fill="#F8C8AE" d="M164.753,103.124c0.205-8.285,0.41-16.57,0.614-24.856c-1.25,0-2.5,0-3.75,0
				c0.64,5.773,0.313,11.492-0.133,17.266c1.228-0.166,2.455-0.332,3.683-0.498c-1.15-5.816-1.783-11.653-1.93-17.578
				c-0.06-2.408-3.746-2.421-3.75,0c-0.006,3.366-0.606,6.308-1.833,9.404c-0.889,2.244,2.736,3.218,3.616,0.997
				c1.36-3.43,1.961-6.728,1.967-10.401c-1.25,0-2.5,0-3.75,0c0.155,6.265,0.848,12.428,2.064,18.575
				c0.434,2.192,3.53,1.49,3.683-0.498c0.446-5.777,0.773-11.493,0.133-17.266c-0.26-2.346-3.689-2.47-3.75,0
				c-0.205,8.285-0.41,16.57-0.614,24.856C160.943,105.538,164.693,105.537,164.753,103.124L164.753,103.124z"/>
		</g>
	</g>
	<g>
		<g>
			<path fill="#F8C8AE" d="M162.553,71.152c-0.334,1.485-0.144,2.935,0.561,4.283c0.368,0.703,1.36,1.107,2.117,0.862
				c0.822-0.266,1.325-0.95,1.377-1.808c0.08-1.316-0.235-2.557-0.781-3.744c-0.333-0.723-1.385-1.09-2.117-0.862
				c-0.576,0.18-1.151,0.359-1.727,0.539c-0.935,0.292-1.629,1.32-1.31,2.306c0.304,0.94,1.304,1.623,2.306,1.31
				c0.576-0.18,1.151-0.359,1.727-0.539c-0.706-0.287-1.412-0.574-2.117-0.862c-0.126-0.274,0.076,0.206,0.094,0.265
				c0.068,0.214,0.121,0.431,0.163,0.651c0.023,0.134,0.024,0.126,0.002-0.024c0.01,0.096,0.017,0.191,0.02,0.287
				c0.01,0.225,0.004,0.447-0.01,0.671c1.165-0.315,2.329-0.631,3.494-0.946c-0.188-0.359-0.004,0.137-0.103-0.223
				c-0.038-0.116-0.07-0.234-0.097-0.353c-0.037-0.202-0.046-0.24-0.027-0.112c0.022,0.177-0.004-0.321-0.001-0.39
				c0.001-0.092,0.007-0.183,0.017-0.274c-0.024,0.196-0.015,0.182,0.028-0.042c0.215-0.955-0.29-2.074-1.31-2.306
				C163.908,69.626,162.784,70.129,162.553,71.152L162.553,71.152z"/>
		</g>
	</g>
	<g>
		<g>
			<path fill="#E8A48D" d="M66.27,82.774c-0.656,1.391-0.819,2.659-0.555,4.172c0.211,1.209,1.622,1.959,2.743,1.791
				c1.14-0.172,2.271-1.198,2.168-2.455c-0.021-0.167-0.027-0.334-0.019-0.502c-0.035,0.207-0.032,0.222,0.009,0.045
				c0.052-0.166,0.041-0.163-0.032,0.009c0.076-0.15,0.164-0.293,0.264-0.427c-1.523-0.199-3.046-0.398-4.569-0.597
				c0.251,0.595,0.501,1.19,0.752,1.785c0.395,0.938,0.993,1.662,2.078,1.791c1.044,0.124,1.9-0.339,2.491-1.194
				c0.302-0.436,0.603-0.872,0.905-1.309c-1.439,0-2.878,0-4.317,0c0.109,0.147,0.203,0.303,0.284,0.467
				c-0.069-0.131-0.077-0.116-0.023,0.045c0.001,0.003-0.036,0.37,0.006,0.16c1.607,0,3.214,0,4.821,0
				c0.038,0.281,0.051-0.488,0.05-0.481c-0.057,0.317,0.151-0.394,0.034-0.119c-1.523-0.199-3.046-0.398-4.569-0.597
				c0.376,1.082,0.525,1.836,0.54,2.91c0.019,1.351,1.136,2.5,2.5,2.5c1.341,0,2.519-1.144,2.5-2.5
				c-0.02-1.439-0.246-2.879-0.718-4.239c-0.329-0.946-1.049-1.668-2.078-1.791c-0.887-0.106-2.105,0.281-2.491,1.194
				c-0.641,1.515-0.81,2.826-0.588,4.453c0.146,1.067,1.42,1.835,2.411,1.835c1.042,0,2.198-0.769,2.411-1.835
				c0.315-1.574,0.14-3.168-0.771-4.524c-1.09-1.623-3.22-1.587-4.317,0c-0.302,0.436-0.603,0.872-0.905,1.309
				c1.523,0.199,3.046,0.398,4.569,0.597c-0.251-0.595-0.501-1.19-0.752-1.785c-0.395-0.938-0.993-1.662-2.078-1.791
				c-1.037-0.123-1.909,0.336-2.491,1.194c-0.664,0.978-1,2.22-0.904,3.399c1.637-0.222,3.274-0.443,4.911-0.665
				c0.052,0.297,0.035-0.365,0.01-0.151c-0.022,0.193,0.155-0.413,0.04-0.168c0.576-1.22,0.34-2.697-0.897-3.42
				C68.604,81.241,66.849,81.547,66.27,82.774L66.27,82.774z"/>
		</g>
	</g>
	<g>
		<g>
			<path fill="#E8A48D" d="M91.056,99.859c-5.707-2.904-10.19-5.712-10.572-12.704c-0.33-6.046,0.173-12.172,0.139-18.226
				c-0.019-3.307-0.117-5.316-3.307-6.583c-2.153-0.855-3.543-0.325-5.02-2.477c-1.088-1.585-1.224-3.417-1.276-5.295
				c-0.027-0.996,0.013-2.042,0.124-3.032c0.147-1.311,1.734-8.986,5.59-4.9c2.213,2.345,5.744-1.195,3.536-3.536
				c-4.325-4.582-11.049-1.777-13.111,3.577c-2.272,5.898-1.983,15.43,3.88,19.215c1.191,0.769,2.367,0.883,3.647,1.336
				c0.463,0.164,1.565,0.408,0.959-0.258c0.387,0.424-0.033,3.277-0.04,3.903c-0.055,5.405-0.342,10.873-0.119,16.275
				c0.366,8.835,5.592,13.228,13.048,17.022C91.395,105.633,93.928,101.32,91.056,99.859L91.056,99.859z"/>
		</g>
	</g>
	<g>
		<g>
			<path fill="#E8A48D" d="M71.393,98.087c0.28,0.952,0.561,1.904,0.841,2.856c0.214-0.811,0.429-1.622,0.643-2.432
				c-2.173,2.788-4.55,4.964-7.596,6.806c-1.052,0.636-1.728,2.329-0.897,3.42c1.003,1.318,4.506,10.181-0.072,9.925
				c-3.215-0.18-3.205,4.82,0,5c8.777,0.492,8.003-12.7,4.39-17.448c-0.299,1.14-0.598,2.28-0.897,3.42
				c2.876-1.739,5.477-3.777,7.649-6.358c2.026-2.408,1.66-3.465,0.761-6.519C75.308,93.678,70.481,94.989,71.393,98.087
				L71.393,98.087z"/>
		</g>
	</g>
	<g>
		<g>
			<path fill="#E8A48D" d="M35.986,104.088c-3.822,3.566-4.475,9.841-1.153,13.992c4.763,5.952,12.972,3.436,19.455,4.037
				c3.203,0.297,3.182-4.705,0-5c-4.253-0.395-9.053,1.002-13.143-0.511c-3.901-1.443-4.547-6.255-1.624-8.983
				C41.879,105.423,38.338,101.893,35.986,104.088L35.986,104.088z"/>
		</g>
	</g>
	<g>
		<g>
			<path fill="#E8A48D" d="M61.199,116.185c-3.911-0.235-7.823-0.471-11.734-0.706c-4.723-0.284-12.999-1.539-8.171-8.426
				c1.851-2.64-2.482-5.142-4.317-2.524c-3.26,4.65-2.451,11.143,2.633,14.186c2.464,1.475,5.405,1.488,8.179,1.662
				c4.469,0.281,8.94,0.538,13.41,0.807C64.413,121.379,64.401,116.378,61.199,116.185L61.199,116.185z"/>
		</g>
	</g>
	<g>
		<g>
			<path fill="#E8A48D" d="M69.064,96.283c-7.266,0.337-14.536,0.554-21.81,0.615c-3.199,0.027-6.75,0.43-9.918-0.009
				c-2.334-0.323-4.229-0.284-3.829-3.18c0.254-1.839,2.011-3.847,3.15-5.104c2.156-2.38-1.37-5.926-3.536-3.536
				c-3.7,4.084-8.38,14.025-0.334,16.48c4.834,1.475,11.439,0.387,16.45,0.328c6.612-0.078,13.221-0.289,19.827-0.595
				C72.268,101.134,72.286,96.134,69.064,96.283L69.064,96.283z"/>
		</g>
	</g>
	<g>
		<g>
			<path fill="#E8A48D" d="M43.885,98.917c-2.07-0.367-6.855-0.388-7.869-2.423c-1.26-2.529,0.205-6.619,1.416-8.855
				c1.533-2.83-2.782-5.357-4.317-2.524c-2.097,3.871-3.373,9.048-1.717,13.327c1.747,4.515,7.068,4.571,11.158,5.297
				C45.702,104.296,47.053,99.478,43.885,98.917L43.885,98.917z"/>
		</g>
	</g>
	<g>
		<g>
			<path fill="#E8A48D" d="M68.417,77.981c-5.387,2.636-13.615,1.176-19.444,1.152c-3.001-0.013-6.022,0.075-9.02-0.048
				c-0.978-0.04-3.751,0.118-4.559-0.783c-2.114-2.359-0.922-5.774,0.252-8.108c1.442-2.867-2.87-5.402-4.317-2.524
				c-3.947,7.849-2.706,15.605,7.276,16.355c5.875,0.441,11.9,0.114,17.791,0.139c5.031,0.021,9.926,0.395,14.545-1.866
				C73.83,80.884,71.299,76.57,68.417,77.981L68.417,77.981z"/>
		</g>
	</g>
	<g>
		<g>
			<path fill="#E8A48D" d="M102.866,103.011c0-0.154,0-0.307,0-0.461c0-1.308-1.15-2.56-2.5-2.5c-1.355,0.061-2.5,1.098-2.5,2.5
				c0,0.154,0,0.307,0,0.461c0,1.308,1.15,2.56,2.5,2.5C101.72,105.45,102.866,104.412,102.866,103.011L102.866,103.011z"/>
		</g>
	</g>
	<g>
		<g>
			<path fill="#E8A48D" d="M100.826,105.05c21.656,0,43.312,0,64.968,0c3.217,0,3.223-5,0-5c-21.656,0-43.312,0-64.968,0
				C97.609,100.05,97.604,105.05,100.826,105.05L100.826,105.05z"/>
		</g>
	</g>
	<g>
		<g>
			<path fill="#E8A48D" d="M93.724,102.169c-1.389,12.456-14.281,19.762-25.715,14.653c-2.913-1.302-5.459,3.006-2.524,4.317
				c15.082,6.739,31.408-2.556,33.238-18.97C99.081,98.976,94.078,99.001,93.724,102.169L93.724,102.169z"/>
		</g>
	</g>
	<g>
		<g>
			<path fill="#ADB3B7" d="M43.271,32.35c-0.06-0.216-0.282-1.075-0.07-1.089c-0.011,0.001-0.267,0.298-0.445,0.314
				c-0.559,0.051-0.592-0.424-0.9-0.667c0.005-0.166,0.008-0.158,0.01,0.025c0.008,0.144,0.004,0.288-0.01,0.433
				c0.035-0.285-0.075,0.24-0.097,0.317c-0.066,0.228-0.19,0.376-0.185,0.432c0.029,0.277-0.127-0.024,0.087-0.036
				c0.324-0.202,0.635-0.195,0.933,0.022c0.218,0.001,0.37,0.082,0.456,0.244c0.341,0.255-0.137,0.287,0.184,0.236
				c0.035-0.005,0.267-0.232,0.334-0.282c0.899-0.681,0.214-0.019,0.2-0.132c-0.008-0.063-0.555-0.308-0.638-0.422
				c-0.259-0.354-0.182-1.152,0.136-1.423c-1.027,0.878-0.902,2.633,0,3.536c1.018,1.018,2.506,0.88,3.536,0
				c1.639-1.4,1.436-4.062-0.015-5.518c-1.534-1.54-3.98-1.411-5.742-0.358c-1.875,1.121-3.272,3.267-2.822,5.507
				c0.424,2.113,2.368,3.719,4.56,3.381c3.963-0.612,5.598-7.033,2.412-9.466c-1.679-1.283-4.109-0.971-5.593,0.485
				c-1.549,1.521-1.703,3.802-1.155,5.793C39.302,36.777,44.127,35.462,43.271,32.35L43.271,32.35z"/>
		</g>
	</g>
	<g>
		<g>
			<path fill="#ADB3B7" d="M42.015,32.912c0.118-2.084,0.788-2.782,2.011-2.094c0.852,0.153,1.49,0.642,1.916,1.466
				c0.109-0.782,0.591-1.201,1.448-1.255c0.905-0.794,1.683-0.64,2.334,0.462c0.204,0.296,0.407,0.592,0.611,0.888
				c0.639-1.388,1.489-1.588,2.552-0.6c0.446,0.439,0.891,0.877,1.337,1.316c2.609,0.129,2.651,0.588,0.125,1.376
				c1.025-0.582,2.05-1.164,3.075-1.746c-1.089-0.419-3.781-2.43-2.668-3.965c-0.72,0.413-1.439,0.825-2.159,1.238
				c1.189-0.049,1.858,1.936,2.737,1.912c0.45-0.012-2.541-3.223-2.546-2.633c-0.004,0.445,2.498,2.563,2.824,3.264
				c0.623,1.341,0.737,2.771,0.672,4.227c-0.144,3.217,4.856,3.21,5,0c0.159-3.543-0.923-6.936-3.326-9.59
				c-1.831-2.022-5.036-4.243-7.825-2.649c-5.896,3.371,1.672,13.155,7.004,12.025c7.717-1.637,1.237-11.641-4.016-11.578
				c-3.127,0.038-4.04,3.209-3.396,5.843c0.814,3.33,3.275,5.536,6.371,6.726c1.304,0.501,2.688-0.565,3.075-1.746
				c0.729-2.224,0.946-4.747-0.758-6.617c-1.441-1.581-3.783-1.996-5.604-0.907c-4.12,2.466-1.65,9.963,2.773,10.395
				c5.949,0.581,4.24-7.159,1.567-9.817c-3.076-3.059-9.871-4.463-11.737,0.682c-1.488,4.101,2.273,9.363,6.778,7.932
				c5.492-1.745,3.035-8.211-0.334-10.677c-4.017-2.94-9.532-1.769-10.456,3.601c-0.742,4.311,3.557,10.341,8.109,6.763
				c4.605-3.62-0.179-10.371-4.596-11.401c-5.69-1.327-10.518,4.626-7.213,9.682C39.451,38.119,43.782,35.617,42.015,32.912
				L42.015,32.912z"/>
		</g>
	</g>
	<g>
		<g>
			<path fill="#ADB3B7" d="M41.96,52.375c-0.82,1.99-0.591,2.561,0.688,1.715c0.811,0.214,1.622,0.429,2.432,0.643
				c-0.542-0.403-0.565-0.859-0.068-1.366c0.309-1.318,1.31-1.614,3.002-0.888c1.063-0.22,2.126-0.439,3.188-0.659
				c1.351,0.847,2.609,0.761,3.776-0.257c-2.332,2.226,1.207,5.758,3.536,3.536c4.152-3.963-1.573-9.225-4.912-4.506
				c-3.416,4.828,2.729,10.428,6.57,5.411c3.556-4.646-2.315-10.935-7.099-7.411c-4.53,3.337-0.36,11.482,4.196,7.721
				c4.811-3.971-1.975-10.067-6.405-9.477c-5.59,0.744-7.572,8.873-1.87,11.207c2.061,0.843,4.306-0.023,5.177-2.1
				c1.111-2.649-0.605-5.635-2.738-7.18c-4.581-3.319-11.903-0.88-11.77,5.387c0.054,2.53,1.993,5.739,4.916,4.588
				c2.721-1.071,2.545-4.434,1.557-6.674c-1.136-2.574-4.285-5.522-7.299-4.204c-2.996,1.311-2.44,4.711-1.194,7.039
				C39.162,57.736,43.48,55.214,41.96,52.375L41.96,52.375z"/>
		</g>
	</g>
	<g>
		<g>
			<path fill="#74787A" d="M34.881,44.738c8.97,0,17.939,0,26.909,0c3.217,0,3.223-5,0-5c-8.97,0-17.939,0-26.909,0
				C31.664,39.738,31.658,44.738,34.881,44.738L34.881,44.738z"/>
		</g>
	</g>
	<g>
		<g>
			<path fill="#D8403F" d="M42.74,65.932c0.079,0,0.159,0,0.238,0c1.308,0,2.56-1.15,2.5-2.5c-0.061-1.355-1.098-2.5-2.5-2.5
				c-0.079,0-0.159,0-0.238,0c-1.308,0-2.56,1.15-2.5,2.5C40.3,64.786,41.338,65.932,42.74,65.932L42.74,65.932z"/>
		</g>
	</g>
	<g>
		<g>
			<path fill="#D8403F" d="M43.7,66.481c3.343-0.313,6.668-0.295,10.007,0.054c3.197,0.334,3.173-4.669,0-5
				c-3.339-0.349-6.664-0.366-10.007-0.054C40.523,61.778,40.492,66.781,43.7,66.481L43.7,66.481z"/>
		</g>
	</g>
	<g>
		<g>
			<path fill="#D8403F" d="M53.831,59.997c-0.079,0.079-0.159,0.159-0.238,0.238c-0.926,0.926-0.995,2.622,0,3.536
				c0.998,0.916,2.547,0.988,3.536,0c0.079-0.079,0.159-0.159,0.238-0.238c0.926-0.926,0.995-2.622,0-3.536
				C56.369,59.081,54.819,59.009,53.831,59.997L53.831,59.997z"/>
		</g>
	</g>
	<g>
		<g>
			<path fill="#D8403F" d="M47.502,128.085c2.143,0,4.286,0,6.43,0c3.217,0,3.223-5,0-5c-2.143,0-4.286,0-6.43,0
				C44.285,123.085,44.28,128.085,47.502,128.085L47.502,128.085z"/>
		</g>
	</g>
</g>
<g id="レイヤー_1">
	
		<rect x="46.824" y="118.85" transform="matrix(-3.933069e-10 1 -1 -3.933069e-10 175.4998 74.886)" fill="none" stroke="#000000" stroke-width="5" stroke-linejoin="bevel" stroke-miterlimit="10" width="6.965" height="12.686"/>
	<path fill="none" stroke="#000000" stroke-width="5" stroke-linejoin="bevel" stroke-miterlimit="10" d="M62.537,85.706
		c0,0,9-0.016,8.984-9.016s-9.016-8.984-9.016-8.984l-25.087,0.032c0,0-9,0.016-8.984,9.016s9.016,8.984,9.016,8.984L62.537,85.706z
		"/>
	<path fill="none" stroke="#000000" stroke-width="5" stroke-linejoin="bevel" stroke-miterlimit="10" d="M62.57,103.706
		c0,0,9-0.016,8.984-9.016c-0.016-9-9.016-8.984-9.016-8.984l-25.087,0.032c0,0-9,0.016-8.984,9.016s9.016,8.984,9.016,8.984
		L62.57,103.706z"/>
	<path fill="none" stroke="#000000" stroke-width="5" stroke-linejoin="bevel" stroke-miterlimit="10" d="M55.515,121.706
		c0,0,9-0.016,8.984-9.016c-0.016-9-9.016-8.984-9.016-8.984l-13.535,0.016c0,0-9,0.016-8.984,9.016
		c0.016,9,9.016,8.984,9.016,8.984L55.515,121.706z"/>
	<path fill="none" stroke="#000000" stroke-width="5" stroke-linejoin="bevel" stroke-miterlimit="10" d="M92.477,104.787
		c0,0-18,0.032-18.032-17.968c-0.016-9-0.016-9-0.016-9"/>
	<path fill="none" stroke="#000000" stroke-width="5" stroke-linejoin="bevel" stroke-miterlimit="10" d="M167.917,105.898
		l-23.811,0.043l-45,0.081c0.032,18-17.968,18.032-17.968,18.032l-9,0.016l-4.323,0.016h-8.803"/>
	<path fill="none" stroke="#000000" stroke-width="5" stroke-linejoin="bevel" stroke-miterlimit="10" d="M74.429,77.959L74.41,67.4
		c0,0-8.923,0.229-8.939-8.771s-0.016-9-0.016-9s-0.016-9,8.984-9.016c9-0.016,9.016,8.984,9.016,8.984s0.016,9,9.016,8.984
		s9.016,8.984,9.016,8.984l9-0.016l27-0.048l37.873-0.068"/>
	
		<rect x="39.476" y="59.566" transform="matrix(-1 -4.491619e-11 4.491619e-11 -1 97.4194 126.9922)" fill="none" stroke="#000000" stroke-width="5" stroke-linejoin="bevel" stroke-miterlimit="10" width="18.467" height="7.859"/>
	
		<rect x="31.787" y="37.969" transform="matrix(-1 -4.482293e-11 4.482293e-11 -1 97.4194 83.7972)" fill="none" stroke="#000000" stroke-width="5" stroke-linejoin="bevel" stroke-miterlimit="10" width="33.845" height="7.859"/>
	<path fill="none" stroke="#000000" stroke-width="5" stroke-linejoin="bevel" stroke-miterlimit="10" d="M62.21,46.669
		c0,2.23,0,3.617,0,3.617s0,9-9,9s-9,0-9,0s-9,0-9-9c0-1.5,0-3,0-4.458"/>
	<path fill="none" stroke="#000000" stroke-width="5" stroke-linejoin="bevel" stroke-miterlimit="10" d="M62.21,37.969
		c0-1.836,0-3.759,0-5.683c0-9-9-9-9-9s0,0-9,0s-9,9-9,9s0,2.276,0,5.683"/>
	
		<line fill="none" stroke="#000000" stroke-width="5" stroke-linejoin="bevel" stroke-miterlimit="10" x1="46.584" y1="23.286" x2="61.267" y2="37.969"/>
	
		<line fill="none" stroke="#000000" stroke-width="5" stroke-linejoin="bevel" stroke-miterlimit="10" x1="50.836" y1="23.286" x2="36.153" y2="37.969"/>
	
		<line fill="none" stroke="#000000" stroke-width="5" stroke-linejoin="bevel" stroke-miterlimit="10" x1="50.836" y1="37.969" x2="37.944" y2="25.077"/>
	
		<line fill="none" stroke="#000000" stroke-width="5" stroke-linejoin="bevel" stroke-miterlimit="10" x1="46.584" y1="37.969" x2="59.475" y2="25.077"/>
	
		<line fill="none" stroke="#000000" stroke-width="5" stroke-linejoin="bevel" stroke-miterlimit="10" x1="46.584" y1="45.186" x2="58.911" y2="57.514"/>
	
		<line fill="none" stroke="#000000" stroke-width="5" stroke-linejoin="bevel" stroke-miterlimit="10" x1="50.836" y1="45.186" x2="37.644" y2="58.378"/>
	
		<line fill="none" stroke="#000000" stroke-width="5" stroke-linejoin="bevel" stroke-miterlimit="10" x1="50.836" y1="59.869" x2="36.153" y2="45.186"/>
	
		<line fill="none" stroke="#000000" stroke-width="5" stroke-linejoin="bevel" stroke-miterlimit="10" x1="46.584" y1="59.869" x2="61.267" y2="45.186"/>
</g>
</svg>
