<?xml version="1.0" encoding="utf-8"?>
<!-- Generator: Adobe Illustrator 22.1.0, SVG Export Plug-In . SVG Version: 6.00 Build 0)  -->
<svg version="1.1" xmlns="http://www.w3.org/2000/svg" xmlns:xlink="http://www.w3.org/1999/xlink" x="0px" y="0px"
	 viewBox="0 0 198.425 172.79" enable-background="new 0 0 198.425 172.79" xml:space="preserve">
<g id="レイヤー_2">
	<g>
		<g>
			<path fill="#F8C8AE" d="M38.699,89.149c0-11.973,0-23.946,0-35.918c0-2.413-3.75-2.417-3.75,0c0,11.973,0,23.946,0,35.918
				C34.949,91.562,38.699,91.566,38.699,89.149L38.699,89.149z"/>
		</g>
	</g>
	<g>
		<g>
			<path fill="#F8C8AE" d="M38.118,63.665c0.244,0.244,0.489,0.489,0.733,0.733c1.36,1.36,3.38,2.197,5.303,2.197
				c1.033,0.039,1.996-0.176,2.89-0.646c0.93-0.302,1.734-0.819,2.414-1.551c1.312-1.429,2.286-3.306,2.197-5.303
				c-0.089-1.989-0.761-3.868-2.197-5.303c-0.244-0.244-0.489-0.489-0.733-0.733c-1.36-1.36-3.38-2.197-5.303-2.197
				c-1.033-0.039-1.996,0.176-2.89,0.646c-0.93,0.302-1.734,0.819-2.414,1.551c-1.312,1.429-2.286,3.306-2.197,5.303
				C36.01,60.352,36.682,62.23,38.118,63.665L38.118,63.665z"/>
		</g>
	</g>
	<g>
		<g>
			<path fill="#F8C8AE" d="M44.887,65.862c20.769,0,41.538,0,62.308,0c9.652,0,9.668-15,0-15c-20.769,0-41.538,0-62.308,0
				C35.235,50.862,35.22,65.862,44.887,65.862L44.887,65.862z"/>
		</g>
	</g>
	<g>
		<g>
			<path fill="#F8C8AE" d="M111.576,58.549c0.808-1.646,1.509-4.176,2.658-5.576c-1.768,0.732-3.536,1.464-5.303,2.197
				c0.413,0.049,0.825,0.099,1.238,0.148c-1.262-0.341-2.524-0.683-3.785-1.024c5.138,3.515,11.71,3.064,16.363-1.145
				c2.105-1.904,3.448-4.363,4.485-6.964c0.603-1.512,1.078-5.65,2.337-6.595c-3.672-1.494-7.345-2.988-11.017-4.482
				c0.427,1.634,1.376,3.931,0.949,5.662c-0.3,1.215-1.056,0.683-2.838,1.756c-3.38,2.034-5.079,5.529-5.865,9.248
				c-0.985,4.663-1.422,9.512-2.12,14.227c-0.384,2.592-0.768,5.184-1.152,7.776c-0.192,1.296-0.384,2.592-0.576,3.888
				c-0.824,1.881-0.277,2.261,1.641,1.139c1.262,0.341,2.524,0.683,3.785,1.024c1.399,0.676,0.257,1.851,1.019,0.443
				c0.43-0.793,0.279-3.437,0.374-4.227c0.362-2.984,0.943-5.931,1.581-8.867c2.042-9.391-11.75-13.314-14.464-3.988
				c-1.588,5.457-5.408,9.976-10.82,11.963c3.075,1.746,6.151,3.492,9.226,5.238c-0.599-3.342,0.717-6.393,3.021-8.742
				c5.77-5.88-1.868-16.76-9.089-11.779c-6.904,4.762-14.177,7.644-22.458,8.976c-3.99,0.642-6.245,5.63-5.238,9.226
				c1.191,4.254,5.196,5.887,9.226,5.238c9.355-1.505,18.243-5.11,26.041-10.488c-3.03-3.926-6.059-7.853-9.089-11.779
				c-6.286,6.406-8.444,14.599-6.879,23.336c0.675,3.768,5.675,6.542,9.226,5.238c10.437-3.832,18.167-11.684,21.297-22.439
				c-4.821-1.329-9.643-2.658-14.464-3.988c-1.678,7.716-5.212,19.512,0.164,26.489c7.046,9.145,18.441,2.01,20.228-7.208
				c0.985-5.079,1.537-10.281,2.295-15.399c0.384-2.592,0.768-5.184,1.152-7.776c0.199-1.344,0.646-2.795,0.641-4.153
				c-0.008-2.397,0.554,0.017-0.717,0.198c4.142-0.589,7.651-5.634,8.884-9.234c1.696-4.95,0.768-10.065-0.517-14.986
				c-1.114-4.267-7.097-7.424-11.017-4.482c-3.189,2.393-5.217,4.834-6.735,8.501c-0.556,1.343-0.956,2.668-1.432,4.04
				c-0.525,1.513-0.419,2.573-1.312,2.475c1.262,0.341,2.524,0.683,3.785,1.024c-3.585-1.622-7.228-3.832-11.159-1.485
				c-3.432,2.049-4.858,6.394-6.521,9.784C94.388,59.613,107.32,67.224,111.576,58.549L111.576,58.549z"/>
		</g>
	</g>
	<g>
		<g>
			<path fill="#F8C8AE" d="M74.942,62.591c-8.921-0.649-17.845-0.904-26.789-0.764c-8.214,0.128-10.492,12.868-1.994,14.732
				c4.484,0.983,8.969,1.446,13.554,1.168c9.66-0.586,9.64-14.346,0-15c-4.596-0.312-9.192-0.623-13.787-0.935
				c-9.717-0.659-9.467,14.068,0,15c2.968,0.292,5.936,0.584,8.904,0.876c0-5,0-10,0-15c-5.072-0.102-11.127-1.148-14.771,3.232
				c-3.226,3.877-2.741,10.24-3.2,15.008c-0.367,3.814,3.74,7.811,7.5,7.5c15.05-1.243,30.124-2.054,45.221-2.434c0-5,0-10,0-15
				c-5.798,0.638-11.595,1.276-17.393,1.914c-3.707,0.408-6.894,2.539-7.366,6.503c-0.391,3.289,1.634,7.722,5.372,8.229
				c3.224,0.437,6.447,0.874,9.671,1.311c0.665-4.911,1.329-9.821,1.994-14.732c-9.149-0.571-18.295-0.74-27.459-0.508
				c-9.635,0.244-9.672,15.245,0,15c9.163-0.232,18.31-0.063,27.459,0.508c8.301,0.518,10.424-13.589,1.994-14.732
				c-3.224-0.437-6.447-0.874-9.671-1.311c-0.665,4.911-1.329,9.821-1.994,14.732c5.798-0.638,11.595-1.276,17.393-1.914
				c9.356-1.03,9.869-15.248,0-15c-15.096,0.38-30.171,1.191-45.221,2.434c2.5,2.5,5,5,7.5,7.5c0.149-1.543-0.149-5.537,0.566-6.678
				c-1.494,1.149-2.988,2.298-4.482,3.447c1.399-0.572,5.047-0.045,6.887-0.008c9.817,0.197,9.426-14.072,0-15
				c-2.968-0.292-5.936-0.584-8.904-0.876c0,5,0,10,0,15c4.596,0.312,9.192,0.623,13.787,0.935c0-5,0-10,0-15
				c-3.274,0.199-6.358,0.072-9.566-0.632c-0.665,4.911-1.329,9.821-1.994,14.732c8.944-0.14,17.867,0.115,26.789,0.764
				C84.573,78.291,84.528,63.288,74.942,62.591L74.942,62.591z"/>
		</g>
	</g>
	<g>
		<g>
			<path fill="#F8C8AE" d="M51.153,83.318c0.684-6.252,0.892-12.502,0.626-18.785c-0.299-7.045-10.357-10.706-13.976-3.785
				c-0.224,0.428-0.447,0.855-0.671,1.283c-4.468,8.546,8.473,16.138,12.952,7.571c0.224-0.428,0.447-0.855,0.671-1.283
				c-4.659-1.262-9.317-2.524-13.976-3.785c0.266,6.284,0.058,12.533-0.626,18.785c-0.441,4.033,3.763,7.5,7.5,7.5
				C48.074,90.818,50.71,87.362,51.153,83.318L51.153,83.318z"/>
		</g>
	</g>
	<g>
		<g>
			<path fill="#F8C8AE" d="M104.973,87.72c-1.183,9.259,4.467,18.987,14.968,16.587c5.119-1.17,7.734-9.016,3.31-12.535
				c-0.547-0.414-1.072-0.853-1.576-1.318c-1.473-0.573-1.62,0.906-0.442,4.436c-1.103,0.643-2.206,1.286-3.31,1.929
				c-0.126,0.035-0.252,0.071-0.378,0.106c-1.262-0.341-2.524-0.683-3.785-1.024c-0.787-1.157-0.95-1.355-0.491-0.594
				c0.247,0.399,0.457,0.816,0.632,1.252c1.241,2.646,4.783,3.985,7.473,3.581c3.184-0.479,5.06-2.478,6.235-5.372
				c1.067-2.627,1.057-5.736,0.042-8.379c-3.673,2.823-7.345,5.647-11.017,8.47c1.109,0.632,1.321,0.708,0.635,0.226
				c5.39,7.939,17.539,1.029,12.952-7.571c-0.601-1.126-0.879-2.153-1.151-3.411c-1.149,2.823-2.298,5.647-3.447,8.47
				c0.208-0.103,0.416-0.206,0.624-0.309c-1.926,0.252-3.853,0.504-5.779,0.756c0.208,0.05,0.417,0.1,0.625,0.149
				c-1.103-0.643-2.206-1.286-3.31-1.929c-0.508-0.435-0.256-1.008-0.547-0.997c0.026-0.001,0.085,3.204,0.086,3.401
				c0.012,2.043-0.064,4.08-0.185,6.119c5,0,10,0,15,0c0.092-2.348,0.556-4.387,1.3-6.627c-4.911-0.665-9.821-1.329-14.732-1.994
				c0.046,3.122,0.092,6.245,0.138,9.367c2.5-2.5,5-5,7.5-7.5c-3.469-0.267-10.652-1.386-11.059-6.062
				c-0.351-4.035-3.196-7.5-7.5-7.5c-3.785,0-7.853,3.441-7.5,7.5c1.215,13.961,13.359,20.085,26.059,21.062
				c4.005,0.308,7.556-3.685,7.5-7.5c-0.046-3.122-0.092-6.245-0.138-9.367c-0.127-8.63-12.086-9.958-14.732-1.994
				c-1.141,3.436-1.694,6.999-1.836,10.614c-0.379,9.687,14.432,9.584,15,0c0.276-4.653,0.825-10.146-0.752-14.593
				c-2.057-5.801-7.81-8.283-13.333-5.55c-3.073,1.521-4.116,5.372-3.447,8.47c0.531,2.459,1.48,4.776,2.663,6.994
				c4.317-2.524,8.635-5.047,12.952-7.571c-1.605-2.363-3.434-4.31-6.017-5.607c-5.248-2.636-13.553,1.867-11.017,8.47
				c0.374,0.153,0.36,0.287-0.042,0.404c4.569-0.597,9.139-1.194,13.708-1.792c-2.992-6.377-11.282-9.989-16.845-4.204
				c-5.295,5.506-2.72,13.334,2.636,17.596c1.103-4.178,2.206-8.357,3.31-12.535c1.035,0.23,2.07,0.46,3.105,0.69
				c0.523,1.406,0.733,1.572,0.631,0.498c0.306-0.6,0.204-2.685,0.284-3.311c0.514-4.025-3.815-7.5-7.5-7.5
				C107.993,80.22,105.489,83.683,104.973,87.72L104.973,87.72z"/>
		</g>
	</g>
	<g>
		<g>
			<path fill="#F8C8AE" d="M143.285,84.19c0.244-0.244,0.489-0.489,0.733-0.733c1.36-1.36,2.197-3.38,2.197-5.303
				c0.039-1.033-0.176-1.996-0.646-2.89c-0.302-0.93-0.819-1.734-1.551-2.414c-1.429-1.312-3.306-2.286-5.303-2.197
				c-1.989,0.089-3.868,0.761-5.303,2.197c-0.244,0.244-0.489,0.489-0.733,0.733c-1.36,1.36-2.197,3.38-2.197,5.303
				c-0.039,1.033,0.176,1.996,0.646,2.89c0.302,0.93,0.819,1.734,1.551,2.414c1.429,1.312,3.306,2.286,5.303,2.197
				C139.972,86.298,141.85,85.626,143.285,84.19L143.285,84.19z"/>
		</g>
	</g>
	<g>
		<g>
			<path fill="#F8C8AE" d="M137.249,86.387c8.552,0,17.104,0,25.656,0c9.652,0,9.668-15,0-15c-8.552,0-17.104,0-25.656,0
				C127.597,71.387,127.581,86.387,137.249,86.387L137.249,86.387z"/>
		</g>
	</g>
	<g>
		<g>
			<path fill="#F8C8AE" d="M131.213,65.131c1.466,1.466,2.932,2.932,4.398,4.398c1.36,1.36,3.38,2.197,5.303,2.197
				c1.84,0,4.037-0.817,5.303-2.197c2.748-2.994,2.964-7.642,0-10.607c-1.466-1.466-2.932-2.932-4.398-4.398
				c-1.36-1.36-3.38-2.197-5.303-2.197c-1.84,0-4.037,0.817-5.303,2.197C128.464,57.519,128.248,62.167,131.213,65.131
				L131.213,65.131z"/>
		</g>
	</g>
	<g>
		<g>
			<path fill="#F8C8AE" d="M138.707,69.307c8.305-0.306,16.611-0.612,24.916-0.919c9.623-0.355,9.67-15.357,0-15
				c-8.305,0.306-16.611,0.612-24.916,0.919C129.084,54.662,129.037,69.663,138.707,69.307L138.707,69.307z"/>
		</g>
	</g>
	<g>
		<g>
			<path fill="#F8C8AE" d="M138.857,105.545c6.793,0.976,13.271,0.803,19.896-1.173c8.324-2.484,6.35-14.172-1.994-14.732
				c-3.178-0.213-6.173-0.772-9.252-1.596c0,4.821,0,9.643,0,14.464c2.7-0.441,5.738-0.062,8.243,1.052
				c-0.506-3.926-1.012-7.853-1.518-11.779c1.136-1.404,1.968,0.417,0.712-0.522c-0.305-0.228-2.024-0.59-2.876-0.82
				c-3.09-0.835-6.181-1.67-9.271-2.505c-9.33-2.521-13.311,11.945-3.988,14.464c7.56,2.042,19.824,7.66,26.03-0.01
				c2.693-3.328,3.325-9.627-1.518-11.779c-6.551-2.911-12.719-3.719-19.802-2.564c-7.562,1.234-6.714,12.667,0,14.464
				c4.335,1.16,8.763,1.831,13.239,2.132c-0.665-4.911-1.329-9.821-1.994-14.732c-3.866,1.153-7.883,1.754-11.921,1.173
				c-4.004-0.575-8.058,0.986-9.226,5.238C132.651,99.84,134.822,104.965,138.857,105.545L138.857,105.545z"/>
		</g>
	</g>
	<g>
		<g>
			<path fill="#E8A48D" d="M125.704,29.017c5.606,0.057,4.72,9.99,4.054,13.643c-0.573,3.146,4.244,4.495,4.821,1.329
				c1.302-7.144,1.095-19.871-8.876-19.972C122.486,23.984,122.483,28.984,125.704,29.017L125.704,29.017z"/>
		</g>
	</g>
	<g>
		<g>
			<path fill="#E8A48D" d="M129.99,41.646c-1.807,3.22-5.655,3.458-7.308,6.805c-1.362,2.759-1.162,6.443-1.41,9.415
				c-0.755,9.047,0.653,23.875-11.652,24.942c-3.181,0.276-3.211,5.278,0,5c8.726-0.756,14.321-6.829,15.393-15.355
				c0.724-5.759,0.928-11.588,1.491-17.364c0.381-3.911,1.315-4.793,4.315-6.848c1.531-1.049,2.595-2.478,3.489-4.071
				C135.884,41.36,131.567,38.836,129.99,41.646L129.99,41.646z"/>
		</g>
	</g>
	<g>
		<g>
			<path fill="#E8A48D" d="M164.173,57.075c1.997,0.82,1.353,3.907,0.272,5.164c-1.32,1.535-3.604,1.824-5.454,2.013
				c-2.762,0.282-5.554-0.01-8.325-0.005c-5.508,0.009-10.871,0.457-16.18-1.361c-3.051-1.045-4.361,3.783-1.329,4.821
				c5.164,1.768,10.397,1.643,15.792,1.564c5.187-0.076,10.979,0.952,15.836-1.363c6.755-3.22,8.339-12.525,0.717-15.655
				C162.528,51.032,161.232,55.867,164.173,57.075L164.173,57.075z"/>
		</g>
	</g>
	<g>
		<g>
			<path fill="#E8A48D" d="M160.125,73.922c4.141,1.851,4.897,5.251,0.65,7.345c-2.999,1.479-6.823,1.153-10.06,0.918
				c-5.831-0.423-11.502-0.775-17.351-0.364c-3.192,0.224-3.217,5.226,0,5c5.846-0.411,11.524-0.059,17.351,0.364
				c4.557,0.331,9.632,0.343,13.707-2.066c7.245-4.283,5.198-12.398-1.773-15.514C159.736,68.302,157.19,72.609,160.125,73.922
				L160.125,73.922z"/>
		</g>
	</g>
	<g>
		<g>
			<path fill="#E8A48D" d="M159.186,91.712c5.018,4.104,0.689,8.639-4.137,9.637c-4.699,0.972-9.548,0.393-14.109-0.917
				c-3.098-0.89-4.421,3.933-1.329,4.821c7.04,2.022,16.82,2.977,23.045-1.799c5.052-3.876,4.91-11.316,0.065-15.278
				C160.251,86.155,156.693,89.672,159.186,91.712L159.186,91.712z"/>
		</g>
	</g>
	<g>
		<g>
			<path fill="#E8A48D" d="M139.64,104.023c7.159,0.991,14.217,1.12,21.396,0.215c3.15-0.397,3.189-5.402,0-5
				c-6.689,0.843-13.382,0.889-20.067-0.036C137.823,98.766,136.462,103.583,139.64,104.023L139.64,104.023z"/>
		</g>
	</g>
	<g>
		<g>
			<path fill="#E8A48D" d="M165.561,79.323c0.524,1.466-0.105,3.181-1.691,3.639c-3.085,0.891-1.773,5.718,1.329,4.821
				c4.045-1.169,6.631-5.739,5.184-9.79c-0.454-1.271-1.704-2.123-3.075-1.746C166.078,76.585,165.105,78.045,165.561,79.323
				L165.561,79.323z"/>
		</g>
	</g>
	<g>
		<g>
			<path fill="#E8A48D" d="M167.949,80.784c3.217,0,3.223-5,0-5C164.731,75.784,164.726,80.784,167.949,80.784L167.949,80.784z"/>
		</g>
	</g>
	<g>
		<g>
			<path fill="#E8A48D" d="M123.309,81.249c0.643,4.129,3.469,7.826,7.275,9.545c1.239,0.56,2.676,0.347,3.42-0.897
				c0.638-1.065,0.331-2.866-0.897-3.42c-2.788-1.259-4.507-3.535-4.978-6.557c-0.208-1.335-1.88-2.075-3.075-1.746
				C123.631,78.566,123.101,79.91,123.309,81.249L123.309,81.249z"/>
		</g>
	</g>
	<g>
		<g>
			<path fill="#E8A48D" d="M127.489,86.353c-0.192,6.146-0.243,12.291-0.153,18.438c0.047,3.215,5.047,3.224,5,0
				c-0.09-6.148-0.039-12.293,0.153-18.438C132.59,83.135,127.59,83.138,127.489,86.353L127.489,86.353z"/>
		</g>
	</g>
	<g>
		<g>
			<path fill="#E8A48D" d="M102.805,90.008c-3.193,14.169,15.181,17.143,25.186,16.427c3.191-0.228,3.216-5.23,0-5
				c-6.038,0.432-22.633-0.03-20.365-10.097C108.333,88.204,103.513,86.866,102.805,90.008L102.805,90.008z"/>
		</g>
	</g>
	<g>
		<g>
			<path fill="#E8A48D" d="M104.175,85.43c0.759,0.074,0.026-0.006-0.152-0.056c-0.107-0.03-0.212-0.064-0.316-0.102
				c0.314,0.14,0.385,0.17,0.215,0.09c-0.168-0.094-0.338-0.191-0.506-0.285c-0.22-0.154-0.184-0.123,0.107,0.094
				c-0.085-0.071-0.167-0.146-0.246-0.224c-0.949-0.9-2.606-1.013-3.536,0c-0.896,0.976-1.014,2.574,0,3.536
				c1.249,1.185,2.735,1.783,4.433,1.948c1.306,0.127,2.556-1.24,2.5-2.5C106.61,86.467,105.574,85.566,104.175,85.43L104.175,85.43
				z"/>
		</g>
	</g>
	<g>
		<g>
			<path fill="#E8A48D" d="M103.026,84.235c-22.025,0-44.05,0-66.075,0c-3.217,0-3.223,5,0,5c22.025,0,44.05,0,66.075,0
				C106.243,89.235,106.249,84.235,103.026,84.235L103.026,84.235z"/>
		</g>
	</g>
	<g>
		<g>
			<path fill="#D779AD" d="M139.311,41.8c0.112,0.115,0.218,0.235,0.319,0.36c-0.152-0.185-0.144-0.157,0.025,0.083
				c0.107,0.215,0.245,0.413,0.337,0.637c-0.176-0.434,0.06,0.287,0.066,0.309c0.04,0.155,0.073,0.312,0.1,0.47
				c-0.037-0.267-0.043-0.25-0.018,0.052c1.553-0.421,3.106-0.841,4.659-1.262c-0.121-0.175-0.242-0.349-0.363-0.524
				c-0.743-1.073-2.225-1.668-3.42-0.897c-1.066,0.687-1.694,2.271-0.897,3.42c0.121,0.175,0.242,0.349,0.363,0.524
				c0.613,0.885,1.72,1.506,2.823,1.149c1.01-0.327,1.897-1.287,1.835-2.411c-0.113-2.074-0.877-3.921-2.292-5.447
				c-0.891-0.962-2.646-0.969-3.536,0C138.366,39.293,138.361,40.774,139.311,41.8L139.311,41.8z"/>
		</g>
	</g>
	<g>
		<g>
			<path fill="#D779AD" d="M139.389,36.898c0.256,0.728,2.61,7.533,1.302,7.625c-3.218,0.226-3.214,4.758,0,5
				c0.643,0.048,1.287,0.097,1.93,0.145c-0.589-1.423-1.179-2.845-1.768-4.268c1.369-0.124,1.773-0.868,1.213-2.232
				c-0.027-1.138-0.027-2.276,0.001-3.414c0.119-2.993,0.504-5.784,1.682-8.56c-1.553-0.421-3.106-0.841-4.659-1.262
				c0.172,4.283-0.505,8.06-2.089,12.023c1.637,0.222,3.274,0.443,4.911,0.665c-0.196-5.208-3.652-28.283,6.881-25.48
				c0-1.607,0-3.214,0-4.821c-3.853,0.966-10.158,1.081-11.745,5.471c-1.962,5.43-0.124,13.658,1.031,19.127
				c0.583,2.763,4.99,2.139,4.911-0.665c-0.166-5.896-0.256-11.803,2.718-17.093c-1.309,0.169-2.618,0.337-3.926,0.506
				c3.358,3.173,0.864,12.761-0.158,16.334c-0.887,3.099,3.937,4.422,4.821,1.329c1.679-5.87,3.928-16.421-1.128-21.198
				c-1.148-1.085-3.118-0.933-3.926,0.506c-3.435,6.112-3.594,12.763-3.4,19.617c1.637-0.222,3.274-0.443,4.911-0.665
				c-0.887-4.203-1.662-8.767-1.273-13.079c0.259-2.87,0.408-3.34,3.042-4c1.818-0.456,3.635-0.912,5.453-1.367
				c2.403-0.603,2.359-4.194,0-4.821c-16.828-4.479-13.543,21.483-13.21,30.302c0.111,2.959,3.892,3.214,4.911,0.665
				c1.727-4.321,2.453-8.712,2.267-13.352c-0.09-2.237-3.619-3.712-4.659-1.262c-2.163,5.098-3.595,12.477-2.142,17.963
				c0.85,3.209,4.649,5.468,7.099,2.302c1.34-1.731,0.531-4.095-1.768-4.268c-0.643-0.048-1.287-0.097-1.93-0.145
				c0,1.667,0,3.333,0,5c7.319-0.513,5.142-9.338,3.519-13.954C143.15,32.553,138.317,33.851,139.389,36.898L139.389,36.898z"/>
		</g>
	</g>
	<g>
		<g>
			<path fill="#F3BCD5" d="M150.177,23.245c-0.565-1.614-0.514-3.018,0.11-4.608c-1.607,0-3.214,0-4.821,0
				c0.951,5.481,0.916,10.93-0.092,16.398c1.637,0.222,3.274,0.443,4.911,0.665c0.076-5.875,0.202-11.749,0.376-17.622
				c0.082-2.746-4.504-3.498-4.911-0.665c-0.06,0.417-0.12,0.834-0.18,1.251c-0.331,2.305,2.25,4.37,4.178,2.432
				c0.994-1.206,2.234-1.677,3.719-1.416c3.271,0.136,3.131-4.665,0-5c-1.024-0.109-2.048-0.219-3.072-0.328
				c0.589,1.423,1.179,2.845,1.768,4.268c0.202-0.083,0.403-0.166,0.605-0.249c2.449-0.373,2.321-4.342,0-4.821
				c-3.711-0.767-7.645-0.925-10.09,2.484c-2.364,3.295-1.793,7.978-1.755,11.782c0.033,3.247,4.781,3.185,5,0
				c0.227-3.308,0.126-6.519-0.311-9.808c-1.637,0.222-3.274,0.443-4.911,0.665c0.84,4.054,1.362,8.095,1.585,12.228
				c1.637-0.222,3.274-0.443,4.911-0.665c-1.47-3.719-2.539-7.487-3.24-11.424c-0.444-2.495-4.229-2.267-4.821,0
				c-0.662,2.535-0.889,4.919-0.631,7.538c0.309,3.137,5.028,3.281,5,0c-0.01-1.187-0.189-2.107-0.558-3.233
				c-0.391-1.192-2.481-3.603,0.603-3.636c0-1.667,0-3.333,0-5c-0.306-0.072-0.612-0.144-0.918-0.217
				c-0.199,1.523-0.398,3.046-0.597,4.569c2.101-0.662,4.099-0.655,6.198,0.016c-0.368-1.393-0.735-2.786-1.103-4.178
				c-7.217,5.81-6.192,15.239-5.62,23.722c0.198,2.939,3.852,3.237,4.911,0.665c0.517-1.256,0.664-2.334,0.489-3.692
				c-0.405-3.147-5.41-3.188-5,0c0.258,0.823,0.154,1.61-0.31,2.363c1.637,0.222,3.274,0.443,4.911,0.665
				c-0.236-3.499-0.321-6.989-0.165-10.495c0.198-4.446,0.78-6.841,4.32-9.691c1.554-1.251,0.519-3.66-1.103-4.178
				c-3.091-0.988-5.761-0.99-8.856-0.016c-2.124,0.669-2.382,3.365-0.597,4.569c1.329,0.896,1.842,1.048,3.442,0.899
				c3.146-0.291,3.274-5.035,0-5c-2.626,0.028-5.304,0.687-6.447,3.3c-1.387,3.172,1.377,5.516,1.403,8.569c1.667,0,3.333,0,5,0
				c-0.213-2.159-0.099-4.097,0.452-6.209c-1.607,0-3.214,0-4.821,0c0.701,3.937,1.77,7.706,3.24,11.424
				c0.955,2.416,5.076,2.386,4.911-0.665c-0.247-4.572-0.835-9.075-1.764-13.557c-0.562-2.712-5.284-2.15-4.911,0.665
				c0.437,3.287,0.539,6.498,0.311,9.808c1.667,0,3.333,0,5,0c-0.019-1.839-0.149-3.724-0.004-5.558
				c0.28-3.527,2.18-4.577,5.519-3.887c0-1.607,0-3.214,0-4.821c-1.375,0.209-1.859,0.532-2.811,1.535
				c-1.6,1.685-0.334,4.043,1.768,4.268c1.024,0.109,2.048,0.219,3.072,0.328c0-1.667,0-3.333,0-5
				c-2.917-0.121-5.207,0.823-7.254,2.88c1.393,0.811,2.786,1.622,4.178,2.432c0.06-0.417,0.12-0.834,0.18-1.251
				c-1.637-0.222-3.274-0.443-4.911-0.665c-0.174,5.873-0.3,11.747-0.376,17.622c-0.036,2.745,4.389,3.495,4.911,0.665
				c1.178-6.395,1.204-12.651,0.092-19.056c-0.468-2.698-4.028-2.025-4.821,0c-0.974,2.485-0.99,4.751-0.11,7.267
				C146.412,27.592,151.244,26.293,150.177,23.245L150.177,23.245z"/>
		</g>
	</g>
	<g>
		<g>
			<path fill="#F3BCD5" d="M146.175,30.608c-0.785-1.317-1.57-2.634-2.355-3.951c-1.353-2.269-4.429-1.104-4.659,1.262
				c-0.424,4.362-0.481,8.714-0.172,13.086c0.225,3.192,5.227,3.216,5,0c-0.309-4.372-0.251-8.724,0.172-13.086
				c-1.553,0.421-3.106,0.841-4.659,1.262c0.785,1.317,1.57,2.634,2.355,3.951C143.503,35.894,147.828,33.382,146.175,30.608
				L146.175,30.608z"/>
		</g>
	</g>
	<g>
		<g>
			<path fill="#F3BCD5" d="M137.164,25.341c0.145,2.176,0.29,4.353,0.435,6.529c0.09,1.347,1.085,2.5,2.5,2.5
				c1.284,0,2.59-1.146,2.5-2.5c-0.145-2.176-0.29-4.353-0.435-6.529c-0.09-1.347-1.085-2.5-2.5-2.5
				C138.38,22.841,137.073,23.987,137.164,25.341L137.164,25.341z"/>
		</g>
	</g>
	<g>
		<g>
			<path fill="#F3BCD5" d="M135.858,22.295c0,2.176,0,4.353,0,6.529c0,3.217,5,3.223,5,0c0-2.176,0-4.353,0-6.529
				C140.858,19.077,135.858,19.072,135.858,22.295L135.858,22.295z"/>
		</g>
	</g>
	<g>
		<g>
			<path fill="#F3BCD5" d="M135.364,24.917c0.594,5.797,0.646,11.628,1.177,17.419c0.126,1.371,0.129,2.75,1.255,3.714
				c0.415,0.356,1,0.568,1.517,0.75c0.222,0.03,0.443,0.06,0.665,0.089c1.062,0.109,1.107,0.047,0.135-0.185
				c0-1.179,0-2.357,0-3.536c-0.98,1.063-1.857,2.162-2.708,3.329c-1.422,1.951,0.919,4.007,2.823,3.672
				c1.402-0.246,2.804-0.493,4.207-0.739c0.992-0.174,1.925-1.403,1.835-2.411c-0.27-3.037-0.12-5.857,0.568-8.834
				c0.723-3.131-4.097-4.468-4.821-1.329c-0.787,3.41-1.058,6.667-0.746,10.164c0.612-0.804,1.224-1.607,1.835-2.411
				c-1.402,0.246-2.804,0.493-4.207,0.739c0.941,1.224,1.882,2.448,2.823,3.672c0.576-0.828,1.218-1.601,1.926-2.317
				c0.998-1.084,0.864-2.432,0-3.536c-0.653-0.834-1.478-0.645-2.115-1.175c-0.965,0.044-0.97-0.119-0.016-0.489
				c-0.036-1.108-0.081-2.216-0.134-3.324c-0.211-4.431-0.566-8.851-1.019-13.264C140.039,21.748,135.036,21.714,135.364,24.917
				L135.364,24.917z"/>
		</g>
	</g>
	<g>
		<g>
			<path fill="#C1E5EE" d="M137.617,28.826c-0.554,5.211-0.591,10.346-0.112,15.564c0.289,3.149,5.124,3.263,5,0
				c-0.127-3.349-0.255-6.699-0.382-10.048c-1.637,0.222-3.274,0.443-4.911,0.665c0.33,2.168,0.558,4.31,0.635,6.499
				c0.01,0.6,0.021,1.201,0.031,1.801c-0.556,2.005-0.108,2.359,1.346,1.062c-0.443,1.607-0.886,3.214-1.329,4.821
				c2.84,1.058,7.246,0.933,8.374-2.427c0.821-2.446,0.511-5.942,0.726-8.519c0.277-3.335,0.555-6.671,0.832-10.006
				c-1.667,0-3.333,0-5,0c-0.062,4.369-0.782,8.39-2.181,12.518c1.607,0,3.214,0,4.821,0c-1.059-6.921-1.598-13.856-1.688-20.854
				c-1.667,0-3.333,0-5,0c0.036,0.997,0.843,12.441,0.223,12.731c1.01,0.13,2.02,0.261,3.03,0.391
				c-2.223-2.039-0.642-14.543,2.248-13.189c0-1.439,0-2.878,0-4.317c-0.672,0.201-1.344,0.403-2.016,0.604
				c-1.279-0.184-2.759,0.296-3.075,1.746c-0.596,2.729-1.102,5.463-1.522,8.225c1.393-0.368,2.786-0.735,4.178-1.103
				c-3.343-4.03,1.908-7.803,5.526-5.14c2.594,1.909,5.09-2.428,2.524-4.317c-8.842-6.509-18.308,4.888-11.585,12.993
				c1.132,1.365,3.904,0.7,4.178-1.103c0.42-2.762,0.926-5.496,1.522-8.225c-1.025,0.582-2.05,1.164-3.075,1.746
				c2.324,0.334,3.829,0.2,5.869-1.108c1.45-0.93,1.795-3.476,0-4.317c-10.169-4.767-14.424,15.433-8.307,21.041
				c0.886,0.813,1.977,0.884,3.03,0.391c2.003-0.938,2.123-2.432,2.314-4.511c0.376-4.109,0.087-8.424-0.06-12.537
				c-0.115-3.204-5.042-3.231-5,0c0.096,7.449,0.739,14.821,1.866,22.183c0.404,2.638,4.11,2.098,4.821,0
				c1.532-4.518,2.292-9.083,2.359-13.847c0.046-3.258-4.737-3.164-5,0c-0.504,6.064-1.009,12.128-1.513,18.193
				c0.413-0.72,0.825-1.439,1.238-2.159c-1.109,0.032-2.218,0.064-3.328,0.097c-3.022-1.126-4.315,3.698-1.329,4.821
				c7.532,2.834,4.58-12.602,4.137-15.513c-0.425-2.794-5.017-2.12-4.911,0.665c0.127,3.349,0.255,6.699,0.382,10.048
				c1.667,0,3.333,0,5,0c-0.48-5.218-0.443-10.354,0.112-15.564C142.957,25.63,137.954,25.654,137.617,28.826L137.617,28.826z"/>
		</g>
	</g>
	<g>
		<g>
			<path fill="#C1E5EE" d="M139.456,20.736c2.362,0.973,4.724,1.945,7.086,2.918c-0.498-1.224-0.996-2.448-1.494-3.672
				c-2.826,5.021-2.905,10.36-0.411,15.53c1.241,2.573,5.351,0.76,4.569-1.926c-0.605-2.08-3.061-9.252-1.544-10.993
				c-0.811,0.214-1.622,0.429-2.432,0.643c0.972,0.135,0.593,9.363,0.551,10.317c1.667,0,3.333,0,5,0
				c0.034-4.968,0.692-9.741,2-14.531c-1.637-0.222-3.274-0.443-4.911-0.665c0.524,4.736,0.457,9.295-0.352,14.001
				c1.607,0,3.214,0,4.821,0c-0.811-3.019-2.43-7.517-1.943-10.615c0.14-0.889,1.611-3.933,1.051-4.614
				c-0.687-0.123-1.374-0.245-2.06-0.368c-1.126-0.375-2.142-0.938-3.049-1.69c-0.199,1.523-0.398,3.046-0.597,4.569
				c2.144-0.854,4.754-1.643,7.051-0.801c-0.014-0.005,5.535,6.277,5.061,6.443c-0.14,0.049-2.912-5.916-1.563-6.279
				c2.382-0.64,2.491,6.231,2.869,6.917c-0.424,1.2,0.038,1.514,1.386,0.942c-0.732-1.252-1.273-2.579-1.623-3.979
				c-1.413-5.435,0.047-0.981,0.263,0.468c0.593,3.969-0.619,8.14-2.007,11.821c1.523-0.199,3.046-0.398,4.569-0.597
				c-0.812-1.649-0.715-3.242,0.293-4.78c-1.553-0.421-3.106-0.841-4.659-1.262c-0.036,3.169-0.481,6.147-1.354,9.187
				c1.523-0.199,3.046-0.398,4.569-0.597c-1.869-2.472-3.04-5.004-3.379-8.107c-1.637,0.222-3.274,0.443-4.911,0.665
				c0.789,1.621,0.809,3.251,0.061,4.891c1.523-0.199,3.046-0.398,4.569-0.597c-0.822-1.748-0.903-3.505-0.242-5.274
				c-1.607,0-3.214,0-4.821,0c0.694,2.571-0.72,5.209-0.068,7.578c-0.582,1.025-1.164,2.05-1.746,3.075c0.576,0,1.152,0,1.729,0
				c-0.214-0.811-0.429-1.622-0.643-2.432c-0.091,0.221-0.182,0.442-0.273,0.663c0.582-0.582,1.164-1.164,1.746-1.746
				c-1.593,0.655-3.418,0.575-5.119,0.549c0.222,1.637,0.443,3.274,0.665,4.911c2.194-0.346,3.996-0.299,6.176,0.111
				c0-1.607,0-3.214,0-4.821c-2.673,0.666-5.277,1.025-8.037,1.101c0.222,1.637,0.443,3.274,0.665,4.911
				c3.71-0.587,11.274-0.141,13.424-3.831c2.383-4.088,1.42-10.645,0.385-14.952c-0.751-3.127-5.574-1.803-4.821,1.329
				c0.658,2.739,1.982,8.922-0.147,11.024c-0.717,0.708-4.171,0.66-5.086,0.804c-1.695,0.268-3.39,0.536-5.086,0.804
				c-2.802,0.443-2.113,4.988,0.665,4.911c3.202-0.089,6.252-0.504,9.367-1.28c2.298-0.573,2.468-4.357,0-4.821
				c-3.04-0.571-5.782-0.592-8.834-0.111c-2.852,0.449-2.064,4.869,0.665,4.911c3.303,0.051,7.053,0.297,8.468-3.137
				c0.335-0.812-0.083-1.842-0.643-2.432c-1.771-1.866-4.253-1.945-6.593-1.286c-1.3,0.366-2.107,1.764-1.746,3.075
				c0.884,3.21,4.602,4.483,7.348,2.469c3.448-2.529,3.329-9.122,2.362-12.706c-0.642-2.38-4.177-2.379-4.821,0
				c-0.893,3.298-0.574,6.018,0.746,9.127c0.901,2.121,3.985,1.242,4.569-0.597c0.835-2.629,0.829-4.927-0.061-7.55
				c-0.848-2.496-5.234-2.301-4.911,0.665c0.434,3.984,1.635,7.421,4.061,10.63c1.247,1.649,3.928,1.636,4.569-0.597
				c1.001-3.487,1.492-6.888,1.533-10.516c0.028-2.446-3.462-3.448-4.659-1.262c-1.81,3.304-1.82,6.416-0.293,9.827
				c0.971,2.168,3.898,1.184,4.569-0.597c2.174-5.766,5.064-17.887-2.49-21.317c-8.809-3.999-5.615,10.691-3.282,14.202
				c1.528,2.299,4.364,3.524,6.561,1.182c2.353-2.508,1.558-7.513,0.394-10.355c-1.064-2.599-3.13-5.43-5.967-6.256
				c-2.963-0.863-5.81,0.625-6.31,3.77c-0.59,3.707,3.592,17.185,9.166,11.121c3.79-4.123-0.108-14.017-6.207-10.622
				c-5.013,2.79-1.236,13.05,4.323,8.921c5.18-3.847,1.057-14.294-5.478-13.016c-7.495,1.465-2.472,13.001,3.633,8.585
				c2.478-1.792,2.46-5.631,0.187-7.555c-3.113-2.634-8.749-1.684-12.12-0.342c-2.056,0.819-2.431,3.262-0.597,4.569
				c2.643,1.884,7.543,4.089,10.702,2.015c2.554-1.677,2.199-5.284-0.509-6.503c-2.599-1.171-6.441-0.313-7.919,2.125
				c-2.523,4.162,0.286,12.407,1.429,16.662c0.604,2.246,4.389,2.515,4.821,0c0.881-5.127,1.102-10.156,0.53-15.33
				c-0.293-2.647-4.115-3.579-4.911-0.665c-1.423,5.214-2.142,10.457-2.178,15.861c-0.022,3.23,4.861,3.205,5,0
				c0.139-3.221,1.325-16.483-5.219-15.183c-5.863,1.164-2.172,13.127-1.177,16.545c1.523-0.642,3.046-1.284,4.569-1.926
				c-1.691-3.506-1.491-7.104,0.411-10.483c0.869-1.544-0.01-3.061-1.494-3.672c-2.362-0.973-4.724-1.945-7.086-2.918
				C137.812,14.69,136.517,19.526,139.456,20.736L139.456,20.736z"/>
		</g>
	</g>
	<g>
		<g>
			<path fill="#C1E5EE" d="M158.745,40.902c2.582-1.333,4.882-3.033,5.416-6.067c0.619-3.518-0.5-7.684-0.897-11.206
				c-0.356-3.161-5.36-3.198-5,0c0.278,2.468,0.567,4.934,0.834,7.403c0.324,2.992-0.16,4.15-2.876,5.552
				C153.361,38.061,155.887,42.377,158.745,40.902L158.745,40.902z"/>
		</g>
	</g>
	<g>
		<g>
			<path fill="#C1E5EE" d="M163.373,22.942c-0.147-0.725-0.293-1.45-0.44-2.175c-0.26-1.284-1.852-2.142-3.075-1.746
				c-1.362,0.441-2.024,1.7-1.746,3.075c0.147,0.725,0.293,1.45,0.44,2.175c0.26,1.284,1.852,2.142,3.075,1.746
				C162.989,25.576,163.651,24.318,163.373,22.942L163.373,22.942z"/>
		</g>
	</g>
	<g>
		<g>
			<path fill="#C1E5EE" d="M153.157,33.5c3.217,0,3.223-5,0-5C149.94,28.5,149.934,33.5,153.157,33.5L153.157,33.5z"/>
		</g>
	</g>
	<g>
		<g>
			<path fill="#C1E5EE" d="M139.34,20.553c0.58,9.431,1.161,18.862,1.741,28.293c0.197,3.197,5.198,3.219,5,0
				c-0.58-9.431-1.161-18.862-1.741-28.293C144.143,17.357,139.142,17.335,139.34,20.553L139.34,20.553z"/>
		</g>
	</g>
	<g>
		<g>
			<path fill="#C1E5EE" d="M138.564,113.066c0.854,0.351,1.707,0.702,2.561,1.053c2.414,0.992,4.068-2.541,2.432-4.178
				c-1.093-0.945-2.002-2.046-2.726-3.303c-0.214,0.811-0.429,1.622-0.643,2.432c0.168-0.169,0.336-0.337,0.504-0.506
				c-0.811,0.214-1.622,0.429-2.432,0.643c1.997,0.387,3.836,1.705,5.503,2.793c-0.169-1.309-0.337-2.618-0.506-3.926
				c-1.658,1.363-1.68,3.019-1.678,5.072c0.003,3.875,0.317,7.785,0.475,11.657c1.667,0,3.333,0,5,0
				c-0.619-5.237-1.405-10.441-2.386-15.622c-0.517-2.733-5.218-2.15-4.911,0.665c0.523,4.797,0.598,9.536,0.227,14.346
				c1.553-0.421,3.106-0.841,4.659-1.262c-1.701-3.394-2.12-6.72-1.634-10.438c-1.667,0-3.333,0-5,0
				c0.175,5.013,0.036,9.985-0.417,14.981c1.637-0.222,3.274-0.443,4.911-0.665c-0.801-3.094-0.921-5.932-0.509-9.067
				c-1.667,0-3.333,0-5,0c-0.15,4.026-0.299,8.052-0.449,12.079c1.667,0,3.333,0,5,0c-0.077-3.331,0.164-6.529,0.807-9.802
				c-1.637-0.222-3.274-0.443-4.911-0.665c-0.106,3.273-0.329,6.566-0.319,9.84c0.005,1.488-0.06,3.15,1.144,4.272
				c2.939,2.74,10.522,0.628,14.028,0.128c2.795-0.398,2.121-5.025-0.665-4.911c-4.255,0.175-8.51,0.349-12.766,0.524
				c-3.271,0.134-3.156,4.675,0,5c2.59,0.267,5.181,0.534,7.771,0.801c-0.222-1.637-0.443-3.274-0.665-4.911
				c-2.119,0.687-4.237,1.374-6.356,2.062c-2.713,0.88-2.169,4.748,0.665,4.911c3.217,0.185,6.435,0.37,9.652,0.555
				c0-1.667,0-3.333,0-5c-3.407,0.168-6.665,0.03-10.035-0.534c-0.222,1.637-0.443,3.274-0.665,4.911
				c5.358-0.332,11.088,0.497,16.366-0.255c3.107-0.443,5.442-2.131,6.243-5.222c0.713-2.749-3.084-4.36-4.569-1.926
				c-0.604,0.99-1.208,1.98-1.812,2.97c-1.017,1.666,0.31,3.706,2.159,3.762c5.968,0.181,6.91-11.058,7.173-15.199
				c-1.637,0.222-3.274,0.443-4.911,0.665c0.45,2.656,0.44,4.796-0.025,7.449c1.637,0.222,3.274,0.443,4.911,0.665
				c0.551-4.184,2.373-13.425-1.894-16.236c-4.395-2.895-12.087-0.863-16.805,0.033c-1.31,0.249-2.107,1.862-1.746,3.075
				c0.987,3.322,1.692,6.603,2.067,10.053c1.423-0.589,2.845-1.179,4.268-1.768c-0.891-1.018-1.781-2.037-2.672-3.055
				c-1.366-1.563-4.468-0.372-4.268,1.768c0.183,1.953,0.267,3.836,0.259,5.798c1.423-0.589,2.845-1.179,4.268-1.768
				c-0.997-0.632-1.795-1.465-2.395-2.497c-1.607-2.43-5.067-0.852-4.569,1.926c0.356,1.619,0.472,3.251,0.346,4.896
				c1.423-0.589,2.845-1.179,4.268-1.768c0.103,0.127,2.634,1.774,3.65,2.406c1.848,1.152,4.278-0.757,3.673-2.823
				c-0.14-0.478-2.317-8.618-2.335-8.618c-0.72-0.413-1.439-0.825-2.159-1.238c1.888,3.036,2.997,6.09,3.322,9.662
				c1.254-0.72,2.508-1.439,3.762-2.159c-1.195-0.709-1.937-1.705-2.226-2.986c-0.616-1.752-0.565-1.517,0.151,0.707
				c0.291,1.035,1.522,3.231,0.877,4.215c0.72-0.413,1.439-0.825,2.159-1.238c-0.03,0.001-0.748-3.072-0.789-3.354
				c-0.286-1.983-0.201-3.17,1.054-4.876c-1.309,0.169-2.618,0.337-3.926,0.506c2.234,2.719,2.813,5.862,1.979,9.205
				c1.523-0.199,3.046-0.398,4.569-0.597c-1.113-2.525-0.846-4.708,0.446-7.027c-1.439,0-2.878,0-4.317,0
				c1.363,2.58,1.782,4.993,1.243,7.891c1.224-0.498,2.448-0.996,3.673-1.494c-1.658-1.098-2.491-2.64-2.499-4.627
				c0.492,1.444,0.679,2.938,0.559,4.48c0.582-0.582,1.164-1.164,1.746-1.746c-0.426,0.099-0.852,0.198-1.277,0.298
				c0.941,0.383,1.882,0.766,2.823,1.149c-1.608-2.171-2.154-4.13-1.884-6.819c-0.612,0.804-1.224,1.607-1.835,2.411
				c0.393-0.138,0.786-0.277,1.178-0.415c-0.811-0.214-1.622-0.429-2.432-0.643c1.038,1.077,3.532,3.261,1.763,5.046
				c-2.267,2.289,1.267,5.826,3.536,3.536c3.963-4.002,1.599-8.63-1.763-12.117c-0.583-0.605-1.619-0.929-2.432-0.643
				c-0.393,0.138-0.786,0.277-1.178,0.415c-1.14,0.401-1.718,1.238-1.835,2.411c-0.351,3.493,0.477,6.521,2.567,9.342
				c0.694,0.937,1.649,1.422,2.823,1.149c0.426-0.099,0.852-0.198,1.277-0.298c0.753-0.175,1.638-0.941,1.746-1.746
				c0.489-3.627-1.791-14.771-7.852-11.533c-5.835,3.118-1.186,12.087,2.447,14.667c1.251,0.889,3.393,0.011,3.673-1.494
				c0.784-4.221,0.266-7.933-1.747-11.744c-0.875-1.656-3.427-1.597-4.317,0c-2.239,4.016-2.281,7.911-0.446,12.074
				c0.887,2.012,4.083,1.352,4.569-0.597c1.306-5.232,0.131-9.937-3.265-14.07c-1.121-1.364-3.069-0.66-3.926,0.506
				c-2.747,3.736-2.845,12.137,1.492,15.045c1.607,1.077,3.448,1.011,4.719-0.53c1.522-1.846,0.715-4.594,0.106-6.644
				c-1.043-3.513-5.114-10.43-9.475-5.844c-3.774,3.968,0.378,9.843,3.726,12.346c1.472,1.101,3.924-0.372,3.762-2.159
				c-0.324-3.564-1.892-14.641-7.525-13.361c-6.729,1.529-2.243,11.069-1.124,14.885c1.224-0.941,2.448-1.882,3.673-2.823
				c-2.651-1.653-7.296-5.486-10.452-2.883c-2.955,2.437-1.156,5.977,0.743,8.329c1.433,1.775,4.226,0.223,4.268-1.768
				c0.045-2.157-0.146-4.112-0.525-6.225c-1.523,0.642-3.046,1.284-4.569,1.926c0.932,1.409,1.827,2.464,3.177,3.509
				c1.629,1.262,4.258,0.591,4.268-1.768c0.008-1.962-0.076-3.844-0.259-5.798c-1.423,0.589-2.845,1.179-4.268,1.768
				c0.891,1.018,1.781,2.037,2.672,3.055c1.352,1.546,4.501,0.38,4.268-1.768c-0.423-3.889-1.13-7.626-2.245-11.382
				c-0.582,1.025-1.164,2.05-1.746,3.075c2.884-0.548,10.968-2.685,12.556,0.059c1.455,2.514,0.167,8.642-0.186,11.322
				c-0.365,2.77,4.425,3.436,4.911,0.665c0.609-3.479,0.614-6.626,0.025-10.108c-0.494-2.919-4.742-1.992-4.911,0.665
				c-0.022,0.351-1.263,10.226-2.173,10.199c0.72,1.254,1.439,2.508,2.159,3.762c0.604-0.99,1.208-1.98,1.812-2.97
				c-1.523-0.642-3.046-1.284-4.569-1.926c-0.785,3.029-15.083,1.639-17.787,1.806c-2.631,0.163-3.609,4.418-0.665,4.911
				c3.803,0.636,7.505,0.903,11.364,0.712c3.221-0.159,3.214-4.815,0-5c-3.217-0.185-6.435-0.37-9.652-0.555
				c0.222,1.637,0.443,3.274,0.665,4.911c2.119-0.687,4.237-1.374,6.356-2.062c2.792-0.906,2.093-4.627-0.665-4.911
				c-2.59-0.267-5.181-0.534-7.771-0.801c0,1.667,0,3.333,0,5c4.255-0.175,8.51-0.349,12.766-0.524
				c-0.222-1.637-0.443-3.274-0.665-4.911c-2.044,0.291-4.18,0.31-6.215,0.627c-0.576,0.023-1.152,0.047-1.728,0.07
				c-0.88,0.949-1.18,0.857-0.9-0.276c-0.964-2.031,0.246-7.601,0.319-9.84c0.09-2.768-4.361-3.465-4.911-0.665
				c-0.729,3.713-1.073,7.341-0.986,11.131c0.074,3.223,4.88,3.215,5,0c0.15-4.026,0.299-8.052,0.449-12.079
				c0.123-3.305-4.595-3.086-5,0c-0.473,3.601-0.219,6.895,0.687,10.396c0.745,2.877,4.667,2.024,4.911-0.665
				c0.453-4.996,0.592-9.968,0.417-14.981c-0.115-3.31-4.594-3.106-5,0c-0.607,4.64,0.232,8.8,2.317,12.962
				c1.199,2.392,4.483,1.009,4.659-1.262c0.371-4.811,0.297-9.55-0.227-14.346c-1.637,0.222-3.274,0.443-4.911,0.665
				c0.898,4.745,1.64,9.497,2.207,14.293c0.367,3.106,5.134,3.291,5,0c-0.097-2.391-0.195-4.782-0.292-7.173
				c-0.043-1.064-0.858-5.289,0.031-6.02c1.312-1.079,0.722-3.125-0.506-3.926c-2.263-1.476-6.798-4.987-9.382-2.401
				c-2.884,2.886,1.22,6.295,3.117,8.195c0.811-1.393,1.622-2.786,2.432-4.178c-0.854-0.351-1.707-0.702-2.561-1.053
				C136.919,107.022,135.624,111.857,138.564,113.066L138.564,113.066z"/>
		</g>
	</g>
	<g>
		<g>
			<path fill="#C1E5EE" d="M161.477,126.387c-0.579,1.016-1.158,2.033-1.737,3.049c-0.647,1.137-0.306,2.785,0.897,3.42
				c1.187,0.627,2.729,0.317,3.42-0.897c0.579-1.016,1.158-2.033,1.737-3.049c0.647-1.137,0.306-2.785-0.897-3.42
				C163.71,124.863,162.168,125.173,161.477,126.387L161.477,126.387z"/>
		</g>
	</g>
	<g>
		<g>
			<path fill="#C1E5EE" d="M160.992,129.696c3.217,0,3.223-5,0-5C157.775,124.696,157.769,129.696,160.992,129.696L160.992,129.696z
				"/>
		</g>
	</g>
	<g>
		<g>
			<path fill="#C1E5EE" d="M158.551,128.266c-0.147,0.725-0.293,1.45-0.44,2.175c-0.258,1.278,0.367,2.761,1.746,3.075
				c1.245,0.284,2.798-0.375,3.075-1.746c0.147-0.725,0.293-1.45,0.44-2.175c0.258-1.278-0.367-2.761-1.746-3.075
				C160.382,126.237,158.828,126.895,158.551,128.266L158.551,128.266z"/>
		</g>
	</g>
	<g>
		<g>
			<path fill="#C1E5EE" d="M160.121,134.049c3.217,0,3.223-5,0-5C156.904,129.049,156.899,134.049,160.121,134.049L160.121,134.049z
				"/>
		</g>
	</g>
	<g>
		<g>
			<path fill="#C1E5EE" d="M159.457,128.703c-1.886,0.29-3.772,0.58-5.659,0.871c-1.336,0.205-2.074,1.882-1.746,3.075
				c0.392,1.426,1.736,1.952,3.075,1.746c1.886-0.29,3.772-0.58,5.659-0.871c1.336-0.205,2.074-1.882,1.746-3.075
				C162.14,129.022,160.796,128.496,159.457,128.703L159.457,128.703z"/>
		</g>
	</g>
	<g>
		<g>
			<path fill="#C1E5EE" d="M144.452,130.566c3.217,0,3.223-5,0-5C141.234,125.566,141.229,130.566,144.452,130.566L144.452,130.566z
				"/>
		</g>
	</g>
	<g>
		<g>
			<path fill="#C1E5EE" d="M142.164,135.031c-0.58-5.368-1.161-10.737-1.741-16.105c-0.342-3.165-5.346-3.2-5,0
				c0.58,5.368,1.161,10.737,1.741,16.105C137.506,138.196,142.51,138.231,142.164,135.031L142.164,135.031z"/>
		</g>
	</g>
	<g>
		<g>
			<path fill="#E8A48D" d="M127.179,70.424c0.141,0.436,0.283,0.873,0.424,1.309c0.402,1.242,1.751,2.175,3.075,1.746
				c1.242-0.402,2.178-1.743,1.746-3.075c-0.141-0.436-0.283-0.873-0.424-1.309c-0.402-1.242-1.751-2.175-3.075-1.746
				C127.683,67.751,126.747,69.092,127.179,70.424L127.179,70.424z"/>
		</g>
	</g>
	<g>
		<g>
			<path fill="#E8A48D" d="M128.782,70.498c3.217,0,3.223-5,0-5C125.564,65.498,125.559,70.498,128.782,70.498L128.782,70.498z"/>
		</g>
	</g>
	<g>
		<g>
			<path fill="#7ECCE2" d="M137.922,50.498c2.63,0.119,5.247,0.353,7.856,0.701c1.341,0.179,2.5-1.277,2.5-2.5
				c0-1.5-1.155-2.32-2.5-2.5c-2.609-0.349-5.226-0.582-7.856-0.701C134.705,45.352,134.712,50.353,137.922,50.498L137.922,50.498z"
				/>
		</g>
	</g>
	<g>
		<g>
			<path fill="#7ECCE2" d="M137.298,49.999c3.7-0.634,8.591,0.875,8.668-4.731c0.011-0.831,0.199-1.717-0.287-1.24
				c0.538-0.528,3.95,0.039,4.659,0.046c2.662,0.026,5.747,0.461,8.323-0.429c10.235-3.534,6.655-21.247,5.476-29.016
				c-0.481-3.171-5.3-1.824-4.821,1.329c0.803,5.288,1.301,10.784,0.917,16.133c-0.24,3.338-0.969,6.2-4.624,7.022
				c-2.398,0.539-5.614-0.074-8.066-0.067c-2.496,0.008-5.401-0.125-6.577,2.547c-0.558,1.268,0.16,2.781-0.691,3.384
				c-0.659,0.467-3.406,0.047-4.306,0.201C132.804,45.72,134.146,50.539,137.298,49.999L137.298,49.999z"/>
		</g>
	</g>
	<g>
		<g>
			<path fill="#7ECCE2" d="M155.336,15.068c3.807,1.769,2.288,9.341,2.216,12.872c-0.055,2.69,0.362,6.264-1.745,8.371
				c-1.686,1.686-4.165,1.736-6.337,1.79c-2.392,0.059-4.714-0.367-6.608,1.47c-1.82,1.764-0.764,4.857-2.28,6.351
				c-2.296,2.262,1.24,5.797,3.536,3.536c1.378-1.358,1.206-2.382,1.874-4.041c1.336-3.322,3.256-2.081,6.192-2.457
				c3.992-0.512,7.601-2.426,9.247-6.26c1.965-4.577,1.259-10.775,1.244-15.636c-0.013-4.196-0.632-8.369-4.814-10.313
				C154.96,9.403,152.417,13.712,155.336,15.068L155.336,15.068z"/>
		</g>
	</g>
	<g>
		<g>
			<path fill="#7ECCE2" d="M136.237,109.31c2.322,1.218,4.735,1.903,7.339,2.161c1.346,0.133,2.5-1.244,2.5-2.5
				c0-1.463-1.151-2.366-2.5-2.5c-1.686-0.167-3.319-0.693-4.816-1.478C135.914,103.5,133.383,107.814,136.237,109.31
				L136.237,109.31z"/>
		</g>
	</g>
	<g>
		<g>
			<path fill="#7ECCE2" d="M145.745,115.581c4.16,0.118,12.092-0.427,14.538,3.773c1.755,3.014,1.42,14.657-2.986,15.625
				c-3.141,0.69-1.812,5.512,1.329,4.821c7.719-1.696,8.376-14.614,6.81-20.622c-2.234-8.572-12.352-8.39-19.691-8.598
				C142.526,110.489,142.529,115.49,145.745,115.581L145.745,115.581z"/>
		</g>
	</g>
	<g>
		<g>
			<path fill="#7ECCE2" d="M142.871,108.073c-1.921,0.494-3.829,0.77-5.812,0.83c-3.21,0.098-3.224,5.098,0,5
				c2.409-0.073,4.807-0.409,7.141-1.009C147.314,112.094,145.994,107.27,142.871,108.073L142.871,108.073z"/>
		</g>
	</g>
	<g>
		<g>
			<path fill="#7ECCE2" d="M138.366,115.763c4.732-0.412,9.698-0.576,14.387,0.347c1.419,0.279,3.466,0.724,4.487,1.786
				c1.699,1.767,1.209,5.192,1.264,7.386c0.061,2.447,0.86,5.515-1.631,7.194c-1.357,0.915-5.139,0.889-6.462,1.024
				c-5.048,0.513-10.093,0.426-15.139-0.043c-3.202-0.298-3.182,4.704,0,5c7.295,0.679,15.822,1.048,22.93-1.159
				c6.134-1.904,5.411-7.592,5.28-12.89c-0.128-5.145-0.397-9.387-5.502-11.883c-5.704-2.788-13.509-2.294-19.614-1.762
				C135.185,111.04,135.156,116.043,138.366,115.763L138.366,115.763z"/>
		</g>
	</g>
</g>
<g id="レイヤー_1">
	<path fill="none" stroke="#000000" stroke-width="5" stroke-linejoin="bevel" stroke-miterlimit="10" d="M135.077,51.488V20.253
		c0,0,0-9,9-9s11.843,0,11.843,0s9,0,9,9s0,15.165,0,15.165s0,9-9,9h-8.867v7.071"/>
	<path fill="none" stroke="#000000" stroke-width="5" stroke-linejoin="bevel" stroke-miterlimit="10" d="M147.053,105.491v5.683
		h10.851c0,0,9,0,9,9s0,8.929,0,8.929s0,9-9,9h-22.827v-9c0-9,0-5.74,0-5.74V87.906"/>
	<path fill="none" stroke="#000000" stroke-width="5" stroke-linejoin="bevel" stroke-miterlimit="10" d="M137.994,69.488
		c0,0-9-0.016-8.984-9.016c0.016-9,9.016-8.984,9.016-8.984l25.087,0.032c0,0,9,0.016,8.984,9.016s-9.016,8.984-9.016,8.984
		L137.994,69.488z"/>
	<path fill="none" stroke="#000000" stroke-width="5" stroke-linejoin="bevel" stroke-miterlimit="10" d="M137.689,87.095
		c0,0-8.995-0.295-8.7-9.29c0.295-8.995,9.29-8.7,9.29-8.7l25.074,0.81c0,0,8.995,0.295,8.7,9.29c-0.295,8.995-9.29,8.7-9.29,8.7
		L137.689,87.095z"/>
	<path fill="none" stroke="#000000" stroke-width="5" stroke-linejoin="bevel" stroke-miterlimit="10" d="M145.016,105.488
		c0,0-9-0.016-8.984-9.016s9.016-8.984,9.016-8.984l13.535,0.016c0,0,9,0.016,8.984,9.016s-9.016,8.984-9.016,8.984L145.016,105.488
		z"/>
	<path fill="none" stroke="#000000" stroke-width="5" stroke-linejoin="bevel" stroke-miterlimit="10" d="M108.054,88.569
		c0,0,18,0.032,18.032-17.968c0.016-9,0.016-9,0.016-9"/>
	<path fill="none" stroke="#000000" stroke-width="5" stroke-linejoin="bevel" stroke-miterlimit="10" d="M32.614,89.681
		l23.811,0.043l45,0.081c-0.032,18,17.968,18.032,17.968,18.032l9,0.016l4.323,0.016h4.267"/>
	<path fill="none" stroke="#000000" stroke-width="5" stroke-linejoin="bevel" stroke-miterlimit="10" d="M126.103,61.741
		l0.019-10.559c0,0,8.923,0.229,8.939-8.771s0.016-9,0.016-9s0.016-9-8.984-9.016s-9.016,8.984-9.016,8.984s-0.016,9-9.016,8.984
		c-9-0.016-9.016,8.984-9.016,8.984l-9-0.016l-27-0.048l-37.873-0.068"/>
	<polyline fill="none" stroke="#000000" stroke-width="4" stroke-linejoin="bevel" stroke-miterlimit="10" points="141.606,163.229 
		150.99,159.904 141.606,155.961 150.99,152.637 141.606,148.694 150.99,145.37 141.606,141.427 150.99,138.103 	"/>
</g>
</svg>
