<?xml version="1.0" encoding="utf-8"?>
<!-- Generator: Adobe Illustrator 21.1.0, SVG Export Plug-In . SVG Version: 6.00 Build 0)  -->
<svg version="1.1" id="レイヤー_1" xmlns="http://www.w3.org/2000/svg" xmlns:xlink="http://www.w3.org/1999/xlink" x="0px"
	 y="0px" viewBox="0 0 396.9 141.7" style="enable-background:new 0 0 396.9 141.7;" xml:space="preserve">
<style type="text/css">
	.st0{fill:#F8C8AE;}
	.st1{fill:#E8A48D;}
	.st2{fill:#DB8111;}
	.st3{fill:none;stroke:#000000;stroke-width:5;stroke-linejoin:bevel;stroke-miterlimit:10;}
	.st4{fill:#ADB3B7;}
	.st5{fill:#74787A;}
	.st6{fill:#D8403F;}
</style>
<g id="レイヤー_2">
	<g>
		<g>
			<path class="st0" d="M42.9,105.7c0-12,0-23.9,0-35.9c0-2.4-3.8-2.4-3.8,0c0,12,0,23.9,0,35.9C39.2,108.1,42.9,108.1,42.9,105.7
				L42.9,105.7z"/>
		</g>
	</g>
	<g>
		<g>
			<path class="st0" d="M57,86.1c-0.9-0.3-1.9-0.5-2.8-0.8c-5.1-1.4-9,2.4-9.5,7.2c-0.1,1-0.3,2-0.7,2.9c1.7-1.7,3.5-3.5,5.2-5.2
				c-0.8,0.2-1.7,0.4-2.5,0.6c3.1,3.1,6.2,6.2,9.2,9.2c0.9-6.1,1.7-12.3,2.6-18.4c0.8-5.7,0.5-11.1-6-13c-2.4-0.7-5.6,0-7.3,1.9
				c-0.2,0.2-0.3,0.4-0.5,0.5c4.2,1.1,8.4,2.2,12.5,3.3c-0.3-1.4-0.6-2.8-1-4.1c-1.9-8.3-14.8-6.4-14.7,2c0,2.1,0,4.1,0,6.2
				c0.1,9.6,15.1,9.7,15,0c0-2.1,0-4.1,0-6.2c-4.9,0.7-9.8,1.3-14.7,2c0.3,1.4,0.6,2.8,1,4.1c1.2,5.3,8.8,7.5,12.5,3.3
				c0.2-0.2,0.3-0.4,0.5-0.5c-2.4,0.6-4.9,1.3-7.3,1.9c0.3,0.1,0.5,0.2,0.8,0.2c-1.7-1.7-3.5-3.5-5.2-5.2c-0.3-0.9-0.5,2.7-0.5,3.2
				c-0.2,1.5-0.4,3.1-0.7,4.6c-0.5,3.4-1,6.8-1.4,10.1c-0.8,5.6,3.2,10.7,9.2,9.2c6.9-1.7,8.3-6.1,9-12.8c-3.2,2.4-6.3,4.8-9.5,7.2
				c0.9,0.3,1.9,0.5,2.8,0.8C62.3,103.1,66.3,88.6,57,86.1L57,86.1z"/>
		</g>
	</g>
	<g>
		<g>
			<path class="st0" d="M48.4,87.5c9.7,0,9.7-15,0-15S38.7,87.5,48.4,87.5L48.4,87.5z"/>
		</g>
	</g>
	<g>
		<g>
			<path class="st0" d="M57.2,83.2c21.3,0,42.5,0,63.8,0c9.7,0,9.7-15,0-15c-21.3,0-42.5,0-63.8,0C47.5,68.2,47.5,83.2,57.2,83.2
				L57.2,83.2z"/>
		</g>
	</g>
	<g>
		<g>
			<path class="st0" d="M126.4,70.1c1.5,3.3-1.4,0.8-1.5,2.5c0,0.3,4.3,0.8,5.1,0.8c3.4-0.1,6.5-1.7,8.7-4.2c2-2.2,3.3-5,3.9-7.9
				c0.6-2.6,0.1-5.9,1.6-8.2c-4.3,0-8.6,0-13,0c1.2,2.7-0.8,4.7-2.5,6.4c-3.2,3.4-4,7.2-3.7,11.7c0.4,4.8,2.5,18.3-5.3,19.1
				c2.5,2.5,5,5,7.5,7.5c0.5-3.7,1.7-7.3,3.1-10.8c3.2-7.8-10.1-13.4-13.7-5.8c-3.9,8.3-10.7,6.4-17.9,4c-9.4-3.1-19.3-4-29.1-3
				c-3.7,0.4-6.9,2.5-7.4,6.5c-0.4,3.3,1.6,7.7,5.4,8.2c3.7,0.5,7.5,1.1,11.2,1.6c0.7-4.9,1.3-9.8,2-14.7c-7-0.3-13.9-1-20.7-2.3
				c1.1,4.2,2.2,8.4,3.3,12.5c5.5-6.5,17.3-1.4,24.3-0.6c10.3,1.3,19.8-0.3,30-1.7c-1.3,0-2.7,0-4,0c-0.6-0.4-1.2-0.8-1.8-1.2
				c-0.6-2.4-1.3-4.9-1.9-7.3c0,0.2-0.1,0.3-0.1,0.5c1.7-1.7,3.5-3.5,5.2-5.2c-0.2,0.1-0.4,0.1-0.5,0.2c1.3,0,2.7,0,4,0
				c-0.2,0-0.3-0.1-0.5-0.1c1.8,2.4,3.7,4.8,5.5,7.2c0-0.1,0-0.3,0-0.4c0.5-4-3.8-7.5-7.5-7.5c-4.5,0-7,3.5-7.5,7.5
				c0,0.1,0,0.3,0,0.4c-0.4,3,2.6,6.7,5.5,7.2c7.9,1.5,14.8-7.5,7.8-13.7c-3.3-2.9-7-2.3-11-1.5c-4.4,0.8-8.8,1.3-13.3,1.3
				c-14.6,0-33.5-9.2-44.9,4.3C49.4,87.3,50,94.8,56,95.9c8.2,1.6,16.4,2.6,24.7,2.9s10.5-13.5,2-14.7c-3.7-0.5-7.5-1.1-11.2-1.6
				c-0.7,4.9-1.3,9.8-2,14.7c6-0.6,12.1-0.7,18,0.6c5.6,1.1,10.7,3.7,16.3,4.5c10.4,1.6,21.1-4,25.6-13.5c-4.6-1.9-9.1-3.9-13.7-5.8
				c-2,4.8-3,9.6-3.6,14.7c-0.5,3.8,3.8,7.9,7.5,7.5C134,104,141,91.4,140.7,78c0-1.7-0.2-3.4-0.4-5c0-0.4-0.5-4.4-0.9-2.8
				c0.2-0.7,2.2-2.1,2.7-2.8c1-1.2,1.8-2.4,2.5-3.9c2.8-5.9,2.3-12.1-0.3-18c-2.4-5.4-10.3-4.3-13,0c-2.3,3.8-2.4,7.5-3.1,11.8
				c-0.6,3.6-0.2,0.1,0.7,0.8c-1.6-1.1-5.6-0.6-7.2-0.1c-8.7,2.4-11.8,12-8.3,19.6c1.7,3.7,7,4.6,10.3,2.7
				C127.6,78.2,128.1,73.8,126.4,70.1L126.4,70.1z"/>
		</g>
	</g>
	<g>
		<g>
			<path class="st0" d="M101.7,85.9c-7.3-1.4-14.7-2.9-22-4.3c-9.4-1.9-13.5,12.6-4,14.5c7.3,1.4,14.7,2.9,22,4.3
				C107.2,102.3,111.2,87.8,101.7,85.9L101.7,85.9z"/>
		</g>
	</g>
	<g>
		<g>
			<path class="st0" d="M53.7,104.2c10-0.6,20-1.1,30-1.7c4.8-0.3,9.7-0.5,14.5-0.8c2.6-0.1,5.2-0.3,7.7-0.4
				c1.3-0.1,2.6-0.1,3.9-0.2c-1.8-4.8-2.9-6.2-3.1-4c2.8-1.1,5.6-2.3,8.5-3.4c-7.7-2.2-15.7-3.6-23.7-4.1
				c-7.5-0.5-15.4,0.8-22.7-1.3c-9.3-2.7-13.2,11.8-4,14.5c7.5,2.2,15.1,1.5,22.8,1.7c8,0.2,15.8,1.6,23.6,3.8
				c2.9,0.8,7.1-0.5,8.5-3.4c2.5-5.4,3.2-11.9-1.8-16.1c-5-4.3-13.5-2.2-19.6-1.8c-14.8,0.8-29.6,1.6-44.4,2.5
				C44.1,89.8,44,104.8,53.7,104.2L53.7,104.2z"/>
		</g>
	</g>
	<g>
		<g>
			<path class="st0" d="M109.3,103.5c0,4.7,1.1,9,3.5,13c2.2-3.8,4.3-7.5,6.5-11.3c1.9,0.2,2.7,1.3,2.4,3.4c-4.8,0-9.6,0-14.5,0
				c2,10.7,14.1,17.5,24.3,14.1c2.9-1,5.8-3.9,5.5-7.2c-0.7-7.1-1.6-14.2-2.5-21.3c-0.6-4-5.7-6.2-9.2-5.2c-4.3,1.2-5.8,5.2-5.2,9.2
				c0.8,5.8,1.4,11.5,2,17.3c1.8-2.4,3.7-4.8,5.5-7.2c-2.7,0.9-5.2-0.4-5.9-3.6c-1.3-7.1-13.2-7.2-14.5,0c-1.4,8.2,3.6,15,12,15.6
				c5.8,0.4,9.2-6.6,6.5-11.3c-1-1.8-1.4-3.4-1.4-5.5C124.4,93.9,109.4,93.9,109.3,103.5L109.3,103.5z"/>
		</g>
	</g>
	<g>
		<g>
			<path class="st0" d="M136.5,122.7c0.2-0.2,0.5-0.5,0.7-0.7c1.4-1.4,2.2-3.4,2.2-5.3c0-1-0.2-2-0.6-2.9c-0.3-0.9-0.8-1.7-1.6-2.4
				c-1.4-1.3-3.3-2.3-5.3-2.2c-2,0.1-3.9,0.8-5.3,2.2c-0.2,0.2-0.5,0.5-0.7,0.7c-1.4,1.4-2.2,3.4-2.2,5.3c0,1,0.2,2,0.6,2.9
				c0.3,0.9,0.8,1.7,1.6,2.4c1.4,1.3,3.3,2.3,5.3,2.2C133.2,124.8,135.1,124.2,136.5,122.7L136.5,122.7z"/>
		</g>
	</g>
	<g>
		<g>
			<path class="st0" d="M153.4,119.8c1.2-1.2,2.4-2.4,3.7-3.7c1.4-1.4,2.2-3.4,2.2-5.3c0-1.8-0.8-4-2.2-5.3s-3.3-2.3-5.3-2.2
				c-2,0.1-3.9,0.8-5.3,2.2c-1.2,1.2-2.4,2.4-3.7,3.7c-1.4,1.4-2.2,3.4-2.2,5.3c0,1.8,0.8,4,2.2,5.3s3.3,2.3,5.3,2.2
				C150.1,121.9,152,121.2,153.4,119.8L153.4,119.8z"/>
		</g>
	</g>
	<g>
		<g>
			<path class="st0" d="M159.8,109.4c-0.2,0-0.3,0-0.4,0c0.7,0.1,1.3,0.2,2,0.3c-0.1,0-0.2,0-0.3-0.1c0.6,0.3,1.2,0.5,1.8,0.8
				c-0.2-0.1-0.3-0.2-0.5-0.3c0.5,0.4,1,0.8,1.5,1.2c-0.1-0.1-0.2-0.2-0.3-0.3c0.4,0.5,0.8,1,1.2,1.5c-0.1-0.2-0.3-0.4-0.4-0.6
				c0.3,0.6,0.5,1.2,0.8,1.8c-0.1-0.2-0.1-0.4-0.2-0.6c0.1,0.7,0.2,1.3,0.3,2c0-0.2,0-0.5,0-0.7c-0.1,0.7-0.2,1.3-0.3,2
				c0-0.1,0.1-0.3,0.1-0.4c-0.3,0.6-0.5,1.2-0.8,1.8c0.1-0.1,0.1-0.2,0.2-0.4c-0.4,0.5-0.8,1-1.2,1.5c0.1-0.1,0.2-0.2,0.3-0.3
				c-0.5,0.4-1,0.8-1.5,1.2l0.1-0.1c-1.9,0.3-3.9,0.5-5.8,0.8c0.2,0,0.4,0.1,0.6,0.1c-0.6-0.3-1.2-0.5-1.8-0.8
				c0.3,0.1,0.5,0.2,0.7,0.4c-0.5-0.4-1-0.8-1.5-1.2c0.2,0.1,0.3,0.3,0.4,0.4c-0.4-0.5-0.8-1-1.2-1.5c0.1,0.1,0.2,0.2,0.2,0.3
				c0.9,1.6,2.7,3,4.5,3.4c1.8,0.5,4.2,0.3,5.8-0.8c1.6-1,3-2.6,3.4-4.5c0.5-2,0.3-4-0.8-5.8c-1.6-2.9-5-5.1-8.4-5.1
				c-2.8,0-5.5,1.7-6.9,4.1c-0.9,1.5-1.2,2.8-1.3,4.5c-0.3,5.1,4.1,10.4,9.5,10.1c2-0.1,3.8-0.7,5.3-2.2c1.3-1.3,2.3-3.4,2.2-5.3
				s-0.7-4-2.2-5.3C163.7,110.3,161.8,109.2,159.8,109.4L159.8,109.4z"/>
		</g>
	</g>
	<g>
		<g>
			<path class="st0" d="M160.6,116.1c9.7,0,9.7-15,0-15S150.9,116.1,160.6,116.1L160.6,116.1z"/>
		</g>
	</g>
	<g>
		<g>
			<path class="st0" d="M156.8,107.3c-0.7,0.5-1.5,1-2.2,1.5c-1.6,1.1-2.9,2.6-3.4,4.5c-0.3,1-0.4,2-0.1,3c0,1,0.3,1.9,0.9,2.8
				c1,1.6,2.6,3,4.5,3.4s4.1,0.4,5.8-0.8c0.7-0.5,1.5-1,2.2-1.5c1.6-1.1,2.9-2.6,3.4-4.5c0.3-1,0.4-2,0.1-3c0-1-0.3-1.9-0.9-2.8
				c-1-1.6-2.6-3-4.5-3.4C160.6,106.1,158.4,106.2,156.8,107.3L156.8,107.3z"/>
		</g>
	</g>
	<g>
		<g>
			<path class="st0" d="M155.2,89.6c-1.9-0.4-3.8-0.8-5.8-1.1c1.7,3.1,3.5,6.2,5.2,9.2c0.1-0.2,0.2-0.5,0.3-0.7
				c-0.6,1.1-1.3,2.2-1.9,3.3c0.2-0.2,0.4-0.3,0.6-0.5c-1.1,0.6-2.2,1.3-3.3,1.9c1.4-0.5,5.5,0.4,7.6,0.6c3.3,0.3,6.6,0.7,9.9,1
				c4,0.4,7.5-3.7,7.5-7.5c0-4.4-3.5-7.1-7.5-7.5c-5.3-0.5-10.6-1.2-15.9-1.6c-5.6-0.5-9.6,1.9-11.7,7c-1.5,3.6,1.6,8.5,5.2,9.2
				c1.9,0.4,3.8,0.8,5.8,1.1C160.7,106,164.7,91.5,155.2,89.6L155.2,89.6z"/>
		</g>
	</g>
	<g>
		<g>
			<path class="st0" d="M167.1,70.5c-6.3-0.8-12.7-1-19-0.8c-9.6,0.3-9.7,15.3,0,15c6.4-0.2,12.7,0.1,19,0.8c4,0.5,7.5-3.8,7.5-7.5
				C174.6,73.5,171.2,70.9,167.1,70.5L167.1,70.5z"/>
		</g>
	</g>
	<g>
		<g>
			<path class="st0" d="M165.2,70c-1.7,0.5-3.4,0.9-5.2,1.4c-3.8,1-6.5,5.4-5.2,9.2c1.3,3.9,5.2,6.3,9.2,5.2
				c1.7-0.5,3.4-0.9,5.2-1.4c3.8-1,6.5-5.4,5.2-9.2C173.1,71.3,169.2,68.9,165.2,70L165.2,70z"/>
		</g>
	</g>
	<g>
		<g>
			<path class="st1" d="M138.5,46.5c5.8,0.3,2.6,11.6,3,15.2c0.4,3.2,5.4,3.2,5,0c-0.5-4.7,1.3-9.4-0.2-14c-1.1-3.6-4.1-6-7.9-6.2
				C135.3,41.3,135.3,46.3,138.5,46.5L138.5,46.5z"/>
		</g>
	</g>
	<g>
		<g>
			<path class="st1" d="M141.6,58c-1.6,3.9-6.2,3.6-7.9,7.3c-1.5,3.4-1.2,8.2-1.6,11.8c-0.5,4.7-0.5,9.8-1.8,14.3
				c-1.5,5.3-5.4,7.2-10.2,9c-3,1.1-1.7,5.9,1.3,4.8c3.9-1.4,7.9-3,10.6-6.2c2.8-3.4,3.5-7.8,4-12c0.4-3,0.7-6,1-9
				c0.3-2.8,0-6.7,1-9.4c0.8-2.3,3-2.6,4.9-4.1c1.7-1.5,2.6-3.1,3.5-5.2C147.7,56.4,142.9,55.1,141.6,58L141.6,58z"/>
		</g>
	</g>
	<g>
		<g>
			<path class="st1" d="M132.8,101.4c-0.4,6.8-0.8,13.5-1.3,20.3c-0.2,3.2,4.8,3.2,5,0c0.4-6.8,0.8-13.5,1.3-20.3
				C138,98.2,133,98.2,132.8,101.4L132.8,101.4z"/>
		</g>
	</g>
	<g>
		<g>
			<path class="st1" d="M107.4,106c0.2,5.1,2.5,9.7,6.7,12.7c5.4,3.8,12.8,3.2,19,3.6c3.2,0.2,3.2-4.8,0-5
				c-8.4-0.5-20.2,0.1-20.7-11.3C112.2,102.8,107.2,102.8,107.4,106L107.4,106z"/>
		</g>
	</g>
	<g>
		<g>
			<path class="st1" d="M41.4,104.3c22.8,0,45.6,0,68.4,0c3.2,0,3.2-5,0-5c-22.8,0-45.6,0-68.4,0C38.2,99.3,38.2,104.3,41.4,104.3
				L41.4,104.3z"/>
		</g>
	</g>
	<g>
		<g>
			<path class="st1" d="M167.3,73.6c3.1,1.8,2.3,5.4-0.9,6c-2.3,0.5-4.9,0.4-7.3,0.6c-4.2,0.2-8.4,0.4-12.6,0.4
				c-3.2,0.1-3.2,5.1,0,5c5.2-0.1,10.3-0.3,15.5-0.6c3.6-0.2,7.6-0.3,10.5-2.7c5.4-4.4,2.2-10.1-2.7-13
				C167.1,67.6,164.6,72,167.3,73.6L167.3,73.6z"/>
		</g>
	</g>
	<g>
		<g>
			<path class="st1" d="M167.6,91c2.4,2.4,4,6.4-0.5,7.9c-2.2,0.7-5.2,0.6-7.5,0.8c-4.9,0.4-9.7,0.6-14.6,0.6c-3.2,0-3.2,5,0,5
				c5.2,0,10.4-0.2,15.6-0.7c3.7-0.3,8.4-0.2,11.7-2.2c6.2-3.8,2.9-10.8-1.1-14.9C168.9,85.2,165.3,88.7,167.6,91L167.6,91z"/>
		</g>
	</g>
	<g>
		<g>
			<path class="st1" d="M145.4,103.6c6.8,0.5,13.5,0.6,20.3,0.2c3.2-0.2,3.2-5.2,0-5c-6.8,0.4-13.5,0.3-20.3-0.2
				C142.1,98.3,142.2,103.3,145.4,103.6L145.4,103.6z"/>
		</g>
	</g>
	<g>
		<g>
			<path class="st1" d="M158.6,108.3c3,1.1,2.9,4.5,1,6.4c-1.3,1.3-3.2,1.7-5,1.9c-3.9,0.5-7.9,0.2-11.7-0.3c-3.2-0.4-3.2,4.6,0,5
				c6.6,0.9,16.5,1.9,21.2-4.2c3.8-5,1.6-11.6-4.1-13.7C156.9,102.4,155.6,107.2,158.6,108.3L158.6,108.3z"/>
		</g>
	</g>
	<g>
		<g>
			<path class="st2" d="M144.8,38.2c0.1-1.4,0.2-2.8,0.3-4.1c-0.8,0.8-1.7,1.7-2.5,2.5c-1.2,0-1.1-1.2-0.1-1.5
				c0.6,0.1,1.3,0.2,1.9,0.3c-0.2-0.1-0.1-0.8,0.2-1.2c-1.2,0-2.4,0-3.5,0c1.2,1.4,1.3,3.6,0.5,5.2c-1.5,2.9,2.8,5.4,4.3,2.5
				c2-3.8,1.4-8-1.3-11.3c-0.9-1.1-2.6-0.9-3.5,0c-1.5,1.4-2.1,3.6-1.6,5.6c0.5,2.1,2.5,4.5,4.9,3.4c4-1.7,2.4-8-1.8-8.1
				c-1.4,0-2.4,1.2-2.5,2.5c-0.1,1.4-0.2,2.8-0.3,4.1C139.6,41.4,144.6,41.4,144.8,38.2L144.8,38.2z"/>
		</g>
	</g>
	<g>
		<g>
			<path class="st2" d="M143.7,87.2c0-0.7,0-1.3,0-2c0-1.3-1.1-2.6-2.5-2.5s-2.5,1.1-2.5,2.5c0,0.7,0,1.3,0,2c0,1.3,1.1,2.6,2.5,2.5
				C142.5,89.7,143.7,88.6,143.7,87.2L143.7,87.2z"/>
		</g>
	</g>
	<g>
		<g>
			<path class="st2" d="M143.1,103.8c0.3,0.3,0.4,0.3,0.3,0.2c-0.1-0.1-0.1,0,0.2,0.3c-0.2-0.4,0.2,0.6,0,0.1c-0.1-0.4,0,0.6,0,0.2
				c0,0.1,0,0.3-0.1,0.4c0.1-0.2,0-0.2-0.1,0.2c0.3-0.6,0.4-1.2,0.3-1.9c-0.2-0.6-0.6-1.2-1.1-1.5c-1.1-0.6-2.8-0.4-3.4,0.9
				c-0.5,1-0.6,2-0.3,3s0.9,1.8,1.8,2.4c1.1,0.7,2.8,0.2,3.4-0.9C144.6,106,144.2,104.6,143.1,103.8L143.1,103.8z"/>
		</g>
	</g>
	<g>
		<g>
			<path class="st2" d="M145,131.2c-0.9-2.5-0.8-4.9,0.1-7.4c-1.2,0.5-2.4,1-3.7,1.5c1.6,0.9,1.3,3.1,0,4.1c-1.1,0.8-0.9,2.6,0,3.5
				c1,1.1,2.5,0.8,3.5,0c3.9-3.1,3.1-9.5-1-11.9c-1.5-0.9-3.1,0-3.7,1.5c-1.2,3.2-1.2,6.8-0.1,10.1C141.2,135.6,146,134.3,145,131.2
				L145,131.2z"/>
		</g>
	</g>
</g>
<g id="レイヤー_1_1_">
	<polyline class="st3" points="138.3,68 138.3,135.5 148,135.5 148,122.5 	"/>
	<polyline class="st3" points="148,68.6 148,29.3 138.3,29.3 138.3,41.2 	"/>
	<path class="st3" d="M149.7,86.4c0,0-9-0.1-8.9-9.1s9.1-8.9,9.1-8.9l18,0.2c0,0,9,0.1,8.9,9.1s-9.1,8.9-9.1,8.9L149.7,86.4z"/>
	<path class="st3" d="M149.5,104.4c0,0-9-0.1-8.9-9.1s9.1-8.9,9.1-8.9l18,0.2c0,0,9,0.1,8.9,9.1s-9.1,8.9-9.1,8.9L149.5,104.4z"/>
	<path class="st3" d="M149.3,122.4c0,0-9-0.1-8.9-9.1s9.1-8.9,9.1-8.9l9,0.1c0,0,9,0.1,8.9,9.1s-9.1,8.9-9.1,8.9L149.3,122.4z"/>
	<path class="st3" d="M120,105.2c0,0,18,0.2,18.2-17.8c0.1-9,0.1-9,0.1-9"/>
	<path class="st3" d="M140.1,124.7l-7.4-0.1l-9-0.1c0,0-18-0.2-17.8-18.2l-45-0.4l-23.8-0.2"/>
	<path class="st3" d="M138.3,78.6l0.1-10.6c0,0,8.9,0.3,9-8.7s0.1-9,0.1-9s0.1-9-8.9-9.1c-9-0.1-9.1,8.9-9.1,8.9s-0.1,9-9.1,8.9
		s-9.1,8.9-9.1,8.9l-9-0.1l-27-0.3l-37.9-0.4"/>
	<g>
		<path class="st3" d="M134.2,2.3c0,0,0,9,0,18s9,9,9,9v-27"/>
		<path class="st3" d="M152.2,2.3v18c0,0,0,9-9,9"/>
	</g>
</g>
<g id="レイヤー_2_1_">
	<g>
		<g>
			<path class="st0" d="M221.3,80.2c0.4,0.6,0.9,1.2,1.3,1.7c0.5,0.9,1.1,1.6,1.9,2.1c0.7,0.7,1.6,1.1,2.6,1.3c1,0.3,2,0.4,3,0.1
				c1,0,1.9-0.3,2.8-0.9c1.6-1,3-2.6,3.4-4.5c0.1-0.7,0.2-1.3,0.3-2c0-1.4-0.3-2.6-1-3.8c-0.4-0.6-0.9-1.2-1.3-1.7
				c-0.5-0.9-1.1-1.6-1.9-2.1c-0.7-0.7-1.6-1.1-2.6-1.3c-1-0.3-2-0.4-3-0.1c-1,0-1.9,0.3-2.8,0.9c-1.6,1-3,2.6-3.4,4.5
				c-0.1,0.7-0.2,1.3-0.3,2C220.3,77.8,220.6,79,221.3,80.2L221.3,80.2z"/>
		</g>
	</g>
	<g>
		<g>
			<path class="st0" d="M230,85.2c11.5,0,23,0,34.5,0c9.7,0,9.7-15,0-15c-11.5,0-23,0-34.5,0C220.3,70.2,220.3,85.2,230,85.2
				L230,85.2z"/>
		</g>
	</g>
	<g>
		<g>
			<path class="st0" d="M228.2,101.8c13.4,0,26.8,0,40.2,0c9.7,0,9.7-15,0-15c-13.4,0-26.8,0-40.2,0
				C218.6,86.8,218.5,101.8,228.2,101.8L228.2,101.8z"/>
		</g>
	</g>
	<g>
		<g>
			<path class="st0" d="M256.6,85.2c0.4,3.5,0.7,7,0.7,10.5c0.1,3.9,3.4,7.7,7.5,7.5c4-0.2,7.6-3.3,7.5-7.5c-0.1-3.5-0.3-7-0.7-10.5
				c-0.5-3.9-3.1-7.7-7.5-7.5C260.4,77.8,256.1,81,256.6,85.2L256.6,85.2z"/>
		</g>
	</g>
	<g>
		<g>
			<path class="st0" d="M256.6,87.3c-0.1,1.3-0.3,2.6-0.4,3.9c-0.2,1.8,1,4.1,2.2,5.3c1.3,1.3,3.4,2.3,5.3,2.2
				c1.9-0.1,4-0.7,5.3-2.2c0.4-0.5,0.8-1,1.2-1.5c0.7-1.2,1-2.4,1-3.8c0.1-1.3,0.3-2.6,0.4-3.9c0.2-1.8-1-4.1-2.2-5.3
				c-1.3-1.3-3.4-2.3-5.3-2.2c-1.9,0.1-4,0.7-5.3,2.2c-0.4,0.5-0.8,1-1.2,1.5C256.9,84.7,256.6,86,256.6,87.3L256.6,87.3z"/>
		</g>
	</g>
	<g>
		<g>
			<path class="st0" d="M256,94.1c-0.8,4.4-1.8,8.7-2.9,13.1c4.9,0.7,9.8,1.3,14.7,2c0-0.5-0.1-1.1-0.1-1.6c-0.6-9.6-14.6-9.7-15,0
				c-0.1,2.6-0.4,5-0.9,7.6c-2,9.4,12.5,13.4,14.5,4c0.8-3.8,1.3-7.7,1.5-11.5c-5,0-10,0-15,0c0,0.5,0.1,1.1,0.1,1.6
				c0.5,8.1,12.5,10.6,14.7,2c1.1-4.3,2.1-8.7,2.9-13.1C272.2,88.6,257.8,84.6,256,94.1L256,94.1z"/>
		</g>
	</g>
	<g>
		<g>
			<path class="st0" d="M232.1,120.2c12.8,0,25.7,0,38.5,0c9.7,0,9.7-15,0-15c-12.8,0-25.7,0-38.5,0
				C222.5,105.2,222.5,120.2,232.1,120.2L232.1,120.2z"/>
		</g>
	</g>
	<g>
		<g>
			<path class="st0" d="M261.9,122.4c11.3-0.7,23.8-4.4,26.7-16.9c-4.9-0.7-9.8-1.3-14.7-2c0.2,2-1.4,2.8-1.7,4.6
				c-0.3,0.3-0.5,0.6-0.8,0.9c1.1-0.4,2.1,0.1,2.9,1.7v-4.1c0.2-1.9,0.8-3.9,1.5-5.7c-4.3,0-8.6,0-13,0c2.4,3.8,4.6,7.6,6.5,11.6
				c2.9,5.9,12.2,4.2,13.7-1.8c2.3-8.7,3.2-18.8,0.8-27.6c-1-3.4-4.1-5.2-4.9-8.4c-1-4,0.3-7.6-2.4-11.2c-2.5-3.3-6.4-4.9-10.3-2.7
				c-3.2,1.8-5.1,7-2.7,10.3c1,1.3,0.5,5.7,0.9,7.6c0.8,3.7,2.8,5.5,4.8,8.6c2.7,4.1,0.7,14.4-0.6,19.5c4.6-0.6,9.1-1.2,13.7-1.8
				c-1.9-4-4.1-7.9-6.5-11.6c-2.7-4.2-10.6-5.5-13,0c-3.9,8.9-7.6,26.1,5.2,29.9c11,3.2,22.1-9.1,20.9-19.8
				c-0.9-7.8-12.7-10.9-14.7-2c-1.2,5.3-7.8,5.6-12.2,5.9C252.3,108.1,252.2,123.1,261.9,122.4L261.9,122.4z"/>
		</g>
	</g>
	<g>
		<g>
			<path class="st0" d="M272.5,56.2c-1.1-1.8-1.4-3-0.9-5.1c-4.2,1.1-8.4,2.2-12.5,3.3c1.2,0.9,0.8,0.9,1.4,2.9
				c0.5,1.8,1,3.7,1.9,5.4c1.7,3.1,4.3,5.3,7.4,6.8c1.7,0.8,6.2,1.5,7.5,3.1c-0.3-0.5-0.3-0.3-0.1,0.4c0.1,1.3,0.2,2.5,0.2,3.8
				c0.1,2.5,0.1,5,0.1,7.5c-0.1,9.7,14.9,9.7,15,0c0.1-9.8,0.6-20.7-9.5-25.5c-2.3-1.1-6.7-2.1-7.6-3.6s-1-3.8-1.6-5.4
				c-0.9-2.3-2.2-4.4-4.1-6c-4.2-3.3-11-2.7-12.5,3.3c-1.5,5.8-0.8,11.5,2.4,16.6C264.6,72,277.5,64.4,272.5,56.2L272.5,56.2z"/>
		</g>
	</g>
	<g>
		<g>
			<path class="st0" d="M286.8,82.2c20.3,0,40.5,0,60.8,0c9.7,0,9.7-15,0-15c-20.3,0-40.5,0-60.8,0
				C277.2,67.2,277.1,82.2,286.8,82.2L286.8,82.2z"/>
		</g>
	</g>
	<g>
		<g>
			<path class="st0" d="M295.2,94c2.5-2.5,5-5,7.4-7.4c2.8-2.8,3-7.9,0-10.6s-7.6-3-10.6,0c-2.5,2.5-5,5-7.4,7.4
				c-2.8,2.8-3,7.9,0,10.6S292.2,96.9,295.2,94L295.2,94z"/>
		</g>
	</g>
	<g>
		<g>
			<path class="st0" d="M283.7,103.6c0.1,0,0.3,0,0.4,0c1.9,0,3.9-0.8,5.3-2.2c0.7-0.7,1.2-1.5,1.6-2.4c0.5-0.9,0.7-1.9,0.6-2.9
				c-0.1-1.9-0.7-4-2.2-5.3s-3.3-2.2-5.3-2.2c-0.1,0-0.3,0-0.4,0c-1.9,0-3.9,0.8-5.3,2.2c-0.7,0.7-1.2,1.5-1.6,2.4
				c-0.5,0.9-0.7,1.9-0.6,2.9c0.1,1.9,0.7,4,2.2,5.3C279.9,102.7,281.7,103.6,283.7,103.6L283.7,103.6z"/>
		</g>
	</g>
	<g>
		<g>
			<path class="st0" d="M285.9,105.8c20.4,0,40.8,0,61.2,0c9.7,0,9.7-15,0-15c-20.4,0-40.8,0-61.2,0
				C276.3,90.8,276.3,105.8,285.9,105.8L285.9,105.8z"/>
		</g>
	</g>
	<g>
		<g>
			<path class="st0" d="M298.2,91.1c7.1,0.4,14.2,0.6,21.4,0.5c3.2,0,6.5-0.1,9.7-0.3c1.9-0.1,3.9-0.2,5.8-0.3
				c0.6,0,1.3-0.1,1.9-0.1c2.5,0.3,2.4-0.4-0.3-2c0-1.3,0-2.7,0-4c-0.1,0.4-0.2,0.8-0.3,1.1c4.9,0.7,9.8,1.3,14.7,2
				c0-0.2,0-0.3,0-0.5c-4.6-0.6-9.1-1.2-13.7-1.8c0.5,0.7,0.6,1.5,0.5,2.3c4.9-0.7,9.8-1.3,14.7-2c-0.1-0.4-0.3-0.8-0.4-1.2
				c-3.1-9.1-17.6-5.2-14.5,4c0.1,0.4,0.3,0.8,0.4,1.2c2.7,7.8,14.7,6.8,14.7-2c0-2.2-0.3-4.3-1.1-6.3c-2-5.7-10.1-7.7-13.5-1.7
				c-1.5,2.6-2.2,5.1-2.1,8.1c0.3,8.4,12.4,10.3,14.7,2c1.3-4.7-0.4-9.6-4.6-12.3c-4.6-2.9-10-1.8-15.1-1.6c-11,0.6-22,0.5-33-0.2
				C288.5,75.5,288.6,90.5,298.2,91.1L298.2,91.1z"/>
		</g>
	</g>
	<g>
		<g>
			<path class="st0" d="M355.9,71.7c2.4,0,2.4-3.8,0-3.8C353.5,68,353.5,71.7,355.9,71.7L355.9,71.7z"/>
		</g>
	</g>
	<g>
		<g>
			<path class="st0" d="M354.5,68.1c0,11.7,0,23.3,0,35c0,2.4,3.8,2.4,3.8,0c0-11.7,0-23.3,0-35C358.2,65.7,354.5,65.7,354.5,68.1
				L354.5,68.1z"/>
		</g>
	</g>
	<g>
		<g>
			<path class="st0" d="M355.5,103.1c0.2-8.3,0.4-16.6,0.6-24.9c-1.2,0-2.5,0-3.8,0c0.6,5.8,0.3,11.5-0.1,17.3
				c1.2-0.2,2.5-0.3,3.7-0.5c-1.1-5.8-1.8-11.7-1.9-17.6c-0.1-2.4-3.7-2.4-3.8,0c0,3.4-0.6,6.3-1.8,9.4c-0.9,2.2,2.7,3.2,3.6,1
				c1.4-3.4,2-6.7,2-10.4c-1.2,0-2.5,0-3.8,0c0.2,6.3,0.8,12.4,2.1,18.6c0.4,2.2,3.5,1.5,3.7-0.5c0.4-5.8,0.8-11.5,0.1-17.3
				c-0.3-2.3-3.7-2.5-3.8,0c-0.2,8.3-0.4,16.6-0.6,24.9C351.6,105.5,355.4,105.5,355.5,103.1L355.5,103.1z"/>
		</g>
	</g>
	<g>
		<g>
			<path class="st0" d="M353.3,71.1c-0.3,1.5-0.1,2.9,0.6,4.3c0.4,0.7,1.4,1.1,2.1,0.9c0.8-0.3,1.3-0.9,1.4-1.8
				c0.1-1.3-0.2-2.6-0.8-3.7c-0.3-0.7-1.4-1.1-2.1-0.9c-0.6,0.2-1.2,0.4-1.7,0.5c-0.9,0.3-1.6,1.3-1.3,2.3c0.3,0.9,1.3,1.6,2.3,1.3
				c0.6-0.2,1.2-0.4,1.7-0.5c-0.7-0.3-1.4-0.6-2.1-0.9c-0.1-0.3,0.1,0.2,0.1,0.3c0.1,0.2,0.1,0.4,0.2,0.7c0,0.1,0,0.1,0,0
				c0,0.1,0,0.2,0,0.3c0,0.2,0,0.4,0,0.7c1.2-0.3,2.3-0.6,3.5-0.9c-0.2-0.4,0,0.1-0.1-0.2c0-0.1-0.1-0.2-0.1-0.4c0-0.2,0-0.2,0-0.1
				c0,0.2,0-0.3,0-0.4s0-0.2,0-0.3c0,0.2,0,0.2,0,0c0.2-1-0.3-2.1-1.3-2.3C354.6,69.6,353.5,70.1,353.3,71.1L353.3,71.1z"/>
		</g>
	</g>
	<g>
		<g>
			<path class="st1" d="M257,82.7c-0.7,1.4-0.8,2.7-0.6,4.2c0.2,1.2,1.6,2,2.7,1.8c1.1-0.2,2.3-1.2,2.2-2.5c0-0.2,0-0.3,0-0.5
				c0,0.2,0,0.2,0,0c0.1-0.2,0-0.2,0,0c0.1-0.2,0.2-0.3,0.3-0.4c-1.5-0.2-3-0.4-4.6-0.6c0.3,0.6,0.5,1.2,0.8,1.8
				c0.4,0.9,1,1.7,2.1,1.8c1,0.1,1.9-0.3,2.5-1.2c0.3-0.4,0.6-0.9,0.9-1.3c-1.4,0-2.9,0-4.3,0c0.1,0.1,0.2,0.3,0.3,0.5
				c-0.1-0.1-0.1-0.1,0,0c0,0,0,0.4,0,0.2c1.6,0,3.2,0,4.8,0c0,0.3,0.1-0.5,0-0.5c-0.1,0.3,0.2-0.4,0-0.1c-1.5-0.2-3-0.4-4.6-0.6
				c0.4,1.1,0.5,1.8,0.5,2.9c0,1.4,1.1,2.5,2.5,2.5c1.3,0,2.5-1.1,2.5-2.5s-0.2-2.9-0.7-4.2c-0.3-0.9-1-1.7-2.1-1.8
				c-0.9-0.1-2.1,0.3-2.5,1.2c-0.6,1.5-0.8,2.8-0.6,4.5c0.1,1.1,1.4,1.8,2.4,1.8s2.2-0.8,2.4-1.8c0.3-1.6,0.1-3.2-0.8-4.5
				c-1.1-1.6-3.2-1.6-4.3,0c-0.3,0.4-0.6,0.9-0.9,1.3c1.5,0.2,3,0.4,4.6,0.6c-0.3-0.6-0.5-1.2-0.8-1.8c-0.4-0.9-1-1.7-2.1-1.8
				c-1-0.1-1.9,0.3-2.5,1.2c-0.7,1-1,2.2-0.9,3.4c1.6-0.2,3.3-0.4,4.9-0.7c0.1,0.3,0-0.4,0-0.2c0,0.2,0.2-0.4,0-0.2
				c0.6-1.2,0.3-2.7-0.9-3.4C259.3,81.2,257.6,81.5,257,82.7L257,82.7z"/>
		</g>
	</g>
	<g>
		<g>
			<path class="st1" d="M281.8,99.8c-5.7-2.9-10.2-5.7-10.6-12.7c-0.3-6,0.2-12.2,0.1-18.2c0-3.3-0.1-5.3-3.3-6.6
				c-2.2-0.9-3.5-0.3-5-2.5c-1.1-1.6-1.2-3.4-1.3-5.3c0-1,0-2,0.1-3c0.1-1.3,1.7-9,5.6-4.9c2.2,2.3,5.7-1.2,3.5-3.5
				c-4.3-4.6-11-1.8-13.1,3.6c-2.3,5.9-2,15.4,3.9,19.2c1.2,0.8,2.4,0.9,3.6,1.3c0.5,0.2,1.6,0.4,1-0.3c0.4,0.4,0,3.3,0,3.9
				c-0.1,5.4-0.3,10.9-0.1,16.3c0.4,8.8,5.6,13.2,13,17C282.1,105.6,284.6,101.3,281.8,99.8L281.8,99.8z"/>
		</g>
	</g>
	<g>
		<g>
			<path class="st1" d="M262.1,98c0.3,1,0.6,1.9,0.8,2.9c0.2-0.8,0.4-1.6,0.6-2.4c-2.2,2.8-4.6,5-7.6,6.8c-1.1,0.6-1.7,2.3-0.9,3.4
				c1,1.3,4.5,10.2-0.1,9.9c-3.2-0.2-3.2,4.8,0,5c8.8,0.5,8-12.7,4.4-17.4c-0.3,1.1-0.6,2.3-0.9,3.4c2.9-1.7,5.5-3.8,7.6-6.4
				c2-2.4,1.7-3.5,0.8-6.5C266,93.6,261.2,94.9,262.1,98L262.1,98z"/>
		</g>
	</g>
	<g>
		<g>
			<path class="st1" d="M226.7,104c-3.8,3.6-4.5,9.8-1.2,14c4.8,6,13,3.4,19.5,4c3.2,0.3,3.2-4.7,0-5c-4.3-0.4-9.1,1-13.1-0.5
				c-3.9-1.4-4.5-6.3-1.6-9C232.6,105.4,229,101.8,226.7,104L226.7,104z"/>
		</g>
	</g>
	<g>
		<g>
			<path class="st1" d="M251.9,116.1c-3.9-0.2-7.8-0.5-11.7-0.7c-4.7-0.3-13-1.5-8.2-8.4c1.9-2.6-2.5-5.1-4.3-2.5
				c-3.3,4.7-2.5,11.1,2.6,14.2c2.5,1.5,5.4,1.5,8.2,1.7c4.5,0.3,8.9,0.5,13.4,0.8C255.1,121.3,255.1,116.3,251.9,116.1L251.9,116.1
				z"/>
		</g>
	</g>
	<g>
		<g>
			<path class="st1" d="M259.8,96.2c-7.3,0.3-14.5,0.6-21.8,0.6c-3.2,0-6.8,0.4-9.9,0c-2.3-0.3-4.2-0.3-3.8-3.2
				c0.3-1.8,2-3.8,3.2-5.1c2.2-2.4-1.4-5.9-3.5-3.5c-3.7,4.1-8.4,14-0.3,16.5c4.8,1.5,11.4,0.4,16.4,0.3c6.6-0.1,13.2-0.3,19.8-0.6
				C263,101.1,263,96.1,259.8,96.2L259.8,96.2z"/>
		</g>
	</g>
	<g>
		<g>
			<path class="st1" d="M234.6,98.9c-2.1-0.4-6.9-0.4-7.9-2.4c-1.3-2.5,0.2-6.6,1.4-8.9c1.5-2.8-2.8-5.4-4.3-2.5
				c-2.1,3.9-3.4,9-1.7,13.3c1.7,4.5,7.1,4.6,11.2,5.3C236.4,104.2,237.8,99.4,234.6,98.9L234.6,98.9z"/>
		</g>
	</g>
	<g>
		<g>
			<path class="st1" d="M259.1,77.9c-5.4,2.6-13.6,1.2-19.4,1.2c-3,0-6,0.1-9,0c-1,0-3.8,0.1-4.6-0.8c-2.1-2.4-0.9-5.8,0.3-8.1
				c1.4-2.9-2.9-5.4-4.3-2.5c-3.9,7.8-2.7,15.6,7.3,16.4c5.9,0.4,11.9,0.1,17.8,0.1c5,0,9.9,0.4,14.5-1.9
				C264.5,80.8,262,76.5,259.1,77.9L259.1,77.9z"/>
		</g>
	</g>
	<g>
		<g>
			<path class="st1" d="M293.6,103c0-0.2,0-0.3,0-0.5c0-1.3-1.1-2.6-2.5-2.5s-2.5,1.1-2.5,2.5c0,0.2,0,0.3,0,0.5
				c0,1.3,1.1,2.6,2.5,2.5C292.4,105.4,293.6,104.4,293.6,103L293.6,103z"/>
		</g>
	</g>
	<g>
		<g>
			<path class="st1" d="M291.5,105c21.7,0,43.3,0,65,0c3.2,0,3.2-5,0-5c-21.7,0-43.3,0-65,0C288.3,100,288.3,105,291.5,105
				L291.5,105z"/>
		</g>
	</g>
	<g>
		<g>
			<path class="st1" d="M284.4,102.1c-1.4,12.5-14.3,19.8-25.7,14.7c-2.9-1.3-5.5,3-2.5,4.3c15.1,6.7,31.4-2.6,33.2-19
				C289.8,98.9,284.8,99,284.4,102.1L284.4,102.1z"/>
		</g>
	</g>
	<g>
		<g>
			<path class="st4" d="M234,32.3c-0.1-0.2-0.3-1.1-0.1-1.1c0,0-0.3,0.3-0.4,0.3c-0.6,0.1-0.6-0.4-0.9-0.7c0-0.2,0-0.2,0,0
				c0,0.1,0,0.3,0,0.4c0-0.3-0.1,0.2-0.1,0.3c-0.1,0.2-0.2,0.4-0.2,0.4c0,0.3-0.1,0,0.1,0c0.3-0.2,0.6-0.2,0.9,0
				c0.2,0,0.4,0.1,0.5,0.2C234.1,32.4,233.7,32.4,234,32.3c0,0,0.3-0.2,0.3-0.3c0.9-0.7,0.2,0,0.2-0.1s-0.6-0.3-0.6-0.4
				c-0.3-0.4-0.2-1.2,0.1-1.4c-1,0.9-0.9,2.6,0,3.5c1,1,2.5,0.9,3.5,0c1.6-1.4,1.4-4.1,0-5.5c-1.5-1.5-4-1.4-5.7-0.4
				c-1.9,1.1-3.3,3.3-2.8,5.5c0.4,2.1,2.4,3.7,4.6,3.4c4-0.6,5.6-7,2.4-9.5c-1.7-1.3-4.1-1-5.6,0.5s-1.7,3.8-1.2,5.8
				C230,36.7,234.8,35.4,234,32.3L234,32.3z"/>
		</g>
	</g>
	<g>
		<g>
			<path class="st4" d="M232.7,32.9c0.1-2.1,0.8-2.8,2-2.1c0.9,0.2,1.5,0.6,1.9,1.5c0.1-0.8,0.6-1.2,1.4-1.3
				c0.9-0.8,1.7-0.6,2.3,0.5c0.2,0.3,0.4,0.6,0.6,0.9c0.6-1.4,1.5-1.6,2.6-0.6c0.4,0.4,0.9,0.9,1.3,1.3c2.6,0.1,2.7,0.6,0.1,1.4
				c1-0.6,2.1-1.2,3.1-1.7c-1.1-0.4-3.8-2.4-2.7-4c-0.7,0.4-1.4,0.8-2.2,1.2c1.2,0,1.9,1.9,2.7,1.9c0.5,0-2.5-3.2-2.5-2.6
				c0,0.4,2.5,2.6,2.8,3.3c0.6,1.3,0.7,2.8,0.7,4.2c-0.1,3.2,4.9,3.2,5,0c0.2-3.5-0.9-6.9-3.3-9.6c-1.8-2-5-4.2-7.8-2.6
				c-5.9,3.4,1.7,13.2,7,12c7.7-1.6,1.2-11.6-4-11.6c-3.1,0-4,3.2-3.4,5.8c0.8,3.3,3.3,5.5,6.4,6.7c1.3,0.5,2.7-0.6,3.1-1.7
				c0.7-2.2,0.9-4.7-0.8-6.6c-1.4-1.6-3.8-2-5.6-0.9c-4.1,2.5-1.6,10,2.8,10.4c5.9,0.6,4.2-7.2,1.6-9.8c-3.1-3.1-9.9-4.5-11.7,0.7
				c-1.5,4.1,2.3,9.4,6.8,7.9c5.5-1.7,3-8.2-0.3-10.7c-4-2.9-9.5-1.8-10.5,3.6c-0.7,4.3,3.6,10.3,8.1,6.8c4.6-3.6-0.2-10.4-4.6-11.4
				c-5.7-1.3-10.5,4.6-7.2,9.7C230.2,38.1,234.5,35.6,232.7,32.9L232.7,32.9z"/>
		</g>
	</g>
	<g>
		<g>
			<path class="st4" d="M232.7,52.3c-0.8,2-0.6,2.6,0.7,1.7c0.8,0.2,1.6,0.4,2.4,0.6c-0.5-0.4-0.6-0.9-0.1-1.4
				c0.3-1.3,1.3-1.6,3-0.9c1.1-0.2,2.1-0.4,3.2-0.7c1.4,0.8,2.6,0.8,3.8-0.3c-2.3,2.2,1.2,5.8,3.5,3.5c4.2-4-1.6-9.2-4.9-4.5
				c-3.4,4.8,2.7,10.4,6.6,5.4c3.6-4.6-2.3-10.9-7.1-7.4c-4.5,3.3-0.4,11.5,4.2,7.7c4.8-4-2-10.1-6.4-9.5c-5.6,0.7-7.6,8.9-1.9,11.2
				c2.1,0.8,4.3,0,5.2-2.1c1.1-2.6-0.6-5.6-2.7-7.2c-4.6-3.3-11.9-0.9-11.8,5.4c0.1,2.5,2,5.7,4.9,4.6c2.7-1.1,2.5-4.4,1.6-6.7
				c-1.1-2.6-4.3-5.5-7.3-4.2s-2.4,4.7-1.2,7C229.9,57.7,234.2,55.2,232.7,52.3L232.7,52.3z"/>
		</g>
	</g>
	<g>
		<g>
			<path class="st5" d="M225.6,44.7c9,0,17.9,0,26.9,0c3.2,0,3.2-5,0-5c-9,0-17.9,0-26.9,0C222.4,39.7,222.4,44.7,225.6,44.7
				L225.6,44.7z"/>
		</g>
	</g>
	<g>
		<g>
			<path class="st6" d="M233.4,65.9c0.1,0,0.2,0,0.2,0c1.3,0,2.6-1.2,2.5-2.5c-0.1-1.4-1.1-2.5-2.5-2.5c-0.1,0-0.2,0-0.2,0
				c-1.3,0-2.6,1.2-2.5,2.5C231,64.7,232,65.9,233.4,65.9L233.4,65.9z"/>
		</g>
	</g>
	<g>
		<g>
			<path class="st6" d="M234.4,66.4c3.3-0.3,6.7-0.3,10,0.1c3.2,0.3,3.2-4.7,0-5c-3.3-0.3-6.7-0.4-10-0.1
				C231.2,61.7,231.2,66.7,234.4,66.4L234.4,66.4z"/>
		</g>
	</g>
	<g>
		<g>
			<path class="st6" d="M244.5,60c-0.1,0.1-0.2,0.2-0.2,0.2c-0.9,0.9-1,2.6,0,3.5c1,0.9,2.5,1,3.5,0c0.1-0.1,0.2-0.2,0.2-0.2
				c0.9-0.9,1-2.6,0-3.5C247.1,59,245.5,59,244.5,60L244.5,60z"/>
		</g>
	</g>
	<g>
		<g>
			<path class="st6" d="M238.2,128c2.1,0,4.3,0,6.4,0c3.2,0,3.2-5,0-5c-2.1,0-4.3,0-6.4,0C235,123,235,128,238.2,128L238.2,128z"/>
		</g>
	</g>
</g>
<g id="レイヤー_1_2_">
	<rect x="234.7" y="121.7" class="st3" width="12.7" height="7"/>
	<path class="st3" d="M253.2,85.7c0,0,9,0,9-9s-9-9-9-9h-25.1c0,0-9,0-9,9s9,9,9,9H253.2z"/>
	<path class="st3" d="M253.3,103.7c0,0,9,0,9-9s-9-9-9-9h-25.1c0,0-9,0-9,9s9,9,9,9H253.3z"/>
	<path class="st3" d="M246.2,121.7c0,0,9,0,9-9s-9-9-9-9h-13.5c0,0-9,0-9,9s9,9,9,9H246.2z"/>
	<path class="st3" d="M283.2,104.7c0,0-18,0-18-18c0-9,0-9,0-9"/>
	<path class="st3" d="M358.6,105.9h-23.8l-45,0.1c0,18-18,18-18,18h-9h-4.3h-8.8"/>
	<path class="st3" d="M265.1,77.9V67.3c0,0-8.9,0.2-8.9-8.8s0-9,0-9s0-9,9-9s9,9,9,9s0,9,9,9s9,9,9,9h9h27l37.9-0.1"/>
	<rect x="230.2" y="59.5" class="st3" width="18.5" height="7.9"/>
	<rect x="222.5" y="37.9" class="st3" width="33.8" height="7.9"/>
	<path class="st3" d="M252.9,46.6c0,2.2,0,3.6,0,3.6s0,9-9,9s-9,0-9,0s-9,0-9-9c0-1.5,0-3,0-4.5"/>
	<path class="st3" d="M252.9,37.9c0-1.8,0-3.8,0-5.7c0-9-9-9-9-9s0,0-9,0s-9,9-9,9s0,2.3,0,5.7"/>
	<line class="st3" x1="237.3" y1="23.2" x2="252" y2="37.9"/>
	<line class="st3" x1="241.5" y1="23.2" x2="226.9" y2="37.9"/>
	<line class="st3" x1="241.5" y1="37.9" x2="228.7" y2="25"/>
	<line class="st3" x1="237.3" y1="37.9" x2="250.2" y2="25"/>
	<line class="st3" x1="237.3" y1="45.1" x2="249.6" y2="57.5"/>
	<line class="st3" x1="241.5" y1="45.1" x2="228.4" y2="58.3"/>
	<line class="st3" x1="241.5" y1="59.8" x2="226.9" y2="45.1"/>
	<line class="st3" x1="237.3" y1="59.8" x2="252" y2="45.1"/>
</g>
</svg>
