<?xml version="1.0" encoding="utf-8"?>
<!-- Generator: Adobe Illustrator 22.1.0, SVG Export Plug-In . SVG Version: 6.00 Build 0)  -->
<svg version="1.1" xmlns="http://www.w3.org/2000/svg" xmlns:xlink="http://www.w3.org/1999/xlink" x="0px" y="0px"
	 viewBox="0 0 198.425 183.137" enable-background="new 0 0 198.425 183.137" xml:space="preserve">
<g id="レイヤー_2">
	<g>
		<g>
			<path fill="#F8C8AE" d="M23.422,143.844c0-12.217,0-24.434,0-36.652c0-2.413-3.75-2.417-3.75,0c0,12.217,0,24.434,0,36.652
				C19.672,146.257,23.422,146.261,23.422,143.844L23.422,143.844z"/>
		</g>
	</g>
	<g>
		<g>
			<path fill="#F8C8AE" d="M37.817,109.241c-0.998-0.957-1.997-1.913-2.995-2.87c-4.515-4.326-13.055-1.383-12.803,5.303
				c0.318,8.441,0.282,16.873-0.109,25.311c-0.24,5.174,4.963,8.142,9.494,7.232c13.435-2.697,27.083-2.976,40.663-1.228
				c4.024,0.518,7.5-3.818,7.5-7.5c0-4.483-3.464-6.981-7.5-7.5c-14.943-1.923-29.89-1.199-44.651,1.764
				c3.165,2.411,6.329,4.821,9.494,7.232c0.391-8.438,0.427-16.87,0.109-25.311c-4.268,1.768-8.536,3.536-12.803,5.303
				c0.998,0.957,1.997,1.913,2.995,2.87C34.181,126.527,44.803,115.935,37.817,109.241L37.817,109.241z"/>
		</g>
	</g>
	<g>
		<g>
			<path fill="#F8C8AE" d="M39.137,130.19c9.318,0.263,18.615,0.8,27.901,1.609c9.615,0.838,9.559-14.167,0-15
				c-9.286-0.809-18.584-1.346-27.901-1.609C29.481,114.917,29.488,129.918,39.137,130.19L39.137,130.19z"/>
		</g>
	</g>
	<g>
		<g>
			<path fill="#F8C8AE" d="M45.737,124.955c2.634-0.305,5.267-0.61,7.901-0.916c3.751-0.435,6.831-2.524,7.366-6.503
				c0.531-3.954-1.851-6.815-5.372-8.229c-2.266-0.91-4.542-1.251-6.962-1.551c-1.769-0.22-4.103,0.996-5.303,2.197
				c-1.301,1.301-2.28,3.435-2.197,5.303c0.087,1.94,0.724,3.951,2.197,5.303c1.564,1.436,3.212,1.937,5.303,2.197
				c-2.103-0.261,0.394,0.151,0.814,0.267c0.738,0.203,1.452,0.464,2.161,0.749c0.665-4.911,1.329-9.821,1.994-14.732
				c-2.634,0.305-5.267,0.61-7.901,0.916c-2.054,0.238-3.785,0.679-5.303,2.197c-1.301,1.301-2.28,3.435-2.197,5.303
				C38.401,121.131,41.563,125.438,45.737,124.955L45.737,124.955z"/>
		</g>
	</g>
	<g>
		<g>
			<path fill="#F8C8AE" d="M42.072,122.022c2.392-0.305,4.783-0.611,7.175-0.916c1.718-0.219,3.126-0.514,4.544-1.61
				c1.239-0.957,2.33-2.325,2.688-3.896c0.759-3.33-0.533-6.634-3.447-8.47c-1.695-1.068-3.818-1.677-5.828-1.538
				c-3.906,0.27-7.69,3.256-7.5,7.5c0.172,3.832,3.308,7.79,7.5,7.5c0.864-0.011,0.585-0.14-0.839-0.385
				c-1.357-0.51-1.658-0.551-0.904-0.125c1.262-4.659,2.524-9.317,3.785-13.976c-2.392,0.305-4.783,0.611-7.175,0.916
				c-2.066,0.264-3.769,0.662-5.303,2.197c-1.301,1.301-2.28,3.435-2.197,5.303c0.087,1.94,0.724,3.951,2.197,5.303
				C38.126,121.072,40.152,122.268,42.072,122.022L42.072,122.022z"/>
		</g>
	</g>
	<g>
		<g>
			<path fill="#F8C8AE" d="M36.225,120.747c9.275,0.311,18.549,0.622,27.824,0.932c9.655,0.324,9.643-14.677,0-15
				c-9.275-0.311-18.549-0.622-27.824-0.932C26.57,105.423,26.582,120.424,36.225,120.747L36.225,120.747z"/>
		</g>
	</g>
	<g>
		<g>
			<path fill="#F8C8AE" d="M40.11,120.808c13.424,2.053,26.848,4.106,40.271,6.16c4.032,0.617,8.019-1.022,9.226-5.238
				c1.014-3.542-1.239-8.614-5.238-9.226c-13.424-2.053-26.848-4.106-40.271-6.16c-4.032-0.617-8.019,1.022-9.226,5.238
				C33.858,115.125,36.111,120.197,40.11,120.808L40.11,120.808z"/>
		</g>
	</g>
	<g>
		<g>
			<path fill="#F8C8AE" d="M68.461,118.374c5.184-0.237,10.436-0.174,15.585,0.537c4.007,0.553,8.053-0.971,9.226-5.238
				c0.963-3.504-1.2-8.668-5.238-9.226c-6.533-0.902-12.976-1.375-19.573-1.073C58.849,103.813,58.795,118.816,68.461,118.374
				L68.461,118.374z"/>
		</g>
	</g>
	<g>
		<g>
			<path fill="#F8C8AE" d="M64.069,119.908c6.953-0.499,13.893-0.333,20.773,0.839c3.988,0.68,8.077-1.058,9.226-5.238
				c0.99-3.603-1.223-8.542-5.238-9.226c-8.235-1.403-16.42-1.973-24.76-1.375C54.496,105.595,54.421,120.6,64.069,119.908
				L64.069,119.908z"/>
		</g>
	</g>
	<g>
		<g>
			<path fill="#F8C8AE" d="M60.377,103.498c-6.299-0.84-12.526-0.924-18.846-0.255c0,5,0,10,0,15
				c5.778-0.671,11.485-0.689,17.265-0.055c-0.665-4.911-1.329-9.821-1.994-14.732c-0.677,0.237-1.354,0.475-2.03,0.712
				c-7.633,2.677-6.899,14.949,1.994,14.732c7.143-0.174,13.998,0.517,20.995,1.92c6.689,1.341,12.949,1.954,19.109-1.511
				c8.528-4.797,1.037-17.029-7.571-12.952c-1.283,0.608-2.566,1.215-3.849,1.823c-2.932,1.389-4.304,5.49-3.447,8.47
				c0.048,0.168,0.096,0.335,0.145,0.503c0.666,2.315,2.718,4.823,5.238,5.238c0.916,0.159,1.836,0.29,2.76,0.394
				c2.964-0.161,2.664-0.471-0.9-0.929c-0.341-1.262-0.683-2.524-1.024-3.785c0.698,5.464-7.812,7.761-11.877,5.883
				c-1.926,4.569-3.853,9.139-5.779,13.708c3.953,0.573,7.906,1.146,11.859,1.719c-1.103-4.178-2.206-8.357-3.31-12.535
				c-0.757,0.754-1.514,1.509-2.271,2.263c-4.148,4.133-1.97,10.804,3.31,12.535c1.247,0.409,2.495,0.818,3.742,1.227
				c0.665-4.911,1.329-9.821,1.994-14.732c-3.201,0.304-6.008,0.977-8.74,2.747c-6.051,3.92-3.936,14.067,3.785,13.976
				c8.581-0.102,17.662-0.67,24.654-6.222c6.429-5.106,9.835-13.342,7.435-21.382c-2.162-7.244-12.193-7.003-14.464,0
				c-0.306,0.944-0.841,1.24-1.638,1.886c4.178,2.432,8.357,4.865,12.535,7.297c1.351-5.79,1.941-11.647,1.567-17.584
				c-0.389-6.186-8.084-10.276-12.803-5.303c-0.747,0.787-1.494,1.574-2.24,2.36c1.768-0.732,3.536-1.464,5.303-2.197
				c-1.104-0.145-2.935-0.879-3.577-1.795c0.341,1.262,0.683,2.524,1.024,3.785c-0.02-0.406-0.04-0.812-0.06-1.217
				c-0.732,1.768-1.464,3.536-2.197,5.303c-2.369,0.652-2.84,1.004-1.414,1.056c0.807,0.07,1.597,0.236,2.369,0.497
				c1.463,0.304,2.898,0.654,4.391,0.81c2.845,0.297,5.691-0.131,8.27-1.422c5.433-2.72,7.559-7.535,6.658-13.392
				c-0.614-3.994-5.649-6.24-9.226-5.238c-4.275,1.197-5.859,5.191-5.238,9.226c0.054,0.352,0.108,0.705,0.163,1.057
				c0-1.329,0-2.658,0-3.988c0.237-1.253,1.11-0.384,0.692-1.064c-0.199-0.323-2.157-0.568-2.565-0.66
				c-2.664-0.596-5.154-0.989-7.864-0.708c-5.563,0.575-9.899,4.897-8.844,10.738c0.9,4.98,5.743,8.473,10.166,10.318
				c6.084,2.538,10.269,1.909,14.797-2.862c-4.268-1.768-8.536-3.536-12.803-5.303c0.292,4.648,0.027,9.059-1.032,13.597
				c-1.799,7.713,6.851,11.905,12.535,7.297c2.789-2.261,4.401-5.129,5.495-8.505c-4.821,0-9.643,0-14.464,0
				c2.535,8.493-12.827,8.56-17.625,8.617c1.262,4.659,2.524,9.317,3.785,13.976c0.364-0.691,0.753-0.924,1.169-0.699
				c8.269-0.784,10.367-11.987,1.994-14.732c-1.247-0.409-2.495-0.818-3.742-1.227c1.103,4.178,2.206,8.357,3.31,12.535
				c0.757-0.754,1.514-1.509,2.271-2.263c3.621-3.607,2.472-11.697-3.31-12.535c-3.953-0.573-7.906-1.146-11.859-1.719
				c-3.748-0.543-7.277,0.612-8.848,4.342c-1.33,3.158-0.329,7.796,3.069,9.366c9.968,4.605,22.019,3.006,29.546-5.441
				c4.092-4.592,6.618-11.289,3.878-17.18c-2.699-5.805-8.186-7.254-14.046-6.232c1.329,0,2.658,0,3.988,0
				c-0.255-0.042-0.51-0.084-0.766-0.126c1.746,1.746,3.492,3.492,5.238,5.238c-0.048-0.168-0.096-0.335-0.145-0.503
				c-1.149,2.823-2.298,5.647-3.447,8.47c1.283-0.608,2.566-1.215,3.849-1.823c-2.524-4.317-5.047-8.635-7.571-12.952
				c-3.848,2.165-10.323-0.662-14.381-1.276c-6.03-0.913-12.055-1.33-18.152-1.181c0.665,4.911,1.329,9.821,1.994,14.732
				c0.677-0.237,1.354-0.475,2.03-0.712c8.265-2.899,6.369-13.815-1.994-14.732c-5.782-0.634-11.489-0.615-17.265,0.055
				c-4.023,0.467-7.5,3.113-7.5,7.5c0,3.724,3.447,7.929,7.5,7.5c6.319-0.669,12.547-0.585,18.846,0.255
				c4.022,0.536,7.5-3.831,7.5-7.5C67.877,106.5,64.411,104.036,60.377,103.498L60.377,103.498z"/>
		</g>
	</g>
	<g>
		<g>
			<path fill="#F8C8AE" d="M107.556,107.267c1.827-3.117,6.009-4.695,8.24-7.768c1.182-1.628,2.066-3.421,2.506-5.396
				c0.298-1.335,0.278-2.4,0.231-3.699c-0.106-2.953,0.646,0.019-1.454,1.691c-1.103,0.643-2.206,1.286-3.31,1.929
				c0.188-0.031,0.376-0.062,0.564-0.093c-3.075-1.746-6.151-3.492-9.226-5.238c1.308,3.65,0.168,7.007-3.882,8.844
				c-3.689,1.673-4.585,7.023-2.691,10.261c2.219,3.793,6.558,4.37,10.261,2.691c9.367-4.247,14.227-16.155,10.776-25.783
				c-1.479-4.125-4.951-5.943-9.226-5.238c-3.057,0.504-5.625,3.194-6.443,6.131c-0.29,1.042-0.417,2.237-0.442,3.316
				c-0.011,0.491,0.318,1.79,0.146,2.178c-0.212,0.476-2.469,1.829-2.9,2.155c-2.46,1.86-4.52,3.747-6.104,6.448
				C89.712,108.042,102.672,115.6,107.556,107.267L107.556,107.267z"/>
		</g>
	</g>
	<g>
		<g>
			<path fill="#F8C8AE" d="M121.249,122.561c6.105,0.318,12.209,0.636,18.314,0.954c9.647,0.503,9.62-14.499,0-15
				c-6.105-0.318-12.209-0.636-18.314-0.954C111.602,107.058,111.629,122.059,121.249,122.561L121.249,122.561z"/>
		</g>
	</g>
	<g>
		<g>
			<path fill="#F8C8AE" d="M129.165,122.754c6.159-1.484,12.498-1.858,18.768-0.815c3.991,0.664,8.074-1.047,9.226-5.238
				c0.987-3.591-1.22-8.558-5.238-9.226c-9.036-1.503-17.817-1.335-26.743,0.815C115.797,110.549,119.769,125.017,129.165,122.754
				L129.165,122.754z"/>
		</g>
	</g>
	<g>
		<g>
			<path fill="#F8C8AE" d="M109.147,128.071c1.685,2.067,2.279,4.983,3.66,7.25c1.454,2.386,3.393,4.434,5.808,5.869
				c5.181,3.079,10.991,2.37,15.433-1.501c1.87-1.63,2.762-4.955,1.929-7.297c-1.475-4.146-3.676-7.045-7.36-9.461
				c-1.262,4.659-2.524,9.317-3.785,13.976c7.33,0.094,14.61,0.619,21.878,1.58c-1.262-4.659-2.524-9.317-3.785-13.976
				c-1.375,0.838-2.699,1.299-4.235,0.549c0,4.317,0,8.635,0,12.952c0.817-0.397,1.629-0.814,2.47-1.161
				c3.177-1.311,3.238,0.044,2.217-4.692c-0.94-4.361-1.061-4.254-2.335-1.228c-0.391,0.927-0.752,2.102-0.614,3.126
				c0.521,3.884,3.015,7.69,7.5,7.5c0.133-0.006,0.265-0.011,0.398-0.017c2.441-0.103,5.402-1.306,6.476-3.715
				c0.045-0.101,0.091-0.203,0.136-0.304c1.59-3.565,1.206-8.218-2.691-10.261c-2.307-1.21-4.593-1.704-7.09-0.795
				c-8.999,3.276-5.113,17.778,3.988,14.464c0.243-0.089,0.487-0.177,0.73-0.266c-1.926-0.252-3.853-0.504-5.779-0.756
				c0.194,0.102,0.387,0.203,0.581,0.304c-0.897-3.42-1.794-6.841-2.691-10.261c-0.045,0.102-0.091,0.203-0.136,0.304
				c2.159-1.238,4.317-2.476,6.476-3.715c-0.133,0.006-0.265,0.011-0.398,0.017c2.5,2.5,5,5,7.5,7.5
				c-0.011-0.079-0.021-0.157-0.032-0.236c-0.732,1.768-1.464,3.536-2.197,5.303c4.539-5.036,3.945-12.937-2.14-16.643
				c-6.425-3.914-13.906-0.356-19.94,2.579c-4.905,2.386-4.892,10.562,0,12.952c6.393,3.123,13.205,3.213,19.376-0.549
				c6.908-4.21,3.2-13.053-3.785-13.976c-7.267-0.961-14.548-1.486-21.878-1.58c-7.743-0.099-9.799,10.033-3.785,13.976
				c0.513,0.124,0.669,0.289,0.466,0.496c0.643-2.432,1.286-4.865,1.929-7.297c-0.112,0.003-0.224,0.005-0.337,0.008
				c1.262-0.341,2.524-0.683,3.785-1.024c-1.504,0.199-1.491-0.846-2.532-3.089c-1.298-2.798-2.641-5.104-4.605-7.513
				c-2.58-3.164-7.92-2.629-10.607,0C106.008,120.535,106.602,124.949,109.147,128.071L109.147,128.071z"/>
		</g>
	</g>
	<g>
		<g>
			<path fill="#F8C8AE" d="M125.664,156.79c2.739-0.321,5.478-0.642,8.217-0.963c1.217-0.143,2.435-0.285,3.652-0.428
				c0.609-0.071,1.217-0.143,1.826-0.214c1.56,0.001,1.266-0.379-0.882-1.142c-0.732-1.768-1.464-3.536-2.197-5.303
				c0.02,0.275,0.04,0.55,0.06,0.825c1.835-2.411,3.671-4.821,5.506-7.232c-3.141,0.788-6.004,0.83-9.204,0.455
				c-8.315-0.975-10.368,13.603-1.994,14.732c4.802,0.648,9.587,1.18,14.427,1.445c8.807,0.483,9.679-12.132,1.994-14.732
				c-7.754-2.624-16.645-4.244-23.801,0.813c1.262-0.341,2.524-0.683,3.785-1.024c-1.779-0.168-3.584-0.627-5.224-1.345
				c-0.746-0.327-4.007-2.829-3.587-1.617c0,1.329,0,2.658,0,3.988c-1.135,1.02-2.27,2.041-3.405,3.061
				c-2.823-1.149-5.647-2.298-8.47-3.447c3.478,5.152,7.482,9.234,12.4,13.004c0-4.317,0-8.635,0-12.952
				c-0.793,0.583-1.678,0.709-2.655,0.381c-9.645-0.544-9.614,14.458,0,15c3.728,0.21,6.938-0.693,10.226-2.429
				c5.5-2.904,4.149-9.771,0-12.952c-2.742-2.103-5.094-4.772-7.019-7.623c-1.933-2.864-5.062-4.256-8.47-3.447
				c-5.514,1.31-8.571,7.078-6.718,12.425c1.62,4.677,6.553,7.884,10.84,9.877c4.622,2.149,10.98,4.337,15.866,2.052
				c4.313-2.018,7.716-0.832,12.243,0.699c0.665-4.911,1.329-9.821,1.994-14.732c-3.487-0.191-6.977-0.442-10.44-0.909
				c-0.665,4.911-1.329,9.821-1.994,14.732c4.501,0.528,8.8,0.11,13.191-0.991c2.993-0.75,5.74-4.037,5.506-7.232
				c-0.973-13.303-16.961-8.797-25.677-7.776c-4.022,0.471-7.5,3.11-7.5,7.5C118.164,152.978,121.614,157.265,125.664,156.79
				L125.664,156.79z"/>
		</g>
	</g>
	<g>
		<g>
			<path fill="#F8C8AE" d="M123.677,144.213c-5.109,1.119-18.098,4.627-21.393-1.91c0.341,1.262,0.683,2.524,1.024,3.785
				c-0.015-0.325-0.029-0.65-0.044-0.975c-0.732,1.768-1.464,3.536-2.197,5.303c0.199-0.176,0.398-0.352,0.598-0.528
				c7.246-6.408-3.396-16.984-10.607-10.607c-8.28,7.322,2.392,16.718,9.201,19.466c8.886,3.587,18.346,1.913,27.405-0.071
				C137.09,156.613,133.101,142.149,123.677,144.213L123.677,144.213z"/>
		</g>
	</g>
	<g>
		<g>
			<path fill="#F8C8AE" d="M106.75,147.681c2.199-2.688,4.398-5.376,6.597-8.063c1.297-1.585,2.197-3.179,2.197-5.303
				c0-1.84-0.817-4.037-2.197-5.303c-2.748-2.523-7.954-3.243-10.607,0c-2.199,2.688-4.398,5.376-6.597,8.063
				c-1.297,1.585-2.197,3.179-2.197,5.303c0,1.84,0.817,4.037,2.197,5.303C98.892,150.204,104.097,150.924,106.75,147.681
				L106.75,147.681z"/>
		</g>
	</g>
	<g>
		<g>
			<path fill="#F8C8AE" d="M111.279,143.551c0.266,0.666,0.454,1.333,0.578,2.039c-0.089-0.665-0.179-1.329-0.268-1.994
				c0.111,0.833,0.119,1.636,0.024,2.471c0.089-0.665,0.179-1.329,0.268-1.994c-0.032,0.234-0.073,0.467-0.124,0.697
				c-0.399,1.994-0.297,3.98,0.756,5.779c0.91,1.556,2.694,3.039,4.482,3.447c3.728,0.849,8.403-1.124,9.226-5.238
				c0.607-3.033,0.691-6.272-0.477-9.195c-0.752-1.881-1.633-3.421-3.447-4.482c-1.608-0.941-3.977-1.339-5.779-0.756
				c-1.815,0.587-3.566,1.712-4.482,3.447C111.153,139.442,110.546,141.716,111.279,143.551L111.279,143.551z"/>
		</g>
	</g>
	<g>
		<g>
			<path fill="#E8A48D" d="M149.606,110.698c1.705,1.583,2.816,2.091,1.606,4.144c-1.144,1.94-2.671,1.494-4.654,1.608
				c-3.242,0.187-6.501,0.235-9.748,0.272c-6.503,0.074-13.002-0.089-19.496-0.425c-3.216-0.166-3.207,4.834,0,5
				c5.845,0.302,11.693,0.468,17.546,0.44c5.268-0.025,10.949,0.324,16.142-0.658c8.336-1.575,7.281-9.143,2.14-13.917
				C150.786,104.975,147.242,108.502,149.606,110.698L149.606,110.698z"/>
		</g>
	</g>
	<g>
		<g>
			<path fill="#E8A48D" d="M120.995,140.394c10.598,0,21.195,0,31.793,0c3.217,0,3.223-5,0-5c-10.598,0-21.195,0-31.793,0
				C117.778,135.394,117.773,140.394,120.995,140.394L120.995,140.394z"/>
		</g>
	</g>
	<g>
		<g>
			<path fill="#E8A48D" d="M150.219,127.993c1.889,0.414,2.509,2.433,1.89,4.143c-0.753,2.082-2.893,3.296-4.784,4.182
				c-2.911,1.365-0.375,5.677,2.524,4.317c3.659-1.716,7.198-4.852,7.485-9.148c0.249-3.738-2.013-7.488-5.786-8.315
				C148.412,122.484,147.072,127.303,150.219,127.993L150.219,127.993z"/>
		</g>
	</g>
	<g>
		<g>
			<path fill="#E8A48D" d="M146.265,146.753c5.203,6.135-5.434,7.044-8.99,7.125c-3.928,0.09-8.145,0.63-12.024-0.13
				c-3.143-0.616-4.489,4.202-1.329,4.821c3.873,0.759,7.819,0.435,11.743,0.345c3.787-0.087,8.06,0.241,11.58-1.429
				c5.717-2.712,6.44-9.689,2.556-14.268C147.716,140.76,144.194,144.312,146.265,146.753L146.265,146.753z"/>
		</g>
	</g>
	<g>
		<g>
			<path fill="#E8A48D" d="M88.505,143.436c0.535,6.592,3.871,12.693,9.801,15.946c3.352,1.839,7.225,2.462,10.909,3.294
				c4.082,0.922,8.118,2.036,12.323,2.099c3.219,0.048,3.22-4.952,0-5c-5.568-0.083-11.844-1.782-17.193-3.369
				c-6.088-1.807-10.318-6.533-10.841-12.97C93.247,140.251,88.244,140.224,88.505,143.436L88.505,143.436z"/>
		</g>
	</g>
	<g>
		<g>
			<path fill="#E8A48D" d="M123.776,155.395c-8.622,0.673-17.188,0.498-25.776-0.526c-3.188-0.38-3.161,4.623,0,5
				c8.587,1.024,17.153,1.199,25.776,0.526C126.963,160.147,126.99,155.145,123.776,155.395L123.776,155.395z"/>
		</g>
	</g>
	<g>
		<g>
			<path fill="#E8A48D" d="M109.304,134.162c-0.444,7.248,6.183,11.453,12.462,12.766c3.14,0.657,4.482-4.162,1.329-4.821
				c-4.103-0.859-9.097-2.963-8.791-7.945C114.501,130.949,109.5,130.96,109.304,134.162L109.304,134.162z"/>
		</g>
	</g>
	<g>
		<g>
			<path fill="#E8A48D" d="M117.99,141.009c-2.536,4.986-5.331,16.898,2.796,18.569c3.141,0.646,4.484-4.173,1.329-4.821
				c-3.863-0.794-0.827-9.219,0.193-11.224C123.763,140.671,119.451,138.137,117.99,141.009L117.99,141.009z"/>
		</g>
	</g>
	<g>
		<g>
			<path fill="#E8A48D" d="M114.983,118.587c-0.564,1.251-1.128,2.503-1.692,3.754c-0.536,1.189-0.382,2.745,0.897,3.42
				c1.093,0.578,2.847,0.376,3.42-0.897c0.564-1.251,1.128-2.503,1.692-3.754c0.536-1.189,0.382-2.745-0.897-3.42
				C117.31,117.112,115.557,117.314,114.983,118.587L114.983,118.587z"/>
		</g>
	</g>
	<g>
		<g>
			<path fill="#E8A48D" d="M105.501,105.628c-0.469,9.203,1.476,26.575-10.087,29.647c-3.107,0.825-1.789,5.65,1.329,4.821
				c14.677-3.899,13.155-22.648,13.758-34.469C110.665,102.412,105.664,102.421,105.501,105.628L105.501,105.628z"/>
		</g>
	</g>
	<g>
		<g>
			<path fill="#E8A48D" d="M98.174,140.84c8.521-1.671,15.389-8.489,17.148-16.988c0.65-3.14-4.169-4.483-4.821-1.329
				c-1.435,6.934-6.713,12.134-13.656,13.496C93.69,136.637,95.025,141.458,98.174,140.84L98.174,140.84z"/>
		</g>
	</g>
	<g>
		<g>
			<path fill="#E8A48D" d="M110.147,129.829c0.742-3.078,1.484-6.156,2.225-9.234c0.753-3.127-4.067-4.461-4.821-1.329
				c-0.742,3.078-1.484,6.156-2.225,9.234C104.573,131.627,109.393,132.961,110.147,129.829L110.147,129.829z"/>
		</g>
	</g>
	<g>
		<g>
			<path fill="#E8A48D" d="M108.606,105.074c15.217,0.431,13.21-29.525-1.116-26.097c-3.128,0.748-1.804,5.571,1.329,4.821
				c6.068-1.452,8.239,16.515-0.213,16.276C105.388,99.983,105.39,104.983,108.606,105.074L108.606,105.074z"/>
		</g>
	</g>
	<g>
		<g>
			<path fill="#E8A48D" d="M91.439,141.646c-0.429-0.377-0.833-0.778-1.202-1.214c-0.07-0.083-0.199-0.194-0.241-0.294
				c0.063,0.152,0.219,0.305,0.049,0.05c-0.176-0.264-0.353-0.525-0.516-0.797c-0.672-1.121-2.277-1.634-3.42-0.897
				c-1.128,0.727-1.617,2.22-0.897,3.42c0.726,1.21,1.632,2.335,2.692,3.267c0.981,0.863,2.582,1.038,3.536,0
				C92.307,144.236,92.488,142.569,91.439,141.646L91.439,141.646z"/>
		</g>
	</g>
	<g>
		<g>
			<path fill="#E8A48D" d="M87.82,138.159c-22.117,0-44.234,0-66.35,0c-3.217,0-3.223,5,0,5c22.117,0,44.234,0,66.35,0
				C91.038,143.159,91.043,138.159,87.82,138.159L87.82,138.159z"/>
		</g>
	</g>
	<g>
		<g>
			<path fill="#F5EB42" d="M110.012,70.383c-1.081-2.671-0.802-4.974,1.322-7.069c-1.01,0.13-2.02,0.261-3.03,0.391
				c0.079,0.039,1.24,1.021,1.117,1.16c1.409-3.454,2.801-4.059,4.175-1.814c1.084,0.533,1.458,1.332,1.121,2.397
				c-0.297,1.646-1.018,1.301-1.579,0.187c-0.348-0.69,0.229-2.819,0.46-3.547c0.232-1.352,0.907-2.51,2.027-3.474
				c0.895,0.206,1.79,0.413,2.685,0.619c0.465,0.631,0.04,2.457-0.105,3.136c-0.116,0.541-0.485,2.362-0.934,2.63
				c-0.765-0.125-1.53-0.25-2.294-0.374c-0.149-0.959-0.123-1.908,0.078-2.847c0.125-0.961,0.293-2.404,0.897-3.209
				c0.286-1.393,1.277-1.708,2.973-0.945c2.09-0.87,2.94-0.5,2.551,1.109c0.187,1.456-2.488,6.737-4.295,6.626
				c-4.234-0.26,1.512-12.318,5.366-12.313c-0.72-0.413-1.439-0.825-2.159-1.238c1.239,1.776-0.704,6.078-1.704,7.456
				c-2.382,3.285-6.369,4.206-9.306,1.006c0.13,1.01,0.261,2.02,0.391,3.03c2.93-5.341,6.462-10.123,10.724-14.479
				c2.252-2.302-1.28-5.84-3.536-3.536c-4.546,4.646-8.379,9.791-11.506,15.491c-0.556,1.013-0.379,2.191,0.391,3.03
				c3.836,4.18,9.611,4.741,14.18,1.313c3.68-2.761,7.23-10.007,5.432-14.643c-2.229-5.744-8.327-0.1-10.581,2.366
				c-3.323,3.634-5.522,8.777-3.171,13.547c5.355,10.863,18.157-3.793,13.939-11.826c-2.272-4.326-7.767-4.942-11.42-1.943
				c-3.701,3.04-5.598,10.067-3.644,14.525c1.811,4.131,6.993,5.416,10.038,1.855c2.688-3.143,4.074-9.472,1.577-13.044
				c-2.694-3.853-8.016-3.314-10.987-0.067c-2.996,3.274-4.319,10.44-2.155,14.464c2.309,4.295,7.576,3.203,9.716-0.656
				c2.262-4.081,0.951-9.782-3.263-12.005c-10.663-5.624-15.323,13.048-4.206,12.611c5.049-0.198,7.28-5.781,4.311-9.658
				c-3.064-4.001-8.916-3.012-10.681,1.642c-1.528,4.03,1.326,10.047,6.365,8.617c5.199-1.475,3.472-9.573-0.464-11.515
				c-1.012-0.499-2.199-0.428-3.03,0.391c-3.275,3.229-4.353,7.62-2.608,11.933C106.382,74.657,111.22,73.37,110.012,70.383
				L110.012,70.383z"/>
		</g>
	</g>
	<g>
		<g>
			<path fill="#F5EB42" d="M109.169,64.661c3.217,0,3.223-5,0-5C105.951,59.661,105.946,64.661,109.169,64.661L109.169,64.661z"/>
		</g>
	</g>
	<g>
		<g>
			<path fill="#F5EB42" d="M114.27,57.262c0.889-1.111,1.778-2.222,2.667-3.333c0.815-1.019,1.07-2.553,0-3.536
				c-0.907-0.833-2.663-1.091-3.536,0c-0.889,1.111-1.778,2.222-2.667,3.333c-0.815,1.019-1.07,2.553,0,3.536
				C111.641,58.095,113.397,58.353,114.27,57.262L114.27,57.262z"/>
		</g>
	</g>
	<g>
		<g>
			<path fill="#F5EB42" d="M119.965,50.069c2.361-3.352,4.412-6.877,6.16-10.585c1.364-2.894-2.945-5.435-4.317-2.524
				c-1.748,3.709-3.799,7.234-6.16,10.585C113.791,50.181,118.124,52.682,119.965,50.069L119.965,50.069z"/>
		</g>
	</g>
	<g>
		<g>
			<path fill="#F5EB42" d="M116.034,52.115c5.326-8.449,10.653-16.898,15.979-25.346c1.721-2.73-2.604-5.242-4.317-2.524
				c-5.326,8.449-10.653,16.898-15.979,25.346C109.996,52.321,114.321,54.833,116.034,52.115L116.034,52.115z"/>
		</g>
	</g>
	<g>
		<g>
			<path fill="#F5EB42" d="M119.298,46.069c4.873-6.9,9.746-13.8,14.619-20.7c1.86-2.634-2.474-5.134-4.317-2.524
				c-4.873,6.9-9.746,13.8-14.619,20.7C113.12,46.179,117.454,48.679,119.298,46.069L119.298,46.069z"/>
		</g>
	</g>
	<g>
		<g>
			<path fill="#F5EB42" d="M115.297,50.066c6.988-9.132,13.976-18.263,20.964-27.395c-1.523-0.642-3.046-1.284-4.569-1.926
				c-4.68,11.992-7.467,24.467-8.46,37.296c1.553-0.421,3.106-0.841,4.659-1.262c-0.26-0.589-0.52-1.177-0.78-1.766
				c-1.297-2.937-5.607-0.396-4.317,2.524c0.26,0.589,0.52,1.177,0.78,1.766c1.096,2.482,4.489,0.936,4.659-1.262
				c0.959-12.386,3.767-24.399,8.282-35.967c1.124-2.879-3.015-3.958-4.569-1.926c-6.988,9.132-13.976,18.263-20.964,27.395
				C109.025,50.096,113.365,52.59,115.297,50.066L115.297,50.066z"/>
		</g>
	</g>
	<g>
		<g>
			<path fill="#F5EB42" d="M124.669,31.494c0,0.444,0,0.889,0,1.333c0,1.308,1.15,2.56,2.5,2.5c1.355-0.061,2.5-1.098,2.5-2.5
				c0-0.444,0-0.889,0-1.333c0-1.308-1.15-2.56-2.5-2.5C125.814,29.055,124.669,30.093,124.669,31.494L124.669,31.494z"/>
		</g>
	</g>
	<g>
		<g>
			<path fill="#F5EB42" d="M125.01,30.899c-0.667,1.111-1.333,2.222-2,3.333c-0.673,1.122-0.287,2.795,0.897,3.42
				c1.21,0.639,2.701,0.301,3.42-0.897c0.667-1.111,1.333-2.222,2-3.333c0.674-1.122,0.287-2.795-0.897-3.42
				C127.22,29.363,125.729,29.701,125.01,30.899L125.01,30.899z"/>
		</g>
	</g>
	<g>
		<g>
			<path fill="#F5EB42" d="M122.571,44.039c3.535-0.916,4.266,12.596,4.305,13.974c1.667,0,3.333,0,5,0
				c-1.028-9.243-1.932-18.462,0.731-27.525c-1.607,0-3.214,0-4.821,0c1.459,8.646,0.963,17.211-1.351,25.66
				c1.393-0.368,2.786-0.735,4.178-1.103c-2.216-1.865-1.004-11.29-1.035-13.963c-0.028-2.378-3.491-3.537-4.659-1.262
				c-1.413,2.752-2.825,5.504-4.238,8.257c1.523,0.642,3.046,1.284,4.569,1.926c0.514-1.788,1.081-3.361,1.886-5.059
				c-1.523-0.199-3.046-0.398-4.569-0.597c-0.052,0.351-0.105,0.702-0.157,1.053c1.523,0.199,3.046,0.398,4.569,0.597
				c-0.819-2.357-1.857-3.337-4.139-4.287c0.582,1.025,1.164,2.05,1.746,3.075c2.218-6.881,5.514-13.095,9.874-18.852
				c1.943-2.565-2.397-5.059-4.317-2.524c-4.622,6.102-8.032,12.766-10.378,20.046c-0.452,1.401,0.543,2.575,1.746,3.075
				c0.216,0.265,0.431,0.53,0.647,0.794c0.688,1.979,3.432,2.539,4.569,0.597c0.977-1.668,1.151-3.037,0.661-4.906
				c-0.514-1.959-3.626-2.586-4.569-0.597c-0.967,2.039-1.766,4.082-2.39,6.253c-0.769,2.674,3.255,4.488,4.569,1.926
				c1.413-2.752,2.825-5.504,4.238-8.257c-1.553-0.421-3.106-0.841-4.659-1.262c0.058,4.956-1.827,13.856,2.5,17.498
				c1.401,1.18,3.649,0.829,4.178-1.103c2.557-9.338,2.961-18.781,1.351-28.318c-0.431-2.553-4.175-2.2-4.821,0
				c-2.785,9.481-1.987,19.167-0.91,28.854c0.347,3.117,5.093,3.29,5,0c-0.167-5.91-1.318-21.21-10.634-18.795
				C118.13,40.024,119.449,44.848,122.571,44.039L122.571,44.039z"/>
		</g>
	</g>
	<g>
		<g>
			<path fill="#F5EB42" d="M133.875,25.508c0.134-1.475,1.077-2.803,2.337-3.568c2.747-1.667,0.237-5.993-2.524-4.317
				c-2.858,1.734-4.513,4.588-4.814,7.886c-0.123,1.346,1.237,2.5,2.5,2.5C132.83,28.008,133.752,26.858,133.875,25.508
				L133.875,25.508z"/>
		</g>
	</g>
	<g>
		<g>
			<path fill="#F5EB42" d="M132.502,23.994c3.217,0,3.223-5,0-5C129.285,18.994,129.279,23.994,132.502,23.994L132.502,23.994z"/>
		</g>
	</g>
	<g>
		<g>
			<path fill="#F5EB42" d="M132.502,21.994c3.217,0,3.223-5,0-5C129.285,16.994,129.279,21.994,132.502,21.994L132.502,21.994z"/>
		</g>
	</g>
	<g>
		<g>
			<path fill="#F5EB42" d="M129.013,25.981c1.505-1.589,3.01-3.178,4.515-4.767c0.708-0.748,1.417-1.496,2.125-2.243
				c0.635-0.67,1.328-1.711,2.158-2.116c-0.642,0.084-1.284,0.168-1.926,0.252c0.144,0.019,0.288,0.039,0.432,0.058
				c-0.498-0.383-0.996-0.766-1.494-1.149c0.043,0.064,0.085,0.128,0.128,0.192c-0.084-0.642-0.168-1.284-0.252-1.926
				c0.448-0.421,0.896-0.842,1.343-1.263c0.941,0.383,1.882,0.766,2.823,1.149c-0.038-0.05-0.076-0.1-0.114-0.15
				c-1.92-2.53-6.264-0.042-4.317,2.524c0.038,0.05,0.076,0.1,0.114,0.15c0.645,0.85,1.697,1.534,2.823,1.149
				c4.137-1.415,1.525-7.33-2.299-5.198c-1.773,0.988-3.165,3.015-4.549,4.476c-1.682,1.776-3.364,3.552-5.046,5.328
				C123.265,24.781,126.795,28.323,129.013,25.981L129.013,25.981z"/>
		</g>
	</g>
	<g>
		<g>
			<path fill="#F5EB42" d="M132.734,19.262c0.444,0.444,0.889,0.889,1.333,1.333c0.926,0.926,2.622,0.995,3.536,0
				c0.916-0.998,0.988-2.547,0-3.536c-0.444-0.444-0.889-0.889-1.333-1.333c-0.926-0.926-2.622-0.995-3.536,0
				C131.818,16.725,131.746,18.274,132.734,19.262L132.734,19.262z"/>
		</g>
	</g>
	<g>
		<g>
			<path fill="#F5EB42" d="M137.183,21.345c0.68-0.119,1.361-0.238,2.041-0.357c2.278-0.398,2.225-3.488,0.597-4.569
				c0.199,0.545,0.398,1.091,0.597,1.636c-0.232,0.158-0.463,0.316-0.695,0.474c0-0.038,1.284,0.634,1.43,0.72
				c0.702,0.417,1.439,0.834,2.026,1.408c0.462,0.452,1.615,2.257,0.231,1.879c-0.655-0.179-1.108-1.137-1.397-1.676
				c-0.25-0.466-0.471-0.961-0.666-1.453c-0.331-0.835-0.098-0.975-1.157-1.006c-1.208-0.035-0.699,0.102-0.208,0.775
				c0.285,0.391,0.557,0.791,0.836,1.186c0.348,0.494,0.7,0.986,1.045,1.483c0.133,0.184,0.262,0.371,0.387,0.561
				c0.442,0.844,1.205,0.654,2.29-0.571c-2.677-1.801-5.183,2.529-2.524,4.317c2.896,1.948,6.162-1.199,5.474-4.261
				c-0.391-1.738-1.774-3.227-2.773-4.645c-0.866-1.229-1.642-2.599-3.059-3.245c-3.351-1.528-6.079,1.936-5.606,5.074
				c0.448,2.974,2.421,6.627,5.217,7.942c2.795,1.314,6.171,0.366,7.347-2.616c1.108-2.81-0.14-5.764-2.322-7.651
				c-2.164-1.871-5.923-4.373-8.796-2.644c-2.509,1.51-2.596,5.038-0.201,6.63c0.199-1.523,0.398-3.046,0.597-4.569
				c-0.68,0.119-1.361,0.238-2.041,0.357C132.689,17.076,134.031,21.895,137.183,21.345L137.183,21.345z"/>
		</g>
	</g>
	<g>
		<g>
			<path fill="#F5EB42" d="M132.985,20.773c0.441,0.669,0.882,1.338,1.323,2.007c0.719,1.09,2.243,1.656,3.42,0.897
				c1.088-0.701,1.667-2.253,0.897-3.42c-0.441-0.669-0.882-1.338-1.323-2.007c-0.719-1.09-2.243-1.656-3.42-0.897
				C132.793,18.054,132.215,19.605,132.985,20.773L132.985,20.773z"/>
		</g>
	</g>
	<g>
		<g>
			<path fill="#F5EB42" d="M135.169,25.328c3.217,0,3.223-5,0-5C131.951,20.328,131.946,25.328,135.169,25.328L135.169,25.328z"/>
		</g>
	</g>
	<g>
		<g>
			<path fill="#F5EB42" d="M136.43,22.986c0.889-0.444,1.778-0.889,2.667-1.333c1.172-0.586,1.596-2.337,0.897-3.42
				c-0.773-1.199-2.167-1.524-3.42-0.897c-0.889,0.444-1.778,0.889-2.667,1.333c-1.172,0.586-1.596,2.337-0.897,3.42
				C133.783,23.288,135.177,23.613,136.43,22.986L136.43,22.986z"/>
		</g>
	</g>
	<g>
		<g>
			<path fill="#F5EB42" d="M140.502,23.328c3.217,0,3.223-5,0-5C137.285,18.328,137.279,23.328,140.502,23.328L140.502,23.328z"/>
		</g>
	</g>
	<g>
		<g>
			<path fill="#F5EB42" d="M139.166,19.238c1.333-0.444,2.667-0.889,4-1.333c1.238-0.413,2.177-1.743,1.746-3.075
				c-0.399-1.233-1.747-2.189-3.075-1.746c-1.333,0.444-2.667,0.889-4,1.333c-1.238,0.413-2.177,1.743-1.746,3.075
				C136.49,18.725,137.838,19.681,139.166,19.238L139.166,19.238z"/>
		</g>
	</g>
	<g>
		<g>
			<path fill="#F5EB42" d="M139.835,15.994c3.217,0,3.223-5,0-5C136.618,10.994,136.613,15.994,139.835,15.994L139.835,15.994z"/>
		</g>
	</g>
	<g>
		<g>
			<path fill="#F5EB42" d="M136.758,14.826c0.889,2.222,1.778,4.444,2.667,6.667c0.501,1.253,1.669,2.132,3.075,1.746
				c1.191-0.327,2.25-1.814,1.746-3.075c-0.889-2.222-1.778-4.444-2.667-6.667c-0.501-1.253-1.669-2.132-3.075-1.746
				C137.313,12.078,136.253,13.565,136.758,14.826L136.758,14.826z"/>
		</g>
	</g>
	<g>
		<g>
			<path fill="#F5EB42" d="M139.335,26.161c0,0.889,0,1.778,0,2.667c0,1.308,1.15,2.56,2.5,2.5c1.355-0.061,2.5-1.098,2.5-2.5
				c0-0.889,0-1.778,0-2.667c0-1.308-1.15-2.56-2.5-2.5C140.481,23.722,139.335,24.759,139.335,26.161L139.335,26.161z"/>
		</g>
	</g>
	<g>
		<g>
			<path fill="#F5EB42" d="M139.677,26.756c1.333,3.111,2.667,6.222,4,9.333c0.536,1.251,2.352,1.505,3.42,0.897
				c1.291-0.735,1.426-2.187,0.897-3.42c-1.333-3.111-2.667-6.222-4-9.333c-0.536-1.251-2.352-1.505-3.42-0.897
				C139.282,24.071,139.148,25.522,139.677,26.756L139.677,26.756z"/>
		</g>
	</g>
	<g>
		<g>
			<path fill="#F5EB42" d="M144.956,30.79c4.924,7.947,8.734,16.328,11.453,25.275c0.933,3.07,5.761,1.762,4.821-1.329
				c-2.837-9.336-6.818-18.175-11.957-26.47C147.582,25.537,143.255,28.045,144.956,30.79L144.956,30.79z"/>
		</g>
	</g>
	<g>
		<g>
			<path fill="#F5EB42" d="M147.623,33.458c5.106,8.006,9.277,16.42,12.487,25.361c1.079,3.006,5.913,1.71,4.821-1.329
				c-3.35-9.331-7.659-18.195-12.991-26.556C150.215,28.229,145.886,30.734,147.623,33.458L147.623,33.458z"/>
		</g>
	</g>
	<g>
		<g>
			<path fill="#F5EB42" d="M143.772,27.835c7.947,6.124,13.397,14.58,15.956,24.25c0.822,3.108,5.647,1.79,4.821-1.329
				c-2.921-11.038-9.232-20.286-18.253-27.238C143.748,21.555,141.256,25.896,143.772,27.835L143.772,27.835z"/>
		</g>
	</g>
	<g>
		<g>
			<path fill="#F5EB42" d="M142.751,23.244c5.234,5.162,9.532,10.993,12.938,17.506c1.491,2.853,5.808,0.328,4.317-2.524
				c-3.593-6.873-8.198-13.073-13.719-18.517C143.994,17.447,140.456,20.98,142.751,23.244L142.751,23.244z"/>
		</g>
	</g>
	<g>
		<g>
			<path fill="#F5EB42" d="M149.624,34.123c5.72,9.127,10.699,18.638,14.941,28.54c1.263,2.949,5.572,0.405,4.317-2.524
				c-4.242-9.901-9.221-19.412-14.941-28.54C152.237,28.879,147.909,31.386,149.624,34.123L149.624,34.123z"/>
		</g>
	</g>
	<g>
		<g>
			<path fill="#F5EB42" d="M160.054,49.506c1.549,4.225,3.098,8.449,4.647,12.674c1.099,2.996,5.933,1.702,4.821-1.329
				c-1.549-4.225-3.098-8.449-4.647-12.674C163.776,45.18,158.942,46.475,160.054,49.506L160.054,49.506z"/>
		</g>
	</g>
	<g>
		<g>
			<path fill="#F5EB42" d="M165.835,63.994c3.217,0,3.223-5,0-5C162.618,58.994,162.613,63.994,165.835,63.994L165.835,63.994z"/>
		</g>
	</g>
	<g>
		<g>
			<path fill="#F5EB42" d="M165.677,61.566c-0.667,0.889-1.333,1.778-2,2.667c-0.364,0.485-0.405,1.371-0.252,1.926
				c0.16,0.58,0.608,1.208,1.149,1.494c1.313,0.694,2.58,0.224,3.42-0.897c0.667-0.889,1.333-1.778,2-2.667
				c0.364-0.485,0.405-1.371,0.252-1.926c-0.16-0.58-0.608-1.208-1.149-1.494C167.784,59.975,166.517,60.445,165.677,61.566
				L165.677,61.566z"/>
		</g>
	</g>
	<g>
		<g>
			<path fill="#F5EB42" d="M166.343,65.566c-1.4,2.264-3.041,4.298-4.942,6.161c-2.302,2.256,1.234,5.79,3.536,3.536
				c2.193-2.148,4.11-4.562,5.724-7.173C172.358,65.345,168.034,62.831,166.343,65.566L166.343,65.566z"/>
		</g>
	</g>
	<g>
		<g>
			<path fill="#F5EB42" d="M168.405,66.891c0.261,1.772-1.652,3.363-3.263,3.349c-3.218-0.027-3.221,4.973,0,5
				c5.163,0.044,8.809-4.756,8.085-9.678c-0.197-1.337-1.888-2.072-3.075-1.746C168.718,64.21,168.208,65.55,168.405,66.891
				L168.405,66.891z"/>
		</g>
	</g>
	<g>
		<g>
			<path fill="#F5EB42" d="M168.668,66.175c0.108,0.696,0.216,1.391,0.323,2.087c0.356,2.297,3.504,2.202,4.569,0.597
				c1.998-3.01,2.017-6.712,0.188-9.802c-1.309,1.01-2.618,2.02-3.926,3.03c0.056-0.093,0.111-0.185,0.167-0.278
				c1.179,0,2.357,0,3.536,0c-1.025-0.989-1.765-2.143-2.004-3.57c-0.224-1.338,0.453-2.752-0.233-3.987
				c-1.328-2.39-4.525-1.563-5.559,0.572c-1.398,2.883,2.913,5.422,4.317,2.524c-0.17,0.108-0.34,0.216-0.51,0.324
				c-0.811-0.214-1.622-0.429-2.432-0.643c0.086,0.084,0.172,0.169,0.258,0.253c-0.214-0.811-0.429-1.622-0.643-2.432
				c-0.687,3.926,0.372,7.699,3.272,10.496c0.92,0.888,2.636,1.037,3.536,0c1.77-2.041,1.877-4.873-0.167-6.793
				c-2.033-1.91-5.408,0.526-3.926,3.03c0.974,1.645,0.857,3.182-0.188,4.755c1.523,0.199,3.046,0.398,4.569,0.597
				c-0.108-0.696-0.216-1.391-0.323-2.087C172.998,61.675,168.179,63.022,168.668,66.175L168.668,66.175z"/>
		</g>
	</g>
	<g>
		<g>
			<path fill="#F5EB42" d="M166.571,66.6c-6.049,2.04-12.063,1.96-18.062-0.206c-3.032-1.095-4.338,3.735-1.329,4.821
				c6.753,2.438,13.921,2.499,20.72,0.206C170.933,70.399,169.632,65.568,166.571,66.6L166.571,66.6z"/>
		</g>
	</g>
	<g>
		<g>
			<path fill="#F5EB42" d="M162.502,68.328c-16.889,0-33.778,0-50.667,0c-3.217,0-3.223,5,0,5c16.889,0,33.778,0,50.667,0
				C165.719,73.328,165.724,68.328,162.502,68.328L162.502,68.328z"/>
		</g>
	</g>
	<g>
		<g>
			<path fill="#F5EB42" d="M123.861,69.43c5.019-0.728,10.039-1.456,15.058-2.185c3.014-0.437,1.885-4.63-0.665-4.911
				c-3.873-0.426-7.69-1.06-11.5-1.873c-0.222,1.637-0.443,3.274-0.665,4.911c3.456-0.28,5.962,1.347,7.293,4.479
				c0.72-1.254,1.439-2.508,2.159-3.762c-0.989-2.684-0.978-2.644,0.033,0.119c0.225,0.954,0.407,1.916,0.545,2.886
				c1.025-1.025,2.05-2.05,3.075-3.075c-1.681-0.628-3.054-1.587-4.069-3.09c-0.678-1.005-0.827-3.108-2.253-2.774
				c1.772-0.416,5.942,5.209,6.966,6.51c0.169-1.309,0.337-2.618,0.506-3.926c-1.555,0.892-4.158-11.861-4.226-12.702
				c-1.423,0.589-2.845,1.179-4.268,1.768c3.522,4.143,6.005,8.765,7.586,13.96c1.523-0.642,3.046-1.284,4.569-1.926
				c-2.18-4.536-3.32-9.084-3.579-14.112c-1.423,0.589-2.845,1.179-4.268,1.768c4.083,4.803,7.821,9.832,11.261,15.113
				c1.309-1.01,2.618-2.02,3.926-3.03c-4.026-4.768-6.51-10.204-7.695-16.317c-1.393,0.811-2.786,1.622-4.178,2.432
				c5.105,6.25,9.353,13.02,12.863,20.282c1.245,2.575,5.342,0.759,4.569-1.926c-2.986-10.381-5.972-20.761-8.958-31.142
				c-1.393,0.811-2.786,1.622-4.178,2.432c6.187,7.828,9.826,17.116,13.35,26.352c1.523-0.642,3.046-1.284,4.569-1.926
				c-5.159-9.713-9.331-19.822-12.533-30.343c-1.523,0.642-3.046,1.284-4.569,1.926c3.174,4.33,6.011,8.863,8.396,13.678
				c1.281,2.587,2.434,5.233,3.436,7.941c0.451,1.218,2.997,6.411,2.498,7.31c0.72-0.413,1.439-0.825,2.159-1.238
				c-0.137-0.012-0.275-0.024-0.412-0.036c0,1.667,0,3.333,0,5c1.237-0.156,2.412,0.026,3.524,0.545c0-1.607,0-3.214,0-4.821
				c-1.394,0.519-3.356,0.566-4.579,1.181c-1.078-0.332-1.526-0.107-1.345,0.675c0.086,1.235-0.223,0.749-0.927-1.457
				c-3.118-0.803-4.448,4.019-1.329,4.821c3.174,0.817,7.751,0.587,8.306-3.594c0.544-4.095-3.85-5.279-6.98-4.239
				c-2.666,0.886-5.383,3.311-4.02,6.371c1.95,4.378,9.041,2.24,12.204,1.062c2.311-0.86,2.425-3.999,0-4.821
				c-1.665-0.564-3.11-0.769-4.853-0.723c-3.26,0.086-3.169,4.724,0,5c0.137,0.012,0.275,0.024,0.412,0.036
				c0.841,0.073,1.763-0.524,2.159-1.238c2.229-4.023-1.897-11.138-3.482-14.909c-2.855-6.793-6.493-13.126-10.848-19.066
				c-1.566-2.136-5.456-0.987-4.569,1.926c3.325,10.928,7.678,21.45,13.037,31.537c1.302,2.451,5.593,0.757,4.569-1.926
				c-3.854-10.101-7.875-20.005-14.636-28.558c-1.602-2.027-4.826,0.183-4.178,2.432c2.986,10.381,5.972,20.761,8.958,31.142
				c1.523-0.642,3.046-1.284,4.569-1.926c-3.705-7.666-8.262-14.704-13.645-21.294c-1.723-2.11-4.604,0.237-4.178,2.432
				c1.358,7.003,4.385,13.082,8.981,18.523c1.828,2.164,5.47-0.66,3.926-3.03c-3.672-5.637-7.686-11-12.043-16.125
				c-1.393-1.638-4.375-0.324-4.268,1.768c0.304,5.895,1.705,11.315,4.262,16.636c1.232,2.563,5.387,0.76,4.569-1.926
				c-1.84-6.044-4.783-11.356-8.872-16.167c-1.364-1.605-4.438-0.345-4.268,1.768c0.391,4.851,3.532,21.733,11.749,17.019
				c1.529-0.877,1.476-2.694,0.506-3.926c-2.117-2.689-11.745-13.096-14.439-5.607c-2.074,5.766,4.231,11.563,8.93,13.319
				c1.97,0.736,3.354-1.393,3.075-3.075c-0.554-3.348-1.421-7.057-4.433-9.083c-2.465-1.658-5.981-1.895-8.279,0.178
				c-2.088,1.884-2.369,4.997-1.222,7.472c1.568,3.386,5.132,4.394,8.534,4.757c2.114,0.226,2.806-2.238,2.159-3.762
				c-2-4.707-6.534-7.367-11.61-6.956c-2.632,0.214-3.604,4.283-0.665,4.911c4.248,0.907,8.513,1.577,12.829,2.051
				c-0.222-1.637-0.443-3.274-0.665-4.911c-5.019,0.728-10.039,1.456-15.058,2.185C119.359,65.069,120.708,69.887,123.861,69.43
				L123.861,69.43z"/>
		</g>
	</g>
	<g>
		<g>
			<path fill="#F5EB42" d="M148.489,62.369c-2.889,0.82-5.706,1.232-8.71,1.261c0.804,1.055,1.607,2.11,2.411,3.165
				c0.663-1.649,1.891-2.434,3.54-2.839c-0.941-0.383-1.882-0.766-2.823-1.149c-0.174,0.2-0.348,0.399-0.521,0.599
				c0.13,1.01,0.261,2.02,0.391,3.03c0.649-1.07,1.333-1.872,2.37-2.603c-1.14-0.299-2.28-0.598-3.42-0.897
				c0.727,0.692,0.722,1.446-0.017,2.261c1.393,0.368,2.786,0.735,4.178,1.103c-1.572-5.846-3.144-11.693-4.716-17.539
				c-0.835-3.104-5.659-1.787-4.821,1.329c1.572,5.846,3.144,11.693,4.716,17.539c0.481,1.79,2.875,2.466,4.178,1.103
				c2.231-2.332,2.69-5.611,0.799-8.32c-0.722-1.034-2.245-1.726-3.42-0.897c-1.75,1.234-3.05,2.56-4.164,4.397
				c-0.595,0.98-0.354,2.217,0.391,3.03c4.605,5.023,12.422-1.067,8.374-6.658c-0.675-0.933-1.664-1.433-2.823-1.149
				c-3.458,0.849-5.724,3.081-7.032,6.331c-0.616,1.531,0.934,3.179,2.411,3.165c3.421-0.033,6.748-0.506,10.039-1.439
				C152.909,66.314,151.596,61.488,148.489,62.369L148.489,62.369z"/>
		</g>
	</g>
	<g>
		<g>
			<path fill="#F5EB42" d="M145.692,56.83c0.489-6.155,0.977-12.311,1.466-18.466c-1.667,0-3.333,0-5,0
				c-0.143,2.558-0.682,4.709-1.798,7.019c1.523,0.642,3.046,1.284,4.569,1.926c0.699-2.846,1.88-5.238,3.659-7.564
				c-1.553-0.421-3.106-0.841-4.659-1.262c0.034,3.234-0.385,6.264-1.29,9.369c1.637,0.222,3.274,0.443,4.911,0.665
				c0.15-3.017-0.435-5.484-1.718-8.201c-0.715-1.515-2.844-1.52-3.926-0.506c-6.043,5.661-12.086,11.322-18.129,16.984
				c-2.353,2.205,1.188,5.735,3.536,3.536c6.043-5.661,12.086-11.322,18.129-16.984c-1.309-0.169-2.618-0.337-3.926-0.506
				c0.905,1.916,1.138,3.604,1.035,5.677c-0.142,2.869,4.136,3.321,4.911,0.665c1.027-3.522,1.507-7.031,1.469-10.698
				c-0.028-2.689-3.235-3.123-4.659-1.262c-2.034,2.659-3.365,5.511-4.163,8.758c-0.649,2.641,3.292,4.573,4.569,1.926
				c1.486-3.079,2.289-6.127,2.48-9.543c0.181-3.232-4.748-3.178-5,0c-0.489,6.155-0.977,12.311-1.466,18.466
				C140.437,60.038,145.439,60.021,145.692,56.83L145.692,56.83z"/>
		</g>
	</g>
	<g>
		<g>
			<path fill="#F5EB42" d="M108.363,66.944c-0.584-0.55,0.187,0.284-0.288-0.348c0.166,0.221-0.05-0.381-0.032-0.053
				c-0.004-0.072-0.021-0.812,0.004-0.429c-0.012-0.177,0.178-0.358-0.02-0.105c-1.423-0.589-2.845-1.179-4.268-1.768
				c0.138,2.35,0.433,4.982,2.259,6.686c1.73,1.615,4.428,2.24,6.499,0.88c2.679-1.759,0.177-6.09-2.524-4.317
				c-0.563,0.369-0.062,0.113-0.016,0.08c0.12-0.086,0.048,0.118-0.161-0.032c-0.044-0.032-0.321-0.17-0.436-0.331
				c-0.58-0.81-0.566-2.016-0.622-2.967c-0.059-1.001-0.577-1.899-1.537-2.285c-0.841-0.338-2.115-0.268-2.731,0.517
				c-1.886,2.402-1.999,5.809,0.335,8.007C107.169,72.685,110.711,69.156,108.363,66.944L108.363,66.944z"/>
		</g>
	</g>
	<g>
		<g>
			<path fill="#F5EB42" d="M110.514,67.571c-0.516-0.468-2.35-1.904-1.64-2.528c1.015-0.891,0.911-2.624,0-3.536
				c-1.008-1.008-2.518-0.894-3.536,0c-1.429,1.255-1.89,3.275-1.477,5.093c0.421,1.855,1.753,3.269,3.117,4.506
				C109.357,73.265,112.904,69.739,110.514,67.571L110.514,67.571z"/>
		</g>
	</g>
	<g>
		<g>
			<path fill="#F5EB42" d="M107.01,65.566c-0.488,0.689-0.975,1.378-1.463,2.067c-0.607,0.858-0.376,2.336,0.391,3.03
				c0.653,0.59,1.306,1.181,1.959,1.771c0.169-1.309,0.337-2.618,0.506-3.926c1.575-0.814,1.257-0.896,1.981-2.473
				c0.391-0.851,0.817-1.689,1.268-2.51c0.952-1.728,2.039-3.387,3.253-4.943c1.956-2.508-1.558-6.071-3.536-3.536
				c-2.753,3.53-5.893,7.886-6.795,12.372c-0.778,3.868,2.576,7.358,6.353,5.406c1.388-0.717,1.663-2.881,0.506-3.926
				c-0.653-0.59-1.306-1.181-1.959-1.771c0.13,1.01,0.261,2.02,0.391,3.03c0.488-0.689,0.975-1.378,1.463-2.067
				C113.19,65.458,108.856,62.957,107.01,65.566L107.01,65.566z"/>
		</g>
	</g>
	<g>
		<g>
			<path fill="#F5EB42" d="M128.502,43.328c3.217,0,3.223-5,0-5C125.285,38.328,125.279,43.328,128.502,43.328L128.502,43.328z"/>
		</g>
	</g>
	<g>
		<g>
			<path fill="#F5EB42" d="M127.997,38.758c2.466-4.432,4.933-8.865,7.399-13.297c1.566-2.814-2.751-5.339-4.317-2.524
				c-2.466,4.432-4.933,8.865-7.399,13.297C122.114,39.049,126.431,41.573,127.997,38.758L127.997,38.758z"/>
		</g>
	</g>
	<g>
		<g>
			<path fill="#F5EB42" d="M125.327,36.089c1.111-1.778,2.222-3.556,3.333-5.333c1.71-2.736-2.614-5.249-4.317-2.524
				c-1.111,1.778-2.222,3.556-3.333,5.333C119.3,36.302,123.624,38.815,125.327,36.089L125.327,36.089z"/>
		</g>
	</g>
	<g>
		<g>
			<path fill="#F5EB42" d="M135.169,22.661c3.217,0,3.223-5,0-5C131.951,17.661,131.946,22.661,135.169,22.661L135.169,22.661z"/>
		</g>
	</g>
	<g>
		<g>
			<path fill="#F5EB42" d="M137.677,25.423c2,4,4,8,6,12c1.439,2.878,5.754,0.349,4.317-2.524c-2-4-4-8-6-12
				C140.555,20.021,136.24,22.55,137.677,25.423L137.677,25.423z"/>
		</g>
	</g>
	<g>
		<g>
			<path fill="#F5EB42" d="M145.827,70.068c4.903,0.543,9.805,1.086,14.708,1.629c3.193,0.354,3.168-4.649,0-5
				c-4.903-0.543-9.805-1.086-14.708-1.629C142.634,64.714,142.659,69.717,145.827,70.068L145.827,70.068z"/>
		</g>
	</g>
	<g>
		<g>
			<path fill="#F5EB42" d="M143.837,74.572c2,0.444,4,0.889,6,1.333c3.135,0.697,4.474-4.123,1.329-4.821c-2-0.444-4-0.889-6-1.333
				C142.031,69.054,140.692,73.873,143.837,74.572L143.837,74.572z"/>
		</g>
	</g>
	<g>
		<g>
			<path fill="#6B6B6B" d="M130.669,82.161c0,2.667,0,5.333,0,8c0,3.217,5,3.223,5,0c0-2.667,0-5.333,0-8
				C135.669,78.944,130.669,78.938,130.669,82.161L130.669,82.161z"/>
		</g>
	</g>
	<g>
		<g>
			<path fill="#6B6B6B" d="M134.346,82.003c1.266-1.091,2.653-1.48,4.16-1.165c-0.589-1.423-1.179-2.845-1.768-4.268
				c-0.41,0.131-0.82,0.261-1.23,0.392c-2.808-0.219-3.401,4.294-0.665,4.911c2.017,0.455,4.034,0.909,6.051,1.364
				c0.222-1.637,0.443-3.274,0.665-4.911c-2.978-0.396-6.576-0.4-8.714,2.087c-2.485,2.891-1.668,8.128-1.799,11.603
				c1.637-0.222,3.274-0.443,4.911-0.665c-0.457-3.387,0.346-6.343,2.104-9.203c-1.439,0-2.878,0-4.317,0
				c0.982,1.787,1.145,3.21,0.91,5.179c1.637-0.222,3.274-0.443,4.911-0.665c0.02-0.995,0.04-1.99,0.06-2.984
				c-1.523-0.199-3.046-0.398-4.569-0.597c0.422,2.499,0.844,4.998,1.266,7.496c1.607-0.443,3.214-0.886,4.821-1.329
				c-0.548-3.113-0.173-5.752,0.906-8.661c-1.607,0-3.214,0-4.821,0c0.479,1.913,0.958,3.825,1.437,5.738
				c0.665,2.657,5.263,2.187,4.911-0.665c-0.235-1.9-0.081-3.249,0.881-4.968c-1.523-0.199-3.046-0.398-4.569-0.597
				c0.744,2.682,0.974,5.177,0.789,7.939c1.667,0,3.333,0,5,0c-0.189-2.594-0.048-5.004,0.531-7.552
				c-1.637-0.222-3.274-0.443-4.911-0.665c0.019,3.124,0.038,6.247,0.056,9.371c0.007,1.244,0.088,2.519,0.002,3.76
				c-0.051,0.588-0.102,1.176-0.154,1.765c-0.157,2.384-1.318,2.42-3.481,0.108c1.272-2.884-2.87-5.451-4.317-2.524
				c-0.533,1.077-1.065,2.155-1.598,3.232c0.941-0.383,1.882-0.766,2.823-1.149c0.242,0.684,0.484,1.368,0.726,2.051
				c-1.309-1.01-2.618-2.02-3.926-3.03c-5.068,7.891,6.441,14.231,11.899,7.188c0.703-0.908,0.987-1.97,0.391-3.03
				c-0.895-1.592-1.557-3.163-2.071-4.916c-1.523,0.642-3.046,1.284-4.569,1.926c0.905,1.271,1.186,2.622,0.845,4.054
				c1.553-0.421,3.106-0.841,4.659-1.262c-0.156-0.74-0.313-1.48-0.469-2.22c-1.393,0.368-2.786,0.735-4.178,1.103
				c1.554,1.629,1.952,3.409,1.664,5.584c-0.248,1.876,2.308,3.127,3.762,2.159c-0.322,0.045-0.645,0.091-0.967,0.136
				c-0.582-0.582-1.164-1.164-1.746-1.746c0.062,0.159,0.124,0.319,0.186,0.478c1.152,2.967,5.989,1.677,4.821-1.329
				c-0.799-2.058-2.779-3.214-4.817-1.856c1.254,0.72,2.508,1.439,3.762,2.159c0.471-3.56-0.676-6.547-3.129-9.119
				c-1.31-1.374-3.684-0.676-4.178,1.103c-0.634,2.279-0.403,4.127,0.973,6.073c1.474,2.083,4.417,1.252,4.659-1.262
				c0.24-2.487-0.259-4.437-1.528-6.577c-1.426-2.405-5.38-0.838-4.569,1.926c0.638,2.176,1.465,4.136,2.575,6.11
				c0.13-1.01,0.261-2.02,0.391-3.03c-0.958,1.917-2.307,1.541-4.046-1.129c1.602-2.495-1.879-4.829-3.926-3.03
				c-2.423,2.13-1.227,5.255,1.48,6.306c0.96,0.373,2.372-0.236,2.823-1.149c0.533-1.077,1.065-2.155,1.598-3.232
				c-1.439-0.841-2.878-1.682-4.317-2.524c-2.401,5.445,1.873,12.108,8.202,9.578c7.339-2.934,4.727-16.174,4.691-22.058
				c-0.017-2.756-4.272-3.476-4.911-0.665c-0.679,2.987-0.934,5.813-0.71,8.881c0.234,3.208,4.784,3.225,5,0
				c0.216-3.219-0.106-6.16-0.968-9.268c-0.566-2.041-3.51-2.49-4.569-0.597c-1.359,2.429-1.906,4.714-1.563,7.492
				c1.637-0.222,3.274-0.443,4.911-0.665c-0.479-1.913-0.958-3.825-1.437-5.738c-0.642-2.562-4.014-2.177-4.821,0
				c-1.412,3.807-1.605,7.348-0.906,11.32c0.558,3.17,5.353,1.817,4.821-1.329c-0.422-2.499-0.844-4.998-1.266-7.496
				c-0.351-2.077-3.672-2.468-4.569-0.597c-1.14,2.378-1.403,4.305-0.564,6.837c0.931,2.81,4.584,2.074,4.911-0.665
				c0.341-2.856-0.215-5.197-1.593-7.703c-0.926-1.685-3.36-1.556-4.317,0c-2.528,4.11-3.248,8.313-2.609,13.056
				c0.39,2.889,4.809,2.025,4.911-0.665c0.076-2.008-0.34-4.912,0.257-6.819c0.882-2.818,2.945-2.178,5.256-1.87
				c2.796,0.372,3.385-4.298,0.665-4.911c-2.017-0.455-4.034-0.909-6.051-1.364c-0.222,1.637-0.443,3.274-0.665,4.911
				c2.029,0.158,3.354-0.416,4.766-1.856c1.598-1.629,0.343-4.111-1.768-4.268c-3.069-0.228-5.366,0.692-7.695,2.63
				C128.334,80.527,131.888,84.047,134.346,82.003L134.346,82.003z"/>
		</g>
	</g>
	<g>
		<g>
			<path fill="#6B6B6B" d="M139.335,92.161c0,0.889,0,1.778,0,2.667c0,1.308,1.15,2.56,2.5,2.5c1.355-0.061,2.5-1.098,2.5-2.5
				c0-0.889,0-1.778,0-2.667c0-1.308-1.15-2.56-2.5-2.5C140.481,89.722,139.335,90.759,139.335,92.161L139.335,92.161z"/>
		</g>
	</g>
	<g>
		<g>
			<path fill="#6B6B6B" d="M141.835,91.994c3.217,0,3.223-5,0-5C138.618,86.994,138.613,91.994,141.835,91.994L141.835,91.994z"/>
		</g>
	</g>
	<g>
		<g>
			<path fill="#6B6B6B" d="M136.734,87.727c-0.667,0.667-1.333,1.333-2,2c-0.926,0.926-0.995,2.622,0,3.536
				c0.998,0.916,2.547,0.988,3.536,0c0.667-0.667,1.333-1.333,2-2c0.926-0.926,0.995-2.622,0-3.536
				C139.272,86.81,137.722,86.738,136.734,87.727L136.734,87.727z"/>
		</g>
	</g>
	<g>
		<g>
			<path fill="#6B6B6B" d="M135.835,94.661c3.217,0,3.223-5,0-5C132.618,89.661,132.613,94.661,135.835,94.661L135.835,94.661z"/>
		</g>
	</g>
	<g>
		<g>
			<path fill="#6B6B6B" d="M130.73,92.825c-0.381,2.386-0.763,4.772-1.144,7.158c-0.506,3.166,3.68,4.377,4.821,1.329
				c0.221-0.592,0.443-1.183,0.664-1.775c0.473-1.265-0.527-2.74-1.746-3.075c-1.401-0.385-2.6,0.477-3.075,1.746
				c-0.221,0.592-0.443,1.183-0.664,1.775c1.607,0.443,3.214,0.886,4.821,1.329c0.381-2.386,0.763-4.772,1.144-7.158
				c0.213-1.332-0.343-2.69-1.746-3.075C132.615,90.752,130.944,91.484,130.73,92.825L130.73,92.825z"/>
		</g>
	</g>
	<g>
		<g>
			<path fill="#6B6B6B" d="M133.169,102.661c3.217,0,3.223-5,0-5C129.951,97.661,129.946,102.661,133.169,102.661L133.169,102.661z"
				/>
		</g>
	</g>
	<g>
		<g>
			<path fill="#6B6B6B" d="M139.669,86.161c0-0.444,0-0.889,0-1.333c0-1.308-1.15-2.56-2.5-2.5c-1.355,0.061-2.5,1.098-2.5,2.5
				c0,0.444,0,0.889,0,1.333c0,1.308,1.15,2.56,2.5,2.5C138.523,88.6,139.669,87.563,139.669,86.161L139.669,86.161z"/>
		</g>
	</g>
	<g>
		<g>
			<path fill="#6B6B6B" d="M135.335,94.828c0,0.889,0,1.778,0,2.667c0,1.308,1.15,2.56,2.5,2.5c1.355-0.061,2.5-1.098,2.5-2.5
				c0-0.889,0-1.778,0-2.667c0-1.308-1.15-2.56-2.5-2.5C136.481,92.388,135.335,93.426,135.335,94.828L135.335,94.828z"/>
		</g>
	</g>
	<g>
		<g>
			<path fill="#6B6B6B" d="M136.42,165.631c0.808-0.352,1.929-0.486,2.746-0.365c1.334,0.199,2.687-0.334,3.075-1.746
				c0.324-1.179-0.403-2.875-1.746-3.075c-2.345-0.35-4.424-0.078-6.599,0.869c-1.238,0.539-1.521,2.353-0.897,3.42
				C133.747,166.012,135.177,166.172,136.42,165.631L136.42,165.631z"/>
		</g>
	</g>
	<g>
		<g>
			<path fill="#6B6B6B" d="M135.155,165.33c1.332,0.229,2.664,0.458,3.996,0.687c1.284,0.221,2.755-0.341,3.075-1.746
				c0.276-1.213-0.368-2.838-1.746-3.075c-1.332-0.229-2.664-0.458-3.996-0.687c-1.284-0.221-2.755,0.341-3.075,1.746
				C133.132,163.468,133.777,165.093,135.155,165.33L135.155,165.33z"/>
		</g>
	</g>
	<g>
		<g>
			<path fill="#6B6B6B" d="M135.833,165.905c0.667-0.222,1.333-0.444,2-0.667c1.238-0.413,2.177-1.743,1.746-3.075
				c-0.399-1.233-1.747-2.189-3.075-1.746c-0.667,0.222-1.333,0.444-2,0.667c-1.238,0.413-2.177,1.743-1.746,3.075
				C133.157,165.392,134.505,166.348,135.833,165.905L135.833,165.905z"/>
		</g>
	</g>
	<g>
		<g>
			<path fill="#6B6B6B" d="M130.502,164.661c0.222,0,0.444,0,0.667,0c1.308,0,2.56-1.15,2.5-2.5c-0.061-1.355-1.098-2.5-2.5-2.5
				c-0.222,0-0.444,0-0.667,0c-1.308,0-2.56,1.15-2.5,2.5C128.063,163.516,129.1,164.661,130.502,164.661L130.502,164.661z"/>
		</g>
	</g>
	<g>
		<g>
			<path fill="#6B6B6B" d="M132.502,158.328c-0.222,0-0.444,0-0.667,0c-1.308,0-2.56,1.15-2.5,2.5c0.061,1.355,1.098,2.5,2.5,2.5
				c0.222,0,0.444,0,0.667,0c1.308,0,2.56-1.15,2.5-2.5C134.941,159.473,133.903,158.328,132.502,158.328L132.502,158.328z"/>
		</g>
	</g>
</g>
<g id="レイヤー_1">
	
		<rect x="132.912" y="156.606" transform="matrix(-1.836970e-16 1 -1 -1.836970e-16 299.343 26.556)" fill="none" stroke="#000000" stroke-width="5" stroke-linejoin="bevel" stroke-miterlimit="10" width="6.963" height="12.686"/>
	<path fill="none" stroke="#000000" stroke-width="5" stroke-linejoin="bevel" stroke-miterlimit="10" d="M124.163,123.462
		c0,0-9-0.016-8.984-9.016s9.016-8.984,9.016-8.984l25.087,0.032c0,0,9,0.016,8.984,9.016s-9.016,8.984-9.016,8.984L124.163,123.462
		z"/>
	<path fill="none" stroke="#000000" stroke-width="5" stroke-linejoin="bevel" stroke-miterlimit="10" d="M124.131,141.462
		c0,0-9-0.016-8.984-9.016c0.016-9,9.016-8.984,9.016-8.984l25.087,0.032c0,0,9,0.016,8.984,9.016s-9.016,8.984-9.016,8.984
		L124.131,141.462z"/>
	<path fill="none" stroke="#000000" stroke-width="5" stroke-linejoin="bevel" stroke-miterlimit="10" d="M131.185,159.462
		c0,0-9-0.016-8.984-9.016c0.016-9,9.016-8.984,9.016-8.984l13.535,0.016c0,0,9,0.016,8.984,9.016c-0.016,9-9.016,8.984-9.016,8.984
		L131.185,159.462z"/>
	<path fill="none" stroke="#000000" stroke-width="5" stroke-linejoin="bevel" stroke-miterlimit="10" d="M94.223,142.543
		c0,0,18,0.032,18.032-17.968c0.016-9,0.016-9,0.016-9"/>
	<path fill="none" stroke="#000000" stroke-width="5" stroke-linejoin="bevel" stroke-miterlimit="10" d="M18.783,143.654
		l23.811,0.043l45,0.081c-0.032,18,17.968,18.032,17.968,18.032l9,0.016l4.323,0.016h8.803"/>
	<path fill="none" stroke="#000000" stroke-width="5" stroke-linejoin="bevel" stroke-miterlimit="10" d="M112.271,115.714
		l0.019-10.559c0,0,8.923,0.229,8.939-8.771s0.016-9,0.016-9s0.016-9-8.984-9.016c-9-0.016-9.016,8.984-9.016,8.984
		s-0.016,9-9.016,8.984s-9.016,8.984-9.016,8.984l-9-0.016l-27-0.048l-37.873-0.068"/>
	
		<rect x="128.757" y="75.925" fill="none" stroke="#000000" stroke-width="5" stroke-linejoin="bevel" stroke-miterlimit="10" width="18.467" height="29.256"/>
	<path fill="none" stroke="#000000" stroke-width="5" stroke-linejoin="bevel" stroke-miterlimit="10" d="M130.11,13.81
		l-27.981,48.465c-3.503,6.067,0.876,13.65,7.881,13.65h55.962c7.005,0,11.384-7.584,7.881-13.65L145.872,13.81
		C142.369,7.743,133.612,7.743,130.11,13.81z"/>
	<circle stroke="#000000" stroke-width="5" stroke-linejoin="bevel" stroke-miterlimit="10" cx="137.991" cy="63.74" r="3.871"/>
	<path stroke="#000000" stroke-width="5" stroke-linejoin="bevel" stroke-miterlimit="10" d="M137.991,26.389
		c-2.138,0-3.871,1.733-3.871,3.871v16.675c0,2.138,1.733,3.871,3.871,3.871c2.138,0,3.871-1.733,3.871-3.871V30.26
		C141.862,28.122,140.129,26.389,137.991,26.389z"/>
</g>
</svg>
