<?xml version="1.0" encoding="utf-8"?>
<!-- Generator: Adobe Illustrator 22.1.0, SVG Export Plug-In . SVG Version: 6.00 Build 0)  -->
<svg version="1.1" xmlns="http://www.w3.org/2000/svg" xmlns:xlink="http://www.w3.org/1999/xlink" x="0px" y="0px"
	 viewBox="0 0 198.425 141.732" enable-background="new 0 0 198.425 141.732" xml:space="preserve">
<g id="レイヤー_2">
	<g>
		<g>
			<path fill="#F8C8AE" d="M26.829,71.254c0,8.063,0,16.127,0,24.19c0,2.413,3.75,2.417,3.75,0c0-8.063,0-16.127,0-24.19
				C30.579,68.841,26.829,68.837,26.829,71.254L26.829,71.254z"/>
		</g>
	</g>
	<g>
		<g>
			<path fill="#F8C8AE" d="M27.378,72.58c1.71,1.71,3.421,3.421,5.131,5.131c1.709,1.709,4.361-0.942,2.652-2.652
				c-1.71-1.71-3.421-3.421-5.131-5.131C28.321,68.219,25.669,70.87,27.378,72.58L27.378,72.58z"/>
		</g>
	</g>
	<g>
		<g>
			<path fill="#F8C8AE" d="M25.363,69.788c0,10.751,0,21.502,0,32.253c0,2.413,3.75,2.417,3.75,0c0-10.751,0-21.502,0-32.253
				C29.113,67.375,25.363,67.371,25.363,69.788L25.363,69.788z"/>
		</g>
	</g>
	<g>
		<g>
			<path fill="#F8C8AE" d="M27.801,76.385c0,0.977,0,1.955,0,2.932c0,1.923,0.837,3.943,2.197,5.303
				c1.301,1.301,3.435,2.28,5.303,2.197c1.94-0.087,3.951-0.724,5.303-2.197c1.347-1.467,2.197-3.271,2.197-5.303
				c0-0.977,0-1.955,0-2.932c0-1.923-0.837-3.943-2.197-5.303c-1.301-1.301-3.435-2.28-5.303-2.197
				c-1.94,0.087-3.951,0.724-5.303,2.197C28.651,72.549,27.801,74.353,27.801,76.385L27.801,76.385z"/>
		</g>
	</g>
	<g>
		<g>
			<path fill="#F8C8AE" d="M29.998,81.688c0.977,0.977,1.955,1.955,2.932,2.932c1.36,1.36,3.38,2.197,5.303,2.197
				c1.84,0,4.037-0.817,5.303-2.197c1.312-1.429,2.286-3.306,2.197-5.303c-0.089-1.989-0.761-3.868-2.197-5.303
				c-0.977-0.977-1.955-1.955-2.932-2.932c-1.36-1.36-3.38-2.197-5.303-2.197c-1.84,0-4.037,0.817-5.303,2.197
				c-1.312,1.429-2.286,3.306-2.197,5.303C27.891,78.374,28.563,80.253,29.998,81.688L29.998,81.688z"/>
		</g>
	</g>
	<g>
		<g>
			<path fill="#F8C8AE" d="M41.166,83.885c20.036,0,40.072,0,60.108,0c9.652,0,9.668-15,0-15c-20.036,0-40.072,0-60.108,0
				C31.514,68.885,31.498,83.885,41.166,83.885L41.166,83.885z"/>
		</g>
	</g>
	<g>
		<g>
			<path fill="#F8C8AE" d="M112.904,74.87c-0.067,1.442,0.327,0.358,1.383,0.082c1.26-0.33,2.626-0.989,3.801-1.567
				c2.496-1.228,4.542-2.778,6.212-5.006c1.479-1.974,2.414-4.183,3.079-6.56c0.351-1.256,0.512-2.568,0.884-3.816
				c0.245-0.824,1.24-2.136,0.124-1.731c-3.075-3.075-6.151-6.151-9.226-9.226c-0.979,4.365-1.304,10.01-3.171,14.063
				c-1.606,3.488-5.137,5.436-6.081,9.625c-1.004,4.457,0.534,8.536,0.399,12.953c-0.057,1.85-0.451,3.545-1.324,5.193
				c-0.414,0.834-0.94,1.587-1.579,2.26c-1.376,1.312-0.179,1.902,3.594,1.77c0.341,1.262,0.683,2.524,1.024,3.785
				c0.029-3.828,4.327-9.016,6.405-12.027c-4.569-0.597-9.139-1.194-13.708-1.792c1.117,2.835-3.604,2.995-6.14,2.667
				c-5.44-0.703-10.697-2.525-16.167-3.239c-10.93-1.426-21.927-0.552-32.561,2.321c2.432,4.178,4.865,8.357,7.297,12.535
				c6.586-5.397,15.942-7.538,24.216-5.554c4.77,1.144,9.019,3.666,14.02,3.869c5.458,0.222,9.938-1.92,14.145-5.176
				c6.214-4.809-0.62-14.325-7.297-12.535c-3.635,0.974-7.672,0.273-11.403,0.211c-3.841-0.064-7.681,0.002-11.518,0.165
				c-8.008,0.339-15.991,1.102-23.954,2c-6.45,0.727-14.762,0.446-20.573,3.659c-6.148,3.399-8.56,10.83-5.085,16.992
				c4.742,8.409,17.705,0.857,12.952-7.571c-0.277,1.259-0.554,2.519-0.831,3.778c0.443-0.117,0.886-0.233,1.328-0.35
				c0.967,0.167,2.609-0.377,3.608-0.498c2.866-0.345,5.733-0.688,8.602-1.011c5.736-0.645,11.481-1.225,17.24-1.623
				c5.429-0.375,10.87-0.593,16.312-0.562c5.808,0.033,11.625,0.798,17.311-0.726c-2.432-4.178-4.865-8.357-7.297-12.535
				c-3.212,2.486-8.243-0.982-11.411-1.965c-4.624-1.435-9.693-2.033-14.522-1.745c-9.937,0.592-18.788,4.295-26.448,10.571
				c-6.027,4.939,0.514,14.368,7.297,12.535c7.233-1.954,14.51-2.811,22.003-2.421c7.121,0.371,13.734,2.695,20.744,3.66
				c6.53,0.899,13.181-0.113,18.13-4.795c4.453-4.212,6.785-10.76,4.467-16.645c-2.407-6.111-9.862-7.365-13.708-1.792
				c-4.597,6.661-12.667,18.447-5.7,25.98c6.718,7.263,16.348,1.872,20.893-4.659c2.411-3.464,3.853-7.446,4.359-11.623
				c0.259-2.14,0.29-4.096,0.045-6.242c-0.175-1.537-1.237-4.799-0.614-6.34c0.25-0.62,2.972-2.665,3.535-3.513
				c1.138-1.715,1.878-3.634,2.462-5.604c1.356-4.574,2.126-9.408,3.171-14.063c1.154-5.144-3.529-11.294-9.226-9.226
				c-4.103,1.489-7.033,3.878-8.993,7.836c-1.373,2.773-1.206,7.788-3.139,9.953c-1.658,1.856-6.108,2.455-8.264,3.998
				c-3.895,2.787-5.881,6.529-6.1,11.277C97.459,84.521,112.46,84.498,112.904,74.87L112.904,74.87z"/>
		</g>
	</g>
	<g>
		<g>
			<path fill="#F8C8AE" d="M40.433,106.609c12.95,0,25.9,0,38.851,0c9.652,0,9.668-15,0-15c-12.95,0-25.9,0-38.851,0
				C30.781,91.609,30.765,106.609,40.433,106.609L40.433,106.609z"/>
		</g>
	</g>
	<g>
		<g>
			<path fill="#F8C8AE" d="M41.972,102.624c2.062-6.615,3.168-13.463,3.446-20.384c0.387-9.653-14.614-9.636-15,0
				c-0.226,5.634-1.232,11.014-2.91,16.397C24.628,107.873,39.104,111.825,41.972,102.624L41.972,102.624z"/>
		</g>
	</g>
	<g>
		<g>
			<path fill="#F8C8AE" d="M44.098,104.41c20.036,0,40.072,0,60.108,0c9.652,0,9.668-15,0-15c-20.036,0-40.072,0-60.108,0
				C34.446,89.41,34.43,104.41,44.098,104.41L44.098,104.41z"/>
		</g>
	</g>
	<g>
		<g>
			<path fill="#F8C8AE" d="M94.902,103.568c0.609,1.248,0.841,3.677,1.269,5.335c0.604,2.339,1.559,4.504,3.023,6.422
				c3.214,4.21,8.501,6.669,13.756,5.012c6.617-2.086,7.643-12.915,0-14.464c-1.923-0.39-2.233-0.339-3.695-2.069
				c-0.789-0.933,0.397,0.677-0.224-0.376c-0.077-0.131-0.674-1.318-0.489-0.856c-0.224-0.559-0.26-1.201-0.269-1.677
				c-5,0-10,0-15,0c0.285,6.79,2.375,13.474,8.04,17.655c4.924,3.634,12.342,4.384,17.471,0.707
				c3.288-2.356,4.87-6.535,2.691-10.261c-1.9-3.249-6.952-5.063-10.261-2.691c-0.719,0.411-0.853,0.538-0.402,0.381
				c0.338-0.096,0.29-0.085-0.143,0.033c-0.526,0.136-0.481,0.128,0.135-0.024c0.156,0.041,0.313,0.082,0.469,0.123
				c-0.174-0.065-1.869-0.63-1.306-0.371c0.512,0.235-0.869-1-0.132-0.202c-1.052-1.14-1.481-3.432-1.562-5.35
				c-0.17-4.048-3.325-7.5-7.5-7.5c-4.004,0-7.579,3.432-7.5,7.5c0.177,9.1,6.594,17.599,15.689,19.442c0-4.821,0-9.643,0-14.464
				c0.729-0.23,1.588,0.679,2.252,0.5c0.287-0.077,0.174,0.476-0.313-0.276c0.41,0.633-0.134-0.325-0.182-0.47
				c0.259,0.786-0.142-0.963-0.19-1.168c-0.7-2.978-1.317-5.679-2.676-8.462c-1.777-3.639-6.952-4.626-10.261-2.691
				C93.878,95.479,93.118,99.915,94.902,103.568L94.902,103.568z"/>
		</g>
	</g>
	<g>
		<g>
			<path fill="#F8C8AE" d="M114.402,107.134c-0.23-0.136-3.071-2.247-3.322-2.224c-0.705,0.065-1.3,2.115-0.632,1.802
				c-1.262,0.341-2.524,0.683-3.785,1.024c-2.549,0.335-2.521-3.097-1.793-0.071c0.303,1.261,1.011,2.767,1.645,3.896
				c1.392,2.479,3.611,4.455,6.291,5.422c6.714,2.421,12.714-1.1,17.223-5.95c-4.178-1.103-8.357-2.206-12.535-3.31
				c1.112,3.086,4.173,3.466,9.182,1.14c-0.341,1.262-0.683,2.524-1.024,3.785c0.602-1.204,1.321-3.083,2.274-4.078
				c-2.432,0.643-4.865,1.286-7.297,1.929c-2.04-1.586-2.225-1.578-0.554,0.023c0.752,0.794,1.505,1.588,2.257,2.381
				c3.642,3.842,11.54,2.294,12.535-3.31c0.328-1.848,0.169-1.587,2.008-1.88c-3.165-2.411-6.329-4.821-9.494-7.232
				c0.035,0.321,0.07,0.642,0.105,0.962c0.341-1.262,0.683-2.524,1.024-3.785c0.464-0.449,0.929-0.898,1.393-1.347
				c3.42,0.897,6.841,1.794,10.261,2.691c-0.652-1.517-2.205-3.708-3.911-4.188c-2.059-1.311-2.357,0.006-0.892,3.949
				c1.668-0.376,1.928-0.46,0.78-0.252c-1.494-1.149-2.988-2.298-4.482-3.447c0.177,0.268,0.354,0.536,0.531,0.805
				c-0.252-1.926-0.504-3.853-0.756-5.779c3.941-2.98,5.417-3.752,4.428-2.314c-0.057,0.067-0.076,0.147-0.058,0.242
				c-0.19,0.017-0.452,0.833,0.269,0.852c5.686,0.147,9.346-6.483,6.476-11.285c-0.56-0.937-1.12-1.874-1.68-2.812
				c-2.159,3.762-4.317,7.524-6.476,11.285c6.496-0.429,12.713,0.023,19.037,1.578c9.373,2.304,13.372-12.157,3.988-14.464
				c-7.554-1.857-15.26-2.627-23.024-2.114c-5.514,0.364-9.552,6.139-6.476,11.285c0.56,0.937,1.12,1.874,1.68,2.812
				c2.159-3.762,4.317-7.524,6.476-11.285c-9.687-0.25-17.612,9.085-14.535,18.614c3.02,9.352,17.242,14.427,23.134,4.79
				c2.766-4.524,1.284-10.577-3.647-12.848c-4.158-1.915-9.609-0.706-13.416,1.564c-4.352,2.594-6.784,7.313-6.263,12.342
				c0.247,2.383,1.195,4.745,2.861,6.505c0.674,0.712,1.573,1.446,2.4,1.956c0.51,0.259,1.026,0.505,1.55,0.736
				c1.075,0.54,0.76,0.222-0.944-0.956c1.626,3.779,7.072,4.464,10.261,2.691c3.189-1.774,5.317-5.033,4.907-8.782
				c-0.57-5.218-4.309-8.058-9.494-7.232c-6.261,0.997-11.38,6.134-12.485,12.357c4.178-1.103,8.357-2.206,12.535-3.31
				c-4.179-4.409-9.65-9.54-15.62-4.333c-4.161,3.629-7.28,11.005-4.828,16.214c2.481,5.27,9.276,7.102,14.347,4.435
				c5.419-2.85,6.668-9.437,5.119-14.878c-1.498-5.266-8.626-7.513-12.535-3.31c-1.416,1.523-2.488,1.553-1.042,2.874
				c1.896,1.732,0.741,0.039,0.578-0.725c-0.463-2.181-1.821-4.637-3.325-6.284c-3.816-4.178-9.861-4.697-14.448-1.508
				c-4.084,2.84-6.26,8.439-5.03,13.289c1.433,5.652,5.874,9.171,10.676,12.014C115.158,125.014,122.712,112.052,114.402,107.134
				L114.402,107.134z"/>
		</g>
	</g>
	<g>
		<g>
			<path fill="#F8C8AE" d="M151.298,89.57c-3.895,0.795-7.79,0.779-11.732,0.322c1.262,4.659,2.524,9.317,3.785,13.976
				c2.865-1.271,5.977-1.247,9.018-0.867c-0.665-4.911-1.329-9.821-1.994-14.732c-5.299,0.747-10.597,1.493-15.896,2.24
				c-4.015,0.566-6.212,5.681-5.238,9.226c1.187,4.319,5.199,5.806,9.226,5.238c5.299-0.747,10.597-1.493,15.896-2.24
				c3.639-0.513,5.864-4.959,5.372-8.229c-0.599-3.98-3.548-6.027-7.366-6.503c-5.837-0.728-11.279,0.56-16.589,2.915
				c-2.983,1.323-4.253,5.534-3.447,8.47c0.942,3.428,3.91,5.121,7.232,5.506c5.295,0.614,10.503,0.207,15.72-0.857
				c3.971-0.81,6.26-5.51,5.238-9.226C159.389,90.68,155.28,88.758,151.298,89.57L151.298,89.57z"/>
		</g>
	</g>
	<g>
		<g>
			<path fill="#F8C8AE" d="M131.85,112.527c1.922,1.493,2.838,2.501,3.923,4.562c0.897-3.42,1.794-6.841,2.691-10.261
				c-0.55,0.424-1.096,0.852-1.728,1.152c-0.727,0.345,0.566,0.094-0.939,0.232c0.547-0.05-1.061-0.111-0.729,0.029
				c0,4.317,0,8.635,0,12.952c2.864-1.244,5.939-0.746,8.777,0.265c-0.597-4.569-1.194-9.139-1.792-13.708
				c-0.68,0.342-1.361,0.685-2.041,1.027c-3.617,1.82-4.644,6.922-2.691,10.261c2.153,3.681,6.63,4.518,10.261,2.691
				c0.68-0.342,1.361-0.685,2.041-1.027c6.206-3.123,3.833-11.704-1.792-13.708c-6.839-2.437-13.802-1.591-20.335,1.247
				c-4.882,2.12-4.947,10.856,0,12.952c6.065,2.57,13.065,2.809,18.538-1.413c3.323-2.563,4.785-6.284,2.691-10.261
				c-1.538-2.921-3.659-5.571-6.269-7.598c-3.196-2.482-7.491-3.116-10.607,0C129.264,104.507,128.633,110.029,131.85,112.527
				L131.85,112.527z"/>
		</g>
	</g>
	<g>
		<g>
			<path fill="#F8C8AE" d="M137.417,106.639c-7.314,1.219-14.658,0.754-21.826-1.049c-9.364-2.355-13.359,12.107-3.988,14.464
				c9.919,2.495,19.737,2.727,29.802,1.049C150.904,119.519,146.875,105.062,137.417,106.639L137.417,106.639z"/>
		</g>
	</g>
	<g>
		<g>
			<path fill="#F8C8AE" d="M146.601,101.921c-0.733-1.222-1.466-2.443-2.199-3.665c-0.977-1.629-2.643-2.94-4.482-3.447
				c-1.795-0.494-4.186-0.271-5.779,0.756c-1.601,1.032-3.011,2.57-3.447,4.482c-0.446,1.957-0.299,4.021,0.756,5.779
				c0.733,1.222,1.466,2.443,2.199,3.665c0.977,1.629,2.643,2.94,4.482,3.447c1.795,0.494,4.186,0.271,5.779-0.756
				c1.601-1.032,3.011-2.57,3.447-4.482C147.803,105.743,147.656,103.679,146.601,101.921L146.601,101.921z"/>
		</g>
	</g>
	<g>
		<g>
			<path fill="#F8C8AE" d="M147.357,104.445c-0.489-1.71-0.977-3.421-1.466-5.131c-1.077-3.77-5.346-6.494-9.226-5.238
				c-3.837,1.242-6.393,5.185-5.238,9.226c0.489,1.71,0.977,3.421,1.466,5.131c1.077,3.77,5.346,6.494,9.226,5.238
				C145.955,112.43,148.511,108.487,147.357,104.445L147.357,104.445z"/>
		</g>
	</g>
	<g>
		<g>
			<path fill="#F8C8AE" d="M143.91,93.366c-2.199-0.977-4.398-1.955-6.597-2.932c-1.904-0.846-3.688-1.332-5.779-0.756
				c-1.74,0.479-3.625,1.824-4.482,3.447c-1.724,3.264-1.137,8.56,2.691,10.261c2.199,0.977,4.398,1.955,6.597,2.932
				c1.904,0.846,3.688,1.332,5.779,0.756c1.74-0.479,3.625-1.824,4.482-3.447C148.325,100.364,147.738,95.067,143.91,93.366
				L143.91,93.366z"/>
		</g>
	</g>
	<g>
		<g>
			<path fill="#E8A48D" d="M126.61,69.436c2.336-2.067,3.626-5.24,3.326-8.353c-0.129-1.344-1.056-2.5-2.5-2.5
				c-1.252,0-2.63,1.148-2.5,2.5c0.186,1.93-0.404,3.527-1.862,4.817C120.66,68.037,124.207,71.562,126.61,69.436L126.61,69.436z"/>
		</g>
	</g>
	<g>
		<g>
			<path fill="#E8A48D" d="M124.252,48.013c0.469,5.9,0.424,11.773-0.136,17.665c-0.304,3.202,4.698,3.181,5,0
				c0.56-5.892,0.605-11.765,0.136-17.665C128.999,44.827,123.996,44.8,124.252,48.013L124.252,48.013z"/>
		</g>
	</g>
	<g>
		<g>
			<path fill="#E8A48D" d="M128.829,46.864c0-0.384,0-0.768,0-1.152c0-1.308-1.15-2.56-2.5-2.5c-1.354,0.061-2.5,1.098-2.5,2.5
				c0,0.384,0,0.768,0,1.152c0,1.308,1.15,2.56,2.5,2.5C127.684,49.303,128.829,48.265,128.829,46.864L128.829,46.864z"/>
		</g>
	</g>
	<g>
		<g>
			<path fill="#E8A48D" d="M152.071,74.431c2.043-0.027,3.756,0.775,5.141,2.406c-0.196,3.992-1.986,5.782-5.37,5.37
				c-2.247,0.157-4.555-0.005-6.807-0.018c-4.955-0.027-9.91-0.055-14.865-0.082c-3.218-0.018-3.222,4.982,0,5
				c6.603,0.036,13.216,0.181,19.819,0.11c3.935-0.043,8.279-0.319,10.993-3.58c5.715-6.868-2.213-13.693-8.911-14.205
				C148.862,69.186,148.878,74.187,152.071,74.431L152.071,74.431z"/>
		</g>
	</g>
	<g>
		<g>
			<path fill="#E8A48D" d="M150.366,91.056c0.821,0.378,1.671,0.732,2.455,1.183c2.346,1.349,2.769,1.57,2.633,4.451
				c-0.13,2.751-0.128,2.707-2.484,3.264c-1.441,0.34-2.981,0.363-4.45,0.438c-5.738,0.295-11.491,0.094-17.213-0.368
				c-3.208-0.259-3.191,4.742,0,5c6.042,0.488,12.113,0.672,18.169,0.317c3.382-0.198,7.244-0.542,9.867-2.958
				c6.497-5.985-0.871-13.075-6.453-15.644C149.987,85.402,147.443,89.71,150.366,91.056L150.366,91.056z"/>
		</g>
	</g>
	<g>
		<g>
			<path fill="#E8A48D" d="M142.316,110.962c1.87,0.921,5.824,2.442,4.553,5.529c-0.981,2.383-5.192,2.26-7.245,2.354
				c-4.056,0.185-8.107,0.085-12.157-0.18c-3.213-0.21-3.2,4.791,0,5c6.55,0.428,17.868,2.198,22.789-3.439
				c4.845-5.549-0.276-11.049-5.417-13.582C141.963,105.227,139.426,109.538,142.316,110.962L142.316,110.962z"/>
		</g>
	</g>
	<g>
		<g>
			<path fill="#E8A48D" d="M123.838,95.442c-1.651,1.929-2.013,4.366-1.031,6.724c1.011,2.426,3.203,3.901,5.382,5.195
				c2.773,1.647,5.291-2.674,2.524-4.317c-0.778-0.462-4.617-2.572-3.339-4.066C129.455,96.545,125.934,92.992,123.838,95.442
				L123.838,95.442z"/>
		</g>
	</g>
	<g>
		<g>
			<path fill="#E8A48D" d="M121.32,100.276c-0.199,4.154,2.19,8.241,5.972,10.013c1.222,0.572,2.696,0.342,3.42-0.897
				c0.634-1.084,0.331-2.845-0.897-3.42c-2.301-1.078-3.618-3.144-3.496-5.696C126.474,97.06,121.474,97.067,121.32,100.276
				L121.32,100.276z"/>
		</g>
	</g>
	<g>
		<g>
			<path fill="#E8A48D" d="M124.721,102.868c-5.458,6.407-5.522,15.386-0.284,21.935c2.01,2.512,5.527-1.046,3.536-3.536
				c-3.441-4.302-3.269-10.693,0.284-14.864C130.332,103.967,126.812,100.414,124.721,102.868L124.721,102.868z"/>
		</g>
	</g>
	<g>
		<g>
			<path fill="#E8A48D" d="M123.64,116.918c-5.186,0.192-10.447,0.06-15.559-0.921c-5.808-1.114-8.506-4.897-8.935-10.733
				c-0.234-3.19-5.236-3.215-5,0c0.41,5.583,2.569,11.597,7.923,14.2c6.138,2.983,14.979,2.699,21.571,2.455
				C126.847,121.799,126.863,116.798,123.64,116.918L123.64,116.918z"/>
		</g>
	</g>
	<g>
		<g>
			<path fill="#E8A48D" d="M108.983,105.881c5.7-2.044,10.367-5.94,12.802-11.583c1.343-3.113,1.758-6.426,1.743-9.795
				c-0.01-2.156-2.289-14.429,1.61-14.575c3.208-0.12,3.223-5.121,0-5c-7.349,0.275-7.358,7.704-6.973,13.313
				c0.653,9.521-0.106,19.089-10.51,22.819C104.647,102.138,105.944,106.971,108.983,105.881L108.983,105.881z"/>
		</g>
	</g>
	<g>
		<g>
			<path fill="#E8A48D" d="M95.981,100.067c-22.793,0-45.587,0-68.38,0c-3.217,0-3.223,5,0,5c22.793,0,45.587,0,68.38,0
				C99.198,105.067,99.203,100.067,95.981,100.067L95.981,100.067z"/>
		</g>
	</g>
	<g>
		<g>
			<path fill="#EFC635" d="M152.358,51.664c-0.156,0.34-0.313,0.68-0.469,1.02c1.393,0.368,2.786,0.735,4.178,1.103
				c-0.543-2.559-0.073-4.788,1.278-6.998c-1.439,0-2.878,0-4.317,0c0.89,1.653,1.024,3.158,0.195,4.911
				c1.553,0.421,3.106,0.841,4.659,1.262c-0.147-3.05,0.328-5.767,1.457-8.603c-1.607,0-3.214,0-4.821,0
				c0.373,2.742,0.412,5.456,0.249,8.211c-0.191,3.232,4.738,3.175,5,0c0.218-2.644,0.79-5.102,1.656-7.597
				c-1.607,0-3.214,0-4.821,0c0.814,2.053,0.955,3.748,0.328,5.874c1.607,0.443,3.214,0.886,4.821,1.329
				c0.399-2.953,1.143-5.681,2.299-8.427c-1.637-0.222-3.274-0.443-4.911-0.665c0.2,2.636,0.153,5.165-0.272,7.78
				c1.637,0.222,3.274,0.443,4.911,0.665c0.182-2.811,0.838-5.384,1.902-7.986c-1.607,0-3.214,0-4.821,0
				c0.396,2.351,0.471,4.652,0.339,7.025c1.667,0,3.333,0,5,0c-0.114-1.865,0.16-3.097,1.167-4.722
				c-1.523-0.199-3.046-0.398-4.569-0.597c0.46,2.85,0.919,5.7,1.379,8.55c0.456,2.825,4.923,2.09,4.911-0.665
				c-0.012-2.759,0.47-5.143,1.664-7.625c-1.553-0.421-3.106-0.841-4.659-1.262c0.283,2.688,0.567,5.375,0.85,8.063
				c0.33,3.127,5.029,3.289,5,0c-0.023-2.603,0.341-4.996,1.115-7.474c-1.607,0-3.214,0-4.821,0c0.41,2.846,0.487,5.673,0.35,8.543
				c-0.156,3.255,4.697,3.151,5,0c0.17-1.768,0.56-3.222,1.301-4.837c-1.553-0.421-3.106-0.841-4.659-1.262
				c0.24,2.827,0.207,5.584-0.237,8.394c1.637,0.222,3.274,0.443,4.911,0.665c-0.35-3.313-0.466-6.588-0.351-9.917
				c0.053-1.549-1.652-2.936-3.165-2.411c-2.243,0.779-4.354,1.718-6.42,2.894c1.01,1.309,2.02,2.618,3.03,3.926
				c0.303-0.28,0.606-0.56,0.909-0.841c2.368-2.189-1.175-5.718-3.536-3.536c-0.303,0.28-0.606,0.56-0.909,0.841
				c-2.113,1.954,0.592,5.314,3.03,3.926c1.687-0.961,3.388-1.752,5.226-2.39c-1.055-0.804-2.11-1.607-3.165-2.411
				c-0.115,3.329,0.001,6.605,0.351,9.917c0.268,2.539,4.432,3.691,4.911,0.665c0.515-3.256,0.695-6.433,0.416-9.723
				c-0.187-2.204-3.523-3.736-4.659-1.262c-1.113,2.426-1.728,4.704-1.984,7.361c1.667,0,3.333,0,5,0
				c0.16-3.332-0.053-6.575-0.528-9.872c-0.376-2.606-4.155-2.137-4.821,0c-0.909,2.913-1.32,5.753-1.294,8.804c1.667,0,3.333,0,5,0
				c-0.283-2.688-0.567-5.375-0.85-8.063c-0.232-2.197-3.469-3.737-4.659-1.262c-1.566,3.257-2.363,6.534-2.346,10.149
				c1.637-0.222,3.274-0.443,4.911-0.665c-0.46-2.85-0.919-5.7-1.379-8.55c-0.362-2.244-3.533-2.268-4.569-0.597
				c-1.426,2.3-2.016,4.539-1.85,7.245c0.197,3.21,4.821,3.225,5,0c0.158-2.84-0.046-5.555-0.517-8.354
				c-0.46-2.729-4.01-1.985-4.821,0c-1.236,3.024-1.87,6.062-2.08,9.315c-0.179,2.771,4.456,3.464,4.911,0.665
				c0.497-3.062,0.685-6.008,0.45-9.109c-0.223-2.943-3.83-3.232-4.911-0.665c-1.155,2.746-1.9,5.474-2.299,8.427
				c-0.417,3.087,3.882,4.52,4.821,1.329c0.862-2.928,0.8-5.688-0.328-8.533c-0.905-2.281-3.971-2.449-4.821,0
				c-1.021,2.94-1.58,5.832-1.835,8.926c1.667,0,3.333,0,5,0c0.191-3.236,0.008-6.336-0.428-9.54c-0.373-2.746-4.04-1.962-4.821,0
				c-1.287,3.233-1.803,6.461-1.635,9.932c0.11,2.279,3.527,3.656,4.659,1.262c1.603-3.393,1.597-6.63-0.195-9.959
				c-0.912-1.694-3.37-1.55-4.317,0c-2.077,3.398-2.606,6.968-1.782,10.851c0.393,1.854,2.921,2.397,4.178,1.103
				c1.346-1.384,1.852-2.632,1.934-4.556C157.495,48.447,152.495,48.453,152.358,51.664L152.358,51.664z"/>
		</g>
	</g>
	<g>
		<g>
			<path fill="#EFC635" d="M159.576,55.41c2.282-1.927,4.781-3.521,7.446-4.863c-1.14-1.14-2.28-2.28-3.42-3.42
				c-1.651,2.492-4.072,4.309-6.915,5.224c-3.051,0.982-1.746,5.811,1.329,4.821c4.124-1.327,7.512-3.913,9.903-7.522
				c1.474-2.225-1.341-4.467-3.42-3.42c-3.051,1.536-5.85,3.443-8.458,5.645C153.579,53.953,157.131,57.475,159.576,55.41
				L159.576,55.41z"/>
		</g>
	</g>
	<g>
		<g>
			<path fill="#EFC635" d="M159.963,46.465c-0.998-1.681-1.837-3.287-2.573-5.115c-1.224,0.941-2.448,1.882-3.673,2.823
				c0.347,0.609,0.695,1.219,1.042,1.828c1.393-0.811,2.786-1.622,4.178-2.432c-1.919-1.818-3.586-3.734-5.072-5.923
				c-1.14,1.14-2.28,2.28-3.42,3.42c1.027,0.75,2.054,1.501,3.082,2.251c2.303,1.682,5.079-2.01,3.03-3.926
				c-1.134-0.848-1.856-1.963-2.166-3.344c-1.523,0.642-3.046,1.284-4.569,1.926c1.245,1.642,2.49,3.283,3.736,4.925
				c1.913,2.522,6.246,0.075,4.317-2.524c-1.268-1.708-1.958-3.304-2.321-5.419c-1.393,0.811-2.786,1.622-4.178,2.432
				c1.493,1.381,2.985,2.763,4.478,4.144c1.01-1.309,2.02-2.618,3.03-3.926c-1.755-1.031-2.755-2.113-3.706-3.868
				c-1.309,1.01-2.618,2.02-3.926,3.03c3.336,2.619,6.54,5.37,9.632,8.273c0.811-1.393,1.622-2.786,2.432-4.178
				c-4.522-1.349-7.499-4.947-10.386-8.469c-0.811,1.393-1.622,2.786-2.432,4.178c1.462,0.261,12.809,2.702,12.568,4.15
				c0.804-0.612,1.607-1.224,2.411-1.835c-4.213-0.354-7.986-1.819-11.3-4.457c-0.169,1.309-0.337,2.618-0.506,3.926
				c4.221-2.01,8.783-0.657,11.693,2.827c-0.13-1.01-0.261-2.02-0.391-3.03c-0.034,0.05-2.369-2.166-0.771-0.182
				c1.224,1.52,3.034,2.46,4.168,4.265c0.72-1.254,1.439-2.508,2.159-3.762c-0.901,0.085-1.804,0.115-2.709,0.09
				c-1.173-1.141-1.31-1.196-0.413-0.165c0.824,1.609,1.77,2.862,2.263,4.694c0.804-1.055,1.607-2.11,2.411-3.165
				c-0.799-0.719-1.598-1.439-2.397-2.158c-1.055,0.804-2.11,1.607-3.165,2.411c0.679,0.205,5.706,3.771,4.758,4.273
				c1.01,0.13,2.02,0.261,3.03,0.391c-0.126-1.038-0.252-2.075-0.378-3.113c-1.523-0.199-3.046-0.398-4.569-0.597
				c0.662,1.742,1.191,3.45,1.465,5.297c0.094,0.636,0.712,4.239,0.477,4.507c0.811-0.214,1.622-0.429,2.432-0.643
				c-0.129-0.044-0.259-0.088-0.388-0.132c0.612,0.804,1.224,1.607,1.835,2.411c0.007-0.112,0.013-0.224,0.02-0.336
				c0.192-3.214-4.809-3.203-5,0c-0.007,0.112-0.013,0.224-0.02,0.336c-0.068,1.139,0.833,2.069,1.835,2.411
				c0.129,0.044,0.259,0.088,0.388,0.132c0.788,0.269,1.882-0.014,2.432-0.643c3.035-3.467,0.756-10.955-0.656-14.669
				c-0.687-1.807-3.549-2.718-4.569-0.597c-1.606,3.337-1.214,6.339,1.16,9.172c0.726,0.866,2.109,0.878,3.03,0.391
				c6.776-3.586-1.671-12.117-5.952-13.412c-1.572-0.476-3.153,0.823-3.165,2.411c-0.031,4.224,3.13,7.403,7.397,7.158
				c1.612-0.092,2.852-1.524,2.411-3.165c-1.223-4.544-7.769-14.63-13.261-8.568c-1.708,1.885-1.56,4.906-0.278,6.964
				c2.055,3.299,6.074,3.537,9.577,3.313c1.806-0.115,3.227-2.063,2.159-3.762c-1.777-2.826-4.444-6.047-7.838-6.934
				c-2.647-0.692-5.904,0.54-6.561,3.433c-1.253,5.516,8.012,8.898,11.002,4.465c0.659-0.977,0.294-2.209-0.391-3.03
				c-4.437-5.312-11.613-6.533-17.753-3.609c-1.351,0.643-1.712,2.966-0.506,3.926c4.425,3.521,9.197,5.447,14.836,5.921
				c0.99,0.083,2.243-0.829,2.411-1.835c1.219-7.331-10.94-9.387-16.06-10.301c-2.527-0.451-4.049,2.206-2.432,4.178
				c3.508,4.279,7.162,8.135,12.593,9.755c2.367,0.706,4.253-2.469,2.432-4.178c-3.092-2.903-6.295-5.654-9.632-8.273
				c-2.137-1.678-5.369,0.368-3.926,3.03c1.354,2.498,3.054,4.225,5.5,5.662c2.408,1.415,5.149-1.965,3.03-3.926
				c-1.493-1.381-2.985-2.763-4.478-4.144c-1.93-1.787-4.591,0.022-4.178,2.432c0.427,2.492,1.31,4.572,2.825,6.613
				c1.439-0.841,2.878-1.682,4.317-2.524c-1.245-1.642-2.49-3.283-3.736-4.925c-1.574-2.075-5.504-1.014-4.569,1.926
				c0.709,2.229,1.735,3.945,3.452,5.55c1.01-1.309,2.02-2.618,3.03-3.926c-1.027-0.75-2.054-1.501-3.082-2.251
				c-2.018-1.474-4.782,1.414-3.42,3.42c1.724,2.541,3.62,4.82,5.853,6.935c1.942,1.84,4.544-0.06,4.178-2.432
				c-0.344-2.236-1.446-3.635-3.34-4.816c-1.718-1.072-4.508,0.751-3.673,2.823c0.885,2.197,1.867,4.27,3.077,6.309
				C157.287,51.753,161.611,49.241,159.963,46.465L159.963,46.465z"/>
		</g>
	</g>
	<g>
		<g>
			<path fill="#EFC635" d="M175.04,43.309c0-1.093,0-2.187,0-3.28c-1.553,0.421-3.106,0.841-4.659,1.262
				c0.442,0.712,0.884,1.423,1.326,2.135c1.439-0.841,2.878-1.682,4.317-2.524c-1.246-1.869-1.989-3.796-2.352-6.013
				c-1.523,0.642-3.046,1.284-4.569,1.926c0.743,1.258,1.485,2.516,2.228,3.774c1.309-1.01,2.618-2.02,3.926-3.03
				c-2.057-1.966-8.191-9.543-10.913-4.343c-1.491,2.848,2.823,5.379,4.317,2.524c-0.947,1.81-2.565-0.035-1.32,1.17
				c0.484,0.468,0.973,0.93,1.46,1.395c0.973,0.93,1.947,1.86,2.92,2.79c2.025,1.935,5.399-0.536,3.926-3.03
				c-0.743-1.258-1.485-2.516-2.228-3.774c-1.524-2.581-5.009-0.755-4.569,1.926c0.424,2.587,1.402,5.027,2.856,7.207
				c1.771,2.655,6.03,0.235,4.317-2.524c-0.442-0.712-0.884-1.423-1.326-2.135c-1.291-2.079-4.659-1.266-4.659,1.262
				c0,1.093,0,2.187,0,3.28C170.04,46.526,175.04,46.531,175.04,43.309L175.04,43.309z"/>
		</g>
	</g>
	<g>
		<g>
			<path fill="#EFC635" d="M135.662,43.485c0.12-1.156,0.505-2.224,1.157-3.203c-1.523-0.642-3.046-1.284-4.569-1.926
				c-0.483,1.715-0.852,3.368-1.145,5.125c1.607,0,3.214,0,4.821,0c-0.458-3.268,0.683-4.699,3.423-4.294
				c2.999-0.169,3.144-0.348,0.436-0.54c-0.069-0.236-0.137-0.471-0.206-0.707c0.955-0.215,1.893-0.189,2.814,0.08
				c1.645,0.316,2.925,1.08,4.219,2.149c1.272,1.051,1.887,3.523,1.609,0.077c-1.637,0.222-3.274,0.443-4.911,0.665
				c0.763,4.679,0.973,9.283,0.746,14.012c1.637-0.222,3.274-0.443,4.911-0.665c-1.217-4.151-2.135-8.311-2.776-12.589
				c-0.476-3.175-5.284-1.82-4.821,1.329c0.588,4.008,0.786,7.984,0.697,12.031c1.553-0.421,3.106-0.841,4.659-1.262
				c-1.563-3.642-2.401-7.342-2.644-11.299c-0.196-3.184-5.003-3.247-5,0c0.004,4.112,0.007,8.224,0.011,12.336
				c1.637-0.222,3.274-0.443,4.911-0.665c-0.638-4.476-0.657-8.92-0.047-13.402c-1.637-0.222-3.274-0.443-4.911-0.665
				c0.096,4.84-0.289,9.52-1.237,14.275c1.637,0.222,3.274,0.443,4.911,0.665c0.706-5.95,1.411-11.9,2.117-17.85
				c0.244-2.054-2.258-2.884-3.762-2.159c-2.86,1.38-3.05,4.209-3.584,7.089c-0.906,4.891-1.813,9.782-2.719,14.673
				c1.637,0.222,3.274,0.443,4.911,0.665c-0.216-6.196-0.073-12.362,0.43-18.541c-1.667,0-3.333,0-5,0
				c0.105,6.346-0.247,12.633-1.059,18.928c1.637-0.222,3.274-0.443,4.911-0.665c-0.756-4.791-0.967-9.515-0.748-14.355
				c-1.667,0-3.333,0-5,0c-0.04,4.493-0.079,8.987-0.119,13.48c1.553-0.421,3.106-0.841,4.659-1.262
				c-1.222-2.557-1.854-4.968-2.058-7.792c-0.23-3.181-5.175-3.233-5,0c0.18,3.344,0.361,6.689,0.541,10.033
				c0.172,3.196,4.94,3.24,5,0c0.038-2.057-0.164-3.893-0.584-5.895c-0.57-2.714-5.204-2.162-4.911,0.665
				c0.378,3.641,0.756,7.282,1.134,10.923c0.329,3.169,5.332,3.203,5,0c-0.378-3.641-0.756-7.282-1.134-10.923
				c-1.637,0.222-3.274,0.443-4.911,0.665c0.4,1.504,0.535,3.026,0.406,4.566c1.667,0,3.333,0,5,0
				c-0.18-3.344-0.361-6.689-0.541-10.033c-1.667,0-3.333,0-5,0c0.267,3.684,1.148,6.984,2.741,10.316
				c1.11,2.322,4.638,1.08,4.659-1.262c0.04-4.493,0.079-8.987,0.119-13.48c0.028-3.231-4.855-3.203-5,0
				c-0.239,5.283,0.103,10.466,0.927,15.684c0.481,3.047,4.587,1.847,4.911-0.665c0.812-6.295,1.164-12.581,1.059-18.928
				c-0.054-3.257-4.742-3.172-5,0c-0.503,6.179-0.646,12.345-0.43,18.541c0.094,2.686,4.375,3.555,4.911,0.665
				c0.604-3.261,1.209-6.521,1.813-9.782c0.343-1.853,0.426-8.14,2.192-8.992c-1.254-0.72-2.508-1.439-3.762-2.159
				c-0.706,5.95-1.411,11.9-2.117,17.85c-0.33,2.786,4.362,3.416,4.911,0.665c1.032-5.173,1.52-10.328,1.416-15.604
				c-0.053-2.689-4.517-3.556-4.911-0.665c-0.738,5.421-0.726,10.643,0.047,16.06c0.405,2.836,4.913,2.082,4.911-0.665
				c-0.004-4.112-0.007-8.224-0.011-12.336c-1.667,0-3.333,0-5,0c0.299,4.87,1.404,9.342,3.327,13.822
				c1.035,2.411,4.609,1.009,4.659-1.262c0.099-4.501-0.222-8.91-0.876-13.36c-1.607,0.443-3.214,0.886-4.821,1.329
				c0.641,4.278,1.559,8.438,2.776,12.589c0.807,2.752,4.776,2.139,4.911-0.665c0.248-5.169-0.093-10.239-0.925-15.342
				c-0.45-2.761-5.137-2.142-4.911,0.665c0.295,3.652,1.61,8.153,6.154,7.896c4.223-0.239,4.935-4.253,3.511-7.593
				c-1.738-4.075-5.837-6.912-10.149-7.563c-3.332-0.503-7.987,0.194-8.338,4.35c-0.318,3.764,3.635,7.922,7.311,8.131
				c3.924,0.223,7.431-3.516,5.757-7.393c-1.678-3.887-6.699-5.474-10.565-4.239c-4.817,1.539-6.566,6.389-5.799,10.974
				c0.399,2.385,4.424,2.389,4.821,0c0.292-1.757,0.662-3.41,1.145-5.125c0.763-2.709-3.169-4.419-4.569-1.926
				c-0.812,1.446-1.332,2.76-1.661,4.398C130.209,45.298,135.028,46.642,135.662,43.485L135.662,43.485z"/>
		</g>
	</g>
	<g>
		<g>
			<path fill="#EFC635" d="M136.166,65.054c1.611,0.167,3.222,0.334,4.833,0.502c2.787,0.289,3.425-4.377,0.665-4.911
				c-2.09-0.404-4.18-0.808-6.27-1.212c0.199,1.523,0.398,3.046,0.597,4.569c1.533-1.084,3.233-1.55,5.1-1.398
				c0.582-0.582,1.164-1.164,1.746-1.746c-1.675,0.645-3.801,0.334-5.578,0.698c-2.02,0.414-3.855,1.195-5.69,2.112
				c-2.154,1.077-1.202,4.89,1.262,4.659c6.013-0.565,12.02-0.81,18.059-0.735c1.677,0.021,2.775-1.61,2.411-3.165
				c-0.399-1.703-0.971-3.093-1.857-4.588c-0.886-1.496-2.693-1.512-3.926-0.506c0.123,0.417,0.245,0.834,0.368,1.251
				c-0.413,0.72-0.825,1.439-1.238,2.159c0.651,0.696,1.302,1.391,1.953,2.087c1.423-0.589,2.845-1.179,4.268-1.768
				c-0.122-0.878-0.245-1.756-0.367-2.634c-1.14,0.299-2.28,0.598-3.42,0.897c0.507,0.84,1.014,1.68,1.521,2.52
				c1.553-0.421,3.106-0.841,4.659-1.262c-0.084-0.334-0.168-0.669-0.253-1.003c-1.553,0.421-3.106,0.841-4.659,1.262
				c0.074,0.937,0.147,1.873,0.221,2.81c1.523-0.199,3.046-0.398,4.569-0.597c-1.21-2.829-4.207-2.916-5.856-5.258
				c-2.455-3.486,0.222-9.72,1.035-13.715c-1.607,0-3.214,0-4.821,0c0.719,4.158,0.654,8.141-0.169,12.287
				c1.637,0.222,3.274,0.443,4.911,0.665c-0.354-4.941-0.386-9.85-0.096-14.795c-1.667,0-3.333,0-5,0
				c-0.182,4.255-0.364,8.511-0.545,12.766c1.667,0,3.333,0,5,0c-0.143-3.654-0.286-7.309-0.429-10.963
				c-0.096-2.45,0.202-5.469-1.144-7.655c-2.497-4.058-9.046-6.44-13.417-4.73c-2.964,1.159-1.674,5.996,1.329,4.821
				c2.063-0.807,5.033-0.014,6.654,1.537c1.834,1.754,1.49,3.791,1.578,6.027c0.143,3.654,0.286,7.309,0.429,10.963
				c0.126,3.218,4.862,3.219,5,0c0.182-4.255,0.364-8.511,0.545-12.766c0.138-3.226-4.813-3.197-5,0
				c-0.29,4.945-0.258,9.854,0.096,14.795c0.189,2.635,4.328,3.603,4.911,0.665c1-5.038,1.043-9.883,0.169-14.946
				c-0.419-2.423-4.343-2.348-4.821,0c-0.951,4.672-3.028,10.332-2.154,15.152c0.288,1.585,0.909,2.982,2.057,4.126
				c1.29,1.285,4.748,1.976,5.421,3.547c0.912,2.133,3.967,1.228,4.569-0.597c0.816-2.474,0.557-4.412-0.725-6.663
				c-1.172-2.057-4.861-1.273-4.659,1.262c0.115,1.444,0.328,2.214,0.935,3.527c1.114,2.409,4.544,1.003,4.659-1.262
				c0.156-3.071-1.235-5.488-3.998-6.837c-1.132-0.553-2.808-0.395-3.42,0.897c-1.526,3.219-1.169,5.99,1.149,8.693
				c1.485,1.732,4.199,0.252,4.268-1.768c0.15-4.383-6.415-11.045-10.178-5.76c-1.156,1.623-0.619,3.921,0.941,5.081
				c2.337,1.737,4.776,0.279,6.69-1.282c-1.309-0.169-2.618-0.337-3.926-0.506c0.733,1.027,1.184,2.158,1.353,3.393
				c0.804-1.055,1.607-2.11,2.411-3.165c-6.039-0.075-12.046,0.17-18.059,0.735c0.421,1.553,0.841,3.106,1.262,4.659
				c2.655-1.327,4.842-1.44,7.694-1.883c0.956-0.149,1.475,0.027,2.38-0.423c1.553-0.773,2.465-2.374,2.198-4.171
				c-0.893-6.022-9.672-3.683-12.897-1.824c-1.76,1.014-1.567,4.151,0.597,4.569c2.09,0.404,4.18,0.808,6.27,1.212
				c0.222-1.637,0.443-3.274,0.665-4.911c-1.611-0.167-3.222-0.334-4.833-0.502C132.969,59.722,132.992,64.724,136.166,65.054
				L136.166,65.054z"/>
		</g>
	</g>
	<g>
		<g>
			<path fill="#EFC635" d="M134.475,62.531c1.133-5.715,2.504-11.367,4.117-16.965c-1.607,0-3.214,0-4.821,0
				c0.583,3.493,0.857,6.981,0.891,10.52c0.03,3.216,5.03,3.224,5,0c-0.038-3.987-0.413-7.918-1.069-11.849
				c-0.425-2.546-4.185-2.208-4.821,0c-1.613,5.599-2.985,11.25-4.117,16.965C129.031,64.344,133.849,65.69,134.475,62.531
				L134.475,62.531z"/>
		</g>
	</g>
	<g>
		<g>
			<path fill="#EFC635" d="M168.938,51.932c-0.061,0.061-0.122,0.122-0.182,0.182c-0.926,0.926-0.995,2.622,0,3.536
				c0.998,0.916,2.547,0.988,3.536,0c0.061-0.061,0.122-0.122,0.182-0.182c0.926-0.926,0.995-2.622,0-3.536
				C171.475,51.016,169.926,50.944,168.938,51.932L168.938,51.932z"/>
		</g>
	</g>
	<g>
		<g>
			<path fill="#EFC635" d="M170.326,57.317c0.122-0.061,0.243-0.122,0.365-0.182c1.172-0.586,1.596-2.337,0.897-3.42
				c-0.773-1.199-2.167-1.524-3.42-0.897c-0.122,0.061-0.243,0.122-0.365,0.182c-1.172,0.586-1.596,2.337-0.897,3.42
				C167.678,57.619,169.072,57.944,170.326,57.317L170.326,57.317z"/>
		</g>
	</g>
	<g>
		<g>
			<path fill="#EFC635" d="M170.493,54.261c-0.182-0.426-0.365-0.851-0.547-1.277c-0.229-0.535-0.962-1.002-1.494-1.149
				c-0.598-0.165-1.395-0.09-1.926,0.252c-0.534,0.344-1.004,0.857-1.149,1.494c-0.159,0.7-0.028,1.273,0.252,1.926
				c0.182,0.426,0.365,0.851,0.547,1.277c0.229,0.535,0.962,1.002,1.494,1.149c0.598,0.165,1.395,0.09,1.926-0.252
				c0.534-0.344,1.004-0.857,1.149-1.494C170.905,55.488,170.773,54.915,170.493,54.261L170.493,54.261z"/>
		</g>
	</g>
	<g>
		<g>
			<path fill="#EFC635" d="M169.104,53.4c-0.122-0.851-0.243-1.702-0.365-2.553c-0.082-0.575-0.673-1.215-1.149-1.494
				c-0.536-0.314-1.326-0.446-1.926-0.252c-0.605,0.196-1.189,0.571-1.494,1.149c-0.336,0.636-0.353,1.222-0.252,1.926
				c0.122,0.851,0.243,1.702,0.365,2.553c0.082,0.575,0.673,1.215,1.149,1.494c0.536,0.314,1.326,0.446,1.926,0.252
				c0.605-0.196,1.189-0.571,1.494-1.149C169.188,54.69,169.205,54.104,169.104,53.4L169.104,53.4z"/>
		</g>
	</g>
	<g>
		<g>
			<path fill="#EFC635" d="M142.803,58.044c0.109-0.006,0.533,0.027,0.098-0.03c-0.479-0.063,0.039,0.053,0.086,0.056
				c-0.094-0.006-0.501-0.238-0.212-0.058c-0.508-0.318-0.239-0.19-0.078-0.009c0.87,0.982,2.66,0.954,3.536,0
				c0.962-1.047,0.928-2.488,0-3.536c-0.834-0.941-2.173-1.495-3.429-1.423c-1.303,0.074-2.563,1.097-2.5,2.5
				C140.361,56.835,141.405,58.123,142.803,58.044L142.803,58.044z"/>
		</g>
	</g>
	<g>
		<g>
			<path fill="#EFC635" d="M141.222,54.741c-0.667,0.116-1.334,0.232-2.002,0.348c-2.743,0.477-2.141,5.249,0.665,4.911
				c1.021-0.123,2.043-0.246,3.064-0.369c-0.421-1.553-0.841-3.106-1.262-4.659c-0.581,0.369-1.074,0.551-1.763,0.56
				c0.222,1.637,0.443,3.274,0.665,4.911c2.12-0.436,4.133-1.163,6.087-2.091c1.219-0.58,1.537-2.326,0.897-3.42
				c-0.73-1.248-2.197-1.479-3.42-0.897c-1.559,0.741-3.204,1.24-4.892,1.587c-2.785,0.573-2.122,4.947,0.665,4.911
				c1.534-0.02,2.988-0.418,4.287-1.242c0.939-0.596,1.45-1.727,1.149-2.823c-0.267-0.97-1.339-1.965-2.411-1.835
				c-1.021,0.123-2.043,0.246-3.064,0.369c0.222,1.637,0.443,3.274,0.665,4.911c0.667-0.116,1.334-0.232,2.002-0.348
				c1.331-0.231,2.079-1.864,1.746-3.075C143.911,55.08,142.557,54.508,141.222,54.741L141.222,54.741z"/>
		</g>
	</g>
	<g>
		<g>
			<path fill="#EFC635" d="M143.166,57.476c3.217,0,3.223-5,0-5C139.949,52.476,139.943,57.476,143.166,57.476L143.166,57.476z"/>
		</g>
	</g>
	<g>
		<g>
			<path fill="#EFC635" d="M142.072,60.029c3.217,0,3.223-5,0-5C138.854,55.029,138.849,60.029,142.072,60.029L142.072,60.029z"/>
		</g>
	</g>
	<g>
		<g>
			<path fill="#EFC635" d="M141.468,60.756c2.31-2.249,4.62-4.499,6.931-6.748c2.309-2.249-1.228-5.783-3.536-3.536
				c-2.31,2.249-4.62,4.499-6.931,6.748C135.623,59.469,139.161,63.003,141.468,60.756L141.468,60.756z"/>
		</g>
	</g>
	<g>
		<g>
			<path fill="#BB9616" d="M138.944,36.083c4.013,0.141,4.748,5.057,4.801,8.16c0.056,3.214,5.056,3.224,5,0
				c-0.105-6.083-2.773-12.912-9.801-13.16C135.726,30.97,135.73,35.97,138.944,36.083L138.944,36.083z"/>
		</g>
	</g>
	<g>
		<g>
			<path fill="#BB9616" d="M151.429,56.856c-0.061,0.061-0.122,0.122-0.182,0.182c-0.926,0.926-0.995,2.622,0,3.536
				c0.998,0.916,2.547,0.988,3.536,0c0.061-0.061,0.122-0.122,0.182-0.182c0.926-0.926,0.995-2.622,0-3.536
				C153.967,55.94,152.417,55.868,151.429,56.856L151.429,56.856z"/>
		</g>
	</g>
	<g>
		<g>
			<path fill="#BB9616" d="M153.562,56.853c-6.566,0-13.132,0-19.697,0c-3.217,0-3.223,5,0,5c6.566,0,13.132,0,19.697,0
				C156.779,61.853,156.784,56.853,153.562,56.853L153.562,56.853z"/>
		</g>
	</g>
	<g>
		<g>
			<path fill="#BB9616" d="M136.818,56.993c-0.209-2.254-0.378-4.506-0.446-6.769c-0.047-1.579,0.726-5.23,0.254-6.612
				c-1.514-1.166-1.978-0.86-1.391,0.917c0.039,1.037,0.016,2.073-0.072,3.108c-0.25,2.692-1.007,5.228-2.114,7.685
				c1.523,0.199,3.046,0.398,4.569,0.597c-1.206-2.92-2-5.828-2.093-9.012c-0.046-1.56,0.043-3.147,0.328-4.685
				c0.046-0.25,1.309-6.741,3.44-3.827c0.887,1.213-1.081,7.141-1.32,8.639c-0.488,3.062-0.836,6.117-0.941,9.218
				c1.667,0,3.333,0,5,0c-0.224-3.273-0.251-6.539,0.121-9.805c0.162-1.405,0.389-2.8,0.68-4.183
				c-0.385,0.256-0.77,0.513-1.156,0.769c-0.045,1.972,1.084,3.71,0.716,5.873c-0.122,0.719-1.953,5.217-0.611,3.295
				c1.234-0.421,1.419-1.337,0.553-2.749c-0.03-0.743-0.011-1.484,0.057-2.223c0.053-1.015,0.18-2.023,0.383-3.022
				c-0.844,0.477-1.054,1.061-0.633,1.75c0.017,2.061,3.514,5.847-0.095,7.55c-2.46,1.161-0.95,4.457,1.262,4.659
				c0.743,0.188,1.485,0.376,2.228,0.565c1.981,0.732,4.064-1.934,2.823-3.672c-3.334-4.67-5.466-9.686-6.512-15.327
				c-0.335-1.809-2.993-2.458-4.178-1.103c1.33,2.066,2.005,2.444,2.024,1.134c0.067-0.522,0.134-1.045,0.201-1.567
				c-1.637,0.222-3.274,0.443-4.911,0.665c0.332,1.312,1.213,2.367,1.985,3.448c1.428,2,1.985,3.816,2.693,6.165
				c0.472,1.567,0.92,2.878,2.163,3.971c2.342,2.061,4.152,3.933,6.012,6.531c1.856,2.594,6.195,0.1,4.317-2.524
				c-1.24-1.734-2.408-3.585-3.842-5.171c-1.721-1.904-3.229-2.317-4.023-4.901c-0.55-1.787-0.967-3.539-1.949-5.146
				c-0.694-1.136-2.201-2.387-2.534-3.703c-0.748-2.955-4.576-1.943-4.911,0.665c-0.254,1.98-0.678,4.213,1.486,5.32
				c1.793,0.918,3.614,0.031,4.824-1.352c-1.393-0.368-2.786-0.735-4.178-1.103c1.117,6.025,3.457,11.535,7.016,16.522
				c0.941-1.224,1.882-2.448,2.823-3.672c-1.482-0.548-1.984-0.6-3.557-0.743c0.421,1.553,0.841,3.106,1.262,4.659
				c4.651-2.196,4.295-7.024,3.025-11.275c-0.818-2.74-1.827-7.855-5.653-7.762c-6.586,0.16-6.426,18.017-0.712,19.056
				c3.266,0.594,5.183-4.291,5.825-6.678c1.001-3.726,0.673-8.909-1.89-12.022c-1.959-2.378-4.957-2.556-6.614,0.289
				c-2.501,4.295-1.843,12.131-1.522,16.82c0.218,3.189,4.89,3.245,5,0c0.13-3.81,0.69-7.538,1.351-11.288
				c0.411-2.332,1.108-4.79,0.832-7.174c-0.402-3.474-3.049-6.117-6.729-5.427c-9.819,1.84-7.238,18.715-4.689,24.886
				c0.711,1.722,3.579,2.796,4.569,0.597c1.903-4.224,3.049-8.645,2.868-13.316c-0.091-2.368,0.005-6.914-3.054-7.477
				c-8.043-1.481-5.689,16.435-5.363,19.94C132.113,60.17,137.116,60.201,136.818,56.993L136.818,56.993z"/>
		</g>
	</g>
	<g>
		<g>
			<path fill="#EFC635" d="M160.515,53.053c3.217,0,3.223-5,0-5C157.298,48.053,157.293,53.053,160.515,53.053L160.515,53.053z"/>
		</g>
	</g>
	<g>
		<g>
			<path fill="#EFC635" d="M150.64,47.61c-4.535,4.848-9.144,9.624-13.827,14.328c-2.273,2.283,1.261,5.82,3.536,3.536
				c4.684-4.704,9.293-9.48,13.827-14.328C156.372,48.797,152.844,45.254,150.64,47.61L150.64,47.61z"/>
		</g>
	</g>
	<g>
		<g>
			<path fill="#EFC635" d="M142.122,62.792c0.924,0.742,1.868,1.679,2.483,2.548c0.779,1.101,2.183,1.621,3.42,0.897
				c1.138-0.666,1.619-2.273,0.897-3.42c-0.895-1.421-1.79-2.842-2.685-4.263c-1.14,1.14-2.28,2.28-3.42,3.42
				c1.371,1.043,2.606,2.278,3.739,3.571c1.179-1.179,2.357-2.357,3.536-3.536c-1.162-1.019-2.323-2.038-3.485-3.056
				c-1.01,1.309-2.02,2.618-3.03,3.926c0.906,0.656,1.716,1.616,2.333,2.684c1.309-1.01,2.618-2.02,3.926-3.03
				c-0.312-0.327-0.624-0.654-0.936-0.98c-0.932-0.977-2.596-0.939-3.536,0c-0.976,0.976-0.935,2.556,0,3.536
				c0.312,0.327,0.624,0.654,0.936,0.98c1.973,2.067,5.342-0.581,3.926-3.03c-1.045-1.809-2.443-3.258-4.127-4.477
				c-0.996-0.722-2.543-0.268-3.225,0.644c-0.702,0.939-0.756,2.448,0.195,3.283c1.162,1.019,2.323,2.038,3.485,3.056
				c2.425,2.127,5.662-1.109,3.536-3.536c-1.43-1.631-3.028-3.041-4.751-4.353c-0.867-0.66-2.314-0.325-3.03,0.391
				c-0.766,0.766-0.979,2.095-0.391,3.03c0.895,1.421,1.79,2.842,2.685,4.263c1.439-0.841,2.878-1.682,4.317-2.524
				c-0.943-1.333-1.989-2.536-3.265-3.56c-1.052-0.845-2.508-1.028-3.536,0C141.247,60.131,141.064,61.942,142.122,62.792
				L142.122,62.792z"/>
		</g>
	</g>
	<g>
		<g>
			<path fill="#EFC635" d="M143.965,62.64c0.75,0.851,1.33,1.803,1.825,2.822c1.309-1.01,2.618-2.02,3.926-3.03
				c-1.232-1.355-2.199-2.879-2.981-4.534c-1.309,1.01-2.618,2.02-3.926,3.03c1.104,1.131,1.994,2.346,2.762,3.727
				c1.439-0.841,2.878-1.682,4.317-2.524c-0.767-1.304-1.533-2.609-2.3-3.913c-1.629-2.772-5.953-0.259-4.317,2.524
				c0.767,1.304,1.533,2.609,2.3,3.913c1.631,2.776,5.883,0.294,4.317-2.524c-0.961-1.73-2.162-3.324-3.544-4.739
				c-0.863-0.884-2.329-0.955-3.283-0.195c-1.026,0.818-1.191,2.066-0.644,3.225c0.961,2.036,2.249,3.882,3.763,5.546
				c0.83,0.912,2.355,0.934,3.283,0.195c1.019-0.811,1.203-2.073,0.644-3.225c-0.681-1.403-1.576-2.665-2.606-3.834
				c-0.893-1.013-2.623-0.912-3.536,0C142.959,60.11,143.069,61.624,143.965,62.64L143.965,62.64z"/>
		</g>
	</g>
	<g>
		<g>
			<path fill="#BB9616" d="M142.347,51.511c1.551,2.025,2.987,4.127,4.309,6.309c1.666,2.748,5.991,0.238,4.317-2.524
				c-1.322-2.182-2.758-4.284-4.309-6.309c-0.82-1.07-2.152-1.639-3.42-0.897C142.19,48.706,141.52,50.432,142.347,51.511
				L142.347,51.511z"/>
		</g>
	</g>
	<g>
		<g>
			<path fill="#BB9616" d="M144.125,51.553c1.49,1.686,2.836,3.461,4.064,5.347c1.75,2.686,6.08,0.183,4.317-2.524
				c-1.456-2.236-3.079-4.36-4.846-6.359C145.525,45.602,142,49.149,144.125,51.553L144.125,51.553z"/>
		</g>
	</g>
	<g>
		<g>
			<path fill="#BB9616" d="M143.328,51.628c1.611,2.635,3.221,5.27,4.832,7.906c1.675,2.741,6.002,0.232,4.317-2.524
				c-1.611-2.635-3.221-5.27-4.832-7.906C145.97,46.363,141.644,48.872,143.328,51.628L143.328,51.628z"/>
		</g>
	</g>
	<g>
		<g>
			<path fill="#BB9616" d="M142.586,51.86c1.896,3.087,3.982,6.03,6.216,8.88c0.839,1.071,2.653,0.863,3.536,0
				c1.061-1.038,0.828-2.479,0-3.536c-1.968-2.511-3.765-5.151-5.434-7.868C145.222,46.599,140.895,49.108,142.586,51.86
				L142.586,51.86z"/>
		</g>
	</g>
	<g>
		<g>
			<path fill="#BB9616" d="M144.835,47.963c-1.3,1.597-2.6,3.194-3.899,4.79c-0.65,0.798-1.3,1.597-1.95,2.395
				c-0.469,0.577-1.108,1.792-1.719,2.179c1.01,0.13,2.02,0.261,3.03,0.391c-0.036-0.037-0.072-0.074-0.109-0.111
				c0.13,1.01,0.261,2.02,0.391,3.03c0.02-0.038,0.04-0.076,0.06-0.114c1.503-2.843-2.811-5.372-4.317-2.524
				c-0.02,0.038-0.04,0.076-0.06,0.114c-0.527,0.997-0.409,2.211,0.391,3.03c0.036,0.037,0.072,0.074,0.109,0.111
				c0.75,0.768,2.106,0.976,3.03,0.391c1.677-1.063,2.943-3.221,4.193-4.757c1.462-1.796,2.925-3.593,4.387-5.389
				C150.385,49.024,146.868,45.465,144.835,47.963L144.835,47.963z"/>
		</g>
	</g>
	<g>
		<g>
			<path fill="#BB9616" d="M130.977,62.368c2.673-0.284,5.325-0.252,7.99,0.097c1.341,0.176,2.5-1.275,2.5-2.5
				c0-1.497-1.155-2.324-2.5-2.5c-2.665-0.349-5.317-0.382-7.99-0.097c-1.342,0.143-2.5,1.047-2.5,2.5
				C128.477,61.109,129.626,62.512,130.977,62.368L130.977,62.368z"/>
		</g>
	</g>
	<g>
		<g>
			<path fill="#BB9616" d="M131.738,62.329c3.113-0.106,6.2-0.442,9.27-0.968c3.165-0.542,1.823-5.361-1.329-4.821
				c-2.631,0.451-5.273,0.699-7.94,0.79C128.529,57.438,128.514,62.438,131.738,62.329L131.738,62.329z"/>
		</g>
	</g>
	<g>
		<g>
			<path fill="#BB9616" d="M131.44,62.852c1.829-0.041,3.658-0.081,5.486-0.122c1.283-0.029,2.851,0.15,4.034-0.486
				c1.081-0.581,1.809-1.839,2.568-2.758c1.194-1.447,2.388-2.894,3.583-4.341c2.033-2.464-1.485-6.02-3.536-3.536
				c-0.868,1.052-1.737,2.105-2.605,3.157c-0.654,0.793-1.424,2.201-2.28,2.762c-1.295,0.849-5.376,0.282-7.25,0.324
				C128.227,57.924,128.216,62.924,131.44,62.852L131.44,62.852z"/>
		</g>
	</g>
	<g>
		<g>
			<path fill="#BB9616" d="M145.311,56.378c1.058,0.953,1.729,2.128,2.443,3.346c0.358,0.61,0.694,1.311,1.199,1.816
				c0.873,0.873,2.238,1.023,3.287,0.383c1.031-0.629,1.334-1.696,1.149-2.823c-0.007-0.041-0.013-0.082-0.02-0.123
				c-0.219-1.333-1.872-2.077-3.075-1.746c-1.416,0.389-1.966,1.738-1.746,3.075c0.007,0.041,0.013,0.082,0.02,0.123
				c0.383-0.941,0.766-1.882,1.149-2.823c-0.042,0.025-0.083,0.051-0.125,0.076c0.841,0,1.682,0,2.524,0
				c-0.044-0.023-0.089-0.045-0.133-0.068c0.299,0.299,0.598,0.598,0.897,0.897c-1.432-1.871-2.236-4.048-4.033-5.668
				c-1.003-0.904-2.546-0.99-3.536,0C144.393,53.761,144.304,55.471,145.311,56.378L145.311,56.378z"/>
		</g>
	</g>
	<g>
		<g>
			<path fill="#BB9616" d="M152.1,59.415c-1.45-1.939-2.899-3.879-4.349-5.818c-0.807-1.08-2.162-1.633-3.42-0.897
				c-1.064,0.622-1.71,2.333-0.897,3.42c1.45,1.939,2.899,3.879,4.349,5.818c0.807,1.08,2.162,1.633,3.42,0.897
				C152.267,62.213,152.913,60.503,152.1,59.415L152.1,59.415z"/>
		</g>
	</g>
	<g>
		<g>
			<path fill="#BB9616" d="M150.512,62.893c1.347-0.015,2.633,0.111,3.943,0.42c1.313,0.309,2.708-0.41,3.075-1.746
				c0.348-1.267-0.426-2.764-1.746-3.075c-1.726-0.407-3.499-0.619-5.272-0.598C147.296,57.93,147.288,62.93,150.512,62.893
				L150.512,62.893z"/>
		</g>
	</g>
	<g>
		<g>
			<path fill="#BB9616" d="M151.361,63.508c0.251-0.09,0.503-0.175,0.761-0.242c0.172-0.045,0.345-0.083,0.52-0.115
				c-0.182,0.016-0.184,0.015-0.005-0.001c0.576-0.061,1.153-0.032,1.727,0.038c1.303,0.16,2.555-1.264,2.5-2.5
				c-0.067-1.491-1.104-2.329-2.5-2.5c-1.445-0.177-2.962,0.008-4.331,0.499c-1.228,0.441-2.184,1.723-1.746,3.075
				C148.676,62.971,150.043,63.981,151.361,63.508L151.361,63.508z"/>
		</g>
	</g>
	<g>
		<g>
			<path fill="#BB9616" d="M140.167,53.738c-1.029,2.125-2.058,4.249-3.087,6.374c0.72-0.413,1.439-0.825,2.159-1.238
				c-1.834-0.055-3.667-0.068-5.501-0.041c-3.214,0.048-3.224,5.048,0,5c1.834-0.027,3.667-0.014,5.501,0.041
				c0.82,0.024,1.792-0.481,2.159-1.238c1.029-2.125,2.058-4.249,3.087-6.374C145.881,53.378,141.571,50.84,140.167,53.738
				L140.167,53.738z"/>
		</g>
	</g>
	<g>
		<g>
			<path fill="#EFC635" d="M133.349,66.843c0.06,0,0.121,0,0.181,0c1.308,0,2.56-1.15,2.5-2.5c-0.061-1.355-1.098-2.5-2.5-2.5
				c-0.06,0-0.121,0-0.181,0c-1.308,0-2.56,1.15-2.5,2.5C130.91,65.697,131.948,66.843,133.349,66.843L133.349,66.843z"/>
		</g>
	</g>
	<g>
		<g>
			<path fill="#EFC635" d="M132.625,66.661c6.762,0,13.524,0,20.285,0c3.217,0,3.223-5,0-5c-6.762,0-13.524,0-20.285,0
				C129.408,61.661,129.402,66.661,132.625,66.661L132.625,66.661z"/>
		</g>
	</g>
	<g>
		<g>
			<path fill="#EFC635" d="M155.43,52.967c-0.12-0.061-0.241-0.123-0.361-0.184c-1.164-0.593-2.765-0.344-3.42,0.897
				c-0.603,1.141-0.347,2.787,0.897,3.42c0.12,0.061,0.241,0.123,0.361,0.184c1.164,0.593,2.765,0.344,3.42-0.897
				C156.929,55.246,156.674,53.6,155.43,52.967L155.43,52.967z"/>
		</g>
	</g>
	<g>
		<g>
			<path fill="#EFC635" d="M141.609,60.097c-0.612-3.699-0.296-7.153,0.781-10.714c-1.637-0.222-3.274-0.443-4.911-0.665
				c0.123,4.24-0.327,8.262-1.413,12.371c1.393-0.368,2.786-0.735,4.178-1.103c-2.501-2.495-1.623-8.562-1.389-11.718
				c-1.667,0-3.333,0-5,0c0.109,4.619-0.217,9.077-1.071,13.626c1.523-0.199,3.046-0.398,4.569-0.597
				c-0.854-1.967-0.046-5.125,0.092-7.126c0.196-2.84,0.393-5.679,0.589-8.519c-1.667,0-3.333,0-5,0
				c-0.014,4.101-0.268,8.146-0.769,12.217c1.667,0,3.333,0,5,0c-0.728-6.775-0.544-13.428,0.692-20.137
				c-1.637-0.222-3.274-0.443-4.911-0.665c-0.287,0.541-0.574,1.082-0.861,1.624c1.423,0.589,2.845,1.179,4.268,1.768
				c-0.256-2.079-0.035-3.498,1.503-5.159c-1.393-0.368-2.786-0.735-4.178-1.103c1.092,7.338,0.255,15.242,0.175,22.645
				c1.667,0,3.333,0,5,0c-0.02-2.378,0.017-4.751,0.215-7.122c0.129-1.551,0.307-3.105,0.548-4.643
				c0.181-1.156,1.163-3.376,0.847-4.373c0.491-0.968,0.239-1.181-0.756-0.638c-0.938-0.1-1.249,0.283-0.934,1.149
				c-0.354,0.841,0.036,2.736,0.024,3.67c-0.016,1.221-0.041,2.444-0.145,3.662c-0.083,0.968-0.689,3.758-0.306,3.546
				c1.224,0.498,2.448,0.996,3.673,1.494c-1.002-2.562-1.685-5.132-1.838-7.895c-0.099-1.794-0.363-5.841,0.94-7.257
				c0.826-0.898,0.632-0.109,1.21,1.5c0.326,0.908,0.579,1.883,0.737,2.834c0.469,2.825,0.125,5.797-0.886,8.458
				c-0.296,0.778-1.239,2.129-0.702,2.33c0.589,0.22-0.211-2.627-0.27-3.189c-0.141-1.354-0.066-2.823,0.051-4.168
				c0.11-1.263-0.237-3.299,1.171-1.899c1.398,1.39,1.389,5.486,1.27,7.262c-0.205,3.053-1.42,5.735-3.151,8.199
				c1.309-0.169,2.618-0.337,3.926-0.506c-0.474-1.114-0.948-2.229-1.423-3.343c-1.254,0.72-2.508,1.439-3.762,2.159
				c0.167-0.357,0.333-0.714,0.5-1.071c0,1.607,0,3.214,0,4.821c3.117-0.579,5.717-0.136,8.496,1.324
				c0.421-1.553,0.841-3.106,1.262-4.659c-0.556,0.069-1.113,0.138-1.669,0.207c-2.558,0.317-3.671,4.238-0.665,4.911
				c1.242,0.278,2.483,0.556,3.725,0.834c3.134,0.702,4.473-4.118,1.329-4.821c-1.242-0.278-2.483-0.556-3.725-0.834
				c-0.222,1.637-0.443,3.274-0.665,4.911c0.556-0.069,1.113-0.138,1.669-0.207c2.224-0.276,3.696-3.38,1.262-4.659
				c-4.007-2.105-7.909-2.652-12.349-1.828c-2.56,0.475-2.19,4.139,0,4.821c5.563,1.733,8.592-5.391,3.353-8.068
				c-1.509-0.771-3.99,0.136-3.762,2.159c0.319,2.828,1.084,4.676,2.887,6.879c1.102,1.347,3.092,0.682,3.926-0.506
				c3.221-4.588,4.581-10.207,3.486-15.756c-0.725-3.67-2.8-9.084-7.43-8.577c-5.424,0.594-5.062,9.416-4.67,13.248
				c0.312,3.05,2.029,8.552,6.201,7.674c3.777-0.795,5.279-7.742,5.644-10.921c0.507-4.407-0.124-11.213-3.754-14.349
				c-3.25-2.808-6.652-0.223-7.988,3.171c-2.231,5.666-1.311,12.64,0.84,18.139c0.59,1.509,2.143,2.339,3.673,1.494
				c3.306-1.826,2.83-7.354,2.918-10.608c0.081-3.006,1.012-8.909-2.668-10.431c-7.954-3.29-7.297,17.752-7.266,21.471
				c0.027,3.218,4.965,3.222,5,0c0.086-7.922,0.816-16.118-0.353-23.974c-0.279-1.877-3.001-2.375-4.178-1.103
				c-2.291,2.475-3.384,5.313-2.968,8.694c0.254,2.059,2.589,3.413,4.268,1.768c1.605-1.573,2.141-2.942,2.325-5.159
				c0.231-2.783-4.399-3.44-4.911-0.665c-1.316,7.143-1.648,14.236-0.871,21.467c0.347,3.23,4.608,3.193,5,0
				c0.5-4.071,0.755-8.115,0.769-12.217c0.011-3.248-4.78-3.181-5,0c-0.386,5.584-2.289,12.892,0.001,18.168
				c0.843,1.941,4.19,1.423,4.569-0.597c0.931-4.961,1.368-9.907,1.249-14.956c-0.076-3.248-4.764-3.183-5,0
				c-0.362,4.89-0.924,11.486,2.854,15.254c1.321,1.318,3.696,0.723,4.178-1.103c1.199-4.534,1.728-9.009,1.592-13.7
				c-0.082-2.817-4.085-3.395-4.911-0.665c-1.354,4.479-1.542,8.774-0.781,13.373C137.312,64.594,142.131,63.25,141.609,60.097
				L141.609,60.097z"/>
		</g>
	</g>
	<g>
		<g>
			<path fill="#D8AC1B" d="M137.651,34.979c6.896,1.673,5.978,7.422,5.656,13.109c-0.253,4.462-0.374,8.693,0.61,13.076
				c0.286,1.274,1.836,2.151,3.075,1.746c1.51-0.61,3.085-0.936,4.726-0.978c3.189-0.239,3.215-5.241,0-5
				c-2.138,0.161-4.002,0.485-6.055,1.157c1.025,0.582,2.05,1.164,3.075,1.746c-1.576-7.021,0.771-14.093-0.473-21.095
				c-0.933-5.255-4.397-7.397-9.285-8.583C135.854,29.399,134.52,34.219,137.651,34.979L137.651,34.979z"/>
		</g>
	</g>
	<g>
		<g>
			<path fill="#D8AC1B" d="M145.566,62.44c2.558,0.109,5.117,0.218,7.675,0.327c3.217,0.137,3.211-4.863,0-5
				c-2.558-0.109-5.117-0.218-7.675-0.327C142.349,57.303,142.355,62.303,145.566,62.44L145.566,62.44z"/>
		</g>
	</g>
	<g>
		<g>
			<path fill="#D8AC1B" d="M160.913,33.453c3.875,1.473,9.096,2.304,10.369,6.794c1.167,4.115,0.265,9.135-0.68,13.185
				c-0.731,3.13,4.089,4.466,4.821,1.329c1.281-5.489,2.439-12.625-0.036-17.965c-2.358-5.089-8.342-6.338-13.145-8.164
				C159.231,27.487,157.929,32.319,160.913,33.453L160.913,33.453z"/>
		</g>
	</g>
	<g>
		<g>
			<path fill="#D8AC1B" d="M175.361,56.554c0.152-5.384,1.685-12.679-0.617-17.754c-2.033-4.482-6.821-7.155-11.413-8.219
				c-3.131-0.726-4.468,4.094-1.329,4.821c4.595,1.065,8.572,3.609,8.698,8.646c0.104,4.153-0.222,8.354-0.339,12.505
				C170.271,59.773,175.271,59.77,175.361,56.554L175.361,56.554z"/>
		</g>
	</g>
	<g>
		<g>
			<path fill="#D8AC1B" d="M149.858,59.802c-0.448,2.135-0.67,4.3-0.604,6.481c0.097,3.21,5.098,3.224,5,0
				c-0.053-1.743,0.067-3.445,0.425-5.152c0.277-1.32-0.388-2.702-1.746-3.075C151.692,57.714,150.137,58.474,149.858,59.802
				L149.858,59.802z"/>
		</g>
	</g>
	<g>
		<g>
			<path fill="#D8AC1B" d="M149.818,60.854c-0.281,2.081-0.417,4.121-0.278,6.22c0.089,1.347,1.085,2.5,2.5,2.5
				c1.284,0,2.59-1.146,2.5-2.5c-0.108-1.622-0.118-3.277,0.1-4.891c0.18-1.336-0.321-2.684-1.746-3.075
				C151.729,58.788,150,59.507,149.818,60.854L149.818,60.854z"/>
		</g>
	</g>
	<g>
		<g>
			<path fill="#D8AC1B" d="M151.768,58.1c-1.903,0.21-3.798,0.25-5.697-0.036c0.612,0.804,1.224,1.607,1.835,2.411
				c-0.015-3.322,0.191-6.628,0.697-9.913c0.485-3.148-4.332-4.504-4.821-1.329c-0.576,3.732-0.893,7.464-0.876,11.242
				c0.005,0.988,0.766,2.25,1.835,2.411c2.358,0.355,4.652,0.476,7.026,0.214C154.932,62.751,154.967,57.747,151.768,58.1
				L151.768,58.1z"/>
		</g>
	</g>
</g>
<g id="レイヤー_1">
	<path fill="none" stroke="#000000" stroke-width="5" stroke-linejoin="bevel" stroke-miterlimit="10" d="M129.624,43.632
		c-1.14-0.576-2.565-0.942-4.346-0.959c-9-0.087-9.086,8.913-9.086,8.913s-0.087,9-9.086,8.913c-9-0.087-9.086,8.913-9.086,8.913
		l-9-0.087l-26.999-0.26L24.15,68.701"/>
	<path fill="none" stroke="#000000" stroke-width="5" stroke-linejoin="bevel" stroke-miterlimit="10" d="M124.996,80.018
		l0.102-10.559c0,0,2.154,0.072,4.355-0.922"/>
	<path fill="none" stroke="#000000" stroke-width="5" stroke-linejoin="bevel" stroke-miterlimit="10" d="M165.621,31.263
		c0,0-18,0-27,0s-9,9-9,9v6.245v2.755v23.465"/>
	
		<line fill="none" stroke="#000000" stroke-width="5" stroke-linejoin="bevel" stroke-miterlimit="10" x1="156.621" y1="70.299" x2="156.621" y2="58.263"/>
	<path fill="none" stroke="#000000" stroke-width="5" stroke-linejoin="bevel" stroke-miterlimit="10" d="M136.401,87.855
		c0,0-9-0.087-8.913-9.086c0.087-9,9.086-8.913,9.086-8.913l17.999,0.173c0,0,9,0.087,8.913,9.086s-9.086,8.913-9.086,8.913
		L136.401,87.855z"/>
	<path fill="none" stroke="#000000" stroke-width="5" stroke-linejoin="bevel" stroke-miterlimit="10" d="M136.228,105.854
		c0,0-9-0.087-8.913-9.086s9.086-8.913,9.086-8.913l17.999,0.173c0,0,9,0.087,8.913,9.086c-0.087,9-9.086,8.913-9.086,8.913
		L136.228,105.854z"/>
	<path fill="none" stroke="#000000" stroke-width="5" stroke-linejoin="bevel" stroke-miterlimit="10" d="M136.055,123.853
		c0,0-9-0.087-8.913-9.086c0.087-9,9.086-8.913,9.086-8.913l9,0.087c0,0,9,0.087,8.913,9.086s-9.086,8.913-9.086,8.913
		L136.055,123.853z"/>
	<path fill="none" stroke="#000000" stroke-width="5" stroke-linejoin="bevel" stroke-miterlimit="10" d="M106.738,106.704
		c0,0,17.999,0.173,18.172-17.826c0.087-9,0.087-9,0.087-9"/>
	<path fill="none" stroke="#000000" stroke-width="5" stroke-linejoin="bevel" stroke-miterlimit="10" d="M140.641,124.057
		l-21.227-0.204l-9-0.087c0,0-17.999-0.173-17.826-18.172l-44.998-0.433l-23.81-0.229"/>
	<path fill="none" stroke="#000000" stroke-width="5" stroke-linejoin="bevel" stroke-miterlimit="10" d="M140.747,31.263
		c0,0,9,0,9,9s0,18,0,18h8.575l4.454-4.454l4.546,4.454h9.425v-18c0,0,0-9-9-9S140.747,31.263,140.747,31.263z"/>
	
		<line fill="#FFFFFF" stroke="#000000" stroke-width="4" stroke-linejoin="bevel" stroke-miterlimit="10" x1="175.627" y1="42.851" x2="169.962" y2="42.851"/>
	
		<line fill="#FFFFFF" stroke="#000000" stroke-width="4" stroke-linejoin="bevel" stroke-miterlimit="10" x1="167.466" y1="42.851" x2="159.046" y2="42.851"/>
	
		<line fill="#FFFFFF" stroke="#000000" stroke-width="4" stroke-linejoin="bevel" stroke-miterlimit="10" x1="156.55" y1="42.851" x2="150.885" y2="42.851"/>
</g>
</svg>
