<?xml version="1.0" encoding="utf-8"?>
<!-- Generator: Adobe Illustrator 21.1.0, SVG Export Plug-In . SVG Version: 6.00 Build 0)  -->
<svg version="1.1" xmlns="http://www.w3.org/2000/svg" xmlns:xlink="http://www.w3.org/1999/xlink" x="0px" y="0px"
	 viewBox="0 0 198.425 141.732" enable-background="new 0 0 198.425 141.732" xml:space="preserve">
<g id="レイヤー_5">
</g>
<g id="レイヤー_2">
	<g>
		<g>
			<path fill="#F8C8AE" d="M110.554,70.545c0.555-3.307,0.637-6.623-0.565-9.819c-0.672-1.788-1.676-3.546-3.447-4.482
				c-1.691-0.893-3.914-1.458-5.779-0.756c-3.078,1.158-5.74,2.945-7.308,5.949c-1.637,3.134-1.128,6.48,1.173,9.089
				c0.076,0.086,0.152,0.173,0.229,0.259c-0.391-0.506-0.782-1.012-1.173-1.518c0.211,0.295,0.367,0.565,0.517,0.895
				c-0.252-0.597-0.504-1.194-0.756-1.792c0.117,0.343,0.189,0.647,0.238,1.006c-0.089-0.665-0.179-1.329-0.268-1.994
				c0.004,0.115,0.008,0.23,0.012,0.345c0.131,3.917,3.356,7.686,7.5,7.5c3.951-0.177,7.641-3.3,7.5-7.5
				c-0.102-3.05-1.19-5.539-3.192-7.809c0.391,3.03,0.782,6.059,1.173,9.089c0.168-0.322,0.343-0.603,0.557-0.896
				c-0.391,0.506-0.782,1.012-1.173,1.518c0.234-0.276,0.467-0.514,0.738-0.754c-0.506,0.391-1.012,0.782-1.518,1.173
				c0.382-0.292,0.765-0.525,1.201-0.728c-0.597,0.252-1.194,0.504-1.792,0.756c0.11-0.041,0.22-0.083,0.33-0.124
				c-3.075-1.746-6.151-3.492-9.226-5.238c0.302,0.803,0.513,1.607,0.647,2.455c-0.089-0.665-0.179-1.329-0.268-1.994
				c0.117,0.999,0.114,1.961-0.011,2.959c0.089-0.665,0.179-1.329,0.268-1.994c-0.023,0.139-0.047,0.279-0.07,0.418
				c-0.343,2.044-0.327,3.928,0.756,5.779c0.91,1.556,2.694,3.039,4.482,3.447c1.92,0.437,4.075,0.343,5.779-0.756
				C108.652,74.031,110.236,72.436,110.554,70.545L110.554,70.545z"/>
		</g>
	</g>
	<g>
		<g>
			<path fill="#F8C8AE" d="M25.509,76.902c24.007,0,48.014,0,72.021,0c9.652,0,9.668-15,0-15c-24.007,0-48.014,0-72.021,0
				C15.857,61.902,15.841,76.902,25.509,76.902L25.509,76.902z"/>
		</g>
	</g>
	<g>
		<g>
			<path fill="#F8C8AE" d="M106.905,63.792c-0.357-0.118-0.711-0.244-1.062-0.377c0.914,0.404,1.002,0.416,0.266,0.039
				c0.728,0.594,1.252,1.259,1.495,2.183c0.201,0.753,0.19,1.502-0.035,2.249c0.227-0.759,0.138-0.582-0.267,0.531
				c0.429-0.665,0.318-0.526-0.333,0.419c-0.881,0.606-1.084,0.762-0.606,0.466c0.496-0.287,0.247-0.19-0.746,0.293
				c-0.695,0.192-1.382,0.173-2.062-0.057c0.784,0.222,0.661,0.139-0.369-0.25c0.555,0.35,0.583,0.346,0.084-0.013
				c-0.479-0.391-0.474-0.359,0.013,0.095c-0.608-0.854-0.691-0.939-0.247-0.255c0.375,0.734,0.329,0.618-0.138-0.349
				c0.099,0.334,0.17,0.674,0.213,1.019c0.644,3.881,5.65,6.395,9.226,5.238c4.197-1.358,5.929-5.067,5.238-9.226
				c-1.521-9.164-12.61-14.261-20.109-8.467c-3.613,2.791-5.514,7.578-4.37,12.078c1.235,4.86,5.402,7.327,9.823,8.846
				c3.714,1.276,8.365-1.458,9.226-5.238C113.093,68.848,110.881,65.159,106.905,63.792L106.905,63.792z"/>
		</g>
	</g>
	<g>
		<g>
			<path fill="#F8C8AE" d="M95.165,61.505c-0.287,1.114-0.575,2.229-0.862,3.343c-0.491,1.903-0.243,4.073,0.756,5.779
				c0.91,1.556,2.694,3.039,4.482,3.447c1.92,0.437,4.075,0.343,5.779-0.756c1.629-1.05,2.952-2.563,3.447-4.482
				c0.287-1.114,0.575-2.229,0.862-3.343c0.491-1.903,0.243-4.073-0.756-5.779c-0.91-1.556-2.694-3.039-4.482-3.447
				c-1.92-0.437-4.075-0.343-5.779,0.756C96.983,58.073,95.66,59.586,95.165,61.505L95.165,61.505z"/>
		</g>
	</g>
	<g>
		<g>
			<path fill="#F8C8AE" d="M102.56,55.925c-9.242-0.04-14.379,12.102-7.662,18.599c2.822,2.73,7.835,3.019,10.607,0
				c2.711-2.953,3.013-7.693,0-10.607c-0.122-0.107-0.232-0.224-0.332-0.352c0.391,0.506,0.782,1.012,1.173,1.518
				c-0.141-0.199-0.248-0.384-0.351-0.605c0.252,0.597,0.504,1.194,0.756,1.792c-0.083-0.226-0.141-0.435-0.187-0.671
				c0.089,0.665,0.179,1.329,0.268,1.994c-0.038-0.32-0.041-0.624-0.014-0.946c-0.089,0.665-0.179,1.329-0.268,1.994
				c0.061-0.408,0.166-0.783,0.321-1.165c-0.252,0.597-0.504,1.194-0.756,1.792c0.141-0.296,0.3-0.566,0.492-0.832
				c-0.391,0.506-0.782,1.012-1.173,1.518c0.205-0.249,0.419-0.465,0.67-0.667c-0.506,0.391-1.012,0.782-1.518,1.173
				c0.198-0.137,0.385-0.246,0.602-0.35c-0.597,0.252-1.194,0.504-1.792,0.756c0.228-0.086,0.434-0.144,0.674-0.188
				c-0.665,0.089-1.329,0.179-1.994,0.268c0.16-0.022,0.322-0.029,0.483-0.02c3.924,0.017,7.681-3.462,7.5-7.5
				C109.877,59.347,106.765,55.943,102.56,55.925L102.56,55.925z"/>
		</g>
	</g>
	<g>
		<g>
			<path fill="#F8C8AE" d="M100.366,66.612c1.395-0.281,2.791-0.562,4.186-0.843c1.769-0.356,3.595-1.931,4.482-3.447
				c0.941-1.608,1.339-3.977,0.756-5.779c-0.587-1.815-1.712-3.566-3.447-4.482c-1.855-0.98-3.715-1.172-5.779-0.756
				c-1.395,0.281-2.791,0.562-4.186,0.843c-1.769,0.356-3.595,1.931-4.482,3.447c-0.941,1.608-1.339,3.977-0.756,5.779
				c0.587,1.815,1.712,3.566,3.447,4.482C96.442,66.836,98.302,67.028,100.366,66.612L100.366,66.612z"/>
		</g>
	</g>
	<g>
		<g>
			<path fill="#F8C8AE" d="M121.201,64.081c1.634-4.855,3.177-9.867,4.039-14.926c0.525-3.083,0.209-6.265-2.126-8.6
				c-2.465-2.465-6.973-3.112-9.845-0.987c-3.036,2.246-3.945,4.814-3.447,8.47c0.015,0.113,0.031,0.227,0.046,0.34
				c0.548,4.017,5.693,6.209,9.226,5.238c4.332-1.191,5.788-5.196,5.238-9.226c-0.015-0.113-0.031-0.227-0.046-0.34
				c-1.149,2.823-2.298,5.647-3.447,8.47c0.114-0.084,0.227-0.168,0.341-0.252c-1.926,0.252-3.853,0.504-5.779,0.756
				c0.138,0.022,0.277,0.045,0.415,0.067c-1.494-1.149-2.988-2.298-4.482-3.447c0.088,0.199,0.176,0.397,0.263,0.596
				c-0.341-1.262-0.683-2.524-1.024-3.785c-0.375,4.029-2.425,9.444-3.837,13.64c-1.292,3.839,1.489,8.196,5.238,9.226
				C116.073,70.445,119.904,67.934,121.201,64.081L121.201,64.081z"/>
		</g>
	</g>
	<g>
		<g>
			<path fill="#F8C8AE" d="M147.8,72.462c7.841,0.377,15.653,0.227,23.473-0.452c9.544-0.828,9.631-15.836,0-15
				c-7.82,0.679-15.633,0.829-23.473,0.452C138.15,56.998,138.174,71.999,147.8,72.462L147.8,72.462z"/>
		</g>
	</g>
	<g>
		<g>
			<path fill="#F8C8AE" d="M79.631,93.362c5.576,1.972,11.153,3.945,16.729,5.917c3.819,1.351,8.207-1.531,9.226-5.238
				c1.139-4.146-1.406-7.87-5.238-9.226c-5.576-1.972-11.153-3.945-16.729-5.917c-3.819-1.351-8.207,1.531-9.226,5.238
				C73.254,88.282,75.799,92.007,79.631,93.362L79.631,93.362z"/>
		</g>
	</g>
	<g>
		<g>
			<path fill="#F8C8AE" d="M87.846,90.283c6.609-1.041,12.914,0.973,18.334,4.675c0-4.317,0-8.635,0-12.952
				c-2.289,1.545-7.162,2.953-8.781-0.336c0.341,1.262,0.683,2.524,1.024,3.785c0.047,0.862-0.03-0.43,0.629-0.774
				c1.297-0.675,1.943-0.978,3.383-1.297c1.153-0.255,1.186,0.217,1.733-0.277c-0.223-0.836,0.069-1.57,0.874-2.203
				c1.263-0.659,2.245-0.465,2.946,0.58c-2.686-9.252-17.165-5.316-14.464,3.988c3.209,11.052,18.333,13.807,24.024,3.113
				c6.142-11.541-6.263-21.241-17.112-20.001c-9.611,1.099-21.724,11.513-15.37,21.914c5.751,9.413,20.276,10.136,28.684,4.459
				c4.839-3.267,4.794-9.677,0-12.952c-8.937-6.105-19.325-7.851-29.892-6.187c-3.992,0.629-6.243,5.639-5.238,9.226
				C79.814,89.308,83.813,90.918,87.846,90.283L87.846,90.283z"/>
		</g>
	</g>
	<g>
		<g>
			<path fill="#F8C8AE" d="M110.991,85.313c0.122,4.019,0.694,7.97,1.798,11.837c2.276,7.973,15.01,6.645,14.732-1.994
				c-0.142-4.392-0.065-8.802,0.549-13.162c-4.821,0-9.643,0-14.464,0c1.612,8.437,1.965,16.915,1.362,25.478
				c-0.372,5.276,5.065,8.007,9.494,7.232c2.214-0.387,4.429-0.768,6.646-1.131c1.208-0.198,3.843-1.144,4.944-0.747
				c-1.494-1.149-2.988-2.298-4.482-3.447c0.158,0.288,0.315,0.576,0.473,0.864c-0.341-1.262-0.683-2.524-1.024-3.785
				c-0.039,0.342-0.077,0.685-0.116,1.027c0.341-1.262,0.683-2.524,1.024-3.785c0.236-0.381,0.473-0.762,0.709-1.143
				c1.262-0.341,2.524-0.683,3.785-1.024c-2.643,0.31-5.099,0.128-7.542-1.001c-8.705-4.023-16.334,8.902-7.571,12.952
				c7.623,3.523,24.353,6.437,24.653-6.511c0.315-13.583-17.841-8.069-25.486-6.732c3.165,2.411,6.329,4.821,9.494,7.232
				c0.698-9.91-0.034-19.713-1.898-29.465c-1.335-6.987-13.432-7.329-14.464,0c-0.806,5.723-1.271,11.368-1.085,17.149
				c4.911-0.665,9.821-1.329,14.732-1.994c-0.758-2.654-1.179-5.097-1.262-7.85C125.699,75.683,110.698,75.642,110.991,85.313
				L110.991,85.313z"/>
		</g>
	</g>
	<g>
		<g>
			<path fill="#F8C8AE" d="M87.136,99.885c-0.09-0.076,0.504,1.935,0.774,2.858c0.422,1.445,0.997,2.904,1.764,4.201
				c1.642,2.78,4.242,5.11,7.095,6.607c6.81,3.572,14.331,2.518,21.557,1.094c7.087-1.397,6.355-10.197,1.792-13.708
				c-3.901-3.001-7.802-6.003-11.703-9.004c-3.213-2.472-8.399-0.493-10.261,2.691c-2.263,3.869-0.53,7.783,2.691,10.261
				c3.901,3.001,7.802,6.003,11.703,9.004c0.597-4.569,1.194-9.139,1.792-13.708c-2.954,0.582-9.426,2.418-11.708-0.756
				c-0.68-0.945-0.654-2.723-0.991-3.87c-0.721-2.456-1.936-4.627-3.896-6.276C90.4,83.103,79.736,93.661,87.136,99.885
				L87.136,99.885z"/>
		</g>
	</g>
	<g>
		<g>
			<path fill="#F8C8AE" d="M74.915,74.044c-8.572-0.057-17.145-0.115-25.717-0.172c-9.904-0.066-9.325,13.883,0,15
				c9.939,1.19,19.9,1.659,29.906,1.406c9.635-0.243,9.672-15.244,0-15c-10.007,0.252-19.968-0.216-29.906-1.406c0,5,0,10,0,15
				c8.572,0.057,17.145,0.115,25.717,0.172C84.569,89.109,84.58,74.109,74.915,74.044L74.915,74.044z"/>
		</g>
	</g>
	<g>
		<g>
			<path fill="#F8C8AE" d="M88.318,82c-21.215,0-42.431,0-63.646,0c-9.652,0-9.668,15,0,15c21.215,0,42.431,0,63.646,0
				C97.969,97,97.985,82,88.318,82L88.318,82z"/>
		</g>
	</g>
	<g>
		<g>
			<path fill="#F8C8AE" d="M32.171,93.688c0-8.095,0-16.191,0-24.286c0-9.652-15-9.668-15,0c0,8.095,0,16.191,0,24.286
				C17.171,103.34,32.171,103.356,32.171,93.688L32.171,93.688z"/>
		</g>
	</g>
	<g>
		<g>
			<path fill="#F8C8AE" d="M31.375,88.674c3.344-0.2,6.667-0.108,9.995,0.276c-1.262-4.659-2.524-9.317-3.785-13.976
				c-0.757,0.547-0.076,0.157,0.408,0.019c-1.375,0.393,1.112-0.003,0.164,0.024c-0.657,0.019,0.871,0.235,1.08,0.275
				c0.821,0.157-0.084-0.11-0.476-0.41c0.506,3.926,1.012,7.853,1.518,11.779c-0.222,0.146-0.444,0.292-0.666,0.439
				c0.609-0.342,0.644-0.386,0.105-0.13c-0.276,0.038-2.09,0.244-0.699,0.222c-1.262-4.659-2.524-9.317-3.785-13.976
				c-0.362,0.225-0.722,0.444-1.104,0.633c0.936-0.465,0.344-0.254-0.314-0.043c-0.814,0.262,0.93,0.127,0.098-0.062
				c-0.314-0.071-1.872-0.327-0.215,0.016c1.494,3.672,2.988,7.345,4.482,11.017c0.629-1.207-0.75,0.692-0.135,0.059
				c0.653-0.672-1.458,0.991-0.046,0.142c-0.572,0.344-1.136,0.48-1.801,0.49c1.667-0.026-1.572-0.482,0.033-0.003
				c3.759,1.12,8.339-1.346,9.226-5.238c0.919-4.033-1.213-8.026-5.238-9.226c-5.67-1.69-12.233,0.914-14.992,6.206
				c-2.098,4.025-0.487,9.987,4.482,11.017c4.551,0.944,9.097,0.43,13.093-2.058c2.723-1.695,4.482-5.272,3.447-8.47
				c-1.009-3.118-3.836-5.558-7.232-5.506c-3.591,0.055-6.769,1.381-9.347,3.863c-1.718,1.654-2.372,3.996-2.063,6.3
				c0.337,2.511,1.633,3.985,3.581,5.479c3.822,2.932,10.083,2.897,13.966,0.092c2.626-1.897,4.532-5.115,3.447-8.47
				c-1.103-3.409-3.79-5.109-7.232-5.506c-3.328-0.384-6.651-0.476-9.995-0.276c-3.909,0.233-7.689,3.282-7.5,7.5
				C24.048,85.037,27.18,88.924,31.375,88.674L31.375,88.674z"/>
		</g>
	</g>
	<g>
		<g>
			<path fill="#F8C8AE" d="M112.086,65.011c9.652,0,9.668-15,0-15C102.434,50.011,102.418,65.011,112.086,65.011L112.086,65.011z"/>
		</g>
	</g>
	<g>
		<g>
			<path fill="#F8C8AE" d="M118.646,60.201c9.652,0,9.668-15,0-15C108.994,45.201,108.978,60.201,118.646,60.201L118.646,60.201z"/>
		</g>
	</g>
	<g>
		<g>
			<path fill="#E8A48D" d="M118.64,40.83c3.854,0.241,2.449,8.132,2.314,10.175c-0.088,1.325,0.15,3.089-0.286,4.309
				c-0.739,2.069,0.436,0.184-1.068,1.508c-0.951,0.838-2.032,1.028-2.849,2.147c-1.139,1.559-1.315,3.534-1.44,5.406
				c-0.215,3.212,4.786,3.199,5,0c0.223-3.331,3.435-2.763,4.747-5.531c1.382-2.914,0.869-7.278,1.067-10.426
				c0.357-5.687-0.589-12.158-7.485-12.589C115.426,35.629,115.438,40.63,118.64,40.83L118.64,40.83z"/>
		</g>
	</g>
	<g>
		<g>
			<path fill="#E8A48D" d="M118.406,79.73c-0.214,0.626-0.427,1.251-0.641,1.877c-0.423,1.239,0.484,2.788,1.746,3.075
				c1.388,0.316,2.622-0.42,3.075-1.746c0.214-0.626,0.427-1.251,0.641-1.877c0.423-1.239-0.484-2.788-1.746-3.075
				C120.093,77.668,118.858,78.403,118.406,79.73L118.406,79.73z"/>
		</g>
	</g>
	<g>
		<g>
			<path fill="#E8A48D" d="M115.315,92.922c0.163,3.512,1.885,6.527,4.789,8.495c2.671,1.81,5.175-2.52,2.524-4.317
				c-1.387-0.94-2.235-2.512-2.312-4.177C120.166,89.718,115.165,89.7,115.315,92.922L115.315,92.922z"/>
		</g>
	</g>
	<g>
		<g>
			<path fill="#E8A48D" d="M119.781,96.008c-5.312,5.738-5.34,13.872-0.133,19.685c2.151,2.402,5.678-1.144,3.536-3.536
				c-3.351-3.741-3.268-8.94,0.133-12.614C125.5,97.185,121.973,93.641,119.781,96.008L119.781,96.008z"/>
		</g>
	</g>
	<g>
		<g>
			<path fill="#E8A48D" d="M122.199,113.513c-3.716-3.157-1.585-7.886,0.657-11.25c1.789-2.685-2.54-5.192-4.317-2.524
				c-3.471,5.21-5.336,12.669,0.125,17.309C121.102,119.121,124.656,115.601,122.199,113.513L122.199,113.513z"/>
		</g>
	</g>
	<g>
		<g>
			<path fill="#E8A48D" d="M118.373,98.359c-4.96,4.149-4.996,11.667-0.182,15.94c2.399,2.13,5.948-1.394,3.536-3.536
				c-2.92-2.592-2.798-6.376,0.182-8.869C124.38,99.828,120.826,96.307,118.373,98.359L118.373,98.359z"/>
		</g>
	</g>
	<g>
		<g>
			<path fill="#E8A48D" d="M119.856,112.673c-2.108-0.797-1.804-4.239-1.421-5.871c0.55-2.34,1.885-4.123,3.695-5.651
				c2.462-2.078-1.09-5.6-3.536-3.536c-5.529,4.668-8.736,16.603-0.067,19.878C121.54,118.633,122.843,113.802,119.856,112.673
				L119.856,112.673z"/>
		</g>
	</g>
	<g>
		<g>
			<path fill="#E8A48D" d="M112.627,96.425c0.367,2.365,1.683,4.624,3.558,6.111c1.057,0.838,2.504,1.032,3.536,0
				c0.87-0.87,1.064-2.692,0-3.536c-1.329-1.053-2.015-2.246-2.272-3.905c-0.207-1.335-1.881-2.074-3.075-1.746
				C112.948,93.741,112.419,95.086,112.627,96.425L112.627,96.425z"/>
		</g>
	</g>
	<g>
		<g>
			<path fill="#E8A48D" d="M101.969,99.985c8.561-0.678,13.698-7.632,14.895-15.733c0.729-4.932,0.184-9.853,0.004-14.803
				c-0.115-3.176-0.525-4.818,2.459-6.748c1.833-1.186,3.344-2.027,4.81-3.728c2.09-2.427-1.432-5.979-3.536-3.536
				c-2.155,2.502-6.031,2.874-7.791,5.621c-1.654,2.58-1.023,6.483-0.904,9.324c0.347,8.289,1.974,23.659-9.937,24.602
				C98.783,95.238,98.756,100.24,101.969,99.985L101.969,99.985z"/>
		</g>
	</g>
	<g>
		<g>
			<path fill="#E8A48D" d="M121.185,54.389c-0.203,1.741-5.045,3.033-6.43,4.078c-1.516,1.143-2.489,2.678-2.988,4.509
				c-1.319,4.836-1.1,10.419-1.528,15.394c-0.228,2.657-0.256,5.433-0.878,8.037c-0.886,3.712-2.499,4.569-5.818,6.146
				c-2.99,1.421-5.029,3.871-3.93,7.285c0.982,3.051,5.812,1.746,4.821-1.329c-0.236-0.733,5.073-3.05,5.827-3.661
				c1.281-1.036,2.183-2.399,2.868-3.882c1.774-3.843,1.754-8.464,2.109-12.596c0.235-2.732,0.47-5.463,0.705-8.195
				c0.365-4.248,0.06-6.522,4.499-8.955c3.226-1.769,5.287-2.915,5.743-6.831C126.556,51.198,121.553,51.225,121.185,54.389
				L121.185,54.389z"/>
		</g>
	</g>
	<g>
		<g>
			<path fill="#E8A48D" d="M113.978,41.258c1.77-1.31,4.373-1.129,5.589,0.866c1.672,2.744,5.998,0.234,4.317-2.524
				c-2.517-4.13-8.436-5.615-12.43-2.66c-1.093,0.809-1.616,2.156-0.897,3.42C111.17,41.438,112.895,42.059,113.978,41.258
				L113.978,41.258z"/>
		</g>
	</g>
	<g>
		<g>
			<path fill="#E8A48D" d="M112.002,41.47c1.395,0.065,3.97-0.43,5.22,0.168c2.131,1.02,2.184,3.833,2.25,5.771
				c0.139,4.145-0.305,8.268-1.107,12.331c-0.62,3.143,4.198,4.488,4.821,1.329c1.168-5.921,2.648-13.756,0.468-19.603
				c-1.96-5.257-6.986-4.778-11.652-4.996C108.785,36.32,108.793,41.32,112.002,41.47L112.002,41.47z"/>
		</g>
	</g>
	<g>
		<g>
			<path fill="#E8A48D" d="M169.66,59.767c1.575,0.511,3.806,1.965,4.16,3.73c0.631,3.143-2.216,3.925-4.504,4.396
				c-2.577,0.531-5.587,0.322-8.203,0.348c-5.663,0.058-10.976,0.156-14.958-4.493c-2.097-2.448-5.619,1.103-3.536,3.536
				c3.302,3.855,7.493,5.582,12.502,5.888c5.501,0.337,13.137,0.96,18.402-0.948c3.32-1.203,5.49-4.695,5.374-8.195
				c-0.155-4.658-3.779-7.743-7.908-9.083C167.922,53.95,166.607,58.777,169.66,59.767L169.66,59.767z"/>
		</g>
	</g>
	<g>
		<g>
			<path fill="#E8A48D" d="M19.176,96.309c21.81,0,43.619,0,65.429,0c3.217,0,3.223-5,0-5c-21.81,0-43.619,0-65.429,0
				C15.958,91.309,15.953,96.309,19.176,96.309L19.176,96.309z"/>
		</g>
	</g>
	<g>
		<g>
			<path fill="#E8A48D" d="M87.688,95.312c1.508,6.563,3.356,13.906,8.969,18.226c4.548,3.501,10.73,4.561,15.726,1.402
				c2.713-1.715,0.207-6.044-2.524-4.317c-10.399,6.574-15.726-9.569-17.351-16.64C91.789,90.849,86.967,92.175,87.688,95.312
				L87.688,95.312z"/>
		</g>
	</g>
	<g>
		<g>
			<path fill="#E8A48D" d="M112.771,108.052c-5.713,1.449-11.334,0.575-16.37-2.47c-2.761-1.669-5.277,2.653-2.524,4.317
				c6.164,3.727,13.248,4.744,20.222,2.974C117.217,112.082,115.896,107.259,112.771,108.052L112.771,108.052z"/>
		</g>
	</g>
	<path fill="none" stroke="#000000" stroke-width="5" stroke-linejoin="bevel" stroke-miterlimit="10" d="M130.883,62.833
		c0.626,0.113,1.308,0.174,2.051,0.174c9,0,9,0,9,0s9,0,9-9h-27c0,0,0,1.046,0.356,2.424"/>
	<g>
		<g>
			<path fill="#F8C8AE" d="M155.021,55.613c-0.203,0-0.406,0-0.609,0c-1.923,0-3.943,0.837-5.303,2.197
				c-0.731,0.679-1.248,1.484-1.551,2.414c-0.47,0.894-0.685,1.857-0.646,2.89c0.087,1.94,0.724,3.951,2.197,5.303
				c1.467,1.347,3.271,2.197,5.303,2.197c0.203,0,0.406,0,0.609,0c1.923,0,3.943-0.837,5.303-2.197
				c0.731-0.679,1.248-1.484,1.551-2.414c0.47-0.894,0.685-1.857,0.646-2.89c-0.087-1.94-0.724-3.951-2.197-5.303
				C158.857,56.463,157.053,55.613,155.021,55.613L155.021,55.613z"/>
		</g>
	</g>
	<g>
		<g>
			<path fill="#F8C8AE" d="M154.168,55.979c-0.264,0-0.528,0-0.792,0c-1.923,0-3.943,0.837-5.303,2.197
				c-0.731,0.679-1.248,1.484-1.551,2.414c-0.47,0.894-0.685,1.857-0.646,2.89c0.087,1.94,0.724,3.951,2.197,5.303
				c1.467,1.347,3.271,2.197,5.303,2.197c0.264,0,0.528,0,0.792,0c1.923,0,3.943-0.837,5.303-2.197
				c0.731-0.679,1.248-1.484,1.551-2.414c0.47-0.894,0.685-1.857,0.646-2.89c-0.087-1.94-0.724-3.951-2.197-5.303
				C158.004,56.829,156.2,55.979,154.168,55.979L154.168,55.979z"/>
		</g>
	</g>
	<g>
		<g>
			<path fill="#F8C8AE" d="M153.498,56.954c-0.345,0-0.69,0-1.036,0c-1.923,0-3.943,0.837-5.303,2.197
				c-0.731,0.679-1.248,1.484-1.551,2.414c-0.47,0.894-0.685,1.857-0.646,2.89c0.087,1.94,0.724,3.951,2.197,5.303
				c1.467,1.347,3.271,2.197,5.303,2.197c0.345,0,0.69,0,1.036,0c1.923,0,3.943-0.837,5.303-2.197
				c0.731-0.679,1.248-1.484,1.551-2.414c0.47-0.894,0.685-1.857,0.646-2.89c-0.087-1.94-0.724-3.951-2.197-5.303
				C157.334,57.803,155.53,56.954,153.498,56.954L153.498,56.954z"/>
		</g>
	</g>
	<g>
		<g>
			<path fill="#F8C8AE" d="M159.121,87.424c2.173-0.424-1.056-0.104,1.16-0.136c0.799-0.012,1.588-0.02,2.386,0.053
				c-1.219-0.112,1.01,0.235,1.141,0.269c0.208,0.054,2.214,0.738,1.206,0.305c3.595,1.542,8.211,1.191,10.261-2.691
				c1.704-3.225,1.159-8.61-2.691-10.261c-5.747-2.466-11.276-3.206-17.451-2.002c-3.858,0.752-6.42,5.575-5.238,9.226
				C151.224,86.294,154.987,88.23,159.121,87.424L159.121,87.424z"/>
		</g>
	</g>
	<g>
		<g>
			<path fill="#E8A48D" d="M85.465,94.414c-0.382,6.762,1.328,13.955,7.148,18.079c6.604,4.68,16.743,2.763,24.239,2.13
				c3.183-0.269,3.211-5.271,0-5c-5.706,0.482-13.123,1.867-18.699,0.127c-6.523-2.035-8.023-9.399-7.688-15.336
				C90.647,91.199,85.646,91.209,85.465,94.414L85.465,94.414z"/>
		</g>
	</g>
	<g>
		<g>
			<path fill="#E8A48D" d="M158.038,91.492c5.781-0.121,13.432,1.421,17.645-3.385c3.748-4.276,2.498-8.65-1.617-12.11
				c-2.448-2.058-6.003,1.461-3.536,3.536c1.383,1.163,3.01,2.234,2.164,4.366c-0.694,1.75-2.677,2.204-4.284,2.377
				c-3.394,0.365-6.959,0.146-10.373,0.217C154.825,86.56,154.814,91.56,158.038,91.492L158.038,91.492z"/>
		</g>
	</g>
	<g>
		<g>
			<path fill="#E8A48D" d="M161.674,68.508c-3.942-0.263-7.885-0.527-11.827-0.79c-3.212-0.215-3.199,4.786,0,5
				c3.942,0.263,7.885,0.527,11.827,0.79C164.886,73.723,164.873,68.722,161.674,68.508L161.674,68.508z"/>
		</g>
	</g>
	<g>
		<g>
			<path fill="#E8A48D" d="M177.149,90.372c3.217,0,3.223-5,0-5C173.932,85.372,173.927,90.372,177.149,90.372L177.149,90.372z"/>
		</g>
	</g>
	<g>
		<g>
			<path fill="#E8A48D" d="M175.406,84.049c0.151,1.757-0.075,3.332-0.705,4.978c-0.483,1.261,0.534,2.742,1.746,3.075
				c1.409,0.387,2.591-0.48,3.075-1.746c0.765-1.999,1.067-4.175,0.884-6.307c-0.116-1.345-1.066-2.5-2.5-2.5
				C176.643,81.549,175.289,82.696,175.406,84.049L175.406,84.049z"/>
		</g>
	</g>
</g>
<g id="レイヤー_4">
	<g>
		<g>
			<path fill="#F7F6C1" d="M129.211,100.858c-0.822-4.217-1.057-8.312-0.817-12.592c-1.254,0.72-2.508,1.439-3.762,2.159
				c3.233,1.447,4.81,7.859,5.834,10.804c1.06,3.052,5.428,1.833,4.821-1.329c-0.54-2.814-1.219-5.561-2.053-8.302
				c-0.823-2.705-4.826-2.179-4.911,0.665c-0.102,3.414-0.345,6.792-0.805,10.179c1.607,0,3.214,0,4.821,0
				c-0.59-3.775-0.87-7.566-1.004-11.383c-0.108-3.066-0.964-7.871,0.594-10.681c-1.523-0.199-3.046-0.398-4.569-0.597
				c1.002,6.983,1.83,13.983,2.505,21.005c0.313,3.251,4.599,3.172,5,0c0.676-5.339,1.179-10.694,1.66-16.054
				c0.288-3.204-4.714-3.184-5,0c-0.481,5.36-0.984,10.715-1.66,16.054c1.667,0,3.333,0,5,0c-0.718-7.467-1.619-14.909-2.684-22.334
				c-0.314-2.188-3.605-2.337-4.569-0.597c-1.95,3.516-1.426,7.578-1.326,11.473c0.125,4.847,0.484,9.651,1.233,14.443
				c0.37,2.366,4.495,2.409,4.821,0c0.52-3.833,0.868-7.639,0.983-11.508c-1.637,0.222-3.274,0.443-4.911,0.665
				c0.834,2.741,1.513,5.489,2.053,8.302c1.607-0.443,3.214-0.886,4.821-1.329c-1.564-4.501-3.382-11.667-8.131-13.792
				c-1.755-0.785-3.648,0.138-3.762,2.159c-0.264,4.706,0.095,9.301,0.995,13.921C125.005,105.343,129.825,104.007,129.211,100.858
				L129.211,100.858z"/>
		</g>
	</g>
	<g>
		<g>
			<path fill="#F7F6C1" d="M136.683,96.404c-0.275-8.512,0.278-16.93,1.748-25.322c0.375-2.141-2.472-4.626-4.178-2.432
				c-1.197,1.539-2.395,3.078-3.592,4.617c1.393,0.368,2.786,0.735,4.178,1.103c1.232-3.423,2.703-4.395,4.411-2.917
				c0.821,0.367,1.383,0.992,1.688,1.875c0.831,0.991,1.603,1.96,2.522,2.879c2.31,2.31,5.583-1.109,3.536-3.536
				c-1.745-2.068-3.287-4.226-4.709-6.524c-0.774-1.25-2.869-1.8-3.926-0.506c-5.855,7.168,2.428,11.927,7.844,15.319
				c0.421-1.553,0.841-3.106,1.262-4.659c-1.973-0.144-3.4-0.538-5.196-1.245c-1.667-0.656-3.007,0.977-3.165,2.411
				c-0.302,2.757-0.403,5.466-0.306,8.236c1.667,0,3.333,0,5,0c-0.11-2.324-0.076-4.435,0.246-6.767c-1.607,0-3.214,0-4.821,0
				c0.912,2.46,1.824,4.92,2.736,7.381c1.109,2.991,5.943,1.697,4.821-1.329c-0.912-2.46-1.824-4.92-2.736-7.381
				c-0.748-2.018-4.447-2.706-4.821,0c-0.377,2.727-0.555,5.339-0.425,8.096c0.151,3.199,5.113,3.229,5,0
				c-0.097-2.772,0.004-5.481,0.306-8.236c-1.055,0.804-2.11,1.607-3.165,2.411c2.161,0.851,4.227,1.257,6.525,1.424
				c2.596,0.189,3.233-3.424,1.262-4.659c-1.506-0.943-9.41-4.311-6.832-7.467c-1.309-0.169-2.618-0.337-3.926-0.506
				c1.651,2.666,3.469,5.139,5.491,7.536c1.179-1.179,2.357-2.357,3.536-3.536c-3.702-3.702-5.508-8.208-11.797-6.527
				c-4.316,1.153-6.521,5.358-5.181,9.554c0.511,1.599,2.948,2.685,4.178,1.103c1.197-1.539,2.395-3.078,3.592-4.617
				c-1.393-0.811-2.786-1.622-4.178-2.432c-1.548,8.833-2.216,17.685-1.927,26.651C131.787,99.613,136.787,99.627,136.683,96.404
				L136.683,96.404z"/>
		</g>
	</g>
	<g>
		<g>
			<path fill="#F7F6C1" d="M146.403,87.152c2.249-4.712,4.889-9.889,0.47-14.221c-1.01,1.309-2.02,2.618-3.03,3.926
				c1.013,0.551,2.48,1.051,3.337,1.815c1.42,1.266,1.401,0.865,1.178,3.222c-0.245,2.588-0.49,5.175-0.735,7.763
				c1.553-0.421,3.106-0.841,4.659-1.262c-1.436-1.942-2.66-3.915-3.764-6.064c-1.308-2.547-5.314-0.773-4.569,1.926
				c1.702,6.169,4.339,11.635,11.308,12.401c2.194,0.241,3.245-2.872,1.768-4.268c-1.251-1.182-2.54-2.221-3.931-3.23
				c-2.003-1.452-4.83,1.42-3.42,3.42c0.859,1.219,1.717,2.437,2.576,3.656c0.941-1.224,1.882-2.448,2.823-3.672
				c-4.5-0.681-8.5-2.017-12.474-4.271c-0.421,1.553-0.841,3.106-1.262,4.659c1.625-0.205,2.514-0.445,4.018-1.089
				c2.742-1.173,0.679-5.09-1.926-4.569c-3.259,0.651-6.383,1.55-9.491,2.732c-1.614,0.614-2.647,2.831-1.103,4.178
				c2.484,2.169,5.009,3.663,8.093,4.826c0.443-1.607,0.886-3.214,1.329-4.821c-2.125-0.689-3.636-1.444-5.471-2.625
				c-0.421,1.553-0.841,3.106-1.262,4.659c3.275,0.248,6.5,0.795,9.631,1.802c0.834,0.268,4.422,2.117,4.074,1.138
				c0.177,0.496-1.037,3.116-1.105,3.565c-0.2,1.323,0.465,4.392,0.224,4.669c-1.424,1.641-7.648,2.516-9.849,2.861
				c-2.839,0.446-2.078,4.897,0.665,4.911c1.025,0.005,2.05,0.01,3.075,0.016c-0.222-1.637-0.443-3.274-0.665-4.911
				c-7.523,1.827-12.775,1.422-18.252-4.374c-4.315-4.567-8.836-9.656-8.857-16.307c-0.035-10.922,14.311-26.896,25.961-19.987
				c0.421-1.553,0.841-3.106,1.262-4.659c-4.752,0.09-10.702-0.801-14.878,1.975c-3.566,2.37-5.701,6.635-7.087,10.552
				c-1.537,4.344-2.774,9.628-1.666,14.219c1.217,5.044,4.986,8.792,8.651,12.211c0.368-1.393,0.735-2.786,1.103-4.178
				c-8.32,1.952-9.999-23.44,2.24-23.437c-0.72-1.254-1.439-2.508-2.159-3.762c-5.314,7.726-8.968,16.26-10.899,25.435
				c1.607,0.443,3.214,0.886,4.821,1.329c1.171-5.922,2.884-11.625,5.172-17.212c1.219-2.976-3.616-4.271-4.821-1.329
				c-2.288,5.587-4.002,11.289-5.172,17.212c-0.62,3.136,4.156,4.49,4.821,1.329c1.853-8.806,5.295-16.827,10.395-24.241
				c1.099-1.598-0.37-3.761-2.159-3.762c-18.437-0.004-18.302,37.339-0.911,33.259c1.806-0.424,2.454-2.919,1.103-4.178
				c-2.437-2.274-5.14-4.667-6.585-7.739c-1.83-3.888-0.796-8.434,0.408-12.362c0.96-3.131,2.714-7.709,5.805-9.412
				c3.057-1.685,8.516-0.845,11.816-0.908c2.467-0.047,3.418-3.38,1.262-4.659c-14.362-8.517-32.464,8.411-33.428,22.62
				c-0.598,8.808,4.546,15.445,10.265,21.527c6.755,7.184,13.786,7.926,23.117,5.66c2.765-0.671,2.135-4.897-0.665-4.911
				c-1.025-0.005-2.05-0.01-3.075-0.016c0.222,1.637,0.443,3.274,0.665,4.911c3.868-0.608,9.784-1.844,12.705-4.756
				c1.036-1.033,1.226-1.641,1.293-3.129c0.021-0.473-0.315-0.837-0.341-1.262c-0.145-2.3,0.304-3.935,0.665-6.105
				c1.19-7.157-13.983-8.253-18.627-8.605c-2.619-0.198-3.2,3.411-1.262,4.659c2.121,1.365,4.278,2.355,6.666,3.129
				c3.102,1.005,4.29-3.704,1.329-4.821c-2.354-0.888-3.992-1.887-5.886-3.54c-0.368,1.393-0.735,2.786-1.103,4.178
				c3.106-1.182,6.23-2.081,9.491-2.732c-0.642-1.523-1.284-3.046-1.926-4.569c-0.498,0.135-0.996,0.271-1.495,0.406
				c-2.278,0.287-3.63,3.315-1.262,4.659c4.306,2.442,8.77,4.033,13.668,4.775c1.902,0.288,4.224-1.684,2.823-3.673
				c-0.859-1.219-1.717-2.437-2.576-3.656c-1.14,1.14-2.28,2.28-3.42,3.42c1.053,0.722,2.026,1.538,2.919,2.448
				c0.589-1.423,1.179-2.845,1.768-4.268c-4.288-0.471-5.542-5.309-6.486-8.73c-1.523,0.642-3.046,1.284-4.569,1.926
				c1.104,2.149,2.328,4.121,3.764,6.064c1.5,2.029,4.417,1.295,4.659-1.262c0.31-3.281,1.915-8.707,0.813-11.853
				c-0.993-2.833-4.611-3.927-7.069-5.265c-2.449-1.332-5.107,1.89-3.03,3.926c2.451,2.403-0.176,5.908-1.252,8.162
				C140.706,87.518,145.016,90.058,146.403,87.152L146.403,87.152z"/>
		</g>
	</g>
	<g>
		<g>
			<path fill="#F7F6C1" d="M126.246,100.23c-9.156-3.83-8.016-15.046-2.582-21.616c2.036-2.462-1.482-6.018-3.536-3.536
				c-8.072,9.762-8.049,24.603,4.789,29.973C127.881,106.292,129.175,101.456,126.246,100.23L126.246,100.23z"/>
		</g>
	</g>
	<g>
		<g>
			<path fill="#F7F6C1" d="M117.947,103.137c4.056,3.657,11.234,10.938,17.185,9.911c3.235-0.558,7.748-2.654,10.459-4.447
				c0.96-0.635,1.714-1.128,2.143-2.206c0.637-1.597-0.507-4.443,1.533-5.415c-0.841,0-1.682,0-2.524,0
				c-0.069,2.646-1.659,4.187-4.771,4.623c-1.084,0.077-2.17,0.133-3.256,0.168c-1.629,0.05-6.022,0.686-7.188-0.423
				c-1.021-0.085-1.135-0.2-0.343-0.345c0.992-0.33,1.997-0.613,3.016-0.849c3.133-0.61,6.247-0.314,7.704,2.956
				c0.498-1.224,0.996-2.448,1.494-3.672c-3.724,0.604-6.731-1.303-8.38-4.491c-0.498,1.224-0.996,2.448-1.494,3.673
				c0.985-0.348,7.315-2.557,7.148,0.6c0.612-0.804,1.224-1.607,1.835-2.411c-2.287,0.486-4.487,1.129-6.63,2.07
				c-0.261,0.115-3.105,1.127-3.25,1.64c-0.679,2.404,1.872,1.626,3.021,1.243c1.708-0.57,3.359-1.151,4.752-2.349
				c2.626-2.259,3.877-5.21,8.075-4.536c-0.498-1.224-0.996-2.448-1.494-3.672c-0.369,0.537-0.738,1.074-1.107,1.611
				c-2.077,2.436,1.444,5.989,3.536,3.536c0.811-0.951,1.262-1.542,1.889-2.623c0.736-1.269,0.136-3.411-1.494-3.672
				c-3.777-0.606-7.36,0.04-10.213,2.784c-2.569,2.471-4.364,3.518-7.634,4.811c-1.202,0.475-2.476,1.023-3.229,2.132
				c-1.457,2.146-0.671,5.103,1.878,5.914c1.388,0.441,2.681-0.046,3.973-0.588c3.192-1.338,5.821-2.748,9.257-3.479
				c1.11-0.236,1.779-1.355,1.835-2.411c0.403-7.598-8.42-7.207-13.477-5.421c-1.569,0.554-2.274,2.165-1.494,3.672
				c2.79,5.395,8.149,7.742,14.027,6.789c1.753-0.284,2.077-2.365,1.494-3.673c-1.838-4.124-6.002-5.947-10.38-5.679
				c-3.296,0.202-8.946,1.178-10.433,4.685c-3.856,9.095,16.848,7.74,20.763,6.129c3.836-1.579,5.766-5.381,5.113-9.464
				c-0.417-2.605-2.238-5.006-5.071-3.344c-1.678,0.984-2.773,3.276-3.124,5.116c-0.535,2.803-0.231,2.348-3.153,3.677
				c-1.429,0.65-3.836,2.343-5.435,2.424c-1.529,0.077-3.261-1.256-4.475-2.01c-3.061-1.902-5.872-4.109-8.545-6.52
				C119.098,97.451,115.551,100.977,117.947,103.137L117.947,103.137z"/>
		</g>
	</g>
	<g>
		<g>
			<path fill="#D4D379" d="M136.77,78.305c0,3.158,0,6.316,0,9.475c0,3.217,5,3.223,5,0c0-3.158,0-6.316,0-9.475
				C141.77,75.088,136.77,75.083,136.77,78.305L136.77,78.305z"/>
		</g>
	</g>
	<g>
		<g>
			<path fill="#D4D379" d="M138.951,94.492c2.269-1.094,4.582-2.057,6.956-2.901c3.01-1.071,1.713-5.903-1.329-4.821
				c-2.776,0.987-5.496,2.125-8.15,3.405C133.53,91.572,136.062,95.885,138.951,94.492L138.951,94.492z"/>
		</g>
	</g>
	<g>
		<g>
			<path fill="#D4D379" d="M140.124,92.031c0.063-1.888-0.003-3.767-0.197-5.646c-0.139-1.343-1.049-2.5-2.5-2.5
				c-1.244,0-2.64,1.149-2.5,2.5c0.195,1.879,0.26,3.758,0.197,5.646C135.017,95.249,140.017,95.245,140.124,92.031L140.124,92.031z
				"/>
		</g>
	</g>
	<g>
		<g>
			<path fill="#D4D379" d="M124.993,110.219c-7.397-6.071-10.69-16.217-8.859-25.605c0.918-4.707,3.61-8.151,7.231-11.16
				c4.188-3.481,10.511-8.853,16.205-6.942c3.057,1.026,4.369-3.801,1.329-4.821c-6.94-2.329-12.854,2.061-18.224,6.019
				c-4.401,3.244-8.61,7.083-10.501,12.364c-4.125,11.521-0.102,25.978,9.283,33.681
				C123.925,115.78,127.482,112.262,124.993,110.219L124.993,110.219z"/>
		</g>
	</g>
	<g>
		<g>
			<path fill="#D4D379" d="M143.504,61.741c-6.48-0.323-13.168-0.163-18.554,3.906c-2.536,1.915-0.047,6.259,2.524,4.317
				c4.725-3.569,10.369-3.506,16.031-3.223C146.72,66.902,146.711,61.901,143.504,61.741L143.504,61.741z"/>
		</g>
	</g>
	<g>
		<g>
			<path fill="#D4D379" d="M129.214,69.118c2.438-0.429,4.508-1.561,6.828-2.363c1.447-0.499,5.718-1.945,7.145-0.907
				c2.606,1.895,5.104-2.441,2.524-4.317c-2.071-1.506-5.516-0.836-7.857-0.415c-3.481,0.626-6.503,2.571-9.969,3.18
				C124.722,64.854,126.062,69.673,129.214,69.118L129.214,69.118z"/>
		</g>
	</g>
	<g>
		<g>
			<path fill="#D4D379" d="M144.292,63.103c-5.574-0.899-13.962-3.025-17.894,2.227c-1.929,2.577,2.409,5.072,4.317,2.524
				c1.065-1.422,4.558-0.741,6.065-0.641c2.075,0.137,4.13,0.381,6.183,0.712C146.11,68.432,147.465,63.614,144.292,63.103
				L144.292,63.103z"/>
		</g>
	</g>
	<g>
		<g>
			<path fill="#D4D379" d="M143.975,55.286c-1.396-0.008-2.792-0.015-4.188-0.023c-2.703-0.015-3.104,3.255-1.262,4.659
				c0.556,0.427,1.042,0.921,1.458,1.482c0.589-1.423,1.179-2.845,1.768-4.268c-3.376,0.095-9.618,0.891-12.369-1.49
				c-0.368,1.393-0.735,2.786-1.103,4.178c3.756-0.674,7.595-0.227,11.387-0.349c3.21-0.103,3.224-5.103,0-5
				c-4.275,0.137-8.479-0.234-12.716,0.527c-1.807,0.324-2.461,3.003-1.103,4.178c4.155,3.596,10.75,3.1,15.905,2.954
				c2.285-0.064,3.142-2.632,1.768-4.268c-0.749-0.892-1.549-1.562-2.47-2.264c-0.421,1.553-0.841,3.106-1.262,4.659
				c1.396,0.008,2.792,0.015,4.188,0.023C147.193,60.304,147.197,55.304,143.975,55.286L143.975,55.286z"/>
		</g>
	</g>
	<g>
		<g>
			<path fill="#D4D379" d="M135.405,95.367c1.547,1.428,3.42,1.398,5.248,0.51c2.037-0.989,3.988-2.225,5.964-3.331
				c2.808-1.572,0.29-5.892-2.524-4.317c-1.107,0.62-2.215,1.24-3.322,1.86c-0.554,0.31-1.106,0.622-1.661,0.93
				c-0.185,0.103-0.369,0.207-0.554,0.31c-0.689,0.239-0.561,0.406,0.384,0.503C136.58,89.651,133.035,93.179,135.405,95.367
				L135.405,95.367z"/>
		</g>
	</g>
	<g>
		<g>
			<path fill="#D4D379" d="M139.708,92.525c0.123-1.008,0.247-2.016,0.37-3.024c0.16-1.303-1.264-2.555-2.5-2.5
				c-1.491,0.067-2.329,1.104-2.5,2.5c-0.123,1.008-0.247,2.016-0.37,3.024c-0.16,1.303,1.264,2.555,2.5,2.5
				C138.698,94.958,139.536,93.921,139.708,92.525L139.708,92.525z"/>
		</g>
	</g>
	<g>
		<g>
			<path fill="#D4D379" d="M137.414,112.413c3.217,0,3.223-5,0-5C134.197,107.413,134.192,112.413,137.414,112.413L137.414,112.413z
				"/>
		</g>
	</g>
	<g>
		<g>
			<path fill="#D4D379" d="M127.208,108.586c3.217,0,3.223-5,0-5C123.991,103.586,123.985,108.586,127.208,108.586L127.208,108.586z
				"/>
		</g>
	</g>
	<g>
		<g>
			<path fill="#D4D379" d="M119.075,100.134c3.217,0,3.223-5,0-5C115.857,95.134,115.852,100.134,119.075,100.134L119.075,100.134z"
				/>
		</g>
	</g>
	<g>
		<g>
			<path fill="#D4D379" d="M116.523,91.841c3.217,0,3.223-5,0-5C113.306,86.841,113.3,91.841,116.523,91.841L116.523,91.841z"/>
		</g>
	</g>
	<g>
		<g>
			<path fill="#D4D379" d="M120.51,82.113c3.217,0,3.223-5,0-5C117.293,77.113,117.287,82.113,120.51,82.113L120.51,82.113z"/>
		</g>
	</g>
	<g>
		<g>
			<path fill="#D4D379" d="M127.208,74.617c3.217,0,3.223-5,0-5C123.991,69.617,123.985,74.617,127.208,74.617L127.208,74.617z"/>
		</g>
	</g>
	<g>
		<g>
			<path fill="#D4D379" d="M138.052,71.268c3.217,0,3.223-5,0-5C134.835,66.268,134.83,71.268,138.052,71.268L138.052,71.268z"/>
		</g>
	</g>
	<g>
		<g>
			<path fill="#D4D379" d="M148.099,109.383c3.217,0,3.223-5,0-5C144.882,104.383,144.877,109.383,148.099,109.383L148.099,109.383z
				"/>
		</g>
	</g>
	<g>
		<g>
			<path fill="#F7F6C1" d="M134.065,76.706c2.817,0.066,5.634,0.131,8.451,0.197c3.219,0.075,3.218-4.925,0-5
				c-2.817-0.066-5.634-0.131-8.451-0.197C130.846,71.631,130.848,76.631,134.065,76.706L134.065,76.706z"/>
		</g>
	</g>
	<g>
		<g>
			<path fill="#F7F6C1" d="M129.352,75.786c-0.148,7.451,0.025,14.886,0.521,22.322c0.213,3.194,5.214,3.218,5,0
				c-0.495-7.436-0.669-14.871-0.521-22.322C134.416,72.567,129.416,72.567,129.352,75.786L129.352,75.786z"/>
		</g>
	</g>
	<g>
		<g>
			<path fill="#F7F6C1" d="M130.079,97.741c3.217,0,3.223-5,0-5C126.861,92.741,126.856,97.741,130.079,97.741L130.079,97.741z"/>
		</g>
	</g>
	<g>
		<g>
			<path fill="#F7F6C1" d="M132.628,97.749c1.328-0.122,2.77,1.296,3.827,2.019c1.418,0.97,2.835,1.94,4.252,2.911
				c2.661,1.824,5.164-2.507,2.524-4.317c-1.821-1.249-3.641-2.499-5.467-3.742c-1.563-1.064-3.167-2.051-5.135-1.871
				C129.45,93.04,129.419,98.043,132.628,97.749L132.628,97.749z"/>
		</g>
	</g>
	<g>
		<g>
			<path fill="#F7F6C1" d="M138.221,101.687c2.099,0.273,3.926-0.435,5.8-1.309c2.091-0.976,4.067-1.763,6.346-2.194
				c3.158-0.598,1.821-5.418-1.329-4.821c-1.851,0.35-3.612,0.886-5.336,1.645c-1.808,0.796-3.424,1.947-5.48,1.68
				C135.039,96.274,135.069,101.278,138.221,101.687L138.221,101.687z"/>
		</g>
	</g>
</g>
<g id="レイヤー_1">
	<path fill="none" stroke="#000000" stroke-width="5" stroke-linejoin="bevel" stroke-miterlimit="10" d="M152.899,74.078
		c0,0-9-0.087-8.913-9.086s9.086-8.913,9.086-8.913l17.999,0.173c0,0,9,0.087,8.913,9.086c-0.087,9-9.086,8.913-9.086,8.913
		L152.899,74.078z"/>
	<path fill="none" stroke="#000000" stroke-width="5" stroke-linejoin="bevel" stroke-miterlimit="10" d="M161.898,92.498
		c0,0-9-0.087-8.913-9.086s9.086-8.913,9.086-8.913l9,0.087c0,0,9,0.087,8.913,9.086c-0.087,9-9.086,8.913-9.086,8.913
		L161.898,92.498z"/>
	<path fill="none" stroke="#000000" stroke-width="5" stroke-linejoin="bevel" stroke-miterlimit="10" d="M99.768,99.802
		c0,0,5.594,0.054,10.574-3.017"/>
	<path fill="none" stroke="#000000" stroke-width="5" stroke-linejoin="bevel" stroke-miterlimit="10" d="M133.671,116.951
		l-21.227-0.087l-9-0.087c0,0-17.999-0.173-17.826-18.172L40.62,98.173l-23.81-0.229"/>
	<path fill="none" stroke="#000000" stroke-width="5" stroke-linejoin="bevel" stroke-miterlimit="10" d="M127.135,53.857
		c0.087-9,0.087-9,0.087-9s0.087-9-8.913-9.086c-9-0.087-9.086,8.913-9.086,8.913s-0.087,9-9.086,8.913
		c-9-0.087-9.086,8.913-9.086,8.913l-9-0.087l-26.999-0.26L17.18,61.799"/>
	<path fill="none" stroke="#000000" stroke-width="5" stroke-linejoin="bevel" stroke-miterlimit="10" d="M118.026,71.024
		l0.102-8.467c0,0,4.68,0.157,7.294-3.177"/>
</g>
<g id="レイヤー_3">
	<path fill="none" stroke="#000000" stroke-width="5" stroke-miterlimit="10" d="M155.135,110.612
		c-4.744,4.11-10.932,6.597-17.701,6.597c-14.936,0-27.044-12.108-27.044-27.044s12.108-27.044,27.044-27.044
		c2.286,0,4.506,0.284,6.626,0.818"/>
	<polyline fill="none" stroke="#000000" stroke-width="5" stroke-linejoin="bevel" stroke-miterlimit="10" points="137.434,75.987 
		137.434,91.582 146.564,87.528 	"/>
	<path fill="none" stroke="#000000" stroke-width="5" stroke-linejoin="bevel" stroke-miterlimit="10" d="M143.985,62.833
		c-0.626,0.113-1.308,0.174-2.051,0.174c-9,0-9,0-9,0s-9,0-9-9h27c0,0,0,1.046-0.356,2.424"/>
	<path fill="none" stroke="#000000" stroke-width="5" stroke-linejoin="bevel" stroke-miterlimit="10" d="M150.934,54.007
		c0,0,0,1.046-0.356,2.424"/>
	
		<line fill="none" stroke="#000000" stroke-width="5" stroke-linejoin="bevel" stroke-miterlimit="10" x1="137.434" y1="54.007" x2="137.434" y2="63.007"/>
	<path fill="none" stroke="#000000" stroke-width="5" stroke-miterlimit="10" d="M137.434,51.785c0,0,0-9,9-9s9,9,9,9
		s0,2.136,1.04,4.326"/>
	<g>
		<g>
			<path fill="#F8C8AE" d="M151.01,112.639c3.235,0.039,6.518,0.14,9.748-0.069c5.959-0.386,9.637-4.917,8.56-10.822
				c-0.706-3.869-5.608-6.409-9.226-5.238c-4.147,1.342-5.995,5.081-5.238,9.226c0.025,0.134,0.049,0.269,0.074,0.403
				c0-1.329,0-2.658,0-3.988c-0.052,0.132-0.104,0.265-0.156,0.397c0.643-1.103,1.286-2.206,1.929-3.31
				c-0.105,0.1-0.21,0.2-0.315,0.301c1.103-0.643,2.206-1.286,3.31-1.929c0.881-0.02,0.984-0.023,0.31-0.008
				c-0.428,0.01-0.856,0.018-1.285,0.025c-0.857,0.015-1.713,0.024-2.57,0.03c-1.713,0.012-3.427,0.002-5.14-0.019
				c-3.924-0.048-7.68,3.484-7.5,7.5C143.694,109.243,146.805,112.588,151.01,112.639L151.01,112.639z"/>
		</g>
	</g>
	<g>
		<g>
			<path fill="#E8A48D" d="M150.101,112.374c4.114,0.014,8.367,0.35,12.467,0.022c2.488-0.2,4.452-1.599,5.5-3.86
				c1.091-2.355,1.109-5.681,0.487-8.181c-0.76-3.054-3.089-3.23-5.009-5.183c-2.26-2.298-5.794,1.238-3.536,3.536
				c0.881,0.896,2.187,1.241,3.031,2.065c1.145,1.118,1.325,4.722,0.253,5.925c-1.193,1.338-4.351,0.708-6.115,0.701
				c-2.359-0.008-4.719-0.016-7.078-0.024C146.883,107.363,146.879,112.363,150.101,112.374L150.101,112.374z"/>
		</g>
	</g>
	<path fill="none" stroke="#000000" stroke-width="5" stroke-linejoin="bevel" stroke-miterlimit="10" d="M152.686,113.477
		c0,0-9-0.087-8.913-9.086c0.087-9,9.086-8.913,9.086-8.913l9,0.087c0,0,9,0.087,8.913,9.086c-0.087,9-9.086,8.913-9.086,8.913
		L152.686,113.477z"/>
</g>
</svg>
