<?xml version="1.0" encoding="utf-8"?>
<!-- Generator: Adobe Illustrator 22.1.0, SVG Export Plug-In . SVG Version: 6.00 Build 0)  -->
<svg version="1.1" id="レイヤー_1" xmlns="http://www.w3.org/2000/svg" xmlns:xlink="http://www.w3.org/1999/xlink" x="0px"
	 y="0px" viewBox="0 0 800 400" enable-background="new 0 0 800 400" xml:space="preserve">
<rect fill="#FFFFFF" width="800" height="400"/>
<g>
	<path d="M298.4238,94.1666l-2.8564-13.8198h-15.9385l-2.3955,13.8198c-1.1973,7.8311,1.1973,12.8984,6.7256,13.8198h-18.5186
		c5.5283-0.9214,8.8447-5.9888,10.6875-13.8198l10.2266-50.4888c0.6445-3.1323,0.4609-5.9888-0.0918-8.937
		c2.3955,0,5.8965-0.7368,7.8311-1.9346l12.5303,61.3604c1.75,8.7524,4.2373,12.8984,9.7656,13.8198h-23.7705
		C298.1475,107.0651,299.8984,102.9191,298.4238,94.1666z M295.4756,79.8859L287.46,40.5455l-7.7393,39.3403H295.4756z"/>
	<path d="M336.6533,34.2804h12.8984c15.2949,0,24.416,18.2422,24.416,36.853s-9.1211,36.9453-24.416,36.853h-12.8984
		c4.6074-0.9214,5.0674-5.6201,5.0674-13.8198V48.1002C341.7207,39.9005,341.2607,35.2018,336.6533,34.2804z M364.293,71.1334
		c0-10.4111-2.4873-36.3926-14.7412-36.3926v72.7852C361.8057,107.526,364.293,81.5445,364.293,71.1334z"/>
	<path d="M411.7363,80.2545v13.9121c0,8.1997,0.4609,12.8984,5.0674,13.8198h-17.9658c4.6064-0.9214,5.0674-5.6201,5.0674-13.8198
		V48.1002c0-8.1997-0.4609-12.8984-5.0674-13.8198h12.8984c17.1367,0,24.416,9.9502,24.416,23.0332
		S428.873,80.3468,411.7363,80.2545z M411.7363,79.7941c12.2539,0,14.7412-13.8203,14.7412-22.4805
		c0-8.8447-2.4873-22.5728-14.7412-22.5728V79.7941z"/>
	<path d="M460.1006,104.9459c0-2.2109,1.8428-3.9614,4.0537-3.9614c2.0273,0,3.8691,1.7505,3.8691,3.9614
		c0,2.2114-1.75,3.9619-3.8691,3.9619C461.9434,108.9078,460.1006,107.1573,460.1006,104.9459z"/>
	<path d="M512.5215,53.628c0,7.1865-3.04,18.9795-13.082,19.3481v18.4263h-0.4609V72.5153c4.4219,0,5.7119-13.0825,5.7119-18.8872
		c0-5.8042-0.4609-18.8872-5.7119-18.8872c-4.0537,0-5.7119,2.4878-5.8965,4.0542c0.5527-0.3687,1.29-0.5527,2.0264-0.5527
		c2.0273,0,3.8701,1.7505,3.8701,3.9614c0,2.2114-1.751,3.9619-3.8701,3.9619c-2.3945,0-4.0537-1.9351-4.0537-4.9751
		c0-3.3169,2.2119-6.9102,8.8447-6.9102C510.3105,34.2804,512.5215,46.3497,512.5215,53.628z M503.124,104.9459
		c0,2.2114-1.75,3.9619-3.8691,3.9619c-2.2109,0-4.0537-1.7505-4.0537-3.9619c0-2.2109,1.8428-3.9614,4.0537-3.9614
		C501.2812,100.9845,503.124,102.735,503.124,104.9459z"/>
	<path d="M75.8057,220.1818c-0.3682,1.8418-2.3955,4.2373-6.3564,4.2373c-1.8428,0-3.1328-0.46-4.1465-1.1973
		c-1.29,0.6445-2.9482,1.1973-4.8828,1.1973c-8.7529,0-11.7012-7.5547-11.7012-14.833s2.9482-14.6489,11.7012-14.6489h9.3975
		v21.5591c0,1.3818,0.2764,5.8047,1.0137,7.3701c2.1191-0.2764,4.1455-1.9346,4.5146-3.6846H75.8057z M61.3408,223.9591
		c1.1064,0,2.4883-0.4609,3.6855-1.1055c-1.75-1.751-2.1191-4.9756-2.1191-9.3975v-18.0586h-1.5664
		c-4.2373,0-4.79,8.3848-4.79,14.1885C56.5508,215.3907,57.1035,223.9591,61.3408,223.9591z"/>
	<path d="M96.0703,209.6788c0-7.2783,2.9482-14.7417,12.1621-14.7417c5.7119,0,7.4629,5.2515,7.4629,7.9233h-0.4609
		c0-2.3955-1.751-7.4629-7.002-7.4629c-4.1465,0-4.3301,8.4766-4.3301,14.2812c0,5.8037,0.1836,14.2803,4.3301,14.2803
		c5.251,0,7.002-5.0674,7.002-7.4629h0.4609c0,2.6719-1.751,7.9229-7.4629,7.9229
		C99.0186,224.4191,96.0703,216.9572,96.0703,209.6788z"/>
	<path d="M166.2715,220.1818c-0.3682,1.8418-2.5801,4.2373-6.541,4.2373c-1.8428,0-3.1328-0.46-4.0537-1.4736
		c-1.29,0.8291-3.1328,1.4736-5.252,1.4736c-8.7529,0-11.7012-7.5547-11.7012-14.833s2.9482-14.6489,11.7012-14.6489h3.4092
		l-0.0928-37.7744c0-4.3301-1.1973-5.3438-2.7637-6.0806c2.9482,0,6.9102-1.1978,9.3057-3.1328v68.5469
		c0,1.3818,0.2764,5.8047,1.0137,7.3701c2.1182-0.2764,4.1455-1.9346,4.5137-3.6846H166.2715z M155.4004,222.6691
		c-1.3828-1.751-1.5664-4.9756-1.5664-9.2129v-18.0586h-2.4883c-4.2373,0-4.79,8.3848-4.79,14.1885
		c0,5.8047,0.5527,14.373,4.79,14.373C152.5439,223.9591,154.1104,223.4064,155.4004,222.6691z"/>
	<path d="M207.542,216.4962h0.46c0,2.3027-2.2109,7.9229-8.8447,7.9229c-9.6738,0-12.6221-7.4619-12.6221-14.7402
		s3.4092-14.7417,11.7012-14.7417s10.5029,7.4634,10.5029,12.8989h-14.3721v1.8428c0,5.8037,0.1836,14.2803,4.79,14.2803
		C205.3301,223.9591,207.542,218.5226,207.542,216.4962z M194.3672,207.3751h7.4619c0-4.6982-0.46-11.9775-3.5928-11.9775
		C195.3799,195.3976,194.5508,201.8468,194.3672,207.3751z"/>
	<path d="M255.9082,155.965c0,2.856-2.0273,4.8828-4.791,4.8828c-2.8564,0-4.8828-2.0269-4.8828-4.8828
		c0-2.7642,2.2109-4.791,4.8828-4.791c-0.9209-0.4604-2.1191-0.9214-3.8691-0.9214c-3.2246,0-3.9619,3.7778-3.9619,8.8447v38.604
		h6.9102v0.4604h-6.9102v42.9341c0,7.002-0.9219,10.9639-6.542,10.9639c-3.9609,0-5.9883-2.3955-6.3564-4.2383h0.46
		c0.3691,1.75,2.3955,3.4082,4.5146,3.6846c0.7373-1.5654,1.0137-5.9883,1.0137-7.3701v-45.9741h-4.1455v-0.4604h4.1455v-33.5366
		c0-7.0942,1.751-14.3726,10.8721-14.3726C250.9326,149.7921,255.9082,151.3585,255.9082,155.965z"/>
	<path d="M301.1416,220.1818c-0.3682,1.8418-2.3955,4.2373-6.3574,4.2373c-5.6201,0-6.541-3.9609-6.541-10.9629v-9.2139
		c0-5.0674-0.2764-8.8447-3.04-8.8447c-2.1191,0-3.7773,0.4609-5.3438,1.7505v13.4517c0,8.1992,0.3682,12.1611,4.1455,12.8984
		h-14.7412c3.7773-0.7373,4.1465-4.6992,4.1465-12.8984v-53.437c0-4.3301-1.1982-5.3438-2.7646-6.0806
		c2.9482,0,6.9102-1.1978,9.3057-3.1328v9.2134l-0.0918,39.5249c1.3818-1.0137,3.04-1.7505,5.3438-1.7505
		c8.6602,0,9.9502,4.791,9.9502,11.8853v9.6738c0,1.3818,0.2764,5.8047,1.0137,7.3701c2.1182-0.2764,4.1455-1.9346,4.5137-3.6846
		H301.1416z"/>
	<path d="M323.71,210.5997v-7.3701c0-4.3311-1.1982-5.3442-2.7637-6.0815c2.9482,0,6.9092-1.1978,9.3047-3.1323v9.2139
		l-0.0918,7.3701c0,8.1992,0.3682,12.1611,4.1455,12.8984h-14.7412C323.3418,222.7609,323.71,218.799,323.71,210.5997z
		 M322.0518,180.38c0-2.5796,2.2109-4.791,4.8828-4.791c2.5801,0,4.791,2.2114,4.791,4.791c0,2.6719-2.2109,4.8833-4.791,4.8833
		C324.2627,185.2633,322.0518,183.0519,322.0518,180.38z"/>
	<path d="M358.7178,210.5997l0.0918-53.3447c0-4.3306-1.1973-5.3438-2.7637-6.0811c2.9482,0,7.2783-1.1978,9.6738-3.1323v9.2134
		l-0.0918,53.3447c0,8.1992,0.3682,12.1611,4.1455,12.8984h-15.2021C358.3496,222.7609,358.7178,218.799,358.7178,210.5997z"/>
	<path d="M422.3779,220.1818c-0.3682,1.8418-2.3955,4.2373-6.3574,4.2373c-5.6201,0-6.541-3.9609-6.541-10.9629v-9.2139
		c0-5.0674-0.2764-8.8447-3.04-8.8447c-2.0273,0-3.6855,0.4609-5.252,1.6587v6.1733l-0.0918,7.3701
		c0,8.1992,0.3682,12.1611,4.1455,12.8984H390.5c3.7773-0.7373,4.1465-4.6992,4.1465-12.8984v-7.3701
		c0-4.3311-1.1982-5.3442-2.7646-6.0815c2.9482,0,6.9102-1.1978,9.3057-3.1323v2.5796c1.29-0.9214,2.9482-1.6582,5.252-1.6582
		c8.6602,0,9.9502,4.791,9.9502,11.8853v9.6738c0,1.3818,0.2764,5.8047,1.0137,7.3701c2.1182-0.2764,4.1455-1.9346,4.5137-3.6846
		H422.3779z"/>
	<path d="M466.0459,209.6788c0,7.2783-3.4092,14.7402-11.7012,14.7402s-11.7012-7.4619-11.7012-14.7402
		s3.4092-14.7417,11.7012-14.7417S466.0459,202.4005,466.0459,209.6788z M458.2139,209.6788c0-5.8047-0.6445-14.2812-3.8691-14.2812
		s-3.8691,8.4766-3.8691,14.2812c0,5.8037,0.6445,14.2803,3.8691,14.2803S458.2139,215.4825,458.2139,209.6788z"/>
	<path d="M515.332,209.6788c0,7.2783-2.9482,14.7402-11.7012,14.7402c-1.6582,0-3.2246-0.46-4.4219-1.0127v14.833
		c0,8.2002,0.3682,12.1611,4.1455,12.8984h-15.2021c3.7783-0.7373,4.1465-4.6982,4.1465-12.8984l0.0918-34.918
		c0-4.3306-1.1973-5.3438-2.7637-6.0811c2.9482,0,7.2783-1.1978,9.6738-3.1323v1.7505c1.1982-0.5527,2.6719-0.9214,4.3301-0.9214
		C512.3838,194.9371,515.332,202.4005,515.332,209.6788z M507.501,209.6788c-0.1846-5.9893-0.6455-14.2812-4.791-14.2812
		c-1.0137,0-2.3037,0.3687-3.4092,0.9214v7.0024l-0.0918,19.7158c1.1973,0.5527,2.4873,0.9219,3.501,0.9219
		C506.9482,223.9591,507.501,215.4825,507.501,209.6788z"/>
	<path d="M560.5645,199.7281c0,2.6724-2.2119,4.8833-4.791,4.8833c-2.6719,0-4.8828-2.2109-4.8828-4.8833
		c0-1.29,0.5527-2.5801,1.4736-3.4092c-1.4736,0.1846-2.8564,0.8291-4.2383,2.6719v4.2388l-0.0918,7.3701
		c0,8.1992,0.3682,12.1611,4.1455,12.8984h-14.7412c3.7783-0.7373,4.1465-4.6992,4.1465-12.8984v-7.3701
		c0-4.3311-1.1982-5.3442-2.7637-6.0815c2.9482,0,6.9092-1.1978,9.3047-3.1323v4.5146c2.1191-2.6719,4.791-3.5933,7.1865-3.5933
		C558.3525,194.9371,560.5645,197.1481,560.5645,199.7281z"/>
	<path d="M599.2568,200.465h-0.5527c-0.6455-3.501-3.4092-5.0674-7.3711-5.0674c-3.501,0-5.252,1.8428-5.252,4.146
		c0,7.7397,15.0176,4.0542,15.0176,16.3071c0,6.7266-4.9746,8.5684-9.8574,8.5684c-7.1865,0-8.8447-3.5928-9.4902-6.7256h0.4609
		c0.6445,3.4092,2.6719,6.2656,8.9365,6.2656c2.2119,0,5.4365-0.9219,5.4365-4.6992c0-8.3838-14.6494-4.4219-14.6494-16.583
		c0-4.7915,3.2246-7.7397,9.6738-7.7397C596.585,194.9371,598.8877,197.7013,599.2568,200.465z"/>
	<path d="M638.8691,220.1818c-0.3682,1.8418-2.3955,4.2373-6.3574,4.2373c-5.6201,0-6.541-3.9609-6.541-10.9629v-10.1348
		c0-4.3306-1.1982-5.3438-2.7646-6.0811c2.9482,0,7.2793-1.1978,9.6748-3.1323v3.5933h5.8965v0.4604h-5.8965v18.3345
		c0,1.3818,0.2764,5.8047,1.0127,7.3701c2.1191-0.2764,4.1465-1.9346,4.5146-3.6846H638.8691z"/>
	<path d="M690.4609,220.1818c-0.3691,1.8418-2.3955,4.2373-6.3574,4.2373c-2.7637,0-4.3301-0.9209-5.3438-2.7637
		c-1.4746,1.4746-3.4092,2.7637-6.4492,2.7637c-8.6602,0-9.9502-4.79-9.9502-11.8848v-9.2129c0-4.3306-1.1982-5.3438-2.7646-6.0811
		c2.9482,0,7.2793-1.1978,9.6748-3.1323v21.0063c0,5.0674,0.2764,8.8447,3.04,8.8447c2.4873,0,4.5146-0.7373,6.2646-2.5801
		c-0.8291-1.9346-1.0137-4.6064-1.0137-7.9229v-10.1348c0-4.3306-1.1973-5.3438-2.7637-6.0811c2.9482,0,7.2783-1.1978,9.6738-3.1323
		v22.3882c0,1.3818,0.2764,5.8047,1.0137,7.3701c2.1191-0.2764,4.1465-1.9346,4.5146-3.6846H690.4609z"/>
	<path d="M736.1533,195.8585c-2.5791,0.8291-5.1592,2.3032-6.8174,7.0947l-15.1104,42.6562
		c-1.2891,3.4092-3.6846,5.5283-7.1855,5.5283c-2.8564,0-4.6074-1.9346-4.6074-4.3301s1.5664-4.3301,4.2383-4.3301
		c2.5801,0,4.0537,1.75,4.0537,4.0537c0,1.1973-0.2764,2.2109-1.0127,2.9482c1.5654-0.3682,3.501-2.4873,4.4219-4.9756
		l6.0811-17.1367l-7.002-24.0459c-1.4746-5.3438-2.7646-6.7261-5.3438-7.4629h13.6357c-2.5801,0.7368-2.3037,3.9614-1.4746,7.0947
		l3.8691,14.0039l4.5146-14.0039c1.1055-3.5015,0.3691-6.4497-1.6582-7.0947H736.1533z"/>
	<path d="M70.9248,277.3517h12.8984c15.2949,0,24.416,18.2422,24.416,36.8535c0,18.6104-9.1211,36.9443-24.416,36.8525H70.9248
		c4.6074-0.9209,5.0674-5.6201,5.0674-13.8203V291.172C75.9922,282.9718,75.5322,278.2726,70.9248,277.3517z M98.5645,314.2052
		c0-10.4111-2.4873-36.3926-14.7412-36.3926v72.7842C96.0771,350.5968,98.5645,324.6154,98.5645,314.2052z"/>
	<path d="M135.3223,337.2374c0,7.2793-3.4092,14.7412-11.7012,14.7412s-11.7012-7.4619-11.7012-14.7412
		c0-7.2783,3.4092-14.7412,11.7012-14.7412S135.3223,329.9591,135.3223,337.2374z M127.4902,337.2374
		c0-5.8037-0.6445-14.2803-3.8691-14.2803s-3.8691,8.4766-3.8691,14.2803c0,5.8047,0.6445,14.2812,3.8691,14.2812
		S127.4902,343.0421,127.4902,337.2374z"/>
	<path d="M180.0938,323.4181c-2.5791,0.8291-5.1592,2.3027-6.8174,7.0938L158.166,373.17
		c-1.2891,3.4082-3.6846,5.5273-7.1855,5.5273c-2.8564,0-4.6074-1.9346-4.6074-4.3301s1.5664-4.3301,4.2383-4.3301
		c2.5801,0,4.0537,1.75,4.0537,4.0537c0,1.1973-0.2764,2.2109-1.0127,2.9482c1.5654-0.3682,3.501-2.4873,4.4219-4.9756
		l6.0811-17.1367l-7.002-24.0459c-1.4746-5.3438-2.7646-6.7256-5.3438-7.4629h13.6357c-2.5801,0.7373-2.3037,3.9619-1.4746,7.0938
		l3.8691,14.0049l4.5146-14.0049c1.1055-3.501,0.3691-6.4492-1.6582-7.0938H180.0938z"/>
	<path d="M204.875,337.2374c0,7.2793-3.4092,14.7412-11.7012,14.7412s-11.7012-7.4619-11.7012-14.7412
		c0-7.2783,3.4092-14.7412,11.7012-14.7412S204.875,329.9591,204.875,337.2374z M197.043,337.2374
		c0-5.8037-0.6445-14.2803-3.8691-14.2803s-3.8691,8.4766-3.8691,14.2803c0,5.8047,0.6445,14.2812,3.8691,14.2812
		S197.043,343.0421,197.043,337.2374z"/>
	<path d="M239.4219,347.7413c-0.3691,1.8428-2.3955,4.2373-6.3574,4.2373c-2.7637,0-4.3301-0.9209-5.3438-2.7637
		c-1.4746,1.4746-3.4092,2.7637-6.4492,2.7637c-8.6602,0-9.9502-4.79-9.9502-11.8848v-9.2129c0-4.3301-1.1982-5.3438-2.7646-6.0811
		c2.9482,0,7.2793-1.1973,9.6748-3.1328v21.0068c0,5.0674,0.2764,8.8447,3.04,8.8447c2.4873,0,4.5146-0.7373,6.2646-2.5801
		c-0.8291-1.9346-1.0137-4.6064-1.0137-7.9229V330.881c0-4.3301-1.1973-5.3438-2.7637-6.0811c2.9482,0,7.2783-1.1973,9.6738-3.1328
		v22.3887c0,1.3818,0.2764,5.8047,1.0137,7.3701c2.1191-0.2764,4.1465-1.9346,4.5146-3.6846H239.4219z"/>
	<path d="M276.3623,327.2872c0,2.6719-2.2119,4.8838-4.791,4.8838c-2.6719,0-4.8828-2.2119-4.8828-4.8838
		c0-1.2891,0.5527-2.5791,1.4736-3.4082c-1.4736,0.1836-2.8564,0.8291-4.2383,2.6719v4.2373l-0.0918,7.3711
		c0,8.1992,0.3682,12.1611,4.1455,12.8984h-14.7412c3.7783-0.7373,4.1465-4.6992,4.1465-12.8984v-7.3711
		c0-4.3301-1.1982-5.3438-2.7637-6.0801c2.9482,0,6.9092-1.1982,9.3047-3.1328v4.5146c2.1191-2.6719,4.791-3.5938,7.1865-3.5938
		C274.1504,322.4962,276.3623,324.7081,276.3623,327.2872z"/>
	<path d="M300.1299,344.0558h0.46c0,2.3027-2.2109,7.9229-8.8447,7.9229c-9.6738,0-12.6221-7.4619-12.6221-14.7412
		c0-7.2783,3.4092-14.7412,11.7012-14.7412s10.5029,7.4629,10.5029,12.8994h-14.3721v1.8418c0,5.8047,0.1836,14.2812,4.79,14.2812
		C297.918,351.5187,300.1299,346.0822,300.1299,344.0558z M286.9551,334.9347h7.4619c0-4.6992-0.46-11.9775-3.5928-11.9775
		C287.9678,322.9572,287.1387,329.4064,286.9551,334.9347z"/>
	<path d="M333.9395,347.7413c-0.3682,1.8428-2.3955,4.2373-6.3564,4.2373c-1.8428,0-3.1328-0.46-4.1465-1.1973
		c-1.29,0.6445-2.9482,1.1973-4.8828,1.1973c-8.7529,0-11.7012-7.5547-11.7012-14.833s2.9482-14.6494,11.7012-14.6494h9.3975
		v21.5596c0,1.3818,0.2764,5.8047,1.0137,7.3701c2.1191-0.2764,4.1455-1.9346,4.5146-3.6846H333.9395z M319.4746,351.5187
		c1.1064,0,2.4883-0.4609,3.6855-1.1055c-1.75-1.751-2.1191-4.9756-2.1191-9.3975v-18.0586h-1.5664
		c-4.2373,0-4.79,8.3838-4.79,14.1885S315.2373,351.5187,319.4746,351.5187z"/>
	<path d="M363.3271,347.7413c-0.3682,1.8428-2.5801,4.2373-6.541,4.2373c-1.8428,0-3.1328-0.46-4.0537-1.4736
		c-1.29,0.8291-3.1328,1.4736-5.252,1.4736c-8.7529,0-11.7012-7.5547-11.7012-14.833s2.9482-14.6494,11.7012-14.6494h3.4092
		l-0.0928-37.7734c0-4.3311-1.1973-5.3438-2.7637-6.0811c2.9482,0,6.9102-1.1982,9.3057-3.1328v68.5469
		c0,1.3818,0.2764,5.8047,1.0137,7.3701c2.1182-0.2764,4.1455-1.9346,4.5137-3.6846H363.3271z M352.4561,350.2286
		c-1.3828-1.751-1.5664-4.9756-1.5664-9.2129v-18.0586h-2.4883c-4.2373,0-4.79,8.3838-4.79,14.1885s0.5527,14.373,4.79,14.373
		C349.5996,351.5187,351.166,350.9659,352.4561,350.2286z"/>
	<path d="M392.8047,347.7413c-0.3682,1.8428-2.3955,4.2373-6.3574,4.2373c-5.6201,0-6.541-3.9609-6.541-10.9629V330.881
		c0-4.3301-1.1982-5.3438-2.7646-6.0811c2.9482,0,7.2793-1.1973,9.6748-3.1328v3.5938h5.8965v0.46h-5.8965v18.335
		c0,1.3818,0.2764,5.8047,1.0127,7.3701c2.1191-0.2764,4.1465-1.9346,4.5146-3.6846H392.8047z"/>
	<path d="M427.4443,347.7413c-0.3682,1.8428-2.3955,4.2373-6.3574,4.2373c-5.6201,0-6.541-3.9609-6.541-10.9629v-9.2139
		c0-5.0674-0.2764-8.8447-3.04-8.8447c-2.1191,0-3.7773,0.4609-5.3438,1.751v13.4512c0,8.1992,0.3682,12.1611,4.1455,12.8984
		h-14.7412c3.7773-0.7373,4.1465-4.6992,4.1465-12.8984v-53.4365c0-4.3311-1.1982-5.3438-2.7646-6.0811
		c2.9482,0,6.9102-1.1982,9.3057-3.1328v9.2139l-0.0918,39.5244c1.3818-1.0137,3.04-1.751,5.3438-1.751
		c8.6602,0,9.9502,4.791,9.9502,11.8857v9.6738c0,1.3818,0.2764,5.8047,1.0137,7.3701c2.1182-0.2764,4.1455-1.9346,4.5137-3.6846
		H427.4443z"/>
	<path d="M431.5879,338.1593v-7.3711c0-4.3301-1.1982-5.3438-2.7637-6.0801c2.9482,0,6.9092-1.1982,9.3047-3.1328v9.2129
		l-0.0918,7.3711c0,8.1992,0.3682,12.1611,4.1455,12.8984h-14.7412C431.2197,350.3204,431.5879,346.3585,431.5879,338.1593z
		 M429.9297,307.9396c0-2.5801,2.2109-4.791,4.8828-4.791c2.5801,0,4.791,2.2109,4.791,4.791c0,2.6719-2.2109,4.8828-4.791,4.8828
		C432.1406,312.8224,429.9297,310.6115,429.9297,307.9396z"/>
	<path d="M463.3721,328.0245h-0.5527c-0.6455-3.501-3.4092-5.0674-7.3711-5.0674c-3.501,0-5.252,1.8428-5.252,4.1465
		c0,7.7383,15.0176,4.0537,15.0176,16.3066c0,6.7266-4.9746,8.5684-9.8574,8.5684c-7.1865,0-8.8447-3.5928-9.4902-6.7256h0.4609
		c0.6445,3.4092,2.6719,6.2656,8.9365,6.2656c2.2119,0,5.4365-0.9219,5.4365-4.6992c0-8.3838-14.6494-4.4219-14.6494-16.584
		c0-4.791,3.2246-7.7393,9.6738-7.7393C460.7002,322.4962,463.0029,325.2609,463.3721,328.0245z"/>
	<path d="M498.3779,347.7413c-0.3691,1.8428-2.3955,4.2373-6.3574,4.2373c-5.6201,0-6.541-3.9609-6.541-10.9629V330.881
		c0-4.3301-1.1982-5.3438-2.7646-6.0811c2.9482,0,7.2793-1.1973,9.6748-3.1328v3.5938h5.8965v0.46h-5.8965v18.335
		c0,1.3818,0.2764,5.8047,1.0127,7.3701c2.1191-0.2764,4.1465-1.9346,4.5146-3.6846H498.3779z"/>
	<path d="M527.9502,323.4181c-2.5791,0.8291-5.1592,2.3027-6.8174,7.0938L506.0225,373.17
		c-1.2891,3.4082-3.6846,5.5273-7.1855,5.5273c-2.8564,0-4.6074-1.9346-4.6074-4.3301s1.5664-4.3301,4.2383-4.3301
		c2.5801,0,4.0537,1.75,4.0537,4.0537c0,1.1973-0.2764,2.2109-1.0127,2.9482c1.5654-0.3682,3.501-2.4873,4.4219-4.9756
		l6.0811-17.1367l-7.002-24.0459c-1.4746-5.3438-2.7646-6.7256-5.3438-7.4629h13.6357c-2.5801,0.7373-2.3037,3.9619-1.4746,7.0938
		l3.8691,14.0049l4.5146-14.0049c1.1055-3.501,0.3691-6.4492-1.6582-7.0938H527.9502z"/>
	<path d="M554.666,337.2374c0,7.2793-2.9482,14.7412-11.7012,14.7412c-1.6582,0-3.2246-0.46-4.4219-1.0127v14.833
		c0,8.2002,0.3682,12.1611,4.1455,12.8984h-15.2021c3.7783-0.7373,4.1465-4.6982,4.1465-12.8984l0.0918-34.918
		c0-4.3301-1.1973-5.3438-2.7637-6.0811c2.9482,0,7.2783-1.1973,9.6738-3.1328v1.751c1.1982-0.5527,2.6719-0.9219,4.3301-0.9219
		C551.7178,322.4962,554.666,329.9591,554.666,337.2374z M546.835,337.2374c-0.1846-5.9883-0.6455-14.2803-4.791-14.2803
		c-1.0137,0-2.3037,0.3691-3.4092,0.9219v7.002l-0.0918,19.7158c1.1973,0.5527,2.4873,0.9219,3.501,0.9219
		C546.2822,351.5187,546.835,343.0421,546.835,337.2374z"/>
	<path d="M581.1973,344.0558h0.46c0,2.3027-2.2109,7.9229-8.8447,7.9229c-9.6738,0-12.6221-7.4619-12.6221-14.7412
		c0-7.2783,3.4092-14.7412,11.7012-14.7412s10.5029,7.4629,10.5029,12.8994h-14.3721v1.8418c0,5.8047,0.1836,14.2812,4.79,14.2812
		C578.9854,351.5187,581.1973,346.0822,581.1973,344.0558z M568.0225,334.9347h7.4619c0-4.6992-0.46-11.9775-3.5928-11.9775
		C569.0352,322.9572,568.2061,329.4064,568.0225,334.9347z"/>
	<path d="M611.1377,283.5245c0,2.8564-2.0273,4.8828-4.791,4.8828c-2.8564,0-4.8828-2.0264-4.8828-4.8828
		c0-2.7637,2.2109-4.791,4.8828-4.791c-0.9209-0.4609-2.1191-0.9209-3.8691-0.9209c-3.2246,0-3.9619,3.7773-3.9619,8.8447v38.6035
		h6.9102v0.46h-6.9102v42.9346c0,7.002-0.9219,10.9639-6.542,10.9639c-3.9609,0-5.9883-2.3955-6.3564-4.2383h0.46
		c0.3691,1.75,2.3955,3.4082,4.5146,3.6855c0.7373-1.5664,1.0137-5.9893,1.0137-7.3711v-45.9746H587.46v-0.46h4.1455v-33.5361
		c0-7.0947,1.751-14.373,10.8721-14.373C606.1621,277.3517,611.1377,278.9181,611.1377,283.5245z"/>
	<path d="M634.5371,347.7413c-0.3682,1.8428-2.3955,4.2373-6.3564,4.2373c-1.8428,0-3.1328-0.46-4.1465-1.1973
		c-1.29,0.6445-2.9482,1.1973-4.8828,1.1973c-8.7529,0-11.7012-7.5547-11.7012-14.833s2.9482-14.6494,11.7012-14.6494h9.3975
		v21.5596c0,1.3818,0.2764,5.8047,1.0137,7.3701c2.1191-0.2764,4.1455-1.9346,4.5146-3.6846H634.5371z M620.0723,351.5187
		c1.1064,0,2.4883-0.4609,3.6855-1.1055c-1.75-1.751-2.1191-4.9756-2.1191-9.3975v-18.0586h-1.5664
		c-4.2373,0-4.79,8.3838-4.79,14.1885S615.835,351.5187,620.0723,351.5187z"/>
	<path d="M636.377,337.2374c0-7.2783,2.9482-14.7412,12.1621-14.7412c5.7119,0,7.4629,5.252,7.4629,7.9238h-0.4609
		c0-2.3955-1.751-7.4629-7.002-7.4629c-4.1465,0-4.3301,8.4766-4.3301,14.2803c0,5.8047,0.1836,14.2812,4.3301,14.2812
		c5.251,0,7.002-5.0674,7.002-7.4629h0.4609c0,2.6719-1.751,7.9229-7.4629,7.9229
		C639.3252,351.9786,636.377,344.5167,636.377,337.2374z"/>
	<path d="M681.6113,344.0558h0.46c0,2.3027-2.2109,7.9229-8.8447,7.9229c-9.6738,0-12.6221-7.4619-12.6221-14.7412
		c0-7.2783,3.4092-14.7412,11.7012-14.7412s10.5029,7.4629,10.5029,12.8994h-14.3721v1.8418c0,5.8047,0.1836,14.2812,4.79,14.2812
		C679.3994,351.5187,681.6113,346.0822,681.6113,344.0558z M668.4365,334.9347h7.4619c0-4.6992-0.46-11.9775-3.5928-11.9775
		C669.4492,322.9572,668.6201,329.4064,668.4365,334.9347z"/>
	<path d="M709.8008,296.6993c0,7.1865-3.04,18.9795-13.082,19.3477v18.4268h-0.4609V315.587c4.4219,0,5.7119-13.083,5.7119-18.8877
		c0-5.8037-0.4609-18.8867-5.7119-18.8867c-4.0537,0-5.7119,2.4873-5.8965,4.0537c0.5527-0.3691,1.29-0.5527,2.0264-0.5527
		c2.0273,0,3.8701,1.75,3.8701,3.9619c0,2.2109-1.751,3.9609-3.8701,3.9609c-2.3945,0-4.0537-1.9346-4.0537-4.9746
		c0-3.3174,2.2119-6.9102,8.8447-6.9102C707.5898,277.3517,709.8008,289.421,709.8008,296.6993z M700.4033,348.0177
		c0,2.2109-1.75,3.9609-3.8691,3.9609c-2.2109,0-4.0537-1.75-4.0537-3.9609c0-2.2119,1.8428-3.9619,4.0537-3.9619
		C698.5605,344.0558,700.4033,345.8058,700.4033,348.0177z"/>
</g>
</svg>
