<?xml version="1.0" encoding="utf-8"?>
<!-- Generator: Adobe Illustrator 22.1.0, SVG Export Plug-In . SVG Version: 6.00 Build 0)  -->
<svg version="1.1" id="レイヤー_1" xmlns="http://www.w3.org/2000/svg" xmlns:xlink="http://www.w3.org/1999/xlink" x="0px"
	 y="0px" viewBox="0 0 800 400" enable-background="new 0 0 800 400" xml:space="preserve">
<rect y="0" fill="#FFFFFF" width="800" height="400"/>
<g>
	<path d="M147.4385,168.3395v18.833c0,11.1006,0.624,17.4624,6.8599,18.7095h-24.3213c6.2363-1.2471,6.8599-7.6089,6.8599-18.7095
		v-62.3623c0-11.1006-0.6235-17.4619-6.8599-18.709h17.4614c23.1992,0,33.0522,13.4707,33.0522,31.1816
		S170.6377,168.4635,147.4385,168.3395z M147.4385,167.7155c16.5889,0,19.9561-18.709,19.9561-30.4326
		c0-11.9736-3.3672-30.5576-19.9561-30.5576V167.7155z"/>
	<path d="M202.1924,187.1725c0,9.8535-4.6147,19.9565-15.8398,19.9565c-11.2256,0-15.8403-10.103-15.8403-19.9565
		s4.6147-19.9561,15.8403-19.9561C197.5776,167.2164,202.1924,177.319,202.1924,187.1725z M191.5908,187.1725
		c0-7.8574-0.873-19.332-5.2383-19.332c-4.3657,0-5.2388,11.4746-5.2388,19.332s0.873,19.3335,5.2388,19.3335
		C190.7178,206.506,191.5908,195.0299,191.5908,187.1725z"/>
	<path d="M212.7935,188.4196v-9.9775c0-5.8623-1.6216-7.2344-3.7417-8.2324c3.9912,0,9.3545-1.6211,12.5972-4.2402v12.4727
		l-0.1245,9.9775c0,11.1006,0.4985,16.4644,5.6123,17.4624h-19.9561C212.2944,204.8839,212.7935,199.5201,212.7935,188.4196z
		 M210.5483,147.5104c0-3.4932,2.9937-6.4863,6.6104-6.4863c3.4927,0,6.4858,2.9932,6.4858,6.4863
		c0,3.6162-2.9932,6.6104-6.4858,6.6104C213.542,154.1207,210.5483,151.1266,210.5483,147.5104z"/>
	<path d="M255.8228,174.6998h-0.748c-0.873-4.7393-4.6152-6.8594-9.978-6.8594c-4.7397,0-7.1094,2.4941-7.1094,5.6123
		c0,10.4766,20.3301,5.4883,20.3301,22.0762c0,9.106-6.7354,11.6001-13.3457,11.6001c-9.7285,0-11.9736-4.8643-12.8467-9.105h0.6235
		c0.873,4.6147,3.6172,8.4819,12.0986,8.4819c2.9932,0,7.3589-1.248,7.3589-6.3618c0-11.3496-19.8315-5.9873-19.8315-22.4502
		c0-6.4863,4.3652-10.4775,13.0962-10.4775C252.2061,167.2164,255.3237,170.9586,255.8228,174.6998z"/>
	<path d="M297.4795,187.1725c0,9.8535-4.6147,19.9565-15.8398,19.9565c-11.2256,0-15.8403-10.103-15.8403-19.9565
		s4.6147-19.9561,15.8403-19.9561C292.8647,167.2164,297.4795,177.319,297.4795,187.1725z M286.8779,187.1725
		c0-7.8574-0.873-19.332-5.2383-19.332c-4.3657,0-5.2388,11.4746-5.2388,19.332s0.873,19.3335,5.2388,19.3335
		C286.0049,206.506,286.8779,195.0299,286.8779,187.1725z"/>
	<path d="M346.2466,201.3917c-0.499,2.4951-3.2427,5.7373-8.606,5.7373c-7.6084,0-8.8555-5.3633-8.8555-14.8423v-12.4727
		c0-6.8604-0.3745-11.9736-4.1162-11.9736c-2.7437,0-4.9888,0.623-7.1094,2.2451v8.3564l-0.1245,9.9775
		c0,11.1006,0.499,16.4644,5.6128,17.4624h-19.9561c5.1138-0.998,5.6123-6.3618,5.6123-17.4624v-9.9775
		c0-5.8623-1.6211-7.2344-3.7417-8.2324c3.9912,0,9.3545-1.6211,12.5972-4.2402v3.4922c1.7461-1.2471,3.9912-2.2451,7.1094-2.2451
		c11.7241,0,13.4702,6.4863,13.4702,16.0898v13.0957c0,1.8711,0.3745,7.8589,1.3721,9.979c2.8687-0.374,5.6128-2.6191,6.1118-4.9893
		H346.2466z"/>
	<path d="M399.1284,187.1725c0,9.8535-4.6147,19.9565-15.8398,19.9565c-11.2256,0-15.8403-10.103-15.8403-19.9565
		s4.6147-19.9561,15.8403-19.9561C394.5137,167.2164,399.1284,177.319,399.1284,187.1725z M388.5269,187.1725
		c0-7.8574-0.873-19.332-5.2383-19.332c-4.3657,0-5.2388,11.4746-5.2388,19.332s0.873,19.3335,5.2388,19.3335
		C387.6538,206.506,388.5269,195.0299,388.5269,187.1725z"/>
	<path d="M438.043,114.4576c0,3.8662-2.7441,6.6104-6.4863,6.6104c-3.8662,0-6.6104-2.7441-6.6104-6.6104
		c0-3.7412,2.9932-6.4854,6.6104-6.4854c-1.2471-0.624-2.8682-1.2471-5.2383-1.2471c-4.3652,0-5.3633,5.1133-5.3633,11.9736v52.2598
		h9.3545v0.623h-9.3545v58.1226c0,9.4795-1.2471,14.8428-8.8555,14.8428c-5.3633,0-8.1074-3.2432-8.6064-5.7373h0.624
		c0.499,2.3691,3.2432,4.6143,6.1113,4.9893c0.998-2.1211,1.3721-8.1074,1.3721-9.9785v-62.2388h-5.6123v-0.623h5.6123v-45.4004
		c0-9.6035,2.3701-19.457,14.7178-19.457C431.3076,106.1012,438.043,108.2213,438.043,114.4576z"/>
	<path d="M518.1143,205.882H493.793c6.2363-1.2471,6.8594-7.6089,6.8594-18.7095v-76.8311l-22.3252,97.4116l-19.083-87.4331v66.8525
		c0,11.1006,0.623,17.4624,6.8594,18.7095h-14.3428c6.2363-1.2471,6.8594-7.6089,6.8594-18.7095v-62.3623
		c0-11.1006-0.623-17.4619-6.8594-18.709h16.4629l14.9678,77.0801l17.7109-77.0801h17.2119
		c-6.2363,1.2471-6.8604,7.6084-6.8604,18.709v62.3623C511.2539,198.2731,511.8779,204.6349,518.1143,205.882z"/>
	<path d="M559.1484,201.3917c-0.499,2.4951-3.2432,5.7373-8.6064,5.7373c-2.4941,0-4.2402-0.623-5.6123-1.6211
		c-1.7461,0.873-3.9912,1.6211-6.6104,1.6211c-11.8486,0-15.8398-10.228-15.8398-20.0815c0-9.8525,3.9912-19.8311,15.8398-19.8311
		h12.7217v29.1855c0,1.8711,0.374,7.8589,1.3721,9.979c2.8691-0.374,5.6123-2.6191,6.1113-4.9893H559.1484z M539.5664,206.506
		c1.4971,0,3.3672-0.624,4.9893-1.4971c-2.3701-2.3701-2.8691-6.7358-2.8691-12.7222v-24.4463h-2.1201
		c-5.7373,0-6.4854,11.3496-6.4854,19.207C533.0811,194.9059,533.8291,206.506,539.5664,206.506z"/>
	<path d="M564.7607,188.4196l0.124-72.2158c0-5.8623-1.6211-7.2334-3.7412-8.2314c3.9912,0,9.8525-1.6221,13.0957-4.2412v12.4727
		l-0.125,72.2158c0,11.1006,0.499,16.4644,5.6133,17.4624h-20.5801C564.2617,204.8839,564.7607,199.5201,564.7607,188.4196z"/>
	<path d="M587.834,188.4196v-9.9775c0-5.8623-1.6221-7.2344-3.7422-8.2324c3.9912,0,9.3545-1.6211,12.5977-4.2402v12.4727
		l-0.125,9.9775c0,11.1006,0.499,16.4644,5.6123,17.4624h-19.9561C587.335,204.8839,587.834,199.5201,587.834,188.4196z
		 M585.5889,147.5104c0-3.4932,2.9932-6.4863,6.6104-6.4863c3.4922,0,6.4854,2.9932,6.4854,6.4863
		c0,3.6162-2.9932,6.6104-6.4854,6.6104C588.582,154.1207,585.5889,151.1266,585.5889,147.5104z"/>
	<path d="M607.165,187.1725c0-9.8535,3.9912-19.9561,16.4629-19.9561c7.7334,0,10.1035,7.1094,10.1035,10.7266h-0.624
		c0-3.2432-2.3701-10.1025-9.4795-10.1025c-5.6123,0-5.8613,11.4746-5.8613,19.332s0.249,19.3335,5.8613,19.3335
		c7.1094,0,9.4795-6.8608,9.4795-10.104h0.624c0,3.6172-2.3701,10.7271-10.1035,10.7271
		C611.1562,207.129,607.165,197.026,607.165,187.1725z"/>
	<path d="M668.4023,196.402h0.624c0,3.1182-2.9932,10.7271-11.9736,10.7271c-13.0957,0-17.0869-10.103-17.0869-19.9565
		s4.6143-19.9561,15.8398-19.9561s14.2188,10.1025,14.2188,17.4619h-19.457v2.4941c0,7.8574,0.249,19.3335,6.4854,19.3335
		C665.4092,206.506,668.4023,199.1461,668.4023,196.402z M650.5674,184.0543h10.1025c0-6.3604-0.624-16.2139-4.8643-16.2139
		C651.9395,167.8405,650.8164,176.5709,650.5674,184.0543z"/>
</g>
<g>
	<path d="M331.5796,271.0909c0,5.5977-2.2676,11.3379-8.9995,11.3379c-1.2754,0-2.48-0.3545-3.4014-0.7803v11.4092
		c0,6.3066,0.2837,9.3535,3.189,9.9209h-11.6924c2.9053-0.5674,3.189-3.6143,3.189-9.9209l0.0708-26.8564
		c0-3.3311-0.9214-4.1104-2.126-4.6768c2.2676,0,5.5981-0.9219,7.4404-2.4092v1.3457c0.9214-0.4248,2.0552-0.708,3.3306-0.708
		C329.312,259.7531,331.5796,265.4923,331.5796,271.0909z M325.5562,271.0909c-0.1416-4.6064-0.4956-10.9844-3.6846-10.9844
		c-0.7793,0-1.7715,0.2842-2.6221,0.709v5.3857l-0.0708,15.1641c0.9214,0.4258,1.9136,0.709,2.6929,0.709
		C325.1313,282.0743,325.5562,275.5548,325.5562,271.0909z"/>
	<path d="M352.2017,263.4376c0,2.0547-1.7007,3.7559-3.6851,3.7559c-2.0552,0-3.7554-1.7012-3.7554-3.7559
		c0-0.9922,0.4248-1.9844,1.1338-2.6221c-1.1338,0.1416-2.1968,0.6377-3.2598,2.0547v3.2598l-0.0708,5.6689
		c0,6.3066,0.2832,9.3535,3.1885,9.9209H334.415c2.9053-0.5674,3.189-3.6143,3.189-9.9209V266.13
		c0-3.3301-0.9214-4.1094-2.126-4.6768c2.2676,0,5.3145-0.9209,7.1572-2.4092v3.4727c1.6299-2.0557,3.6846-2.7637,5.5273-2.7637
		C350.501,259.7531,352.2017,261.4532,352.2017,263.4376z"/>
	<path d="M372.3267,271.0909c0,5.5977-2.6221,11.3379-8.9995,11.3379c-6.3779,0-8.9995-5.7402-8.9995-11.3379
		c0-5.5986,2.6216-11.3379,8.9995-11.3379C369.7046,259.7531,372.3267,265.4923,372.3267,271.0909z M366.3032,271.0909
		c0-4.4648-0.4961-10.9844-2.9761-10.9844c-2.4805,0-2.9766,6.5195-2.9766,10.9844c0,4.4639,0.4961,10.9834,2.9766,10.9834
		C365.8071,282.0743,366.3032,275.5548,366.3032,271.0909z"/>
	<path d="M387.2085,279.1691c-0.2837,1.417-1.8428,3.2598-4.8896,3.2598c-4.3228,0-5.0312-3.0479-5.0312-8.4326v-7.7949
		c0-3.3311-0.9214-4.1104-2.126-4.6768c2.2676,0,5.5981-0.9219,7.4404-2.4092v2.7637h4.5352v0.3535h-4.5352v14.1016
		c0,1.0635,0.2129,4.4648,0.7798,5.6689c1.6299-0.2119,3.1885-1.4883,3.4722-2.834H387.2085z"/>
	<path d="M408.3965,271.0909c0,5.5977-2.6221,11.3379-8.9995,11.3379c-6.3779,0-8.9995-5.7402-8.9995-11.3379
		c0-5.5986,2.6216-11.3379,8.9995-11.3379C405.7744,259.7531,408.3965,265.4923,408.3965,271.0909z M402.373,271.0909
		c0-4.4648-0.4961-10.9844-2.9761-10.9844c-2.4805,0-2.9766,6.5195-2.9766,10.9844c0,4.4639,0.4961,10.9834,2.9766,10.9834
		C401.877,282.0743,402.373,275.5548,402.373,271.0909z"/>
	<path d="M423.2783,279.1691c-0.2832,1.417-1.8418,3.2598-4.8896,3.2598c-4.3223,0-5.0303-3.0479-5.0303-8.4326v-7.7949
		c0-3.3311-0.9219-4.1104-2.126-4.6768c2.2676,0,5.5977-0.9219,7.4404-2.4092v2.7637h4.5352v0.3535h-4.5352v14.1016
		c0,1.0635,0.2119,4.4648,0.7793,5.6689c1.6299-0.2119,3.1885-1.4883,3.4717-2.834H423.2783z"/>
	<path d="M446.0254,260.4611c-1.9844,0.6377-3.9678,1.7715-5.2432,5.457l-11.6221,32.8086c-0.9922,2.6221-2.834,4.252-5.5273,4.252
		c-2.1963,0-3.543-1.4883-3.543-3.3311c0-1.8418,1.2051-3.3301,3.2598-3.3301c1.9844,0,3.1182,1.3467,3.1182,3.1182
		c0,0.9209-0.2129,1.7002-0.7793,2.2676c1.2041-0.2842,2.6924-1.9141,3.4014-3.8271l4.6768-13.1797l-5.3857-18.4951
		c-1.1338-4.1104-2.126-5.1729-4.1104-5.7402h10.4883c-1.9844,0.5674-1.7715,3.0469-1.1338,5.457l2.9756,10.7705l3.4727-10.7705
		c0.8506-2.6934,0.2832-4.9609-1.2754-5.457H446.0254z"/>
	<path d="M466.5762,271.0909c0,5.5977-2.2676,11.3379-9,11.3379c-1.2754,0-2.4805-0.3545-3.4014-0.7803v11.4092
		c0,6.3066,0.2832,9.3535,3.1885,9.9209h-11.6914c2.9053-0.5674,3.1885-3.6143,3.1885-9.9209l0.0703-26.8564
		c0-3.3311-0.9209-4.1104-2.125-4.6768c2.2676,0,5.5977-0.9219,7.4404-2.4092v1.3457c0.9209-0.4248,2.0547-0.708,3.3301-0.708
		C464.3086,259.7531,466.5762,265.4923,466.5762,271.0909z M460.5527,271.0909c-0.1416-4.6064-0.4961-10.9844-3.6846-10.9844
		c-0.7803,0-1.7725,0.2842-2.6221,0.709v5.3857l-0.0713,15.1641c0.9209,0.4258,1.9131,0.709,2.6934,0.709
		C460.127,282.0743,460.5527,275.5548,460.5527,271.0909z"/>
	<path d="M486.9844,276.3341h0.3545c0,1.7715-1.7012,6.0947-6.8027,6.0947c-7.4404,0-9.708-5.7402-9.708-11.3379
		c0-5.5986,2.6221-11.3379,8.999-11.3379c6.3779,0,8.0781,5.7393,8.0781,9.9199h-11.0537v1.418
		c0,4.4639,0.1416,10.9834,3.6846,10.9834C485.2842,282.0743,486.9844,277.8937,486.9844,276.3341z M476.8516,269.3195h5.7393
		c0-3.6143-0.3545-9.2129-2.7637-9.2129C477.6309,260.1066,476.9932,265.0675,476.8516,269.3195z"/>
</g>
</svg>
