<?xml version="1.0" encoding="utf-8"?>
<!-- Generator: Adobe Illustrator 22.1.0, SVG Export Plug-In . SVG Version: 6.00 Build 0)  -->
<svg version="1.1" id="レイヤー_1" xmlns="http://www.w3.org/2000/svg" xmlns:xlink="http://www.w3.org/1999/xlink" x="0px"
	 y="0px" viewBox="0 0 352 149" style="enable-background:new 0 0 352 149;" xml:space="preserve">
<style type="text/css">
	.st0{fill:#333333;}
</style>
<g>
	<path class="st0" d="M124.6,39.5l-25.3,77H78L64.7,68.8l-12.9,47.7H30.5l-25.9-77h21.8l15.1,52.1l14.7-49.9H74l15.2,50.1l15.1-52.3
		C104.3,39.5,124.6,39.5,124.6,39.5z"/>
	<path class="st0" d="M118.7,87.7c0-17.5,11.4-29.8,30.8-29.8c19.4,0,30.8,12.3,30.8,29.8c0,17.6-11.4,29.9-30.8,29.9
		C130.1,117.6,118.7,105.3,118.7,87.7z M161.6,87.7c0-7.6-3.4-14-12.1-14s-12.1,6.4-12.1,14c0,7.5,3.4,13.9,12.1,13.9
		S161.6,95.2,161.6,87.7z"/>
	<path class="st0" d="M188.3,33.6c5.6-0.1,14.3-1.1,18.7-2.3v85.3h-18.7V33.6z"/>
	<path class="st0" d="M275.8,88.2c0,18.7-11,29.4-27.2,29.4c-5.6,0-10.2-1.4-13.8-3.8v29.6c-5.6,0.1-14.3,1.1-18.7,2.3V61.2
		c5.7,0,14.3-1,18.7-2.2v3.4c3.9-2.8,8.8-4.6,14.5-4.6C265,57.8,275.8,68.1,275.8,88.2z M257.1,87.7c0-7.3-2.8-14.1-13-14.1
		c-3.7,0-6.8,1.2-9.2,3V98c2.2,2.1,5.1,3.6,9.2,3.6C253,101.7,257.1,95.6,257.1,87.7z"/>
	<path class="st0" d="M339.1,116.5h-18.7l-0.1-31.1c0-7.1-1.3-11.7-7.6-11.7c-5.3,0-9.4,3.2-11.7,7.6v35.2h-18.7V33.6
		c5.6-0.1,14.3-1.1,18.7-2.3v35c3.3-4.3,8.2-8.5,16.9-8.5c13.8,0,21,8.5,21,28.2L339.1,116.5z"/>
</g>
</svg>
